<svg width="500" height="500" viewBox="0 0 500 500" fill="none" xmlns="http://www.w3.org/2000/svg">
<path fill-rule="evenodd" clip-rule="evenodd" d="M444.263 242.681C429.587 244.672 403.941 255.293 408.814 260.996C413.685 266.692 427.893 274.525 429.911 275.513C423.14 275.513 400.882 277.814 398.397 284.124C395.905 290.433 430.603 311.583 443.308 316.554C427.504 312.104 389.813 304.68 387.307 309.763C384.803 314.846 391.316 330.557 397.27 335.231C392.911 333.926 370.146 327.452 366.494 335.871C362.479 345.134 384.73 379.113 387.255 385.462C376.997 375.283 348.898 352.465 344.916 355.076C340.934 357.687 341.916 370.404 342.951 376.872C339.095 372.171 332.469 364.636 326.746 366.89C321.023 369.145 321.729 390.981 321.359 400.283C316.639 389.339 308.932 367.306 301.798 368.11C294.665 368.914 286.661 383.906 285.139 389.636C284.05 383.9 279.383 371.288 272.322 371.288C265.261 371.288 248.845 404.667 243.881 415.513C243.86 407.12 245.871 366.172 241.421 364.141C236.971 362.11 221.953 371.446 218.728 375.692C219.922 370.312 220.938 352.129 216.935 349.934C212.927 347.731 201.508 347.039 180.86 366.132C184.287 358.807 189.932 350.837 191.303 343.11C199.853 342.668 208.318 341.699 216.856 340.031C235.487 353.513 258.391 361.471 283.147 361.471C345.674 361.471 396.359 310.785 396.359 248.259C396.359 243.36 396.043 238.534 395.443 233.807C399.637 229.858 403.658 226.034 407.402 222.467C406.545 224.518 406.071 226.99 406.15 230.036C406.394 239.582 431.124 241.62 444.263 242.681ZM162.693 283.371C159.127 281.439 142.54 280.675 142.54 280.675C142.54 280.675 161.217 268.122 160.782 259.044C160.346 249.972 130.56 245.324 118.785 242.713C129.175 240.524 162.825 232.923 164.27 226.152C165.72 219.388 153.753 214.581 148.724 212.221C154.36 212.294 168.647 214.687 170.572 207.712C172.774 199.715 137.594 178.888 129.577 176C131.371 176.422 164.876 184.241 177.126 181.591C186.244 179.613 175.616 167.344 173.862 165.893C176.552 167.205 191.913 170.37 196.31 163.078C200.708 155.786 185.788 126.745 177.435 114.436C184.852 121.833 218.726 145.93 223.776 141.829C228.833 137.729 224.969 124.484 222.26 120.113C227.719 125.222 233.092 132.052 240.028 131.907C243.502 131.835 247.873 120.35 248.592 94.3939C253.292 108.938 264.513 128.703 272.754 127.503C281.002 126.31 283.818 114.067 284.958 108.852C285.908 114.449 290.238 128.835 295.738 129.362C302.488 130.417 315.404 100.374 320.105 86.7989C320.817 93.5038 315.899 127.938 323.176 130.8C330.448 133.667 342.474 119.17 349.297 111.047C345.158 118.906 337.067 137.913 341.887 142.462C346.706 147.011 363.367 142.245 369.86 136.891C368.041 140.873 367.652 144.058 368.147 147.051C360.742 148.501 353.102 150.631 345.21 153.571C327.383 141.869 306.061 135.052 283.145 135.052C220.625 135.052 169.939 185.738 169.939 248.258C169.939 263.309 172.879 277.668 178.213 290.801C171.772 295.574 165.601 299.359 159.278 302.279C163.9 296.774 167.915 286.193 162.693 283.371ZM479.985 156.991C479.909 155.273 479.581 154.252 479.581 154.252L479.576 154.243C477.486 146.941 470.03 142.431 459.876 142.431C458.797 142.431 457.698 142.486 456.612 142.595C448.833 143.367 434.998 148.052 430.892 149.488C417.996 146.229 405.908 144.642 393.977 144.642C387.81 144.642 381.676 145.079 375.558 145.933L375.567 145.929L373.044 146.27C373.044 146.27 372.061 143.076 374.63 135.618C375.961 131.751 377.787 128.194 377.787 128.194C377.787 128.194 349.705 142.791 346.198 138.131C342.691 133.472 358.395 96.4316 358.395 96.4316C358.395 96.4316 331.323 126.511 326.005 125.177C323.92 124.654 323.721 113.76 323.618 102.036C323.477 86.16 324.03 68 324.03 68C324.03 68 301.737 123.421 296.298 123.133C291.582 122.883 284.72 93.3 284.72 93.3C284.72 93.3 280.415 118.792 272.678 121.91C264.941 125.028 245.039 77.3539 245.039 77.3539C245.039 77.3539 244.12 125.071 238.584 126.142C233.048 127.212 215.425 109.379 215.425 109.379C215.425 109.379 223.687 133.147 220.889 136.277C219.219 138.146 202.268 127.665 184.632 115.016C174.444 107.707 165.925 101.583 165.925 101.583C165.925 101.583 175.865 118.092 183.768 135.348C189.208 147.228 192.509 158.629 191.086 160.848C187.596 166.291 161.421 158.534 161.421 158.534C161.421 158.534 176.299 172.867 175.339 176.558C174.874 178.35 160.078 177.056 145.042 175.001C129.093 172.82 112.863 169.812 112.863 169.812C112.863 169.812 165.98 200.694 164.313 206.253C162.994 210.65 129.936 207.048 129.936 207.048C129.936 207.048 158.678 220.18 158.561 224.519C158.445 228.859 102.302 243.064 102.302 243.064C102.302 243.064 153.149 253.701 154.122 259.371C155.094 265.042 134.068 283.237 134.068 283.237C134.068 283.237 158.547 285.449 159.762 288.655C160.978 291.859 153.813 304.521 147.595 306.528C139.911 309.009 132.914 310.588 124.394 310.588C123.168 310.588 121.97 310.553 120.799 310.489C121.22 309.944 121.637 309.382 121.999 308.846C124.095 305.777 125.656 302.498 126.506 299.369L126.515 299.336L126.523 299.303C126.959 297.585 127.184 295.873 127.192 294.216L127.192 294.144L127.19 294.073C127.131 292.189 126.519 290.584 125.408 289.491C123.326 287.676 121.384 287.892 119.992 288.511L115.162 290.879C114.803 291.037 114.397 291.19 113.906 291.338C112.981 291.615 111.032 291.946 106.993 291.946C103.163 291.946 98.6046 291.661 94.1966 291.385C94.1966 291.385 91.4896 291.234 90.9668 291.234C85.7083 291.234 82.1983 292.908 80.0833 294.44L78.9329 293.834C68.1786 288.122 55.6621 285.811 47.8456 284.369C47.2384 284.256 46.6583 284.154 46.1117 284.046C37.479 282.353 32.754 277.23 32.3696 276.814C31.6384 276.023 30.6858 274.998 29.443 274.281C29.443 274.281 27.1962 272.879 23.8668 273.904C21.6945 274.668 20.7767 276.362 20.7767 276.362C18.9149 279.455 20.6917 283.995 23.0341 289.117C25.699 294.936 34.0527 309.467 54.0475 318.744C60.5936 321.784 69.2058 323.948 79.6436 325.174C87.5009 326.097 94.1353 326.214 96.779 326.219C99.3245 327.458 107.159 331.079 118.808 334.721C131.597 338.717 151.582 343.469 174.48 343.577C174.48 343.577 182.605 343.68 186.992 343.4C187.434 345.229 184.26 351.769 180.446 359.435C175.927 368.519 170.128 379.265 170.128 379.265C170.128 379.265 180.604 370.006 190.368 363.142C200.195 356.234 211.203 350.683 213.805 353.882C218.723 359.926 213.476 384.869 213.476 384.869C213.476 384.869 233.329 367.301 237.932 369.681C240.04 370.77 240.251 383.897 240.259 397.725C240.27 414.11 239.847 431.513 239.847 431.513C239.847 431.513 267.193 376.18 272.882 377.761C278.571 379.342 284.798 404.571 284.798 404.571C284.798 404.571 295.187 373.834 301.536 374.58C304.074 374.269 309.527 384.238 314.373 394.428C319.685 405.596 324.235 416.514 324.235 416.514C324.235 416.514 324.346 405.101 325.142 393.439C325.861 382.903 327.2 372.618 329.516 372.047C334.395 370.846 348.547 389.813 348.547 389.813C348.547 389.813 343.543 363.377 347.463 361.137C351.384 358.897 398.487 399.62 398.487 399.62C398.487 399.62 367.576 342.345 371.336 337.972C375.096 333.598 408.11 342.52 408.11 342.52C408.11 342.52 403.191 336.711 398.982 330.148C394.582 323.286 390.918 315.618 392.639 313.774C394.203 312.099 411.416 313.843 429.199 317.292C449.703 321.269 463.042 324.105 463.042 324.105C463.042 324.105 450.965 317.569 433.155 306.853C417.734 297.576 404.17 287.132 404.748 285.439C405.995 281.787 442.824 278.284 442.824 278.284C442.824 278.284 436.643 274.648 430.002 270.587C422.792 266.178 415.093 260.689 415.093 258.679C415.093 256.923 424.328 252.569 436.508 248.823C451.11 244.333 464.617 241.323 464.617 241.323C464.617 241.323 414.41 237.292 411.274 230.134C409.133 225.245 413.066 218.87 415.948 214.751C418.832 210.634 422.957 206.897 422.957 206.897C436.674 194.231 454.133 182.569 459.71 179.14C460.105 178.897 460.481 178.658 460.865 178.418C460.865 178.418 473.744 168.91 475.068 167.799C476.222 166.831 479.167 163.741 479.829 159.809C479.829 159.809 480.061 158.724 479.985 156.991V156.991Z" fill="white"/>
<path fill-rule="evenodd" clip-rule="evenodd" d="M345.21 153.571C353.102 150.631 360.743 148.501 368.147 147.051C367.652 144.058 368.041 140.873 369.86 136.891C363.367 142.245 346.706 147.011 341.888 142.462C337.068 137.913 345.158 118.906 349.297 111.047L348.982 111.423C342.108 119.608 330.337 133.624 323.176 130.799C317.926 128.735 319.023 110.236 319.775 97.5731C320.065 92.6848 320.303 88.6663 320.105 86.7988C315.404 100.373 302.488 130.417 295.738 129.362C290.239 128.835 285.908 114.449 284.958 108.852C283.818 114.067 281.002 126.31 272.754 127.503C264.513 128.703 253.292 108.938 248.592 94.3938C247.873 120.35 243.502 131.835 240.028 131.907C234.304 132.027 229.645 127.396 225.124 122.903C224.166 121.951 223.215 121.006 222.26 120.112C224.969 124.484 228.833 137.729 223.776 141.829C218.726 145.93 184.852 121.833 177.435 114.436C185.788 126.745 200.708 155.786 196.31 163.078C191.913 170.37 176.552 167.205 173.862 165.893C175.616 167.344 186.244 179.613 177.126 181.591C164.876 184.241 131.371 176.422 129.578 176C137.595 178.888 172.774 199.714 170.572 207.712C168.974 213.501 158.86 212.837 152.245 212.402C150.89 212.313 149.682 212.233 148.724 212.221C149.138 212.416 149.6 212.627 150.097 212.854C155.634 215.387 165.601 219.945 164.27 226.152C162.825 232.923 129.175 240.524 118.785 242.713C120.375 243.066 122.294 243.455 124.424 243.888C138.07 246.66 160.405 251.197 160.782 259.043C161.217 268.122 142.54 280.675 142.54 280.675C142.54 280.675 159.127 281.439 162.693 283.371C167.915 286.193 163.9 296.774 159.278 302.279C165.601 299.359 171.772 295.574 178.213 290.801C172.879 277.668 169.939 263.309 169.939 248.258C169.939 185.738 220.625 135.052 283.145 135.052C306.061 135.052 327.383 141.869 345.21 153.571ZM397.266 335.23C391.312 330.555 384.799 314.845 387.304 309.762C389.809 304.678 427.5 312.102 443.304 316.552C430.599 311.581 395.901 290.431 398.394 284.122C400.879 277.813 423.136 275.512 429.908 275.512C427.889 274.523 413.682 266.69 408.81 260.994C403.938 255.291 429.584 244.67 444.259 242.679C431.12 241.618 406.391 239.581 406.146 230.034C406.067 226.988 406.542 224.516 407.399 222.466C403.654 226.032 399.633 229.856 395.439 233.805C396.039 238.532 396.356 243.358 396.356 248.257C396.356 310.783 345.67 361.469 283.144 361.469C258.387 361.469 235.484 353.512 216.853 340.029C208.315 341.697 199.85 342.666 191.299 343.108C190.354 348.437 187.376 353.881 184.495 359.15C183.198 361.521 181.92 363.857 180.856 366.13C201.504 347.037 212.923 347.73 216.932 349.932C220.934 352.127 219.919 370.31 218.725 375.69C221.949 371.444 236.967 362.109 241.417 364.139C245.053 365.798 244.376 393.431 244.018 408.068C243.938 411.347 243.874 413.974 243.877 415.511C248.841 404.665 265.257 371.286 272.318 371.286C279.379 371.286 284.047 383.898 285.135 389.634C286.658 383.905 294.661 368.913 301.795 368.108C307.854 367.425 314.326 383.216 319.031 394.695C319.865 396.731 320.644 398.632 321.356 400.281C321.415 398.788 321.447 396.972 321.482 394.966C321.664 384.474 321.938 368.781 326.742 366.888C332.465 364.634 339.091 372.169 342.947 376.87C341.913 370.402 340.93 357.685 344.913 355.074C348.895 352.463 376.993 375.281 387.251 385.461C386.614 383.859 384.722 380.5 382.313 376.222C375.172 363.542 363.488 342.796 366.49 335.869C370.143 327.45 392.908 333.924 397.266 335.23Z" fill="#FC4C02"/>
<path fill-rule="evenodd" clip-rule="evenodd" d="M431.075 153.618C431.075 153.618 448.374 147.388 457.004 146.531C465.515 145.68 474.237 148.574 475.925 155.853H475.919C471.89 149.537 433.632 162.241 422.754 166.619C419.8 167.812 401.598 176.02 383.005 186.635L382.999 186.642C382.997 186.64 382.996 186.639 382.995 186.639C382.993 186.638 382.992 186.639 382.991 186.64C382.99 186.641 382.989 186.642 382.986 186.642C382.953 186.655 382.867 186.694 382.742 186.76C371.739 190.597 350.246 202.412 342.071 210.059C332.2 219.284 326.234 229.854 319.091 242.51C312.261 254.61 304.355 268.618 290.93 285.178C278.707 300.256 268.145 310.831 259.812 317.78C254.491 322.27 249.811 325.434 246.369 327.26C246.237 326.838 246.204 326.509 246.204 326.509C246.185 326.39 246.178 326.258 246.178 326.113C246.178 323.629 248.772 318.297 251.205 313.294L251.206 313.291C251.724 312.226 252.235 311.176 252.712 310.172C254.551 306.302 255.816 303.144 255.816 303.137C260.042 292.648 262.29 282.627 262.917 279.634C263.873 275.849 266.325 265.156 266.325 265.156C266.325 265.156 222.166 304.825 176.392 318.109C160.8 322.632 144.002 326.311 131.488 326.575C131.488 326.575 120.762 326.113 120.05 325.889C109.179 324.076 96.2366 319.059 84.8507 306.902C83.3937 305.748 81.9367 304.541 80.4797 303.276C80.5605 303.359 80.7984 303.682 81.1715 304.189C82.8699 306.498 87.371 312.618 92.6303 317.239C92.5301 317.247 92.4264 317.255 92.3185 317.264C92.2599 317.269 92.2 317.273 92.1388 317.278C90.0239 317.453 86.2969 317.761 76.2207 316.329C38.0679 310.903 26.0557 281.038 25.7459 277.458C25.2323 277.603 24.7833 277.761 24.4609 278.058C24.7833 277.755 25.2323 277.596 25.7459 277.451C27.1919 277.042 28.2985 278.239 29.4639 279.5L29.464 279.5L29.464 279.5C29.9138 279.987 30.3724 280.483 30.8626 280.899L31.0027 281.019C32.8549 282.598 37.3423 286.424 45.38 287.934C45.9304 288.037 46.5125 288.145 47.1231 288.258C55.6623 289.834 69.7756 292.439 80.5917 299.379L80.599 299.366C81.4259 299.863 82.36 300.463 83.4039 301.134C94.4196 308.209 117.669 323.142 156.344 308.003C175.858 300.368 193.296 285.086 219.206 259.453C223.419 255.293 227.592 250.922 231.845 246.412C231.238 243.373 229.577 237.875 225.918 235.6C220.242 232.053 211.638 231.915 205.961 232.33C204.726 232.422 203.619 232.53 202.621 232.628L202.62 232.628L202.62 232.628C199.027 232.98 196.864 233.192 195.347 231.974C194.503 231.301 194.457 230.2 194.918 228.948C198.492 224.597 204.794 219.059 221.026 216.922C230.093 215.73 236.447 215.975 242.004 216.189C249.017 216.459 254.761 216.68 263.088 213.903C266.042 210.916 269.49 207.805 272.18 205.378C278.397 199.748 285.062 194.138 292.314 188.626C299.574 183.114 307.419 177.708 316.003 172.48C361.994 144.493 399.481 145.416 431.075 153.618ZM121.275 292.074C121.275 292.074 121.275 292.074 121.274 292.074H121.268C120.545 292.169 119.998 292.547 119.287 293.038C118.377 293.665 117.199 294.479 115.038 295.126C110.833 296.388 102.15 295.845 93.9403 295.333C93.3972 295.299 92.8562 295.265 92.3187 295.232C86.0094 294.843 82.6806 297.216 81.3284 298.535C81.3286 298.535 81.3287 298.535 81.3288 298.535C81.3287 298.535 81.3286 298.535 81.3284 298.535L81.5827 298.68L81.7671 298.785C86.1453 301.28 98.357 308.239 108.84 310.257C109.427 310.369 110.845 310.607 112.176 310.739C113.502 310.87 115.077 310.805 115.414 310.785C115.44 310.758 117.484 308.451 118.724 306.625C120.767 303.632 122.033 300.731 122.685 298.331C123.041 296.927 123.227 295.549 123.233 294.197C123.156 291.766 121.657 292.012 121.309 292.069C121.296 292.071 121.285 292.073 121.275 292.074ZM374.916 246.453C371.667 256.474 366.675 270.174 360.564 281.764C353.298 295.537 343.726 305.05 338.682 308.703C337.845 308.195 337.528 307.127 337.502 306.026C337.491 305.492 337.802 304.355 338.295 302.554C339.614 297.729 342.235 288.141 343.469 272.62C348.914 268.526 353.807 264.629 358.131 261.036C363.629 256.461 369.293 251.51 374.916 246.453Z" fill="#008E97"/>
<path fill-rule="evenodd" clip-rule="evenodd" d="M473.665 163.468C473.665 163.468 473.665 163.461 473.671 163.461C474.027 162.809 474.99 161.022 474.799 159.822C474.37 157.066 468.45 157.838 453.808 162.789C453.781 162.8 453.753 162.809 453.724 162.818C453.701 162.826 453.678 162.833 453.655 162.842C452.409 163.264 451.111 163.712 449.74 164.193C421.256 174.199 393.39 198.312 362.181 225.319L362.181 225.319L362.181 225.319C346.256 239.1 329.461 253.634 311.27 267.43L311.672 266.804C317.465 258.083 321.883 250.21 325.931 242.997L325.931 242.997C333.049 230.312 339.02 219.672 349.304 210.06C357.631 202.115 370.394 193.828 382.987 186.642C382.954 186.655 382.868 186.694 382.743 186.76C371.739 190.597 350.247 202.412 342.071 210.06C332.2 219.284 326.234 229.854 319.091 242.51C312.262 254.611 304.356 268.618 290.931 285.178C278.708 300.256 268.146 310.831 259.813 317.78C254.492 322.27 249.812 325.434 246.37 327.261L246.376 327.278C246.436 327.46 246.874 328.79 248.044 329.08C250.042 329.581 257.512 325.823 267.045 317.773H267.051L267.161 317.721C268.686 316.996 285.795 308.862 294.155 304.298C304.453 298.681 321.429 288.099 325.135 285.64C325.135 285.633 325.141 285.633 325.141 285.633C331.76 281.229 343.469 272.639 343.469 272.619C348.915 268.525 353.807 264.628 358.132 261.035C363.63 256.46 369.293 251.509 374.917 246.452C371.667 256.473 366.676 270.173 360.565 281.763C353.299 295.536 343.727 305.049 338.683 308.702C340.182 309.656 342.368 308.408 342.885 308.112L342.934 308.085C342.951 308.075 342.964 308.068 342.975 308.062C347.128 305.788 358.838 295.846 366.682 279.937C377.391 258.219 382.145 241.302 382.624 239.595L382.626 239.588C382.647 239.514 382.659 239.47 382.664 239.457C383.14 239.016 393.403 229.333 403.078 220.205L403.131 220.155L403.147 220.14C411.803 211.974 419.967 204.271 420.204 204.053C433.719 191.56 451.321 179.653 457.637 175.77C464.237 171.709 468.245 168.637 470.599 166.573C472.959 164.51 473.665 163.468 473.665 163.468ZM401.927 161.034C405.574 161.032 414.12 160.77 417.593 159.931C419.275 159.525 420.488 159.067 421.315 158.754L421.315 158.754C422.195 158.421 422.637 158.254 422.738 158.493C422.936 158.956 421.027 160.041 415.05 162.491C410.678 164.282 406.658 165.376 400.177 166.988C397.186 167.889 392.963 169.247 392.963 169.247C392.956 169.238 392.949 169.228 392.943 169.219L392.928 169.197C392.921 169.186 392.914 169.175 392.906 169.164L392.906 169.163C392.826 169.054 392.763 168.944 392.71 168.834C392.707 168.828 392.704 168.821 392.7 168.815L392.695 168.805L392.691 168.797C392.314 167.97 392.648 167.127 393.039 166.527C381.252 165.66 375.483 172.315 375.483 172.315C375.056 172.638 374.547 173.247 374.005 174.01C375.714 171.395 379.534 166.428 385.211 163.95C392.23 160.884 397.076 160.962 400.626 161.019C401.08 161.027 401.513 161.034 401.927 161.034ZM262.917 279.633C263.873 275.849 266.325 265.156 266.325 265.156C266.325 265.156 222.166 304.825 176.392 318.109C160.801 322.632 144.001 326.311 131.488 326.574L131.611 326.577L131.754 326.581C135.435 326.676 163.743 327.409 194.734 315.782C220.834 306.249 246.5 290.683 262.917 279.633ZM123.235 294.197C123.229 295.549 123.043 296.926 122.687 298.331C122.035 300.731 120.769 303.631 118.726 306.625C117.486 308.451 115.443 310.758 115.416 310.785C115.079 310.804 113.504 310.87 112.178 310.738C110.847 310.607 109.429 310.369 108.842 310.257V310.251C108.762 310.141 109.566 309.468 110.814 308.423C115.18 304.77 124.974 296.576 121.277 292.074L121.31 292.069L121.311 292.069C121.659 292.012 123.158 291.766 123.235 294.197ZM221.027 216.92C230.09 215.729 236.443 215.973 241.999 216.187C249.014 216.457 254.76 216.678 263.09 213.899C266.002 210.953 269.399 207.887 272.072 205.473L272.176 205.379C267.952 206.736 264.688 207.543 261.611 208.088C258.021 208.797 254.937 209.046 250.823 209.379L250.823 209.379C246.925 209.695 242.103 210.085 235.05 211.012C212.27 214.009 201.617 221.148 198.63 223.907C197.729 224.74 197.039 225.461 196.092 226.78C195.44 227.686 194.982 228.76 194.911 228.955C198.488 224.6 204.787 219.056 221.027 216.92ZM251.205 313.295C251.723 312.229 252.235 311.177 252.712 310.172C254.551 306.302 255.817 303.144 255.817 303.137C240.859 311.075 216.946 321.247 195.315 326.317C152.718 336.306 125.437 327.643 120.763 326.113L120.15 325.915L120.104 325.902H120.098C120.087 325.899 120.078 325.897 120.071 325.895C120.064 325.894 120.057 325.892 120.051 325.889C109.18 324.076 96.2375 319.059 84.8516 306.901C83.3946 305.748 81.9376 304.541 80.4806 303.275C80.5614 303.359 80.7993 303.682 81.1724 304.189C82.8708 306.498 87.3719 312.618 92.6312 317.239C92.4765 317.251 92.3135 317.264 92.1396 317.278C90.0248 317.453 86.2978 317.761 76.2216 316.329C38.0688 310.903 26.0566 281.038 25.7468 277.458C25.3644 277.563 25.015 277.682 24.7315 277.853C24.7315 277.86 24.7249 277.86 24.7249 277.86C24.6326 277.919 24.5403 277.985 24.4618 278.058C23.5184 278.915 23.6641 280.985 26.6309 287.472C30.6189 296.181 39.7829 307.765 55.7113 315.156C70.2748 321.92 92.4532 322.263 96.9363 322.263C97.2057 322.263 97.4125 322.26 97.5496 322.258C97.6175 322.257 97.6683 322.256 97.7011 322.256C97.7077 322.256 97.7077 322.263 97.7077 322.263C97.7077 322.263 135.287 341.705 183.045 339.444C183.048 339.444 183.065 339.444 183.097 339.444C184.459 339.459 212.273 339.764 246.205 326.509C246.186 326.39 246.179 326.258 246.179 326.113C246.179 323.63 248.772 318.297 251.205 313.295Z" fill="#005778"/>
<path fill-rule="evenodd" clip-rule="evenodd" d="M374.006 174.011C374.547 173.249 375.057 172.639 375.483 172.317C375.483 172.317 381.252 165.662 393.039 166.528C392.648 167.128 392.315 167.971 392.691 168.799C392.694 168.804 392.697 168.81 392.7 168.816C392.704 168.822 392.707 168.829 392.71 168.835C392.762 168.946 392.827 169.056 392.906 169.165C385.582 171.659 373.197 176.572 369.267 182.394C369.267 182.394 371.881 177.005 374.006 174.011ZM255.817 303.138C260.043 292.649 262.291 282.628 262.918 279.634C246.502 290.684 220.836 306.25 194.735 315.783C163.744 327.41 135.437 326.677 131.755 326.582C131.644 326.579 131.555 326.577 131.489 326.576C131.489 326.576 121.139 326.127 120.098 325.903L120.763 326.114C125.437 327.644 152.718 336.307 195.315 326.318C216.946 321.248 240.859 311.076 255.817 303.138Z" fill="white"/>
</svg>
