<svg xmlns="http://www.w3.org/2000/svg" viewBox="0 0 960 640"><path fill="#fff" d="M716.307 320.001c0-130.506-105.794-236.3-236.3-236.3s-236.306 105.794-236.306 236.3S349.495 556.3 480 556.3s236.3-105.794 236.3-236.299"/><path fill="#ffb81c" d="M715.438 299.852H612.517v-83.855l48.207-48.214a237.3 237.3 0 0 0-28.499-28.506l-48.214 48.214-27.531-27.531-56.324.02V84.563c-6.647-.561-13.361-.862-20.156-.862s-13.508.3-20.155.862V160l-111.292.047-20.77-20.77a238.4 238.4 0 0 0-28.506 28.506l67.888 67.889v64.173H244.562c-.561 6.648-.861 13.362-.861 20.156s.307 13.508.861 20.155h122.603v64.174l-13.735 13.735-54.16 54.153a238 238 0 0 0 28.506 28.507l20.77-20.771h111.292v75.485c6.647.561 13.361.861 20.156.861s13.508-.3 20.155-.861v-75.485h56.418l27.437-27.443 48.214 48.214a237.4 237.4 0 0 0 28.499-28.507l-48.207-48.214V340.15h102.922c.561-6.648.861-13.368.861-20.156s-.3-13.508-.861-20.155m-191.807 89.42-7.002 7.001h-63.425v-34.378l63.466-.047 6.961 6.954zm0-118.154-7.002 7.002h-63.425v-34.372l63.466-.047 6.961 6.955z"/><path fill="#010101" d="M480 42c-153.534 0-278 124.466-278 278s124.466 278 278 278 278-124.466 278-278S633.54 42 480 42m0 514.306c-130.506 0-236.3-105.794-236.3-236.299S349.494 83.7 480 83.7 716.3 189.494 716.3 320 610.506 556.3 480 556.3"/><path fill="#010101" d="M366.062 462.444v-32.241l18.619-18.619V228.422l-18.619-18.619v-32.247l183.169-.074L595 223.251v69.352l-27.411 27.41L595 347.417v69.351l-45.689 45.689H366.062zm69.619-118.06v69.391h88.19l17.263-17.256v-34.973l-17.223-17.222zm0-118.147v69.392h88.19l17.263-17.263v-34.973l-17.223-17.222-88.224.066z"/><path fill="#010101" d="m541.134 396.512-17.269 17.256h-88.191v-69.392l88.231-.06 17.222 17.223v34.973zm0-118.154-17.263 17.263h-88.19v-69.385l88.23-.066 17.223 17.222v34.973zm53.872-55.115-45.775-45.768-183.169.073v32.247l18.619 18.619v183.162l-18.619 18.619v32.241h183.256l45.688-45.682v-69.352l-27.41-27.41 27.41-27.404v-69.351zM655.64 553.533c0 5.833 4.736 10.569 10.568 10.569s10.569-4.736 10.569-10.569-4.73-10.568-10.569-10.568-10.568 4.73-10.568 10.568m18.879 0a8.304 8.304 0 0 1-16.608 0c0-4.583 3.721-8.303 8.304-8.303s8.304 3.721 8.304 8.303m-12.653 6.04h2.271v-4.917h1.624l2.284 4.917h2.499l-2.378-5.118a3.575 3.575 0 0 0 2.378-3.367c0-1.99-1.61-3.594-3.581-3.594h-5.104v12.079zm2.271-9.814h2.833c.72 0 1.316.588 1.316 1.323s-.595 1.309-1.316 1.309h-2.833v-2.639z"/></svg>