<svg xmlns="http://www.w3.org/2000/svg" viewBox="0 0 960 640"><path fill="#fff" d="M716.306 319.999c0-130.506-105.794-236.3-236.299-236.3S243.7 189.493 243.7 320s105.794 236.3 236.3 236.3 236.3-105.794 236.3-236.3"/><path fill="#010101" d="M715.438 299.85H612.516v-83.855l48.214-48.214a237 237 0 0 0-28.506-28.506l-48.214 48.214-27.531-27.531-56.324.02V84.561c-6.647-.561-13.361-.862-20.155-.862s-13.508.3-20.156.862v75.437l-111.292.047-20.77-20.77a238.4 238.4 0 0 0-28.506 28.506l67.888 67.889v64.173H244.562c-.561 6.648-.862 13.362-.862 20.156s.308 13.508.862 20.155h122.602v64.174l-13.735 13.735-54.16 54.153a238 238 0 0 0 28.507 28.507l20.77-20.77h111.292v75.484c6.647.561 13.361.862 20.155.862s13.508-.301 20.156-.862v-75.484h56.417l27.438-27.444 48.213 48.214a238 238 0 0 0 28.507-28.507l-48.214-48.213v-83.855h102.921c.561-6.648.862-13.368.862-20.156s-.301-13.508-.862-20.155m-191.807 89.42-7.001 7.001h-63.426V361.88l63.466-.047 6.961 6.954zm0-118.153-7.001 7.001h-63.426v-34.372l63.466-.047 6.961 6.955z"/><path fill="#ffb81c" d="M480 42c-153.534 0-278 124.466-278 278s124.466 278 278 278 278-124.466 278-278S633.54 42 480 42m0 514.306c-130.506 0-236.3-105.794-236.3-236.299S349.494 83.7 480 83.7 716.3 189.494 716.3 320 610.506 556.3 480 556.3"/><path fill="#ffb81c" d="M366.062 462.444v-32.241l18.619-18.619V228.422l-18.619-18.619v-32.247l183.169-.074L595 223.251v69.352l-27.411 27.41L595 347.417v69.351l-45.689 45.689H366.062zm69.619-118.06v69.391h88.19l17.263-17.256v-34.973l-17.223-17.222zm0-118.147v69.392h88.19l17.263-17.263v-34.973l-17.223-17.222-88.224.066z"/><path fill="#ffb81c" d="m541.134 396.512-17.269 17.256h-88.191v-69.392l88.231-.06 17.222 17.223v34.973zm0-118.154-17.263 17.263h-88.19v-69.385l88.23-.066 17.223 17.222v34.973zm53.872-55.115-45.775-45.768-183.169.073v32.247l18.619 18.619v183.162l-18.619 18.619v32.241h183.256l45.688-45.682v-69.352l-27.41-27.41 27.41-27.404v-69.351zM655.64 553.534c0 5.832 4.736 10.568 10.568 10.568s10.569-4.736 10.569-10.568-4.73-10.569-10.569-10.569-10.568 4.73-10.568 10.569m18.879 0a8.304 8.304 0 1 1-16.608 0 8.304 8.304 0 0 1 16.608 0m-12.653 6.039h2.271v-4.917h1.624l2.285 4.917h2.498l-2.378-5.118a3.575 3.575 0 0 0 2.378-3.367c0-1.99-1.61-3.594-3.581-3.594h-5.104v12.079zm2.271-9.814h2.833c.72 0 1.316.588 1.316 1.323s-.595 1.309-1.316 1.309h-2.833v-2.639z"/></svg>