<svg width="500" height="500" viewBox="0 0 500 500" fill="none" xmlns="http://www.w3.org/2000/svg">
<path fill-rule="evenodd" clip-rule="evenodd" d="M412.935 244.99C410.769 243.892 411.04 241.933 412.6 240.771C431.035 227.11 443.477 209.581 443.477 182.523C443.477 150.485 420.567 105.52 330.987 105.52H100.077L47.7791 196.633H86.181C90.4708 196.633 93.9341 200.096 93.9341 204.372V295.327C93.9341 299.603 90.4708 303.073 86.181 303.073H45L97.8533 393.858L341.932 393.83C420.703 393.83 454.758 352.734 454.758 308.624C454.758 279.408 434.014 255.736 412.935 244.99Z" fill="white"/>
<path fill-rule="evenodd" clip-rule="evenodd" d="M276.167 229.562H238.235V193.049C238.271 189.222 241.37 186.136 245.204 186.136H276.167C294.338 186.136 301.086 195.4 301.086 207.493C301.086 220.32 294.338 229.562 276.167 229.562ZM276.167 313.563H245.204C241.356 313.563 238.235 310.449 238.235 306.601V270.144H276.167C294.338 270.144 301.086 279.052 301.086 291.508C301.086 304.314 294.338 313.563 276.167 313.563ZM384.431 247.049C381.652 246.394 382.108 242.987 384.139 242.225C409.18 232.747 423.795 215.873 423.795 186.136C424.145 146.267 388.914 118.867 331.614 118.867H114.457L76.3542 186.179H102.578C107.766 186.179 111.956 190.369 111.956 195.55V304.164C111.956 309.344 107.766 313.535 102.578 313.535H76.6464L115.034 380.512L341.932 380.483C406.714 380.483 433.408 337.421 433.408 305.739C433.408 277.898 412.885 253.862 384.431 247.049Z" fill="#FB4F14"/>
<path fill-rule="evenodd" clip-rule="evenodd" d="M188.332 361.499C148.07 285.814 137.488 198.799 152.488 118.867H114.457L76.3542 186.179H102.578C107.766 186.179 111.956 190.369 111.956 195.55V278.888C131.495 310.599 159.792 340.969 188.332 361.499ZM378.218 126.357C332.134 194.702 307.165 281.81 318.374 361.15C332.105 294.408 367.928 232.769 423.724 188.117C423.738 187.455 423.795 186.813 423.795 186.136C424.03 158.659 407.37 137.095 378.218 126.357ZM300.965 118.867C293.739 137.794 286.15 160.633 279.765 186.272C278.625 186.186 277.421 186.136 276.167 186.136H245.204C241.37 186.136 238.271 189.222 238.235 193.049V229.562H270.801C268.649 242.652 266.91 256.213 265.755 270.144H238.235V306.601C238.235 310.449 241.356 313.563 245.204 313.563H264.216C264.501 335.418 266.447 357.844 270.537 380.483H242.233C219.9 326.554 189.166 235.313 219.736 118.867H300.965Z" fill="black"/>
</svg>
