<svg width="500" height="500" viewBox="0 0 500 500" fill="none" xmlns="http://www.w3.org/2000/svg">
<path d="M327.443 123.894C334.702 124.279 372.355 129.768 386.59 138.977C395.316 144.622 396.131 150.412 396.138 150.464C396.138 150.464 406.942 146.006 418.996 150.931C431.047 155.856 433.81 162.231 436.208 166.605C436.208 166.605 423.239 163.666 411.25 165.704C399.309 167.729 397.012 173.642 396.991 173.696C396.991 173.696 388.183 169.43 375.966 168.581C363.748 167.725 352.384 171.134 352.384 171.134C376.535 180.513 376.251 195.002 376.251 195.002C379.942 181.079 396.991 173.696 396.991 173.696C397.069 173.725 411.57 179.067 413.354 190.277C415.145 201.521 408.245 210.207 404.415 212.761C404.454 212.746 420.763 206.351 419.998 190.534C419.749 185.39 417.236 181.81 413.957 179.325C413.96 179.328 413.964 179.329 413.964 179.329C414.013 179.344 418.684 180.804 421.287 183.256C422.486 184.389 423.804 185.564 424.979 187.057C426.351 188.853 426.805 189.997 426.809 189.997C427.373 191.192 427.827 192.572 428.111 194.19C429.127 199.978 427.349 205.635 427.349 205.635C419.664 236.87 389.462 276.543 389.387 276.642C389.387 276.642 391.74 285.103 390.087 298.326C388.655 309.76 385.733 325.721 368.24 335.148C367.672 335.408 366.986 335.699 366.186 335.983C366.03 336.042 357.486 339.05 346.911 337.151C346.911 337.151 360.9 350.689 375.106 380.292C375.113 380.309 375.121 380.323 375.128 380.34L366.029 380.736C312.557 381.211 265.121 358.283 208.845 336.347C191.338 329.537 173.461 324.931 155.954 321.957C169.714 271.6 208.426 244.682 208.426 244.682C156.069 270.008 134.053 311.229 129.665 318.601H129.683C129.717 318.605 129.79 318.611 129.891 318.622C99.5046 315.953 71.5197 317.555 50.2422 320.047C99.0636 228.417 219.565 169.776 219.565 169.776C211.785 170.609 205.225 171.995 205.195 172.002C194.205 164.107 185.856 148.729 184.455 146.042C184.531 146.187 184.628 146.37 184.746 146.589C184.736 146.567 184.123 145.184 184.209 144.18C184.223 144.09 184.236 144 184.25 143.917C184.271 143.844 184.292 143.778 184.319 143.713C184.954 142.26 186.469 142.167 188.489 142.42C188.607 142.43 188.735 142.461 188.863 142.496C193.851 143.231 207.69 146.818 227.308 144.662C247.895 142.399 255.357 136.063 255.136 134.254C255.136 134.254 270.733 126.823 290.364 125.516C309.995 124.206 336.166 129.935 346.478 143.185C348.359 145.601 349.434 147.497 349.94 148.98C350.585 147.951 350.917 146.703 350.775 145.275C350.224 139.965 343.75 134.375 337.969 131.079C332.877 128.178 320.186 123.503 327.443 123.894ZM445.044 143.37C447.959 143.138 449.345 143.283 450.038 145.276C450.045 145.283 450.045 145.294 450.049 145.304C450 145.488 449.952 145.682 449.886 145.88C449.813 146.112 449.727 146.351 449.619 146.604C449.592 146.686 445.098 160.084 436.764 166.131L436.209 166.606C436.209 166.606 434.937 153.855 424.047 145.62C424.047 145.62 426.744 145.602 431.007 145.258C431.073 145.252 431.138 145.249 431.204 145.242C431.669 145.204 432.147 145.161 432.64 145.113C432.768 145.103 432.899 145.089 433.027 145.079C433.208 145.061 433.378 145.044 433.562 145.027L433.558 145.023C436.861 144.694 440.795 144.181 445.044 143.37Z" fill="black"/>
<path d="M376.709 271.871C378.993 277.199 380.262 284.304 378.993 289.378C377.725 294.452 374.428 299.519 360.724 300.791C347.03 302.056 339.169 297.748 339.169 297.748C345.241 291.673 351.152 275.246 351.179 275.171C354.218 286.841 351.626 292.251 351.626 292.251C358.225 294.282 368.339 292.164 368.339 292.164C377.709 285.327 376.712 271.917 376.709 271.871ZM336.475 214.32C336.475 214.32 352.952 207.786 373.131 209.207C393.299 210.625 397.843 214.885 397.843 214.885C397.821 214.99 392.706 239.059 381.366 248.127C381.366 248.127 387.046 235.632 384.492 220.288C384.492 220.288 373.696 216.313 354.089 220.288C354.065 220.342 344.698 241.322 332.783 251.54C332.823 251.448 341.863 230.194 336.475 214.32ZM402.369 154.502C410.192 152.939 417.342 156.963 420.697 160.089C420.615 160.074 402.575 156.755 394.1 164.56C394.102 164.519 394.569 156.065 402.369 154.502ZM307.136 151.675C307.136 151.675 310.623 145.433 318.893 147.003L319.932 147.221C335.219 150.7 344.708 161.054 344.73 161.079C344.662 161.058 330.928 156.965 305.514 157.408C305.506 157.392 304.53 155.534 307.136 151.675Z" fill="#B2B4BB"/>
<path d="M367.213 340.033C368.537 344.204 374.297 366.808 375.673 380.301L375.125 380.342C375.118 380.325 375.111 380.31 375.104 380.293C360.898 350.691 346.909 337.152 346.909 337.152C357.484 339.052 366.028 336.043 366.184 335.984H366.187L367.213 340.033ZM319.371 120.057C350.267 119.495 384.964 122.996 418.394 135.231C418.733 135.352 419.069 135.47 419.405 135.595C419.405 135.595 431.758 140.696 446.783 140.533C446.783 140.533 446.853 140.537 446.971 140.551C446.981 140.554 447.001 140.558 447.012 140.558C447.067 140.565 447.116 140.576 447.179 140.586C447.199 140.59 447.221 140.596 447.241 140.6C447.307 140.61 447.369 140.624 447.445 140.645C447.47 140.648 447.505 140.655 447.525 140.662C447.601 140.68 447.671 140.7 447.754 140.728C447.789 140.735 447.82 140.749 447.854 140.759C447.938 140.787 448.014 140.811 448.094 140.846C448.132 140.86 448.17 140.877 448.204 140.891C448.287 140.925 448.37 140.96 448.457 141.002C448.492 141.023 448.527 141.047 448.568 141.067C448.652 141.109 448.731 141.158 448.814 141.206C448.853 141.23 448.891 141.259 448.929 141.286C449.005 141.345 449.085 141.401 449.161 141.463C449.199 141.494 449.237 141.529 449.271 141.564C449.348 141.633 449.418 141.698 449.483 141.775C449.518 141.813 449.546 141.858 449.584 141.896C449.65 141.979 449.705 142.059 449.764 142.149C449.795 142.197 449.816 142.246 449.848 142.298C449.9 142.388 449.952 142.488 449.993 142.596C450.014 142.648 450.034 142.707 450.055 142.766C450.093 142.873 450.121 142.988 450.152 143.106C450.166 143.175 450.173 143.241 450.187 143.31C450.204 143.438 450.222 143.566 450.229 143.701C450.232 143.778 450.231 143.854 450.231 143.938C450.231 144.08 450.225 144.229 450.204 144.388C450.197 144.471 450.187 144.558 450.173 144.648C450.162 144.731 450.086 145.147 450.048 145.3V145.31C450.045 145.31 450.045 145.314 450.045 145.314C449.584 149.858 446.367 161.364 437.668 168.916C439.332 172.042 440.063 175.661 439.997 180.049C451.268 180.801 463.306 183.075 475.083 188.097L476.639 189.32C476.555 189.284 463.609 183.695 439.955 183.449L439.637 183.436C439.515 183.429 438.898 187.772 438.42 189.91L438.981 189.906C452.731 190.301 468.622 192.842 483.654 199.809L485.207 201.005C485.207 201.005 468.9 192.843 438.053 193.855C438.053 193.855 437.813 193.872 437.467 193.893C436.957 195.897 436.434 197.791 435.96 199.437L435.505 200.994L436.961 201.058C452.146 201.788 471.518 204.897 488.662 214.248L490 215.607C489.92 215.566 470.216 205.565 434.209 205.174C427.534 222.57 412.28 257.112 389.397 276.632C389.394 276.635 389.387 276.639 389.384 276.643C389.384 276.643 419.651 236.908 427.346 205.635C427.348 205.628 429.123 199.975 428.108 194.191C427.824 192.572 427.371 191.192 426.806 189.996C426.795 189.979 426.338 188.839 424.976 187.058C423.801 185.564 422.483 184.388 421.284 183.255C418.677 180.8 413.997 179.34 413.961 179.328C413.961 179.328 413.957 179.328 413.954 179.325C417.233 181.81 419.746 185.391 419.995 190.534C420.759 206.338 404.478 212.735 404.412 212.761C408.242 210.206 415.142 201.521 413.351 190.277C411.568 179.073 397.081 173.73 396.988 173.696C396.988 173.696 399.251 167.738 411.247 165.703C421.737 163.92 432.977 165.948 435.624 166.483L436.205 166.605L436.76 166.13C445.12 160.065 449.615 146.603 449.615 146.603C449.723 146.35 449.809 146.11 449.882 145.878C449.948 145.681 449.996 145.486 450.045 145.303C450.041 145.292 450.041 145.282 450.034 145.276C449.341 143.283 447.955 143.137 445.04 143.369C440.791 144.18 436.857 144.693 433.554 145.023L433.558 145.026C433.374 145.043 433.204 145.06 433.023 145.077C432.895 145.088 432.763 145.102 432.635 145.112C432.143 145.161 431.664 145.202 431.2 145.24C431.134 145.247 431.069 145.251 431.003 145.258C426.74 145.601 424.043 145.618 424.043 145.618C434.908 153.835 436.199 166.547 436.205 166.605C433.807 162.231 431.044 155.857 418.993 150.932C406.939 146.007 396.135 150.464 396.135 150.464C396.135 150.464 395.352 144.648 386.587 138.978C372.353 129.769 334.699 124.279 327.44 123.894C320.183 123.502 332.874 128.177 337.966 131.078C343.747 134.374 350.221 139.966 350.772 145.276C350.915 146.703 350.582 147.951 349.938 148.981C349.431 147.497 348.357 145.601 346.475 143.186C336.163 129.935 309.992 124.206 290.361 125.516C270.73 126.822 255.133 134.253 255.133 134.253C255.355 136.062 247.892 142.399 227.305 144.662C207.688 146.818 193.848 143.23 188.86 142.495C188.732 142.461 188.604 142.429 188.486 142.419C186.466 142.166 184.951 142.26 184.316 143.712C184.289 143.778 184.268 143.843 184.247 143.916C184.23 143.999 184.216 144.09 184.206 144.18C184.119 145.192 184.743 146.589 184.743 146.589C184.625 146.371 184.528 146.187 184.452 146.041C185.852 148.727 194.202 164.106 205.192 172.001C205.23 171.993 211.786 170.609 219.562 169.776C219.562 169.776 99.0617 228.417 50.2402 320.047V320.05C25.6423 322.93 10 326.996 10 326.996C84.019 233.821 166.637 187.48 198.357 174.594C198.278 174.49 187.793 160.827 185.173 153.559C182.899 147.254 183.035 144.374 184.047 141.955C185.225 138.16 191.193 138.264 191.193 138.264C207.211 139.062 219.255 135.681 219.34 135.657C219.34 135.657 251.137 125.034 295.491 121.284C295.559 121.277 305.613 120.15 319.361 120.026L319.371 120.057ZM381.93 223.256C381.93 223.256 373.272 233.654 376.544 248.846C379.823 264.033 386.609 265.843 389.915 289.952C393.218 314.065 371.782 324.185 359.869 324.185C347.957 324.185 331.576 319.125 325.327 298.877C319.071 278.625 319.071 253.611 327.112 241.401C327.112 241.401 321.754 265.52 324.731 279.221C327.709 292.915 333.368 304.533 344.387 306.616C355.402 308.703 371.781 308.106 377.739 301.254C383.69 294.409 386.072 284.579 380.121 271.18C374.163 257.777 362.254 240.506 381.93 223.256ZM208.423 244.682C208.423 244.682 169.711 271.598 155.951 321.955C149.851 320.919 143.796 320.08 137.817 319.411C137.758 319.405 133.571 318.965 133.239 318.934C133.104 318.92 130.654 318.694 129.888 318.621C129.787 318.611 129.714 318.604 129.68 318.601H129.662C134.05 311.229 156.066 270.008 208.423 244.682ZM227.297 216.826C227.299 216.917 227.96 240.4 248.467 261.162C269.013 281.961 294.516 287.601 294.516 287.601C294.516 287.601 253.734 285.359 236.99 264.813C220.267 244.292 227.28 216.894 227.297 216.826ZM232.229 209.097C263.848 196.942 293.448 195.341 311.027 195.819C310.622 197.94 310.639 199.819 310.857 201.389C267.003 198.356 232.229 209.097 232.229 209.097ZM352.381 171.136C352.472 171.108 363.795 167.73 375.963 168.582C388.171 169.431 396.974 173.691 396.987 173.697C396.987 173.697 379.938 181.08 376.247 195.003C376.247 195.003 376.531 180.515 352.381 171.136ZM231.29 193.221C267.426 181.572 300.293 183.028 316.486 184.886C314.972 186.74 313.814 188.532 312.958 190.231C268.186 184.06 231.446 193.182 231.29 193.221ZM231.062 176.819C283.055 163.181 327.094 175.399 327.094 175.399C324.792 177 322.799 178.577 321.073 180.123C273.127 168.797 231.192 176.795 231.062 176.819ZM289.673 150.245C290.38 149.944 304.338 144.114 318.892 147.005C310.633 145.437 307.144 151.661 307.135 151.677C307.135 151.677 303.055 150.484 289.646 150.259L289.649 150.256C289.653 150.256 289.656 150.252 289.659 150.252C289.663 150.249 289.666 150.249 289.673 150.245Z" fill="#0085CF"/>
</svg>
