<svg xmlns="http://www.w3.org/2000/svg" width="500" height="500" viewBox="0 0 500 500"><g fill="none"><path d="M0 0h500v500h-500z"/><path fill="#A71930" d="M444.252 337.164c.006.499.019 12.905.019 13.397 0 33.727-22.741 44.398-32.683 47.438-7.263 2.055-15.907 3.092-25.088 3.565h-301.713v-62.001l278.364.013c7.557-.186 12.314-2.644 14.475-7.323.87-2.458 1.106-4.43 1.106-7.585v-13.231c-4.443 2.964-12.327 5.447-12.327 5.447-17.064 6.03-48.68 1.306-61.703-9.013-12.947-7.361-23.138-23.063-24.199-40.231v-104.267c0-4.474-3.619-8.104-8.075-8.104h-16.604v-53.321h90l-.09 142.327c-.026 8.507 7.57 15.363 16.54 15.363 3.12 0 6.016-.839 8.503-2.272 4.29-2.464 7.295-6.715 7.928-11.695.058-.627.096-1.255.115-1.895.09-1.613.121-3.258.121-4.91v-136.918h65.143l.166 235.213zm-191.618-73.644h13.823l1.26.006v51.292h-59.689c-11.815 0-21.853-7.476-25.753-17.961-1.112-2.983-1.739-6.196-1.739-9.576v-115.616c-.198-8.341-7.289-15.049-16.022-15.049-8.868 0-16.054 6.888-16.054 15.375h-.006l-.013 1.491v141.745h-63.628v-151.698c0-4.468-3.606-8.104-8.081-8.104h-21.731l.019-53.474h93.389v10.178c15.191-11.624 37.536-15.766 58.302-10.511 13.126 3.425 22.869 9.531 30.548 20.733 3.676 5.377 5.505 10.811 6.432 15.023.543 2.471.767 4.519.85 5.87v46.222l-.013 12.232s.013 2.912.013 7.617v38.893c0 1.946 0 3.879-.013 5.761l.013.339v1.12c0 4.474 3.631 8.091 8.094 8.091z"/><path fill="#FFFFFE" d="M309.133 300.051c-10.894-6.196-18.771-19.37-19.641-32.812v-103.863c0-9.422-7.653-17.097-17.064-17.097h-7.621v-35.327h72.029c-.013 15.791-.096 133.379-.096 133.404 0 6.196 2.5 12.111 7.007 16.649 4.833 4.865 11.585 7.636 18.528 7.636 4.552 0 9.04-1.197 12.979-3.463 6.783-3.917 11.412-10.786 12.359-18.384l.038-.256.153-2.304.121-5.364v-127.919h47.19c.013 16.636.16 239.61.16 239.61 0 26.763-16.495 35.827-26.322 38.848-6.387 1.792-14.321 2.72-22.761 3.162-.588 0-275.557.032-292.43 0v-43.994h269.388c14.104-.346 20.069-7.009 22.626-12.533l.192-.403.134-.41c1.343-3.815 1.605-6.881 1.605-10.562v-30.085l-13.982 9.365c-2.423 1.639-7.436 3.54-10.038 4.366l-.275.083c-14.059 4.986-42.382.935-53.142-7.585l-.531-.416-.607-.346zm-73.569-44.622c0 9.422 7.659 17.097 17.07 17.097h6.087v33.292h-50.694c-7.679 0-14.635-4.858-17.326-12.098-.786-2.1-1.183-4.276-1.183-6.439v-115.616c-.3-13.346-11.515-24.042-25.005-24.042-13.803 0-25.03 10.933-25.043 24.369-.006-.058-.013 1.44-.013 1.44v132.796h-45.662v-142.699c0-9.429-7.647-17.097-17.064-17.097h-12.742l.006-35.481h75.436v19.395l14.436-11.067c13.17-10.075 32.575-13.513 50.642-8.936 11.598 3.028 19.2 8.149 25.331 17.104 2.423 3.527 4.124 7.515 5.076 11.861 0 0 .582 4.007.646 4.41v45.748l-.013 12.213.013 7.656v38.874l-.013 5.94.013.384v.896z"/></g></svg>