<svg width="500" height="500" viewBox="0 0 500 500" fill="none" xmlns="http://www.w3.org/2000/svg">
<path fill-rule="evenodd" clip-rule="evenodd" d="M366.436 338.882C356.686 353.632 347.414 367.231 339.866 378.14C348.599 385.36 348.077 394.455 348.077 396.18C347.909 405.852 342.76 413.071 338.044 417.291C332.178 422.29 324.162 424.714 315.703 424.776C315.456 424.776 309.404 424.59 307.324 424.113C306.431 425.422 304.706 427.015 301.901 428.156C301.592 429.041 301.166 429.926 300.609 430.766C298.3 434.234 294.469 436.163 290.567 436.163C290.567 436.163 286.612 436.048 283.878 434.165C280.374 431.854 278.445 428.015 278.445 424.104V423.998C278.454 422.131 278.906 420.237 279.808 418.521C279.401 417.557 277.977 411.797 277.977 411.797L281.701 408.514C282.002 408.337 282.922 406.948 283.958 403.4C285.055 399.941 286.364 394.8 289.107 388.81C292.602 381.201 297.45 373.327 300.99 367.876C300.644 366.133 298.813 365.328 297.495 365.01C296.017 364.612 294.194 363.753 292.744 362.063C291.222 360.294 290.055 357.799 290.708 354.578C291.354 351.402 293.345 349.11 295.672 348.04V348.031C298.309 346.66 301.565 347.314 301.565 347.314C309.324 348.031 315.057 355.233 315.057 355.233C322.781 344.457 340.751 317.727 341.132 317.144C317.579 321.647 293.248 322.258 273.039 318.904C236.295 312.808 208.026 293.246 189.765 284.327C171.503 275.418 136.714 266.287 100.827 275.418C64.9496 284.548 41.2553 317.604 41.2553 317.604C51.97 242.115 98.7302 229.392 103.216 228.118C110.029 221.738 118.965 202.273 97.8012 189.143C90.5726 184.658 84.5031 178.977 84.5031 178.977C88.9358 179.499 99.3319 178.128 105.101 175.845C112.028 173.111 118.399 172.2 118.399 172.2C112.931 166.989 104.579 164.379 104.579 164.379C112.922 163.856 125.964 160.99 134.042 157.336C142.12 153.69 146.552 147.17 145.243 144.303C143.942 141.427 136.643 143.002 136.643 143.002C139.253 139.092 145.508 137.526 145.508 137.526C127.521 136.482 114.417 146.276 114.417 146.276C116.417 141.985 122.991 134.27 122.991 134.27C120.496 135.092 113.586 137.251 113.152 137.384C141.314 115.636 172.75 96.5164 216.794 96.2332C260.83 95.9413 303.732 115.681 332.319 124.829C360.924 133.978 376.099 138.596 406.985 134.031C421.77 131.837 434.715 125.776 444.199 120.096C444.199 120.096 450.835 103.223 451.34 78.9978C451.34 78.9978 459.293 93.2604 459.329 115.468C459.408 191.683 422.478 247.344 410.675 267.606C399.394 287.539 384.565 311.41 366.436 338.882ZM447.65 59.002C447.65 59.002 448.65 77.3256 445.19 94.1009C441.845 110.31 440.005 116.486 440.005 116.486C432.927 120.635 421.469 125.74 404.72 128.527C373.461 133.739 345.095 125.342 314.128 113.185C283.152 101.029 241.71 87.9341 203.257 92.3491C165.973 96.6314 139.297 111.734 125.114 121.582C110.931 131.421 108.321 134.022 96.1644 137.499C96.1644 137.499 105.72 141.259 110.639 141.259C110.639 141.259 108.321 150.824 109.188 154C109.188 154 129.45 144.737 131.768 149.081C134.086 153.425 124.53 156.327 117.877 158.052C111.223 159.795 93.8463 159.495 93.8463 159.495C93.8463 159.495 101.995 165.803 104.871 170.183C104.871 170.183 89.5109 176.871 72.4259 174.553C72.4259 174.553 71.8597 180.88 85.901 191.24C82.9105 192.311 79.1237 194.045 76.779 196.549C76.779 196.549 91.4928 193.514 100.739 203.813C103.172 206.865 103.968 209.599 103.694 213.05C103.19 219.305 100.792 221.694 94.8992 225.587C91.5282 226.959 87.9449 228.675 84.4854 230.79C68.2144 240.788 56.3142 256.006 47.9619 273.391C44.3432 280.921 41.45 289.671 39.4062 297.608C37.3623 305.588 36.6103 312.675 36.1325 317.099C35.6547 321.514 35 335.432 35 335.432C35 335.432 42.2994 325.204 45.7235 320.302C49.1298 315.418 70.7183 288.273 102.163 280.408C112.223 277.851 122.239 276.78 131.812 276.78C154.825 276.762 175.378 283.009 187.544 288.963C205.204 297.51 234.216 317.683 272.252 323.992C281.207 325.469 290.859 326.204 300.866 326.204C310.465 326.204 320.401 325.505 330.329 324.151C324.719 332.521 319.34 340.342 314.226 347.589C309.041 342.652 302.007 342.138 302.007 342.138C293.478 341.333 289.205 346.527 289.205 346.527C287.479 348.394 286.187 350.818 285.683 353.676C285.081 356.321 285.798 359.401 286.294 360.966C287.921 366.133 292.336 368.487 294.053 369.239C281.586 385.846 277.968 404.967 277.968 404.975L272.279 409.992L274.331 418.309C271.164 428.51 276.136 436.163 282.586 439.331C289.134 442.551 295.247 440.684 295.247 440.684C299.096 439.605 302.582 437.181 304.953 433.624C305.317 433.084 305.635 432.536 305.918 431.987C307.245 431.27 308.386 430.465 309.359 429.598C311.156 429.802 315.756 429.943 315.756 429.943C325.188 429.864 334.407 427.192 341.441 421.219C346.98 416.265 353.076 407.815 353.288 396.269C353.288 394.101 353.687 385.36 346.467 377.742C392.025 310.853 421.602 267.791 440.483 223.977C490.508 107.841 447.835 59.4178 447.65 59.002V59.002Z" fill="#B1BABF"/>
<path fill-rule="evenodd" clip-rule="evenodd" d="M297.485 398.888C297.476 398.906 297.468 398.932 297.459 398.95C297.45 398.959 297.45 398.968 297.45 398.976C297.459 398.959 297.468 398.941 297.476 398.923C297.476 398.906 297.485 398.897 297.485 398.888ZM388.475 294.184C368.426 303.527 322.163 319.019 276.091 310.419C260.059 307.429 238.958 302.421 211.052 285.504C192.746 274.418 172.98 263.818 126.901 264.022C88.7318 264.208 64.2148 281.505 56.4111 287.937C77.1236 220.358 138.35 230.241 138.35 230.241C127.175 224.88 113.762 226.932 113.762 226.932C132.944 196.753 102.039 182.623 102.039 182.623C104.64 182.623 116.372 179.234 122.362 177.146C128.361 175.067 139.367 173.625 139.367 173.625C135.528 170.094 123.663 167.245 123.663 167.245C134.873 167.245 145.021 161.813 152.082 154.46C154.541 151.903 161.274 139.101 153.639 134.137C146.614 129.572 132.679 134.641 132.67 134.65C132.687 134.633 174.387 89.7038 260.44 108.903C301.263 118.017 347.28 141.923 389.767 142.18C404.047 142.268 435.554 137.632 454.356 118.707C453.365 154.664 446.667 205.025 388.475 294.184ZM334.31 373.3C334.257 373.256 334.177 373.203 334.133 373.168C333.044 372.177 331.638 370.982 330.08 369.682C332.62 366.063 361.711 322.806 370.24 309.393C373.223 308.34 376.124 307.19 378.991 305.987C373.223 315.109 341.751 362.533 334.31 373.3ZM332.788 411.169C328.842 414.61 322.135 416.805 315.128 416.672C308.881 416.548 304.493 415.539 300.52 413.381C300.502 413.425 300.494 413.46 300.486 413.513C300.175 413.779 299.547 415.221 294.956 415.902C291.876 416.407 290.089 415.787 289.903 415.725C295.318 421.202 300.219 417.751 300.219 417.751C300.45 418.707 300.786 419.388 300.786 419.388C300.786 419.388 299.158 421.778 294.203 420.954C293.601 420.857 293.088 420.689 292.584 420.503C292.681 420.556 292.769 420.591 292.867 420.653C294.769 421.901 295.282 424.458 294.036 426.351C292.769 428.254 290.221 428.767 288.32 427.519C286.426 426.263 285.904 423.706 287.16 421.812C288.186 420.255 290.062 419.645 291.752 420.149C288.036 418.362 287.08 414.628 287.08 414.628C291.832 410.417 291.681 402.79 296.53 392.19C296.751 391.704 296.999 391.208 297.238 390.713C297.238 390.73 297.229 390.748 297.22 390.766C296.167 393.402 295.158 397.932 295.574 401.233C295.663 401.949 295.805 402.604 295.972 403.241V403.25C296.043 403.542 297.671 410.133 302.122 409.063C302.077 409.16 301.431 410.611 301.423 410.629C303.369 411.841 307.828 413.956 315.42 414.053C326.081 414.195 331.912 407.179 333.513 401.958C334.771 397.897 332.823 393.385 328.806 389.43C329.983 388.067 330.7 386.166 329.912 383.546C330.275 384.758 328.001 386.917 325.603 386.705C325.382 386.687 325.17 386.652 324.949 386.59C321.33 385.581 317.207 381.175 313.712 378.565C310.235 375.955 309.217 371.911 309.288 369.045C309.341 366.178 308.368 362.78 305.634 360.206C302.9 357.632 300.45 357.383 299.671 357.18C298.883 356.968 298.662 356.481 298.742 355.959C298.902 355.101 300.008 355.26 300.008 355.26C306.644 356.587 311.491 363.162 312.562 365.09C313.553 366.859 324.029 375.043 328.081 378.627C329.974 380.007 338.176 386.298 339.645 392.748C341.388 400.445 336.726 407.736 332.788 411.169ZM320.967 393.668C322.268 394.314 324.135 395.579 325.011 397.41C325.241 397.897 325.347 398.366 325.347 398.888C325.48 401.029 322.976 404.161 320.755 404.984C319.145 405.648 317.012 405.975 314.951 405.966C314.296 405.966 313.65 405.94 313.022 405.878C313.606 404.896 314.314 403.701 315.101 402.418C316.871 399.525 319.066 396.154 320.967 393.668ZM302.493 380.936C304.246 377.963 306.085 375.043 307.952 372.141C308.041 372.009 308.129 371.876 308.218 371.743C308.138 372.354 307.926 375.672 309.04 378.963C309.686 380.538 310.713 382.13 312.332 383.617C313.783 384.953 314.995 386.023 316.004 386.864C311.103 393.199 304.157 405.046 304.157 405.046C301.184 405.223 299.697 404.241 298.017 400.658C297.777 400.144 297.592 399.578 297.45 398.985V398.976C296.565 395.287 297.37 390.536 297.389 390.403C297.512 390.155 300.812 383.785 302.493 380.936ZM351.465 314.923C355.535 313.932 359.561 312.853 363.516 311.614C363.631 311.579 363.747 311.543 363.861 311.499C359.818 317.63 327.983 363.179 325.789 366.134C325.612 365.992 320.144 361.312 319.951 361.144C328.063 349.872 351.005 315.622 351.465 314.923ZM451.34 78.998C450.834 103.223 444.199 120.096 444.199 120.096C434.715 125.776 421.769 131.837 406.985 134.031C376.098 138.596 360.924 133.978 332.319 124.829C303.732 115.681 260.829 95.9415 216.794 96.2334C172.75 96.5166 141.314 115.637 113.152 137.384C113.585 137.252 120.495 135.093 122.99 134.27C122.99 134.27 116.416 141.985 114.417 146.276C114.417 146.276 127.52 136.482 145.508 137.526C145.508 137.526 139.252 139.092 136.642 143.003C136.642 143.003 143.942 141.428 145.242 144.303C146.552 147.17 142.119 153.691 134.041 157.336C125.963 160.99 112.922 163.857 104.578 164.379C104.578 164.379 112.93 166.989 118.398 172.2C118.398 172.2 112.028 173.111 105.1 175.845C99.3314 178.128 88.9353 179.499 84.5026 178.977C84.5026 178.977 90.5722 184.658 97.8008 189.144C118.965 202.274 110.028 221.739 103.216 228.118C98.7298 229.392 51.9695 242.115 41.2549 317.604C41.2549 317.604 64.9491 284.549 100.827 275.418C136.713 266.287 171.502 275.418 189.764 284.327C208.026 293.246 236.294 312.808 273.039 318.904C293.247 322.258 317.579 321.647 341.131 317.144C340.751 317.728 322.781 344.457 315.057 355.233C315.057 355.233 309.324 348.031 301.564 347.315C301.564 347.315 298.308 346.66 295.672 348.031V348.04C293.345 349.111 291.354 351.402 290.708 354.579C290.054 357.799 291.221 360.294 292.744 362.064C294.194 363.754 296.017 364.612 297.494 365.01C298.812 365.329 300.644 366.134 300.989 367.877C297.45 373.327 292.601 381.201 289.107 388.81C286.364 394.8 285.054 399.941 283.957 403.4C282.922 406.948 282.002 408.337 281.701 408.514L277.976 411.797C277.976 411.797 279.401 417.557 279.808 418.521C278.905 420.238 278.454 422.131 278.445 423.998V424.104C278.445 428.015 280.374 431.855 283.878 434.165C286.611 436.048 290.566 436.164 290.566 436.164C294.468 436.164 298.299 434.235 300.609 430.766C301.166 429.926 301.592 429.041 301.9 428.156C304.705 427.015 306.43 425.422 307.324 424.113C309.403 424.591 315.455 424.776 315.703 424.776C324.161 424.715 332.177 422.29 338.043 417.291C342.759 413.071 347.909 405.852 348.077 396.181C348.077 394.455 348.599 385.36 339.866 378.14C347.413 367.231 356.686 353.632 366.436 338.883C384.565 311.41 399.394 287.539 410.674 267.606C422.477 247.344 459.408 191.683 459.328 115.468C459.293 93.2606 451.34 78.998 451.34 78.998ZM297.459 398.95C297.45 398.959 297.45 398.968 297.45 398.976C297.459 398.959 297.468 398.941 297.476 398.923C297.476 398.906 297.485 398.897 297.485 398.888C297.476 398.906 297.468 398.932 297.459 398.95V398.95Z" fill="black"/>
<path fill-rule="evenodd" clip-rule="evenodd" d="M358.182 245.167C337.583 259.74 305.333 264.19 305.333 264.19C304.971 265.588 302.838 267.057 302.838 267.057C302.838 267.057 306.139 268.278 314.243 274.374C322.339 280.47 320.144 280.169 322.728 281.912C325.312 283.646 326.78 283.16 326.78 283.16C327.559 284.726 327.657 287.053 327.657 287.053C328.736 288.07 334.018 293.113 329.107 298.333C324.188 303.554 318.508 298.705 318.508 298.705C316.499 299.13 314.544 298.466 314.544 298.466C314.544 298.466 304.033 305.084 293.593 297.873C285.099 292.016 285.612 285.071 286.108 282.673C283.241 284.319 280.162 285.602 277.004 286.592C268.483 289.264 257.609 290.37 246.806 286.778C239.71 284.389 233.835 280.249 229.199 275.657C224.554 271.056 221.121 265.977 218.882 261.403C218.546 260.704 218.227 260.014 217.944 259.341C217.201 261.111 213.644 267.827 202.629 267.349C189.95 266.8 185.553 255.183 185.553 255.183C185.553 255.183 183.597 254.528 182.252 252.989C182.252 252.989 174.803 253.431 174.024 246.3C173.254 239.169 180.518 238.337 181.996 238.178C181.996 238.178 183.465 236.373 185.031 235.594C185.031 235.594 185.915 236.877 189.021 237.045C192.127 237.213 190.198 236.125 200.337 236.152C210.477 236.169 213.839 237.196 213.839 237.196C213.839 237.196 213.025 234.736 213.582 233.4C213.582 233.4 190.552 210.396 182.916 186.348C175.28 162.299 177.616 153.381 186.889 128.023C186.889 128.023 193.763 171.227 214.865 198.372C226.907 213.864 240.453 225.941 249.876 233.462C250.088 233.462 250.309 233.471 250.522 233.471C248.513 231.232 246.983 228.604 246.222 225.596C244.337 218.164 241.249 211.254 239.834 205.751C238.418 200.239 241.568 189.223 241.568 189.223C237.338 182.446 239.4 171.289 239.4 171.289C239.4 171.289 241.692 170.2 243.435 168.086C245.169 165.962 244.567 159.698 245.983 150.479C247.398 141.26 253.397 131.722 266.686 126.298C279.905 120.901 299.759 127.979 299.936 128.041C300.113 128.094 320.224 134.42 327.515 146.701C334.841 159.044 333.867 170.28 329.435 178.482C325.003 186.693 320.737 191.32 320.852 194.063C320.958 196.797 322.135 199.044 322.135 199.044C322.135 199.044 317.057 209.192 309.58 212.059C309.58 212.059 305.448 222.738 300.989 226.277C296.548 229.817 289.912 233.462 283.922 238.257C281.559 240.151 278.843 241.319 275.95 241.911C276.145 242.053 276.33 242.195 276.525 242.336C288.567 242.018 306.581 240.558 325.435 235.488C358.641 226.552 390.183 196.239 390.183 196.239C382.292 222.057 378.77 230.586 358.182 245.167ZM389.767 142.18C347.28 141.923 301.263 118.017 260.44 108.903C174.387 89.7038 132.687 134.633 132.67 134.65C132.679 134.641 146.614 129.572 153.639 134.137C161.275 139.101 154.541 151.903 152.082 154.46C145.021 161.813 134.873 167.245 123.663 167.245C123.663 167.245 135.528 170.094 139.368 173.625C139.368 173.625 128.361 175.067 122.362 177.146C116.372 179.234 104.64 182.623 102.039 182.623C102.039 182.623 132.944 196.753 113.762 226.932C113.762 226.932 127.175 224.88 138.35 230.241C138.35 230.241 77.1237 220.358 56.4111 287.937C64.2148 281.505 88.7319 264.208 126.901 264.022C172.98 263.818 192.746 274.418 211.052 285.504C238.958 302.421 260.059 307.429 276.092 310.419C322.163 319.019 368.427 303.527 388.476 294.184C446.667 205.025 453.365 154.664 454.356 118.707C435.554 137.632 404.048 142.268 389.767 142.18V142.18Z" fill="#A71930"/>
<path fill-rule="evenodd" clip-rule="evenodd" d="M363.86 311.502C359.817 317.633 327.981 363.175 325.788 366.131C325.61 365.989 320.142 361.309 319.948 361.14C328.063 349.868 351.004 315.625 351.464 314.926C355.535 313.935 359.561 312.856 363.515 311.617C363.631 311.582 363.747 311.546 363.86 311.502" fill="#FFFFFE"/>
<path fill-rule="evenodd" clip-rule="evenodd" d="M297.219 390.764C296.166 393.401 295.158 397.93 295.573 401.232C295.661 401.948 295.804 402.603 295.972 403.239V403.249C293.485 414.672 288.672 414.857 287.398 414.689C287.194 414.662 287.079 414.626 287.079 414.626C291.829 410.416 291.679 402.789 296.528 392.189C296.75 391.702 296.998 391.206 297.237 390.711C297.237 390.729 297.228 390.746 297.219 390.764" fill="#FFFFFE"/>
<path fill-rule="evenodd" clip-rule="evenodd" d="M309.04 378.96C307.923 375.668 308.143 372.352 308.217 371.74C308.129 371.873 308.041 372.006 307.953 372.138C306.085 375.04 304.245 377.96 302.493 380.932C300.811 383.783 297.511 390.153 297.388 390.401C297.37 390.534 296.566 395.286 297.448 398.974C297.45 398.966 297.453 398.959 297.457 398.951C297.489 398.867 297.536 398.757 297.449 398.983C302.898 386.987 309.031 378.968 309.04 378.96" fill="#FFFFFE"/>
<path fill-rule="evenodd" clip-rule="evenodd" d="M245.194 200.948C245.194 200.948 245.999 205.383 248.173 209.283C250.344 213.18 252.931 220.023 253.89 222.787C254.284 223.922 255.052 225.21 256.31 226.499C258.036 225.54 262.268 225.839 266.877 227.387C271.285 228.868 274.725 231.046 275.715 232.81C277.3 232.518 278.555 231.988 279.478 231.374C281.914 229.749 288.098 225.851 292.186 224.051C296.27 222.253 299.586 219.201 299.586 219.201C299.25 217.744 297.277 216.507 296.598 216.116C296.192 216.19 294.576 216.513 293.768 217.11C292.843 217.791 289.482 222.792 285.08 224.673C285.497 222.198 283.895 220.915 283.484 220.958C283.076 221.007 282.751 221.978 282.666 222.224C282.581 222.472 281.731 224.145 281.441 224.93C281.151 225.716 281.239 225.779 281.239 225.779C280.532 225.759 279.825 225.719 279.125 225.664C279.8 224.394 280.4 223.13 280.968 221.871C281.377 220.82 280.255 220.59 280.255 220.59L280.249 220.583C279.622 220.487 278.995 220.381 278.369 220.264C278.344 220.26 278.327 220.264 278.301 220.262C277.515 220.122 277.038 220.614 276.937 220.915C276.86 221.114 276.785 221.311 276.701 221.508C276.414 222.203 276.103 222.896 275.804 223.589C275.79 223.629 275.78 223.674 275.759 223.71C275.403 224.586 275.706 225.318 275.706 225.318C275.46 225.302 274.876 225.32 273.894 225.126C273.427 225.034 272.806 224.758 272.806 224.758C273.152 224.475 273.363 223.936 273.363 223.936L273.37 223.939C273.995 222.408 274.963 220.032 274.963 220.032C274.963 220.032 275.345 219.009 274.678 218.812C273.776 218.587 272.879 218.34 271.986 218.072C271.309 217.929 271.014 218.485 270.939 218.667C270.801 219.026 270.559 219.579 270.477 219.829C270.133 220.808 269.792 221.781 269.453 222.751C269.453 222.766 269.453 222.777 269.45 222.789C269.239 223.414 269.405 224.002 269.405 224.002C269.405 224.002 268.537 223.826 268.082 223.706C267.622 223.585 266.938 223.105 266.938 223.105C267.048 222.991 267.181 222.68 267.276 222.459C267.691 221.007 268.082 219.189 268.43 217.671C268.456 217.459 268.461 216.828 267.822 216.56C267.062 216.282 266.302 215.99 265.555 215.682C264.891 215.474 264.601 216.02 264.497 216.342C264.197 217.717 263.844 219.358 263.616 220.55C263.521 221.387 263.899 221.973 263.899 221.973C263.549 221.886 262.838 221.58 262.268 221.339C261.894 221.181 261.065 220.637 261.065 220.637C261.49 220.599 261.733 219.695 261.733 219.695C262.206 218.715 262.52 217.867 262.89 216.939C262.904 216.894 262.924 216.856 262.938 216.811C262.949 216.783 262.953 216.763 262.969 216.726C263.336 215.743 262.65 215.22 262.536 215.137C261.549 214.644 260.436 214.063 260.426 214.063C259.861 213.761 259.483 214.16 259.363 214.547C258.971 215.655 258.359 216.66 258.147 217.878C258.048 218.569 258.105 219.053 258.105 219.053C256.759 218.411 256.265 217.398 256.265 217.398C256.586 217.013 257.015 215.655 257.025 214.384C257.039 213.113 257.118 211.927 256.524 211.505C255.929 211.083 254.937 212.152 254.427 212.907C253.921 213.661 253.803 214.1 253.803 214.1C253.803 214.134 253.803 214.167 253.803 214.198C251.419 210.045 251.751 204.009 251.429 202.901C251.099 201.8 249.7 200.329 249.7 200.329C249.7 200.329 246.58 199.788 245.194 200.948" fill="#FFFFFE"/>
<path fill-rule="evenodd" clip-rule="evenodd" d="M282.706 247.82C284.085 249.246 285.344 250.698 286.494 252.171C286.494 252.171 290.158 251.902 290.664 251.86C296.984 251.329 303.301 250.561 309.545 249.433C324.99 246.645 336.669 242.698 342.216 240.611C343.513 240.1 344.751 239.576 345.964 239.05C373.248 227.213 379.808 212.146 379.974 211.76C379.941 211.825 378.847 212.728 377.088 214.153C376.335 214.774 375.509 215.446 374.572 216.187C364.319 224.284 342.936 238.845 308.118 245.102C299.679 246.619 291.08 247.45 282.706 247.82" fill="#FFFFFE"/>
<path fill-rule="evenodd" clip-rule="evenodd" d="M273.457 257.854C273.454 257.707 273.452 257.561 273.447 257.415C272.925 257.115 272.395 256.818 271.853 256.522C271.892 255.59 271.889 254.656 271.848 253.721C270.952 253.209 270.065 252.725 269.182 252.266C269.166 253.193 269.117 254.125 269.039 255.057C268.055 254.568 267.044 254.092 266.009 253.629C266.146 252.703 266.259 251.78 266.348 250.863C265.48 250.457 264.621 250.076 263.756 249.717C263.593 250.617 263.412 251.527 263.215 252.442C262.222 252.043 261.212 251.658 260.18 251.29C260.447 250.392 260.704 249.504 260.955 248.627C260.09 248.316 259.22 248.025 258.342 247.752C258.012 248.601 257.681 249.467 257.352 250.344C256.305 250.017 255.265 249.716 254.23 249.44C254.628 248.587 255.034 247.748 255.449 246.927C254.545 246.697 253.626 246.481 252.693 246.28C252.206 247.072 251.734 247.885 251.281 248.714C250.17 248.463 249.071 248.239 247.986 248.041C248.492 247.235 249.023 246.45 249.58 245.687C248.601 245.522 247.602 245.372 246.578 245.24C245.966 245.98 245.388 246.744 244.845 247.532C244.231 247.444 243.623 247.365 243.022 247.294C242.96 247.368 242.902 247.446 242.841 247.522C242.324 248.171 241.827 248.842 241.348 249.535C241.193 249.759 241.04 249.984 240.89 250.212C241.582 250.332 242.284 250.46 242.992 250.595C242.322 251.874 241.749 253.208 241.296 254.594C242.392 254.73 243.489 254.89 244.577 255.078C245.036 253.761 245.576 252.487 246.187 251.254C247.312 251.503 248.452 251.773 249.601 252.064C249.056 253.265 248.554 254.496 248.105 255.758C249.183 255.996 250.261 256.252 251.324 256.536C251.759 255.3 252.225 254.089 252.713 252.901C253.816 253.215 254.926 253.548 256.041 253.903C255.612 255.093 255.188 256.301 254.772 257.524C255.825 257.85 256.865 258.201 257.905 258.575C258.309 257.347 258.699 256.127 259.076 254.92C260.181 255.307 261.269 255.708 262.338 256.12C262.01 257.364 261.649 258.614 261.251 259.866C262.27 260.283 263.284 260.728 264.287 261.192C264.692 259.905 265.038 258.614 265.326 257.321C266.419 257.777 267.49 258.245 268.539 258.721C268.281 260.082 267.943 261.435 267.512 262.772C268.492 263.282 269.465 263.813 270.417 264.366C270.898 262.97 271.249 261.548 271.487 260.106C272.132 260.419 272.765 260.736 273.392 261.054C273.405 260.814 273.417 260.573 273.428 260.334C273.465 259.503 273.476 258.676 273.457 257.854" fill="#FFFFFE"/>
<path fill-rule="evenodd" clip-rule="evenodd" d="M196.637 189.234L197.617 190.996C198.257 192.037 199.058 193.427 200.09 195.116C205.041 203.043 211.622 211.57 220.437 220.444C220.465 220.47 231.423 231.278 236.093 235.394C237.901 234.9 239.798 234.491 241.763 234.172C235.256 228.791 228.845 222.902 222.983 216.552C193.354 184.455 187.694 154.61 185.789 146.594C185.789 146.594 182.97 164.203 196.637 189.234" fill="#FFFFFE"/>
<path fill-rule="evenodd" clip-rule="evenodd" d="M313.722 182.942L313.73 182.968C313.73 182.968 312.624 190.436 310.792 193.364C308.97 196.302 307.236 199.009 302.698 198.762C302.698 198.762 305.324 198.001 304.484 195.939C304.422 195.789 304.378 195.638 304.342 195.479C304.333 195.47 304.333 195.47 304.333 195.47C304.316 195.47 303.635 195.683 303.272 195.727C300.529 196.063 294.76 195.178 291.991 193.285C291.964 193.276 291.947 193.267 291.929 193.258C291.929 193.258 291.239 194.081 292.124 196.656C291.911 196.585 288.443 195.302 287.195 192.497C285.904 189.613 287.16 181.862 282.524 180.243C277.852 178.73 274.18 185.676 271.402 187.198C268.634 188.719 264.952 187.543 264.952 187.543C267.235 186.021 267.173 184.95 267.173 184.95C267.146 184.95 267.12 184.933 267.093 184.933C263.74 184.764 258.6 181.995 256.618 180.075C256.352 179.81 255.945 179.235 255.936 179.235C255.874 179.288 255.813 179.332 255.742 179.376C255.671 179.429 255.6 179.473 255.529 179.518C253.689 180.597 255.131 182.668 255.246 182.827C251.495 180.305 251.725 177.093 252.052 173.652C252.371 170.219 255.989 163.592 255.989 163.592L256.043 163.627C256.043 163.618 256.034 163.609 256.016 163.592C256.22 163.671 259.431 165.078 262.263 167.777C262.546 168.042 262.82 168.316 263.085 168.6C266.165 171.944 269.076 175.005 271.933 175.961C272.862 176.271 273.844 176.341 274.738 176.297C274.747 176.297 274.764 176.297 274.782 176.288C275.03 176.279 275.27 176.262 275.499 176.235V176.226C276.967 176.049 278.135 175.66 278.135 175.66C279.1 177.757 286.7 180.305 288.779 179.235C288.779 179.235 288.815 179.279 288.832 179.305C288.965 179.5 289.584 180.358 290.532 181.27V181.278C290.699 181.438 290.876 181.597 291.062 181.756C291.071 181.765 291.088 181.774 291.097 181.792C291.787 182.367 292.601 182.898 293.539 183.207C296.397 184.172 300.564 183.49 305.032 182.676C305.422 182.614 305.802 182.561 306.183 182.517C310.2 182.057 313.722 182.942 313.722 182.942Z" fill="#FFFFFE"/>
<path fill-rule="evenodd" clip-rule="evenodd" d="M284.064 198.238L283.595 199.636C282.967 201.52 280.702 202.449 278.543 201.733C278.543 201.724 278.543 201.724 278.543 201.724C278.543 201.724 279.994 201.352 280.463 199.963C280.472 199.946 280.481 199.928 280.481 199.91C280.065 199.963 279.623 199.963 279.18 199.822C277.809 199.362 277.04 197.964 277.464 196.716C277.535 196.504 277.411 196.274 277.19 196.194C276.968 196.123 276.738 196.238 276.668 196.442C276.252 197.698 274.793 198.344 273.412 197.884C272.969 197.734 272.616 197.468 272.314 197.159C272.306 197.176 272.297 197.203 272.297 197.22C271.828 198.618 272.766 199.786 272.766 199.786C270.616 199.061 269.377 196.955 270.005 195.079L270.474 193.681C270.802 192.637 271.624 192.009 272.208 191.655C272.81 191.266 273.297 190.983 273.925 190.231L273.951 190.195V190.187C274.774 189.275 275.411 188.585 275.792 187.435C276.402 185.648 278.499 184.701 280.605 185.294C280.684 185.311 280.765 185.329 280.835 185.356C280.923 185.391 281.003 185.418 281.091 185.453C283.091 186.258 284.197 188.267 283.595 190.063C283.215 191.213 283.303 192.133 283.392 193.354L283.401 193.389V193.407C283.445 194.389 283.666 194.911 283.905 195.584C284.144 196.212 284.436 197.212 284.064 198.238Z" fill="#FFFFFE"/>
<path fill-rule="evenodd" clip-rule="evenodd" d="M279.994 168.033C283.578 171.201 285.144 171.501 285.462 171.59C285.79 171.714 287.215 172.422 291.965 172.05C297.451 171.793 307.183 170.785 310.05 174.324C310.05 174.421 303.122 173.643 298.46 174.395C293.823 175.377 287.241 176.005 284.321 174.987C281.383 174.041 276.508 169.564 273.412 165.989C270.164 162.601 264.219 159.062 264.219 158.947C268.625 157.849 275.783 164.521 279.994 168.033Z" fill="#FFFFFE"/>
<path fill-rule="evenodd" clip-rule="evenodd" d="M319.189 170.518C320.383 168.846 322.56 164.316 322.56 158.777C322.56 152.478 319.746 144.86 309.492 138.622C309.456 138.596 309.421 138.569 309.377 138.551C309.253 138.472 309.12 138.392 308.987 138.321C307.669 137.525 306.36 136.826 305.131 136.233C304.564 135.959 304.015 135.711 303.493 135.472C302.962 135.242 302.458 135.03 301.98 134.835C301.617 134.685 301.272 134.552 300.945 134.428C300.697 134.331 300.458 134.242 300.229 134.154C299.441 133.862 298.786 133.65 298.308 133.499C298.211 133.464 298.122 133.437 298.025 133.402C297.052 133.092 293.327 131.969 288.682 131.004C263.492 126.713 258.635 145.612 258.546 150.204C258.485 153.557 258.706 155.822 258.6 157.167C260.581 156.353 262.493 155.3 263.953 153.893C263.616 154.283 258.113 160.547 252.229 161.21C252.229 161.21 250.937 166.882 249.363 169.748C247.805 172.624 244.753 174.588 244.753 174.588C244.461 178.64 246.646 184.506 249.079 185.727C251.504 186.948 257.989 189.09 260.511 191.965C263.023 194.841 263.094 197.893 262.51 200.061C262.324 200.954 261.935 202.016 261.625 202.786C261.705 202.804 261.777 202.821 261.838 202.839C262.369 203.025 262.662 203.388 262.652 203.582C262.652 203.582 262.369 203.759 262.156 204.086C261.953 204.414 261.599 205.254 261.502 205.484C261.148 206.36 260.892 207.068 260.59 207.944C260.573 207.971 260.573 207.997 260.573 208.024C260.289 208.864 261.139 209.156 261.139 209.156C261.139 209.165 261.227 209.192 261.236 209.192C261.917 209.316 262.652 209.466 263.413 209.625C263.413 209.625 264.431 209.811 264.775 208.9C265.103 207.935 265.386 207.139 265.749 206.175C265.766 206.121 265.793 206.06 265.819 206.006V205.998L265.846 205.936C265.846 205.936 266.067 205.272 266.165 204.874C266.253 204.502 266.643 203.865 266.996 203.865C267.368 203.865 267.872 204.042 267.819 204.794C267.766 205.546 267.615 206.042 267.589 206.13C267.58 206.166 267.571 206.21 267.571 206.236C267.235 207.422 266.554 209.917 266.554 209.917C266.226 210.873 267.271 211.174 267.271 211.174C267.907 211.35 268.863 211.501 269.535 211.704C269.58 211.713 269.615 211.722 269.668 211.731C269.668 211.731 270.464 211.988 270.747 211.881C271.039 211.775 271.225 211.333 271.278 211.191C271.323 211.05 272.384 207.342 272.499 206.944C272.58 206.643 272.544 206.042 272.384 205.697C272.437 205.706 273.402 205.874 273.942 206.051C274.393 206.21 274.994 206.449 275.295 206.679C274.835 206.909 274.534 207.67 274.508 207.776C274.499 207.794 274.49 207.803 274.49 207.811C274.419 208.059 274.331 208.298 274.26 208.537C273.924 209.554 273.481 210.855 273.136 211.881C273.083 212.156 273.03 212.837 273.827 213.138C273.871 213.147 273.907 213.173 273.95 213.182C274.614 213.43 275.455 213.731 276.074 213.978C276.074 213.978 276.277 214.058 276.534 214.058C276.844 214.058 277.225 213.943 277.401 213.412C277.56 212.925 277.924 211.846 278.242 210.864C278.552 209.891 278.834 209.006 278.843 208.9C278.852 208.714 279.073 208.369 279.206 208.254C279.569 208.227 279.834 208.28 280.082 208.404C280.374 208.546 280.71 208.909 280.843 209.041C280.648 209.377 280.338 210.236 280.259 210.705C280.197 211.103 279.728 212.81 279.507 213.607C279.48 213.669 279.463 213.757 279.437 213.828C279.418 213.854 279.427 213.881 279.418 213.916C279.409 213.943 279.401 213.961 279.409 213.978C279.286 214.801 280.082 215.217 280.082 215.217C280.79 215.553 281.471 215.881 282.091 216.19C282.091 216.19 282.179 216.226 282.188 216.226C282.188 216.226 283.037 216.5 283.32 215.659C283.329 215.633 283.347 215.606 283.356 215.597C283.64 214.713 283.861 213.978 284.108 213.076C284.17 212.828 284.24 212.58 284.303 212.333C284.32 212.306 284.329 212.235 284.338 212.138C284.355 212.076 284.479 211.634 284.515 211.359C284.541 211.218 284.541 211.085 284.532 210.988C284.532 210.988 285.002 211.174 285.55 211.412C285.771 209.554 286.567 208.165 286.567 208.165C286.744 207.741 287.001 207.378 287.275 207.05C287.266 207.05 287.257 207.059 287.257 207.059C288.275 205.307 290.124 203.573 293.194 202.936C296.937 202.167 303.396 204.361 306.077 204.856C308.439 205.29 312.837 202.724 315.349 199.76C315.809 199.052 316.128 198.539 316.128 198.539C316.128 198.539 314.871 195.133 315.358 191.894C315.853 188.665 318.233 183.347 318.233 183.347C313.809 179.154 313.296 170.43 313.296 170.43C313.571 172.199 314.287 173.969 315.216 175.632C315.995 174.455 317.508 172.854 319.189 170.518V170.518Z" fill="#FFFFFE"/>
<path fill-rule="evenodd" clip-rule="evenodd" d="M193.791 245.693C198.208 245.171 206.576 245.28 208.691 245.646C208.705 245.63 208.722 245.612 208.739 245.595C209.959 243.666 211.771 242.806 213.084 242.369C210.895 242.023 208.327 241.73 206.12 241.532C205.024 241.434 203.926 241.355 202.827 241.302C202.131 241.268 201.435 241.247 200.737 241.232C199.291 241.512 197.631 242.031 196.469 242.794C195.122 243.669 194.25 244.76 193.791 245.693" fill="#FFFFFE"/>
<path fill-rule="evenodd" clip-rule="evenodd" d="M191.93 245.813C191.98 245.756 192.166 245.406 192.2 245.343C192.709 244.381 193.707 243.465 194.642 242.92C194.652 242.914 194.66 242.905 194.669 242.902C196.304 241.92 198.872 241.324 200.495 241.235C200.542 241.23 199.922 241.217 199.612 241.219C197.596 241.229 195.582 241.427 193.587 241.706C191.819 241.952 190.122 242.26 188.487 242.245C187.967 242.243 187.466 242.205 186.982 242.113C186.975 242.113 186.963 242.113 186.955 242.112C186.963 242.113 186.975 242.113 186.982 242.113C186.522 242.027 186.075 241.898 185.636 241.71C185.655 241.783 186.607 245.813 191.93 245.813" fill="#FFFFFE"/>
<path fill-rule="evenodd" clip-rule="evenodd" d="M300.439 271.682C301.222 272.819 302.159 274.68 301.975 276.947C303.872 277.93 310.616 282.886 313.823 285.973C314.02 284.95 313.982 283.554 313.432 282.043C312.966 280.733 311.96 279.322 310.974 278.224C310.846 278.129 310.718 278.034 310.589 277.939C309.579 277.214 308.542 276.525 307.496 275.853C306.032 274.913 304.544 274.01 303.036 273.141C302.321 272.729 301.599 272.328 300.878 271.923C300.726 271.837 300.586 271.765 300.439 271.682" fill="#FFFFFE"/>
<path fill-rule="evenodd" clip-rule="evenodd" d="M314.814 283.209C315.202 284.171 315.417 285.364 315.354 286.402C315.337 286.689 315.296 286.945 315.244 287.185C315.247 287.188 315.254 287.202 315.258 287.208C315.444 287.348 315.627 287.48 315.809 287.601C316.104 287.799 316.412 287.975 316.726 288.138C317.225 288.395 317.746 288.593 318.29 288.726C318.678 288.82 319.113 288.879 319.513 288.879C320.68 288.879 321.765 288.425 322.688 287.733C322.702 287.723 322.716 287.715 322.73 287.703C322.28 287.594 321.855 287.436 321.446 287.235C320.998 287.016 320.566 286.736 320.141 286.419C319.579 286.001 317.921 284.436 317.52 284.03C316.975 283.48 316.424 282.936 315.873 282.392C315.204 281.734 313.751 280.39 313.073 279.877C312.925 279.765 311.143 278.336 311.143 278.336C311.207 278.39 314.165 281.509 314.814 283.209" fill="#FFFFFE"/>
<path fill-rule="evenodd" clip-rule="evenodd" d="M378.992 305.99C373.223 315.112 341.75 362.53 334.307 373.299C334.256 373.254 334.175 373.201 334.131 373.166C333.042 372.175 331.636 370.98 330.079 369.68C332.618 366.06 361.712 322.802 370.241 309.397C373.223 308.343 376.125 307.194 378.992 305.99" fill="#B1BABF"/>
<path fill-rule="evenodd" clip-rule="evenodd" d="M325.345 398.885C325.479 401.027 322.974 404.159 320.752 404.983C319.142 405.647 317.009 405.974 314.947 405.964C314.293 405.964 313.649 405.939 313.02 405.877C313.603 404.894 314.312 403.7 315.098 402.417C316.867 399.523 319.063 396.152 320.965 393.666C322.265 394.312 324.132 395.577 325.008 397.409C325.238 397.895 325.345 398.364 325.345 398.885" fill="#B1BABF"/>
<path fill-rule="evenodd" clip-rule="evenodd" d="M312.331 383.615C310.712 382.128 309.686 380.536 309.04 378.961C309.031 378.969 302.898 386.988 297.449 398.984C297.591 399.577 297.776 400.142 298.015 400.656C299.696 404.241 301.184 405.223 304.156 405.045C304.156 405.045 311.102 393.198 316.004 386.863C314.994 386.021 313.783 384.951 312.331 383.615" fill="#B1BABF"/>
<path fill-rule="evenodd" clip-rule="evenodd" d="M339.645 392.747C338.177 386.297 329.975 380.006 328.081 378.626C324.029 375.042 313.553 366.858 312.561 365.088C311.491 363.159 306.643 356.585 300.007 355.258C300.007 355.258 298.901 355.099 298.74 355.957C298.66 356.479 298.882 356.965 299.67 357.178C300.449 357.381 302.899 357.629 305.633 360.204C308.367 362.778 309.34 366.176 309.288 369.043C309.218 371.91 310.235 375.954 313.712 378.564C317.206 381.174 321.33 385.58 324.95 386.589C325.171 386.65 325.382 386.686 325.603 386.704C328.001 386.917 330.275 384.758 329.912 383.545C330.701 386.165 329.983 388.067 328.806 389.429C332.824 393.384 334.771 397.897 333.514 401.959C331.912 407.179 326.081 414.195 315.419 414.054C307.828 413.956 303.367 411.842 301.422 410.63C301.431 410.611 302.077 409.161 302.121 409.063C297.67 410.133 296.042 403.543 295.972 403.251C293.485 414.673 288.671 414.859 287.397 414.691C287.194 414.663 287.079 414.628 287.079 414.628C287.079 414.628 288.034 418.363 291.75 420.151C290.06 419.645 288.185 420.257 287.158 421.814C285.902 423.707 286.424 426.264 288.318 427.521C290.221 428.768 292.768 428.255 294.034 426.352C295.281 424.459 294.768 421.902 292.865 420.655C292.768 420.593 292.679 420.558 292.583 420.505C293.086 420.69 293.6 420.858 294.202 420.956C299.157 421.779 300.784 419.389 300.784 419.389C300.784 419.389 300.449 418.708 300.218 417.752C300.218 417.752 295.317 421.203 289.901 415.726C290.088 415.788 291.874 416.407 294.954 415.903C299.545 415.221 300.174 413.778 300.484 413.514C300.492 413.461 300.501 413.425 300.52 413.381C304.492 415.54 308.88 416.548 315.127 416.673C322.134 416.804 328.842 414.611 332.788 411.169C336.726 407.735 341.389 400.445 339.645 392.747" fill="#B1BABF"/>
<path fill-rule="evenodd" clip-rule="evenodd" d="M264.021 235.458C264.028 235.461 264.041 235.463 264.055 235.466C264.065 235.472 264.075 235.477 264.086 235.479C265.814 236.057 267.453 236.49 269.181 236.685C270.909 236.879 272.73 236.833 274.83 236.462C279.063 235.711 283.912 231.361 285.734 230.072C287.562 228.784 294.466 224.222 296.029 223.119C297.595 222.013 298.903 221.09 300.509 218.377C302.12 215.654 304.84 209.328 304.84 209.328C304.84 209.328 302.229 208.814 301.365 208.708C301.365 208.708 301.353 208.732 301.325 208.779C300.94 209.459 297.827 214.952 296.693 216.1C296.693 216.1 296.658 216.104 296.598 216.115C297.277 216.506 299.25 217.743 299.586 219.2C299.586 219.2 296.27 222.251 292.186 224.05C288.098 225.85 281.914 229.748 279.478 231.373C278.555 231.987 277.3 232.517 275.715 232.809C274.725 231.044 271.285 228.867 266.877 227.386C262.268 225.837 258.036 225.538 256.31 226.497C255.052 225.208 254.284 223.921 253.89 222.786C252.931 220.022 250.344 213.179 248.173 209.282C245.999 205.381 245.194 200.947 245.194 200.947C246.58 199.787 249.7 200.328 249.7 200.328C249.67 200.115 249.663 199.82 249.667 199.466C249.7 197.16 250.333 192.368 250.423 191.696C250.43 191.644 250.436 191.618 250.436 191.618C249.687 191.181 247.285 190.016 247.285 190.016C247.285 190.016 247.278 190.041 247.268 190.092C247.085 190.838 245.623 196.899 245.287 199.845C244.928 202.98 245.412 204.504 245.999 206.33C246.583 208.153 249.335 215.956 250.012 218.083C250.099 218.35 250.192 218.683 250.297 219.068C251.029 221.761 252.298 227.002 254.858 229.759C257.761 232.886 260.564 234.295 264.021 235.458" fill="#B1BABF"/>
<path fill-rule="evenodd" clip-rule="evenodd" d="M273.413 165.99C276.51 169.565 281.385 174.041 284.323 174.988C287.243 176.007 293.825 175.378 298.461 174.396C303.126 173.644 310.045 174.422 310.045 174.325C307.187 170.786 297.454 171.794 291.968 172.05C287.216 172.422 285.791 171.715 285.465 171.591C285.146 171.502 283.579 171.202 279.995 168.034C275.785 164.521 268.627 157.849 264.22 158.947C264.22 159.062 270.166 162.601 273.413 165.99" fill="#B1BABF"/>
<path fill-rule="evenodd" clip-rule="evenodd" d="M255.248 182.828C255.133 182.668 253.69 180.598 255.531 179.519C255.602 179.475 255.672 179.43 255.743 179.377C255.813 179.333 255.876 179.28 255.938 179.227C255.974 179.191 255.3 178.023 255.256 177.935C254.194 175.369 254.442 172.175 255.106 169.6C255.3 168.848 255.531 168.105 255.823 167.38C255.823 167.38 256.973 164.892 256.31 163.893C256.23 163.804 256.141 163.716 256.062 163.636L256.044 163.627L255.99 163.592C255.99 163.592 252.372 170.219 252.053 173.653C251.726 177.094 251.496 180.306 255.248 182.828" fill="#B1BABF"/>
<path fill-rule="evenodd" clip-rule="evenodd" d="M267.175 184.951C267.175 184.951 267.237 186.022 264.954 187.543C264.954 187.543 268.636 188.719 271.403 187.198C274.183 185.677 277.854 178.731 282.527 180.243C287.164 181.862 285.907 189.613 287.199 192.498C288.446 195.304 291.914 196.587 292.126 196.658C291.242 194.082 291.934 193.26 291.934 193.26H291.925C289.154 191.605 288.596 185.279 288.587 183.641C288.579 182.013 288.773 179.279 288.783 179.235C286.703 180.305 279.103 177.757 278.138 175.66C278.138 175.66 276.617 177.988 275.625 179.288C274.626 180.597 270.377 185.305 267.175 184.951" fill="#B1BABF"/>
<path fill-rule="evenodd" clip-rule="evenodd" d="M286.845 212.018C287.031 212.124 287.331 212.239 287.446 212.426C287.712 212.806 287.782 212.957 287.782 212.957C287.526 213.001 287.269 213.036 287.013 213.08C286.872 213.072 286.234 213.302 286.234 213.495C284.996 217.46 285.376 218.159 285.668 218.345C285.916 218.503 288.677 216.92 289.5 214.054C289.5 214.036 289.96 211.646 290.056 210.7C290.226 209.169 290.862 207.426 290.941 207.214L290.924 207.222C290.924 207.214 290.941 207.197 290.941 207.197C288.137 207.063 286.571 208.169 286.571 208.169C286.571 208.169 285.775 209.559 285.554 211.416C285.554 211.425 286.632 211.903 286.845 212.018" fill="#B1BABF"/>
<path fill-rule="evenodd" clip-rule="evenodd" d="M306.082 204.86C303.4 204.364 296.942 202.169 293.199 202.94C290.12 203.577 288.27 205.32 287.244 207.081C287.253 207.072 287.261 207.054 287.28 207.054C287.296 207.037 287.305 207.037 287.315 207.018C289.385 204.63 293.146 204.727 295.987 205.09C298.206 205.364 300.41 205.833 302.587 206.354C308.135 207.665 309.116 206.506 311.115 205.002C312.834 203.71 314.239 201.719 315.283 199.86C315.309 199.826 315.329 199.799 315.345 199.764C312.834 202.727 308.444 205.294 306.082 204.86" fill="#B1BABF"/>
<path fill-rule="evenodd" clip-rule="evenodd" d="M224.245 235.866C224.561 236.146 227.138 238.712 227.394 238.59C229.001 237.824 230.756 237.116 232.623 236.466C206.497 213.675 196.559 189.093 196.559 189.093L196.637 189.234C182.971 164.203 185.789 146.594 185.789 146.594C185.789 146.594 185.619 147.097 185.619 147.099C184.474 150.471 184.043 154.151 183.856 157.69C183.539 163.678 184.101 169.701 185.368 175.559C186.714 181.781 188.866 187.776 191.505 193.562C194.205 199.484 197.545 205.106 201.263 210.443C205.842 217.019 211.066 223.138 216.73 228.803C219.161 231.235 221.671 233.586 224.245 235.866" fill="#B1BABF"/>
<path fill-rule="evenodd" clip-rule="evenodd" d="M193.791 245.693C193.561 246.164 193.403 246.606 193.41 246.938C193.425 247.447 193.663 247.905 193.894 248.246C193.894 248.246 201.993 248.678 207.084 250.075C207.286 249.35 207.549 248.462 207.898 247.382C208.115 246.694 208.411 246.116 208.739 245.596C208.722 245.612 208.705 245.63 208.691 245.646C206.576 245.28 198.208 245.171 193.791 245.693" fill="#B1BABF"/>
<path fill-rule="evenodd" clip-rule="evenodd" d="M219.027 233.623C218.738 233.703 218.538 233.939 218.618 234.397C218.694 234.854 219.162 236.188 218.48 238.233C217.795 240.288 216.261 241.612 214.747 242.274C213.238 242.935 211.38 244.433 210.858 246.879C210.343 249.325 209.019 252.545 209.386 254.672C209.526 255.481 210.327 256.601 212.176 256.522C210.913 257.568 209.721 257.49 208.752 257.048C207.222 259.871 204.92 261.035 200.731 260.221C196.444 259.389 191.015 255.278 189.888 248.337C189.89 248.19 191.955 248.2 192.145 248.2C192.156 248.2 192.163 248.2 192.174 248.2C191.921 247.87 191.648 247.392 191.63 246.872C191.623 246.583 191.745 246.21 191.929 245.811C186.607 245.811 185.655 241.781 185.635 241.709C185.635 241.709 183.946 243.065 183.874 245.38C183.691 244.425 182.927 243.645 181.915 243.493C180.633 243.296 179.429 244.179 179.237 245.465C179.043 246.75 179.931 247.953 181.213 248.147C182.496 248.339 183.698 247.458 183.892 246.173C183.897 246.142 183.897 246.112 183.901 246.08C183.931 246.355 183.983 246.64 184.065 246.936C184.288 247.755 184.592 248.337 184.904 248.78C185.655 249.84 186.47 249.994 186.47 249.994C186.479 249.995 186.585 249.843 186.594 249.834C186.65 249.768 187.127 249.27 187.189 249.311C186.65 248.962 184.355 247.222 185.751 243.421C185.751 243.421 185.671 246.852 188.509 248.678C188.82 250.098 191.046 258.586 199.37 261.227C208.456 264.114 211.957 259.782 212.773 258.15C213.143 257.404 214.073 255.088 214.073 255.088C214.861 252.831 216.858 244.05 217.608 243.027C218.355 242.001 220.609 237.891 219.696 234.115C219.696 234.115 219.511 233.495 219.027 233.623" fill="#B1BABF"/>
<path fill-rule="evenodd" clip-rule="evenodd" d="M318.289 288.725C317.745 288.592 317.224 288.394 316.726 288.137C316.412 287.974 316.104 287.798 315.808 287.6C315.627 287.479 315.444 287.347 315.257 287.206C315.25 287.201 315.243 287.196 315.236 287.19C315.143 287.618 315.015 287.989 314.833 288.215C314.508 288.619 313.999 288.836 313.603 288.95C313.611 288.953 313.62 288.962 313.629 288.969C314.222 289.444 314.831 289.863 315.34 290.436C310.256 295.289 303.448 295.295 299.523 293.372C295.687 291.49 294.556 289.171 295.042 285.985C294.005 285.755 293.004 285.117 292.632 283.52C292.666 283.551 292.71 283.569 292.747 283.599C293.63 284.313 295.073 284.575 295.966 283.727C296.771 282.961 297.397 281.703 297.961 280.352C298.476 279.113 298.921 277.842 299.49 276.626C299.719 276.133 299.884 275.596 299.972 275.058C300.228 273.546 299.911 271.937 299.167 270.602C298.365 269.163 297.933 267.18 298.629 265.127C299.324 263.087 300.497 262.304 300.833 261.987C301.175 261.672 301.154 261.36 300.972 261.119C300.664 260.729 300.147 261.111 300.147 261.111C297.138 263.571 296.457 268.209 296.436 269.48C296.418 270.751 292.71 278.954 291.979 281.226C291.949 281.321 291.316 283.27 291.169 284.454C290.944 286.266 291.013 291.813 300 294.996C308.229 297.909 315.098 292.45 316.207 291.498C318.519 291.67 320.199 290.465 321.015 289.66C321.388 289.294 321.606 289.01 321.606 289.01C320.718 291.928 318.865 292.646 317.732 292.807C317.364 292.858 317.068 292.854 316.909 292.84C316.933 292.914 316.943 292.972 316.961 293.039C317.092 293.527 317.065 293.821 317.065 293.821C317.065 293.821 317.333 293.949 317.795 293.978C318.447 294.018 319.492 293.859 320.832 292.831C321.059 292.653 321.233 292.463 321.414 292.276C320.89 293.382 321.295 294.713 322.387 295.306C323.517 295.921 324.932 295.498 325.542 294.368C326.157 293.241 325.736 291.824 324.606 291.214C323.773 290.759 322.791 290.873 322.088 291.409C322.77 290.282 322.85 289.126 322.812 288.4C322.807 288.276 322.729 287.714 322.719 287.711C322.71 287.719 322.698 287.724 322.687 287.732C321.765 288.424 320.68 288.878 319.513 288.878C319.112 288.878 318.678 288.818 318.289 288.725" fill="#B1BABF"/>
<path fill-rule="evenodd" clip-rule="evenodd" d="M301.554 278.809C301.173 279.882 300.852 280.749 300.573 281.447C305.092 283.481 309.378 286.014 312.198 287.946C312.596 287.812 313.058 287.593 313.377 287.194C313.58 286.933 313.722 286.487 313.823 285.973C310.615 282.887 303.872 277.93 301.974 276.947C301.974 276.947 301.796 278.119 301.554 278.809" fill="#B1BABF"/>
<path fill-rule="evenodd" clip-rule="evenodd" d="M288.682 131.005C263.493 126.714 258.635 145.612 258.547 150.204C258.485 153.558 258.706 155.823 258.6 157.167C254.937 158.698 251.018 159.256 251.018 159.256C251.23 157.132 251.221 152.443 252.132 148.744C252.991 145.267 258.795 130.085 279.198 129.996C281.312 129.996 283.577 130.147 286.01 130.492C286.886 130.642 287.736 130.81 288.559 130.978C288.603 130.987 288.638 130.996 288.682 131.005" fill="#B1BABF"/>
<path fill-rule="evenodd" clip-rule="evenodd" d="M325.205 173.227C323.834 176.669 321.109 180.066 319.915 182.004C318.517 180.473 316.633 178.19 315.216 175.633C315.995 174.457 317.508 172.855 319.189 170.519C320.383 168.847 322.56 164.317 322.56 158.778C322.56 152.479 319.746 144.861 309.492 138.623C309.457 138.597 309.421 138.57 309.377 138.552C309.253 138.473 309.12 138.393 308.988 138.322C307.669 137.526 306.36 136.827 305.131 136.234L306.156 136.668C332.531 149.356 326.718 169.396 325.205 173.227" fill="#B1BABF"/>
<path fill-rule="evenodd" clip-rule="evenodd" d="M313.292 183.014C312.16 183.411 311.576 186.093 311.576 186.093C311.355 186.898 311.08 187.685 310.752 188.455C310 190.189 308.956 191.879 307.638 193.252C306.647 194.287 305.559 194.8 304.347 195.481C304.382 195.641 304.426 195.791 304.488 195.941C305.328 198.003 302.7 198.764 302.7 198.764C307.232 199.012 308.973 196.304 310.797 193.366C312.619 190.437 313.725 182.969 313.725 182.969L313.647 182.961C313.531 182.978 313.417 182.996 313.292 183.014" fill="#B1BABF"/>
<path fill-rule="evenodd" clip-rule="evenodd" d="M250.842 188.986C252.62 189.764 254.381 190.596 256.071 191.552C258.602 192.985 261.328 194.675 262.38 197.551C262.389 197.577 262.389 197.605 262.406 197.631C262.69 198.357 262.715 199.258 262.522 200.001C262.522 199.905 262.477 199.78 262.415 199.648C262.184 199.196 261.787 198.87 261.53 198.445C261.53 198.436 261.521 198.427 261.504 198.409C260.937 197.764 260.327 197.171 259.61 196.684C259.61 196.684 259.61 196.702 259.61 196.711L259.593 196.676C259.593 196.676 259.044 198.595 258.186 200.01C257.699 200.824 257.177 201.727 256.628 202.966C256.628 202.984 256.619 203.002 256.611 203.019C255.541 205.798 256.788 208.736 257.08 208.753C257.425 208.779 258.16 208.444 259.549 204.542C259.584 204.453 259.654 204.267 259.699 204.063C259.735 203.878 259.673 203.541 259.593 203.267C259.593 203.267 259.602 203.249 259.61 203.223C259.779 202.585 260.594 202.639 261.107 202.701C261.283 202.719 261.459 202.745 261.629 202.789C261.938 202.02 262.327 200.957 262.514 200.064C263.098 197.897 263.027 194.843 260.514 191.968C257.991 189.091 251.505 186.95 249.081 185.73C246.648 184.509 244.462 178.642 244.754 174.59C244.754 174.59 244.524 176.846 244.524 179.12C244.524 180.031 244.551 180.952 244.648 181.721C244.701 182.11 244.772 182.464 244.852 182.766C245.551 185.173 245.63 186.694 250.842 188.986" fill="#B1BABF"/>
<path fill-rule="evenodd" clip-rule="evenodd" d="M283.403 193.411V193.392L283.393 193.357C283.305 192.136 283.217 191.216 283.597 190.066C284.2 188.264 283.088 186.256 281.088 185.455C282.308 185.992 282.961 187.287 282.571 188.455C282.085 189.897 282.173 191.11 282.261 192.357C282.323 194.773 283.429 195.446 282.933 196.941L282.437 198.401C282.156 199.25 281.376 199.78 280.483 199.914C280.483 199.931 280.474 199.949 280.466 199.967C279.995 201.356 278.546 201.727 278.546 201.727C278.546 201.727 278.546 201.727 278.546 201.737C280.704 202.453 282.97 201.524 283.597 199.639L284.067 198.241C284.438 197.215 284.147 196.216 283.906 195.587C283.668 194.914 283.447 194.392 283.403 193.411" fill="#B1BABF"/>
<path fill-rule="evenodd" clip-rule="evenodd" d="M271.68 194.791L272.175 193.332C272.67 191.836 273.962 191.969 275.475 190.075C276.289 189.138 277.112 188.235 277.599 186.784C277.988 185.616 279.306 184.969 280.608 185.298C278.501 184.705 276.405 185.652 275.793 187.439C275.413 188.589 274.777 189.279 273.953 190.19V190.198L273.927 190.235C273.299 190.987 272.811 191.27 272.211 191.659C271.625 192.013 270.803 192.64 270.476 193.685L270.006 195.083C269.378 196.96 270.618 199.066 272.767 199.79C272.767 199.79 271.83 198.623 272.298 197.225C272.298 197.207 272.308 197.181 272.317 197.163C271.697 196.517 271.396 195.633 271.68 194.791" fill="#B1BABF"/>
<path fill-rule="evenodd" clip-rule="evenodd" d="M345.963 239.05L345.791 239.188C345.791 239.188 323.113 252.688 288.66 255.154C289.763 256.791 290.738 258.414 291.555 260.002C302.275 259.4 313.123 257.91 323.376 255.067C329.93 253.249 336.382 250.941 342.537 248.035C348.732 245.11 354.808 241.614 360.151 237.302C363.635 234.49 366.9 231.459 369.895 228.131C374.015 223.553 377.779 218.102 379.811 212.242C379.811 212.242 379.977 211.758 379.973 211.76C379.808 212.146 373.248 227.213 345.963 239.05" fill="#B1BABF"/>
<path d="M255.824 167.381C255.824 167.381 256.974 164.894 256.31 163.894C256.243 163.82 256.17 163.745 256.101 163.676L256.063 163.637L256.045 163.629C256.045 163.622 256.038 163.615 256.027 163.602L256.018 163.593C256.221 163.673 259.433 165.08 262.264 167.778C262.548 168.045 262.822 168.319 263.089 168.601C266.166 171.946 269.079 175.008 271.936 175.963C272.865 176.273 273.847 176.344 274.741 176.3C274.744 176.3 274.747 176.3 274.75 176.3C274.753 176.3 274.756 176.3 274.759 176.299C274.767 176.298 274.776 176.296 274.786 176.291C275.033 176.282 275.272 176.264 275.501 176.238V176.23C276.97 176.052 278.139 175.662 278.139 175.662C278.139 175.662 276.618 177.99 275.626 179.29C274.627 180.599 270.377 185.307 267.175 184.953C267.163 184.953 267.15 184.949 267.136 184.945C267.132 184.943 267.127 184.942 267.123 184.94L267.115 184.938C267.108 184.937 267.102 184.936 267.096 184.936C263.742 184.768 258.602 181.997 256.619 180.077C256.426 179.883 256.156 179.524 256.022 179.344C255.972 179.279 255.941 179.237 255.939 179.237C255.877 179.29 255.814 179.334 255.743 179.378C255.814 179.334 255.877 179.281 255.939 179.228C255.966 179.201 255.582 178.519 255.378 178.155L255.328 178.065L255.296 178.008C255.276 177.972 255.262 177.947 255.257 177.936C254.195 175.37 254.443 172.176 255.106 169.602C255.301 168.85 255.532 168.106 255.824 167.381Z" fill="black"/>
<path d="M291.925 193.262C289.155 191.607 288.597 185.281 288.588 183.643C288.58 182.015 288.774 179.281 288.783 179.237C288.783 179.237 288.818 179.281 288.836 179.308C288.969 179.502 289.588 180.361 290.535 181.272V181.281C290.703 181.44 290.879 181.599 291.066 181.759C291.068 181.761 291.071 181.764 291.074 181.766C291.083 181.772 291.094 181.781 291.101 181.794C291.792 182.369 292.606 182.9 293.544 183.21C296.4 184.175 300.569 183.493 305.037 182.679C305.427 182.618 305.806 182.565 306.188 182.519C310.196 182.06 313.718 182.945 313.718 182.945L313.726 182.971L313.647 182.963C313.595 182.97 313.544 182.978 313.491 182.986L313.424 182.996L313.376 183.004C313.349 183.008 313.321 183.012 313.292 183.016C312.161 183.413 311.577 186.095 311.577 186.095C311.356 186.9 311.081 187.687 310.752 188.457C310 190.19 308.957 191.881 307.639 193.254C306.795 194.135 305.88 194.638 304.878 195.189C304.704 195.285 304.527 195.382 304.347 195.483L304.338 195.474C304.337 195.474 304.335 195.475 304.331 195.476L304.329 195.476L304.307 195.482L304.24 195.501C304.036 195.56 303.559 195.696 303.277 195.73C300.532 196.067 294.764 195.182 291.996 193.288C291.971 193.28 291.954 193.272 291.939 193.265L291.934 193.262H291.925Z" fill="black"/>
<path d="M282.438 198.403L282.934 196.943C283.199 196.144 283.006 195.579 282.76 194.858C282.546 194.23 282.291 193.483 282.262 192.359L282.261 192.349C282.173 191.105 282.087 189.895 282.571 188.457C282.962 187.288 282.309 185.994 281.089 185.457C281.005 185.423 280.924 185.389 280.838 185.36C280.77 185.334 280.696 185.318 280.621 185.301L280.608 185.299C279.307 184.97 277.988 185.617 277.599 186.785C277.135 188.169 276.365 189.053 275.589 189.946L275.476 190.076C274.773 190.955 274.119 191.397 273.569 191.769C272.935 192.197 272.44 192.531 272.175 193.333L271.68 194.792C271.396 195.634 271.697 196.518 272.317 197.164C272.618 197.474 272.972 197.739 273.414 197.89C274.794 198.35 276.255 197.704 276.67 196.448C276.741 196.243 276.97 196.129 277.191 196.199C277.412 196.279 277.537 196.509 277.466 196.722C277.042 197.968 277.812 199.367 279.182 199.827C279.624 199.969 280.067 199.969 280.483 199.916C281.377 199.782 282.156 199.252 282.438 198.403Z" fill="black"/>
<path fill-rule="evenodd" clip-rule="evenodd" d="M325.436 235.489C306.581 240.559 288.568 242.019 276.526 242.337C276.428 242.266 276.333 242.196 276.238 242.125C276.143 242.054 276.048 241.983 275.951 241.913C278.844 241.32 281.56 240.152 283.922 238.258C287.161 235.666 290.589 233.409 293.756 231.324L293.757 231.323C296.447 229.552 298.95 227.904 300.99 226.279C305.449 222.739 309.581 212.06 309.581 212.06C317.057 209.194 322.136 199.045 322.136 199.045C322.136 199.045 320.959 196.798 320.853 194.064C320.784 192.43 322.271 190.126 324.421 186.795C325.88 184.535 327.644 181.801 329.435 178.483C333.868 170.281 334.841 159.045 327.515 146.702C320.225 134.421 300.114 128.095 299.937 128.042L299.93 128.04C299.479 127.881 279.812 120.94 266.687 126.299C253.398 131.723 247.399 141.261 245.983 150.48C245.411 154.209 245.168 157.454 244.968 160.137C244.672 164.089 244.468 166.822 243.435 168.087C241.692 170.202 239.401 171.29 239.401 171.29C239.401 171.29 237.339 182.447 241.568 189.224C241.568 189.224 238.419 200.24 239.834 205.752C240.482 208.272 241.481 211.087 242.555 214.112C243.826 217.693 245.201 221.569 246.222 225.597C246.983 228.606 248.514 231.233 250.522 233.472C250.416 233.472 250.308 233.47 250.199 233.467C250.091 233.465 249.983 233.463 249.876 233.463C240.454 225.942 226.908 213.865 214.866 198.373C193.764 171.228 186.889 128.024 186.889 128.024C177.617 153.382 175.281 162.301 182.917 186.349C190.552 210.397 213.583 233.401 213.583 233.401C213.026 234.737 213.84 237.197 213.84 237.197C213.84 237.197 210.477 236.17 200.338 236.153C194.026 236.136 192.391 236.552 191.306 236.827C190.649 236.994 190.194 237.11 189.022 237.046C185.916 236.878 185.031 235.595 185.031 235.595C183.465 236.374 181.997 238.179 181.997 238.179C180.519 238.338 173.255 239.17 174.025 246.301C174.803 253.432 182.253 252.99 182.253 252.99C183.598 254.529 185.553 255.184 185.553 255.184C185.553 255.184 189.951 266.801 202.629 267.35C213.645 267.828 217.202 261.112 217.945 259.343C218.228 260.015 218.547 260.705 218.883 261.404C221.121 265.978 224.554 271.057 229.199 275.658C233.835 280.25 239.71 284.391 246.806 286.779C257.609 290.372 268.483 289.266 277.004 286.594C280.162 285.603 283.241 284.32 286.109 282.674C285.612 285.072 285.099 292.017 293.594 297.874C304.033 305.085 314.544 298.467 314.544 298.467C314.544 298.467 316.5 299.131 318.508 298.706C318.508 298.706 324.189 303.555 329.108 298.335C334.018 293.114 328.736 288.071 327.658 287.054C327.658 287.054 327.559 284.727 326.781 283.161C326.781 283.161 325.312 283.647 322.729 281.913C321.752 281.254 321.458 280.887 321.033 280.356C320.333 279.483 319.278 278.166 314.244 274.375C306.139 268.279 302.839 267.058 302.839 267.058C302.839 267.058 304.971 265.589 305.334 264.191C305.334 264.191 337.584 259.741 358.182 245.168C378.77 230.587 382.292 222.058 390.184 196.241C390.184 196.241 358.642 226.553 325.436 235.489ZM244.647 181.721C244.55 180.952 244.523 180.031 244.523 179.12C244.523 176.846 244.754 174.59 244.754 174.59C244.754 174.59 247.806 172.626 249.363 169.75C250.938 166.884 252.23 161.212 252.23 161.212C258.114 160.549 263.617 154.285 263.954 153.895C262.493 155.302 260.582 156.355 258.6 157.169C254.937 158.7 251.018 159.257 251.018 159.257C251.075 158.684 251.116 157.925 251.164 157.049L251.164 157.048L251.164 157.046C251.292 154.673 251.467 151.446 252.133 148.746C252.991 145.269 258.795 130.086 279.198 129.997C281.312 129.997 283.577 130.148 286.011 130.493C286.886 130.643 287.736 130.811 288.559 130.98C288.581 130.984 288.601 130.988 288.621 130.993C288.641 130.997 288.66 131.002 288.683 131.006C293.328 131.971 297.052 133.094 298.026 133.404C298.074 133.422 298.121 133.437 298.167 133.453C298.214 133.468 298.26 133.484 298.309 133.501C298.787 133.652 299.441 133.864 300.23 134.156C300.401 134.225 300.583 134.293 300.775 134.366L300.945 134.43C301.273 134.554 301.618 134.687 301.981 134.837C302.458 135.023 302.963 135.235 303.494 135.474L303.736 135.585C304.184 135.79 304.651 136.003 305.131 136.235L306.157 136.669C332.532 149.356 326.719 169.396 325.206 173.228C324.211 175.724 322.504 178.198 321.186 180.108C320.687 180.83 320.244 181.472 319.916 182.004C318.517 180.474 316.633 178.191 315.217 175.634C314.288 173.971 313.571 172.201 313.297 170.432C313.297 170.432 313.81 179.156 318.234 183.349C318.234 183.349 315.854 188.667 315.358 191.896C314.872 195.135 316.128 198.541 316.128 198.541C316.128 198.541 315.81 199.054 315.35 199.762C315.341 199.78 315.329 199.796 315.318 199.812C315.307 199.827 315.297 199.842 315.288 199.859C314.244 201.717 312.838 203.708 311.112 205C310.974 205.103 310.842 205.205 310.712 205.304C308.957 206.651 307.757 207.573 302.582 206.353C300.406 205.831 298.203 205.363 295.982 205.088C293.142 204.725 289.382 204.628 287.311 207.017C287.306 207.028 287.3 207.032 287.293 207.038C287.29 207.04 287.287 207.042 287.284 207.045L287.279 207.049L287.276 207.052C287.001 207.38 286.745 207.743 286.568 208.167C286.568 208.167 288.134 207.061 290.94 207.194C290.94 207.194 290.933 207.2 290.928 207.207C290.924 207.212 290.921 207.217 290.921 207.221L290.94 207.212C290.859 207.424 290.222 209.167 290.055 210.698C289.976 211.453 289.668 213.127 289.546 213.786L289.525 213.898L289.507 213.997C289.5 214.036 289.497 214.057 289.497 214.06C288.674 216.927 285.913 218.501 285.666 218.342C285.373 218.156 284.993 217.457 286.232 213.494C286.232 213.299 286.869 213.069 287.01 213.078C287.139 213.056 287.267 213.036 287.395 213.016C287.523 212.996 287.652 212.976 287.78 212.954C287.78 212.954 287.709 212.803 287.444 212.432C287.354 212.281 287.153 212.177 286.98 212.089C286.931 212.064 286.884 212.04 286.842 212.016C286.717 211.948 286.288 211.753 285.958 211.603C285.731 211.5 285.55 211.418 285.55 211.414C285.003 211.175 284.533 210.99 284.533 210.99C284.542 211.087 284.542 211.22 284.515 211.361C284.482 211.619 284.371 212.024 284.343 212.124L284.339 212.14C284.329 212.237 284.321 212.308 284.304 212.335C284.274 212.452 284.242 212.569 284.211 212.687C284.176 212.817 284.141 212.947 284.108 213.078C283.861 213.98 283.64 214.715 283.356 215.599C283.347 215.608 283.33 215.635 283.321 215.661C283.038 216.502 282.188 216.228 282.188 216.228C282.179 216.228 282.092 216.192 282.092 216.192C281.472 215.882 280.79 215.555 280.083 215.219C280.083 215.219 279.286 214.803 279.41 213.98C279.401 213.963 279.41 213.945 279.419 213.918C279.42 213.914 279.421 213.91 279.422 213.905L279.423 213.897C279.423 213.891 279.424 213.886 279.424 213.881C279.425 213.862 279.426 213.846 279.438 213.83C279.449 213.799 279.459 213.764 279.468 213.729C279.481 213.686 279.493 213.643 279.507 213.609C279.729 212.812 280.198 211.105 280.259 210.707C280.339 210.238 280.649 209.379 280.843 209.043C280.829 209.028 280.811 209.011 280.792 208.991L280.791 208.99C280.635 208.831 280.341 208.532 280.083 208.406C279.835 208.282 279.569 208.229 279.207 208.256C279.074 208.371 278.853 208.716 278.844 208.902C278.835 209.008 278.553 209.893 278.242 210.866C278.035 211.506 277.809 212.187 277.632 212.719L277.632 212.72C277.537 213.004 277.457 213.245 277.402 213.414C277.226 213.945 276.844 214.06 276.535 214.06C276.278 214.06 276.075 213.98 276.075 213.98C275.641 213.806 275.097 213.607 274.583 213.417C274.363 213.337 274.149 213.258 273.951 213.184C273.93 213.18 273.91 213.171 273.89 213.162C273.87 213.153 273.849 213.144 273.827 213.14C273.031 212.839 273.084 212.158 273.137 211.883C273.243 211.567 273.359 211.224 273.478 210.872C273.745 210.082 274.028 209.243 274.261 208.539C274.293 208.429 274.33 208.318 274.367 208.207C274.409 208.077 274.453 207.947 274.491 207.813C274.491 207.811 274.492 207.808 274.493 207.805C274.494 207.802 274.496 207.799 274.499 207.795C274.501 207.792 274.503 207.788 274.505 207.785L274.508 207.778C274.535 207.672 274.836 206.911 275.296 206.681C274.995 206.451 274.393 206.212 273.943 206.053C273.402 205.876 272.438 205.708 272.385 205.699C272.544 206.044 272.581 206.645 272.5 206.946C272.464 207.072 272.334 207.526 272.171 208.093L272.162 208.122C271.809 209.354 271.309 211.097 271.279 211.193C271.226 211.335 271.04 211.777 270.748 211.883C270.465 211.989 269.669 211.733 269.669 211.733C269.652 211.73 269.636 211.727 269.622 211.724C269.607 211.721 269.593 211.718 269.578 211.715L269.555 211.71L269.536 211.706C269.169 211.595 268.718 211.5 268.28 211.408C267.916 211.331 267.561 211.256 267.272 211.175C267.272 211.175 266.227 210.875 266.554 209.919C266.554 209.919 267.236 207.424 267.572 206.238C267.572 206.212 267.581 206.168 267.59 206.132L267.59 206.13C267.619 206.034 267.767 205.541 267.82 204.796C267.873 204.044 267.368 203.867 266.997 203.867C266.644 203.867 266.254 204.504 266.166 204.876C266.068 205.274 265.847 205.938 265.847 205.938L265.82 206V206.008C265.793 206.061 265.767 206.123 265.749 206.177C265.386 207.141 265.103 207.937 264.776 208.902C264.432 209.813 263.413 209.627 263.413 209.627C262.652 209.468 261.918 209.317 261.237 209.194C261.228 209.194 261.14 209.167 261.14 209.158C261.14 209.158 260.29 208.866 260.573 208.026C260.573 207.999 260.573 207.973 260.591 207.946C260.893 207.07 261.148 206.362 261.502 205.486L261.51 205.469C261.616 205.217 261.958 204.408 262.157 204.088C262.369 203.761 262.652 203.584 262.652 203.584C262.662 203.389 262.369 203.027 261.838 202.841C261.777 202.823 261.706 202.806 261.626 202.788C261.458 202.744 261.281 202.717 261.104 202.699C260.591 202.637 259.777 202.584 259.609 203.221C259.605 203.232 259.602 203.241 259.599 203.248C259.594 203.259 259.591 203.266 259.591 203.266C259.671 203.54 259.733 203.876 259.697 204.062C259.653 204.265 259.582 204.451 259.547 204.54C258.158 208.442 257.423 208.778 257.078 208.751C256.786 208.734 255.539 205.796 256.609 203.018C256.618 203 256.627 202.982 256.627 202.965C257.176 201.726 257.698 200.824 258.184 200.01C259.043 198.594 259.591 196.674 259.591 196.674L259.609 196.709V196.683C260.326 197.17 260.936 197.762 261.502 198.408C261.521 198.426 261.529 198.435 261.529 198.444C261.644 198.635 261.789 198.806 261.933 198.978C262.11 199.188 262.288 199.399 262.414 199.647C262.476 199.78 262.52 199.903 262.52 200.001C262.714 199.258 262.688 198.355 262.406 197.63C262.393 197.612 262.389 197.594 262.385 197.576L262.382 197.564L262.38 197.556L262.378 197.55C261.325 194.674 258.6 192.985 256.07 191.551C254.38 190.596 252.619 189.764 250.841 188.985C245.996 186.855 245.586 185.39 244.991 183.261L244.991 183.26C244.946 183.099 244.9 182.934 244.851 182.765C244.771 182.465 244.7 182.111 244.647 181.721ZM250.009 218.086C250.098 218.351 250.195 218.687 250.301 219.068C250.346 219.233 250.392 219.408 250.441 219.592C251.188 222.399 252.457 227.173 254.858 229.765C257.761 232.888 260.564 234.295 264.024 235.463L264.025 235.463L264.028 235.463C264.031 235.463 264.034 235.464 264.037 235.464C264.042 235.466 264.047 235.468 264.05 235.471C264.068 235.471 264.077 235.48 264.086 235.48C265.811 236.064 267.448 236.489 269.182 236.684C270.907 236.878 272.73 236.834 274.828 236.462C278.291 235.848 282.162 232.833 284.456 231.047C284.969 230.648 285.403 230.31 285.736 230.074C286.677 229.407 288.974 227.871 291.19 226.387C293.267 224.998 295.273 223.655 296.027 223.12L296.044 223.108C297.602 222.007 298.908 221.084 300.512 218.378C302.122 215.652 304.839 209.326 304.839 209.326C304.839 209.326 302.228 208.813 301.361 208.707C301.361 208.707 301.352 208.734 301.326 208.778L301.269 208.878C300.699 209.877 297.779 214.998 296.691 216.104C296.691 216.104 296.654 216.104 296.601 216.121C296.194 216.192 294.575 216.511 293.77 217.112C293.529 217.289 293.125 217.756 292.581 218.384C291.028 220.177 288.339 223.281 285.082 224.677C285.497 222.2 283.897 220.917 283.48 220.961C283.099 221.003 282.796 221.859 282.686 222.171L282.666 222.226C282.634 222.316 282.502 222.592 282.334 222.945C282.037 223.568 281.626 224.431 281.445 224.934C281.153 225.721 281.242 225.783 281.242 225.783C280.534 225.757 279.826 225.721 279.127 225.668C279.799 224.394 280.401 223.129 280.967 221.872C281.374 220.82 280.259 220.589 280.259 220.589L280.251 220.581C279.622 220.483 278.995 220.386 278.367 220.262H278.304C277.517 220.121 277.04 220.616 276.942 220.917L276.914 220.985L276.89 221.045L276.833 221.186C276.79 221.295 276.747 221.403 276.703 221.51C276.488 222.017 276.264 222.53 276.04 223.04C275.96 223.223 275.88 223.406 275.8 223.589C275.791 223.633 275.783 223.677 275.756 223.713C275.402 224.589 275.703 225.323 275.703 225.323C275.682 225.321 275.658 225.32 275.631 225.319C275.6 225.318 275.564 225.316 275.525 225.315C275.222 225.304 274.688 225.285 273.889 225.128C273.429 225.031 272.81 224.757 272.81 224.757C273.155 224.474 273.367 223.934 273.367 223.934C273.995 222.403 274.96 220.032 274.96 220.032C274.96 220.032 275.34 219.006 274.677 218.811C273.774 218.59 272.88 218.342 271.987 218.077C271.306 217.926 271.014 218.484 270.943 218.67C270.89 218.801 270.824 218.96 270.758 219.121C270.645 219.394 270.53 219.673 270.474 219.829C270.249 220.469 270.027 221.107 269.807 221.74L269.456 222.748C269.456 222.766 269.456 222.775 269.448 222.793C269.235 223.412 269.403 224.005 269.403 224.005C269.403 224.005 268.536 223.828 268.085 223.704C267.625 223.589 266.935 223.102 266.935 223.102C267.04 223.006 267.158 222.736 267.251 222.521L267.28 222.456C267.636 221.185 267.986 219.635 268.3 218.247C268.344 218.051 268.387 217.858 268.43 217.67C268.457 217.457 268.465 216.829 267.82 216.564C267.059 216.281 266.298 215.989 265.555 215.679C264.891 215.475 264.599 216.024 264.493 216.343C264.192 217.714 263.847 219.36 263.617 220.554C263.52 221.386 263.9 221.97 263.9 221.97C263.588 221.899 262.998 221.649 262.474 221.427C262.405 221.398 262.338 221.369 262.272 221.342C261.892 221.182 261.069 220.634 261.069 220.634C261.493 220.598 261.732 219.696 261.732 219.696C262.116 218.891 262.4 218.176 262.694 217.433L262.822 217.109L262.891 216.935C262.896 216.913 262.905 216.893 262.914 216.873C262.922 216.854 262.931 216.834 262.936 216.811C262.941 216.797 262.946 216.785 262.952 216.769L262.954 216.763C262.959 216.752 262.964 216.74 262.971 216.723C263.334 215.741 262.652 215.219 262.537 215.139C261.893 214.817 261.195 214.457 260.784 214.245L260.782 214.244C260.679 214.19 260.593 214.146 260.532 214.115L260.464 214.08C260.438 214.067 260.424 214.06 260.423 214.06C259.857 213.759 259.485 214.157 259.361 214.546C259.225 214.933 259.062 215.308 258.898 215.684C258.594 216.383 258.287 217.088 258.149 217.882C258.052 218.572 258.105 219.05 258.105 219.05C256.76 218.413 256.264 217.395 256.264 217.395C256.583 217.015 257.016 215.652 257.025 214.387L257.026 214.294L257.027 214.187L257.029 214.016C257.043 212.888 257.056 211.886 256.521 211.503C255.928 211.087 254.937 212.149 254.424 212.91C253.92 213.662 253.805 214.104 253.805 214.104V214.201C252.031 211.114 251.76 206.993 251.603 204.622C251.549 203.799 251.509 203.188 251.425 202.903C251.097 201.797 249.699 200.328 249.699 200.328C249.673 200.116 249.664 199.824 249.664 199.47C249.699 197.213 250.308 192.588 250.418 191.753L250.425 191.702C250.434 191.649 250.434 191.622 250.434 191.622C249.691 191.18 247.284 190.021 247.284 190.021C247.284 190.021 247.275 190.047 247.266 190.091C247.08 190.843 245.621 196.904 245.284 199.85C245.24 200.24 245.214 200.602 245.196 200.948C245.054 203.363 245.479 204.734 246.001 206.336C246.272 207.181 247.009 209.313 247.789 211.568L247.789 211.569L247.789 211.57C248.691 214.177 249.649 216.947 250.009 218.086ZM369.896 228.127C374.019 223.553 377.779 218.103 379.814 212.245L379.964 211.785L379.973 211.759C379.938 211.83 378.85 212.732 377.089 214.156C376.337 214.776 375.505 215.448 374.567 216.191C364.322 224.287 342.937 238.842 308.121 245.106C299.68 246.619 291.08 247.451 282.701 247.822C284.082 249.247 285.347 250.698 286.497 252.175C286.497 252.175 290.16 251.902 290.664 251.857C296.981 251.326 303.299 250.565 309.545 249.432C324.993 246.645 336.672 242.699 342.211 240.611C343.512 240.098 344.75 239.576 345.962 239.045L345.795 239.187C345.795 239.187 323.109 252.688 288.665 255.157C289.762 256.794 290.735 258.413 291.558 260.005C302.272 259.404 313.12 257.909 323.374 255.068C329.93 253.246 336.38 250.945 342.538 248.034C348.732 245.115 354.81 241.611 360.154 237.302C363.631 234.489 366.896 231.463 369.896 228.127ZM303.033 273.144C304.546 274.011 306.033 274.914 307.493 275.852C308.545 276.524 309.581 277.214 310.589 277.94C310.648 277.986 310.71 278.031 310.771 278.075C310.838 278.124 310.905 278.172 310.97 278.224C311.961 279.32 312.969 280.736 313.429 282.045C313.979 283.549 314.022 284.947 313.819 285.974C313.722 286.487 313.58 286.929 313.376 287.195C313.059 287.593 312.598 287.814 312.2 287.947C309.377 286.018 305.096 283.478 300.574 281.444C300.848 280.745 301.175 279.877 301.557 278.807C301.795 278.117 301.972 276.949 301.972 276.949C302.157 274.685 301.219 272.817 300.441 271.684C300.463 271.697 300.486 271.71 300.509 271.722C300.544 271.741 300.579 271.76 300.614 271.779C300.699 271.824 300.785 271.871 300.874 271.923L301.267 272.143L301.269 272.145C301.86 272.476 302.447 272.804 303.033 273.144ZM315.871 282.39C315.208 281.735 313.748 280.391 313.075 279.877L311.191 278.382C311.571 278.771 314.208 281.612 314.81 283.213C315.199 284.169 315.42 285.363 315.358 286.398C315.34 286.69 315.296 286.947 315.243 287.186C315.243 287.186 315.252 287.203 315.261 287.203C315.256 287.203 315.252 287.201 315.248 287.199L315.242 287.197C315.24 287.195 315.237 287.195 315.234 287.195C315.146 287.619 315.013 287.991 314.836 288.221C314.509 288.62 313.996 288.841 313.606 288.955C313.61 288.955 313.614 288.957 313.618 288.96C313.622 288.962 313.625 288.965 313.628 288.968L313.633 288.973C313.661 288.995 313.688 289.017 313.716 289.038L313.794 289.099C313.859 289.15 313.924 289.2 313.989 289.25C314.465 289.617 314.937 289.981 315.34 290.442C310.253 295.29 303.449 295.299 299.521 293.37C295.69 291.495 294.557 289.176 295.044 285.982C294.009 285.761 293.009 285.115 292.628 283.523C292.642 283.533 292.657 283.542 292.672 283.551C292.697 283.565 292.722 283.581 292.744 283.602C293.629 284.319 295.07 284.576 295.964 283.726C296.769 282.965 297.397 281.709 297.964 280.355C298.143 279.921 298.314 279.483 298.486 279.045C298.803 278.232 299.121 277.418 299.494 276.63C299.724 276.135 299.883 275.595 299.972 275.064C300.229 273.551 299.91 271.941 299.167 270.605C298.362 269.163 297.937 267.181 298.627 265.128C299.235 263.35 300.199 262.529 300.66 262.136C300.691 262.11 300.719 262.086 300.745 262.064C300.763 262.048 300.78 262.033 300.796 262.019C300.808 262.008 300.82 261.997 300.83 261.987C301.175 261.678 301.158 261.359 300.972 261.12C300.662 260.731 300.149 261.111 300.149 261.111C297.141 263.571 296.459 268.207 296.433 269.481C296.422 270.256 295.047 273.594 293.808 276.602C293.009 278.539 292.267 280.34 291.982 281.231C291.947 281.321 291.319 283.275 291.168 284.452C290.947 286.266 291.018 291.813 299.998 294.998C308.228 297.91 315.102 292.45 316.208 291.503C318.517 291.671 320.198 290.468 321.012 289.663C321.348 289.336 321.552 289.079 321.596 289.017C320.72 291.928 318.862 292.645 317.729 292.804C317.367 292.857 317.066 292.857 316.907 292.839C316.926 292.896 316.935 292.94 316.946 292.986C316.95 293.005 316.955 293.023 316.96 293.044C317.092 293.53 317.066 293.822 317.066 293.822C317.066 293.822 317.331 293.954 317.791 293.981C318.446 294.016 319.49 293.857 320.836 292.831C321.053 292.657 321.227 292.474 321.401 292.291L321.41 292.282C320.888 293.388 321.295 294.715 322.384 295.308C323.516 295.919 324.931 295.503 325.542 294.371C326.161 293.246 325.737 291.822 324.604 291.211C323.772 290.76 322.791 290.875 322.091 291.406C322.773 290.282 322.852 289.123 322.808 288.399C322.808 288.274 322.728 287.717 322.719 287.717L322.728 287.708C322.277 287.593 321.852 287.433 321.445 287.239C320.994 287.018 320.569 286.734 320.145 286.416C319.579 286 317.925 284.434 317.518 284.027C317.198 283.703 316.873 283.381 316.547 283.06C316.321 282.837 316.096 282.614 315.871 282.39ZM289.947 272.065C289.947 272.065 289.921 272.392 289.788 272.79C287.93 278.329 267.35 288.539 248.31 282.151C229.287 275.763 219.21 254.635 220.873 249.662C220.988 249.335 221.094 249.176 221.094 249.176C221.111 249.165 221.121 249.14 221.13 249.117C221.135 249.102 221.141 249.089 221.147 249.079C221.28 248.84 221.439 248.618 221.616 248.406C225.793 243.124 244.815 234.427 262.351 240.31C276.871 245.185 286.285 258.298 289.116 266.703C289.841 268.889 290.133 270.755 289.947 272.065ZM215.392 250.341C216.222 247.18 217.148 243.654 217.608 243.027C218.352 242 220.608 237.895 219.696 234.117C219.696 234.117 219.511 233.498 219.024 233.621C218.741 233.701 218.537 233.94 218.617 234.4C218.627 234.456 218.643 234.526 218.662 234.609C218.795 235.194 219.08 236.441 218.475 238.231C217.794 240.293 216.264 241.611 214.751 242.275C213.238 242.938 211.38 244.433 210.858 246.884C210.704 247.616 210.477 248.417 210.245 249.238C209.702 251.157 209.129 253.183 209.389 254.67C209.522 255.484 210.327 256.599 212.176 256.528C210.911 257.572 209.725 257.493 208.752 257.05C207.221 259.873 204.921 261.032 200.727 260.218C196.445 259.395 191.012 255.281 189.888 248.335C189.888 248.2 191.793 248.202 192.113 248.203L192.171 248.203C191.923 247.875 191.649 247.389 191.631 246.875C191.623 246.583 191.746 246.212 191.932 245.814C191.965 245.768 192.072 245.572 192.142 245.445L192.142 245.445C192.168 245.398 192.188 245.361 192.198 245.345C192.711 244.38 193.702 243.469 194.64 242.92C194.648 242.912 194.657 242.903 194.666 242.903C196.303 241.921 198.869 241.328 200.497 241.239C200.541 241.231 199.922 241.213 199.612 241.222C197.595 241.231 195.586 241.425 193.587 241.708C193.277 241.752 192.97 241.797 192.665 241.841C191.225 242.052 189.834 242.255 188.49 242.248C187.968 242.239 187.464 242.204 186.978 242.115C186.526 242.027 186.075 241.894 185.633 241.708C185.633 241.708 183.943 243.062 183.872 245.38C183.695 244.425 182.925 243.646 181.917 243.496C180.634 243.301 179.43 244.177 179.236 245.469C179.041 246.752 179.935 247.955 181.218 248.149C182.492 248.344 183.695 247.459 183.89 246.176C183.898 246.141 183.898 246.115 183.898 246.079C183.934 246.353 183.987 246.645 184.067 246.937C184.288 247.76 184.589 248.335 184.907 248.778C185.65 249.839 186.473 249.999 186.473 249.999C186.482 249.999 186.588 249.848 186.597 249.831C186.65 249.769 187.093 249.309 187.181 249.309C186.632 248.946 184.367 247.203 185.748 243.425C185.748 243.425 185.668 246.858 188.508 248.68C188.818 250.096 191.047 258.59 199.373 261.226C208.46 264.12 211.955 259.784 212.778 258.147C213.14 257.404 214.069 255.086 214.069 255.086C214.375 254.21 214.864 252.349 215.392 250.341ZM202.824 241.301C203.93 241.354 205.027 241.434 206.124 241.531C208.327 241.726 210.893 242.018 213.087 242.372C211.769 242.805 209.964 243.664 208.743 245.592C208.416 246.115 208.115 246.69 207.894 247.38C207.548 248.459 207.283 249.353 207.088 250.078C201.992 248.68 193.896 248.247 193.896 248.247C193.666 247.902 193.428 247.451 193.41 246.937C193.401 246.61 193.56 246.168 193.79 245.69C194.25 244.761 195.117 243.673 196.471 242.797C197.63 242.027 199.294 241.514 200.736 241.231C201.435 241.248 202.134 241.266 202.824 241.301ZM191.508 193.559C194.206 199.487 197.542 205.105 201.267 210.44C205.841 217.014 211.07 223.137 216.732 228.799C219.157 231.233 221.669 233.586 224.244 235.869C224.316 235.93 224.501 236.108 224.748 236.344C225.602 237.16 227.195 238.683 227.394 238.594C229.004 237.824 230.756 237.116 232.623 236.462C206.903 214.033 196.878 189.861 196.568 189.109L196.639 189.232C196.958 189.816 197.276 190.4 197.621 190.993C197.892 191.437 198.192 191.943 198.526 192.508C198.978 193.272 199.495 194.144 200.09 195.116C205.045 203.044 211.618 211.573 220.44 220.447C220.466 220.474 231.42 231.277 236.091 235.391C237.905 234.896 239.799 234.489 241.763 234.17C235.26 228.791 228.845 222.898 222.979 216.554C194.854 186.077 188.328 157.633 186.112 147.975C185.994 147.461 185.888 147 185.792 146.595L185.615 147.099C184.474 150.47 184.04 154.151 183.854 157.69C183.536 163.68 184.102 169.705 185.367 175.554C186.712 181.783 188.862 187.773 191.508 193.559Z" fill="black"/>
<path fill-rule="evenodd" clip-rule="evenodd" d="M224.278 247.861C229.021 247.903 234.888 248.381 241.348 249.534C241.827 248.841 242.324 248.169 242.842 247.521C234.927 246.579 228.208 246.989 224.278 247.861" fill="#0A0B09"/>
<path fill-rule="evenodd" clip-rule="evenodd" d="M273.457 257.854C273.476 258.675 273.465 259.503 273.428 260.334C279.101 263.224 283.931 266.267 287.646 269.007C285.111 265.987 280.139 261.77 273.457 257.854" fill="#0A0B09"/>
<path fill-rule="evenodd" clip-rule="evenodd" d="M287.84 273.912C280.792 278.354 265.062 282.464 249.913 277.383C235.044 272.39 225.165 259.68 222.001 251.942C221.63 251.139 221.534 248.97 223.706 247.965C223.706 247.965 222.334 248.16 221.097 249.174C221.097 249.174 220.989 249.334 220.877 249.666C219.213 254.631 229.289 275.764 248.313 282.15C267.348 288.539 287.935 278.329 289.793 272.794C289.92 272.392 289.946 272.068 289.946 272.068C289.514 270.713 288.688 269.869 288.688 269.869C289.746 271.866 288.661 273.33 287.84 273.912" fill="#C2242B"/>
<path fill-rule="evenodd" clip-rule="evenodd" d="M273.427 260.335C273.417 260.574 273.404 260.814 273.391 261.054C272.765 260.737 272.131 260.42 271.486 260.107C271.248 261.548 270.897 262.971 270.417 264.366C269.465 263.813 268.491 263.282 267.512 262.772C267.943 261.435 268.281 260.083 268.538 258.721C267.49 258.245 266.418 257.778 265.326 257.321C265.037 258.614 264.691 259.906 264.287 261.192C263.284 260.729 262.27 260.284 261.25 259.866C261.649 258.615 262.009 257.365 262.338 256.121C261.268 255.708 260.181 255.308 259.076 254.92C258.699 256.128 258.308 257.348 257.904 258.575C256.865 258.202 255.824 257.85 254.771 257.524C255.188 256.301 255.612 255.093 256.04 253.903C254.925 253.549 253.816 253.215 252.712 252.901C252.225 254.089 251.759 255.3 251.323 256.536C250.261 256.252 249.182 255.996 248.104 255.759C248.553 254.496 249.056 253.265 249.601 252.065C248.451 251.774 247.312 251.503 246.186 251.254C245.576 252.488 245.035 253.762 244.577 255.078C243.489 254.89 242.391 254.731 241.295 254.594C241.748 253.208 242.322 251.875 242.991 250.595C242.283 250.46 241.582 250.332 240.889 250.212C241.039 249.985 241.193 249.759 241.347 249.535C234.887 248.382 229.02 247.905 224.277 247.863C228.207 246.991 234.926 246.58 242.841 247.522C242.901 247.446 242.959 247.368 243.021 247.294C243.622 247.365 244.23 247.445 244.844 247.532C245.387 246.745 245.966 245.98 246.577 245.241C247.601 245.372 248.601 245.523 249.579 245.687C249.023 246.45 248.491 247.236 247.986 248.042C249.071 248.239 250.169 248.464 251.281 248.714C251.734 247.885 252.205 247.072 252.692 246.28C253.625 246.481 254.545 246.697 255.448 246.928C255.033 247.748 254.627 248.588 254.23 249.441C255.264 249.717 256.304 250.017 257.351 250.344C257.68 249.467 258.011 248.602 258.341 247.752C259.219 248.025 260.09 248.316 260.954 248.628C260.704 249.504 260.446 250.393 260.18 251.291C261.211 251.658 262.222 252.044 263.215 252.443C263.411 251.527 263.592 250.617 263.755 249.718C264.62 250.077 265.48 250.457 266.348 250.863C266.258 251.78 266.145 252.704 266.009 253.629C267.044 254.092 268.054 254.569 269.038 255.057C269.117 254.125 269.166 253.194 269.181 252.267C270.064 252.725 270.951 253.21 271.847 253.721C271.889 254.656 271.892 255.591 271.853 256.522C272.394 256.818 272.924 257.115 273.446 257.415C273.451 257.561 273.453 257.707 273.457 257.854C280.139 261.771 285.111 265.988 287.646 269.007C283.931 266.267 279.101 263.224 273.427 260.335ZM262.353 240.312C244.819 234.43 225.795 243.121 221.613 248.403C221.443 248.618 221.282 248.843 221.148 249.081C221.134 249.106 221.117 249.156 221.097 249.174C222.333 248.16 223.705 247.965 223.705 247.965C221.533 248.97 221.629 251.138 222 251.942C225.164 259.68 235.043 272.39 249.912 277.383C265.061 282.464 280.791 278.354 287.84 273.912C288.66 273.33 289.745 271.866 288.687 269.869C288.687 269.869 289.514 270.713 289.945 272.068C290.128 270.752 289.842 268.889 289.111 266.708C286.286 258.302 276.871 245.183 262.353 240.312V240.312Z" fill="#DC4405"/>
</svg>
