<svg width="500" height="500" viewBox="0 0 500 500" fill="none" xmlns="http://www.w3.org/2000/svg">
<path fill-rule="evenodd" clip-rule="evenodd" d="M64.5744 316.273C97.2488 295.414 107.527 271.916 107.527 271.916L15 285.194L54.3208 215.363L133.325 208.711C133.325 208.711 164.061 181.284 211.648 161.618C211.648 161.618 216.611 152.965 243.789 137.323C243.789 137.323 268.716 122.645 297.103 113.253C297.103 113.253 316.342 106.636 322.02 106.303L320.351 100.185L356.627 97.077L357.562 93.6021C357.562 93.6021 376.498 94.8795 387.359 99.6857L389.497 96.8372C389.497 96.8372 414.84 108.486 433.703 137.108C433.703 137.108 451.998 136.09 468.374 143.925C468.374 143.925 485.729 150.826 484.946 170.971C484.946 170.971 484.829 196.676 477.145 222.151C477.145 222.151 475.965 226.14 474.869 228.518C474.869 228.518 473.273 231.763 470.195 235.86C470.195 235.86 461.6 244.709 458.267 252.501C458.267 252.501 456.461 257.684 452.874 267.1C452.874 267.1 450.113 280.051 431.3 280.77C431.3 280.77 412.99 303.94 405.355 310.591L404.709 304.963C404.709 304.963 391.935 316.797 380.849 323.786L384.593 290.984C384.593 290.984 385.513 285.126 381.794 284.705L372.225 284.475C372.225 284.475 375.358 304.219 371.575 313.346C371.575 313.346 369.167 327.677 346.932 334.5C346.932 334.5 329.753 339.967 310.097 341.503L305.873 340.833L274.932 353.514L283.976 321.07C283.976 321.07 272.382 322.244 271.383 320.791L236.927 335.562L250.47 296.755L259.749 291.616L256.788 287.593L237.74 287.764L230.731 293.216C214.551 289.002 198.82 290.138 198.82 290.138L118.754 355.119L98.6926 399.467L74.735 367.433L82.233 357.625L79.3846 355.482L68.5241 364.027L52.4463 407.332L28.7677 373.914L34.8562 360.332L33.5103 352.012C40.5581 347.357 45.1195 344.239 48.6826 340.236C50.6256 337.73 51.6975 336.859 53.9538 332.645C56.0828 327.496 56.1611 321.921 58.5348 320.154C61.5057 318.138 63.7766 316.782 64.5744 316.273Z" fill="white"/>
<path fill-rule="evenodd" clip-rule="evenodd" d="M58.8138 222.361L28.2 276.311L423.224 217.438C423.224 217.438 409.496 206.998 429.396 190.49L58.8138 222.361Z" fill="#C60C30"/>
<path fill-rule="evenodd" clip-rule="evenodd" d="M459.794 182.977C459.794 182.977 428.95 204.066 439.644 222.258C439.644 222.258 428.451 228.459 440.819 237.186C440.819 237.186 421.702 245.79 426.758 222.18L116.195 269.175C116.195 269.175 109.553 297.298 65.5092 323.928C65.5092 323.928 62.279 325.822 61.9902 329.356C61.9902 329.356 62.3034 333.765 58.295 339.1C58.295 339.1 53.3273 347.758 41.8208 355.119L42.643 360.885L37.2544 373.253L50.4494 392.198L62.3866 359.974L86.0212 341.821C86.0212 341.821 109.152 305.623 147.19 291.454C147.19 291.454 180.75 277.133 229.752 285.243L234.226 280.951L290.956 279.698C290.956 279.698 293.089 280.187 291.665 281.342C291.665 281.342 280.492 289.937 268.251 291.043L269.386 294.533C269.386 294.533 269.719 295.756 268.804 296.05L256.921 300.768L249.06 322.552L271.359 312.847L272.607 313.787C272.607 313.787 292.013 314.991 321.212 309.083C321.212 309.083 341.465 305.075 347.103 278.846L385.646 277.163C385.646 277.163 393.677 278.876 392.669 286.33L389.909 308.183L407.538 292.477L408.761 296.598C408.761 296.598 422.118 282.135 425.544 273.859C425.544 273.859 440.207 274.153 443.824 268.226C443.824 268.226 445.483 266.562 450.172 253.66C450.172 253.66 452.37 244.596 461.429 235.679C461.429 235.679 468.443 229.11 472.338 211.868C472.338 211.868 477.042 186.877 477.003 182.115C477.003 182.115 482.059 157.394 465.119 150.111C465.119 150.111 452.531 143.166 428.965 145.095C428.965 145.095 424.267 128.694 391.783 106.21L389.424 109.724C389.424 109.724 378.324 102.084 362.608 102.26L361.81 104.443C361.81 104.443 352.262 104.374 331.431 106.547L333.37 112.313C333.37 112.313 290.412 114.305 229.473 155.104L228.362 158.442L220.615 162.088L224.75 164.359C224.75 164.359 178.196 181.171 144.317 208.892L459.794 182.977ZM350.974 283.692L364.302 283.54C364.302 283.54 366.969 301.13 365.388 308.976C365.388 308.976 362.76 320.639 350.852 325.2C350.852 325.2 333.311 332.625 307.009 334.309L305.736 333.217L285.797 341.63L292.346 318.441C292.346 318.441 319.073 316.376 327.149 313.958C327.149 313.958 347.871 309.886 350.974 283.692ZM107.121 328.161C139.511 290.01 186.805 290.578 186.805 290.578L112.994 350.377L97.0481 385.709L82.8987 366.748L90.8715 355.76L90.2499 351.39C107.032 342.002 107.121 328.161 107.121 328.161Z" fill="#00338D"/>
</svg>
