<svg width="500" height="500" viewBox="0 0 500 500" fill="none" xmlns="http://www.w3.org/2000/svg">
<g clip-path="url(#clip0_1335_1544)">
<path d="M454.974 369.078V368.906L454.957 368.734C453.112 343.789 447.536 318.558 437.901 291.588L437.795 291.318L437.688 291.047L436.565 288.366L436.696 288.661C432.678 278.23 424.298 273.729 411.957 275.254C411.957 275.254 406.2 275.885 406.405 275.861L404.134 276.066C394.622 276.935 380.944 278.157 368.898 277.041L353.925 241.593C357.008 239.567 359.632 237.206 361.281 234.213C362.617 231.802 363.445 229.252 363.954 226.743C368.562 226.111 372.908 224.061 376.016 220.699C380.567 215.73 383.15 206.792 376.713 196.591L377.033 197.124L356.976 160.962L345.11 166.005C297.55 89.3351 207.063 77.5927 140.274 106.407C79.6926 132.557 21.0134 201.56 55.0024 309.964C58.594 321.387 63.2106 332.629 68.6718 343.486C68.3356 346.864 68.5324 350.21 69.3196 353.621L69.3524 353.801L69.4098 353.982C71.1482 360.525 72.7308 364.871 76.7734 373.891C76.5438 379.82 78.7414 385.855 83.0218 390.456C89.6966 397.639 100.291 400.451 112.099 398.172L111.533 398.254C127.146 396.064 137.281 391.489 142.595 388.438C165.973 404.797 196.551 412.12 223.693 407.61C241.38 404.674 255.673 397.024 265.529 385.388C273.057 385.896 279.838 385.093 281.199 384.929C289.539 384.322 297.132 382.559 303.897 379.705C313.926 391.407 327.488 399.795 343.765 404.1C362.773 409.11 384.314 408.766 404.814 403.272C408.783 403.641 412.654 402.559 415.474 401.263C437.008 396.343 441.813 394.277 445.003 391.554C445.044 391.53 445.085 391.489 445.117 391.44C452.776 386.191 455.285 376.343 454.974 369.062V369.078ZM443.609 392.497L443.436 392.604C443.617 392.497 443.764 392.35 443.945 392.243L443.6 392.497H443.609Z" fill="white"/>
<path d="M324.922 338.09C339.624 336.532 353.351 334.466 366.561 332.211L326.947 325.528C326.677 329.89 326.004 334.089 324.922 338.082V338.09Z" fill="white"/>
<path d="M392.163 321.543C390.662 317.016 387.784 308.423 386.193 304.421L386.169 304.364V304.306C386.169 304.306 386.103 303.806 385.168 303.101C384.602 302.691 382.905 302.978 382.905 302.978C379.084 303.798 374.574 304.634 369.621 305.454L376.411 321.715C380.707 321.781 386.185 321.772 392.163 321.535V321.543Z" fill="white"/>
<path d="M363.309 320.731C361.604 316.705 359.685 312.162 357.627 307.299C347.639 308.726 336.799 310.055 326.508 311.153C326.631 312.219 326.762 313.277 326.852 314.327L363.309 320.731Z" fill="white"/>
<path d="M320.316 273.409C320.374 280.617 321.268 287.357 322.44 292.261C323.203 294.672 323.875 297.082 324.466 299.501C334.035 298.517 343.883 297.304 352.879 296.049C352.879 296.049 352.879 296.041 352.87 296.033C340.849 292.056 329.049 284.159 320.325 273.401L320.316 273.409Z" fill="white"/>
<path d="M321.821 257.689C329.922 269.35 339.836 277 343.969 279.551C344.592 280.092 345.56 280.666 346.577 281.191C338.27 261.552 330.685 243.61 329.357 240.478C329.225 240.658 329.102 240.806 328.963 241.002C325.306 245.57 323.108 251.466 321.812 257.689H321.821Z" fill="white"/>
<path d="M262.308 362.19C262.087 362.756 261.89 363.355 261.652 363.912C261.874 363.338 262.112 362.764 262.308 362.19Z" fill="white"/>
<path d="M214.473 393.473C232.152 392.17 248.24 385.396 257.687 371.358C257.687 371.358 257.67 371.358 257.662 371.358C258.113 370.718 258.498 370.071 258.892 369.423C259.113 369.046 259.368 368.701 259.581 368.316C259.851 367.848 260.065 367.365 260.311 366.889C260.598 366.34 260.876 365.766 261.147 365.192C261.319 364.798 261.459 364.413 261.614 364.019C253.226 383.027 234.858 391.883 214.473 393.482V393.473Z" fill="white"/>
<path d="M404.577 320.698C410.235 320.149 415.869 319.312 421.01 318.115L419.428 311.612C418.747 308.8 416.303 301.116 414.631 297.074C413.351 297.517 408.751 298.902 397.566 300.936C400.084 306.914 402.454 313.605 404.577 320.698Z" fill="white"/>
<path d="M416.026 376.229C415.28 376.073 414.534 375.786 413.796 375.597C413.796 375.942 413.779 376.261 413.787 376.598C414.558 376.475 415.362 376.352 416.034 376.229H416.026Z" fill="white"/>
<path d="M413.092 363.142C417.946 365.216 423.047 366.733 428.254 367.553C428.516 367.57 429.787 367.676 431.386 367.988C431.509 367.406 431.599 366.741 431.55 365.88C430.574 357.344 427.991 343.445 426.294 334.237L426.031 332.834C422.751 333.663 413.633 335.95 408.754 336.844C410.714 345.577 412.247 354.482 413.092 363.142Z" fill="white"/>
<path d="M400.331 379.164C400.536 379.041 401.905 378.156 401.913 375.712C401.913 375.663 401.815 373.728 401.618 370.768C390.909 364.978 380.995 355.491 373.746 343.47C356.461 346.455 336.363 349.111 319.536 350.924C318.552 352.531 317.47 354.064 316.289 355.524C332.705 383.166 369.081 387.627 400.339 379.164H400.331Z" fill="white"/>
<path d="M400.208 355.778C399.56 350.497 398.691 345.159 397.567 341.165L397.535 341.059V340.936C397.502 340.624 397.297 339.591 396.739 339.214C396.633 339.14 396.329 338.918 395.567 339.123C392.615 339.829 389.351 340.526 385.891 341.214C389.712 346.741 394.558 351.686 400.2 355.778H400.208Z" fill="white"/>
<path d="M113.839 369.742C113.699 369.792 113.593 369.816 113.453 369.865C116.438 369.422 120.079 368.963 122.522 368.898C126.024 368.824 130.993 369.562 135.757 372.522C136.413 372.137 137.086 371.727 137.578 371.407L139.587 373.088C139.103 373.408 138.512 373.744 137.955 374.072C138.512 374.515 139.07 374.958 139.611 375.474C139.611 375.474 139.488 375.564 139.447 375.597C139.833 375.335 141.038 374.482 142.719 373.137C136.225 368.512 126.991 365.118 113.839 369.751V369.742Z" fill="white"/>
<path d="M233.511 300.879C236.693 302.97 240.26 305.454 240.399 310.104C240.538 314.876 236.397 320.46 235.044 322.264C233.306 324.585 227.812 331.096 220.67 326.561C220.67 326.561 210.321 320.14 203.023 315.778L197.816 323.486C207.435 325.134 233.585 329.628 255.7 333.416C254.446 324.191 251.428 315.753 249.583 308.406C252.806 315.319 256.094 324.167 257.98 333.81C259.628 334.097 261.243 334.376 262.826 334.646C262.318 332.137 261.785 329.866 261.358 327.93C260.489 323.945 256.938 315.434 253.798 305.077C249.181 302.379 244.565 298.853 240.022 293.925C239.956 293.868 232.289 286.57 225.631 279.911C222.236 285.397 220.047 288.948 218.685 291.153L233.519 300.879H233.511Z" fill="#FF3C00"/>
<path d="M273.886 232.434C282.414 227.833 289.613 225.341 301.151 223.619C301.093 223.627 304.513 223.151 304.513 223.151C306.809 222.807 311.196 221.905 312.45 219.617C313.155 218.33 313.369 216.567 313.287 214.517C298.904 217.526 283.89 221.126 270.884 226.407C266.44 228.014 262.906 230.285 259.445 232.516C260.503 234.754 261.758 237.436 263.185 240.47C266.079 237.706 268.933 235.623 271.262 234.147C271.729 233.762 273.894 232.434 273.894 232.434H273.886Z" fill="#FF3C00"/>
<path d="M232.321 268.965C237.085 274.147 244.055 281.732 249.598 287.234C248.401 279.461 248.122 271.474 249.729 264.086C250.754 259.395 252.419 255.303 254.42 251.72L249.672 241.372C248.573 243.028 246.999 245.431 245.49 247.809C245.49 247.8 239.078 258.026 232.312 268.965H232.321Z" fill="#FF3C00"/>
<path d="M251.345 223.061C256.692 218.691 264.244 215.968 264.244 215.968C274.322 211.745 292.263 206.915 310.598 203.242C309.327 199.576 305.236 187.801 305.236 187.801C305.031 187.293 302.21 181.52 304.432 178.051C305.4 176.559 307.236 175.714 309.516 175.731C309.524 175.731 309.409 175.796 315.846 176.034L316.133 175.919C316.183 175.895 316.256 175.846 316.256 175.846L323.284 172.475C324.94 171.983 326.941 171.491 326.941 171.491C331.508 171.245 334.001 174.025 335.321 176.403L336.092 176.461C333.099 170.565 331.385 168.687 329.393 165.358C241.8 40.5702 20.9498 117.716 64.5164 292.064C74.258 327.472 85.6396 346.258 98.0052 363.872C98.0052 363.872 98.284 372.408 112.199 367.947C125.492 363.683 134.831 363.97 147.656 373.99C164.712 387.299 190.977 395.212 214.47 393.482C234.863 391.891 253.223 383.027 261.612 364.019C261.628 363.978 261.636 363.945 261.653 363.913C261.89 363.363 262.087 362.765 262.309 362.191C264.047 357.074 264.531 351.891 264.375 347.004C262.702 346.725 260.964 346.43 259.16 346.119C257.881 368.086 236.06 389.177 197.094 386.741C180.792 386.135 163.392 378.205 153.011 372.555C148.247 369.357 134.774 361.822 128.321 360.387C133.946 360.69 147.968 368.045 153.864 371.424C165.934 377.648 182.777 383.601 197.11 384.199C223.145 386.643 252.69 373.334 255.97 345.577C229.919 341.166 194.568 335.18 189.96 334.393C188.943 335.106 187.68 335.491 186.27 335.393C183.63 335.221 181.079 333.589 180.054 331.449C179.292 329.842 179.464 328.144 180.53 326.644C180.514 326.668 192.928 308.153 192.928 308.153L193.461 307.103C192.92 304.307 194.208 301.855 194.806 301.265C195.815 300.248 201.456 290.982 202.768 288.382C202.908 288.095 204.408 285.832 207.336 285.586C208.623 283.544 211.797 278.477 217.217 269.686C216.79 267.226 217.922 264.84 219.669 263.479C220.218 263.053 220.759 262.823 221.309 262.577C227.942 251.843 235.38 240.076 237.454 237.001C239.832 233.738 241.669 231.581 243.801 229.137C244.67 228.145 246.712 226.546 247.212 226.161C248.205 224.89 249.59 223.898 251.066 223.471C251.083 223.348 251.157 223.217 251.353 223.053L251.345 223.061ZM221.981 341.24C226.261 341.248 229.738 344.733 229.722 349.03C229.705 352.228 227.762 354.958 224.99 356.139C224.064 357.123 222.776 357.738 221.341 357.738C219.341 357.738 217.651 356.516 216.831 354.794C215.216 353.367 214.183 351.301 214.191 348.972C214.199 344.692 217.692 341.231 221.973 341.24H221.981ZM160.875 365.758C159.727 366.709 158.16 367.045 156.545 366.889C154.798 367.89 152.199 367.348 150.297 365.348C148.493 363.445 148.042 360.969 148.935 359.271C148.566 356.524 149.321 353.794 151.264 352.433C154.2 350.358 158.661 351.629 161.219 355.262C163.777 358.894 163.646 363.437 160.875 365.758ZM199.128 344.889C186.106 358.665 160.301 358.566 145.639 339.78C170.452 362.789 193.593 347.586 199.128 344.889ZM175.651 328.685C174.06 329.21 172.363 329.481 170.616 329.464C165.803 329.432 161.006 327.275 157.447 323.552C150.477 316.246 150.026 304.987 156.438 298.444C159.325 295.508 163.261 293.901 167.5 293.934C172.314 293.967 177.111 296.115 180.669 299.846C184.261 303.61 186.122 308.423 186.204 313.097L175.651 328.677V328.685Z" fill="#FF3C00"/>
<path d="M261.145 365.183C260.874 365.757 260.596 366.331 260.309 366.881C260.596 366.315 260.899 365.749 261.145 365.183Z" fill="#311D00"/>
<path d="M214.47 393.473C190.977 395.203 164.712 387.299 147.656 373.982C134.823 363.961 125.491 363.683 112.199 367.938C98.2838 372.399 98.005 363.863 98.005 363.863C85.6394 346.249 74.2578 327.471 64.5162 292.056C20.9496 117.715 241.8 40.5698 329.401 165.349C331.393 168.678 333.107 170.556 336.1 176.452L339.208 176.698C257.2 30.5822 5.00063 111.639 65.7134 305.167C69.9938 318.796 75.2828 330.661 80.2848 340.214C80.416 339.665 80.539 339.197 80.6046 338.91C80.6046 338.91 81.1294 340.419 82.1544 342.764C82.1708 342.699 82.1708 342.609 82.1954 342.543C82.1954 342.543 87.55 352.752 95.4056 363.535C96.2338 364.396 97.0866 365.241 97.9886 366.028C98.128 367.906 98.62 369.16 99.5056 369.956C100.211 370.407 100.982 370.767 101.834 370.972C101.851 370.972 101.867 370.981 101.884 370.989C102.171 371.054 102.507 371.03 102.81 371.071C104.278 371.161 106.082 371.013 108.353 370.661C108.353 370.661 110.617 370.259 113.47 369.841C113.61 369.8 113.716 369.767 113.856 369.718C127.008 365.085 136.242 368.48 142.736 373.104C143.572 373.703 144.376 374.31 145.122 374.933C180.743 402.698 238.996 404.896 260.496 372.014C259.537 371.817 258.586 371.604 257.692 371.325C248.254 385.363 232.157 392.145 214.478 393.44L214.47 393.473Z" fill="#311D00"/>
<path d="M259.579 368.308C259.366 368.693 259.112 369.037 258.891 369.415C259.112 369.046 259.374 368.685 259.579 368.308Z" fill="#311D00"/>
<path d="M255.68 333.417C256.45 333.556 257.197 333.679 257.959 333.81C256.073 324.167 252.785 315.311 249.562 308.407C251.408 315.754 254.425 324.192 255.68 333.417Z" fill="#311D00"/>
<path d="M197.094 384.207C182.761 383.608 165.918 377.655 153.848 371.431C147.96 368.045 133.93 360.698 128.305 360.394C134.766 361.829 148.231 369.365 152.995 372.563C163.376 378.213 180.777 386.142 197.078 386.749C236.045 389.176 257.865 368.094 259.144 346.126C258.094 345.954 257.028 345.765 255.946 345.593C252.666 373.358 223.121 386.659 197.086 384.215L197.094 384.207Z" fill="#311D00"/>
<path d="M167.497 293.95C163.258 293.917 159.322 295.524 156.435 298.46C150.023 305.003 150.474 316.254 157.444 323.568C161.003 327.291 165.8 329.447 170.613 329.48C172.368 329.488 174.057 329.218 175.648 328.701L186.201 313.121C186.119 308.447 184.258 303.634 180.666 299.87C177.107 296.139 172.319 293.991 167.497 293.958V293.95Z" fill="#311D00"/>
<path d="M145.629 339.788C160.291 358.574 186.096 358.673 199.118 344.897C193.583 347.594 170.442 362.805 145.629 339.788Z" fill="#311D00"/>
<path d="M216.84 354.794C216.512 354.105 216.29 353.359 216.29 352.547C216.29 349.686 218.57 347.373 221.374 347.381C224.179 347.39 226.434 349.71 226.425 352.572C226.425 353.958 225.868 355.204 224.99 356.131C227.754 354.958 229.705 352.219 229.722 349.021C229.73 344.725 226.261 341.248 221.981 341.231C217.701 341.223 214.207 344.684 214.199 348.964C214.199 351.293 215.224 353.359 216.84 354.786V354.794ZM224.671 348.259C223.58 347.045 220.841 346.471 219.259 347.521C218.545 347.955 217.815 347.381 218.726 346.455C220.497 344.913 223.801 345.003 225.31 347.25C226.073 348.39 225.253 349.144 224.671 348.259ZM222.17 342.634C227.204 342.609 230.747 349.095 226.524 353.458C228.344 349.522 226.852 344.52 222.03 344.315C217.004 344.11 215.347 349.144 216.225 351.768C214.527 350.186 215.109 342.658 222.17 342.634Z" fill="#311D00"/>
<path d="M221.373 347.381C218.569 347.373 216.289 349.677 216.289 352.547C216.289 353.359 216.51 354.105 216.838 354.794C217.658 356.516 219.348 357.729 221.348 357.737C222.783 357.737 224.071 357.122 224.997 356.138C225.875 355.212 226.432 353.965 226.432 352.58C226.441 349.718 224.186 347.397 221.381 347.389L221.373 347.381ZM221.316 356.827C218.987 356.827 217.093 354.917 217.093 352.555C217.093 350.193 218.987 348.283 221.316 348.283C223.644 348.283 225.547 350.193 225.547 352.555C225.547 354.917 223.653 356.827 221.316 356.827Z" fill="#311D00"/>
<path d="M218.72 346.454C217.818 347.373 218.548 347.955 219.253 347.52C220.836 346.471 223.575 347.045 224.665 348.258C225.247 349.144 226.067 348.389 225.305 347.25C223.788 345.003 220.491 344.921 218.72 346.454Z" fill="white"/>
<path d="M222.031 344.314C226.852 344.519 228.345 349.521 226.524 353.457C230.747 349.094 227.205 342.608 222.17 342.633C215.11 342.657 214.528 350.185 216.225 351.768C215.348 349.144 217.004 344.109 222.031 344.314Z" fill="white"/>
<path d="M225.548 352.555C225.548 350.194 223.654 348.283 221.317 348.283C218.98 348.283 217.094 350.194 217.094 352.555C217.094 354.917 218.988 356.828 221.317 356.828C223.646 356.828 225.548 354.917 225.548 352.555ZM217.906 352.523C217.906 350.661 219.423 349.136 221.284 349.136C223.145 349.136 224.654 350.653 224.654 352.523C224.654 354.392 223.145 355.893 221.284 355.893C219.423 355.893 217.906 354.384 217.906 352.523Z" fill="white"/>
<path d="M224.663 352.522C224.663 350.661 223.154 349.136 221.292 349.136C219.431 349.136 217.914 350.653 217.914 352.522C217.914 354.392 219.431 355.893 221.292 355.893C223.154 355.893 224.663 354.384 224.663 352.522ZM218.791 352.629C218.89 352.203 219.078 352.424 219.177 352.736C220.095 354.203 222.654 354.31 223.441 353.178C223.834 352.604 223.826 353.392 223.826 353.392C222.219 356.565 218.545 354.564 218.791 352.621V352.629Z" fill="#311D00"/>
<path d="M223.828 353.4C223.828 353.4 223.836 352.604 223.442 353.187C222.663 354.318 220.097 354.204 219.178 352.744C219.08 352.432 218.891 352.211 218.793 352.637C218.547 354.581 222.221 356.582 223.828 353.408V353.4Z" fill="white"/>
<path d="M151.263 352.432C149.32 353.793 148.565 356.524 148.934 359.271C149.098 358.959 149.213 358.631 149.476 358.385C151.157 356.794 154.248 357.319 156.38 359.574C158.52 361.821 158.889 364.929 157.2 366.528C157.011 366.708 156.757 366.757 156.544 366.889C158.159 367.053 159.726 366.716 160.874 365.757C163.653 363.436 163.776 358.894 161.218 355.261C158.66 351.628 154.199 350.357 151.263 352.432ZM157.758 360.107C157.241 359.008 155.576 357.606 154.642 357.418C153.707 357.237 154.059 355.712 155.191 356.106C156.241 356.466 157.872 357.844 158.274 358.5C159.307 360.206 158.2 361.058 157.758 360.107ZM159.029 365.421C164.211 358.689 154.125 350.833 150.148 357.081C153.469 346.897 166.851 359.673 159.029 365.421Z" fill="#311D00"/>
<path d="M156.381 359.583C154.249 357.328 151.158 356.795 149.477 358.394C149.222 358.64 149.099 358.968 148.935 359.279C148.042 360.977 148.484 363.453 150.297 365.355C152.199 367.348 154.798 367.897 156.545 366.897C156.758 366.774 157.012 366.717 157.201 366.536C158.882 364.945 158.513 361.829 156.381 359.583ZM150.797 364.749C148.985 362.838 148.673 360.198 150.1 358.836C151.527 357.483 154.151 357.934 155.963 359.845C157.775 361.756 158.087 364.388 156.66 365.741C155.233 367.094 152.609 366.651 150.797 364.74V364.749Z" fill="#311D00"/>
<path d="M155.191 356.106C154.06 355.712 153.707 357.237 154.642 357.418C155.577 357.598 157.241 359.008 157.758 360.107C158.201 361.058 159.308 360.206 158.275 358.5C157.873 357.836 156.241 356.458 155.191 356.106Z" fill="white"/>
<path d="M150.148 357.09C154.125 350.841 164.211 358.697 159.029 365.429C166.852 359.681 153.469 346.905 150.148 357.09Z" fill="white"/>
<path d="M155.954 359.837C154.142 357.926 151.518 357.475 150.091 358.828C148.664 360.181 148.976 362.83 150.788 364.74C152.6 366.651 155.224 367.094 156.651 365.741C158.078 364.388 157.766 361.747 155.954 359.845V359.837ZM155.896 365.323C154.707 366.2 152.715 365.487 151.239 364.125C149.656 362.682 149.525 360.435 150.624 359.386C151.837 358.213 154.002 358.951 155.306 360.435C156.364 361.641 157.266 364.298 155.905 365.314L155.896 365.323Z" fill="white"/>
<path d="M150.624 359.394C149.525 360.443 149.656 362.69 151.239 364.133C152.715 365.486 154.707 366.208 155.896 365.331C157.266 364.314 156.356 361.657 155.298 360.452C153.994 358.967 151.829 358.229 150.616 359.402L150.624 359.394ZM154.896 364.748C152.469 364.978 150.296 362.026 151.19 360.714C151.19 360.714 151.854 359.812 151.977 360.657C152.182 362.1 153.715 363.617 155.158 363.994C155.511 364.084 155.618 364.609 154.896 364.74V364.748Z" fill="#311D00"/>
<path d="M151.976 360.665C151.853 359.821 151.189 360.723 151.189 360.723C150.287 362.035 152.46 364.987 154.895 364.757C155.625 364.626 155.51 364.093 155.158 364.011C153.714 363.634 152.181 362.117 151.976 360.673V360.665Z" fill="white"/>
<path d="M137.958 374.072C131.136 378.131 119.18 382.706 107.643 383.797C95.072 385.822 88.0856 377.016 90.5128 370.283C90.5128 370.283 90.5128 370.292 89.8158 368.602C89.1352 366.93 80.558 349.406 82.1406 342.772C81.1238 340.427 80.5908 338.918 80.5908 338.918C80.5252 339.197 80.4022 339.673 80.271 340.222C79.8282 342.125 79.2624 345.462 80.2136 349.611C81.8618 355.802 83.2312 359.607 88.225 370.595C86.216 378.032 93.1778 388.988 110.053 385.724C129.717 382.944 138.606 376.245 139.434 375.589C139.475 375.556 139.598 375.466 139.598 375.466C139.057 374.949 138.499 374.506 137.942 374.064L137.958 374.072Z" fill="#311D00"/>
<path d="M99.4906 369.972C98.605 369.177 98.1212 367.922 97.9736 366.045C97.0716 365.257 96.2188 364.413 95.3906 363.552C95.6366 363.888 95.8662 364.224 96.1122 364.56C96.555 367.193 97.7932 368.915 99.4824 369.981L99.4906 369.972Z" fill="#311D00"/>
<path d="M101.816 370.997C101.816 370.997 101.849 371.005 101.866 371.013C101.849 371.013 101.833 371.005 101.816 370.997Z" fill="#311D00"/>
<path d="M107.121 371.046C104.087 377.253 92.1884 373.916 94.4844 365.847C92.7788 363.74 88.6624 357.073 88.6624 357.073C88.4738 357.106 88.851 359.049 88.8264 358.926C90.2122 361.813 92.6312 366.782 92.6312 366.782C90.7698 378.516 107.629 379.394 108.818 370.775C109.794 370.595 109.769 370.734 110.384 370.431C109.654 373.932 107.973 375.851 105.989 376.86C102.381 378.68 101.323 381.878 106.801 381.501C112.377 381.099 122.225 379.246 133.73 373.678C133.73 373.678 134.705 373.129 135.747 372.514C130.983 369.562 126.022 368.816 122.512 368.889C120.068 368.947 116.428 369.414 113.443 369.857C110.589 370.283 108.326 370.677 108.326 370.677C106.055 371.021 104.251 371.177 102.783 371.087C103.488 371.194 104.185 371.317 104.948 371.284C105.481 371.218 106.686 371.136 107.121 371.038V371.046Z" fill="#311D00"/>
<path d="M89.8202 368.602C90.5172 370.292 90.5172 370.283 90.5172 370.283C88.09 377.016 95.0764 385.822 107.647 383.797C119.176 382.698 131.14 378.123 137.962 374.072C138.52 373.744 139.11 373.408 139.594 373.088L137.585 371.407C137.093 371.735 136.421 372.137 135.765 372.522C134.723 373.137 133.748 373.686 133.748 373.686C122.243 379.246 112.403 381.107 106.819 381.509C101.333 381.886 102.399 378.688 106.007 376.868C107.991 375.859 109.664 373.941 110.402 370.439C109.787 370.743 109.812 370.603 108.836 370.784C107.647 379.402 90.7878 378.524 92.6492 366.79C92.6492 366.79 90.222 361.821 88.8444 358.935C88.869 359.058 88.4918 357.114 88.6804 357.081C88.6804 357.081 92.7968 363.748 94.5024 365.855C92.2064 373.924 104.105 377.253 107.139 371.054C106.696 371.153 105.499 371.235 104.966 371.3C104.203 371.325 103.506 371.202 102.801 371.103C102.497 371.062 102.161 371.087 101.874 371.021C101.858 371.021 101.841 371.013 101.825 371.005C100.972 370.8 100.201 370.439 99.4962 369.988C97.807 368.922 96.5606 367.2 96.126 364.568C95.88 364.232 95.6504 363.896 95.4044 363.559C87.5488 352.776 82.1942 342.567 82.1942 342.567C82.1778 342.641 82.1696 342.723 82.1532 342.789C80.5624 349.423 89.1478 366.938 89.8284 368.619L89.8202 368.602Z" fill="white"/>
<path d="M264.274 367.602L263.003 367.438C266.381 360.46 267.217 353.236 267.168 347.479C266.258 347.324 265.331 347.168 264.372 347.004C264.528 351.891 264.044 357.065 262.306 362.19C262.117 362.764 261.871 363.338 261.65 363.912C261.633 363.945 261.625 363.978 261.609 364.019C261.453 364.413 261.313 364.798 261.141 365.191C260.895 365.757 260.592 366.323 260.305 366.889C260.067 367.365 259.846 367.84 259.575 368.316C259.37 368.693 259.108 369.054 258.886 369.423C258.484 370.071 258.099 370.718 257.656 371.358C257.664 371.358 257.673 371.358 257.681 371.358C258.566 371.637 259.526 371.85 260.485 372.047C269.071 373.818 279.763 372.383 279.763 372.383C290.965 371.653 299.976 368.644 307.012 363.97C306.126 362.584 305.224 361.223 304.454 359.755C295.475 365.847 282.51 369.095 264.282 367.61L264.274 367.602Z" fill="#311D00"/>
<path d="M319.575 338.648C321.387 338.476 323.142 338.279 324.921 338.09C326.004 334.097 326.676 329.89 326.947 325.536L326.725 325.495L325.881 325.356L325.807 324.503C325.241 318.943 325.077 315.754 325.315 315.032L325.627 314.122L326.57 314.286L326.832 314.335C326.75 313.285 326.619 312.219 326.488 311.162C324.774 311.342 323.085 311.522 321.412 311.695C322.502 320.805 322.15 330.202 319.559 338.656L319.575 338.648Z" fill="#311D00"/>
<path d="M314.893 353.228C315.32 354.039 315.82 354.753 316.279 355.524C317.468 354.064 318.542 352.531 319.526 350.923C318.091 351.079 316.673 351.227 315.295 351.366C315.295 351.366 314.614 351.571 313.434 351.809L314.893 353.219V353.228Z" fill="#311D00"/>
<path d="M255.896 292.835C261.776 297.295 267.934 299.772 276.978 300.895L257.093 257.558C252.911 269.005 253.592 281.018 255.896 292.835Z" fill="#311D00"/>
<path d="M249.599 287.242C250.649 288.284 251.666 289.268 252.584 290.129C250.313 278.345 250.222 265.963 255.823 254.778L254.421 251.728C252.42 255.311 250.755 259.403 249.73 264.094C248.123 271.482 248.394 279.469 249.599 287.242Z" fill="#311D00"/>
<path d="M262.817 334.646C264.285 334.892 265.711 335.147 267.105 335.384C274.469 330.85 280.217 322.592 283.325 314.729L282.489 312.916C282.382 312.916 282.275 312.9 282.169 312.892C275.1 312.498 267.368 311.375 259.471 307.98C261.472 315.573 263.522 322.937 264.654 329.808C263.251 323.921 260.029 315.926 257.085 306.906C255.986 306.365 254.896 305.725 253.797 305.077C256.929 315.434 260.48 323.945 261.357 327.931C261.784 329.866 262.317 332.145 262.825 334.646H262.817Z" fill="#311D00"/>
<path d="M284.504 286.373C286.874 291.531 289.227 296.672 291.499 301.65C292.163 301.65 292.622 301.65 292.638 301.65C299.945 301.601 309.309 300.969 319.272 300.026C318.083 295.336 316.599 290.891 314.918 286.906C306.751 267.612 285.193 275.065 284.512 286.373H284.504Z" fill="white"/>
<path d="M267.102 335.376C280.64 337.705 290.636 339.419 290.636 339.419C292.21 339.648 293.588 339.82 294.9 339.96L283.321 314.72C280.213 322.592 274.465 330.841 267.102 335.376Z" fill="white"/>
<path d="M308.202 339.607C312.065 339.328 315.845 339.009 319.576 338.656C322.167 330.194 322.52 320.796 321.429 311.694C312.778 312.564 304.709 313.252 298.174 313.662C298.149 313.662 297.657 313.654 296.895 313.621C301.831 324.716 305.792 334.089 308.104 339.656C308.145 339.632 308.211 339.607 308.211 339.607H308.202Z" fill="white"/>
<path d="M263.008 367.446L264.279 367.61C282.499 369.094 295.472 365.839 304.451 359.754C303.311 357.614 302.269 355.392 301.359 353.088L300.843 352.366C300.687 352.358 300.547 352.358 300.392 352.342C296.685 352.112 287.321 351.128 284.074 350.349C284.074 350.349 277.186 349.185 267.173 347.487C267.231 353.244 266.386 360.468 263.008 367.446Z" fill="white"/>
<path d="M325.587 240.199C313.812 241.634 310.532 271.105 317.207 278.468C314.763 267.177 317.346 246.193 325.587 240.199Z" fill="white"/>
<path d="M259.472 307.972C258.677 307.628 257.881 307.292 257.086 306.906C260.038 315.926 263.261 323.913 264.655 329.809C263.523 322.929 261.473 315.574 259.472 307.98V307.972Z" fill="white"/>
<path d="M252.584 290.121C253.691 291.105 254.789 291.99 255.896 292.827C253.6 281.01 252.912 268.997 257.094 257.55L255.814 254.762C250.214 265.955 250.304 278.337 252.575 290.112L252.584 290.121Z" fill="white"/>
<path d="M277.838 233.393C273.057 235.5 269.269 238.838 269.269 238.838C267.481 240.215 265.882 241.65 264.406 243.11C264.562 243.438 264.726 243.791 264.882 244.127C267.03 241.798 271.212 237.624 277.838 233.393Z" fill="white"/>
<path d="M318.922 201.658C318.996 201.642 319.078 201.634 319.152 201.617C318.799 200.797 318.012 198.903 317.02 196.23L318.93 201.658H318.922Z" fill="#311D00"/>
<path d="M350.751 210.597L350.177 210.547C352.359 218.928 351.801 230.236 340.452 232.761C346.192 230.252 341.371 228.53 340.92 228.333C328.726 225.521 308.431 229.268 306.209 227.735C319.206 226.48 320.198 220.018 319.14 213.319C318.468 213.458 317.796 213.59 317.107 213.729C318.329 220.74 315.434 223.389 311.531 224.848C305.578 226.865 301.289 226.923 301.1 226.898L297.222 226.759C298.903 226.193 302.232 226.054 306.307 225.209C312.548 223.922 316.156 221.166 315.737 214.016C314.917 214.188 314.122 214.336 313.294 214.508C313.376 216.558 313.163 218.329 312.457 219.608C311.203 221.896 306.816 222.798 304.52 223.143C304.52 223.143 301.1 223.618 301.158 223.61C289.62 225.332 282.421 227.833 273.893 232.425C273.893 232.425 271.728 233.753 271.261 234.139C268.932 235.615 266.078 237.698 263.184 240.461C263.585 241.322 263.987 242.183 264.414 243.093C265.898 241.625 267.489 240.199 269.276 238.821C269.276 238.821 273.065 235.484 277.845 233.376C271.22 237.607 267.038 241.781 264.889 244.11C270.301 255.664 277.46 271.039 284.504 286.356C285.184 275.057 306.742 267.603 314.909 286.889C316.59 290.866 318.083 295.319 319.263 300.009C320.977 299.845 322.716 299.673 324.454 299.493C323.872 297.074 323.199 294.663 322.429 292.252C321.256 287.349 320.362 280.608 320.305 273.4C320.133 273.187 319.936 272.99 319.764 272.769C319.337 263.921 321.076 256.656 321.076 256.656C321.313 257.017 321.576 257.337 321.822 257.689C323.126 251.457 325.315 245.57 328.972 241.002C329.112 240.797 329.226 240.658 329.366 240.477C329.226 240.166 329.136 239.944 329.136 239.944C330.719 237.919 331.613 235.877 336 235.164C336.18 235.131 336.336 235.09 336.524 235.065C339.591 234.664 338.804 234.59 340.059 234.664L340.231 235.074C340.288 235.065 340.395 235.057 340.428 235.049C346.176 234.016 349.751 230.883 351.957 226.906C353.375 224.323 353.736 220.855 353.761 217.952C353.638 217.739 355.917 216.87 356.475 216.533C354.4 215.631 352.506 213.852 350.751 210.605V210.597ZM317.205 278.468C310.539 271.104 313.81 241.625 325.586 240.199C317.345 246.193 314.762 267.185 317.205 278.468Z" fill="#311D00"/>
<path d="M328.36 216.64L338.906 216.501C344.301 215.574 346.712 213.27 347.409 210.244L347.155 210.203C345.884 215.673 339.832 216.115 338.34 216.312C336.224 216.591 330.747 216.591 327.098 216.312C324.613 216.124 323.449 213.934 322.948 212.54C322.899 212.548 322.85 212.565 322.801 212.565C324.621 216.927 328.369 216.632 328.369 216.632L328.36 216.64Z" fill="#311D00"/>
<path d="M314.305 188.531L315.363 191.54C314.83 189.933 314.281 188.227 313.739 186.382C312.846 183.439 312.977 181.225 313.485 179.601C311.976 183.808 314.305 188.523 314.305 188.523V188.531Z" fill="#311D00"/>
<path d="M336.099 176.46L335.328 176.403C336.279 178.125 336.64 179.642 336.64 179.642L344.955 198.969H345.144C342.413 192.352 336.501 178.838 336.501 178.838L339.732 179.117C341.65 184.037 344.455 192.442 346.603 199.051L346.923 199.068C345.931 196.05 340.265 178.65 340.265 178.65L339.937 177.666L340.748 176.985L341.068 176.846L339.199 176.698L336.091 176.452L336.099 176.46Z" fill="#311D00"/>
<path d="M315.727 214.016C316.145 221.167 312.537 223.922 306.297 225.209C302.221 226.054 298.892 226.193 297.211 226.759L301.09 226.899C301.286 226.923 305.567 226.866 311.52 224.849C315.431 223.397 318.326 220.74 317.096 213.729C316.637 213.82 316.186 213.91 315.718 214.008L315.727 214.016Z" fill="white"/>
<path d="M307.558 184.045C307.156 182.774 306.574 180.347 307.279 178.231C307.279 178.231 304.614 180.347 307.001 186.005L313.06 202.758C313.487 202.676 313.913 202.594 314.34 202.512C313.995 201.503 313.618 200.462 313.183 199.355C310.994 193.77 308.345 186.513 307.566 184.045H307.558Z" fill="white"/>
<path d="M347.4 210.244C346.703 213.27 344.293 215.574 338.897 216.501L328.352 216.64C328.352 216.64 324.604 216.935 322.784 212.573C321.587 212.819 320.349 213.073 319.127 213.319C320.176 220.019 319.192 226.48 306.195 227.735C308.418 229.268 328.713 225.521 340.906 228.333C341.357 228.522 346.179 230.252 340.439 232.761C351.787 230.244 352.345 218.928 350.164 210.548L348.352 210.384L347.384 210.244H347.4Z" fill="white"/>
<path d="M339.731 179.117L336.5 178.838C336.5 178.838 342.412 192.352 345.143 198.986L346.602 199.06C344.454 192.459 341.658 184.054 339.731 179.125V179.117Z" fill="white"/>
<path d="M315.365 191.54L314.307 188.531C314.307 188.531 311.978 183.816 313.487 179.609C313.668 179.052 313.881 178.56 314.127 178.142C314.02 178.125 312.438 177.912 311.355 178.002C309.674 178.142 308.1 178.215 309.248 182.209C310.092 185.169 310.412 185.866 311.068 187.695C311.864 189.884 314.43 196.493 316.3 202.118C317.177 201.954 318.038 201.815 318.916 201.659L317.005 196.231C316.488 194.853 315.931 193.287 315.357 191.54H315.365Z" fill="white"/>
<path d="M313.288 214.516C314.116 214.344 314.903 214.188 315.731 214.024C316.199 213.926 316.65 213.836 317.109 213.745C317.789 213.606 318.462 213.467 319.142 213.335C320.356 213.089 321.594 212.835 322.8 212.589C322.849 212.589 322.898 212.573 322.947 212.565C322.709 211.909 322.611 211.408 322.611 211.408C330.335 210.424 330.754 208.038 330.754 208.038C333 203.405 327.949 201.577 327.949 201.577C325.563 200.593 319.38 202.142 319.38 202.142C319.38 202.142 319.29 201.937 319.167 201.642C319.093 201.659 319.019 201.667 318.937 201.683C318.06 201.839 317.199 201.978 316.322 202.142C315.666 202.265 315.001 202.405 314.345 202.536C313.919 202.618 313.493 202.708 313.066 202.782C312.246 202.938 311.434 203.094 310.614 203.266C292.279 206.939 274.338 211.769 264.26 215.992C264.26 215.992 256.708 218.715 251.361 223.085C251.164 223.249 251.091 223.38 251.074 223.503C251.632 223.339 252.198 223.257 252.739 223.257C254.157 223.282 255.289 223.922 255.912 225.045C256.027 225.275 257.347 228.063 259.446 232.532C262.907 230.301 266.441 228.022 270.885 226.423C283.899 221.142 298.905 217.542 313.288 214.533V214.516ZM258.651 230.203C258.651 230.203 256.962 226.742 256.503 225.635C255.699 223.692 255.191 223.758 254.412 223.315C256.855 221.667 260.455 219.977 264.744 218.182C277.208 212.966 303.029 206.308 325.358 202.708C327.744 202.372 329.72 204.012 329.966 205.726C330.196 207.251 329.417 209.03 326.498 209.49L325.128 209.76C307.269 213.335 287.007 217.386 270.082 224.258C264.76 226.177 261.636 227.931 258.651 230.203Z" fill="#311D00"/>
<path d="M246.384 234.205L245.941 233.253C245.974 233.327 245.974 233.385 246.015 233.458C246.114 233.655 246.245 233.918 246.384 234.205Z" fill="#311D00"/>
<path d="M245.713 232.564C245.68 231.794 245.647 230.875 245.737 229.916C245.77 229.875 245.795 229.858 245.729 229.94C245.729 229.94 245.286 231.039 245.713 232.564Z" fill="#311D00"/>
<path d="M237.454 237.009C235.38 240.084 227.942 251.851 221.309 262.585C223.711 261.527 226.056 262.085 227.582 263.864C228.475 264.782 230.189 266.652 232.313 268.964C239.078 258.034 245.49 247.8 245.49 247.808C246.999 245.43 248.574 243.028 249.672 241.371L248.721 239.297C248.221 239.994 245.466 243.61 243.58 246.562L230.968 267.095L227.598 263.388C227.598 263.388 225.827 261.88 224.277 262.019C231.099 250.957 237.176 241.404 239.283 238.247C241.226 235.057 245.228 230.465 245.736 229.916C245.843 228.883 246.089 227.809 246.655 226.866C246.802 226.62 247.016 226.406 247.196 226.177C246.696 226.562 244.662 228.161 243.785 229.153C241.661 231.597 239.816 233.754 237.438 237.017L237.454 237.009Z" fill="#311D00"/>
<path d="M427.187 293.86L426.071 291.195C423.751 285.152 419.544 284.02 412.919 284.84L407.162 285.471C395.584 286.505 376.97 288.407 361.406 285.783L364.965 294.311C371.304 293.335 376.74 292.417 380.529 291.671L381.595 291.31C381.964 290.482 382.726 289.785 383.825 289.284C385.949 288.317 389.442 288.104 392.107 289.891L392.214 290.104C395.42 289.424 399.667 288.596 409.958 287.152C411.074 287.177 411.992 287.472 412.82 287.866C413.616 287.743 414.19 287.685 414.19 287.685C416.207 288.03 417.06 289.211 417.322 290.851C417.396 291.343 417.634 292.892 416.404 293.917C416.313 295.082 415.903 296.164 415.092 296.935C415.092 296.935 414.911 297.001 414.632 297.091C416.305 301.133 418.757 308.817 419.429 311.629L421.012 318.132C421.963 317.911 422.931 317.689 423.841 317.443H423.866C423.595 317.419 423.398 317.32 423.103 317.328C420.487 305.52 416.781 296.386 416.781 296.386C421.561 292.876 419.831 287.439 416.6 286.455C416.6 286.455 422.496 285.201 425.219 295.402C435.1 323.093 442.775 361.034 440.585 374.146C440.585 372.457 437.961 369.316 433.46 368.39C433.46 368.39 433.558 366.651 433.419 364.536C432.287 353.113 428.171 332.318 428.171 332.318C432.369 330.957 433.468 324.881 430.672 320.895C431.246 321.838 431.656 322.872 431.844 323.913C432.451 327.218 431.295 331.334 427.269 332.531C427.17 332.556 426.67 332.687 426.022 332.851L426.285 334.253C427.99 343.462 430.565 357.361 431.541 365.897C431.59 366.75 431.5 367.414 431.377 368.004C434.747 368.685 439.724 370.407 440.708 374.942L440.733 375.032V375.122C440.741 375.302 441.414 378.279 439.036 380.493C443.857 376.721 443.636 368.447 443.619 368.029C441.832 343.773 436.379 319.575 427.187 293.885V293.86ZM381.381 291.351C376.33 292.622 364.94 293.876 364.94 293.876L362.554 288.399C374.772 290.08 383.628 289.104 383.628 289.104C381.521 289.383 381.381 291.351 381.381 291.351ZM392.345 289.801C390.795 288.546 389.253 288.546 389.253 288.546C392.919 288.842 404.284 287.702 404.284 287.702C401.553 288.473 392.345 289.809 392.345 289.809V289.801Z" fill="#311D00"/>
<path d="M321.825 257.689C321.579 257.337 321.325 257.017 321.079 256.656C321.079 256.656 319.34 263.921 319.767 272.769C319.939 272.991 320.136 273.187 320.308 273.401C329.033 284.159 340.832 292.056 352.854 296.033C352.468 295.122 352.091 294.212 351.697 293.302C333.305 287.259 320.25 269.916 320.25 269.916C320.341 264.438 321.161 260.502 321.161 260.502C333.042 276.869 346.113 283.208 347.753 283.954C347.36 283.027 346.966 282.101 346.581 281.182C345.564 280.658 344.596 280.084 343.973 279.542C339.832 276.992 329.918 269.342 321.825 257.681V257.689Z" fill="#311D00"/>
<path d="M397.249 300.108C397.364 300.37 397.462 300.674 397.577 300.936C408.762 298.902 413.362 297.517 414.641 297.074C414.92 296.984 415.101 296.918 415.101 296.918C415.912 296.139 416.322 295.057 416.413 293.9C416.117 294.138 415.83 294.376 415.347 294.532C414.133 295.196 411.944 295.68 411.944 295.68C409.41 296.295 406.54 297.033 402.563 297.787C399.709 298.32 396.847 298.927 397.085 298.788C396.478 297.467 395.798 295.327 394.035 291.924C399.48 290.916 405.138 289.677 410.074 288.423C410.968 288.177 412.017 287.98 412.829 287.857C412.001 287.463 411.074 287.168 409.967 287.144C399.685 288.595 395.437 289.423 392.223 290.096L397.241 300.108H397.249Z" fill="#311D00"/>
<path d="M376.412 321.723L369.623 305.462C369.016 305.561 368.385 305.667 367.77 305.758C370.033 311.481 372.435 317.213 374.338 321.682C375.002 321.69 375.674 321.707 376.412 321.723Z" fill="#311D00"/>
<path d="M401.621 370.775C401.564 370.005 401.507 369.168 401.441 368.266C386.181 360.386 376.234 343.297 376.234 343.297C377.784 343.018 383.827 341.887 383.827 341.887C390.043 351.202 399.129 357.59 400.547 358.557C400.441 357.639 400.334 356.712 400.219 355.778C394.578 351.686 389.723 346.741 385.91 341.214C382.089 341.977 378.014 342.731 373.758 343.469C381.007 355.491 390.92 364.978 401.63 370.767L401.621 370.775Z" fill="#311D00"/>
<path d="M365.874 321.182C363.324 315.155 360.552 308.48 359.929 306.963C359.167 307.078 358.404 307.185 357.625 307.3C359.683 312.162 361.602 316.705 363.308 320.731L365.874 321.182Z" fill="#311D00"/>
<path d="M336.537 235.057C336.34 235.082 336.192 235.123 336.012 235.156C331.617 235.869 330.731 237.919 329.148 239.936C329.148 239.936 329.239 240.158 329.378 240.469C330.706 243.602 338.291 261.543 346.598 281.182C346.992 282.101 347.377 283.027 347.771 283.954C347.885 284.011 347.943 284.036 347.943 284.036L351.739 293.31C351.739 293.31 351.723 293.31 351.715 293.31C352.108 294.22 352.486 295.131 352.871 296.041C352.871 296.041 352.871 296.049 352.879 296.057C357.168 295.467 361.219 294.876 364.974 294.294L361.415 285.766L340.251 235.057L340.079 234.647C338.824 234.574 339.612 234.647 336.545 235.049L336.537 235.057ZM362.875 294.343C359.423 294.958 355.282 295.426 355.282 295.426L330.952 238.428C333.568 235.582 337.816 235.492 337.816 235.492C339.407 238.723 362.867 294.343 362.867 294.343H362.875Z" fill="#311D00"/>
<path d="M440.729 375.097V375.006L440.704 374.916C439.72 370.382 434.743 368.651 431.373 367.979C429.782 367.667 428.511 367.561 428.24 367.544C423.033 366.724 417.933 365.207 413.078 363.133C413.488 367.38 413.71 371.53 413.784 375.589C414.53 375.785 415.268 376.064 416.014 376.22C415.35 376.343 414.538 376.466 413.767 376.589C413.792 379.27 413.816 381.96 413.677 384.502C413.57 386.413 412.832 388.044 411.586 389.16C432.824 384.338 436.432 382.583 437.736 381.386C438.244 381.099 438.662 380.787 439.023 380.451C441.401 378.245 440.729 375.261 440.721 375.08L440.729 375.097ZM413.603 386.724C414.3 383.633 414.169 378.713 414.169 378.713C439.04 373.375 415.424 371.12 415.424 371.12C420.901 372.809 420.77 374.777 420.77 374.777C418.376 374.916 414.169 373.662 414.169 373.662C414.3 372.112 413.89 365.79 413.89 365.79C420.352 368.602 421.385 367.799 428.076 369.299C434.964 370.849 431.586 373.662 431.586 373.662C428.076 378.008 415.145 379.844 415.145 379.844C436.793 377.032 434.817 371.128 434.817 371.128C443.681 376.901 434.956 380.968 430.471 382.231C426.494 383.346 413.603 386.732 413.603 386.732V386.724Z" fill="#311D00"/>
<path d="M376.414 321.723C375.668 321.715 375.003 321.698 374.339 321.682C376.43 326.577 377.923 329.947 377.923 329.947C376.652 330.513 370.329 331.35 370.329 331.35C369.755 330.259 367.886 325.921 365.877 321.182L363.31 320.731L326.853 314.326L326.591 314.277L325.648 314.113L325.336 315.023C325.098 315.737 325.262 318.927 325.828 324.494L325.902 325.347L326.746 325.487L326.968 325.528L366.582 332.211C373.585 331.022 380.473 329.783 387.271 328.562L392.207 327.676C393.322 327.274 393.65 326.003 393.15 324.478C393.142 324.445 392.756 323.281 392.182 321.542C386.205 321.78 380.727 321.788 376.43 321.723H376.414ZM367.328 330.316L327.009 323.625C327.378 319.689 327.189 316.319 327.189 316.319L364.376 323.109C365.081 325.126 367.328 330.316 367.328 330.316ZM392.633 323.765C393.749 327.561 390.797 327.364 390.797 327.364L379.981 329.619L377.299 323.707C386.713 323.847 392.625 323.765 392.625 323.765H392.633Z" fill="#311D00"/>
<path d="M408.752 336.836C413.631 335.942 422.749 333.662 426.029 332.826C426.677 332.662 427.177 332.531 427.275 332.506C431.302 331.301 432.458 327.192 431.851 323.888C431.662 322.846 431.252 321.813 430.678 320.87C429.342 318.976 427.12 317.598 423.872 317.418H423.848C422.938 317.672 421.97 317.885 421.019 318.115C415.877 319.312 410.244 320.14 404.586 320.698C406.144 325.905 407.522 331.333 408.76 336.844L408.752 336.836ZM429.67 323.347C429.67 323.347 431.359 328.455 427.005 330.276C427.005 330.276 423.774 331.916 408.875 334.581C408.875 334.581 407.661 329.948 407.095 327.561C407.095 327.561 419.699 324.937 424.619 323.101C424.619 323.101 424.52 321.461 422.085 321.51C422.085 321.51 409.301 324.741 406.349 325.019L405.644 323.06C405.644 323.06 416.607 320.952 420.264 320.108C420.264 320.108 427.997 317.443 429.678 323.338L429.67 323.347Z" fill="#311D00"/>
<path d="M413.698 384.51C413.837 381.96 413.812 379.279 413.788 376.597C413.788 376.253 413.804 375.933 413.796 375.597C413.722 371.538 413.501 367.397 413.091 363.141C412.246 354.482 410.713 345.569 408.753 336.844C407.523 331.333 406.137 325.913 404.579 320.698C402.455 313.605 400.086 306.922 397.568 300.936C397.462 300.674 397.355 300.37 397.24 300.108L392.222 290.096L392.115 289.882C389.45 288.095 385.957 288.308 383.833 289.276C382.726 289.776 381.964 290.481 381.603 291.301L380.537 291.662C376.748 292.408 371.312 293.326 364.973 294.302C361.218 294.884 357.167 295.475 352.878 296.065C343.883 297.312 334.026 298.525 324.465 299.517C322.719 299.698 320.988 299.87 319.275 300.034C309.32 300.969 299.955 301.608 292.641 301.658C292.625 301.658 292.165 301.658 291.501 301.658C289.23 296.672 286.885 291.539 284.507 286.381C277.463 271.063 270.296 255.688 264.892 244.135C264.736 243.798 264.572 243.438 264.417 243.118C263.99 242.199 263.588 241.347 263.187 240.486C261.768 237.452 260.505 234.77 259.447 232.532C257.34 228.063 256.028 225.275 255.913 225.045C255.282 223.913 254.158 223.274 252.74 223.257C252.19 223.257 251.633 223.339 251.075 223.503C249.607 223.93 248.213 224.922 247.221 226.193C247.041 226.423 246.828 226.636 246.68 226.882C246.114 227.825 245.86 228.899 245.762 229.932C245.762 229.94 245.778 229.916 245.762 229.932C245.671 230.892 245.704 231.81 245.737 232.581C245.803 232.802 245.852 233.024 245.967 233.261L246.409 234.213C247.287 236.008 248.82 239.198 248.82 239.198C248.853 239.165 248.82 239.206 248.755 239.305L249.706 241.379L254.454 251.728L255.856 254.778L257.135 257.566L277.02 300.903C267.984 299.788 261.825 297.312 255.938 292.843C254.831 292.006 253.732 291.121 252.625 290.137C251.707 289.284 250.69 288.292 249.64 287.25C244.089 281.74 237.119 274.163 232.363 268.981C230.239 266.668 228.525 264.799 227.631 263.88C226.106 262.101 223.761 261.543 221.358 262.601C220.809 262.847 220.26 263.077 219.718 263.503C217.964 264.864 216.84 267.25 217.267 269.71C217.431 269.448 217.578 269.21 217.75 268.931C217.75 268.931 217.677 270.424 220.202 273.097C222.736 275.778 226.139 279.173 226.139 279.173C225.967 279.452 225.836 279.657 225.672 279.936C232.33 286.586 239.997 293.884 240.063 293.95C244.597 298.87 249.222 302.404 253.839 305.102C254.937 305.749 256.036 306.389 257.127 306.93C257.922 307.324 258.718 307.652 259.513 307.996C267.41 311.399 275.142 312.514 282.211 312.908C282.317 312.908 282.424 312.924 282.53 312.933L283.367 314.745L294.945 339.984C293.633 339.845 292.247 339.673 290.681 339.443C290.681 339.443 280.685 337.729 267.147 335.401C265.753 335.163 264.318 334.909 262.859 334.663C261.276 334.392 259.661 334.113 258.012 333.826C257.25 333.695 256.504 333.572 255.733 333.433C233.617 329.636 207.468 325.151 197.849 323.502L196.455 325.561C202.605 326.618 286.942 341.091 286.95 341.1C300.792 343.158 308.344 341.895 308.508 341.862C338.02 339.747 363.276 335.204 387.687 330.8L392.738 329.89L392.812 329.866L392.886 329.841C394.723 329.562 395.977 331.424 395.977 331.424C396.691 330.235 395.01 323.347 395.01 323.347C394.952 323.199 390.533 309.193 388.319 303.617L388.351 303.724C388.286 303.511 387.138 301.01 385.014 300.592C385.014 300.592 385.309 298.82 384.743 297.697C384.743 297.697 384.465 300.378 381.923 300.936C359.504 305.438 321.997 310.054 299.119 311.424C299.021 311.432 289.328 311.358 281.973 310.85C269.542 310.153 255.372 307.25 241.653 292.367C241.498 292.228 226.319 277.771 220.21 271.08C218.685 268.923 219.497 266.529 221.096 265.266C222.228 264.38 224.745 263.544 226.016 265.004C228.681 268.579 243.154 283.79 250.591 291.563C259.005 298.123 265.999 301.403 277.733 302.871C283.711 303.634 292.338 303.724 292.707 303.716C319.898 303.371 362.513 296.984 380.069 293.859C382.177 293.581 384.137 295.516 384.137 295.516L383.554 293.039L383.645 292.334C383.677 292.096 384.629 291.334 385.424 290.965C386.949 290.284 388.991 290.26 390.68 291.645C402.505 313.433 413.345 354.58 411.484 384.42C411.377 386.044 410.68 387.356 409.434 387.995C409.434 387.995 406.096 390.414 403.423 386.191C403.423 386.191 404.095 388.036 401.143 389.012C382.948 393.694 363.456 393.965 347.023 389.627C332.124 385.691 314.502 377.065 304.72 355.4C307.114 352.17 311.837 352.129 311.837 352.129C327.032 384.642 365.801 390.324 399.356 381.747C399.356 381.747 401.701 381.288 402.857 382.961C403.841 381.001 403.907 374.531 403.907 374.531C403.866 373.588 403.472 353.941 399.774 340.616C399.733 340.148 398.905 337.787 397.511 337.36C397.511 337.36 396.904 333.482 396.814 334.195C396.42 337.401 392.378 337.631 392.378 337.631C371.689 342.551 339.684 346.635 314.404 349.185C314.363 349.193 312.444 349.488 309.016 349.644L306.294 349.71C301.489 349.767 293.863 349.751 286.13 348.102C286.13 348.102 196.947 333.49 196.906 333.474C195.553 333.031 195.151 331.358 195.151 331.358C194.717 330.079 194.93 328.488 195.25 327.266L191.371 333.006C191.002 333.572 190.51 334.015 189.969 334.392C194.577 335.171 229.927 341.157 255.979 345.577C257.061 345.757 258.127 345.938 259.177 346.11C260.981 346.421 262.719 346.708 264.392 346.995C265.351 347.159 266.278 347.315 267.188 347.471C277.2 349.16 284.088 350.333 284.088 350.333C287.344 351.112 296.7 352.104 300.406 352.325C300.562 352.342 300.702 352.342 300.857 352.35L301.374 353.072C302.284 355.376 303.326 357.598 304.465 359.738C305.244 361.206 306.146 362.567 307.024 363.953C315.65 377.475 329.123 387.233 346.441 391.8C364.375 396.54 384.735 396.072 404.333 390.324C406.678 391.53 408.917 390.792 410.459 389.988C410.893 389.758 411.27 389.471 411.615 389.16C412.869 388.045 413.599 386.413 413.706 384.502L413.698 384.51ZM294.297 313.777L305.72 339.591C305.72 339.591 302.629 340.288 297.29 339.87C295.888 336.803 294.224 332.85 286.893 316.828C289.377 312.892 294.297 313.777 294.297 313.777ZM298.176 313.646C304.711 313.236 312.78 312.547 321.431 311.678C323.104 311.506 324.793 311.334 326.507 311.145C336.798 310.046 347.638 308.718 357.626 307.291C358.405 307.176 359.168 307.07 359.93 306.955C359.84 306.75 359.791 306.61 359.791 306.61C361.111 306.446 367.663 305.479 367.663 305.479C367.696 305.569 367.737 305.659 367.769 305.741C368.384 305.643 369.016 305.544 369.623 305.446C374.575 304.626 379.094 303.79 382.907 302.97C382.907 302.97 384.612 302.674 385.17 303.093C386.105 303.798 386.146 304.298 386.154 304.298V304.355L386.187 304.413C387.777 308.406 390.656 317 392.156 321.534C392.738 323.273 393.116 324.437 393.124 324.47C393.624 325.995 393.296 327.266 392.181 327.668L387.244 328.554C380.447 329.775 373.559 331.014 366.556 332.203C353.354 334.449 339.627 336.524 324.916 338.082C323.137 338.271 321.382 338.467 319.57 338.64C315.847 338.992 312.059 339.32 308.196 339.591C308.196 339.591 308.131 339.615 308.09 339.64C305.777 334.072 301.825 324.7 296.88 313.605C297.643 313.63 298.135 313.646 298.16 313.646H298.176ZM248.008 232.212C247.303 230.523 247.869 229.12 248.591 227.907C249.542 226.3 251.42 225.373 252.691 225.389C253.593 225.398 253.855 225.865 253.896 225.931L288.992 301.354C288.992 301.354 283.842 301.617 280.144 300.846C265.548 268.931 248.033 232.253 248.008 232.212ZM319.537 350.923C336.372 349.119 356.462 346.454 373.747 343.469C378.003 342.731 382.078 341.977 385.9 341.214C389.352 340.526 392.615 339.829 395.576 339.123C396.338 338.918 396.642 339.132 396.748 339.214C397.298 339.591 397.511 340.624 397.527 340.936V341.059L397.568 341.165C398.7 345.159 399.561 350.497 400.209 355.778C400.323 356.712 400.43 357.639 400.537 358.557C400.66 358.639 400.824 358.754 400.824 358.754C401.094 361.28 401.521 368.307 401.521 368.307C401.496 368.291 401.463 368.274 401.439 368.266C401.512 369.168 401.57 370.005 401.619 370.775C401.816 373.736 401.914 375.671 401.914 375.72C401.906 378.164 400.537 379.049 400.332 379.172C369.073 387.635 332.698 383.174 316.282 355.532C315.822 354.761 315.322 354.039 314.896 353.236L313.436 351.825C314.617 351.587 315.298 351.382 315.298 351.382C316.683 351.243 318.102 351.087 319.529 350.94L319.537 350.923Z" fill="#311D00"/>
<path d="M198.276 312.998C195.111 311.21 193.848 309.078 193.462 307.119L192.929 308.168C192.929 308.168 180.515 326.684 180.531 326.659C179.465 328.16 179.293 329.857 180.055 331.464C181.072 333.613 183.631 335.236 186.271 335.409C187.681 335.499 188.936 335.122 189.961 334.408C190.494 334.031 190.986 333.596 191.363 333.022L195.242 327.282C195.545 326.159 195.947 325.355 196.037 325.47C196.037 325.47 196.193 325.495 196.423 325.536L197.817 323.478L203.024 315.77C201.179 314.671 199.522 313.695 198.284 312.99L198.276 312.998ZM189.625 331.628C188.805 332.899 187.501 333.08 186.558 333.014C184.754 332.891 182.884 331.743 182.228 330.349C181.818 329.496 181.917 328.635 182.524 327.791L194.332 309.767C195.07 311.202 200.998 314.753 200.998 314.753C198.514 318.426 189.641 331.62 189.633 331.628H189.625Z" fill="#311D00"/>
<path d="M216.652 317.91C216.652 317.91 216.906 318.64 217.439 319.632V319.616C217.923 320.493 218.702 321.305 219.595 321.838C226.106 325.709 229.706 320.772 229.739 320.731C229.763 320.69 232.732 316.82 228.394 312.564C228.287 312.466 225.639 310.112 222.039 310.555C221.662 309.071 219.776 304.881 214.38 305.069H214.306C209.977 305.373 208.976 307.718 208.476 309.063C208.476 309.063 207.369 312.023 209.001 314.581C209.026 314.622 211.125 318.763 216.652 317.91ZM222.342 311.662C227.221 311.514 231.018 316.377 228.574 319.944L227.697 320.083C223.449 320.633 221.063 318.952 220.35 315.18C221.014 314.704 222.088 313.392 222.342 311.654V311.662ZM216.676 306.471C219.087 307.234 220.85 309.358 220.719 311.539L220.998 311.572C220.801 313.146 219.128 315.295 215.733 314.77C215.553 314.089 215.536 313.4 215.495 312.638C216.053 312.835 216.676 312.941 217.34 312.908C217.316 312.605 217.414 311.933 217.414 311.933C216.734 311.875 216.143 311.654 215.487 311.367C215.545 309.522 215.93 307.857 216.676 306.48V306.471ZM211.035 307.505C212.133 306.603 212.994 306.193 214.626 306.283C213.929 307.357 213.675 308.948 213.577 310.596C213.24 310.325 212.978 310.293 212.642 309.948V311.121C212.847 311.498 213.183 311.621 213.618 311.916C213.634 312.949 213.675 313.728 213.864 314.425C213.65 314.335 213.519 314.155 213.281 314.048C209.903 312.154 211.026 307.521 211.026 307.521L211.035 307.505ZM209.796 309.005C209.239 316.033 215.651 317.049 219.251 315.729C220.046 321.412 224.983 321.568 227.377 321.182C224.376 323.076 218.603 321.797 217.537 316.451C213.003 317.837 207.878 314.171 209.796 308.997V309.005Z" fill="#311D00"/>
<path d="M198.276 312.999C199.514 313.696 201.171 314.671 203.016 315.778C210.314 320.141 220.662 326.561 220.662 326.561C227.804 331.096 233.298 324.585 235.037 322.265C236.39 320.461 240.539 314.876 240.391 310.104C240.252 305.455 236.685 302.97 233.503 300.879L218.669 291.154C218.497 291.433 218.276 291.785 218.128 292.023L216.127 290.973L214.889 292.933C213.684 293.901 211.117 292.909 209.518 291.375C209.157 291.031 207.394 289.219 208.452 287.956L208.51 287.89L208.551 287.825C208.583 287.775 208.715 287.562 208.928 287.193L206.96 286.16C207.05 286.012 207.189 285.799 207.321 285.586C204.393 285.832 202.893 288.095 202.753 288.382C201.449 290.982 195.8 300.248 194.791 301.264C194.192 301.855 192.905 304.315 193.446 307.103C193.832 309.063 195.094 311.195 198.26 312.982L198.276 312.999ZM218.038 293.204C223.737 296.869 231.24 301.781 234.471 304.233C240.285 308.644 237.152 313.942 237.152 313.942C237.734 310.752 236.299 307.578 232.577 305.077C229.346 302.913 216.701 294.491 216.701 294.491L218.038 293.204ZM205.623 288.636C205.377 292.892 211.921 296.312 215.012 295.467L231.56 306.537C234.036 308.325 236.48 311.375 235.028 315.491C234.823 311.629 230.018 308.587 230.018 308.587C230.018 308.587 212.232 298.124 206.779 294.704C203.663 292.753 203.967 290.039 205.623 288.628V288.636ZM197.349 301.838C200.621 297.23 202.22 294.598 202.925 293.368C203.622 294.918 205.804 296.189 205.804 296.189C211.306 299.624 222.876 306.635 226.205 308.472C229.78 310.465 230.51 311.424 230.51 311.424C234.668 315.36 233.88 319.272 231.847 322.01C229.551 325.102 225.147 327.062 221.466 324.61L216.472 321.551V321.527L214.668 320.444L199.162 310.932L199.112 310.899L199.071 310.875C199.071 310.875 196.488 309.686 195.841 307.283C195.406 305.692 195.914 303.847 197.349 301.83V301.838Z" fill="#311D00"/>
<path d="M206.965 286.168L208.933 287.201C209.769 285.832 212.188 281.838 218.092 272.269C220.339 275.368 223.939 278.616 223.939 278.616L216.124 290.981L218.125 292.031C218.273 291.793 218.486 291.44 218.666 291.162C220.027 288.956 222.217 285.405 225.612 279.919C225.784 279.649 225.907 279.444 226.079 279.157C226.079 279.157 222.676 275.762 220.142 273.081C217.617 270.416 217.69 268.915 217.69 268.915C217.518 269.194 217.379 269.423 217.207 269.694C211.778 278.493 208.605 283.552 207.326 285.594C207.194 285.807 207.055 286.02 206.965 286.168Z" fill="#311D00"/>
<path d="M339.938 177.666L340.265 178.65C340.265 178.65 345.94 196.042 346.924 199.068L347.408 199.092C352.779 199.601 359.823 200.634 362.274 201.454L362.069 201.396C364.915 201.806 366.415 204.89 366.194 207.514C366.112 208.424 365.759 209.35 365.21 210.179C367.793 207.407 366.842 202.077 363.062 200.986C359.691 200.011 357.723 200.011 356.879 199.871L346.76 177.108L352.656 174.574L367.137 201.134C375.403 214.246 360.077 218.994 354.214 210.974C354.214 210.974 355.263 210.949 356.83 211.163C355.575 210.884 353.853 210.654 351.549 210.671L350.762 210.597C352.516 213.844 354.41 215.623 356.485 216.525C358.322 217.321 360.282 217.477 362.414 217.329C366.711 217.05 370.171 214.516 371.672 210.474C371.729 210.31 373.008 206.407 369.515 200.576L353.574 171.589L352.721 171.934L341.085 176.854L340.766 176.993L339.954 177.674L339.938 177.666ZM344.94 177.805L354.493 199.732C353.082 199.453 349.425 199.027 349.425 199.027L342.266 178.928L344.931 177.797L344.94 177.805Z" fill="#311D00"/>
<path d="M347.143 210.211L347.397 210.252L348.365 210.392L350.177 210.556L350.751 210.605L351.538 210.679C353.842 210.662 355.564 210.892 356.819 211.171C357.688 211.294 358.664 211.474 359.82 211.827C362.37 212.171 364.084 211.4 365.199 210.203C365.749 209.375 366.101 208.448 366.183 207.538C366.413 204.914 364.904 201.831 362.059 201.421L362.264 201.478C359.812 200.65 352.76 199.625 347.397 199.117L346.913 199.092L346.593 199.076L345.134 199.002H344.945L345.634 200.593C347.397 204.89 347.66 207.981 347.143 210.228V210.211ZM361.829 203.168L361.928 203.2L362.034 203.225C363.494 203.43 364.363 205.332 364.223 206.899C364.15 207.751 363.641 209.678 360.73 209.678C358.803 209.104 352.481 208.17 347.684 208.12C347.684 205.16 345.872 200.954 345.872 200.954C349.775 201.331 359.763 202.479 361.821 203.176L361.829 203.168Z" fill="#311D00"/>
<path d="M327.619 175.705C327.619 175.705 325.2 176.271 326.348 180.486C326.348 180.486 326.553 180.994 326.717 181.437C327.34 182.659 328.062 184.242 330.005 185.964C330.005 185.964 329.907 187.653 330.399 189.703L330.473 189.949C330.948 191.54 331.375 192.778 332.547 194.123C335.352 197.353 338.509 195.533 337.631 191.63C336.861 188.194 335.344 186.915 333.835 185.406C334.114 179.297 330.333 174.91 327.619 175.714V175.705ZM334.04 193.663C332.351 191.982 331.49 190.129 331.317 187.456C333.966 188.005 335.598 191.302 334.04 193.663ZM330.514 184.611C329.079 183.7 327.275 180.207 327.226 178.034C330.579 178.075 331.539 182.954 330.514 184.611Z" fill="#311D00"/>
<path d="M329.583 173.885C327.845 173.172 323.605 173.574 324.663 178.469C324.663 178.469 324.762 179.002 325.041 179.642L325.893 181.749L329.198 189.752L329.296 190.031L334.782 202.831C334.782 202.831 336.053 206.488 336.053 207.472H345.401C345.401 207.472 345.221 205.078 343.105 199.74C341.514 195.705 336.045 183.225 334.93 180.634C333.659 177.682 331.978 174.877 329.583 173.885ZM333.831 185.406C335.34 186.915 336.857 188.194 337.627 191.63C338.505 195.533 335.348 197.354 332.544 194.123C331.371 192.778 330.953 191.54 330.469 189.949L330.395 189.703C329.903 187.661 330.001 185.964 330.001 185.964C328.058 184.242 327.336 182.659 326.713 181.437C326.549 180.995 326.344 180.486 326.344 180.486C325.196 176.271 327.615 175.706 327.615 175.706C330.329 174.902 334.11 179.297 333.831 185.398V185.406Z" fill="white"/>
<path d="M327.23 178.035C327.271 180.208 329.084 183.701 330.519 184.611C331.552 182.955 330.584 178.076 327.23 178.035Z" fill="white"/>
<path d="M331.32 187.457C331.493 190.138 332.353 191.983 334.043 193.664C335.601 191.302 333.969 188.006 331.32 187.457Z" fill="white"/>
<path d="M332.944 203.717C332.042 201.372 325.08 185.308 323.391 181.38C322.35 178.953 322.219 177.321 322.276 176.436C322.309 175.878 322.407 175.895 322.407 175.895L319.455 177.444C317.348 180.109 320.16 187.137 320.16 187.137C320.16 187.137 322.268 193.738 324.941 200.347C331.96 198.518 338.094 211.253 324.605 212.385C325.827 217.534 337.446 215.378 332.944 203.717Z" fill="white"/>
<path d="M320.483 201.192L323.009 200.716L318.195 187.276C318.195 187.276 316.137 182.594 317.392 178.371L315.243 179.404C315.243 179.404 313.874 182.028 315.375 186.571C317.351 192.549 320.483 201.192 320.483 201.192Z" fill="white"/>
<path d="M333.406 214.672C342.779 215.337 344.411 211.31 344.411 211.31C341.418 211.253 335.801 211.253 335.801 211.253C335.661 213.09 333.406 214.672 333.406 214.672Z" fill="white"/>
<path d="M224.278 262.019C225.828 261.88 227.599 263.389 227.599 263.389L230.969 267.095L243.581 246.562C245.458 243.61 248.214 239.994 248.722 239.297C248.796 239.199 248.82 239.158 248.788 239.19C248.788 239.19 247.262 235.992 246.377 234.205C246.237 233.918 246.106 233.647 246.008 233.459C245.967 233.385 245.967 233.319 245.934 233.254C245.827 233.008 245.77 232.794 245.704 232.573C245.278 231.048 245.721 229.949 245.721 229.949C245.786 229.867 245.762 229.892 245.729 229.924C245.221 230.474 241.219 235.074 239.276 238.256C237.16 241.413 231.084 250.966 224.27 262.027L224.278 262.019Z" fill="white"/>
<path d="M389.254 288.546C389.254 288.546 390.795 288.546 392.345 289.8C392.345 289.8 401.554 288.464 404.284 287.693C404.284 287.693 392.919 288.833 389.254 288.537V288.546Z" fill="white"/>
<path d="M327.184 316.319C327.184 316.319 327.365 319.69 327.004 323.626L367.323 330.317C367.323 330.317 365.077 325.126 364.371 323.109L327.184 316.319Z" fill="white"/>
<path d="M379.978 329.628L390.794 327.373C390.794 327.373 393.746 327.57 392.63 323.773C392.63 323.773 386.718 323.863 377.305 323.716L379.986 329.628H379.978Z" fill="white"/>
<path d="M330.961 238.436L355.29 295.434C355.29 295.434 359.431 294.966 362.884 294.351C362.884 294.351 339.423 238.731 337.833 235.5C337.833 235.5 333.585 235.598 330.969 238.436H330.961Z" fill="white"/>
<path d="M370.326 331.35C370.326 331.35 376.648 330.514 377.919 329.948C377.919 329.948 376.427 326.578 374.336 321.682C372.433 317.213 370.031 311.482 367.768 305.758C367.727 305.668 367.694 305.578 367.661 305.496C367.661 305.496 361.109 306.463 359.789 306.627C359.789 306.627 359.846 306.767 359.928 306.972C360.56 308.489 363.323 315.163 365.873 321.19C367.882 325.93 369.752 330.268 370.326 331.358V331.35Z" fill="white"/>
<path d="M383.816 341.895C383.816 341.895 377.772 343.027 376.223 343.305C376.223 343.305 386.169 360.386 401.429 368.274C401.454 368.283 401.487 368.299 401.511 368.315C401.511 368.315 401.085 361.288 400.814 358.762C400.814 358.762 400.65 358.648 400.527 358.566C399.109 357.598 390.023 351.21 383.808 341.895H383.816Z" fill="white"/>
<path d="M434.819 371.12C434.819 371.12 436.795 377.032 415.147 379.837C415.147 379.837 428.07 378 431.588 373.654C431.588 373.654 434.958 370.841 428.078 369.291C421.387 367.783 420.354 368.586 413.892 365.782C413.892 365.782 414.302 372.104 414.171 373.654C414.171 373.654 418.378 374.908 420.772 374.769C420.772 374.769 420.903 372.809 415.426 371.112C415.426 371.112 439.034 373.367 414.171 378.705C414.171 378.705 414.302 383.625 413.605 386.716C413.605 386.716 426.488 383.33 430.473 382.215C434.966 380.944 443.683 376.876 434.819 371.112V371.12Z" fill="white"/>
<path d="M305.71 339.591L294.287 313.778C294.287 313.778 289.367 312.892 286.883 316.828C294.214 332.859 295.886 336.803 297.28 339.87C302.619 340.28 305.71 339.591 305.71 339.591Z" fill="white"/>
<path d="M288.992 301.363L253.896 225.939C253.855 225.874 253.593 225.406 252.691 225.398C251.42 225.373 249.542 226.308 248.591 227.915C247.861 229.129 247.303 230.531 248.008 232.22C248.033 232.261 265.548 268.94 280.144 300.854C283.842 301.625 288.992 301.363 288.992 301.363Z" fill="white"/>
<path d="M195.221 327.283C194.893 328.497 194.688 330.096 195.123 331.375C195.123 331.375 195.524 333.048 196.877 333.49C196.918 333.515 286.102 348.119 286.102 348.119C293.834 349.767 301.46 349.776 306.265 349.726L308.988 349.661C312.415 349.513 314.334 349.218 314.375 349.202C339.656 346.651 371.66 342.576 392.349 337.648C392.349 337.648 396.392 337.418 396.785 334.212C396.875 333.499 397.482 337.377 397.482 337.377C398.884 337.804 399.704 340.165 399.745 340.633C403.444 353.949 403.837 373.605 403.878 374.548C403.878 374.548 403.813 381.009 402.829 382.977C401.664 381.305 399.327 381.764 399.327 381.764C365.773 390.341 327.003 384.658 311.809 352.145C311.809 352.145 307.094 352.186 304.691 355.417C314.474 377.082 332.095 385.708 346.995 389.644C363.428 393.982 382.911 393.711 401.115 389.029C404.067 388.053 403.394 386.208 403.394 386.208C406.059 390.423 409.405 388.012 409.405 388.012C410.651 387.373 411.348 386.061 411.455 384.437C413.316 354.589 402.476 313.45 390.652 291.662C388.962 290.276 386.921 290.293 385.395 290.982C384.608 291.351 383.649 292.113 383.616 292.351L383.526 293.056L384.108 295.533C384.108 295.533 382.148 293.589 380.041 293.876C362.485 297 319.861 303.388 292.678 303.733C292.309 303.741 283.674 303.642 277.705 302.888C265.971 301.412 258.976 298.14 250.563 291.58C243.125 283.807 228.652 268.596 225.987 265.02C224.716 263.553 222.199 264.389 221.067 265.283C219.46 266.537 218.648 268.94 220.182 271.097C226.291 277.788 241.477 292.244 241.625 292.384C255.343 307.267 269.521 310.17 281.944 310.867C289.3 311.375 298.992 311.449 299.09 311.441C321.96 310.071 359.475 305.455 381.894 300.953C384.428 300.387 384.715 297.714 384.715 297.714C385.281 298.845 384.985 300.608 384.985 300.608C387.109 301.035 388.257 303.528 388.323 303.741L388.29 303.634C390.504 309.21 394.924 323.208 394.981 323.363C394.981 323.363 396.662 330.251 395.949 331.44C395.949 331.44 394.694 329.579 392.857 329.858L392.784 329.882L392.71 329.907L387.659 330.817C363.247 335.221 337.991 339.763 308.479 341.879C308.315 341.912 300.755 343.183 286.922 341.116C286.913 341.108 202.568 326.635 196.426 325.577C196.197 325.536 196.041 325.512 196.041 325.512C195.951 325.397 195.549 326.201 195.246 327.324L195.221 327.283Z" fill="white"/>
<path d="M199.061 310.883L199.102 310.908L199.151 310.94L214.657 320.452L216.47 321.535V321.559L221.455 324.618C225.137 327.07 229.54 325.102 231.836 322.019C233.878 319.288 234.657 315.368 230.5 311.432C230.5 311.432 229.77 310.481 226.195 308.48C222.866 306.635 211.295 299.633 205.793 296.197C205.793 296.197 203.612 294.926 202.915 293.376C202.21 294.598 200.619 297.238 197.339 301.847C195.904 303.864 195.396 305.709 195.83 307.3C196.478 309.694 199.036 310.875 199.061 310.891V310.883ZM208.475 309.063C208.975 307.718 209.975 305.373 214.305 305.086H214.346L214.387 305.077C219.791 304.897 221.677 309.079 222.046 310.563C225.645 310.12 228.294 312.474 228.401 312.572C232.738 316.828 229.77 320.698 229.745 320.739C229.713 320.78 226.113 325.717 219.602 321.846C218.716 321.313 217.929 320.502 217.454 319.624V319.641C216.912 318.648 216.658 317.919 216.658 317.919C211.131 318.771 209.032 314.63 209.008 314.589C207.376 312.031 208.483 309.071 208.483 309.071L208.475 309.063Z" fill="white"/>
<path d="M237.142 313.941C237.142 313.941 240.275 308.652 234.461 304.233C231.23 301.781 223.727 296.869 218.028 293.204L216.691 294.491C216.691 294.491 229.328 302.904 232.567 305.077C236.289 307.57 237.733 310.752 237.142 313.941Z" fill="white"/>
<path d="M206.777 294.72C212.23 298.14 230.016 308.603 230.016 308.603C230.016 308.603 234.821 311.653 235.026 315.507C236.478 311.383 234.026 308.341 231.558 306.553L215.01 295.483C211.919 296.328 205.383 292.9 205.621 288.652C203.973 290.063 203.661 292.777 206.777 294.729V294.72Z" fill="white"/>
<path d="M227.707 320.092L228.584 319.952C231.028 316.385 227.231 311.514 222.352 311.67C222.106 313.409 221.024 314.721 220.359 315.196C221.073 318.968 223.459 320.649 227.707 320.1V320.092Z" fill="white"/>
<path d="M217.545 316.451C218.611 321.797 224.376 323.077 227.385 321.182C224.991 321.56 220.046 321.412 219.259 315.729C215.667 317.05 209.247 316.033 209.804 309.005C207.886 314.18 213.011 317.845 217.545 316.459V316.451Z" fill="white"/>
<path d="M394.031 291.916C395.786 295.319 396.475 297.459 397.082 298.779C396.844 298.919 399.706 298.312 402.559 297.779C406.536 297.033 409.406 296.295 411.94 295.672C411.94 295.672 414.129 295.18 415.343 294.524C415.827 294.368 416.114 294.13 416.409 293.892C417.647 292.875 417.401 291.326 417.327 290.825C417.065 289.185 416.212 288.005 414.195 287.66C414.195 287.66 413.621 287.726 412.826 287.841C412.014 287.964 410.964 288.152 410.07 288.406C405.134 289.661 399.476 290.899 394.031 291.908V291.916Z" fill="white"/>
<path d="M406.342 325.028C409.294 324.749 422.078 321.518 422.078 321.518C424.522 321.477 424.612 323.109 424.612 323.109C419.692 324.946 407.089 327.57 407.089 327.57C407.654 329.956 408.868 334.589 408.868 334.589C423.767 331.924 426.998 330.284 426.998 330.284C431.361 328.464 429.663 323.355 429.663 323.355C427.982 317.459 420.249 320.124 420.249 320.124C416.592 320.969 405.629 323.076 405.629 323.076L406.334 325.036L406.342 325.028Z" fill="white"/>
<path d="M430.673 320.87C433.469 324.855 432.37 330.931 428.172 332.293C428.172 332.293 432.296 353.096 433.42 364.51C433.559 366.626 433.461 368.364 433.461 368.364C437.963 369.299 440.587 372.432 440.587 374.121C442.776 361.009 435.101 323.059 425.22 295.376C422.497 285.167 416.602 286.43 416.602 286.43C419.832 287.414 421.571 292.851 416.782 296.36C416.782 296.36 420.488 305.495 423.104 317.303C423.391 317.303 423.596 317.401 423.867 317.418C427.106 317.598 429.336 318.968 430.673 320.87Z" fill="white"/>
<path d="M321.168 260.51C321.168 260.51 320.348 264.446 320.258 269.924C320.258 269.924 333.312 287.267 351.705 293.31C351.713 293.31 351.721 293.31 351.729 293.31L347.933 284.036C347.933 284.036 347.867 284.011 347.761 283.954C346.121 283.208 333.05 276.869 321.168 260.502V260.51Z" fill="white"/>
<path d="M362.555 288.407L364.941 293.884C364.941 293.884 376.331 292.63 381.382 291.359C381.382 291.359 381.521 289.399 383.629 289.112C383.629 289.112 374.781 290.088 362.555 288.407Z" fill="white"/>
<path d="M194.32 309.768L182.512 327.791C181.906 328.636 181.815 329.497 182.217 330.35C182.881 331.752 184.743 332.9 186.547 333.015C187.49 333.08 188.785 332.892 189.614 331.629C189.614 331.621 198.494 318.435 200.979 314.753C200.979 314.753 195.05 311.194 194.312 309.768H194.32Z" fill="white"/>
<path d="M325.127 209.761L326.496 209.49C329.416 209.031 330.195 207.26 329.965 205.726C329.719 204.013 327.743 202.372 325.357 202.709C303.028 206.308 277.206 212.967 264.742 218.182C260.445 219.97 256.846 221.659 254.41 223.315C255.189 223.758 255.698 223.693 256.501 225.636C256.96 226.743 258.65 230.203 258.65 230.203C261.634 227.94 264.759 226.177 270.08 224.258C287.005 217.387 307.267 213.336 325.127 209.761Z" fill="white"/>
<path d="M208.517 287.898L208.46 287.964C207.402 289.218 209.157 291.031 209.526 291.383C211.125 292.925 213.683 293.909 214.897 292.941L216.135 290.981L223.949 278.616C223.949 278.616 220.35 275.377 218.103 272.269C212.199 281.838 209.78 285.832 208.943 287.201C208.73 287.562 208.591 287.783 208.566 287.833L208.525 287.898H208.517Z" fill="white"/>
<path d="M347.699 208.112C352.496 208.169 358.818 209.096 360.745 209.67C363.648 209.67 364.164 207.751 364.238 206.89C364.377 205.316 363.508 203.422 362.049 203.217L361.942 203.192L361.844 203.159C359.785 202.462 349.798 201.314 345.895 200.937C345.895 200.937 347.707 205.144 347.707 208.104L347.699 208.112Z" fill="white"/>
<path d="M359.833 211.819C358.676 211.466 357.701 211.286 356.831 211.163C355.273 210.949 354.216 210.974 354.216 210.974C360.079 219.002 375.404 214.246 367.139 201.134L352.658 174.574L346.762 177.108L356.881 199.871C357.725 200.011 359.685 200.011 363.063 200.986C366.844 202.085 367.795 207.415 365.212 210.179C364.097 211.376 362.383 212.147 359.833 211.802V211.819Z" fill="white"/>
<path d="M354.495 199.74L344.942 177.813L342.277 178.945L349.436 199.043C349.436 199.043 353.093 199.469 354.504 199.748L354.495 199.74Z" fill="white"/>
<path d="M217.349 312.9C216.685 312.933 216.062 312.826 215.504 312.629C215.545 313.4 215.562 314.081 215.742 314.761C219.145 315.286 220.81 313.138 221.006 311.563L220.728 311.53C220.859 309.349 219.104 307.225 216.685 306.463C215.939 307.84 215.545 309.513 215.496 311.35C216.152 311.629 216.742 311.858 217.423 311.916C217.423 311.916 217.333 312.588 217.349 312.892V312.9Z" fill="white"/>
<path d="M213.298 314.031C213.527 314.138 213.658 314.327 213.88 314.409C213.691 313.712 213.65 312.933 213.634 311.899C213.199 311.604 212.863 311.489 212.65 311.104V309.931C212.986 310.276 213.248 310.309 213.584 310.579C213.675 308.931 213.937 307.34 214.634 306.266C213.01 306.176 212.141 306.594 211.043 307.488C211.043 307.488 209.919 312.121 213.298 314.015V314.031Z" fill="white"/>
<path d="M336.248 176.608H334.895C334.502 176.05 334.108 175.558 333.698 175.14C333.559 175 333.428 174.853 333.288 174.73C333.149 174.59 333.018 174.476 332.878 174.369C332.608 174.139 332.329 173.926 332.058 173.762C331.501 173.401 330.918 173.139 330.328 172.959C329.582 172.713 328.811 172.606 327.991 172.598C327.958 172.598 327.614 172.598 327.13 172.688C327.023 172.721 326.917 172.737 326.81 172.745C326.597 172.795 326.367 172.852 326.13 172.942H326.113C325.859 173.032 325.58 173.155 325.31 173.303L323.752 174.016C319.75 167.268 315.174 160.839 310.017 154.853C304.859 148.867 299.135 143.283 292.903 138.191C263.342 114.099 221.973 101.217 172.281 108.482C183.154 105.842 194.306 104.341 205.508 104.013C245.934 102.832 286.942 117.158 317.11 149.974C321.464 154.705 325.58 159.781 329.451 165.283C329.984 166.177 330.484 166.948 331.009 167.735C331.435 168.383 331.886 169.055 332.345 169.769C333.026 170.818 333.772 171.999 334.6 173.516C335.1 174.41 335.65 175.427 336.24 176.608H336.248Z" fill="white"/>
<path d="M323.75 174.016H322.643V174.566C321.446 175.173 320.035 175.886 318.764 176.517H306.12C290.81 150.597 260.782 124.07 220.971 113.853C202.874 109.212 182.751 107.957 161.078 111.639L172.279 108.482C221.971 101.217 263.34 114.107 292.901 138.191C299.133 143.283 304.865 148.859 310.015 154.853C315.164 160.847 319.748 167.268 323.75 174.016Z" fill="#311D00"/>
<path d="M311.072 187.703C310.408 185.866 310.096 185.177 309.252 182.217C308.104 178.224 309.678 178.15 311.359 178.011C312.441 177.92 314.024 178.125 314.131 178.15C314.918 176.764 315.869 176.108 316.148 175.936L315.861 176.051C309.416 175.813 309.539 175.747 309.53 175.747C307.251 175.731 305.406 176.567 304.446 178.068C302.224 181.537 305.045 187.309 305.25 187.818C305.25 187.818 309.342 199.593 310.613 203.258C311.433 203.086 312.245 202.93 313.065 202.775L307.005 186.022C304.619 180.364 307.284 178.248 307.284 178.248C306.578 180.364 307.161 182.783 307.562 184.062C308.341 186.539 310.99 193.787 313.179 199.372C313.614 200.479 313.991 201.52 314.336 202.529C315 202.406 315.656 202.266 316.312 202.135C314.442 196.51 311.876 189.901 311.08 187.711L311.072 187.703Z" fill="#311D00"/>
<path d="M326.95 171.483C326.95 171.483 324.957 171.975 323.293 172.467L316.265 175.837C316.265 175.837 316.192 175.886 316.142 175.911C315.864 176.083 314.912 176.739 314.125 178.125C313.887 178.551 313.666 179.035 313.486 179.593C312.977 181.216 312.846 183.43 313.74 186.374C314.281 188.219 314.83 189.925 315.363 191.532C315.946 193.279 316.503 194.845 317.012 196.222C318.004 198.887 318.791 200.79 319.144 201.61C319.275 201.905 319.357 202.11 319.357 202.11C319.357 202.11 325.54 200.56 327.926 201.544C327.926 201.544 332.977 203.381 330.73 208.006C330.73 208.006 330.304 210.392 322.588 211.376C322.588 211.376 322.694 211.876 322.924 212.532C323.424 213.926 324.588 216.107 327.073 216.304C330.73 216.583 336.208 216.583 338.315 216.304C339.808 216.099 345.859 215.665 347.13 210.195C347.655 207.948 347.384 204.857 345.621 200.56L344.933 198.961L336.618 179.634C336.618 179.634 336.257 178.117 335.306 176.395C333.986 174.017 331.493 171.237 326.925 171.483H326.95ZM315.249 179.396L317.397 178.363C316.142 182.578 318.201 187.268 318.201 187.268L323.014 200.708L320.488 201.183C320.488 201.183 317.356 192.541 315.38 186.563C313.879 182.02 315.249 179.396 315.249 179.396ZM324.605 212.376C338.094 211.245 331.96 198.51 324.941 200.339C322.26 193.738 320.16 187.129 320.16 187.129C320.16 187.129 317.348 180.101 319.455 177.436L322.407 175.886C322.407 175.886 322.309 175.878 322.276 176.428C322.219 177.313 322.35 178.945 323.391 181.372C325.08 185.3 332.042 201.372 332.944 203.709C337.446 215.369 325.827 217.526 324.605 212.376ZM333.412 214.664C333.412 214.664 335.667 213.082 335.806 211.245C335.806 211.245 341.423 211.245 344.416 211.302C344.416 211.302 342.776 215.328 333.412 214.664ZM334.929 180.618C336.044 183.217 341.513 195.689 343.104 199.724C345.22 205.062 345.4 207.448 345.4 207.448H336.052C336.052 206.472 334.781 202.815 334.781 202.815L329.295 190.015L329.197 189.736L325.892 181.733L325.039 179.626C324.761 178.994 324.662 178.453 324.662 178.453C323.613 173.549 327.852 173.148 329.582 173.869C331.977 174.853 333.658 177.666 334.929 180.618Z" fill="#311D00"/>
</g>
<defs>
<clipPath id="clip0_1335_1544">
<rect width="410" height="316.938" fill="white" transform="translate(45 92)"/>
</clipPath>
</defs>
</svg>
