<svg xmlns="http://www.w3.org/2000/svg" viewBox="0 0 960 640"><path fill="#010101" d="M741.887 345.613c-6.547 0-11.863 5.307-11.863 11.858 0 6.545 5.316 11.86 11.863 11.86s11.853-5.315 11.853-11.86c0-6.551-5.307-11.858-11.853-11.858m0 21.173a9.3 9.3 0 0 1-9.315-9.315 9.303 9.303 0 0 1 9.315-9.308c5.146 0 9.313 4.162 9.313 9.308s-4.167 9.314-9.313 9.314m4.872-12.063a4.03 4.03 0 0 0-1.18-2.843 4.023 4.023 0 0 0-2.844-1.175h-5.714v13.537h2.54v-5.498h1.823l2.566 5.498h2.81l-2.68-5.733a4.029 4.029 0 0 0 2.68-3.786zm-4.024 1.48h-3.174v-2.962h3.174c.817 0 1.484.663 1.484 1.482a1.48 1.48 0 0 1-1.484 1.48Z"/><path fill="#fff" d="M714.85 358.586c18.315-26.534 27.711-53.05 27.711-78.876 0-68.127-69.669-113.92-173.378-113.92 0 0-4.954.086-8.399.139-10.49-17.192-30.027-26.767-46.455-30.272L482.912 86 416.35 194.772c-120.513 44.864-204.538 128.647-204.538 204.26 0 28.27 12.128 53.326 34.885 72.907L196.46 554s88.13-14.04 221.46-21.763l8.138-21.53c39.061-4.127 79.718-14.184 118.421-29.222.35 2.606.942 5.346 2.297 8.046l7.288 14.55c10.91 21.833 32.54 47.857 73.575 47.857 104.65 0 135.874-88.418 135.874-88.418 1.352-69.561-48.663-104.935-48.663-104.935"/><path fill="#236192" d="M706.919 359.784c18.873-25.87 29.783-53.148 29.783-80.074 0-61.405-61.145-108.063-167.519-108.063-3.859 0-7.727.088-11.602.209-9.866-19.305-32.101-28.377-46.914-31.024l-27.664-43.746-62.687 102.41c-112.004 41.174-202.645 121.83-202.645 199.538 0 27.978 12.73 52.879 36.61 71.714l-46.305 75.656s95.679-13.875 205.812-19.806l8.055-21.314c43.839-4.23 87.792-15.707 128.371-32.323-.245 1.668-1.001 8.336 1.802 13.945l7.28 14.572c11.527 23.038 32.41 44.605 68.336 44.605 100.388 0 130.026-83.566 130.026-83.566 0-46.674-21.424-80.54-50.74-102.734"/><path fill="#010101" d="M726.953 435.946c-6.404 9.756-16.892 21.162-19.977 24.458l-.057 29.191-1.889.188-3.983.38-10.068-15.575c-73.02 51.274-127.815 19.737-127.815 19.737l16.453 25.318c29.306 37.57 125.05 24.022 165.869-45.5l-5.537-.215c-.962-15.796-12.996-37.982-12.996-37.982"/><path fill="#c1c6c8" d="M619.493 327.425 530.68 187c-3.057-.656-6.333-.965-9.794-.965l89.171 140.989c3.098.039 6.25.16 9.437.4m-270.409 18.188 134.13-219.134 8.661 13.702c3.534.357 6.893.823 10.064 1.386l-18.832-29.778-135.24 220.95c.016 2.664.215 7.37 1.217 12.874"/><path fill="#c1c6c8" d="M498.034 433.915c-50.945 0-85.035 25.504-131.439 25.504-64.599 0-84.403-45.585-84.403-77.128 0-97.2 114.59-155.799 114.59-155.799l2.256-3.684c-.384.17-1.37.64-2.842 1.36-19.034 9.385-121.876 64.408-121.876 158.123 0 15.004 3.451 28.541 9.516 40.163a82 82 0 0 0 4.493 7.56l-65.124 106.374s80.35-11.457 185.1-17.27l24.284-64.26c21.246-6.254 41.978-12.527 68.735-12.527 56.666 0 93.087 30.34 93.087 30.34s-20.744-38.756-96.377-38.756"/><path fill="#862633" d="M520.885 186.036c-23.272.067-55.134 14.644-88.851 38.455l15.341-25.006 10.504-8.496 8.001-29.006 12.997-3.999 3.83-18.504c3.199.149 6.228.399 9.168.7l-8.662-13.702-134.129 219.135c2.855 15.696 12.285 37.884 42.808 37.884 61.12 0 149.485-56.497 216.705-56.497.477 0 .97.023 1.458.023zM293.337 436.699l-54.994 89.835s68.508-9.162 164.483-14.867l20.442-54.113c-18.233 5.179-37.513 9.679-61.804 9.679-27.354 0-52.068-11.27-68.127-30.535"/><path fill="#c1c6c8" d="m654.864 512.496 4.49-7.416c-60.803 20.142-85.928-.7-85.928-.7 20.565 23.115 64.783 13.005 81.438 8.116"/><path fill="#c1c6c8" d="M582.598 516.73c17.51 21.452 70.811 19.23 112.553-5.743l3.129-8.255c-26.162 17.953-84.341 34.58-115.682 13.998m-98.58-232.235-27.562 73.27s-38.372 14.5-63.69 18.64c50.771 3.844 138.953-53.616 196.582-53.616-25.94-8.106-88.264 16.455-88.264 16.455z"/><path fill="#236192" d="M483.331 308.383c-5.227 13.89-11.186 29.746-16.858 44.82l27.32-11.265a36948 36948 0 0 1-10.462-33.555"/><path fill="#fff" d="M396.195 224.168C310.24 257.587 243.58 317.41 243.58 377.566c0 25.99 11.621 46.228 30.02 61.612l10.236-16.722c-6.065-11.623-9.516-25.16-9.516-40.164 0-93.714 102.842-148.737 121.876-158.124m299.277 127.779c10.251-16.924 15.996-34.522 15.996-52.156 0-67.072-77.43-95.881-149.082-101.57-.469 5.556-1.729 11.58-3.972 18.103l70.927 112.13c22.141 2.99 45.497 10.697 66.131 23.493M530.678 187.002c10.088 2.154 17.882 7.976 22.546 18.16 5.815-22.184-1.444-54.78-51.285-63.596a135 135 0 0 0-10.064-1.386 163 163 0 0 0-9.168-.7l-3.83 18.505-12.998 3.996-8 29.007-10.504 8.497-15.34 25.005c33.715-23.81 65.578-38.389 88.85-38.455 3.461 0 6.737.31 9.793.967"/><path fill="#fff" d="M608.653 333.144c-73.648 0-154.557 57.384-218.077 57.384-18.856 0-24.543-6.998-24.543-6.998l-2.751 4.272s-77.863-37.376 28.46-153.086c0 0-91.548 47.735-98.84 144.314l5.538-4.62s-2.881 64.995 70.716 64.995c59.192 0 80.183-21.973 135.1-21.973 117.158 0 135.931 66.788 135.931 66.788s-76.778 22.633-81.842-19.765c0 0-11.712 49.672 86.694 24.673 0 0 6.216-9.729 5.474-22.413 0 0 9.081 9.123 10.655 16.09 0 0 7.452-8.519-4.5-31.474 0 0 10.201 9.325 16.842 22.923l4.117-3.465s.309-9.936-19.465-36.61l-13.445 8.444s-31.319-59.163-147.753-51.567c0 0 96.964-34.395 153.374 35.633l12.153-8.317s33.843 32.89 42.539 71.411l1.889-.188.057-29.19.072-34.87 9.809 11.484s4.748-8.633-.944-26.672c0 0 22.78 22.262 29.573 63.796l1.755-23.116c0-19.915-33.069-117.884-138.588-117.884m84.775 66.389-3.363 25.062-15.719-16.575-7.692 4.019c-10.575-13.398-51.335-47.326-99.062-47.326-68.467 0-127.043 49.439-185.682 49.439-64.007 0-66.585-38.214-66.585-53.337 0-28.074 16.436-58.686 16.436-58.686-5.629 17.176-29.62 101.75 54.6 101.75 66.275 0 101.788-45.76 179.038-45.76 74.327 0 104.332 42.367 104.332 42.367l5.78-3.643 10.97 11.819.838-12.227 6.753-11.814C678.464 353.827 643.578 343 643.578 343c45.69 8.58 59.377 41.928 59.377 41.928z"/><path fill="#fff" d="m437.882 462.816-6.498 17.213c38.582-1.338 77.607-9.212 113.785-21.796-39.674-18.412-101.004 2.369-107.287 4.583"/><path fill="#236192" d="M542.383 180.27c-21.009-19.993-70.674-3.668-70.674-3.668l-1.329 5.338c49.997-18.668 72.003-1.67 72.003-1.67"/><path fill="#c1c6c8" d="M449.04 207.163c62.165-34.757 87.608-25.42 97.168-17.049-29.595-31.056-91.994 9.12-91.994 9.12z"/></svg>