<svg width="500" height="500" viewBox="0 0 500 500" fill="none" xmlns="http://www.w3.org/2000/svg">
<path fill-rule="evenodd" clip-rule="evenodd" d="M253.155 387.502C253.169 387.686 252.952 388.914 252.467 389.45C251.978 389.99 251.262 390.188 250.57 390.34C249.439 390.59 248.322 390.35 247.422 389.667C246.684 389.108 246.222 388.323 246.167 387.562C246.167 387.548 246.162 387.539 246.162 387.52L246.157 387.525L237.752 360.163C233.044 346.131 225.927 331.08 212.121 317.759C195.445 301.673 170.862 290.545 136.964 283.759C107.419 277.842 87.9729 272.751 73.9089 267.263C60.408 261.996 52.4459 256.513 44.6454 249.908C24.761 233.065 10.9001 211.593 10 184.545C10 184.545 29.7829 212.502 51.5274 199.149C61.8066 192.839 69.1963 193.74 69.1963 193.74C62.5081 186.359 57.574 176.721 56.2539 166.239C55.2015 157.857 55.8892 148.552 58.294 138.587C62.3881 121.624 74.3105 109.194 74.4259 109C74.4259 109 69.7363 149.747 89.2192 164.204C101.234 170.966 113.562 168.238 113.562 168.238C113.562 168.238 97.3843 160.747 95.118 136.699C94.1257 126.129 95.6858 117.816 96.1012 115.693C96.1012 115.693 117.458 145.842 138.856 133.459C143.643 130.689 168.895 117.636 179.784 114.742C195.768 110.5 211.586 110.2 226.799 113.856C239.428 116.888 251.756 122.667 263.448 131.026C284.288 145.93 297.784 165.279 302.617 172.909C302.617 172.909 344.559 171.063 367.513 200.4L367.546 200.446L420.635 223.88L414.616 227.73L414.353 227.9L414.626 228.071C431.805 238.992 461.863 258.345 470.046 265.324L470.065 265.343L470.092 265.357L485.301 272.589L482.527 279.952V279.956C482.343 280.45 478.216 292.252 486.003 298.091L489.917 301.027C489.917 301.027 489.963 301.059 490 301.091L489.963 301.184L478.008 332.852L474.98 328.786C458.304 305.799 442.541 301.553 434.621 301.391C425.657 301.202 425.025 305.979 426.137 308.038C429.742 314.698 449.834 318.151 457.279 318.908C457.275 318.908 462.204 319.55 462.347 319.568L442.994 336.909L407.905 334.703L407.762 334.694L407.776 334.551L408.367 327.659V327.618C408.187 326.312 405.814 314.546 377.123 302.735L377.04 302.707L376.957 302.744C372.078 304.996 362.067 308.883 349.798 309.543C335.005 310.341 321.278 306.349 308.995 297.685L308.912 297.634L308.811 297.657C303.886 299.337 294.17 303.132 284.458 309.801C266.434 322.194 256.598 338.4 255.227 357.975C255.227 357.975 253.649 374.107 253.159 387.502" fill="#0A2343"/>
<path fill-rule="evenodd" clip-rule="evenodd" d="M260.191 137.998C249.252 129.815 237.737 124.12 225.963 121.069C211.743 117.386 196.955 117.478 182.043 121.489C172.383 124.087 150.543 134.809 142.365 139.051C120.862 150.197 106.955 135.778 101.722 130.351L101.482 130.106C101.98 133.069 102.963 138.437 105.349 143.924C108.326 150.774 112.628 155.814 118.148 158.897C128.02 164.412 141.755 163.632 158.975 156.575C178.152 148.715 194.237 146.311 206.786 149.426C218.094 152.237 228.492 161.246 234.635 173.537C255.414 172.701 276.248 174.183 296.56 177.935C286.148 161.818 273.58 148.018 260.191 137.998ZM138.742 169.969C113.592 177.686 95.7632 177.603 84.2293 169.701C74.3985 162.967 68.4724 151.009 67.9324 130.637C60.3585 154.254 63.9862 172.978 74.9708 185.541C83.6847 195.506 98.5278 202.101 114.686 203.2C146.939 188.412 180.114 178.997 213.289 175.203C204.262 159.838 177.815 157.969 138.742 169.969ZM99.4508 212.532C32.0616 251.255 22.9832 204.377 22.9832 204.377C22.9832 204.377 34.7893 215.624 54.6539 205.447C70.1921 197.487 76.7631 201.18 85.6055 206.148C89.4727 208.322 93.7745 210.739 99.4508 212.532Z" fill="#FC4C02"/>
<path fill-rule="evenodd" clip-rule="evenodd" d="M472.471 285.428C472.522 280.236 473.911 276.008 474.202 275.195L465.151 270.968L465.114 270.959L465.095 270.931C459.506 264.885 398.985 226.822 398.375 226.434L398.145 226.291L398.371 226.148L402.843 223.166L361.826 205.794L361.78 205.771L361.748 205.729C345.1 180.829 312.289 179.837 305.989 179.883C318.488 183.746 322.305 187.549 323.269 190.083C323.911 191.777 323.269 192.834 323.242 192.875L323.172 192.986L323.052 192.954C181.531 154.379 65.7585 243.132 60.9077 246.926C66.4646 252.534 78.9539 260.089 123.848 270.059C133.868 262.231 181.623 228.275 253.702 230.274L242.006 212.606C242.006 212.606 286.651 224.209 312.137 238.369C310.171 257.237 321.857 275.422 340.706 280.988C354.22 284.976 368.154 281.532 378.132 273.04L410.159 293.477L379.434 281.555C366.368 291.008 349.12 294.299 332.611 288.931C312.183 282.299 298.637 264.271 296.712 244.166C227.551 226.799 176.555 270.534 166.365 280.162C174.603 282.769 182.205 285.732 189.1 289.032C197.5 293.057 205.065 297.677 211.697 302.837C216.82 296.588 237.243 275.122 276.409 274.799C276.409 274.799 237.954 284.749 225.695 316.074C236.588 328.688 242.195 342.017 246.506 354.746C247.485 342.649 251.352 331.545 258.049 321.737C263.528 313.725 270.88 306.552 279.908 300.423C295.277 289.988 310.379 286.148 310.531 286.111L310.614 286.088L310.678 286.143C341.842 311.26 376.143 291.483 376.485 291.275L376.554 291.239L376.637 291.266C386.228 294.931 394.332 299.039 400.706 303.483C405.815 307.032 409.84 310.812 412.669 314.703C417.059 320.745 417.183 325.088 417.155 325.992L440.394 327.516L447.211 321.696C426.091 318.959 419.689 312.395 418.383 306.774C416.112 293.209 429.958 291.539 436.268 292.36C450.977 294.28 468.862 307.457 475.595 316.623L480.58 303.239C473.795 298.083 472.42 290.708 472.471 285.428Z" fill="white"/>
<path fill-rule="evenodd" clip-rule="evenodd" d="M390.534 230.962C390.132 233.671 387.7 235.651 384.922 235.434C382.023 235.217 379.849 232.683 380.071 229.78C380.182 228.419 380.8 227.214 381.723 226.347C366.188 218.722 358.06 217.563 358.06 217.563C376.877 230.053 384.908 240.47 384.908 240.47L389.994 236.999L437.574 263.556C418.646 248.117 402.894 237.82 390.534 230.962Z" fill="#0A2343"/>
<path fill-rule="evenodd" clip-rule="evenodd" d="M380.071 229.78C379.849 232.683 382.023 235.216 384.921 235.433C387.7 235.65 390.132 233.67 390.534 230.961C389.786 230.546 389.048 230.14 388.318 229.752L383.126 233.564L384.571 227.776C383.597 227.273 382.646 226.798 381.723 226.346C380.8 227.213 380.181 228.418 380.071 229.78Z" fill="#FC4C02"/>
<path fill-rule="evenodd" clip-rule="evenodd" d="M383.126 233.565L388.318 229.753C387.031 229.051 385.78 228.396 384.571 227.777L383.126 233.565Z" fill="#0A2343"/>
<path fill-rule="evenodd" clip-rule="evenodd" d="M465.779 276.303C454.577 280.784 469.014 293.629 469.014 293.629C437.62 268.849 465.779 276.303 465.779 276.303Z" fill="#0A2343"/>
<path fill-rule="evenodd" clip-rule="evenodd" d="M329.214 195.377C349.512 195.788 329.366 187.176 329.366 187.176C329.366 187.176 343.978 189.419 352.48 202.974C344.458 199.882 335.685 196.97 329.214 195.377Z" fill="#0A2343"/>
</svg>
