<svg xmlns="http://www.w3.org/2000/svg" viewBox="0 0 960 640"><path fill="#041e42" d="M558.608 481.192c-6.186 0-11.208 5.014-11.208 11.205 0 6.184 5.022 11.206 11.208 11.206s11.2-5.022 11.2-11.206c0-6.191-5.013-11.205-11.2-11.205m0 20.006a8.794 8.794 0 0 1-8.8-8.801 8.79 8.79 0 0 1 8.8-8.795c4.863 0 8.8 3.933 8.8 8.795a8.796 8.796 0 0 1-8.8 8.801m4.605-11.399a3.8 3.8 0 0 0-1.115-2.685 3.8 3.8 0 0 0-2.687-1.111h-5.4v12.791h2.4v-5.195h1.723l2.425 5.195h2.654l-2.532-5.417a3.81 3.81 0 0 0 2.532-3.578m-3.802 1.399h-3v-2.799h3c.77 0 1.402.627 1.402 1.401a1.404 1.404 0 0 1-1.402 1.398"/><path fill="#ffb81c" d="M772.323 277.257a7.62 7.62 0 0 0-3.752-3.985l-32.561-15.727-10.043-7.72-14.625-18.142-4.816-21.628a7.63 7.63 0 0 0-3.681-4.981l-22.882-13.003-14.393-14.459a7.6 7.6 0 0 0-2.371-1.616l-89.6-38.964a7.66 7.66 0 0 0-4.537-.49L446.96 160.93c-33.243-2.595-62.376 1.576-63.608 1.75-7.492 1.246-7.531 9.338-4.927 11.938l-182.757 36.513a7.63 7.63 0 0 0-4.575 2.86l-19.341 25.426c-3.436 4.52-.847 11.421 5.1 12.195 1.339.175 133.525 18.273 133.525 98.457 0 29.524-20.265 58.555-20.473 58.847-2.93 4.155-1.15 10.832 4.878 11.922l74.665 13.48c5.657 4.522 24.657 17.87 52.303 17.87 32.737 0 42.005-12.383 44.13-22.533 16.23-6.907 36.633-23.271 36.633-36.481 0-8.222-7.398-13.746-14.312-13.746-.785 0-1.494.285-2.246.411 0 0-3.487-6.447-11.918-6.447-3.603 0-7.522 1.806-10.577 3.105 7.484-8.595 19.853-18.848 39.637-25.394 30.515-10.122 70.293-18.697 90.218-22.709-30.288 88.016-134.01 134.248-135.101 134.72-6.173 2.684-5.057 10.503-2.515 12.127l-11.345 5.075c-8.063 3.555-4.63 15.301 3.727 14.592 109.469-9.308 189.974-47.631 246.036-116.904h22.552a7.8 7.8 0 0 0 3.726-.956c22.056-12.327 36.868-11.822 37.012-11.812 3.036.129 5.92-1.537 7.253-4.25 10.93-22.221 22.703-33.997 22.815-34.102 1.627-1.635 3.197-4.7 1.719-8.337l-16.872-41.289z"/><path fill="#041e42" d="m731.977 264.077-11.384-8.752-16.321-20.237-5.2-23.375-23.79-13.52-15.115-15.192-89.61-38.972-123.06 24.577c-33.244-2.746-63.033 1.632-63.033 1.632l10.345 8.898-197.642 39.478-19.337 25.428s140.184 18.084 140.184 106.027c0 32.424-21.878 63.253-21.878 63.253l76.616 13.824s19.058 17.395 48.998 17.395c34.834 0 37.075-14.596 37.075-20.282 15.314-4.948 36.057-21.777 36.057-31.085 0-3.731-3.883-6.107-6.677-6.107-2.317 0-5.45 1.833-8 2.932 1.458-3.25-.632-8.97-6.17-8.97-4.638 0-12.488 6.578-27.71 7.992 0 0 11.648-31.027 54.369-45.177C543.86 329.546 604.5 318.421 604.5 318.421 578.815 419.132 461.26 470.12 461.26 470.12l43.377-9.765c-20.106 10.615-57.206 26.948-57.206 26.948 109.345-9.307 188.92-46.944 244.766-118.997l3.8 2.055h20.675c24.68-13.76 41.147-12.754 41.147-12.754 11.728-23.856 24.302-36.172 24.302-36.172l-16.866-41.287z"/><path fill="#fff" d="M281.176 263.025a173 173 0 0 1 12.167 8.072 537 537 0 0 1 12.573-4.025c7.387-28.251 22.523-46.992 22.523-46.992-31.37 11.725-44.668 37.331-47.263 42.945m130.113-64.475s12.54 21.342 34.887 21.342l23.213-1.602 19.068-19.925 26.04-4.006c-9.65-5.849-20.536-10.06-31.637-13.054l-21.771 30.405 13.836-32.338a201 201 0 0 0-12.062-2.238l-18.76 26.141 11.608-27.125a245 245 0 0 0-14.213-1.308l-14.35 20.004 8.683-20.3c-20.26-.851-35.052.789-35.052.789l4.985 4.302zm29.334 200.342c2.74 12.382 11.018 15.881 11.812 20.512 0 0 21.512-4.424 35.795-25.685-27.821 14-47.607 5.173-47.607 5.173m251.759-51.328c0-12.13-20.075-23.763-29.533-23.763-38.964 0-38.43 82.767-175.795 152.896 116.99-16.903 205.328-96.48 205.328-129.133"/><path fill="#fff" d="m420.419 226.817-.328 3.467c-8.696 1.759-22.336 7.353-35.352 17.564l64.769-9.193 5.553-12.998c-34.441 5.054-49.964-24.251-49.964-24.251l-2.636-8.946-199.892 44.728c21.566 1.491 45.343 8.352 67.002 19.395 5.165-17.254 17.974-30.634 17.974-30.634l109.8-24.573s4.346 14.118 23.074 25.441"/><path fill="#fff" d="m716.27 293.883 17.087-6.02s20.242 12.813 29.292-3.614l-30.926-14.555c-8.653 5.008-17.141 7.631-24.995 8.76v.003c-23.192 3.328-40.848-6.413-40.848-6.413-19.231 0-32.362 3.093-43.632 8.717h-.003c-9.186 4.586-17.135 10.855-26.134 18.522l27.01-29.714 4.192-24.684-77.125-8.771c4.934 17.522 17.236 27.097 17.236 27.097l-14.514 15.962-17.11 18.823c-6.381-1.932-13.12-3.015-20.103-3.175-.41-9.519 3.328-20.351 11.705-30.744-11.09 8.361-17.786 19.084-19.186 30.967a75 75 0 0 0-14.224 2.497c-2.401-7.914-2.136-17.662 1.518-28.259-6.458 9.847-9.118 20.279-7.785 30.281a75.3 75.3 0 0 0-13.128 6.468c-4.037-6.144-6.508-14.339-6.692-24.108-2.332 10.008-1.685 19.344 1.849 27.369-14.625 10.898-21.216 24.094-21.216 24.094-46.466-8.374-74.591 30.503-75.58 57.787-2.946-18.932 3.11-52.415 40.53-68.349l12.42-29.029a19.3 19.3 0 0 1 3.009-4.927l.007-.002c2.922-3.493 7.182-5.933 13.346-7.533 29.955-7.777 60.56-24.668 76.732-46.028l-43.601 1.288c-19.628 14.813-27.97 34.932-27.97 34.932l-13.293 3.109 15.373-35.979-64.77 9.194c-18.501 14.506-35.748 38.334-35.748 73.743 0 17.684 5.846 32.16 5.89 32.271l.002.005s-7.333-9.97-11.664-26.956l-.001.002a100 100 0 0 1-3.11-24.79c0-17.425 5.02-33.994 10.684-47.141v-.002c7.33-17.016 15.736-28.308 15.736-28.308s-23.97 9.712-40.441 34.56h-.003a89.5 89.5 0 0 0-12.24 27.728c11.875 12.568 20.708 26.97 24.688 42.714a75.5 75.5 0 0 1 2.338 18.607c0 30.421-12.716 49.561-12.716 49.561l42.56 8.634s16.093 23.422 50.65 23.422c10.93 0 25.294-1.21 25.294-8.183 0-5.266-12.934-12.413-12.934-27.669 0-24.76 31.106-50.465 64.484-61.463 39.004-12.848 98.588-27.812 128.563-27.812 85.016 0 82.213 56.125 82.213 56.125l4.125-.191c18.922-10.637 35.675-12.662 40.56-13.034a24 24 0 0 1 1.432-.086s8.39-15.658 18.122-27.014c0 0-12.63-26.485-56.954-28.689"/><path fill="#fff" d="m475.398 236.593 43.6-1.29c7.319-9.665 11.678-20.242 11.678-31.307 0-19.085-9.775-30.262-9.775-30.262l47.302-10.489 14.71 7.218s-34.758 13.354-34.758 51.035c0 5.358.792 10.226 2.033 14.615l77.124 8.771s8.489 20.615 31.874 20.615c11.315 0 19.966-6.271 19.966-6.271 25.35 19.161 48.573 8.584 48.573 8.584l-8.692-7.212-8.301 4.415 5.16-7.743-3.171-3.605-11.211 5.783 7.019-10.645-2.436-2.811-9.464 4.166 5.423-9.236-3.814-5.858c-3.557 15.607-17.475 17.476-29.437 16.535l-.621-6.902a16.83 16.83 0 0 1-8.953 2.565c-9.336 0-16.898-7.566-16.898-16.891 0-5.345-26.335-28.895-26.335-28.895L650.073 212c28.555 8.825 27.309 22.99 27.632 30.673 4.81 2.12 15.64 3.673 20.533-7.607l-3.604-18.754-22.683-11-15.58-14.577-87.258-35.275-85.887 19.052c20.234 4.874 36.983 15.437 36.983 15.437s6.432 14.796-1.946 31.268c-17.997.756-32.117 7.269-42.865 15.376m213.81-12.508-4.241 16.41c0-12.42-7.35-19.545-29.087-32.339z"/><path fill="#ffb81c" d="M733.357 287.862s-11.69-5.318-26.628-9.404c-23.193 3.328-40.85-6.414-40.85-6.414-19.23 0-32.36 3.093-43.631 8.717 124.064 10.908 139.617 38.414 131.418 68.911a25 25 0 0 1 1.438-.086s8.389-15.658 18.12-27.014c0 0-12.628-26.484-56.952-28.688zm-382.563-32.879a729 729 0 0 0-24.708 6.25 89.6 89.6 0 0 0-12.24 27.728c11.875 12.568 20.709 26.971 24.688 42.715a88 88 0 0 1 4.687-4.756 100 100 0 0 1-3.111-24.795c0-17.426 5.02-33.995 10.684-47.142m276.519-10.098c-26.268-4.762-52.113-7.522-77.125-8.771 4.934 17.522 17.236 27.097 17.236 27.097l-14.514 15.962c26.207-.494 53.572.613 53.572.613l-10.371 19.497 27.01-29.714zM447.43 271.526l-13.293 3.109 15.373-35.98a750 750 0 0 0-64.77 9.193c-18.501 14.507-35.748 38.335-35.748 73.744 0 17.753 5.893 32.276 5.893 32.276-4.806-20.562 6.433-40.69 6.433-40.69s25.87-16.526 67.605-24.312c2.922-3.493 7.182-5.933 13.346-7.533 29.955-7.777 60.56-24.668 76.73-46.028a693 693 0 0 0-43.598 1.288c-19.63 14.813-27.971 34.933-27.971 34.933m-144.027 7.504a125 125 0 0 1 2.512-11.958 560 560 0 0 0-12.571 4.021 158 158 0 0 1 10.059 7.937m358.15-36.978c3.554 0 6.179-1.671 6.179-1.671a42 42 0 0 0-.821-3.588c-.867.545-2.103 1.089-3.563 1.089-3.843 0-6.216-2.952-6.216-6.208 0-2.766 1.899-5.268 4.61-5.975-3.397-4.806-6.796-6.834-6.796-6.834s-5.931 3.317-5.931 10.63c0 7.317 6.143 12.557 12.539 12.557"/></svg>