<svg xmlns="http://www.w3.org/2000/svg" viewBox="0 0 960 640"><path fill="#fff" d="M478.111 343.6h6.127c2.247 0 4.064-1.815 4.064-4.04v-27.862c0-2.246-1.838-4.103-4.084-4.103h-6.127c-2.247 0-4.085 1.857-4.085 4.103v27.862c0 2.225 1.818 4.04 4.085 4.04zM491.57 389.67h-8.313v15.596h8.313a2.867 2.867 0 0 0 2.859-2.858v-9.88a2.867 2.867 0 0 0-2.859-2.857M439.857 410.164h8.803l-4.412-19.575zM430.115 332.007a410 410 0 0 1 8.476-1.388 3.92 3.92 0 0 0 2.655-1.633 4 4 0 0 0 .715-3.021l-1.859-11.512c-.347-2.184-2.45-3.756-4.677-3.41q-4.258.675-8.516 1.41l-.695.122 3.166 19.555.715-.123zM478.928 452.19l-5.004 19.576h9.987zM622.996 342.785c-1.818-.94-3.615-1.878-5.433-2.817a4.16 4.16 0 0 0-1.858-.45 4.11 4.11 0 0 0-3.656 2.226l-12.785 24.759a4.09 4.09 0 0 0-.266 3.103c.327 1.04 1.062 1.877 2.022 2.388 1.818.918 3.615 1.857 5.433 2.796.592.306 1.246.47 1.879.47 1.511 0 2.9-.837 3.594-2.184l12.806-24.76c1.041-2 .265-4.47-1.736-5.511z"/><path fill="#fff" d="M736.388 258.096a.926.926 0 0 0-.47-1.327c-7.72-2.898-15.012-4.898-22.384-5.94-.593-.081-.94-.714-.654-1.245 6.045-12.104 9.946-26.025 12.867-41.09.122-.652-.47-1.223-1.103-1.06-13.582 3.53-29.124 9.9-42.073 16.085a.852.852 0 0 1-1.205-.572c-1.9-8.37-4.166-17.82-8.802-26.005-.266-.47-.9-.592-1.328-.285-13.683 9.899-25.917 20.779-36.578 32.74a.875.875 0 0 1-1.41-.143 40 40 0 0 0-11.05-11.961.867.867 0 0 0-1.183.163c-17.565 21.718-39.683 46.396-68.236 66.828-.592.429-1.41-.163-1.184-.857 6.474-21.187 16.237-41.375 25.754-59.908.266-.511 0-1.123-.572-1.246-4.003-.898-9.333-1.408-14.398-1.694a.84.84 0 0 1-.654-1.327c12.029-17.82 21.22-39.517 27.06-59.01.165-.551-.264-1.123-.836-1.082-10.05.449-22.201 2.715-32.25 6.205a.842.842 0 0 1-1.102-.94c2.94-16.838 1.573-35.74-1.634-53.253a.887.887 0 0 0-1.164-.674c-7.087 2.674-15.236 6.757-22.63 11.227a.86.86 0 0 1-1.306-.796c1.103-15.84-.634-33.353-4.044-47.437a.84.84 0 0 0-1.083-.592c-5.167 1.796-11.233 4.98-17.033 8.43-.49.285-1.103.06-1.266-.47-5.453-15.962-14.215-31.475-23.651-46.886a.9.9 0 0 0-1.532 0c-9.435 15.411-18.177 30.945-23.65 46.886a.88.88 0 0 1-1.287.47c-5.8-3.45-11.866-6.634-17.033-8.43a.84.84 0 0 0-1.082.592c-3.391 14.104-5.147 31.597-4.044 47.437a.855.855 0 0 1-1.307.796c-7.394-4.47-15.522-8.553-22.63-11.227a.876.876 0 0 0-1.164.674c-3.206 17.513-4.575 36.394-1.634 53.254a.842.842 0 0 1-1.103.939c-10.048-3.49-22.2-5.756-32.25-6.205-.57-.02-1.02.53-.836 1.082 5.82 19.493 15.032 41.19 27.06 59.01.369.552 0 1.307-.652 1.327-5.065.286-10.396.796-14.4 1.694a.863.863 0 0 0-.571 1.246c9.518 18.574 19.3 38.782 25.775 60.01.204.674-.572 1.245-1.144.837-25.284-17.676-49.548-43.6-68.317-66.91a.867.867 0 0 0-1.184-.163c-4.718 3.388-8.292 7.45-11.05 11.96-.306.512-1.021.593-1.41.144-10.66-11.941-22.873-22.841-36.577-32.74-.43-.307-1.062-.184-1.328.285-4.636 8.186-6.903 17.636-8.803 26.005a.847.847 0 0 1-1.205.572c-12.928-6.185-28.49-12.554-42.072-16.085-.633-.163-1.226.408-1.103 1.06 2.92 15.065 6.82 28.986 12.867 41.09.265.552-.061 1.164-.654 1.246-7.373 1.04-14.664 3.04-22.384 5.939a.925.925 0 0 0-.47 1.327c9.089 15.615 19.566 28.495 31.616 38.538a.85.85 0 0 1-.123 1.408 73 73 0 0 0-13.336 10.247.887.887 0 0 0 0 1.286 323 323 0 0 0 50.038 40.23.898.898 0 0 1 .06 1.47c-6.678 5.165-12.54 10.513-17.584 16.535a.923.923 0 0 0 .102 1.265c13.112 11.594 28.124 21.004 45.565 28.107a.899.899 0 0 1 .205 1.55c-6.21 4.655-11.233 9.82-15.87 15.392-.367.449-.224 1.123.286 1.368 12.459 6.388 27.572 10.532 43.258 13.369.714.123.776 1.123.08 1.327-20.034 6.205-38.415 14.207-56.041 24.004a.908.908 0 0 0-.102 1.51c12.908 9.574 26.08 17.943 41.398 23.903a.9.9 0 0 1 .246 1.53c-20.935 17.065-38.05 36.68-53 58.052-.45.633.082 1.51.858 1.408 21.343-2.714 41.194-6.041 58.309-10.736.736-.204 1.328.55 1 1.225-3.655 7.307-6.963 15.084-9.986 23.249a.923.923 0 0 0 .96 1.224c19.239-2.082 36.722-4.531 50.67-7.695.777-.184 1.369.674.92 1.347-5.902 8.98-10.09 18.718-13.44 29.393-.203.653.369 1.286 1.043 1.164 33.719-6.43 64.416-16.085 91.64-29.148a1.14 1.14 0 0 1 1.634.959c1.634 24.168 10.805 40.987 23.365 54.479.47.51 1.246.53 1.756.06l17.626-16.246a1.32 1.32 0 0 0 .102-1.858c-3.492-3.98-19.525-22.167-16.686-36.006.347-1.654 2.165-2.531 3.697-1.837 20.32 9.185 62.414 23.208 95.48 29.597a.888.888 0 0 0 1-1.143c-3.37-10.696-7.535-20.433-13.458-29.434-.45-.674.143-1.531.919-1.347 13.949 3.163 31.432 5.613 50.67 7.695.675.082 1.185-.592.96-1.225-3.022-8.165-6.31-15.941-9.987-23.25-.347-.672.266-1.407 1-1.224 17.116 4.695 36.968 8.022 58.31 10.737.777.102 1.308-.776.858-1.408-14.95-21.351-32.065-40.987-52.999-58.052a.894.894 0 0 1 .245-1.53c15.318-5.961 28.491-14.33 41.399-23.903a.898.898 0 0 0-.102-1.51c-17.605-9.798-36.007-17.8-56.043-24.004-.694-.205-.633-1.205.082-1.327 15.685-2.837 30.799-6.981 43.257-13.37a.89.89 0 0 0 .266-1.367c-4.636-5.573-9.681-10.737-15.869-15.391a.891.891 0 0 1 .204-1.551c17.442-7.104 32.453-16.513 45.565-28.107a.92.92 0 0 0 .102-1.266c-5.045-6.021-10.906-11.37-17.585-16.533-.49-.388-.469-1.143.062-1.47a320.7 320.7 0 0 0 50.037-40.232.887.887 0 0 0 0-1.286 71.2 71.2 0 0 0-13.336-10.246.853.853 0 0 1-.123-1.41c12.05-10.041 22.548-22.921 31.616-38.536zm-163.839 63.542a597 597 0 0 0-11.314-3.552l2.859-8.532a567 567 0 0 1 32.8 11.023l-2.859 8.532a559 559 0 0 0-11.172-4.001l-.674-.245-14.357 42.68a787 787 0 0 0-8.966-3.02l14.357-42.681-.674-.224zm-16.788 59.194h27.143v8.839h-17.932v10.246h12.193v8.839h-12.193v10.246h17.932v8.839h-27.143zm-4.861 94.915h9.314v2c0 1.572 1.286 2.858 2.879 2.858h7.639c1.593 0 2.9-1.286 2.9-2.857v-2.92c0-1.061-.756-2.102-1.552-2.53-.225-.123-16.686-7.451-16.686-7.451-3.146-1.592-4.494-4.776-4.494-8.267v-4.837c0-5.123 4.208-9.287 9.395-9.287h13.235c5.187 0 9.374 4.164 9.374 9.287v4.368h-9.313v-1.96c0-1.571-1.287-2.857-2.88-2.857h-7.638c-1.593 0-2.9 1.286-2.9 2.857v1.04c0 1.063.755 2.104 1.552 2.533.225.122 16.686 7.45 16.686 7.45 3.145 1.592 4.493 4.776 4.493 8.267v6.736c0 5.123-4.207 9.287-9.374 9.287h-13.235c-5.187 0-9.395-4.164-9.395-9.287zm-15.542-140.902 5.188-30.618c3.124.57 6.229 1.163 9.292 1.776l-9.027 53.254c-2.451-.49-4.901-.96-7.373-1.43a4190 4190 0 0 0-10.457-30.78l-.898-2.633-5.188 30.597c-3.125-.49-6.249-.94-9.354-1.367l9.027-53.255c2.472.347 4.963.694 7.435 1.082a5374 5374 0 0 1 10.456 30.7zm-2.492 126.675v8.838h-14.378v19.085h-9.313v-46.987h29.492v8.838h-20.179v10.247h14.378zm-15.256-33.7v-46.988h9.211v38.15h17.013v8.838zm-90.477-221.1c12.724 19.085 29.37 34.985 49.487 47.253.041.02.122 0 .163-.02 0 0 .041-.041.041-.082a1047 1047 0 0 1 .388-43.885c0-.49-.204-.96-.613-1.266-11.212-8.553-20.28-19.27-27-31.863l.245-.143c7.557 11.594 16.972 21.555 27.184 28.8.123.083.327 0 .327-.162.184-5.307.368-9.736.572-13.921a1508 1508 0 0 0 1.797-37.64 1.96 1.96 0 0 0-.429-1.244c-9.272-11.166-16.4-21.596-21.771-31.924l.245-.143c6.495 10.104 13.827 19.513 21.833 27.944q.061.06.122.06c.082 0 .184-.06.184-.163.613-19.738.837-39.517.674-58.806h.286c1.613 18.167 2.389 56.929 1.797 90.118 0 .06.021.143.082.184.082.082.204.102.286.06 8.68-4.265 17.462-10.327 26.857-18.533l.204.204c-8.517 9.124-17.38 16.207-27.061 21.637a.89.89 0 0 0-.449.735 734 734 0 0 1-.205 8.103c-.858 18.738-.858 40.926 0 67.829 0 .183.225.265.347.183 21.997-15.696 38.479-32.577 48.997-50.152l.245.143c-8.558 17.779-26.469 37.803-49.139 54.969a.73.73 0 0 0-.286.592c.143 4.185.306 8.45.49 12.676a.5.5 0 0 1-.123.327.42.42 0 0 1-.306.122h-4.779a.48.48 0 0 1-.429-.43 984 984 0 0 1-.511-18.88.56.56 0 0 0-.245-.45c-20.178-12.797-38.314-31.74-49.752-51.967l.245-.143zm15.727 254.8v8.838h-14.379v10.247h20.179v8.838h-29.492v-46.987h29.492v8.838h-20.179v10.247h14.379zm-5.004-42.518-1.981 8.839h-9.477l11.58-46.988h12.561l11.58 46.988h-9.476l-1.982-8.84zm34.72 23.454h12.683l12.724 46.987h-9.579l-2.246-8.838h-14.481l-2.246 8.838h-9.579zm-8.292-99.835v-33.516c0-5.715 4.595-10.43 10.253-10.491 2.205-.021 4.411-.041 6.596-.041s4.412 0 6.618.04c5.657.062 10.252 4.777 10.252 10.492v33.516c0 5.614-4.452 10.002-10.232 10.002-7.25-.081-12.295 0-13.377 0-5.678 0-10.11-4.388-10.11-10.002m30.064 71.462h-11.091v13.737h-9.211v-46.988h20.302c5.126 0 9.292 4.144 9.292 9.267v14.697c0 5.123-4.166 9.287-9.292 9.287m-57.125-112.408a10 10 0 0 1 1.511-.122c5.045 0 9.477 3.796 10.294 8.818l2.757 17.105c.735 4.552-1.736 8.98-5.984 10.798l-.817.347.51.714c3.35 4.756 6.699 9.512 10.069 14.288-3.043.409-6.127.837-9.191 1.286-3.41-4.817-6.821-9.614-10.211-14.39l-.266-.367-.429.08c-1.307.226-2.614.43-3.941.675l-.695.122 2.573 16.003a370 370 0 0 0-9.292 1.715l-8.619-53.336a519 519 0 0 1 21.71-3.715zm-30.289 178.93v8.838h-27.51v-46.987h9.313v38.149h18.218zm-1.674-52.785v-21.677l-8.313 18.799-8.312-18.8v21.678h-9.211v-46.988h7.332l10.212 23.556 10.212-23.556h7.332v46.988zm-91.192-134.35a.8.8 0 0 0-.571-.225h-1.41c-13.847 0-26.346-3.531-38.212-10.777l.143-.245c11.233 5.348 21.73 7.94 32.106 7.94 1.491 0 2.981-.061 4.452-.163a265 265 0 0 0-7.189-6.961c-15.114-14.737-27.592-28.025-38.172-40.62l.204-.183c12.581 13.125 23.488 23.943 33.393 33.026l.143-.04c1.348-8.35.674-16.228-2.042-24.045l.265-.103c3.921 8.063 5.514 16.88 4.718 26.23-.041.367.122.734.388.979a575 575 0 0 1 25.203 23.556c.02 0 .041 0 .041-.021 0-10.961-2.962-20.78-9.089-30.005l.225-.163c8.128 9.49 12.356 20.738 12.581 33.414 0 .367.143.714.408.979 1.226 1.266 2.451 2.51 3.615 3.715a.38.38 0 0 1 .102.327.35.35 0 0 1-.204.265l-3.268 1.552s-.122.04-.184.04a.48.48 0 0 1-.326-.142c-6.618-7.206-12.275-13.207-17.299-18.31zm44.258 90.179-20.709-39.987-.633.327a714 714 0 0 0-10.416 5.654l-4.146-8.001c10.028-5.593 20.362-10.921 30.717-15.901l4.146 8a644 644 0 0 0-10.641 5.247l-.633.327L366.72 379.3a653 653 0 0 0-8.394 4.348m16.36-66.4a635 635 0 0 1 12.519-4.245 10.2 10.2 0 0 1 3.146-.49c4.431 0 8.516 2.939 9.946 7.144l10.763 31.74a9.83 9.83 0 0 1-.511 7.675c-1.225 2.429-3.329 4.246-5.984 5.103a653 653 0 0 0-12.54 4.246 10.6 10.6 0 0 1-3.451.592 10.02 10.02 0 0 1-9.477-6.797l-10.763-31.741c-1.838-5.41 1.001-11.35 6.352-13.226M548 526.778c-5.596 0-10.804-.551-15.685-1.368-.082 0-.143.082-.082.143 4.779 4.654 14.317 9.389 19.689 11.492l2.553 1-2.696-.45c-6.291-1.06-19.444-7.286-26.612-13.512a.55.55 0 0 0-.307-.143c-11.723-2.674-21.771-6.246-31.82-6.246-13.05 0-22.568 3-27.265 15.983-.245-2.92.02-5.491.735-7.757.021-.102 0-.183-.082-.245-2.552-1.694-12.233-7.695-21.832-7.695-14.419 0-32.984 16.187-47.24 17.84 6.903-2.347 14.644-7.532 22.445-12.267.062-.041.041-.143-.02-.164-13.153-2.572-29.716.266-47.26 4.695 16.808-6.532 33.985-10.002 51.896-7.348.082 0 .184 0 .266-.041 6.739-3.817 13.418-6.777 19.525-6.777 11.376 0 21.138 5.899 24.099 7.838.082.04.164.02.225-.061 4.534-6.654 13.868-9.348 23.712-9.348 15.563 0 39.581 11.532 58.697 11.532 20.975 0 26.939-1.898 33.209-3.225-5.902 2.429-15.297 6.144-36.191 6.144zm86.576-176.317-15.399 29.78c-1.736 3.348-5.127 5.409-8.864 5.409-1.655 0-3.329-.428-4.82-1.224a645 645 0 0 0-11.764-6.083c-2.471-1.245-4.31-3.347-5.147-5.94a9.9 9.9 0 0 1 .654-7.654l15.399-29.781c1.777-3.45 5.453-5.695 9.374-5.695 1.593 0 3.125.368 4.555 1.082a532 532 0 0 1 11.743 6.062c5.004 2.654 6.924 8.94 4.289 14.023zm7.679-54.704c1.369.082 2.757.122 4.126.122 9.558 0 18.83-2.143 29.226-6.715l.123.245c-10.662 6.51-22.609 9.777-36.538 9.94-.429 0-.858.184-1.164.49a567 567 0 0 0-10.559 11.268.53.53 0 0 1-.388.163c-.082 0-.164 0-.225-.061l-3.329-1.715c-.102-.061-.184-.143-.204-.265 0-.123 0-.225.102-.306 8.435-8.716 17.707-17.575 27.51-26.332.286-.265.45-.653.429-1.061-.796-10.492.327-19.738 3.411-28.25l.265.082c-1.736 8.777-2.022 17.758-.796 26.004 0 .06.061.102.122.102.021 0 .062 0 .082-.041 12.949-12.267 24.978-23.983 36.783-35.863l.204.184c-9.966 11.634-20.832 23.412-32.31 35.006a686 686 0 0 0-16.972 16.738c-.041.04-.041.102-.02.122 0 0 .041.082.102.082z"/><path fill="#fff" d="M391.167 358.95c.45 0 .899-.081 1.328-.224a320 320 0 0 1 5.78-1.96 4.11 4.11 0 0 0 2.369-2.041c.49-.98.551-2.061.204-3.102l-8.945-26.393a4.11 4.11 0 0 0-3.901-2.796c-.429 0-.879.06-1.287.204-1.94.653-3.86 1.306-5.8 1.959a4.1 4.1 0 0 0-2.533 5.205l8.946 26.393a4.04 4.04 0 0 0 3.839 2.755"/><path fill="#00205b" d="M476.64 258.85a.56.56 0 0 1 .245.45c.123 6.696.286 12.88.511 18.88 0 .226.184.41.429.41h4.779v.02a.42.42 0 0 0 .306-.122.47.47 0 0 0 .123-.327 1361 1361 0 0 1-.491-12.676c0-.224.103-.45.286-.592 22.671-17.166 40.582-37.19 49.14-54.97l-.246-.142c-10.518 17.575-27 34.456-48.996 50.152-.122.082-.347 0-.347-.184-.858-26.902-.837-49.09 0-67.828.082-2.531.143-5.164.204-8.103a.85.85 0 0 1 .45-.735c9.68-5.43 18.544-12.513 27.061-21.637l-.204-.204c-9.375 8.206-18.157 14.268-26.857 18.534-.102.04-.225.02-.286-.061a.3.3 0 0 1-.082-.184c.572-33.21-.204-71.951-1.797-90.139h-.286c.163 19.31-.061 39.089-.674 58.827 0 .102-.102.164-.184.164-.041 0-.082 0-.123-.062-7.985-8.43-15.338-17.84-21.832-27.943l-.245.143c5.371 10.328 12.499 20.779 21.771 31.924.286.347.449.796.429 1.245-.449 12.798-1.042 25.453-1.797 37.639a962 962 0 0 0-.572 13.92c0 .185-.204.246-.327.164-10.212-7.246-19.607-17.207-27.184-28.801l-.245.143c6.72 12.594 15.788 23.31 27 31.863.388.306.613.776.613 1.265a1014 1014 0 0 0-.388 43.886c0 .04 0 .08-.041.08-.041.042-.102.063-.163.022-20.097-12.268-36.742-28.148-49.487-47.253l-.245.142c11.437 20.229 29.574 39.17 49.752 51.969zM331.694 311.922s.123 0 .184-.041l3.268-1.551c.102-.061.183-.143.204-.265s0-.245-.102-.327c-1.164-1.204-2.369-2.47-3.615-3.715a1.37 1.37 0 0 1-.409-.98c-.224-12.675-4.452-23.922-12.581-33.414l-.224.164c6.127 9.246 9.109 19.064 9.088 30.005 0 .02-.02.02-.041.02a575 575 0 0 0-25.202-23.555 1.13 1.13 0 0 1-.388-.98c.796-9.348-.797-18.166-4.718-26.23l-.266.103c2.737 7.838 3.411 15.697 2.043 24.045l-.143.04c-9.885-9.103-20.812-19.9-33.393-33.025l-.204.184c10.579 12.594 23.058 25.882 38.171 40.619a265 265 0 0 1 7.19 6.96 64 64 0 0 1-4.453.164c-10.375 0-20.893-2.593-32.106-7.94l-.143.245c11.867 7.246 24.366 10.777 38.213 10.777h1.409c.225 0 .409.082.572.224 5.024 5.103 10.682 11.084 17.299 18.31a.4.4 0 0 0 .327.143zM659.125 278.814c11.478-11.594 22.344-23.371 32.31-35.006l-.204-.184a1739 1739 0 0 1-36.783 35.864.15.15 0 0 1-.082.04c-.04 0-.102-.02-.122-.102-1.226-8.246-.96-17.227.796-26.004l-.265-.082c-3.084 8.512-4.207 17.758-3.411 28.25.021.388-.122.796-.429 1.06-9.803 8.758-19.075 17.617-27.51 26.333a.35.35 0 0 0-.102.306c0 .122.081.204.204.265l3.329 1.715s.163.06.225.06a.56.56 0 0 0 .388-.162c3.104-3.41 6.576-7.104 10.559-11.268a1.64 1.64 0 0 1 1.164-.49c13.929-.163 25.876-3.408 36.538-9.94l-.123-.245c-10.375 4.572-19.668 6.716-29.226 6.716a69 69 0 0 1-4.126-.123c-.061 0-.102-.061-.102-.082 0-.02-.02-.081.02-.122a592 592 0 0 1 16.973-16.738zM492.264 512.325c-9.844 0-19.178 2.694-23.712 9.349-.061.08-.143.102-.224.06-2.962-1.938-12.724-7.837-24.1-7.837-6.127 0-12.785 2.98-19.525 6.777a.4.4 0 0 1-.266.04c-17.911-2.633-35.087.837-51.896 7.349 17.564-4.45 34.107-7.267 47.26-4.695.082 0 .102.122.021.163-7.802 4.736-15.543 9.92-22.446 12.268 14.235-1.654 32.821-17.84 47.24-17.84 9.599 0 19.28 5.98 21.833 7.695.081.06.102.143.081.245-.694 2.266-.98 4.838-.735 7.756 4.698-12.981 14.215-15.982 27.266-15.982 10.028 0 20.076 3.572 31.82 6.246.102.02.204.082.306.143 7.169 6.226 20.342 12.472 26.612 13.513l2.696.449-2.553-1.001c-5.372-2.102-14.909-6.838-19.688-11.491-.062-.062 0-.143.081-.143 4.881.816 10.069 1.367 15.686 1.367 20.872 0 30.267-3.735 36.19-6.144-6.27 1.327-12.254 3.225-33.209 3.225-19.116 0-43.114-11.532-58.697-11.532zM487.792 352.643c5.8 0 10.232-4.388 10.232-10.002v-33.516c0-5.715-4.595-10.41-10.253-10.491-2.205-.021-4.411-.041-6.617-.041s-4.411 0-6.597.04c-5.657.062-10.252 4.777-10.252 10.492v33.516c0 5.614 4.452 10.002 10.109 10.002 1.083 0 6.127-.081 13.378 0m-13.766-40.946c0-2.245 1.838-4.103 4.085-4.103h6.127c2.247 0 4.085 1.858 4.085 4.103v27.862c0 2.225-1.818 4.042-4.064 4.042h-6.128c-2.267 0-4.084-1.817-4.084-4.042v-27.862zM414.471 380.832h-7.332l-10.192 23.555-10.212-23.555h-7.332v46.988h9.232v-21.677l8.312 18.819 8.313-18.82v21.678h9.211zM433.424 357.012l-2.574-16.003.695-.123c1.307-.224 2.614-.45 3.942-.673l.428-.082.266.367c3.411 4.777 6.801 9.574 10.212 14.39 3.063-.448 6.147-.897 9.19-1.285a4210 4210 0 0 0-10.068-14.288l-.511-.715.817-.347c4.248-1.817 6.719-6.246 5.984-10.798l-2.757-17.105c-.817-5.021-5.229-8.818-10.294-8.818-.51 0-1.021.04-1.511.123a518 518 0 0 0-21.71 3.715l8.618 53.336a738 738 0 0 1 9.293-1.715zm-6.495-44.56c2.839-.49 5.657-.96 8.517-1.408 2.226-.347 4.329 1.225 4.677 3.409l1.858 11.512a3.97 3.97 0 0 1-.715 3.02 4.12 4.12 0 0 1-2.655 1.634c-2.839.449-5.657.898-8.475 1.388l-.715.123-3.166-19.555.694-.122zM503.64 404.796v-14.697c0-5.123-4.166-9.267-9.293-9.267h-20.301v46.988h9.211v-13.737h11.09c5.127 0 9.293-4.164 9.293-9.287m-9.211-2.39a2.867 2.867 0 0 1-2.859 2.859h-8.313V389.67h8.313a2.867 2.867 0 0 1 2.859 2.858zM379.403 442.455v46.968h27.531v-8.818h-18.218v-38.15zM630.267 336.436a489 489 0 0 0-11.744-6.062 10.1 10.1 0 0 0-4.554-1.082c-3.901 0-7.577 2.225-9.375 5.695l-15.399 29.78c-1.246 2.409-1.471 5.124-.654 7.655.838 2.592 2.676 4.695 5.147 5.94a497 497 0 0 1 11.764 6.083 10.3 10.3 0 0 0 4.82 1.224 9.96 9.96 0 0 0 8.864-5.41l15.399-29.78c2.635-5.082.695-11.37-4.29-14.022zm-5.535 11.88-12.806 24.759a4.036 4.036 0 0 1-5.473 1.715 441 441 0 0 0-5.433-2.796 3.98 3.98 0 0 1-2.022-2.39 4 4 0 0 1 .266-3.101l12.785-24.76a4.11 4.11 0 0 1 3.656-2.225c.633 0 1.286.164 1.858.449 1.818.919 3.636 1.858 5.433 2.817a4.086 4.086 0 0 1 1.736 5.51zM388.594 369.014c1.164 0 2.328-.205 3.452-.592a474 474 0 0 1 12.54-4.246c2.634-.857 4.758-2.674 5.984-5.103 1.205-2.388 1.368-5.103.51-7.675l-10.763-31.74c-1.429-4.205-5.514-7.144-9.946-7.144-1.062 0-2.124.163-3.145.49a564 564 0 0 0-12.52 4.245c-5.331 1.878-8.19 7.818-6.352 13.227l10.763 31.74a10 10 0 0 0 9.477 6.798m-7.659-44.396c1.94-.674 3.86-1.327 5.8-1.96a4.13 4.13 0 0 1 5.188 2.593l8.946 26.392a4.1 4.1 0 0 1-.205 3.103 4.04 4.04 0 0 1-2.369 2.04c-1.94.634-3.86 1.307-5.78 1.96a4.042 4.042 0 0 1-5.167-2.531l-8.945-26.392a4.1 4.1 0 0 1 2.532-5.205M346.664 339.008a644 644 0 0 1 10.641-5.246l-4.146-8.001c-10.355 4.98-20.689 10.308-30.717 15.9l4.146 8.002c3.431-1.898 6.923-3.817 10.416-5.654l.633-.327 20.71 39.987a647 647 0 0 1 8.394-4.348l-20.71-39.986zM516.568 300.39l-9.027 53.254c3.104.429 6.229.898 9.354 1.368l5.188-30.598.898 2.634a5381 5381 0 0 1 10.457 30.78c2.45.45 4.922.939 7.373 1.429l9.027-53.254a546 546 0 0 0-9.293-1.776l-5.187 30.618-.9-2.674a5296 5296 0 0 0-10.456-30.7 905 905 0 0 0-7.434-1.081M560.295 489.423h13.235c5.187 0 9.374-4.164 9.374-9.287V473.4c0-3.49-1.348-6.674-4.493-8.267 0 0-16.461-7.327-16.686-7.45-.776-.43-1.552-1.47-1.552-2.531v-1.041c0-1.572 1.286-2.858 2.9-2.858h7.638c1.593 0 2.88 1.286 2.88 2.858v1.96h9.313v-4.37c0-5.122-4.207-9.286-9.374-9.286h-13.235c-5.187 0-9.395 4.164-9.395 9.287v4.838c0 3.49 1.348 6.675 4.494 8.267 0 0 16.461 7.328 16.686 7.45.776.429 1.552 1.47 1.552 2.53v2.92c0 1.572-1.287 2.858-2.9 2.858h-7.639a2.87 2.87 0 0 1-2.879-2.858v-2H550.9v4.388c0 5.124 4.208 9.288 9.395 9.288zM582.904 419.002h-17.932v-10.247h12.193v-8.838h-12.193V389.67h17.932v-8.838h-27.143v46.988h27.143zM538.667 451.273v-8.818h-29.472v46.968h9.293v-19.065h14.378v-8.838h-14.378v-10.247zM567.852 367.545l14.358-42.681.674.245a608 608 0 0 1 11.172 4l2.859-8.532a584 584 0 0 0-32.8-11.022l-2.86 8.532a600 600 0 0 1 11.315 3.552l.674.224-14.358 42.68c2.982.98 5.984 1.98 8.966 3.022zM471.677 480.605h14.481l2.246 8.838h9.579l-12.724-46.988h-12.683l-12.724 46.988h9.579zm7.251-28.413 4.983 19.574h-9.987l4.983-19.574zM452.643 427.82h9.476l-11.58-46.988h-12.56l-11.581 46.988h9.477l1.981-8.838h12.785l1.981 8.838zm-12.785-17.656 4.411-19.575 4.412 19.575zM543.834 419.002h-17.013v-38.17h-9.211v46.988h26.224zM448.66 451.273v-8.818h-29.492v46.968h29.492v-8.818h-20.178v-10.247h14.378v-8.838h-14.378v-10.247z"/><path fill="#fff" d="M599.611 575.316c0 4.899 3.982 8.879 8.884 8.879s8.884-3.98 8.884-8.88-3.982-8.878-8.884-8.878-8.884 3.98-8.884 8.879m15.889 0c0 3.858-3.124 6.98-6.985 6.98s-6.984-3.122-6.984-6.98 3.124-6.981 6.984-6.981 6.985 3.123 6.985 6.98"/><path fill="#fff" d="M604.86 580.399h1.92v-4.124h1.368l1.92 4.124h2.103l-2.001-4.307a3.01 3.01 0 0 0 2.001-2.838 3.01 3.01 0 0 0-3.002-3.021h-4.289v10.166zm1.899-8.267h2.39c.613 0 1.103.49 1.103 1.122s-.511 1.103-1.103 1.103h-2.39z"/></svg>