<svg xmlns="http://www.w3.org/2000/svg" viewBox="0 0 960 640"><path fill="#00205b" d="M491.56 389.67h-8.312v15.596h8.312a2.866 2.866 0 0 0 2.859-2.858v-9.88a2.866 2.866 0 0 0-2.859-2.857M430.105 332.007c2.818-.49 5.657-.96 8.476-1.388a3.92 3.92 0 0 0 2.655-1.633 4 4 0 0 0 .715-3.021l-1.859-11.512c-.347-2.184-2.451-3.756-4.677-3.41q-4.259.675-8.517 1.41l-.694.122 3.166 19.555.715-.123zM478.101 343.6h6.127c2.246 0 4.064-1.815 4.064-4.04v-27.862c0-2.246-1.838-4.103-4.085-4.103h-6.127c-2.246 0-4.084 1.857-4.084 4.103v27.862c0 2.225 1.817 4.04 4.084 4.04zM478.917 452.19l-5.003 19.576h9.987zM439.847 410.164h8.803l-4.412-19.575zM622.986 342.785c-1.818-.94-3.615-1.878-5.433-2.817a4.16 4.16 0 0 0-1.859-.45 4.1 4.1 0 0 0-3.655 2.226l-12.786 24.759a4.1 4.1 0 0 0-.265 3.103c.327 1.04 1.062 1.877 2.022 2.388 1.817.918 3.615 1.857 5.432 2.796.593.306 1.246.47 1.9.47 1.511 0 2.9-.837 3.594-2.184l12.806-24.76c1.042-2 .266-4.47-1.736-5.511z"/><path fill="#00205b" d="M736.377 258.096a.925.925 0 0 0-.469-1.327c-7.72-2.898-15.012-4.898-22.385-5.94-.592-.081-.939-.714-.653-1.245 6.045-12.104 9.946-26.025 12.867-41.09.122-.652-.47-1.223-1.103-1.06-13.582 3.53-29.124 9.9-42.073 16.085a.852.852 0 0 1-1.205-.572c-1.899-8.37-4.166-17.82-8.802-26.005-.266-.47-.899-.592-1.328-.285-13.684 9.899-25.917 20.779-36.578 32.74a.875.875 0 0 1-1.41-.143 40 40 0 0 0-11.049-11.961.867.867 0 0 0-1.184.163c-17.565 21.718-39.683 46.396-68.236 66.828-.592.429-1.409-.163-1.184-.857 6.474-21.187 16.237-41.375 25.754-59.908.265-.511 0-1.123-.572-1.246-4.003-.898-9.334-1.408-14.399-1.694a.84.84 0 0 1-.653-1.327c12.029-17.82 21.22-39.517 27.061-59.01.164-.551-.265-1.123-.837-1.082-10.049.449-22.201 2.715-32.249 6.205a.842.842 0 0 1-1.103-.94c2.941-16.838 1.573-35.74-1.634-53.253a.887.887 0 0 0-1.164-.674c-7.087 2.674-15.236 6.757-22.629 11.227a.86.86 0 0 1-1.307-.796c1.102-15.84-.634-33.353-4.044-47.437a.84.84 0 0 0-1.083-.592c-5.167 1.796-11.233 4.98-17.033 8.43-.49.285-1.103.06-1.266-.47-5.453-15.962-14.215-31.475-23.651-46.886a.9.9 0 0 0-1.532 0c-9.435 15.411-18.177 30.945-23.65 46.886a.865.865 0 0 1-1.266.47c-5.801-3.45-11.867-6.634-17.034-8.43a.84.84 0 0 0-1.082.592c-3.391 14.104-5.147 31.597-4.044 47.437a.855.855 0 0 1-1.307.796c-7.394-4.47-15.522-8.553-22.63-11.227a.876.876 0 0 0-1.164.674c-3.206 17.513-4.575 36.394-1.634 53.254a.84.84 0 0 1-1.102.939c-10.049-3.49-22.201-5.756-32.249-6.205-.572-.02-1.021.53-.838 1.082 5.841 19.493 15.032 41.19 27.062 59.01.367.552 0 1.307-.654 1.327-5.065.286-10.396.796-14.399 1.694a.862.862 0 0 0-.571 1.246c9.517 18.574 19.3 38.782 25.774 60.01.204.674-.572 1.245-1.144.837-25.284-17.676-49.547-43.6-68.317-66.91a.867.867 0 0 0-1.184-.163c-4.718 3.388-8.292 7.45-11.049 11.96-.307.512-1.021.593-1.41.144-10.661-11.941-22.874-22.841-36.578-32.74-.429-.307-1.062-.184-1.328.285-4.636 8.186-6.903 17.636-8.802 26.005a.847.847 0 0 1-1.205.572c-12.928-6.185-28.491-12.554-42.073-16.085-.633-.163-1.225.408-1.103 1.06 2.921 15.065 6.822 28.986 12.867 41.09a.863.863 0 0 1-.653 1.246c-7.373 1.04-14.665 3.04-22.385 5.939a.925.925 0 0 0-.469 1.327c9.088 15.615 19.565 28.495 31.615 38.538a.85.85 0 0 1-.122 1.408 73 73 0 0 0-13.337 10.247.887.887 0 0 0 0 1.286 323 323 0 0 0 50.038 40.23.898.898 0 0 1 .061 1.47c-6.678 5.165-12.54 10.513-17.585 16.535a.92.92 0 0 0 .103 1.265c13.112 11.594 28.123 21.004 45.565 28.107.653.265.755 1.123.204 1.55-6.209 4.655-11.233 9.82-15.869 15.392-.368.449-.225 1.123.286 1.368 12.458 6.388 27.572 10.532 43.257 13.369.715.123.776 1.123.082 1.327-20.036 6.185-38.417 14.207-56.043 24.004-.572.306-.613 1.123-.102 1.51 12.908 9.574 26.081 17.943 41.399 23.903a.9.9 0 0 1 .245 1.53c-20.934 17.065-38.049 36.68-52.999 58.052-.45.633.081 1.51.857 1.408 21.343-2.714 41.195-6.041 58.31-10.736.735-.204 1.327.55 1 1.225-3.655 7.307-6.964 15.084-9.987 23.249a.924.924 0 0 0 .96 1.224c19.239-2.082 36.722-4.531 50.671-7.695.776-.184 1.369.674.919 1.347-5.902 8.98-10.089 18.718-13.438 29.393-.205.653.367 1.286 1.041 1.164 33.72-6.43 64.416-16.085 91.641-29.148a1.142 1.142 0 0 1 1.634.959c1.634 24.168 10.804 40.987 23.364 54.479.47.51 1.246.53 1.757.06l17.625-16.246a1.32 1.32 0 0 0 .102-1.858c-3.492-3.98-19.524-22.167-16.686-36.006.348-1.654 2.165-2.531 3.697-1.837 20.322 9.185 62.415 23.208 95.48 29.597a.888.888 0 0 0 1.001-1.143c-3.37-10.696-7.536-20.433-13.459-29.434-.449-.674.143-1.531.919-1.347 13.949 3.163 31.432 5.613 50.671 7.695.674.082 1.185-.592.96-1.225-3.023-8.165-6.311-15.941-9.987-23.25-.347-.672.265-1.407 1.001-1.224 17.115 4.695 36.966 8.022 58.309 10.737.776.102 1.307-.776.858-1.408-14.95-21.351-32.065-40.987-53-58.052a.894.894 0 0 1 .246-1.53c15.317-5.961 28.49-14.33 41.398-23.903a.898.898 0 0 0-.102-1.51c-17.605-9.798-36.007-17.8-56.042-24.004-.695-.225-.633-1.205.081-1.327 15.686-2.837 30.799-6.981 43.258-13.37a.89.89 0 0 0 .265-1.367c-4.636-5.573-9.681-10.737-15.869-15.391a.892.892 0 0 1 .204-1.551c17.442-7.104 32.453-16.513 45.565-28.107a.92.92 0 0 0 .102-1.266c-5.044-6.021-10.906-11.37-17.584-16.533-.49-.388-.47-1.143.061-1.47a322 322 0 0 0 50.038-40.232.89.89 0 0 0 0-1.286 71.2 71.2 0 0 0-13.337-10.246.852.852 0 0 1-.122-1.41c12.07-10.041 22.547-22.921 31.615-38.536zm-163.838 63.542a599 599 0 0 0-11.314-3.552l2.859-8.532a567 567 0 0 1 32.8 11.023l-2.859 8.532a559 559 0 0 0-11.172-4.001l-.674-.224-14.358 42.68a750 750 0 0 0-8.965-3.02l14.357-42.681zm-16.788 59.194h27.143v8.839h-17.932v10.246h12.193v8.839h-12.193v10.246h17.932v8.839h-27.143zm-4.861 94.915h9.314v2c0 1.572 1.286 2.858 2.879 2.858h7.639c1.593 0 2.9-1.286 2.9-2.857v-2.92c0-1.061-.756-2.102-1.552-2.53-.225-.123-16.686-7.451-16.686-7.451-3.146-1.592-4.494-4.776-4.494-8.267v-4.837c0-5.123 4.208-9.287 9.375-9.287H573.5c5.188 0 9.375 4.164 9.375 9.287v4.368h-9.313v-1.96c0-1.571-1.287-2.857-2.88-2.857h-7.639c-1.593 0-2.9 1.286-2.9 2.857v1.04c0 1.063.756 2.104 1.552 2.533.225.122 16.686 7.45 16.686 7.45 3.146 1.592 4.494 4.776 4.494 8.267v6.736c0 5.123-4.208 9.287-9.375 9.287h-13.234c-5.188 0-9.375-4.164-9.375-9.287zm-15.542-140.902 5.188-30.618a566 566 0 0 1 9.292 1.776l-9.027 53.254c-2.45-.49-4.902-.96-7.373-1.43a4190 4190 0 0 0-10.457-30.78l-.898-2.633-5.188 30.597a511 511 0 0 0-9.354-1.367l9.027-53.255c2.472.347 4.963.694 7.434 1.082a5297 5297 0 0 1 10.457 30.7zm-2.492 126.675v8.838h-14.378v19.085h-9.313v-46.987h29.492v8.838h-20.179v10.247h14.378zm-15.256-33.7v-46.988h9.211v38.15h17.013v8.838zm-90.477-221.1c12.724 19.085 29.369 34.985 49.487 47.253a.22.22 0 0 0 .163-.02s.041-.041.041-.082a1047 1047 0 0 1 .388-43.885c0-.49-.204-.96-.613-1.266-11.212-8.553-20.28-19.27-27-31.863l.245-.143c7.557 11.594 16.972 21.555 27.184 28.8.123.083.327 0 .327-.162.184-5.327.368-9.736.572-13.921a1508 1508 0 0 0 1.797-37.64 1.96 1.96 0 0 0-.429-1.244c-9.272-11.166-16.4-21.596-21.771-31.924l.245-.143c6.494 10.104 13.826 19.513 21.833 27.944a.3.3 0 0 0 .122.06c.082 0 .184-.06.184-.163.613-19.738.837-39.517.674-58.806h.286c1.613 18.167 2.389 56.929 1.797 90.118 0 .06.021.143.082.184.081.082.204.102.286.04 8.68-4.265 17.462-10.328 26.857-18.533l.204.204c-8.517 9.124-17.381 16.207-27.061 21.636a.9.9 0 0 0-.45.735 711 711 0 0 1-.204 8.104c-.858 18.738-.858 40.925 0 67.828 0 .184.225.266.347.184 21.997-15.697 38.478-32.577 48.997-50.152l.245.143c-8.558 17.779-26.469 37.803-49.14 54.969a.73.73 0 0 0-.285.592c.143 4.184.306 8.45.49 12.676a.5.5 0 0 1-.123.326.42.42 0 0 1-.306.123h-4.779a.48.48 0 0 1-.429-.43 984 984 0 0 1-.51-18.88.56.56 0 0 0-.246-.45c-20.178-12.797-38.315-31.74-49.752-51.967l.245-.143zm15.726 254.8v8.838h-14.378v10.247h20.179v8.838h-29.492v-46.987h29.492v8.838h-20.179v10.247h14.378zm-5.003-42.518-1.981 8.839h-9.477l11.58-46.988h12.561l11.58 46.988h-9.477l-1.981-8.84zm34.72 23.454h12.683l12.724 46.987h-9.579l-2.246-8.838h-14.481l-2.246 8.838h-9.579zm-8.292-99.835v-33.516c0-5.715 4.595-10.43 10.252-10.491 2.206-.021 4.412-.041 6.597-.041s4.412 0 6.618.04c5.657.062 10.252 4.777 10.252 10.492v33.516c0 5.614-4.452 10.023-10.232 10.002-7.25-.081-12.295 0-13.377 0-5.678 0-10.11-4.388-10.11-10.022zm30.063 71.462h-11.09v13.737h-9.211v-46.988h20.301c5.127 0 9.293 4.144 9.293 9.267v14.697c0 5.123-4.166 9.287-9.293 9.287m-57.124-112.408a10 10 0 0 1 1.511-.122c5.045 0 9.476 3.796 10.293 8.818l2.758 17.105c.735 4.552-1.736 8.98-5.985 10.798l-.816.347.51.714c3.35 4.756 6.699 9.512 10.069 14.288-3.043.409-6.127.837-9.191 1.286-3.41-4.817-6.821-9.614-10.211-14.39l-.266-.367-.429.08c-1.307.226-2.614.43-3.942.675l-.694.122 2.573 16.003a369 369 0 0 0-9.292 1.715l-8.619-53.336a519 519 0 0 1 21.71-3.715zm-30.289 178.93v8.838h-27.51v-46.987h9.313v38.149h18.218zm-1.674-52.785v-21.677l-8.313 18.799-8.312-18.8v21.678h-9.211v-46.988h7.332l10.212 23.556 10.211-23.556h7.333v46.988zm-91.192-134.35a.8.8 0 0 0-.572-.225h-1.409c-13.847 0-26.346-3.531-38.212-10.777l.143-.245c11.233 5.348 21.73 7.94 32.105 7.94 1.491 0 2.982-.061 4.453-.163a265 265 0 0 0-7.189-6.961c-15.114-14.737-27.593-28.025-38.172-40.62l.204-.183c12.581 13.125 23.487 23.943 33.393 33.026l.143-.04c1.348-8.35.674-16.228-2.043-24.045l.266-.103c3.921 8.063 5.514 16.88 4.718 26.23-.041.367.122.734.388.979a575 575 0 0 1 25.203 23.556c.02 0 .04 0 .04-.021 0-10.961-2.961-20.78-9.088-30.005l.225-.163c8.128 9.49 12.356 20.738 12.58 33.414 0 .367.143.714.409.979 1.225 1.266 2.451 2.51 3.615 3.715a.38.38 0 0 1 .102.327.35.35 0 0 1-.204.265l-3.268 1.552s-.123.04-.184.04a.49.49 0 0 1-.327-.142c-6.617-7.206-12.274-13.207-17.298-18.31zm44.258 90.179-20.709-39.987-.633.327a719 719 0 0 0-10.417 5.654l-4.146-8.001c10.028-5.593 20.363-10.921 30.718-15.901l4.146 8a644 644 0 0 0-10.641 5.247l-.633.327L366.71 379.3c-2.798 1.429-5.637 2.878-8.394 4.348m16.359-66.4a637 637 0 0 1 12.52-4.245 10.2 10.2 0 0 1 3.145-.49c4.432 0 8.517 2.939 9.947 7.144l10.763 31.74a9.83 9.83 0 0 1-.511 7.675c-1.225 2.429-3.329 4.246-5.984 5.103a650 650 0 0 0-12.54 4.246 10.6 10.6 0 0 1-3.451.592 10.02 10.02 0 0 1-9.477-6.797l-10.763-31.741c-1.838-5.41 1.001-11.35 6.351-13.226M547.99 526.778c-5.596 0-10.804-.551-15.685-1.368-.082 0-.143.082-.082.143 4.779 4.654 14.317 9.389 19.689 11.492l2.552 1-2.695-.45c-6.291-1.06-19.444-7.286-26.612-13.512a.55.55 0 0 0-.307-.143c-11.723-2.674-21.771-6.246-31.82-6.246-13.05 0-22.568 3-27.265 15.983-.245-2.92.02-5.491.735-7.757.02-.102 0-.183-.082-.245-2.553-1.694-12.233-7.695-21.833-7.695-14.398 0-32.984 16.187-47.239 17.84 6.903-2.347 14.643-7.532 22.445-12.267.062-.041.061-.143-.02-.164-13.153-2.572-29.717.266-47.26 4.695 16.808-6.532 33.984-10.002 51.896-7.348.082 0 .184 0 .265-.041 6.74-3.817 13.419-6.777 19.525-6.777 11.376 0 21.139 5.899 24.1 7.838.082.062.164.02.225-.061 4.534-6.654 13.868-9.348 23.712-9.348 15.563 0 39.581 11.532 58.697 11.532 20.975 0 26.939-1.898 33.209-3.225-5.902 2.429-15.297 6.144-36.191 6.144zm86.576-176.317-15.4 29.78a9.92 9.92 0 0 1-8.863 5.409c-1.655 0-3.329-.428-4.82-1.224a540 540 0 0 0-11.764-6.083c-2.472-1.245-4.31-3.347-5.147-5.94a9.9 9.9 0 0 1 .653-7.654l15.4-29.781c1.777-3.45 5.453-5.695 9.374-5.695 1.593 0 3.125.368 4.555 1.082a532 532 0 0 1 11.743 6.062c5.004 2.654 6.924 8.94 4.289 14.023zm7.679-54.704c1.368.082 2.757.122 4.126.122 9.558 0 18.83-2.122 29.226-6.715l.122.245c-10.661 6.51-22.609 9.777-36.537 9.94-.429 0-.858.184-1.165.49a570 570 0 0 0-10.559 11.268.52.52 0 0 1-.388.163c-.081 0-.163 0-.224-.061l-3.329-1.715c-.102-.061-.184-.143-.205-.265 0-.123 0-.225.103-.306 8.434-8.716 17.707-17.575 27.51-26.332.286-.265.449-.653.429-1.061-.796-10.492.327-19.738 3.41-28.25l.266.082c-1.736 8.777-2.022 17.758-.796 26.004 0 .06.06.102.122.102.02 0 .062 0 .082-.041 12.949-12.267 24.978-23.983 36.783-35.863l.204.184c-9.967 11.634-20.832 23.412-32.31 35.006a684 684 0 0 0-16.972 16.738c-.041.04-.041.102-.02.122 0 0 .04.082.102.082z"/><path fill="#00205b" d="M391.157 358.95c.449 0 .899-.081 1.328-.224 1.919-.674 3.86-1.327 5.78-1.96a4.12 4.12 0 0 0 2.369-2.041c.49-.98.551-2.061.204-3.102l-8.946-26.393a4.11 4.11 0 0 0-3.901-2.796c-.428 0-.878.06-1.286.204-1.94.653-3.881 1.306-5.801 1.959a4.1 4.1 0 0 0-2.532 5.205l8.945 26.393a4.04 4.04 0 0 0 3.84 2.755"/><path fill="#fff" d="M476.63 258.85a.56.56 0 0 1 .245.45 984 984 0 0 0 .511 18.88c0 .226.184.41.429.41h4.779v.02a.42.42 0 0 0 .306-.122.46.46 0 0 0 .123-.327 1361 1361 0 0 1-.49-12.676c0-.224.102-.45.286-.592 22.67-17.166 40.581-37.19 49.139-54.97l-.245-.141c-10.518 17.574-27 34.455-48.997 50.15-.122.083-.347 0-.347-.182-.837-26.903-.837-49.091 0-67.83.082-2.53.143-5.163.205-8.102 0-.306.183-.592.449-.735 9.68-5.43 18.544-12.513 27.06-21.637l-.203-.204c-9.375 8.206-18.157 14.268-26.857 18.534-.102.04-.225.02-.286-.041a.3.3 0 0 1-.082-.183c.572-33.21-.204-71.952-1.797-90.14h-.286c.163 19.31-.061 39.09-.674 58.828 0 .102-.102.163-.184.163 0 0-.081 0-.122-.061-7.986-8.43-15.338-17.84-21.833-27.944l-.245.143c5.37 10.329 12.499 20.779 21.77 31.924.287.347.45.796.43 1.245-.45 12.799-1.041 25.454-1.797 37.64a975 975 0 0 0-.572 13.92c0 .184-.204.245-.327.164-10.211-7.246-19.606-17.207-27.183-28.801l-.246.143c6.72 12.594 15.788 23.31 27 31.862.388.307.613.776.613 1.266a983 983 0 0 0-.388 43.885c0 .04 0 .082-.041.082-.041.04-.102.04-.163.02-20.097-12.267-36.742-28.147-49.487-47.253l-.245.143c11.438 20.228 29.574 39.17 49.752 51.968zM331.684 311.922s.122 0 .184-.041l3.267-1.551c.102-.061.184-.143.205-.265s0-.245-.103-.327c-1.164-1.204-2.369-2.47-3.614-3.715a1.37 1.37 0 0 1-.409-.98c-.225-12.675-4.452-23.922-12.581-33.414l-.225.164c6.128 9.226 9.109 19.044 9.089 30.005 0 .02-.02.04-.041.02a574 574 0 0 0-25.203-23.555 1.13 1.13 0 0 1-.388-.98c.797-9.348-.796-18.166-4.718-26.23l-.265.103c2.737 7.838 3.411 15.697 2.042 24.045l-.143.04c-9.885-9.103-20.811-19.9-33.392-33.025l-.204.184c10.579 12.594 23.058 25.882 38.171 40.619a265 265 0 0 1 7.189 6.96 64 64 0 0 1-4.452.164c-10.375 0-20.893-2.593-32.106-7.94l-.143.245c11.866 7.246 24.365 10.777 38.213 10.777h1.409c.225 0 .408.082.572.224 5.024 5.103 10.681 11.084 17.299 18.31a.4.4 0 0 0 .326.143zM659.115 278.814c11.478-11.594 22.343-23.371 32.31-35.006l-.204-.184a1742 1742 0 0 1-36.783 35.864.16.16 0 0 1-.082.04c-.041 0-.102-.02-.122-.102-1.226-8.246-.96-17.227.796-26.004l-.265-.082c-3.084 8.512-4.208 17.758-3.41 28.25.02.388-.124.796-.43 1.06-9.824 8.758-19.076 17.617-27.51 26.333a.36.36 0 0 0-.103.306c0 .122.082.204.205.265l3.329 1.715s.163.06.224.06a.56.56 0 0 0 .388-.162c3.105-3.41 6.577-7.104 10.559-11.268a1.64 1.64 0 0 1 1.164-.49c13.929-.163 25.877-3.408 36.538-9.94l-.122-.245c-10.375 4.572-19.668 6.716-29.226 6.716-1.369 0-2.758-.041-4.126-.123-.061 0-.102-.061-.102-.082 0-.02-.021-.081.02-.122a595 595 0 0 1 16.972-16.738zM492.254 512.325c-9.844 0-19.177 2.694-23.711 9.349-.062.08-.143.102-.225.06-2.962-1.938-12.724-7.837-24.1-7.837-6.127 0-12.785 2.96-19.525 6.777a.4.4 0 0 1-.265.04c-17.912-2.633-35.088.837-51.897 7.349 17.565-4.45 34.108-7.267 47.26-4.695.082 0 .103.122.021.163-7.802 4.736-15.543 9.92-22.446 12.268 14.236-1.654 32.821-17.84 47.24-17.84 9.599 0 19.28 5.98 21.833 7.695.082.06.102.143.082.245-.695 2.266-.981 4.838-.736 7.756 4.698-12.981 14.215-15.982 27.266-15.982 10.028 0 20.076 3.572 31.82 6.246.102.02.204.082.306.143 7.169 6.226 20.342 12.472 26.612 13.513l2.696.449-2.553-1.001c-5.371-2.102-14.91-6.838-19.688-11.491-.062-.062 0-.143.081-.143 4.882.816 10.069 1.367 15.686 1.367 20.873 0 30.268-3.715 36.19-6.144-6.27 1.327-12.254 3.225-33.208 3.225-19.117 0-43.115-11.532-58.698-11.532zM346.654 339.008a644 644 0 0 1 10.641-5.246l-4.146-8.001c-10.355 4.98-20.689 10.308-30.717 15.9l4.146 8.002a719 719 0 0 1 10.416-5.654l.633-.327 20.71 39.987a647 647 0 0 1 8.394-4.348l-20.71-39.986zM388.584 369.014c1.164 0 2.328-.205 3.451-.592a475 475 0 0 1 12.54-4.246c2.635-.857 4.759-2.674 5.985-5.103 1.205-2.388 1.368-5.103.51-7.675l-10.763-31.74c-1.43-4.205-5.514-7.144-9.946-7.144-1.062 0-2.124.163-3.146.49a565 565 0 0 0-12.519 4.245c-5.331 1.878-8.19 7.818-6.352 13.227l10.763 31.74a10 10 0 0 0 9.477 6.798m-7.659-44.396c1.94-.674 3.86-1.327 5.8-1.96a4.13 4.13 0 0 1 5.188 2.593l8.945 26.392a4 4 0 0 1-.204 3.103 4.04 4.04 0 0 1-2.369 2.04c-1.94.654-3.86 1.307-5.78 1.96a4.042 4.042 0 0 1-5.167-2.531l-8.946-26.392a4.1 4.1 0 0 1 2.533-5.205M487.782 352.643c5.8 0 10.232-4.388 10.232-10.002v-33.516c0-5.715-4.596-10.41-10.253-10.491-2.206-.021-4.411-.041-6.617-.041s-4.412 0-6.597.04c-5.657.062-10.253 4.777-10.253 10.492v33.516c0 5.614 4.453 10.023 10.11 10.023 1.083 0 6.127-.082 13.378 0zm-13.766-40.946c0-2.245 1.838-4.103 4.085-4.103h6.127c2.246 0 4.085 1.858 4.085 4.103v27.862c0 2.225-1.818 4.042-4.065 4.042h-6.127c-2.267 0-4.085-1.817-4.085-4.042v-27.862zM471.667 480.605h14.48l2.247 8.838h9.579l-12.724-46.988h-12.683l-12.724 46.988h9.578zm7.25-28.413 4.984 19.574h-9.987l4.983-19.574zM503.63 404.796v-14.697c0-5.123-4.167-9.267-9.293-9.267h-20.301v46.988h9.211v-13.737h11.09c5.126 0 9.293-4.164 9.293-9.287m-9.211-2.39a2.867 2.867 0 0 1-2.859 2.859h-8.313V389.67h8.313a2.867 2.867 0 0 1 2.859 2.858zM379.394 442.455v46.968h27.531v-8.818h-18.218v-38.15zM414.461 380.832h-7.332l-10.192 23.555-10.211-23.555h-7.332v46.988h9.231v-21.677l8.312 18.819 8.313-18.82v21.678h9.211zM433.414 357.012l-2.574-16.003.695-.123c1.307-.224 2.614-.45 3.941-.673l.429-.082.266.367c3.41 4.777 6.801 9.574 10.211 14.39 3.064-.448 6.148-.897 9.191-1.285a4072 4072 0 0 0-10.069-14.288l-.51-.715.817-.347c4.248-1.817 6.719-6.246 5.984-10.798l-2.757-17.105c-.817-5.021-5.229-8.818-10.294-8.818-.511 0-1.021.04-1.511.123a519 519 0 0 0-21.711 3.715l8.619 53.336a738 738 0 0 1 9.293-1.715zm-6.495-44.56c2.839-.49 5.657-.96 8.516-1.408 2.227-.347 4.33 1.225 4.677 3.409l1.859 11.512a3.97 3.97 0 0 1-.715 3.02 4.12 4.12 0 0 1-2.655 1.634c-2.839.449-5.657.898-8.476 1.388l-.715.123-3.165-19.555.694-.122zM452.632 427.82h9.477l-11.58-46.988h-12.561l-11.58 46.988h9.477l1.981-8.838h12.785l1.981 8.838zm-12.785-17.656 4.412-19.575 4.411 19.575zM538.657 451.273v-8.818h-29.471v46.968h9.292v-19.065h14.378v-8.838h-14.378v-10.247zM516.558 300.39l-9.027 53.254c3.105.429 6.229.898 9.354 1.368l5.188-30.598.898 2.634a5389 5389 0 0 1 10.457 30.78c2.451.45 4.922.939 7.373 1.429l9.027-53.254a546 546 0 0 0-9.292-1.776l-5.188 30.618-.898-2.674a5452 5452 0 0 0-10.457-30.7 906 906 0 0 0-7.435-1.081M560.285 489.423h13.235c5.187 0 9.374-4.164 9.374-9.287V473.4c0-3.49-1.348-6.674-4.493-8.267 0 0-16.462-7.327-16.686-7.45-.776-.43-1.553-1.47-1.553-2.531v-1.041c0-1.572 1.287-2.858 2.901-2.858h7.638c1.593 0 2.88 1.286 2.88 2.858v1.96h9.313v-4.37c0-5.122-4.207-9.286-9.374-9.286h-13.235c-5.188 0-9.374 4.164-9.374 9.287v4.838c0 3.49 1.348 6.675 4.493 8.267 0 0 16.461 7.328 16.686 7.45.776.429 1.552 1.47 1.552 2.53v2.92c0 1.572-1.287 2.858-2.9 2.858h-7.639a2.87 2.87 0 0 1-2.879-2.858v-2h-9.313v4.388c0 5.124 4.207 9.288 9.374 9.288zM582.894 419.002h-17.932v-10.267h12.193v-8.818h-12.193V389.67h17.932v-8.838h-27.143v46.988h27.143zM543.824 419.002h-17.013v-38.17H517.6v46.988h26.224zM567.842 367.545l14.358-42.682.674.225a608 608 0 0 1 11.171 4l2.86-8.531a583 583 0 0 0-32.801-11.023l-2.859 8.532a599 599 0 0 1 11.315 3.552l.674.225-14.358 42.68a508 508 0 0 1 8.966 3.022M448.65 451.273v-8.818h-29.492v46.968h29.492v-8.818h-20.179v-10.247h14.379v-8.838h-14.379v-10.247zM630.257 336.436a534 534 0 0 0-11.744-6.062 10.1 10.1 0 0 0-4.555-1.082c-3.9 0-7.577 2.225-9.374 5.695l-15.399 29.78c-1.246 2.409-1.471 5.124-.654 7.655.837 2.592 2.676 4.695 5.147 5.94a497 497 0 0 1 11.764 6.083 10.3 10.3 0 0 0 4.82 1.224 9.96 9.96 0 0 0 8.864-5.41l15.399-29.78c2.635-5.082.694-11.37-4.289-14.022zm-5.535 11.88-12.806 24.759a4.04 4.04 0 0 1-3.594 2.184 4.15 4.15 0 0 1-1.9-.47 440 440 0 0 0-5.433-2.795 3.98 3.98 0 0 1-2.021-2.39 4 4 0 0 1 .265-3.101l12.785-24.76a4.11 4.11 0 0 1 3.656-2.225c.633 0 1.287.164 1.859.449 1.817.919 3.635 1.858 5.432 2.817a4.085 4.085 0 0 1 1.736 5.51z"/><path fill="#00205b" d="M598.253 575.295c0 4.899 3.982 8.879 8.884 8.879s8.884-3.98 8.884-8.88-3.982-8.878-8.884-8.878-8.884 3.98-8.884 8.879m15.869 0c0 3.858-3.125 6.98-6.985 6.98s-6.985-3.122-6.985-6.98 3.125-6.981 6.985-6.981 6.985 3.123 6.985 6.98"/><path fill="#00205b" d="M603.481 580.378h1.92v-4.123h1.369l1.919 4.123h2.104l-2.001-4.307a3.01 3.01 0 0 0 2.001-2.837 3.01 3.01 0 0 0-3.002-3.021h-4.289v10.165zm1.92-8.267h2.39c.612 0 1.103.49 1.103 1.123s-.511 1.102-1.103 1.102h-2.39z"/></svg>