<svg height="500" viewBox="0 0 500 500" width="500" xmlns="http://www.w3.org/2000/svg"><g fill="none"><path d="m0 0h500v500h-500z"/><path d="m251.024 392.328c81.738 0 162.272-27.711 205.168-70.61 21.786-21.783 33.3-46.938 33.3-72.761 0-25.633-11.364-50.539-32.853-72.03-42.565-42.559-123.275-70.059-205.615-70.059-57.659 0-116.497 13.57-161.429 37.232-51.33 27.027-79.596 64.268-79.596 104.856 0 25.453 11.403 50.307 32.982 71.879 21.566 21.559 52.9 39.702 90.624 52.458 36.816 12.455 77.423 19.033 117.418 19.033" fill="#fffffe"/><path d="m93.154 150.86c-48.696 25.642-75.516 60.482-75.516 98.097 0 23.383 10.633 46.366 30.749 66.484 20.736 20.729 51.05 38.235 87.664 50.617 36.041 12.188 75.8 18.633 114.974 18.633 79.811 0 158.227-26.842 199.768-68.377 20.318-20.311 31.059-43.604 31.059-67.357 0-23.564-10.585-46.603-30.615-66.63-41.201-41.199-119.793-67.818-200.211-67.818-56.454 0-113.997 13.247-157.87 36.35" fill="#000"/><path d="m250.882 371.152c70.456 0 137.225-22.992 174.238-59.996 18.67-18.672 28.537-39.982 28.537-61.635 0-21.649-9.867-42.959-28.537-61.627-37.018-37.009-103.782-59.996-174.238-59.996-51.734 0-103.236 12.769-141.295 35.038-39.647 23.198-61.485 53.947-61.485 86.584 0 21.654 9.871 42.963 28.546 61.635 37.009 37.004 103.774 59.996 174.234 59.996" fill="#b3995d"/><path d="m251.248 366.833c103.275 0 187.001-53.499 187.001-117.961s-83.726-116.718-187.001-116.718c-103.279 0-187.001 52.256-187.001 116.718s83.722 117.961 187.001 117.961" fill="#a00"/><path d="m397.517 234.209h-.516v-4.259h-74.195c-1.592-8.342-6.39-16.086-13.244-22.131-6.751-7.757-16.553-13.591-27.719-15.807l-4.621-.955c-10.71-2.25-19.17-4.031-53.197-3.855 0-.004-6.545-.224-12.9-1.067-1.609-.409-3.016-.895-4.225-1.42.469-2.831 5.645-6.733 11.493-7.486.602-.112 37.431-6.888 75.336 17.661l.929.598h24.914v-38.119h-4.26v-4.259h-34.187l-5.762 4.401c-9.845-2.465-58.051-13.015-99.686 5.21-17.496 7.228-28.352 20.871-27.577 34.728.392 6.987 3.735 13.079 9.518 17.803 4.251 5.309 10.938 9.448 19.647 11.96 12.324 3.549 22.762 5.012 32.883 5.593v17.377h4.256v4.259h13.003c5.383 0 6.769 2.982 7.1 4.092-16.592-1.084-41.82-5.804-60.392-22.987l-.697-.753h-.133c-1.024-.981-2.031-1.996-3.016-3.055l-1.114-1.2h-18.692v54.257h4.26v4.251h15.25c2.233.159 9.316-.628 14.208-14.916 7.93 2.766 27.474 8.648 51.54 9.302v33.756c-.835 11.337-25.809 14.882-34.505 15.226l-3.597.142v16.783h4.256v4.251h109.643v-16.056l-2.793-.74c-.503-.129-.985-.262-1.467-.396v-3.674l-3.421-.293c-6.166-.546-10.908-1.613-14.583-2.926-6.898-3.863-8.077-6.996-8.227-7.503v-17.997h32.134c3.395.512 6.304 2.001 8.769 3.932 4.626 5.696 6.738 12.21 6.769 12.318l.822 2.637 2.758.009h.09c.383.968.581 1.579.594 1.613l.818 2.642 2.762.004h14.505v-65.288h-4.26v-4.259h-17.194l-.615 2.982c-4.501 21.697-29.596 21.378-51.906 18.126 4.376-1.187 8.769-2.633 13.15-4.371 11.945-4.745 20.908-11.199 26.497-18.762h48.163c3.356.108 6.209.951 8.61 2.521 5.047 7.4 4.544 18.311 4.535 18.435l-.211 3.95h4.479l-.004.301-.215 3.95 3.954.009h15.237v-50.544h-3.748" fill="#000"/><path d="m320.701 247.577c3.507-4.242 3.67-13.879 3.67-13.879h68.881v43.049h-11.485s1.639-28.438-21.153-29.17h-39.914zm-81.235 36.763c15.499.331 28.645-2.956 28.645-2.956 3.946-.873 57.311 14.787 64.531-20.023h10.392v57.793h-10.757s-6.381-20.789-22.969-23.159h-36.291v22.067s.138 15.471 30.491 18.1v9.431h-102.147v-9.431s36.928-1.437 38.107-18.762v-33.059zm31.867-56.864c-4.94-1.502-12.087-1.824-20.31-2.138-29.423-1.123-47.939 2.383-76.984-5.989-32.965-9.5-27.048-40.717 3.141-53.194 44.914-19.662 99.006-4.556 99.006-4.556l6.205-4.741h29.174v30.628h-20.06c-39.746-25.745-77.857-18.233-77.857-18.233-12.401 1.605-24.436 15.278-3.287 20.565 6.751.912 13.679 1.132 13.679 1.132 38.378-.202 43.696 2.087 57.074 4.737 34.768 6.892 54.002 50.853 3.464 70.924-52.173 20.716-107.035-1.609-107.035-1.609-4.557 17.14-11.665 16.048-11.665 16.048h-11.67v-46.762h13.305c31.188 33.717 84.608 27.948 84.608 27.948s15.865-.404 26.256-10.209c8.115-9.904 6.829-20.488-7.044-24.549zm-43.584 18.965h-13.855v-12.417c10.74 0 32.651.095 48.154 0 15.594 0 17.681 9.018 11.106 15.118-6.196 5.748-19.174 9.839-34.54 7.043 0 0-1.269-9.745-10.865-9.745z" fill="#fffffe"/></g></svg>