<svg xmlns="http://www.w3.org/2000/svg" viewBox="0 0 960 640"><path fill="#003087" d="M678.476 513.016c-6.585 0-11.931 5.337-11.931 11.926 0 6.582 5.346 11.927 11.931 11.927s11.921-5.345 11.921-11.927c0-6.589-5.337-11.926-11.921-11.926m0 21.294a9.37 9.37 0 0 1-8.657-5.78 9.4 9.4 0 0 1-.711-3.588 9.356 9.356 0 0 1 9.368-9.36 9.36 9.36 0 0 1 9.366 9.36 9.36 9.36 0 0 1-9.366 9.368m4.9-12.132a4.054 4.054 0 0 0-2.499-3.734 4.1 4.1 0 0 0-1.548-.306h-5.747v13.612h2.555v-5.528h1.833l2.581 5.528h2.825l-2.695-5.764a4.04 4.04 0 0 0 2.695-3.808m-4.047 1.489h-3.192v-2.98h3.192c.821 0 1.492.667 1.492 1.491a1.493 1.493 0 0 1-1.492 1.489"/><path fill="#003087" d="M480.001 65.58c-145.655 0-263.721 113.91-263.721 254.425S334.347 574.42 480.002 574.42 743.72 460.514 743.72 320.005 625.649 65.581 480 65.581z"/><path fill="#fc4c02" d="M480.001 84.326c-135.286 0-244.949 105.516-244.949 235.68s109.663 235.671 244.95 235.671S724.948 450.16 724.948 320.005 615.277 84.325 480.001 84.325"/><path fill="#003087" d="M301.154 375.996v-15.385l-15.201-13.35v29.695c4.637-1.238 10.351.345 15.201-.96"/><path fill="#003087" d="M709.369 306.007c-21.571 7.567-48.43 16.393-69.247 23.544-7.009-1.14-11.804 2.784-16.778 6.075-7.417 3.205-16.763 1.92-24.08 5.033-6.822 5.64-16.923 8.021-25.297 4.448-2.25-2.564-5.211-5.669-8.752-4.856-5.565.552-6.728 10.64-13.616 5.382-4.251 2.24-7.97 5.352-12.667 6.486l-7.074 1.751-2.661 5.673-2.427 5.156-1.624 3.462-2.422 5.156-1.624 3.467-2.432 5.156-1.63 3.465-2.417 5.16-19.481 41.474a9.42 9.42 0 0 1-6.35 5.16l-31.403 7.483c.147.15.307.284.402.474l20.78 43.148V448.91a1.955 1.955 0 0 1 2.192-1.95l11.277 1.33a1.953 1.953 0 0 1 1.732 1.945v71.25a1.957 1.957 0 0 1-1.848 1.954l-12.572.75a1.96 1.96 0 0 1-1.86-1.066l-24.586-47.94v45.666a1.97 1.97 0 0 1-1.4 1.883 1.9 1.9 0 0 1-.826.065l-11.276-1.545a1.96 1.96 0 0 1-1.696-1.95V449.37l-13.166 3.139 10.43 66.085a1.56 1.56 0 0 1-.53 1.428 1.56 1.56 0 0 1-1.51.303l-12.637-4.113a1.554 1.554 0 0 1-1.062-1.249l-2.384-14.975-16.538-5.39-3.117 12.333a1.62 1.62 0 0 1-.763.988 1.6 1.6 0 0 1-1.243.119l-12.091-3.926a1.56 1.56 0 0 1-1.036-1.88l10.81-42.175-10.473 2.5a3.55 3.55 0 0 1-4.315-2.912l-6.436-42.234a3.533 3.533 0 0 1 3.01-4.03l105.57-14.534a9.4 9.4 0 0 0 7.17-5.173l6.69-13.585 2.519-5.11 1.689-3.432 2.512-5.114 1.693-3.425 2.51-5.111.677-1.368c-4.911-.31-12.12 3.4-15.79 4.224-5.576 1.69-14.015-1.163-16.048 6.193-3.262 2.419-8.644 3.113-12.48 1.252-4.543-6.972-12.475-1.162-17.728-1.073-8.363 1.272-15.01-5.702-22.81-1.72-10.087 6.079-22.128-5.288-30.618 4.307-5.41.41-10.487-2.153-16.302-1.748-8.524-.026-15.88 2.655-23.822 4.078-8.973 5.905-21.306 3.054-31.644 2.292-5.202 2.1-11.644 1.517-17.288 1.662v56.695c0 3.35-1.73 4.288-4.428.403l-10.774-15.48v-40.66c-3.52-1.826-6.48 2.677-9.74 4.072-3.26 1.545-6.124-1.134-7.501-3.808 0-1.43-.997-2.71-2.421-3.433-1.691-.268-4.636.702-7.21 1.695a205 205 0 0 1-2.878-11.964c2.167-1.362 4.81-3.197 4.05-5.64-1.437-2.965-5.357-2.682-6.364-6.255.426-3.55 1.467-8.205 5.69-9.046 3.13-2.963 2.728-8.926 1.76-13.024-2.828-3.694-6.654-6.696-5.104-11.923 0-1.403-1.433-3.118.012-4.401 3.42-1.394 6.815 1.835 9.23 4.133 2.267.465 2.854-2.127 3.808-3.402.852-1.807-.562-3.957-2.392-4.394-1.557.408-3.006-.722-3.07-2.145.572-2.39 1.367-4.661 4.098-5.328 2.944-1.023 5.815.112 8.202 1.687 2.82 2.558 2.527 6.665 5.38 8.808 3.667-3.397.874-10.354 5.147-13.603 6.094-2.682 12.017-7.217 19.413-6.06 1.995 3.846.657 10.948 7.03 11.234 1.746-1.544 1.885-5.532 5.15-3.957 2.86 1.165 2.677 6.107 6.076 5.408 3.434-6.37-3.081-11.634-2.245-17.712 4.57-2.994 10.632-.413 13.879 3.139 1.454 2.968-4.251 4.656-.308 7.104 5.687-2.13 8.237 4.412 13.25 3.136 3.226-5.933 10.162-6.641 15.962-5.063 8.528-.114 13.474 12.66 22.386 7.598 4.86-3.266 14.303 1.275 15.78-6.497-.581-3.394 1.835-6.541 4.719-7.466 4.793-1.462 9.304 8.483 13.306.988 7.46 2.997 16.258 2.874 24.466 4.188 12.627 6.692 29.234 5.75 43.487 6.192 12.39 6.583 30.005-2.803 44.187-.55l6.633-13.482-55.565-119.68V278.78a3.54 3.54 0 0 1-3.531 3.533h-54.032a3.53 3.53 0 0 1-3.03-1.714l-35.474-59.165v57.346a3.534 3.534 0 0 1-3.53 3.533h-48.167a3.54 3.54 0 0 1-2.5-1.034 3.53 3.53 0 0 1-1.034-2.5V150.47c-50.612 40.465-82.836 101.38-82.836 169.536 0 121.818 102.91 220.57 229.879 220.57s229.875-98.753 229.875-220.57c0-4.706-.202-9.366-.507-13.998ZM345.654 424.352c0 2.656-1.656 4.86-5.043 1.806l-8-7.193c-1.693-1.536-2.156-2.889-2.156-4.674v-3.077c0-1.835-.73-3.375-1.829-4.408l-4.262-3.83c-2.619-2.362-3.205.91-3.205.91v2.257c0 2.553 1.497 4.541 1.497 4.541l16.728 21.763c3.387 4.417 6.27 10.955 6.27 17.431v13.055c0 11.37-4.772 16.161-10.292 11.238l-22.731-20.473c-4.64-4.182-6.671-10.404-6.671-13.49v-11.846c0-3.868.758-5.072 2.261-3.626l9.928 9.073c1.512 1.222 3.01 3.728 3.01 5.151v2.618c0 2.103-.155 4.535 1.381 5.713l4.295 3.67c1.583 1.425 3.621 1.636 3.621-.676v-2.875c0-1.768-.421-3.219-1.543-4.67l-19.869-25.947c-1.766-2.308-3.083-4.616-3.083-8.536v-20.422c0-4.912 5.92-11.624 14.418-3.97l21.95 19.757c1.372 1.238 3.325 3.946 3.325 8.457zm34.725 75.448a1.97 1.97 0 0 1-.992 1.7 1.98 1.98 0 0 1-1.974-.014l-24.271-14.394a1.97 1.97 0 0 1-.96-1.694v-70.997c0-.708.376-1.352.989-1.7a1.95 1.95 0 0 1 1.974.015l11.271 6.683a1.96 1.96 0 0 1 .962 1.685v60.02l12.041 7.131a1.98 1.98 0 0 1 .96 1.697zm170.308 3.153c0 1.948 0 11.098-15.202 13.808l-30.802 5.505a1.98 1.98 0 0 1-1.606-.43 1.977 1.977 0 0 1-.704-1.501v-70.886c0-.946.662-1.745 1.582-1.93l31.53-6.28c15.202-3.024 15.202 6.081 15.202 6.081zM524.922 400.05v-17.922c0-6.03 14.467-10.918 32.314-10.918s32.316 4.889 32.316 10.917v17.922c0 6.031-14.47 10.913-32.316 10.913s-32.314-4.882-32.314-10.913m65.584 31.77a1.57 1.57 0 0 1-.882 1.408l-14.61 7.151a1.55 1.55 0 0 0-.873 1.41v14.435a1.57 1.57 0 0 0 1.484 1.566c.266.013.53-.04.769-.159l11.846-5.795a1.56 1.56 0 0 1 1.52.074c.465.291.747.792.747 1.338v10.141c0 .622-.366 1.183-.931 1.43l-14.512 6.538a1.55 1.55 0 0 0-.923 1.433v13.508c0 .526.27 1.023.715 1.315a1.54 1.54 0 0 0 1.496.11l11.938-5.376a1.56 1.56 0 0 1 1.496.126c.447.286.72.778.72 1.315v10.082c0 .62-.366 1.18-.93 1.43l-28.42 12.796a1.57 1.57 0 0 1-1.499-.112 1.57 1.57 0 0 1-.716-1.324v-71.395c0-.596.334-1.138.877-1.406l28.422-13.913a1.57 1.57 0 0 1 1.523.08 1.58 1.58 0 0 1 .743 1.332zm46.385 30.94-8.833 5.995a1.565 1.565 0 0 1-2.128-.348l-13.229-17.304-2.493 1.73v27.215c0 .52-.262 1.008-.691 1.302l-12.061 8.182a1.563 1.563 0 0 1-2.228-.488 1.6 1.6 0 0 1-.226-.807v-70.593c0-.52.252-1.002.681-1.296l23.698-16.353c7.243-4.993 13.582-4.07 13.582 5.844v18.712c0 12.078-8.891 18.709-8.891 18.709l13.176 17.252a1.55 1.55 0 0 1 .085 1.795 1.6 1.6 0 0 1-.442.455zm32.576-89.305c0 1.642-.165 4.05-1.671 5.599l-8.857 9.16c-1.021 1.055-1.654.379-1.654-.757v-5.563c0-2.745-1.07-2.751-2.564-1.23l-1.417 1.459c-2.069 2.142-2.069 5.22-2.069 6.38v3.87c0 2.419.684 4.17 3.215 4.614l7.062 1.23c3.344.584 7.955 2.809 7.955 8.219 0 4.524 0 12.383-5.943 20.239l-14.474 19.113c-6.002 7.9-11.888 5.68-11.888-5.71v-6.347c0-2.02.521-3.25 1.672-4.298l9.653-9.935c1.654-1.67 2.748-1.672 2.748.948v3.14c0 3.683 2.87.74 4.115-.495 1.248-1.243 1.935-1.974 1.935-4.935v-1.837c0-1.946-1.512-2.695-4.214-3.3l-8.369-1.88c-6.52-1.368-7.54-5.879-7.54-10.916v-7.185c0-5.4.885-10.08 4.808-14.494l15.315-16.892c5.587-6.18 12.182-7.098 12.182 2.52z"/><path fill="#003087" d="m414.43 484.805-4.488-28.255-6.273 24.751zm201.399-67.14-4.948 3.411a1.58 1.58 0 0 0-.673 1.294v12.546c0 .578.318 1.12.831 1.388a1.58 1.58 0 0 0 1.622-.095l3.413-2.363c1.824-1.254 3.308-4.238 3.308-6.794v-7.314c0-2.106-1.576-3.44-3.553-2.074m-86.953 39.355-11.297 2.251v47.684l11.993-2.143c5.913-1.062 5.913-7.748 5.913-7.748v-35.213s0-6.15-6.609-4.83m-97.641-338.385a3.54 3.54 0 0 1 3.538-3.538h84.836a3.53 3.53 0 0 1 3.204 2.05l48.88 105.296 40.723-82.692c-37.439-25.376-83.096-40.33-132.415-40.33-30.452 0-59.502 5.737-86.104 16.056l37.338 72.118zm161.39 154.656c9.733-2.962 18.675-8.202 26.806-15.53 7.259-2.386 15.709-3.782 23.512-2.647l.728 1.018c-.547 2.968-4.272 5.24-6.833 6.783-5.513.11-12.188-.849-16.458 3.37-5.96 6.221-13.47 10.44-19.045 16.522.437 1.974 2.692 3.548 1.417 5.783-4.254 3.002-11.055.734-13.316 6.804-1.882 11.642-16.465 2.624-22.174 10.153-2.783 3.655-11.046 8.093-17.291 9.747l-5.981 12.727c6.951 2.461 16.553 6.157 22.933 5.158 14.892-4.769 20.631-27.432 38.038-26.088 9.798 1.72 18.44-1.248 25.262-7.76 6.671-2.533 7.19 8.223 13.335 7.092.533-3.93.877-8.78 5.384-10.445 2.135-.839 5.563-.552 5.842 2.271-4.709 6.66 5.505 8.816 4.056 15.07.823 2.677 3.936 2.677 6.092 2.006 3.56-6.804 10.935-7.39 17.698-7.77 5.301-7.765 17.857-.519 20.767-11.43l4.901-1.654c-6.927-57.613-36.947-108.454-80.998-143.783l-65.001 138.365c9.877-3.39 23.683-7.335 30.326-15.762"/><path fill="#fff" d="M487.394 393.675a9.4 9.4 0 0 1-7.169 5.173l-105.57 14.534a3.53 3.53 0 0 0-2.944 2.642 3.5 3.5 0 0 0-.066 1.389l6.436 42.233a3.53 3.53 0 0 0 2.866 2.948c.48.088.973.076 1.448-.035l10.475-2.501 6.241-24.368a1.56 1.56 0 0 1 1.895-1.131l20.522 5.019a1.55 1.55 0 0 1 1.173 1.273l1.838 11.659 13.166-3.14v-5.288a1.95 1.95 0 0 1 2.196-1.948l16.35 1.935c.457.04.828.297 1.135.615l31.405-7.485a9.428 9.428 0 0 0 6.349-5.159l19.481-41.475-20.536-10.475zm9.21-18.697 20.433 10.427 1.63-3.465-20.375-10.393zM526.77 364.7l-20.068-10.24-1.017 2.072-.676 1.368 20.136 10.263zm-25.965 1.735 20.294 10.35 1.625-3.467-20.226-10.309zm70.887-143.99-48.879-105.297a3.54 3.54 0 0 0-3.204-2.05h-84.835a3.53 3.53 0 0 0-2.502 1.035 3.55 3.55 0 0 0-1.037 2.503v68.96l-37.338-72.117c-22.252 8.636-42.78 20.475-60.939 34.992v128.31a3.53 3.53 0 0 0 1.035 2.5 3.53 3.53 0 0 0 2.499 1.033h48.167a3.533 3.533 0 0 0 3.53-3.533v-57.346l35.474 59.165a3.53 3.53 0 0 0 3.029 1.714h54.033a3.535 3.535 0 0 0 3.53-3.533V167.504l55.566 119.68-6.634 13.481-23.971 48.683 19.98 10.195 2.661-5.673 12.133-25.849 5.981-12.727 12.328-26.24L627.3 150.687c-4.798-3.846-9.769-7.472-14.884-10.937zM557.235 393.042c17.848 0 32.316-4.887 32.316-10.916s-14.468-10.917-32.316-10.917-32.315 4.888-32.315 10.917 14.468 10.916 32.315 10.916"/></svg>