<svg xmlns="http://www.w3.org/2000/svg" viewBox="0 0 960 640"><path fill="#010101" d="M519.326 539.463c-6.897 0-12.497 5.591-12.497 12.494 0 6.893 5.6 12.492 12.497 12.492s12.488-5.599 12.488-12.492c0-6.903-5.591-12.494-12.488-12.494m0 22.306a9.804 9.804 0 0 1-9.813-9.812 9.8 9.8 0 0 1 9.813-9.807c5.421 0 9.81 4.385 9.81 9.807s-4.389 9.812-9.81 9.812m5.133-12.709a4.235 4.235 0 0 0-4.239-4.232h-6.02v14.26h2.676v-5.791h1.921l2.703 5.791h2.959l-2.822-6.039a4.24 4.24 0 0 0 2.822-3.989m-4.239 1.559h-3.344v-3.12h3.344c.859 0 1.563.699 1.563 1.562a1.56 1.56 0 0 1-1.563 1.558"/><path fill="#fff" d="m759.543 261.372-8.658 15.413 1.427 8.956c-22.91 44.87-47.897 86.513-56.847 101.167-3.469-7.866-8.043-12.513-16.894-17.247 0 0 40.655-73.767 51.649-132.269-30.75 15.229-62.96 30.293-62.96 30.293l55.094-89.131s-105.943 23.175-189.756 31.536C442.246 76.979 360.095 53.5 360.095 53.5s56.9 93.172 67.479 158.318c-115.225-10.817-209.192-33.264-209.192-33.264l100.325 162.279c-58.705 3.484-157.472 6.679-157.472 6.679 25.176 25.173 106.158 57.084 213.258 83.544l19.11 30.929c-62.988 47.478-100.957 112.85-100.957 112.85l6.364 11.665s31.261-1.869 69.606-3.235c0 0 10.437-33.695 53.349-75.398l48.411 78.313 60.711-98.2 6.61-.766 3.669 2.203c-1.004 1.002-1.68 2.938-3.123 5.242 5.037 3.425 5.182 3.995 5.423 10.092 0 0 6.706 2.362 14.992-.357l2.307-4.161 2.823 1.276c.353 2.95 1.172 6.162 1.172 6.162 7.723 3.633 14.26-1.193 14.26-1.193 20.617 4.239 34.564 1.822 39.185.7 20.4 5.616 33.607 1.817 39.08-.558 9.379 3.877 19.096 6.394 46.02 6.394 12.414 0 25.64-.766 25.64-10.027 0-13.001-12.427-60.729-25.033-87.14 0 0 9.255 6.513 17.56 8.174l11.528-8.341c-5.236-6.155-4.241-7.954-3.541-12.723-4.111-3.484-9.866-4.292-9.866-4.292 11.27-12.938 34.814-43.119 62.959-97.137 5.918-.896 13.5-4.372 14.41-13.692 1.003-10.148 1.603-14.523 1.603-24.166-17.818-8.16-39.222-2.299-39.222-2.299z"/><path fill="#010101" d="m689.817 201.435-50.854 81.235a2752 2752 0 0 1 17.27-7.921l54.27-87.787s-92.32 20.166-176.354 28.686c2 3.117 3.956 6.255 5.895 9.436 57.701-6.09 117.905-17.268 149.773-23.649"/><path fill="#010101" d="M697.944 416.114c-7.023-29.206-8.168-34.539-23.677-42.384l-2.57-3.292c28.59-51.196 49.286-112.289 49.286-119.601 0-1.772-.819-2.297-1.884-1.744-45.485 23.059-95.437 43.632-106.484 51.349l-2.963 4.094c-24.458-21.794-45.44-37.118-53.558-42.829-50.848-99.77-128.855-169.9-179.11-195.02 0 10.419 49.742 86.993 57.364 151.338-89.978-6.133-204.105-31.063-204.105-31.063l98.265 158.964c-80.7 4.945-151.497 6.615-151.497 6.615 0 5.611 90.117 48.703 223.166 78.793 29.095 6.596 50.769 5.55 64.939 5.55a546 546 0 0 0-7.929-8.524c19.288 11.76 36.877 23.484 52.716 34.021-3.974.054-8.305.072-13.078.072-31.991 0-56.176-1.668-71.486-2.82-3.793-.292-7.061-.535-9.739-.725-1.359-.083-2.555-.148-3.618-.208l-15.052-24.042c-6.069-1.34-11.872-2.755-15.877-3.733l20.113 32.519c-18.786 13.511-67.025 54.461-101.966 111.538l3.054 5.634s33.76-2.095 62.299-2.902c0 0 12.799-36.509 58.569-78.752l47.254 76.407 57.322-92.726a871 871 0 0 0 11.299-1.3c3.969 2.486 7.798 4.82 11.446 6.921-1.959 1.169-3.607 2.672-4.874 4.922 0 0 3.3 2.261 3.514 6.713 0 0 2.834.457 5.794-.379 0 0 2.018-3.064 3.767-6.762 3.758 1.918 7.292 3.585 10.605 4.909-.03 3.2.508 5.569.508 5.569s3.66 1.116 8.055-2.802c25.408 5.788 40.591.879 40.591.879 25.787 7.634 38.898-.903 38.898-.903 10.1 4.393 18.545 6.928 46.205 6.928 15.011 0 19.968-1.823 19.968-4.351 0-12.064-12.772-61.466-25.53-86.874zM470.375 531.025l-27.01-42.813c10.48-.191 30.441-.814 55.808-2.856z"/><path fill="#010101" d="m705.388 407.131.917 3.367s8.276 5.646 14.254 7.313l4.775-3.443s-2.748-3.514-1.885-8.665c-6.212-4.028-18.061 1.428-18.061 1.428m57.892-140.829-6.471 11.534 1.41 8.825c-29.037 57.117-61.367 108.811-61.367 108.811l3.992 9.696 4.728-3.279 3.23.282s30.952-29.602 70.387-106.039c0 0 11.41.383 12.345-8.869.923-9.356 1.568-15.859 1.568-19.605-14.203-5.162-29.822-1.357-29.822-1.357z"/><path fill="#e57200" d="M434.407 489.001c-.771.641-1.473 1.294-2.229 1.947l38.197 61.008 42.428-67.788c-1.223.125-2.464.232-3.675.333l-38.753 61.958zM683.56 205.756l-49.605 79.254c1.645-.772 3.307-1.534 5.008-2.339l50.854-81.236c-31.867 6.381-92.071 17.559-149.773 23.65.577.949 1.144 1.909 1.72 2.861 54.315-5.854 110.438-16.055 141.796-22.19M415.601 458.909l-14.637-23.366c-1.338-.291-2.692-.576-4.033-.884l15.051 24.042c1.063.059 2.259.124 3.619.208m135.432 38.735c3.915-5.284 6.572-8.655 7.201-10.774-3.455 1.501-7.88 2.326-10.291 5.996 0 0 1.761 1.715 3.09 4.778m20.124 3.627s2.613-.339 4.898-2.63c0 0-2.425-3.751-3.873-7.242-1.722 4.387-1.024 9.872-1.024 9.872zm-12.068-92.501c2.09 16.634 6.084 23.687 6.084 23.687s6.27 4.908 18.207 9.794c-12.056-22.303-24.291-33.481-24.291-33.481M428.5 482.993l4.803-2.689s19.724 3.181 137.918-9.011c-2.815-2.049-4.21-1.645-4.21-6.346 0-1.503.255-1.752-2.321-1.752-2.571 0-3.675-.683-6.717-.683-3.79 0-9.444 3.8-67.358 3.8-46.08 0-78.369-3.871-80.5-3.871-2.104 0-6.254 3.948-18.596 13.873 0 0 24.269-.314 36.981 6.68zm-60.245 74.039c-17.759-3.396-54.434 2.736-54.434 2.736l-9.828 14.17 57.405-2.694zm394.904-272.405c-19.193 34.467-40.071 80.153-62.911 108.414l6.583-4.126 1.442-1.428-1.19 3.876 2.79-1.326-4.197 7.396 3.91-3.137s19.536-21.97 68.942-111.215c-10.988-1.666-15.369 1.546-15.369 1.546m2.018-13.389-4.004 6.333s9.673-1.845 22.546-.769l4.66-6.565c-14.179-2.675-23.202 1-23.202 1z"/><path fill="#e57200" d="M704.234 393.694s-1.826 1.481-4.664 2.271l2.41 5.105 1.488-1.149-.594-1.837 2.482-4.729zm17.135 13.247c-4.016-2.089-11.837 1.005-11.837 1.005s7.937 1.858 12.421 3.9c0 0-.795-1.828-.584-4.905"/><path fill="#00778b" d="M415.601 458.91c2.677.189 5.945.433 9.738.724l-13.897-22.03c-3.236-.558-6.815-1.288-10.478-2.06zm27.764 29.302c-5.251.083-8.135.077-8.135.077-.292.237-.544.481-.823.712l35.969 57.459 38.752-61.958c-3.407.32-6.714.616-9.955.854l-28.798 45.669zm226.033-272.764-47.534 75.389c3.576-1.787 7.681-3.752 12.092-5.826l49.604-79.254c-31.359 6.135-87.481 16.336-141.796 22.19a362 362 0 0 1 3.856 6.485c44.632-4.918 90.354-12.692 123.779-18.984zm-234.044 18.293c0-3.514-.16-7.067-.478-10.677-30.917 3.272-49.344 10.573-56.423 13.888 10.849-3.024 30.098-3.951 56.901-3.211m234.948 142.541s-37.607-52.785-109.925-106.041c6.145 12.709 11.864 25.838 17.01 39.397.73 1.905.622 3.568-1.002 3.568-15.84 0-71.76-30.756-126.692-25.246 28.53 27.169 56.894 65.293 29.392 51.393 0 0 28.717 17.722 62.444 53.264 25.126 0 30.122 4.239 31.599 7.752 2.862 6.783 7.026 18.832 23.476 38.232 7.55 0 8.932-.493 11.697-7.278 0 0 2.057 8.661-1.724 15.014 34.286 27.088 100.859 54.377 111.037 54.377 4.097 0-4.34-37.257-23.62-82.059-6.3-28.378-9.775-36.332-23.692-42.373Zm-312.501-32.263s9.807 5.769 25.909 17.922c-3.953-6.842-14.383-14.289-25.802-21.22l-25.058 1.837 1.849 2.991c7.655-.488 15.357-1.008 23.102-1.531zm147.572 43.887c-3.968 21.441.184 38.651.184 38.651-.679-7.166 4.97-31.198 4.97-31.198zm-12.59-12.24c-3.951 24.603 1.615 44.23 1.615 44.23-1.188-9.041 3.528-35.664 3.528-35.664zm-12.458-11.132c-4.075 26.296 2.277 47.294 2.277 47.294-1.182-11.963 2.876-39.838 2.876-39.838zm-28.343-43.392s-48.355-40.014-108.384-50.091c-2.17 0-6.51 9.124-6.51 9.124s6.356-5.731 8.288-5.731c51.406 9.895 106.606 46.698 106.606 46.698"/><path fill="#fff" d="M589.818 492.361c7.003-4.149 12.134-8.096 12.134-8.096-23.093 1.008-31.796-1.806-31.796-1.806 4.133-4.125 9.295-7.681 12.563-10.946-2.488.392-5.044.665-7.54.878-.03 1.123-1.262 2.399-4.784 4.536a788 788 0 0 1-20.404 3.01c1.897 2.018 3.921 3.983 6.168 5.848 1.564-.512 3.232-1.016 5.014-1.621 0 1.412-.377 3.045-.918 4.678a51 51 0 0 0 9.332 4.992c.362-2.262 1.042-4.625 2.413-6.762 1.17.327 1.805 3.746 2.461 4.684 1.713 2.506 3.963 2.915 4.381 4.98 9.682 2.227 21.965 2.844 38.162.808l4.494-3.644c-23.698.427-31.68-1.538-31.68-1.538zm-38.381-34.733c-10.356 3.306-14.806.991-14.806.991 2.03-2.024 3.343-5.996 3.343-5.996-9.166 2.559-12.009.012-12.009.012 1.454-.878 2.923-4.393 2.923-4.393-11.897 0-18.397 1.96-18.397 1.96 9.881 1.241 16.355 5.58 21.855 11.189 7.75-.552 12.493-1.246 15.815-1.787z"/><path fill="#fff" d="M531.387 451.627s5.019.302 10.834-1.77c0 0 .308 3.895-2.325 7.391 0 0 4.919-.035 15.028-2.374 0 0-.872 2.018-2.093 4.273 1.829-.302 3.207-.498 4.658-.498 3.25 0 3.639.683 6.491.683 5.379 0 6.041 1.116 6.836 7.379 1.089 1.597 2.351 2.678 3.211 3.609 3.981-.308 8.567-.742 13.179-1.395 0 0-5.132 7.124-12.875 12.371 0 0 21.489 2.025 32.619.63 0 0-4.805 5.865-11.415 9.236 0 0 14.853.95 30.806.678 0 0-3.131 3.461-6.25 5.977 0 0 19.714 4.448 33.737 1.111-50.644-20.143-78.516-50.632-120.902-50.632-.628 1.787-1.539 3.331-1.539 3.331M327.07 542.792l-11.391 14.586s33.493-5.225 53.579-2.174l5.576-9.563c-10.951-5.675-47.763-2.849-47.763-2.849z"/><path fill="#fff" d="m332.277 536.261-3.529 4.422s34.576-2.629 47.191 3.2l8.204-12.347c-11.178-1.811-51.866 4.725-51.866 4.725m5.986-7.325-4.024 4.885s41.412-6.453 51.207-4.073l.727-.997c-10.252-3.377-47.909.184-47.909.184zm13.951-16.029-12.077 13.767s33.571-3.486 47.351.385l13.925-16.087c-14.141-2.327-49.199 1.935-49.199 1.935m18.011-18.112-15.912 15.79s29.355-3.976 48.716-1.436l7.611-8.406c-7.251-6.185-40.415-5.948-40.415-5.948"/><path fill="#fff" d="m373.244 492.041-.834.754s28.634-.44 39.622 6.423l1.651-1.739c-8.884-5.047-40.439-5.438-40.439-5.438m15.823-13.678-13.671 11.743s31.897.581 39.726 5.846l11.754-11.592c-10.332-5.866-37.809-5.997-37.809-5.997m-18.284 78.123.433 2.892 4.569-8.02-.445-2.774zm6.085-10.442.469 2.773 7.688-11.232-.502-3.17zm9.249-13.884.541 3.312.739-.95-.636-3.248zm2.223-2.975.65 3.372 13.075-14.716-.549-4.014zm14.871-17.263.573 4.043 7.903-8.448-.999-3.864zm9.05-9.979 1.009 3.911 1.538-1.602-.546-4.482zm3.719-3.989.564 4.535 10.385-10.187-.127-5.277z"/></svg>