<svg xmlns="http://www.w3.org/2000/svg" viewBox="0 0 960 640"><path fill="#010101" d="M719.686 426.367c-6.934 0-12.562 5.621-12.562 12.56 0 6.93 5.628 12.557 12.562 12.557s12.553-5.628 12.553-12.557c0-6.939-5.62-12.56-12.553-12.56m0 22.423a9.9 9.9 0 0 1-3.777-.748 9.87 9.87 0 0 1-5.34-5.34 9.9 9.9 0 0 1-.747-3.776 9.85 9.85 0 0 1 9.864-9.857c5.45 0 9.86 4.407 9.86 9.857s-4.41 9.864-9.86 9.864m5.16-12.775a4.255 4.255 0 0 0-4.261-4.254h-6.051v14.335h2.689v-5.822h1.93l2.718 5.822h2.975l-2.837-6.07a4.265 4.265 0 0 0 2.837-4.01m-4.261 1.567h-3.362v-3.137h3.362a1.567 1.567 0 0 1 1.109 2.678 1.57 1.57 0 0 1-1.11.46"/><path fill="#a2aaad" d="M812.56 236.465c-9.144-63.815-64.926-83.667-98.458-89.883l28.685-18.873s-149.86-32.524-343.695 28.694c-177.094 55.928-266.467 143.694-251.651 247.13 9.143 63.82 64.923 83.668 98.452 89.881L217.21 512.29s149.859 32.522 343.703-28.685c177.09-55.932 266.459-143.694 251.647-247.14"/><path fill="#fff" d="M803.656 239.271c-12.086-84.372-116.297-85.793-116.297-85.793l30.083-19.793S575.159 110.59 400.43 165.772c-154.29 48.722-259.258 128.97-244.081 234.952 12.085 84.385 116.296 85.8 116.296 85.8l-30.08 19.781s142.277 23.1 317.01-32.079c154.29-48.73 259.262-128.967 244.08-234.955"/><path fill="#cd001a" d="M787.473 244.385c-15.434-107.712-182.338-84.902-268.562-57.673-46.181 14.582-76.392 29.384-76.392 29.384 156.413-55.967 266.06-16.015 266.06-16.015-51.901-3.644-100.698 13.18-100.698 13.18s52.427 10.561 59.39 59.214c9.205 64.236-45.474 137.756-214.008 190.981-91.883 29.006-169.194 33.61-169.194 33.61s109.024 16.041 273.629-35.943c152.332-48.105 242.8-125.737 229.775-216.738"/><path fill="#cd001a" d="M480.205 382.535c46.758-14.768 86.483-36.794 107.835-57.806 11.804-11.62 18.016-22.927 16.639-32.527-.53-3.662-2.158-6.874-4.713-9.656-16.238-17.69-71.01-17.447-133.744 2.361-72.604 22.935-128.338 63.37-124.478 90.327 3.863 26.958 65.853 30.228 138.46 7.301"/><path fill="#010101" d="M402.307 178.867C249.969 226.98 159.504 304.613 172.54 395.61c15.424 107.71 182.33 84.91 268.552 57.673 46.183-14.589 76.393-29.387 76.393-29.387C361.069 479.863 251.42 439.91 251.42 439.91c51.904 3.645 100.704-13.173 100.704-13.173s-52.427-10.566-59.39-59.222c-9.2-64.233 45.473-137.753 214.01-190.97 91.882-29.016 169.19-33.62 169.19-33.62s-109.018-16.036-273.628 35.943"/><path fill="#010101" d="M456.39 244.537c-57.854 18.267-88.117 41.395-98.57 65.63l-21.022 48.695s25.515-45.735 128.793-78.346c77.876-24.596 125.413-18.39 134.375 2.03 2.555 2.782 4.183 5.994 4.712 9.656 1.377 9.6-4.835 20.907-16.64 32.527-19.507 27.435-56.754 56.941-89.435 76.871 26.099-8.239 143.233-63.815 134.735-123.149-7.891-55.059-76.336-65.689-176.948-33.914"/><path fill="#010101" d="M468.513 315.527c-30.315 9.577-53.678 25.76-52.187 36.16 1.486 10.396 27.263 11.074 57.577 1.5 30.31-9.575 53.675-25.76 52.189-36.162-1.495-10.4-27.275-11.073-57.58-1.498"/></svg>