<?xml version="1.0" encoding="utf-8"?>
<!-- Generator: Adobe Illustrator 28.3.0, SVG Export Plug-In . SVG Version: 6.00 Build 0)  -->
<svg version="1.1" id="Layer_1" xmlns="http://www.w3.org/2000/svg" xmlns:xlink="http://www.w3.org/1999/xlink" x="0px" y="0px"
	 viewBox="0 0 400 400" style="enable-background:new 0 0 400 400;" xml:space="preserve">
<style type="text/css">
	.st0{fill:#FFFFFF;}
</style>
<g>
	<path d="M342.4,165C325.7,98.1,265.8,53.5,200.2,53.5c-11.7,0-23.6,1.4-35.4,4.4C86.3,77.4,38.8,157.2,58.4,236
		c16.7,66.8,76.5,111.5,142.2,111.5c11.7,0,23.6-1.4,35.5-4.4C314.5,323.5,362.2,243.8,342.4,165z"/>
	<g>
		<path class="st0" d="M346.5,164c-4.2-16.8-11.1-32.6-20.6-46.9c-9.2-13.8-20.5-26-33.6-36.2c-26.3-20.4-59-31.6-92-31.6h0
			c-12.2,0-24.5,1.5-36.5,4.5c-39,9.7-71.9,34.2-92.5,68.8C50.5,157.2,44.6,197.8,54.3,237c4.2,16.8,11.1,32.6,20.6,46.9
			c9.2,13.8,20.5,26,33.6,36.2c26.3,20.4,59,31.6,92,31.6c12.3,0,24.6-1.5,36.6-4.5c39-9.8,71.9-34.2,92.5-68.8
			C350.3,243.8,356.3,203.1,346.5,164z M200.6,347.5c-65.7,0-125.5-44.7-142.2-111.5C38.8,157.2,86.3,77.4,164.8,57.9
			c11.9-3,23.7-4.4,35.4-4.4c65.7,0,125.5,44.7,142.2,111.5c19.8,78.8-27.9,158.5-106.2,178.1C224.2,346.1,212.3,347.5,200.6,347.5z
			"/>
		<g>
			<g>
				<path class="st0" d="M190.1,187.8C190.1,187.8,190.2,187.8,190.1,187.8l5.1,0c5.1-0.2,6.2-0.4,8.5-1c8.3-2.5,8.4-9.6,8.5-13.8
					c0-0.5,0-17.5,0-17.5c0-10.4-4.4-11.9-14.5-11.9H190c-0.7,0.1-0.9,0.5-0.9,1.2c0,0,0.1,41.7,0.1,42.1
					C189.1,187.4,189.3,187.8,190.1,187.8z"/>
				<path class="st0" d="M201.7,202.9c-3.8-0.4-7.6-0.4-11.4-0.4c-0.8,0-0.9,0.6-0.9,1c0,0.4,0.1,44.3,0.1,52.2
					c0,0.9,0.4,1.5,1.4,1.5c0.8,0,11.6,0,11.6,0c6.3-0.2,8.8-1.1,10.8-2.5c3.4-2.6,3.9-6.8,3.9-15.6l-0.1-19.4c0-2.7-0.1-5.6-1-8.3
					c-1-2.6-2.5-4.5-4.7-5.8C208.5,203.9,205,203.3,201.7,202.9z"/>
				<g>
					<path class="st0" d="M204.6,284.9c27.8-8.9,43.3-21.3,59.2-35.4c6.5-5.8,12.1-10.1,16.9-12.9c1-5.8,1.4-11.6,1.2-17.5
						c-11.3,5.5-25.9,10.1-42.2,13.6l0-6.8c17.9-3.9,31.9-9,41.7-14c-0.4-3.5-1-7.1-1.7-10.6c-0.5-2.4-1.1-4.8-1.7-7.1
						c-3.6,1.4-7.6,2.4-12,3c-2.1,0.3-4.2,0.4-6.3,0.4c-9.1,0-18.8-2.4-28.6-6.2c1.5-2.5,1.8-3.6,2.6-6.2
						c11.1,4.3,21.9,6.6,31.4,5.3c4.1-0.6,7.8-1.5,11.1-2.9c-5.2-17-12.7-31.7-22.3-43.9c-9.7-12.2-21.5-22-35.2-29
						c-9.1-4.6-17.7-7.4-25-9.1c-12-2.8-24.6-1.5-35.7,3.7c-14.9,7-27.9,17.5-37.7,30.6c9.8-1.8,26.5-2.2,46,8.4l0,7.7
						c-1-0.6-2-1.1-2.9-1.6c-24.9-13.6-44.6-7.6-48.9-5.9c-8,13.2-13.1,28.3-14.3,44.6c2.4,3.2,10.2,12.4,24.1,21
						c9.7,6,23.6,12.4,42.1,15.6l0,6.8c-20.3-3.3-35.5-10.3-46-16.9c-9.4-5.9-16.1-12-20.5-16.5c0.7,29.5,14.2,55.9,35.2,73.9
						c8.7,7.4,19.5,11.8,30.9,12.4C176.5,289.9,190.6,289.4,204.6,284.9z M173.9,130c0.7-0.6,1.5-1,2.3-1l28.2-0.1
						c0.1,0,0.1,0,0.2,0c7.8,0,14,2.3,18.1,6.9c4.7,5.3,5.3,11.9,5.5,17.6l0.1,20.8c0,1.8,0.1,6.3-1.1,10c-1.3,4.1-3.8,7.4-7.3,9.7
						c2.3,0.9,4.2,2.1,5.8,3.4c7.6,6.3,7.6,15.3,7.6,22.6l0,23.4c-0.2,8.3-0.9,15.7-7.8,21.9c-7.8,6.6-17.1,6.7-20.2,6.7l-28.7,0.1
						c-0.7,0-1.3-0.2-1.8-0.5c-1-0.6-1.5-1.6-1.5-2.7L173,132.2C173,131.4,173.2,130.6,173.9,130z"/>
					<path class="st0" d="M288.6,215.7c0.4,6.2,0.1,12-0.5,17.4c0,0,3-1.1,5.5-1.2c1.6-0.1,2.2,0.1,2.4,0.2
						c2.7-8.1,4.4-16.7,4.9-25.6c-1.7,1.7-3.7,3.4-6.2,5.2C292.8,213.1,290.8,214.4,288.6,215.7z"/>
					<path class="st0" d="M292.9,183.2c-2.3,3.1-5.2,5.7-8.7,7.9c0.8,2.8,1.5,5.8,2.2,8.7c0.6,2.9,1.1,6,1.5,8.8
						c4.2-2.4,10.1-7.2,13-13.1c-0.4-7.3-1.5-14.4-3.3-21.2C296.5,177.2,295.1,180.3,292.9,183.2z"/>
					<path class="st0" d="M206.7,291.3c-11.9,3.8-23.8,5-33.7,5c-1.2,0-2.3,0-3.4,0c9.7,3.1,20.1,4.8,30.8,4.8
						c15.8,0,30.8-3.7,44.1-10.2c10.9-5.3,19.9-13.8,25.7-24.4c1.2-2.1,2.3-4.4,3.5-6.9c2-4.4,3.6-8.9,4.9-13.4
						c-2.9,2.1-6.3,4.9-10.4,8.4C252.4,268.6,235.7,282,206.7,291.3z"/>
					<path class="st0" d="M286.7,241c-1.7,8.1-4.2,15.2-6.7,20.9c5.3-6.9,9.8-14.5,13.2-22.6C292.6,239.1,290.8,239,286.7,241z"/>
					<path class="st0" d="M259.2,139.6c9.9,12.5,17.6,27.5,23,44.7c2.1-1.5,3.8-3.2,5.3-5.2c0.2-0.3,0.4-0.5,0.6-0.8
						c5-7.3,5.4-17,1.2-24.8C272.5,121.7,239,100,200.5,100c-0.6,0-1.2,0-1.8,0c6.9,1.9,14.8,4.6,23.1,8.9
						C236.3,116.3,248.9,126.7,259.2,139.6z"/>
				</g>
			</g>
			<g>
				<g>
					<path class="st0" d="M194,311.6l-10.6-1.2c-0.4,0-0.8,0.3-0.9,0.7l-2.7,24.6c0,0.2,0,0.4,0.2,0.6c0.1,0.2,0.3,0.3,0.5,0.3
						l10.6,1.2c0,0,0.1,0,0.1,0c0.2,0,0.4-0.1,0.5-0.2c0.2-0.1,0.3-0.3,0.3-0.5l0.2-1.5c0-0.4-0.3-0.8-0.7-0.9l-7.7-0.9l1-9l6.3,0.7
						c0.2,0,0.4,0,0.6-0.2c0.2-0.1,0.3-0.3,0.3-0.5l0.2-1.5c0-0.4-0.3-0.8-0.7-0.9l-6.2-0.7l0.9-7.9l7.7,0.9c0.4,0,0.8-0.3,0.9-0.7
						l0.2-1.5c0-0.2,0-0.4-0.2-0.6C194.4,311.7,194.2,311.6,194,311.6z"/>
					<path class="st0" d="M222.1,309.6l-12.6,1.7c-0.4,0.1-0.7,0.5-0.7,0.9l0.2,1.6c0,0.2,0.1,0.4,0.3,0.5c0.2,0.1,0.4,0.2,0.6,0.2
						l4.4-0.6l3.1,22.2c0.1,0.4,0.4,0.7,0.8,0.7c0,0,0.1,0,0.1,0l2.1-0.3c0.2,0,0.4-0.1,0.5-0.3c0.1-0.2,0.2-0.4,0.2-0.6l-3.1-22.2
						l4.5-0.6c0.2,0,0.4-0.1,0.5-0.3c0.1-0.2,0.2-0.4,0.2-0.6l-0.2-1.6C222.9,309.9,222.5,309.6,222.1,309.6z"/>
					<path class="st0" d="M167,306.6l-1.9-0.7c-0.2-0.1-0.4-0.1-0.6,0c-0.2,0.1-0.3,0.3-0.4,0.5l-6.1,16.8l1.2-19
						c0-0.3-0.2-0.7-0.5-0.8l-2.9-1.1c-0.4-0.2-0.9,0.1-1,0.5L146,326c-0.2,0.4,0.1,0.9,0.5,1l1.8,0.7c0.2,0.1,0.4,0.1,0.6,0
						c0.2-0.1,0.3-0.2,0.4-0.4l6.1-16.5c0,0,0-0.1,0-0.1l-1.2,18.7c0,0.3,0.2,0.7,0.5,0.8l3,1.1c0.1,0,0.2,0.1,0.3,0.1
						c0.1,0,0.2,0,0.3-0.1c0.2-0.1,0.3-0.2,0.4-0.4l8.7-23.1c0.1-0.2,0.1-0.4,0-0.6C167.3,306.8,167.2,306.7,167,306.6z"/>
					<path class="st0" d="M248.4,314.2c-5.4-1.8-6.2-2.4-6.9-4.3c-0.4-1-0.5-1.7-0.3-2.3c0.2-0.6,0.8-1.1,1.8-1.5
						c2.6-1,3.1,0.3,3.7,1.8l0.8,2c0.1,0.2,0.2,0.4,0.4,0.4c0.2,0.1,0.4,0.1,0.6,0l1.9-0.8c0.2-0.1,0.4-0.2,0.4-0.4
						c0.1-0.2,0.1-0.4,0-0.6l-0.7-1.7c-0.5-1.2-1.1-2.6-2.3-3.5c-1.5-1.1-3.5-1.1-6.1-0.1c-2.4,1-3.8,2.4-4.2,4.2
						c-0.3,1.5,0.1,3,0.6,4c1.4,3.6,4,4.4,8.3,5.7c4.1,1.3,5.1,1.8,6.1,4.1c0.4,1.1,0.5,1.9,0.3,2.5c-0.2,0.7-0.9,1.2-2,1.6
						c-0.7,0.3-2.1,0.7-3.1,0.2c-0.9-0.4-1.1-1-1.8-2.8l-0.7,0.3l0.7-0.3l-0.7-1.8c-0.2-0.4-0.6-0.6-1-0.4l-1.9,0.8
						c-0.2,0.1-0.4,0.2-0.4,0.4c-0.1,0.2-0.1,0.4,0,0.6l1.3,3.2c0.9,2.3,2.8,3.5,5.1,3.5c1.1,0,2.3-0.3,3.6-0.8
						c6.4-2.6,4.6-7.3,4-8.8C254.4,316.1,252.4,315.5,248.4,314.2z"/>
				</g>
				<g>
					<path class="st0" d="M212.7,90.3l2,0.3c0.2,0,0.4,0,0.6-0.1c0.2-0.1,0.3-0.3,0.3-0.5l1.4-9l1.6-1.8l3.1,12.1
						c0.1,0.3,0.3,0.5,0.6,0.6l2.2,0.3c0,0,0.1,0,0.1,0c0.2,0,0.4-0.1,0.6-0.3c0.2-0.2,0.2-0.5,0.2-0.7l-4-15.3l7.6-8.4
						c0.2-0.2,0.3-0.5,0.2-0.8c-0.1-0.3-0.3-0.5-0.6-0.5l-2.3-0.4c-0.3,0-0.5,0.1-0.7,0.3l-7.5,8.7l1.4-9.2c0-0.2,0-0.4-0.1-0.6
						c-0.1-0.2-0.3-0.3-0.5-0.3l-2.1-0.3c-0.4-0.1-0.8,0.2-0.9,0.7L212,89.4C211.9,89.9,212.2,90.3,212.7,90.3z"/>
					<path class="st0" d="M249.8,101.2c0.1,0,0.2,0.1,0.3,0.1c0.3,0,0.6-0.2,0.7-0.5l0.6-1.4c0.1-0.2,0.1-0.4,0-0.6
						c-0.1-0.2-0.2-0.4-0.4-0.4l-6.5-2.8l8.9-20.5c0.2-0.4,0-0.9-0.4-1l-1.9-0.8c-0.4-0.2-0.9,0-1,0.4l-9.9,22.7
						c-0.1,0.2-0.1,0.4,0,0.6c0.1,0.2,0.2,0.4,0.4,0.4L249.8,101.2z"/>
					<path class="st0" d="M267.9,112.7c0.1,0.1,0.3,0.2,0.5,0.2c0,0,0.1,0,0.1,0c0.2,0,0.4-0.1,0.5-0.3l6.5-8.6l13.1-7.2
						c0.2-0.1,0.4-0.4,0.4-0.6c0-0.3-0.1-0.5-0.3-0.7l-1.8-1.4c-0.3-0.2-0.6-0.2-0.9-0.1l-9.2,5.4l2.7-10.3c0.1-0.3,0-0.6-0.3-0.8
						l-1.8-1.3c-0.2-0.2-0.5-0.2-0.7-0.1c-0.3,0.1-0.4,0.3-0.5,0.6l-3.5,14.4l-6.5,8.6c-0.3,0.4-0.2,0.8,0.2,1.1L267.9,112.7z"/>
					<path class="st0" d="M283.6,126.9c0,0.2,0,0.4,0.2,0.6l1.2,1.5c0.1,0.2,0.3,0.3,0.5,0.3c0.2,0,0.4,0,0.6-0.2l13.8-10.9
						c0,0,0.1,0,0.1-0.1l-10.8,15.3c-0.2,0.3-0.2,0.7,0,0.9l2,2.5c0.2,0.2,0.4,0.3,0.6,0.3c0.2,0,0.3-0.1,0.5-0.2l19.5-15.2
						c0.3-0.3,0.4-0.8,0.1-1.1l-1.3-1.6c-0.1-0.2-0.3-0.3-0.5-0.3c-0.2,0-0.4,0-0.6,0.2l-14,11.2l10.9-15.6c0.2-0.3,0.2-0.7,0-0.9
						l-1.9-2.4c-0.1-0.2-0.3-0.3-0.5-0.3c-0.2,0-0.4,0-0.6,0.2l-19.5,15.2C283.8,126.5,283.7,126.6,283.6,126.9z"/>
					<path class="st0" d="M182.4,88.8c1.1,1.3,2.7,2,4.9,2c0.4,0,0.8,0,1.3-0.1c3.6-0.4,5-2.1,5.5-2.9c0.9-1.4,0.9-2.9,0.7-4
						l-1.4-13.5c-0.2-1.5-0.4-3.5-1.8-4.8c-1.3-1.2-3.3-1.8-5.7-1.5c-2.5,0.3-4.4,1.2-5.5,2.8c-0.8,1.1-1,2.5-0.8,4.5l1.5,13.9
						C181.2,85.9,181.3,87.5,182.4,88.8z M183.9,68c0.5-0.5,1.3-0.8,2.3-0.9c0.2,0,0.3,0,0.5,0c0.7,0,1.4,0.2,1.9,0.5
						c1,0.7,1.2,2.2,1.4,4.1l1.3,12c0.2,1.7,0,2.7-1.2,3.5c0,0,0,0,0,0c-0.4,0.3-1,0.4-1.6,0.5c-0.8,0.1-1.5,0-2.1-0.3
						c-0.9-0.4-1.3-1-1.6-3.3l-1.4-13.5C183.1,69.8,183.1,68.8,183.9,68z"/>
					<path class="st0" d="M128.3,115.2c0.2,0.2,0.4,0.3,0.6,0.3c0.2,0,0.3-0.1,0.5-0.2l1.7-1.3c0.2-0.1,0.3-0.3,0.3-0.5
						c0-0.2,0-0.4-0.2-0.6l-6.8-9l1.6-1.2l11.2,6.1c0.3,0.1,0.6,0.1,0.9-0.1l1.8-1.3c0.2-0.2,0.3-0.4,0.3-0.7c0-0.3-0.2-0.5-0.4-0.6
						l-10.9-5.9c1.6-2.1,1.7-4.2,0.1-6.3l-2.3-3.1c-3.1-4.1-7.1-1-8.5,0l-4.6,3.5c-0.2,0.1-0.3,0.3-0.3,0.5c0,0.2,0,0.4,0.2,0.6
						L128.3,115.2z M120.2,93.2c1.5-1.1,2.4-1.4,3.7,0.3l2.3,3c0.5,0.7,0.4,1.1,0.3,1.4c-0.2,0.5-0.7,1.1-1.5,1.8c0,0,0,0,0,0
						l-2.4,1.8l-4.9-6.5L120.2,93.2z"/>
					<path class="st0" d="M108.8,137.5c0,0,0.1,0,0.1,0c0.2,0,0.4-0.1,0.5-0.3l3.7-4.7c1.5-1.9,2.1-3.6,1.8-5.2
						c-0.2-1.2-0.9-2.3-2.2-3.2l-3.3-2.6c-2-1.6-3.6-1.9-5.3-0.9c0-1.1-0.4-2.2-1.9-3.4l-2.8-2.2c-3.8-3-6.4,0.4-7.5,1.8l-3.3,4.3
						c-0.3,0.3-0.2,0.8,0.1,1.1l19.6,15.1C108.5,137.4,108.6,137.5,108.8,137.5z M99.5,124.3l-0.8,1l-6-4.6l1.1-1.5
						c0.8-1.1,1.4-1.6,1.9-1.8c0.3-0.1,0.7-0.1,1.5,0.5l2.4,1.8C100.6,120.6,101.8,121.5,99.5,124.3z M102.1,126.1
						c1.2-1.5,2.3-2.4,3.2-2.5c0.7-0.1,1.3,0.3,1.9,0.7l2.8,2.1c1.6,1.2,2.4,1.9,0.5,4.3l-1.7,2.2l-7.5-5.8L102.1,126.1z"/>
					<path class="st0" d="M150.8,94.5c0.3,0.8,0.9,2.2,2.2,3.2c0.9,0.6,1.9,1,3.1,1c1,0,2.2-0.2,3.4-0.7c3.3-1.3,4.3-3.4,4.5-4.3
						c0.5-1.6,0-3.1-0.4-4.1l-5-12.7c-0.6-1.4-1.3-3.2-3-4.2c-1.5-0.9-3.6-0.8-5.9,0.1c-2.4,0.9-4,2.4-4.6,4.2
						c-0.4,1.3-0.3,2.7,0.4,4.5L150.8,94.5z M148.9,77.3c0.3-0.6,1-1.2,1.9-1.5c0.5-0.2,1.1-0.3,1.6-0.3c0.3,0,0.6,0,0.8,0.1
						c1.1,0.4,1.8,1.8,2.5,3.6l4.5,11.2c0.6,1.6,0.8,2.6-0.2,3.7c0,0,0,0,0,0c-0.3,0.4-0.8,0.7-1.4,0.9c-0.7,0.3-1.5,0.4-2.1,0.3
						c-1-0.2-1.6-0.6-2.4-2.7l-5-12.7C148.6,79.2,148.4,78.2,148.9,77.3z"/>
				</g>
			</g>
		</g>
	</g>
</g>
</svg>
