<?xml version="1.0" encoding="utf-8"?>
<!-- Generator: Adobe Illustrator 23.0.0, SVG Export Plug-In . SVG Version: 6.00 Build 0)  -->
<svg version="1.1" id="Layer_1" xmlns="http://www.w3.org/2000/svg" xmlns:xlink="http://www.w3.org/1999/xlink" x="0px" y="0px"
	 viewBox="0 0 400 400" style="enable-background:new 0 0 400 400;" xml:space="preserve">
<style type="text/css">
	.st0{fill:#1D428A;}
	.st1{fill:#FDB927;}
</style>
<g>
	<polygon class="st0" points="205.7,43.6 195.3,29.8 191.1,29.8 189.9,29.8 188.2,29.8 188.2,31.1 189.9,32.3 189.9,52.5 
		195.3,52.5 195.3,38.8 205.7,52.5 211.1,52.5 211.1,29.8 205.7,29.8 	"/>
	<polygon class="st0" points="167.7,55.9 183.3,53.2 182.4,48.6 172.5,50.3 171.7,45.9 179.8,44.5 179.5,42.5 179,39.9 170.9,41.3 
		170.2,37.2 179.3,35.6 179.7,30.7 165,33.3 163.7,33.5 162.1,33.8 162.4,35.1 164.2,36 	"/>
	<path class="st0" d="M141.8,64.4l8-2.9c7.4-2.7,10.3-8.7,8-15c-2.3-6.3-8.4-9.1-15.8-6.4l-7.1,2.6L134,43l-1.8,0.7l0.5,1.3l2.3,0.6
		L141.8,64.4z M141,45.5l2.9-1c2.9-1.1,6.9-0.6,8.5,4c1.7,4.6-1.1,7.5-4,8.5l-2.9,1L141,45.5z"/>
	<polygon class="st0" points="121.3,75.7 135.4,67.5 134,62.6 123.8,68.5 114.9,53.1 111.2,55.3 109.9,56 108.7,56.7 109.4,57.9 
		111.1,58 	"/>
	<path class="st0" d="M107.5,70.6c-4.3-4.9-11.4-5.7-17-0.9c-5.6,4.9-5.8,12-1.5,16.9c4.3,4.9,11.4,5.8,17,0.9
		C111.6,82.7,111.7,75.5,107.5,70.6 M93.4,82.8c-2.6-3-2.6-6.8,0.4-9.4c2.9-2.5,6.7-2.1,9.3,1c2.6,3,2.6,6.9-0.3,9.4
		C99.8,86.4,96,85.8,93.4,82.8"/>
	<path class="st0" d="M84.4,89.8l-4.5,5.8l-1.2,1.5l-1.9,2.4l3.6,2.8l3.6-4.6c1,2.1,0.9,4.5-0.8,6.6c0,0,0,0,0,0
		c-2.4,3.1-6.3,3.3-9.4,0.8c-3.1-2.5-3.9-6.2-1.4-9.3c0.4-0.5,0.8-0.9,1.3-1.3c0.7-0.5,1.4-0.9,2.1-1.1l1.8-2.4l2.4-3l0.1-0.1
		c-0.1,0-0.2,0-0.4-0.1C76,87.5,72,88.8,69,92.2c-0.2,0.2-0.4,0.4-0.5,0.6c-4.6,5.9-3.4,12.9,1.7,16.9c5.1,4,12.3,3.5,16.9-2.4
		c0.2-0.2,0.3-0.4,0.5-0.6c3-4.2,3-9,0.9-12.8c-0.2-0.4-0.4-0.7-0.7-1c-0.7-0.9-1.5-1.7-2.4-2.5C85,90.2,84.7,90,84.4,89.8
		C84.4,89.8,84.4,89.8,84.4,89.8"/>
	<path class="st0" d="M238.5,47l1.9,1.8c1.7,1.6,2.5,2.3,2.1,3.5c-0.3,0.9-1.4,1.4-3.1,1c-2.1-0.6-4.1-2.3-5.6-4.6l-1.6,5.7
		c1.4,1.3,3.1,2.5,6.5,3.5c4.3,1.2,8.6-0.3,9.8-4.5c1-3.3-0.8-5.6-3.3-7.9l-2.3-2.2c-1.1-1-1.3-1.7-1.1-2.4c0.3-0.9,1.4-1.3,2.8-0.9
		c1.5,0.4,3.5,1.6,5.4,3.8l1.5-5.2c-0.8-0.8-2.8-2.3-5.9-3.2c-4.7-1.3-8.5,0.7-9.6,4.4C235.4,42.4,236.1,44.7,238.5,47"/>
	<polygon class="st0" points="257.4,64.7 262.6,67.2 270.2,50.8 276.7,53.9 278.7,49.6 260.5,41.1 258.5,45.4 265,48.4 	"/>
	<path class="st0" d="M272,68.9l-1.4,2l3.9,2.7l1.6-1.8l2.5-1.3l3.5,2.4l3.5,2.4l-0.2,2.8l-1.1,2.2l3.9,2.7l1.4-2l5.2-20.9l-2.7-1.8
		l-2.1-1.4l-0.6-0.4l-1.8-1.2l-0.7,1.1l0.6,1.5L272,68.9z M289,62.8l-2.1,7.8l-2.2-1.5l-2.2-1.5L289,62.8z"/>
	<polygon class="st0" points="301.9,70.9 307.2,75.8 294.9,89 299.1,92.9 311.4,79.7 316.6,84.6 319.8,81.1 305.2,67.4 	"/>
	<polygon class="st0" points="318.5,100.6 323.5,107.1 327.3,104.2 322.2,97.7 325.5,95.2 331.1,102.5 335.6,100.5 326.3,88.6 
		326.4,88.6 324.6,86.3 323.5,87.1 323.6,89.4 307.7,101.8 317.5,114.2 321.2,111.3 315,103.4 	"/>
	<path class="st0" d="M336.1,195.3c0,75.3-61.1,136.4-136.4,136.4S63.2,270.7,63.2,195.3S124.3,58.9,199.7,58.9
		S336.1,120,336.1,195.3"/>
	<path class="st1" d="M288.9,106.1c-23.8-23.8-55.5-37-89.2-37s-65.4,13.1-89.2,37c-23.8,23.8-37,55.5-37,89.2s13.1,65.4,37,89.2
		c23.8,23.8,55.5,37,89.2,37s65.4-13.1,89.2-37c23.8-23.8,37-55.5,37-89.2S312.7,129.9,288.9,106.1 M115.2,110.9
		c22.5-22.5,52.5-35,84.4-35c31.9,0,61.9,12.4,84.4,35c22.5,22.5,35,52.5,35,84.4c0,17.1-3.6,33.7-10.4,48.9
		c-14.5-4.9-28.7-10.4-42.7-16.6c-1.8-0.8-3.7-1.6-5.5-2.5l-5.4-2.6l-2.7-1.3l-2.7-1.3l-5.4-2.7c-1.8-0.9-3.6-1.9-5.3-2.8l-2.7-1.4
		c-0.9-0.5-1.8-1-2.6-1.4l-5.3-2.9l-5.2-3c-13.8-8.1-27.2-17.1-39.8-27.1c-6.3-5-12.4-10.2-18.2-15.7c-2.9-2.8-5.7-5.6-8.5-8.5
		c-0.7-0.7-1.4-1.5-2-2.2c-0.7-0.7-1.3-1.5-2-2.2c-0.7-0.7-1.3-1.5-1.9-2.3c0,0-0.1-0.1-0.1-0.1c-0.2-8.8-0.4-14-0.4-14l-6-1.4l0,8
		h-5.1l0-8.4l-6.4,1.5l0,3.1l-3,1.6c0.1,2.5,0.1,5.8,0.2,9.7c-2.4,4.2-28.9,49.9-48.7,64c-0.7-5.4-1.1-10.8-1.1-16.3
		C80.3,163.5,92.7,133.5,115.2,110.9 M272,253.9l-12.3,0.4l-10-26l2,1l5.5,2.7c1.8,0.9,3.7,1.8,5.5,2.6c0.5,0.2,1,0.5,1.6,0.7
		L272,253.9z M269.1,237.6c5,2.3,9.9,4.4,15,6.5l4.1,9.2l-12.3,0.4L269.1,237.6z M256,254.4l-12.6,0.4l-13.1-37.1
		c0.8,0.5,1.6,1,2.5,1.4l2.7,1.5c1.8,1,3.6,2,5.4,3l4.1,2.2L256,254.4z M239.7,255l-11.2,0.4l-16.4-48.8c2.5,1.6,5,3.2,7.6,4.8
		l5.2,3.2l0.7,0.4L239.7,255z M224.8,255.5l-11.8,0.4l-19.4-62.2c4.5,3.3,9,6.6,13.7,9.7L224.8,255.5z M209.3,256l-11.3,0.4
		l-23.1-77.7c1.6,1.4,3.3,2.8,4.9,4.2c2.9,2.4,5.9,4.8,8.9,7.1L209.3,256z M194.3,256.5l-12.5,0.4l-27.5-98.3
		c2.4,2.7,4.9,5.3,7.4,7.8c2.7,2.7,5.4,5.3,8.2,7.8L194.3,256.5z M178.2,257l-10.8,0.4l-15.1-57.7c-0.5-14.9-0.9-28.7-1.2-39.7
		L178.2,257z M163.7,257.5l-9.4,0.3c-0.6-13.7-1.1-28.2-1.6-42.1L163.7,257.5z M296,265.8c-0.8,1.1-1.6,2.2-2.5,3.3l-138.8-2.7
		l-0.1-1.3L296,265.8z M292,253.2l-3.2-7.1c5.3,2.1,10.6,4.2,15.9,6.1c-0.1,0.2-0.2,0.4-0.3,0.6L292,253.2z M144.3,165.9l0,7.3h-5.6
		v6.8h5.6l0,7.3h-5.6v6.8h5.6l0,13.8h-5.6v6.8h5.6l0,14.2h-5.6v6.8h5.6l0,22.3l-5.1,0.2l0-103.8h5.1l0,4.6h-5.6v6.8H144.3z
		 M90.7,244.3l15.6-52.4c6.3-8.4,13.2-18.9,20.5-32l-27.9,99.6C95.8,254.6,93.1,249.6,90.7,244.3 M88.6,239.2
		c-2.7-7-4.8-14.2-6.2-21.6c4.4-3.5,10.6-9.2,18-18.1L88.6,239.2z M130.1,161.2c0,10.5-0.1,23.2-0.4,36.8l-16,61.1l-11.1,0.4
		L130.1,161.2z M129.3,213.4c-0.4,15.1-1,30.8-1.7,45.3l-10.3,0.3L129.3,213.4z M108.1,271.9l18.8,0.7c-0.4,5.8-0.8,11.3-1.2,16.4
		c-3.6-2.9-7.1-5.9-10.3-9.2C112.7,277.2,110.3,274.6,108.1,271.9 M199.7,314.7c-14.9,0-29.3-2.7-42.8-7.9
		c-0.6-8.2-1.1-17.9-1.6-28.6l-10.9-3.7l0,26.6c-1.7-0.9-3.5-1.9-5.1-2.9l0-25.3l5.1,0.2v0.2l5.6,0l10.1,0.4l125.6,4.4
		c-0.5,0.5-1,1-1.5,1.6C261.5,302.3,231.5,314.7,199.7,314.7"/>
	<polygon class="st0" points="240.2,340.7 238.9,333.7 231.3,335.1 222.7,336.8 215.2,338.3 216.5,345.3 224.1,343.8 227.9,363.7 
		220.4,365.1 221.7,372.1 229.3,370.7 237.9,369 245.5,367.5 244.1,360.5 236.6,362 232.7,342.2 	"/>
	<path class="st0" d="M284.1,332.3c4.2,8.9,0.9,19.4-9.3,24.1c-10.2,4.8-20.3,0.5-24.4-8.4c-4.2-8.9-0.9-19.3,9.3-24.1
		C269.8,319.2,279.9,323.4,284.1,332.3 M276.1,336.1c-2.6-5.5-7.9-7.8-13.2-5.3c-5.4,2.5-7,8-4.4,13.5c2.5,5.4,7.8,7.9,13.2,5.3
		C277,347.2,278.6,341.5,276.1,336.1"/>
	<path class="st0" d="M309,304c-4.3-5-11-4.6-16.1-0.3l-9.6,8.2l-1.5,1.3l-1.8,1.5l1.3,1.5l2.9-0.3l20,23.4l6.6-5.7l-8.2-9.6
		l1.9-1.6l14.7,3.9l8-6.8l-17.1-4C312.1,311.9,311.8,307.3,309,304 M301.3,316.2l-3.1,2.6l-5.1-5.9l3.2-2.8c1.8-1.6,4.1-1.9,5.8,0.1
		C303.9,312.2,303.3,314.5,301.3,316.2"/>
	<path class="st0" d="M341.3,302.7c-3.2,4.3-5.9,6-8.5,7.2l-7.2-5.5c4-0.9,7.5-2.9,9.5-5.5c1.6-2.1,1.5-4.1,0.3-4.9
		c-1.5-1.1-3-0.4-6.2,1.1l-3.7,1.8c-4.5,2.2-8.3,2-11.5-0.5c-4.6-3.5-5.4-10-1-15.9c2.9-3.8,6.2-5.9,7.7-6.6l6.6,5
		c-4.3,1.5-6.9,3.6-8.4,5.6c-1.3,1.7-1.4,3.5-0.2,4.4c0.9,0.7,2,0.7,4.1-0.2l4.3-2.1c4.6-2.2,8.7-3.5,13-0.3
		C345.5,290.4,345.4,297.3,341.3,302.7"/>
	<path class="st0" d="M206.9,349.3c0.2-6.6-5-10.9-11.7-11.1l-12.6-0.4l-1.9-0.1l-2.4-0.1l-0.1,2l2.3,1.8l-1.1,30.8l8.7,0.3
		l0.4-12.6l2.5,0.1l8.2,12.9l10.5,0.4l-9.9-14.4C203.9,357.2,206.7,353.7,206.9,349.3 M192.9,353.1l-4.1-0.1l0.3-7.8l4.3,0.1
		c2.4,0.1,4.4,1.4,4.3,4C197.6,351.9,195.5,353.2,192.9,353.1"/>
	<path class="st0" d="M168.1,346.3c1.9-6.3-2.1-11.8-8.5-13.7l-12.1-3.6l-1.9-0.5l-2.3-0.7l-0.6,1.9l1.8,2.3l-8.7,29.5l8.3,2.5
		l3.6-12l2.4,0.7l4.7,14.5l10.1,3l-6-16.5C163.2,353.1,166.9,350.4,168.1,346.3 M153.7,346.4l-3.9-1.2l2.2-7.5l4.1,1.2
		c2.3,0.7,3.9,2.4,3.1,4.9C158.4,346.4,156.2,347.1,153.7,346.4"/>
	<path class="st0" d="M127.1,318.5l-3-1.8l-1.2-0.7l-2.5-1.5l-1,1.7l0.9,1.9l-22.6,18.6l-1.9,3.2l6.2,3.7l2.3-3l3.7-2.2l5.5,3.2
		l5.5,3.2l-0.1,4.3l-1.5,3.5l6.2,3.7l1.9-3.2l6-32.2L127.1,318.5z M116.8,336l-3.5-2l9.4-8l-2.4,12.1L116.8,336z"/>
	<polygon class="st0" points="106.5,305.2 106.5,305.2 104.3,302.9 102.8,304.2 103.1,306.7 84.5,314.7 96.5,294.4 92.8,290.3 
		71.6,300.7 83,279.6 76.4,272.5 76.4,272.5 75.6,271.6 74.1,272.9 74.5,276.2 59.8,305.3 65.7,311.8 79.9,305.9 72.8,319.5 
		78.7,326 112.9,312.3 	"/>
</g>
</svg>
