<?xml version="1.0" encoding="utf-8"?>
<!-- Generator: Adobe Illustrator 23.0.0, SVG Export Plug-In . SVG Version: 6.00 Build 0)  -->
<svg version="1.1" id="Layer_1" xmlns="http://www.w3.org/2000/svg" xmlns:xlink="http://www.w3.org/1999/xlink" x="0px" y="0px"
	 viewBox="0 0 400 400" style="enable-background:new 0 0 400 400;" xml:space="preserve">
<style type="text/css">
	.st0{fill:#FFFFFF;}
	.st1{fill:#061922;}
	.st2{fill:#BBC4CA;}
	.st3{fill:#0064B1;}
</style>
<g>
	<path class="st0" d="M353.1,205.5c1.9-4.7,9.1-22.5,9.1-22.5l-30.3,17c-0.1,0.1-9,5-21.9,10.5c6.5-16.1,12.2-32.6,17.8-54.1
		c10.7-41,16.5-86.1,16.7-88c0,0,2.3-18.2,2.3-18.2S289.7,66,284.2,67.6c-20.3-24.6-51.6-39.2-84.4-39.2c-33,0-64.3,14.7-84.6,39.4
		c-5.7-1.6-63-17.6-63-17.6l2.4,18.3c0.1,0.5,6.1,46.8,17.3,88.4c5.5,20.3,11.6,36.7,17.9,52.3c-13.7-5.8-25.2-11.3-25.3-11.3
		l-28.1-13.5c0,0,6.7,17,8.6,21.7c-0.4-0.1-10.2-3.9-10.2-3.9l9.4,25.4c0,0,0,0,0-0.1c0.6,1.9,4.6,12.7,35.1,94.7l4.2,11.3
		c0,0,6.8-2.2,8.8-2.8c1.7,4.5,6.1,16.4,6.1,16.4l12.3-6.3c9.4-4.8,29.4-13,45.7-15.6c19.3,26.5,34.4,40.2,35.1,40.8l8.3,7.5
		l8.2-7.7c0.7-0.6,15.9-15,34.8-40.7c18.1,2.4,33.6,9.7,41.4,14.1l12,6.6l5.2-12.6c0,0,0.6-1.5,1.3-3.2c1,0.3,6.8,2.3,6.8,2.3
		l4.4-11.3c0.9-2.2,20.3-47.7,39-91.6l12.5-29.3C365.3,200.2,353.2,205.5,353.1,205.5z"/>
	<path class="st1" d="M334.4,204.4c-0.2,0.1-14.5,8.1-33.5,15.3c8.6-20.4,15.3-38.6,22.1-64.6l0,0c10.7-41,16.5-86.9,16.6-87.4
		l1.3-10.7l-10.4,2.9c0,0-127.9,35.5-131.7,36.5c-3.7-1-140.7-39.4-140.7-39.4l1.4,10.8c0.1,0.5,6,46.3,17.2,87.8
		c6.8,25.1,14.6,44.4,22.3,62.8c-18.3-7.2-36.5-15.9-36.8-16l-16.5-7.9l6.8,17.1c16.3,41,24.5,63.5,35,92l13.5,36.6l7.2-3.7
		c10.8-5.5,33.1-14.4,50.3-16.5c19.8,27.7,35.5,41.9,36.1,42.5l4.9,4.4l4.8-4.5c0.7-0.7,16.6-15.7,36-42.4
		c20.1,2.1,37.3,10.2,46.1,15.1l7,3.9l3.1-7.4c8-19.3,47.5-117.1,47.9-118.1l7.7-18.9L334.4,204.4z"/>
	<path class="st0" d="M348.8,209.1c-0.3,0.1-32,13.6-57.9,20.1c10.1-23.3,18.9-44.3,27-75.4l0,0c10.6-40.7,16.4-86.3,16.5-86.7
		l0.4-3.1l-3.1,0.8c0,0-131.9,36.6-133,36.9C197.6,101.4,64,64,64,64l0.4,3.2c0.1,0.5,6,46,17.1,87.1c7.3,26.9,15.8,47.3,24.1,67
		c0,0,1.5,3.5,2.7,6.5c-22.4-5.7-52.7-16.3-53.1-16.4l-4.3-1.5l1.6,4.2c13.3,35.4,20.1,54.4,27.3,74.5l14.6,40.5l1.9-0.6
		c20.7-6.4,47.4-11.5,64.1-13.7c19.3,27.9,37.2,43.6,37.4,43.8l1.4,1.2l1.4-1.3c0.2-0.2,17.3-15.7,37.1-43.5
		c17.2,1.1,49.2,8.4,61.4,13.2l1.9,0.8l0.8-1.9c8-19.3,49.2-114.2,49.6-115.2l2.1-4.9L348.8,209.1z"/>
	<path class="st2" d="M283.7,235.2l1.7-3.8c11.2-25.8,20-46.1,28.5-78.6l0,0c9-34.3,14.4-72,15.9-83c-5.9,1.6-130.5,36.2-130.5,36.2
		l-0.6,0.2c0,0-123.7-34.6-129.6-36.3c1.5,11,7.2,48.8,16.5,83.4c7.2,26.7,15.7,46.9,23.9,66.4l5.9,14.2l47.1,76.5l0.7,1.1
		c16.2,23.7,31.5,38.5,36,42.8c4.4-4.3,19.1-19,35.8-42.5l0.7-1L283.7,235.2z"/>
	<g>
		<path class="st1" d="M109.8,188.9c-1.3-1.8-6.7-10.5-6.7-25l0,0c0-0.4,0-0.9,0-1.3l0,0c-3.7-10.1-5.8-20.9-5.8-32.2l0,0
			c0-26.8,11.5-51.1,30-68.8l0,0c18.6-17.6,44.2-28.5,72.4-28.5l0,0c28.2,0,53.9,10.9,72.4,28.5l0,0c18.6,17.6,30,41.9,30,68.8l0,0
			c0,9.9-1.6,19.5-4.5,28.6l0,0c0,18.4-5.4,35.5-14.8,50l0,0c-0.1,0.1-0.6,0.6-1.9,1.3l0,0c0,0-0.1,0-0.1,0.1l0,0
			c-0.1,0.1-0.2,0.2-0.2,0.5l0,0c0,0-0.2,1.1-0.5,2l0,0l0.2-0.1l-0.4,0.6c-17.5,24-46.2,39.6-78.7,39.6l0,0
			C158.7,253,122.6,226.2,109.8,188.9L109.8,188.9z"/>
	</g>
	<path class="st3" d="M338.2,217.6c-0.6,0.3-65.3,28.2-139.4,27.8h0c-65.2-0.3-139.1-28.2-139.9-28.5l-15.6-6l5.6,15
		c0.1,0.4,0.1,0.4,35.1,94.7l2.5,6.8l6.9-2.2c15.4-4.9,56.5-16.3,105.2-16.3c45.3,0,84.9,9.3,101.1,14.9l6.9,2.3l2.7-6.8
		c1-2.5,23.9-56.2,39-91.8l7.5-17.6L338.2,217.6z"/>
	<g>
		<path class="st0" d="M338.9,226.7l-6.6,2.4c0,0-14.6,5.3-14.7,5.4c-0.7,0.2-6,1.9-10.1,5.4c-1.4,1.2-2.9,2.9-4.2,4.7
			c0.3-0.7,0.4-1.2,0.4-1.2l2-5.4l-5.6,1.5l-13.3,3.5l0,0c-1.3,0.3-10.3,2.2-13,2.8l-3.1,0.5l-15.5,2.6c-0.7,0.1-6.7,1.2-9.8,4.3
			c-0.7,0.7-1.3,1.5-1.8,2.3l0.9-5.2l-3.9,0.4l-12.6,1.2l-0.4,3.3c-0.3-0.4-0.7-0.8-1.1-1.1c-2.4-1.8-6.3-1.8-7.5-1.7
			c0,0-18.4,0.5-18.4,0.5v0l-14.9-0.1c-0.6,0-5.3,0.2-8.5,3.3c-0.5,0.5-0.9,1-1.3,1.6c-0.1-1.8-0.1-2.8-0.1-2.8l-0.1-2.7
			c0,0-15-1.4-15.6-1.4l0,0l-18.2-2.3l0.8,4.1l0.2,1.1c-4.1-4.8-10.6-6.5-10.9-6.6c-0.1,0-18.7-4.2-18.7-4.2l1.2,4.8l0.9,3.6
			c-0.5-1-1.1-1.9-1.7-2.6c-2.7-3.5-5-6.1-10.3-8c-4.6-1.7-13.9-3.9-14.3-4l-5.3-1.2l0,0c-4.8-2.1-15.4-5.5-18.9-6.7l-5.9-1.9
			l2.2,5.9l30.8,83.2c0,0,12.1-3.3,12.7-3.5c0,0,0,0,0,0s12.6-3,13.6-3.2c0.6-0.1,13.3-2.4,13.3-2.4l0-0.1
			c3.5-0.5,10.6-1.6,11.3-1.7c0.6-0.1,6.7-1,10.1-1.4l0,0c0,0,12.8-1.3,12.8-1.3c1.4-0.1,5.5-0.5,7.7-2.3c0.8-0.7,1.5-1.4,2-2.1
			l0.2,3.5l15.1-0.5l0.1,0c0.5,0,4.6-0.5,7.2-3.1c0.3-0.3,0.6-0.6,0.9-1l-0.1,3.9c0,0,11.6,0.3,12.1,0.3v0l13.8,0.4l0,0l9.9,0.8
			l12.6,1.4c0.5,0.1,4.9,0.4,9-1.8c0.4-0.2,0.7-0.4,1-0.7l-1,3.6l12.9,2.2c0,0,0,0,0-0.1c0.4,0.1,9.3,1.7,11.4,2.1l1.4,0.4
			c0.3,0.1,6.5,1.7,11.5,1.1c5.9-0.7,12-5.5,14.7-11.7l12.8-29.6l-0.1,0C320.9,268.4,338.9,226.7,338.9,226.7z"/>
		<g>
			<polygon class="st1" points="225.2,298.2 233.2,298.8 240.8,253.7 230.7,254.7 			"/>
			<path class="st1" d="M258.4,257.1l-3.8,16.1l10-0.3l6.6-23.6l-15.4,2.6c0,0-5.6,0.9-8.2,3.5c-3.5,3.5-4.4,10-4.4,10l-6.1,33.7
				l10,1c0,0,4,0.5,7.3-1.2c2.4-1.2,3.9-3.8,4.7-6.2c0.8-2.4,3.1-12,3.1-12h-9.5l-2,9.6c0,0-0.3,1.9-1.7,3.8
				c-1.4,1.9-4.1,1.7-4.1,1.7l6.6-30.2c0,0,1.1-4.1,2.5-6.2C255.9,257,258.4,257.1,258.4,257.1z"/>
			<path class="st1" d="M275.6,274l8.6-27.3l-8.8,1.9L260,301.9l6.9,1.1l7.2-22.8l2.1-0.1c0,0,1.3,0.5,1.3,1.8
				c0,1.3-0.6,2.8-0.6,2.8l-6.1,18.9l8.1,1.5l6.7-19.6c0,0,1-3.3,0.8-4.8c-0.4-2.7-1.7-4.3-1.7-4.3s1.7,0,3.9-2.2
				c2.2-2.2,2.2-3.8,2.8-5.4c0.6-1.6,9.5-26.3,9.5-26.3l-11.6,2.9l-6.8,22c0,0-0.5,2.2-1.6,3.9c-1.1,1.6-1.9,2.2-2.5,2.3
				C276.9,274,275.6,274,275.6,274z"/>
			<path class="st1" d="M315.8,247.1l-7.5,20.2l10.3-0.5l14.7-34.8l-14.7,5.4c0,0-5.2,1.6-9.2,4.8c-3.1,2.6-6.7,8.6-7.5,10.5
				c-0.8,1.9-4.2,9.4-4.7,11.9c-0.6,2.4-5.6,15.9-5.6,15.9h11.7l-5,13.2c0,0-0.6,3-2.5,5.4c-1.9,2.4-4.7,2.7-4.7,2.7l6.7-17h-7.2
				l-7.8,21.2c0,0,5.9,1.7,10.3,1.2c4.5-0.5,9.8-4.3,12.3-9.9c2.5-5.7,10.8-25.1,10.8-25.1l-13.9,0.7l4.3-12.4c0,0,2.9-7.1,5-9.6
				C312.6,249.2,315.8,247.1,315.8,247.1z"/>
			<path class="st1" d="M63.9,231.4L93.7,312l8.8-2.5l-22.1-65.2c0,0,3.3,0.3,6.1,5.4c2.8,5.1,4.2,8.9,5,12.1
				c0.8,3.2,14.9,46.8,14.9,46.8l9-2.1l-17.2-57.3c0,0,2.2,0,4.4,3.8c2.2,3.8,3.1,7,3.1,7l13.2,45.8l8.6-1.7l-11-42.5
				c0,0-2.5-7.5-5.3-11.4c-2.2-3-4.7-5.4-8.8-6.8c-4.4-1.5-14-4-14-4l1.4,4.3c0,0-3.2-3.6-6.1-5.2C81.1,237.2,63.9,231.4,63.9,231.4
				z"/>
			<path class="st1" d="M143.9,301.4l7.5-1l-6.4-33.5c0,0-1.5-7.5-3.4-10.4c-3.3-5.2-10.4-7-10.4-7l-13.8-2.8l14.3,56.7l8.5-1.4
				l-5.3-21.2l4.9,0.1L143.9,301.4z M133.9,275.6l-4.8-20.9c0,0,2.8,0.6,4.5,2.2c1.7,1.6,2.2,6.1,2.2,6.1l2.5,12.5H133.9z"/>
			<path class="st1" d="M145.7,251.8l9.5,48.2l10.2-1.1c0,0,4.7-0.2,6-1.2c2.8-2.2,2.8-5.4,2.8-5.4l-1.2-37.4l-9.8-1l3.6,35.4
				c0,0,0.2,3.2-1.4,4.9c-1.3,1.4-2.8,1.1-2.8,1.1l-5.1-42L145.7,251.8z"/>
			<path class="st1" d="M178.4,298l12-0.5c0,0,3.5-0.3,5.4-2.2c1.9-1.9,2.3-5.3,2.3-5.3l0.2-6.8l-8.1,0.1l0.1,6.7
				c0,0,0.1,2.2-0.9,3.3c-0.8,0.8-3.6,0.7-3.6,0.7l0-13.5h12.5l0.3-4.1l-13,0.1l0-11.9c0,0-0.1-1.7,1.1-2.6c1.3-1,3.5-0.7,3.5-0.7
				v12.3h8.6l1.1-17.6l-14.4-0.3c0,0-3.9,0.1-6.4,2.4c-2.8,2.7-2.5,8.9-2.5,8.9L178.4,298z"/>
			<path class="st1" d="M224.5,257c-1.6-1.6-5.5-1.4-5.5-1.4l-15.6,0.4l-1.6,41.5l7.9,0.2l1-17.1c0,0,2.5-0.8,3.7,0.9
				c0.8,1.2,0.7,2.5,0.7,2.5l-1,13.7l7.7,0.4l1.4-13.8c0,0,0.4-2.4-0.4-4.2c-0.7-1.6-2.4-2-2.4-2s1.1,0,2.8-1.9
				c1.7-1.9,1.7-4.6,1.7-4.6l1-9.5C225.8,262,226.3,258.8,224.5,257z M216.5,262.1l-0.6,10.6c0,0,0,1.4-0.6,2.2
				c-0.6,0.8-1.3,0.9-1.3,0.9l-2.9-0.1L212,260l2.1-0.1c0,0,1.2-0.1,1.8,0.4C216.6,260.8,216.5,262.1,216.5,262.1z"/>
		</g>
	</g>
	<g>
		<path class="st1" d="M217.8,316.2l9.8-2.4l-10-0.9c-0.4,0-9.7-0.9-14.3-0.9c-0.6-1.8-4.5-13.8-4.5-13.8l-1.7,4.6
			c-0.1,0.3-2.2,6-3.3,9.3c-5.4,0-12.5,0.7-12.9,0.7l-10.5,1.1l10.3,2.2c3.1,0.7,9.5,2.9,10.1,5.6c-0.8,3.2-3,8.8-3,8.9l-2,5.2
			c0,0,11.2-7.9,12.8-9c1.6,1.1,12.5,8.8,12.5,8.8s-4.5-13-4.9-14C207.2,319.8,212.8,317.4,217.8,316.2z"/>
		<path class="st0" d="M203.5,321.3c0.7-2.8,5.3-4.9,9.1-6.1c-3.7-0.3-8.4-0.7-10.7-0.7l-0.6,0c0,0-1.8-5.3-2.8-8.1
			c-0.9,2.4-2.1,6-2.6,7.6l-0.2,0.6l-0.6,0c-2.6,0-6.2,0.2-9,0.4c3.3,1.3,7.1,3.4,7.5,6.6l0,0.2l0,0.2c-0.4,1.9-1.4,4.8-2.2,6.9
			c2.6-1.8,7.3-5.1,7.3-5.1s4.9,3.4,7.4,5.2c-1-2.8-2.6-7.4-2.6-7.4L203.5,321.3z"/>
	</g>
	<g>
		<g>
			<path class="st0" d="M102.6,130.5c0-50.7,43.6-92,97.2-92c53.6,0,97.2,41.3,97.2,92c0,50.7-43.6,92-97.2,92
				C146.2,222.4,102.6,181.2,102.6,130.5z"/>
		</g>
		<g>
			<path class="st1" d="M140.7,68.8l0.2-0.2c1.2-1,2.2-1.2,3-0.2c0.7,0.9,0.1,1.9-0.9,2.8l-0.2,0.2L140.7,68.8z M141.1,75.9l4.1-3.3
				c2.6-2.1,3.5-4.9,2-6.8c-1.9-2.4-5-1.5-8,0.9l-3.3,2.7L141.1,75.9z"/>
			<path class="st1" d="M165.2,57.2l-0.3-2.7l0.1-0.1c0.2,0.3,0.4,0.6,0.7,0.9l1,1.2L165.2,57.2z M165.2,59.3l2.9-1.2l0.8,0.8
				l4.1-1.7l-7-6.2l-4.3,1.8l-0.5,9.3l4.1-1.7L165.2,59.3z"/>
			<path class="st1" d="M185.5,45.9l4.2-0.5l0.6,5.7l3.5-0.4l0.3,2.7l-7.7,0.9L185.5,45.9z"/>
			<path class="st1" d="M209.4,45.4l4.2,0.6l-0.8,5.6l3.5,0.5l-0.4,2.7l-7.6-1.1L209.4,45.4z"/>
			<path class="st1" d="M234.8,57.6l1.7-2l0.1,0.1c-0.1,0.4-0.1,0.7-0.2,1.1l-0.1,1.6L234.8,57.6z M233.3,59.1l2.9,1.3l-0.1,1.1
				l4.1,1.8l-0.4-9.4l-4.3-1.9l-7,6.1l4.1,1.8L233.3,59.1z"/>
			<path class="st1" d="M254.2,68.8l0.1,0.2c0.3,0.8,0.8,1.6,1.5,2.3c0.3,0.3,0.9,0.6,1.1,0.3c0.2-0.3-0.2-0.7-0.4-1L256,70
				c-1.1-1.2-1.7-2.6-0.9-3.6c1.3-1.5,3.9-0.8,5.8,0.8c1,0.8,1.8,1.8,2.4,2.9L261,71c-0.3-0.7-0.8-1.5-1.5-2c-0.3-0.2-0.8-0.5-1-0.2
				c-0.2,0.2,0.2,0.6,0.4,0.9l0.6,0.7c1.2,1.4,1.7,2.7,0.8,3.8c-1.3,1.5-3.9,0.7-5.8-0.9c-1.1-0.9-2.2-2.2-2.9-3.4L254.2,68.8z"/>
		</g>
	</g>
	<path class="st1" d="M281.2,107c-0.6-0.6-1.9-1.4-1.9-1.4c-0.5-0.2-0.6-0.6-0.6-0.6c-0.3-1.6-0.6-2.2-0.6-2.2
		c-8.4-10.8-19.1-19.8-31.4-26.2c-2.2-1-4.2-1.1-4.2-1.1c-0.4,0-0.7-0.3-0.7-0.3c-0.7-1-2.9-2.1-3.7-2.5
		c-11.4-4.6-23.8-7.2-36.9-7.2c-4,0-7.9,0.2-11.7,0.7l5.1-6.8c-20.2-0.6-34.7,15.2-34.7,15.2l0,0c-4.9,2.3-9.5,4.9-13.8,7.9l0,0
		c-10.5,3.8-13.6,12.3-13.6,12.3c-2.7,2.2-7.9,9.3-7.9,9.3c-1.5,0.9-3.1,2.3-3.6,2.8c-2.4,2.5-6.9,8.2-9.2,18
		c-0.1,0.2-0.1,0.3-0.2,0.5c-0.1,0.5-0.2,1.2-0.3,1.8c-0.2,1.2-0.4,2.4-0.6,3.6l0.1-0.1c0,0.3-0.1,0.4-0.1,0.4
		c-0.3,0.2-1.8,6.2-1.8,6.2c-0.3,0.8-3,9-3,9l0,0c0,0,0,0,0,0.1c-7.2,25.3,2.4,40.6,4,43c12.8,37.2,48.8,64,91.3,64
		c32.4,0,61.1-15.6,78.5-39.5l0,0c0.5-0.8,0.7-2.4,0.7-2.4c0-0.5,0.4-0.8,0.4-0.8c1.3-0.7,1.8-1.2,1.9-1.3
		c9.3-14.4,14.7-31.5,14.7-49.9C297.5,139.8,291.5,121.9,281.2,107z"/>
	<path class="st0" d="M160.8,88.6c0.3-0.3,0.5-0.5,0.7-0.7c0.3-0.3,0.4-0.4,0.5-0.4c0,0,0.1-0.1,0.1-0.1c0.1-4.8,1.2-8.7,1.2-8.7
		c8.8-12.2,23.2-15.5,23.2-15.5c1.8-0.5,0.6,0.3,0.6,0.3c-9.1,10.2-8.1,18.6-8.1,18.6l8.7,31.7c0,0-7-2.5-12.5-13.6
		c-2.5,22.2,18.4,40.2,18.4,40.2c0.9,0.8-0.5-0.1-0.5-0.1c-5.2-2.6-11.3-8.1-12.9-9.7c0.4,1.7,10.6,52.9,10.7,53.1
		c0,0.2,0.2,0.7,0.3,1.1l3.5-8.8l2.9,25.9c-13.3,12.3-27.4,7.5-28.3,7.1c0.4,0.6,0.6,1,0.6,1c0,0,11.5,22.5,58.2,20.1
		c0,0,1.1,0,1,0.1c0,0,0,0.1-0.3,0.2c-0.9,0.3-2.3,0.5-2.3,0.5c-56.4,15.1-85.7-33-86.9-35.2c-0.4-0.5-3.1-4.3-4.6-8.2
		c-0.1-0.1-0.1-0.5,0.1-0.2c0,0,6,6.2,22.9,7.8c0.1,0,0.2,0,0.2,0c-13.1-14.6-18.7-25.2-19.5-26.8c0,0,0,0,0,0s-1.6-2.4-3.4-9.1
		c0,0,0-0.3,0.2,0c0.6,1.3,5,7.7,10.2,9.2c0,0,0,0,0,0c-4.5-7.2-7.3-18.6-7.6-20.3c6.1,8.5,16.9,9.2,16.9,9.2c0,0,0-0.1-0.1-0.1
		c0,0,0,0.1,0,0.1c-17.8-17.7-13.9-37-6.7-51C152.6,98,158,91.7,160.8,88.6z"/>
	<g>
		<g>
			<path class="st2" d="M214,206l-11.7,12.3c0,0,0,0,0,0l0,0l14.4-11l-7.4-25.7l3.3-30.9l-5.7,29.5L214,206L214,206z"/>
		</g>
		<g>
			<path class="st2" d="M211.1,143.5c0.2-0.1,0.5-0.2,0.7-0.4l0,0c0.9-0.5,2-1.3,3.2-2.5l0,0c2.3-2.4,4.6-6.3,4.6-12.5l0,0
				c0-2.8-0.5-6-1.6-9.7l0,0C217.8,122.7,216.6,138.7,211.1,143.5L211.1,143.5z"/>
		</g>
		<g>
			<path class="st2" d="M216.5,90.9c4.1-6.1,10.7-6.7,13.6-6.7l0,0c-2.4-0.7-4.7-1-6.7-1l0,0c-2.9,0-5.2,0.5-6.9,1.1l0,0
				c-1.2,0.4-2,0.8-2.4,0.9l0,0C215.1,86.7,216.1,89.8,216.5,90.9L216.5,90.9z"/>
		</g>
		<g>
			<path class="st2" d="M211.3,103.8c0.1,0,0.2,0.1,0.2,0.2l0,0c0,0.6,0,1.2,0,1.7l0,0c0,13.3-3.5,27.8-4.9,32.7l0,0
				c5.1-11.6,6.4-22.4,6.4-30.7l0,0c0-4.9-0.5-8.9-0.9-11.7l0,0c-0.2-1.4-0.5-2.6-0.7-3.3l0,0c-1.3,9.9-5.1,14.5-5.1,14.5l0,0
				c0,0.1-0.1,0.1-0.2,0.1l0,0c-0.1,0-0.1,0-0.2-0.1l0,0c-4.1-7.7-9.6-13.3-14-17.1l0,0c-3.4-2.9-6.1-4.6-7.2-5.3l0,0
				c11.8,25.7,15.3,45.6,16.2,52.1l0,0c0-0.8,0-1.5,0-2.3l0,0c0-7.8-1.3-16.7-2.7-23.7l0,0c-1.3-7-2.7-11.9-2.7-11.9l0,0
				c0-0.1,0-0.2,0.1-0.2l0,0c0.1-0.1,0.2,0,0.2,0l0,0c5.3,4.1,9.1,15.9,9.7,18.1l0,0c1-1.2,2.3-4.3,3.4-7.1l0,0c1.1-3.1,2-5.9,2-5.9
				l0,0C211.2,103.9,211.2,103.8,211.3,103.8L211.3,103.8C211.3,103.8,211.3,103.8,211.3,103.8L211.3,103.8z M206.3,107.2l0.2-0.1
				L206.3,107.2L206.3,107.2z"/>
		</g>
		<g>
			<path class="st2" d="M111.7,157.3c0,12.2,2.1,25,12.7,41.4l0,0c9.9,21,28.3,32.2,36.8,36.6l0,0c2.8,1.4,4.6,2.1,4.6,2.1l0,0
				c13.6,6.4,26.4,8.8,37.8,8.8l0,0c24,0,42.2-10.3,49.7-15.5l0,0c2.5-1.7,3.9-2.9,3.9-2.9l0,0l0.1,0.2l-0.1-0.2
				c0.5-0.4,0.9-0.7,1.2-1l0,0c-0.1,0.1-0.3,0.2-0.5,0.3l0,0c-0.5,0.3-1,0.6-1,0.7l0,0c-18.6,10.9-35.8,14.3-49.8,14.3l0,0
				c-21.9,0-36.2-8.2-36.2-8.2l0,0c-46.6-24.4-47.2-66.7-47.2-66.8l0,0c0-0.1,0.1-0.2,0.2-0.2l0,0c0.1,0,0.2,0,0.2,0.1l0,0
				c6,11.6,13.3,15.6,16.5,16.9l0,0c0.5,0.2,0.8,0.3,1.1,0.4l0,0c-13.5-17.1-17.4-31.4-17.4-42.2l0,0c0-14.3,6.8-22.5,6.8-22.5l0,0
				c0.1-0.1,0.2-0.1,0.2-0.1l0,0c0.1,0,0.1,0.1,0.1,0.2l0,0c-1,5.1-1.3,9.5-1.3,13.4l0,0c0,6.3,1,11,2,14.1l0,0
				c0.5,1.7,1.1,2.9,1.4,3.7l0,0c-0.4-3.4-0.6-6.8-0.6-10l0,0c0-31.9,18.7-51.6,22.7-55.4l0,0c-3,1.2-6.5,4.4-9.5,7.4l0,0
				c-3.2,3.3-5.7,6.4-5.7,6.4l0,0c-0.1,0.1-0.1,0.1-0.2,0.1l0,0c-0.1,0-0.1-0.1-0.1-0.2l0,0c0-2.5,1.5-5.7,2.3-7.3l0,0
				c-2.4,2.2-4.4,5.6-5.8,8.6l0,0c-1.6,3.3-2.4,6.1-2.4,6.1l0,0l0,0.1c-4.9,5.6-8.2,11.4-10.2,15.9l0,0c-2,4.4-2.8,7.5-2.8,7.5l0,0
				c-0.2,0.7-0.3,1-0.4,1.2l0,0c0,0,0,0.1-0.2,0.2l0,0c-0.3-0.1-0.2-0.2-0.2-0.3l0,0c0-0.1,0-0.2,0-0.3l0,0c0-0.4,0.1-0.9,0.1-0.9
				l0,0c0.1-6,2.6-12.8,3.6-15.3l0,0c-7.1,7.6-8.8,18-8.8,26.2l0,0c0,7.8,1.5,13.8,1.6,13.8l0,0l0,0c0,4.9,1,10.9,1.9,15.7l0,0
				c0.9,4.8,1.9,8.4,1.9,8.4l0,0c0.3,0.9,0.4,1.4,0.4,1.6l0,0c0,0,0,0.1,0,0.1l0,0c0,0.1-0.1,0.1-0.2,0.1l0,0
				c-0.3-0.1-0.2-0.2-0.4-0.3l0,0c-0.1-0.1-0.2-0.3-0.3-0.5l0,0c-0.2-0.3-0.4-0.7-0.4-0.7l0,0c-5-7.6-7.4-20.2-7.9-23.3l0,0
				C111.7,156.2,111.7,156.7,111.7,157.3L111.7,157.3z"/>
		</g>
	</g>
	<g>
		<g>
			<path class="st3" d="M268.8,103.4c0,0-22.7-30.5-65.3-30.5c-0.1,0-0.3,0-0.5,0c-0.2,0-0.4,0-0.6,0c-0.2,0-0.4,0.1-0.5,0.4
				c0,0.3,0.2,0.4,0.5,0.5c0,0,5.9,4.5,9.6,9.1l0.1,0.1l0.1-0.1c0,0,1-0.5,2.8-1c1.8-0.5,4.3-1,7.3-1c4,0,8.7,0.8,13.7,3.6
				c-2.1,1-12.8,6.4-15,12.5l0,0.1l0.1,0.1c0,0,10.8,9.8,32.9,9.8c3.5,0,7.3-0.2,11.5-0.8c0,0,0.9-0.1,1.9-0.4c0.9-0.3,2-0.7,2-1.7
				C269.2,104,269.1,103.7,268.8,103.4z"/>
		</g>
		<g>
			<path class="st3" d="M222.9,146.1c-0.1-0.1-0.2-0.1-0.3,0c-0.1,0.1-0.1,0.2,0,0.3c0,0,0.3,0.3,0.7,0.8c1.2,1.7,3.7,6,3.7,13.2
				c0,5.1-1.2,11.7-5,19.9c0-1.4-0.2-4.2-0.8-7.2c-0.8-4.1-2.3-8.6-5.6-9.6c-0.1,0-0.1,0-0.2,0c0,0-0.1,0.1-0.1,0.1l-2,18l0,0.1
				l7.3,26.9l-14.3,11.5c-0.1,0-0.1,0.1-0.1,0.2c0,0.1,0.1,0.1,0.1,0.2c0,0,5.6,1.8,15,1.8c5,0,11.1-0.5,18.1-2c0,0,1.7-0.4,2.3-2.1
				c0,0,1.6-7.4,1.6-17.9C243.4,184.8,239.9,162.2,222.9,146.1z"/>
		</g>
		<g>
			<path class="st3" d="M246.4,218.7c-0.3-0.2-0.4-0.6-0.4-1.1l0,0c0-0.2,0-0.5,0.1-0.8l0,0c0,0,0.6-2.1,1.1-5.8l0,0
				c0.6-3.7,1.1-8.9,1.1-15l0,0c0-16.2-3.9-38.9-22-56.5l0,0c0,0-0.1-0.1-0.3-0.2l0,0c-0.1-0.1-0.3-0.2-0.3-0.5l0,0
				c0-0.1,0.1-0.2,0.2-0.2l0,0c0.1,0,0.1,0,0.2,0l0,0c0.2,0,0.4,0,0.8,0.1l0,0c0,0,4.8,1.5,8.2,5.3l0,0c-0.1-0.9-0.4-2.6-1-4.8l0,0
				c-0.9-3.2-2.6-7.2-5.6-10.7l0,0c0,0-0.2-0.2-0.4-0.4l0,0c-0.2-0.3-0.4-0.4-0.4-0.7l0,0c0,0,0-0.1,0.1-0.2l0,0
				c0.1-0.1,0.1-0.1,0.2-0.1l0,0c0.2,0,0.4,0.2,0.9,0.5l0,0c1.1,0.5,46.5,22.5,48.1,66.9l0,0c0,0,0,0.3,0,0.7l0,0
				c0,1.1-0.2,3.2-1.6,4.5l0,0c-0.4,0.6-11.2,13.9-27,19.1l0,0c0,0-0.5,0.2-1,0.2l0,0C247,219,246.7,218.9,246.4,218.7L246.4,218.7z
				 M226.1,138.8L226.1,138.8L226.1,138.8L226.1,138.8L226.1,138.8L226.1,138.8z"/>
		</g>
		<g>
			<path class="st3" d="M280.4,186.1c-0.9-36.6-35.4-61.6-52.6-71.8l0,0c-5.7-3.4-9.5-5.1-9.5-5.2l0,0l-0.8-0.4l0.9,0
				c0,0,0.1,0,0.1,0l0,0c6.1,0,9.9,3.7,11,5l0,0c0-2.2-0.9-4.7-0.9-4.7l0,0l-0.2-0.4l0.4,0.2c4.9,1.9,11.2,2.5,17.4,2.5l0,0
				c6,0,11.9-0.6,16.2-1.2l0,0c4.4-0.6,7.2-1.2,7.3-1.2l0,0c0.2,0,0.4,0,0.6,0l0,0c2.5,0,3.3,1.4,3.4,1.6l0,0
				c5.9,6.5,13.1,21.7,14.3,39.8l0,0c0.2,2.3,0.2,4.5,0.2,6.6l0,0c0,13.7-2.8,24.2-5,28.6l0,0c-0.8,1.5-1.3,2.3-2,2.4l0,0
				C280.6,187.9,280.5,187.3,280.4,186.1L280.4,186.1"/>
		</g>
	</g>
	<path class="st1" d="M180.9,67.8c0,0,0.1-0.1,0.1-0.1c0,0,0,0,0,0l0,0c-0.5,0.1-9.8,2.9-12.6,17.1c0,0,0,0.3,0.1,0
		c0.8-1.4,3.8-5.8,6.4-4.5c0,0,0-0.1,0-0.3C175.2,78.8,176,73.9,180.9,67.8z"/>
	<g>
		<path class="st1" d="M173.8,196.3c-2-4.1-15-32.3-15-32.3c-4,1.3-9-2-9-2c0,0,0,0,0,0c6.4,16.9,21.4,31.7,23.8,34.4c0,0,0,0,0,0
			c0.4,0.4,0.4,0.3,0.4,0.3C174,196.6,173.9,196.5,173.8,196.3z"/>
	</g>
	<g>
		<path class="st1" d="M161,104.2c-11.7,26.7,14.6,37.7,15,37.9c0,0,0,0,0,0l-1.4-6.2l-0.8-3.5c-0.7-0.2-1.3-0.5-1.9-0.7
			c-0.2-0.1-0.4-0.2-0.6-0.3c-0.2-0.1-0.5-0.2-0.7-0.4c-11.5-6.1-10.4-20.7-9.7-25.5c0,0,0-0.1,0-0.1c0-0.1,0-0.3,0.1-0.4
			c0.1-0.4,0.1-0.8,0.2-0.9c0-0.1,0-0.1,0-0.1c0,0,0,0,0,0C161.2,103.7,161,104.1,161,104.2z"/>
	</g>
	<path class="st2" d="M178.3,179.4l-1.9-33.6l11.3,37.4C187.7,183.3,184,174.4,178.3,179.4z"/>
	<g>
		<path class="st2" d="M187.6,113.8l-8.7-31.7c0,0.2,0,0.2,0,0.7l2.5,20.1c0,0,0.1,0.3,0.1,0.7c0,1.1-0.7,2.6-6-3
			c-0.3-0.3-0.4-0.4-0.4-0.4C180.6,111.4,187.6,113.8,187.6,113.8z"/>
	</g>
	<path class="st2" d="M167,119.5c-0.7-1.7-1-3.2-1-4.5c0-4.9,3.6-7.6,3.6-7.6l0.1-0.1c0,0.1-0.2-3.1,0.1-8.1
		c-2.9,4.2-9,14.3-1.7,22.2c-0.1-0.2-0.2-0.3-0.3-0.5C167.4,120.4,167.2,119.9,167,119.5z"/>
	<path class="st1" d="M174.6,123.6c-1.2-2.2-4.4-9.1-4.9-16.2c0,0,0-0.1,0-0.1l-0.1,0.1c0,0-3.6,2.8-3.6,7.6c0,1.3,0.3,2.9,1,4.5
		c0.2,0.4,0.5,0.8,0.8,1.4c0.1,0.1,0.2,0.3,0.3,0.5c0.1,0.2,0.3,0.3,0.5,0.5c1.2,1.3,3.3,2.7,6.7,2.9
		C175.3,124.8,175,124.4,174.6,123.6z"/>
	<g>
		<path class="st2" d="M185.1,183.7c0,0-5.5-1.4-5.2,10.1c0,0,0,0,0,0c0-0.3,0.1-0.6,0.3-1c1.7-3.8,3.2-5.3,4.6-5.4
			c1.2,0,2.1,1.1,2.8,2.6c0.7,1.5,1.3,3.5,1.8,5.4c0.4,1.6,0.7,3.2,0.9,4.5c0.1,0.8,0.2,1.8,0.2,3.1c0,0.1,0,0.1,0,0.1c0,0,0,0,0,0
			c0,0,0,0,0,0C190.7,201.9,193.2,185.9,185.1,183.7z"/>
		<path class="st1" d="M190.5,203.2c0,0,0,0,0-0.1c-0.1-1.3-0.1-2.3-0.2-3.1c-0.2-1.3-0.5-2.9-0.9-4.5c-0.5-2-1-3.9-1.8-5.4
			c-0.7-1.5-1.6-2.5-2.8-2.6c-1.4,0-2.9,1.6-4.6,5.4c-0.1,0.3-0.2,0.7-0.3,1c0,0,0,0,0,0l2.8,6C182.7,199.9,184.3,183.7,190.5,203.2
			C190.5,203.2,190.5,203.2,190.5,203.2C190.5,203.2,190.5,203.2,190.5,203.2C190.5,203.2,190.5,203.2,190.5,203.2z"/>
	</g>
</g>
</svg>
