<?xml version="1.0" encoding="utf-8"?>
<!-- Generator: Adobe Illustrator 24.0.1, SVG Export Plug-In . SVG Version: 6.00 Build 0)  -->
<svg version="1.1" id="Layer_1" xmlns="http://www.w3.org/2000/svg" xmlns:xlink="http://www.w3.org/1999/xlink" x="0px" y="0px"
	 viewBox="0 0 400 400" style="enable-background:new 0 0 400 400;" xml:space="preserve">
<style type="text/css">
	.st0{fill:#FFFFFF;}
	.st1{fill:#9EA2A2;}
	.st2{fill:#707271;}
	.st3{fill:#373A36;}
	.st4{fill:#061922;}
	.st5{fill:#CE1141;}
</style>
<g>
	<path class="st0" d="M329.9,142.1c-10.8-24.7-28.3-45.6-50.8-60.9c-23.6-16-51.2-24.5-79.8-24.5c-28.6,0-56.2,8.5-79.8,24.5
		c-22.3,15.2-39.9,36.3-50.8,60.9c-48.4,12.7-58.6,28.5-58.6,39.6l0.1,60.3c0.7,10.2,11.3,29,74.9,42.2
		c12.9,17.1,29.6,31.4,48.5,41.3c20.1,10.5,42.8,16,65.6,16s45.5-5.5,65.6-16c18.9-9.9,35.7-24.2,48.5-41.3
		c63.6-13.2,74.2-32.1,74.9-42.3v-60.2C388.5,170.7,378.3,154.8,329.9,142.1z"/>
	<g>
		<path class="st1" d="M326.5,146c-20.9-49.7-70-84.6-127.1-84.6S93.2,96.3,72.3,146c-35.3,9-57.3,21.7-57.3,35.8v60
			c0-12.7,17.8-23.2,47-31.9c5.4,71.1,65,127.2,137.5,127.2c72.4,0,132-56.2,137.5-127.2c29.2,8.7,47,19.2,47,31.9v-60
			C383.9,167.7,361.9,155,326.5,146z"/>
		<path class="st2" d="M383.7,240.1c0-0.2-0.1-0.4-0.1-0.7c0-0.3-0.1-0.5-0.2-0.8c0-0.1-0.1-0.3-0.1-0.4c-0.1-0.3-0.2-0.6-0.3-0.9
			c0-0.1-0.1-0.2-0.1-0.3c-0.1-0.4-0.3-0.7-0.4-1.1v-0.1c-1.9-4.3-5.9-8.2-11.6-11.9c-9.2,6.1-23.1,11.8-40,16.3l0,0l0,0
			c-2.2,7.2-5.1,14.1-8.4,20.8l0,0l0,0c-3.4,6.7-7.3,13-11.6,18.9l0,0c43.5-8.8,71.9-22.7,72.9-38.4c0-0.4,0-0.8-0.1-1.2
			C383.8,240.4,383.8,240.3,383.7,240.1z"/>
		<path class="st2" d="M15.1,240.1c0-0.2,0.1-0.4,0.1-0.7c0-0.3,0.1-0.5,0.2-0.8c0-0.1,0.1-0.3,0.1-0.4c0.1-0.3,0.2-0.6,0.3-0.9
			c0-0.1,0.1-0.2,0.1-0.3c0.1-0.4,0.3-0.7,0.4-1.1v-0.1c1.9-4.3,5.9-8.2,11.6-11.9c9.2,6.1,23.1,11.8,40,16.3l0,0l0,0
			c2.2,7.2,5.1,14.1,8.4,20.8l0,0l0,0c3.4,6.7,7.3,13,11.6,18.9l0,0C44.4,271.3,16,257.4,15,241.7c0-0.4,0-0.8,0.1-1.2
			C15,240.4,15.1,240.3,15.1,240.1z"/>
		<circle class="st3" cx="199.4" cy="199.2" r="130.7"/>
		<g>
			<path class="st4" d="M366.4,167.4c-8.7-5.5-21.8-10.6-38-15c-2.5-0.7-5.1-1.4-7.7-1.9c-19.3-48-66.3-81.9-121.2-81.9
				S97.5,102.4,78.2,150.5c-2.6,0.6-5.2,1.3-7.7,1.9c-16.1,4.4-29.3,9.5-38,15c-5.4,3.4-11.8,8.7-11.8,14.4v41.1
				c9.8-7.9,25.5-14.8,46.9-20.5c0.4-0.1,0.9-0.2,1.3-0.3c1.5,70.9,59.5,127.8,130.6,127.8c71.2,0,129.2-56.9,130.6-127.8
				c0.4,0.1,0.9,0.2,1.3,0.3c21.4,5.7,37.1,12.6,46.9,20.5v-41.1C378.2,176,371.8,170.8,366.4,167.4z M282.3,117.1
				c0.5-1,1.7-1.3,2.5-0.5c8.7,9,16,19.3,21.5,30.6c-1.1-0.2-2.2-0.4-3.3-0.6c-7.1-8-15.1-15.3-23.8-21.5
				C280,122.4,281,119.7,282.3,117.1z M251.9,92.7c8,4,15.6,8.8,22.4,14.4c1.5,1.2,1.9,3.3,1.1,4.9c-1.4,2.7-2.5,5.4-3.5,8.3
				c-6.3-4-12.9-7.4-19.8-10.4c-1-4.9-2-9.9-3.3-14.7C248.3,93.3,250.3,91.8,251.9,92.7z M216.7,81.6c6,0.9,11.8,2.2,17.5,3.9
				c2.1,0.7,3.8,2.3,4.4,4.4c1.6,5.3,3.1,10.7,4.3,16.2c-6.9-2.4-14-4.3-21.3-5.6c-1-3.1-2-6.1-3.4-9c-1.1-2.3-2.3-4.5-3.6-6.8
				C213.6,83.4,214.9,81.4,216.7,81.6z M318.2,199.2c0,21.1-5.5,40.9-15.2,58.1c-0.6,1.1-2.1,0.4-1.8-0.7v-0.1
				c4.6-20.6,3.6-41.6-2.7-61.2c-0.6-1.7-1.2-3.5-1.7-5.1c-0.3-0.8-1-1.4-1.8-1.5l-5.3-0.9c-1.4-0.2-2.3,1.1-1.8,2.3
				c0.5,1.3,1,2.4,1.5,3.7c7.1,19.3,8.4,40.2,3.9,60.8c-0.3,1.2-0.6,2.4-0.9,3.6c-4.8,18.8-18.2,34-35.9,41.8
				c-14.9,6.6-31.4,10.2-48.6,10.3c-7.4,0-14.8-0.6-21.8-1.8c-2.9-0.5-4-4.3-1.6-6.2c4.2-3.5,8.1-7.2,12-11c2.8-2.8,5.4-5.6,8-8.5
				c1.1-1.3,1.6-2.8,1.6-4.5l-0.2-7.2c0-1.1-1.4-1.5-2-0.7c-9.1,11.1-19.3,21.2-30.5,30.1c-2.8,2.2-6.7,2.8-10.1,1.5
				c-16-6.3-30.5-16-42.2-28c-2.4-2.4-3.5-5.9-2.7-9.3c3.2-14.5,9-28.3,17.1-40.7c0.7-1.1,0.2-2.5-1.1-2.9c-1.5-0.5-3-1-4.4-1.5
				c-0.8-0.3-1.7,0-2.2,0.7c-6.8,10.5-12,22-15.6,34c-0.9,2.9-4.6,3.5-6.3,1c-11.1-16.6-18.2-36.2-19.8-57.2
				c-0.3-3.3-0.4-6.6-0.4-9.9c0-0.4,0-0.8,0-1.1c0.1-15.4,5.9-30.1,16-41.4c1.6-1.9,3.5-3.7,5.4-5.4c17.5-15.5,39.2-26.4,62.9-31
				c0.7-2.9,1.5-5.8,2.4-9c-23.4,3.9-45,13.5-63,27.3c-1.7,1.3-3.9-0.9-2.5-2.5c22-27.6,56-45.1,94.1-44.7l0,0
				c4,4.4,7.3,9.3,9.9,14.8c0.6,1.4,1.2,2.7,1.7,4.1c-5.4-0.6-10.9-1-16.4-1c-2.6,0-5.2,0.1-7.7,0.2c0.8,2.7,1.5,5.4,2,8.3
				c1.9-0.1,3.8-0.1,5.7-0.1c6.5,0,12.8,0.5,19,1.4c0.5,2.4,0.9,4.9,1.1,7.4c0.1,0.7,0.6,1.3,1.3,1.5c2.7,0.7,5.1,1.6,7.3,2.7
				c0-3.4-0.3-6.8-0.8-10.1c7.3,1.5,14.3,3.7,21.1,6.3c1.1,6.8,1.8,13.6,2.2,20.6c0.1,1.1,0.9,2,1.9,2.2l5,0.8
				c0.8,0.1,1.5-0.5,1.5-1.4c-0.3-6.2-0.9-12.3-1.6-18.4c5.6,2.7,10.9,5.7,16,9.1c-0.7,3.7-1,7.3-1,10.9c0,0.9,0.4,1.5,1.1,2
				c0.3,0.2,0.7,0.4,1.1,0.5l5.1,0.9c0.4,0.1,0.8-0.1,1.1-0.4c0.1-0.2,0.2-0.4,0.2-0.7c-0.1-2.5-0.1-5.1,0.2-7.6
				c4.1,3.1,8,6.5,11.7,10.1c11.4,10.9,20.9,23.9,27.8,38.2C317.8,188,318.2,193.5,318.2,199.2L318.2,199.2z"/>
		</g>
		<g>
			<path class="st1" d="M226.6,191.8l0.2-18.8c0-8.8-9.2-10.3-16-10.2c4.5-1.5,10.1-4.1,13.9-8.3c4.2-3.9,7.2-9.2,6.6-16.8
				c-0.9-12.8-16.8-19.1-43.2-16.5c-0.4,0-0.9,0.1-1.3,0.1c-1.3-9.4-3.2-18.6-6.1-27l-1.4,1.3c-3.5,10.9-5.6,19.6-6.9,27.6
				c-15.8,2.7-26.8,6.4-26.8,6.4l-1.3,1.3c0,0,12.8-1.2,27.3-1c-1.6,16.5,0,32.2,0,61.9c-23.5-0.7-44.1,3.3-49.1,9.5
				c-1.6,1.4-2.5,2.9-2.5,4.4c0.3,7.2,21.7,13.8,51.6,16.3l1.3,40.8l1.3-1.3l2.1-27.6c0-0.5,0.1-0.9,0.2-1.2
				c0.7,0.1,1.3,0.9,1.3,2.3l1,36.4l1.4-1.3l2.2-29.6c0-0.7,0.1-1.2,0.2-1.6c0.7,0.1,1.3,1.1,1.2,2.7l1.1,38l1.3-1.3l1.8-55.2
				c3.5,0.1,7,0.2,10.5,0.2c3.8,0,7.5-0.1,11.2-0.2l1.8,57.6l1.3-1.3l1.5-30.2c0-0.6,0.1-1.1,0.2-1.5c0.6,0.1,1.2,1.1,1.2,2.6
				l1.5,42.2l1.3-1.3L220,255c0-0.5,0.1-1,0.2-1.4c0.8,0,1.5,0.9,1.5,2.6l1.3,48.4l1.3-1.4l1.9-81c25.6-2.2,45.1-7.4,50-13.3
				c1.6-1.4,2.4-2.7,2.4-4.2C278.3,196.5,254.5,190.4,226.6,191.8 M171.6,213.4c-20.6-2-34.4-6.2-34.4-11.4c0-0.4,0.1-0.8,0.3-1.1
				c4.8-3.4,19.6-5.5,34.4-7.7c0,5.8-0.1,12.1-0.3,19L171.6,213.4z M213.4,142.6c0.8,5.8-0.9,10.2-3.9,13.5
				c-5.4,4.8-13.7,7.1-20.6,8.1c0.1-11,0-22.3-1-33.5C201.1,132.1,212.5,135.5,213.4,142.6 M209.6,214.6c-3.2,0.1-6.5,0.2-9.9,0.2
				c-4,0-7.8-0.1-11.6-0.2l0.2-4.6c-0.4-11.9,0.4-26.8,0.6-42.6c9.7,1.2,21.3,3.9,21.1,10.6L209.6,214.6z M260.7,205.4
				c-4.8,3.8-17.5,6.7-34.3,8.2l0.2-20.2c19.2,2.5,34.9,5.3,34.9,10C261.5,204,261.2,204.7,260.7,205.4"/>
			<path class="st5" d="M278.7,204.4c-0.4-7.9-24.1-14-52-12.7l0.2-18.8c0-11.6-16-10.5-21.4-9.8c6.3-1.2,27.3-6.4,25.9-25.5
				c-0.9-12.8-16.8-19.1-43.2-16.5c-0.4,0-0.9,0.1-1.3,0.1c-1.3-9.4-3.2-18.6-6.1-27c-3.7,11.4-5.8,20.4-7,28.7
				c-16.3,2.7-27.9,6.6-27.9,6.6s12.8-1.2,27.3-1c-1.6,16.7,0.1,32.7,0,63.2c-27.7-1-51.9,4.4-51.6,12.7
				c0.3,7.2,21.6,13.8,51.6,16.3l1.3,40.8l2.1-27.6c0.1-3.4,2.7-3.1,2.7-0.2l1,36.4l2.2-29.6c0-4,2.8-3.8,2.7-0.2l1.1,38l1.8-56.6
				c3.9,0.1,7.8,0.2,11.8,0.2c3.8,0,7.5-0.1,11.2-0.2l1.8,57.6l1.5-30.2c0-3.9,2.6-3.7,2.6-0.2l1.5,42.2l1.5-36.5
				c0.1-3.6,3-3.4,3.1,0l1.3,48.4l1.9-82.2V221C256.6,218.2,278.7,211.6,278.7,204.4 M214.7,141.4c2.1,16-14.1,21.2-25.8,22.9
				c0.1-11.4-0.1-23.4-1.2-35C201.6,130.6,213.7,133.9,214.7,141.4 M137.1,202c0-4.8,18-7.4,36-10.2c0,5.8-0.1,12.1-0.3,19l0.1,2.6
				C151.6,211.7,137.1,207.4,137.1,202 M188.1,214.5l0.2-4.6c-0.4-12.2,0.4-27.6,0.7-44.1c9.9,1,22.5,3.7,22.3,10.7l-0.4,38
				c-3.6,0.1-7.3,0.2-11.2,0.2C195.7,214.7,191.9,214.7,188.1,214.5 M226.4,213.6l0.3-21.7c19.8,2.5,36.2,5.4,36.2,10.2
				C262.7,207.4,247.9,211.7,226.4,213.6"/>
		</g>
		<path class="st0" d="M61.5,164c-2.5,0.9-4.9,1.6-7.3,2.5c-1.5,0.6-2.9,2.3-2.9,4c0,8.5,0,16.9,0,25.4c0,1.6,1.3,2.5,2.9,1.9
			c2.4-0.9,4.9-1.7,7.3-2.5c1.5-0.5,2.9-2.3,2.9-3.9c0-8.5,0-16.9,0-25.4C64.3,164.3,63.1,163.4,61.5,164z M59.6,191.1
			c-1.2,0.4-2.4,0.9-3.6,1.3c0-7.2,0-14.4,0-21.6c1.2-0.4,2.4-0.9,3.6-1.3C59.6,176.7,59.6,183.8,59.6,191.1z M135.9,146.2
			c-2.5,0.4-5.1,0.8-7.6,1.2c-1.6,0.3-3,1.8-3,3.5c0,8.5,0,16.9,0,25.4c0,1.6,1.4,2.7,3,2.4c2.5-0.4,5.1-0.9,7.6-1.2
			c1.6-0.2,3-1.7,3-3.4c0-8.5,0-16.9,0-25.4C138.8,147.1,137.5,145.9,135.9,146.2z M134,172.9c-1.3,0.2-2.5,0.4-3.8,0.6
			c0-7.2,0-14.4,0-21.6c1.3-0.2,2.5-0.4,3.8-0.6C134,158.5,134,165.7,134,172.9z M78.5,158.7c1.6-0.5,3.2-1,4.8-1.4
			c0,9.5,0,18.9,0,28.3c0,1.6-1.4,3.3-2.9,3.8c-2.5,0.7-5,1.5-7.4,2.2c-1.5,0.5-2.9-0.4-2.9-2c0-9.5,0-18.9,0-28.3
			c1.6-0.5,3.2-1,4.8-1.5c0,8.8,0,17.6,0,26.4c1.3-0.4,2.4-0.7,3.7-1.1C78.5,176.3,78.5,167.5,78.5,158.7z M41,171.4
			c1.5-0.6,3.1-1.3,4.7-1.8c0,10.4,0,20.9,0,31.3c-1.5,0.6-3.2,1.2-4.7,1.8c0-4.4,0-8.8,0-13.2c-1.1,0.4-2.2,0.9-3.3,1.3
			c0,4.4,0,8.8,0,13.2c-1.5,0.6-3.1,1.3-4.6,1.9c0-10.4,0-20.9,0-31.3c1.5-0.7,3.1-1.3,4.6-1.9c0,4.4,0,8.8,0,13.2
			c1.1-0.5,2.2-0.9,3.3-1.3C41,180.3,41,175.8,41,171.4z M107.1,151.4c4.4-1,9-1.8,13.4-2.7c0,1.6,0,3.3,0,4.8
			c-1.5,0.3-2.9,0.6-4.3,0.8c0,8.8,0,17.6,0,26.4c-1.6,0.3-3.3,0.7-4.9,1c0-8.8,0-17.6,0-26.4c-1.5,0.3-2.8,0.6-4.3,0.9
			C107.1,154.7,107.1,153.1,107.1,151.4z M157.5,143.5c0,10.4,0,20.9,0,31.3c-1.6,0.2-3.3,0.3-4.9,0.5c0-1.8,0-3.7,0-5.5
			c-1.2-3.3-2.3-6.5-3.5-9.8c0,5.2,0,10.4,0,15.7c-1.6,0.2-3.3,0.4-4.9,0.6c0-10.4,0-20.9,0-31.3c1.6-0.2,3.2-0.4,4.8-0.6
			c1.2,3.4,2.3,6.7,3.6,10.1c0-3.5,0-7,0-10.4C154.3,143.9,155.9,143.7,157.5,143.5z M102.3,155.4c0,1.3,0,2.4,0,3.7
			c-1.6,0.4-3.3,0.8-4.8,1.2c0-0.6,0-1.2,0-1.7c-1.3,0.3-2.4,0.6-3.7,0.9c0,2.1,0,4.4,0,6.5c2.3,1.1,4.6,2.2,7.1,3.4
			c1.2,0.6,1.5,1.5,1.5,2.9c0,2.9,0,5.8,0,8.7c0,1.6-1.4,3.2-2.9,3.6c-2.5,0.6-5,1.3-7.5,1.8c-1.6,0.4-2.9-0.6-2.9-2.2
			c0-1.3,0-2.4,0-3.7c1.6-0.4,3.2-0.9,4.8-1.3c0,0.6,0,1.2,0,1.7c1.3-0.3,2.4-0.6,3.7-0.9c0-2.1,0-4.4,0-6.5c-2.3-1.2-4.6-2.2-7-3.3
			c-1.2-0.5-1.5-1.5-1.5-2.9c0-2.9,0-5.8,0-8.7c0-1.6,1.4-3.3,2.9-3.7c2.5-0.7,5-1.3,7.5-1.8C101,152.8,102.3,153.9,102.3,155.4z
			 M271.6,147.6c-2.5-0.4-5.1-0.9-7.6-1.3c-1.6-0.3-3,0.9-3,2.5c0,8.5,0,16.9,0,25.4c0,1.6,1.4,3.1,3,3.4c2.5,0.4,5.1,0.8,7.6,1.3
			c1.6,0.3,3-0.8,3-2.4c0-8.5,0-16.9,0-25.4C274.6,149.4,273.3,147.9,271.6,147.6z M269.7,173.7c-1.3-0.2-2.5-0.4-3.8-0.6
			c0-7.2,0-14.4,0-21.6c1.3,0.2,2.5,0.4,3.8,0.6C269.7,159.3,269.7,166.5,269.7,173.7z M335.6,163.4c4.4,1.5,8.7,3,13.1,4.5
			c0,1.6,0,3.3,0,4.8c-1.4-0.5-2.8-1-4.2-1.5c0,8.8,0,17.6,0,26.4c-1.5-0.6-3.2-1.1-4.7-1.6c0-8.8,0-17.6,0-26.4
			c-1.4-0.5-2.8-1-4.2-1.4C335.6,166.6,335.6,165.1,335.6,163.4z M361,179.3c0-0.6,0-1.2,0-1.7c-1.2-0.5-2.4-1-3.6-1.5
			c0,2.1,0,4.4,0,6.5c2.2,2.6,4.5,5.1,6.8,7.7c1.1,1.3,1.5,2.5,1.5,3.9c0,2.9,0,5.8,0,8.7c0,1.6-1.3,2.4-2.8,1.7
			c-2.4-1-4.8-1.9-7.3-2.9c-1.5-0.6-2.8-2.4-2.8-4.1c0-1.3,0-2.4,0-3.7c1.5,0.6,3.2,1.2,4.7,1.8c0,0.6,0,1.2,0,1.7
			c1.2,0.5,2.4,1,3.6,1.5c0-2.1,0-4.4,0-6.5c-2.2-2.6-4.5-5.1-6.8-7.7c-1.1-1.3-1.5-2.5-1.5-3.9c0-2.9,0-5.8,0-8.7
			c0-1.6,1.3-2.4,2.8-1.8c2.4,1,4.8,1.9,7.3,2.9c1.5,0.7,2.8,2.5,2.8,4.1c0,1.3,0,2.4,0,3.7C364.2,180.5,362.7,179.9,361,179.3z
			 M313,156.7c-1.6,4.7-3.4,9.6-5,14.3c1.6,5.6,3.4,11.3,5,17c-1.7-0.5-3.4-0.9-5.1-1.4c-1.4-4.5-2.7-9-4-13.4c0,4.2,0,8.3,0,12.5
			c-1.6-0.4-3.2-0.8-4.8-1.2c0-10.4,0-20.9,0-31.3c1.6,0.4,3.3,0.8,4.8,1.2c0,4.2,0,8.3,0,12.5c1.4-3.9,2.7-7.6,4-11.4
			C309.6,155.7,311.4,156.2,313,156.7z M293.6,154.7c0,1.3,0,2.5,0,3.8c-1.6-0.4-3.3-0.7-4.8-1.1c0-0.6,0-1.2,0-1.8
			c-1.3-0.3-2.5-0.5-3.7-0.8c0,7.2,0,14.4,0,21.6c1.3,0.3,2.5,0.5,3.7,0.8c0-0.6,0-1.1,0-1.6c1.6,0.4,3.3,0.7,4.8,1.1
			c0,1.2,0,2.3,0,3.6c0,1.6-1.4,2.6-2.9,2.3c-2.5-0.6-5-1.1-7.6-1.5c-1.6-0.3-3-1.9-3-3.5c0-8.5,0-16.9,0-25.4c0-1.6,1.4-2.7,3-2.3
			c2.5,0.5,5,1.1,7.6,1.5C292.2,151.5,293.6,153.2,293.6,154.7z M255,160.2c0-4.1,0-8.1,0-12.2c0-1.6-1.4-3.1-3-3.3
			c-3.6-0.4-7.1-0.8-10.6-1.2l0,0c0,10.4,0,20.9,0,31.3c1.6,0.2,3.3,0.3,4.9,0.5c0-4.4,0-8.8,0-13.2c0.7,0.1,1.4,0.2,2,0.2
			c0.7,4.4,1.5,9,2.1,13.4c1.6,0.2,3.3,0.4,5,0.6c-0.8-4.5-1.5-9.2-2.2-13.7C254.3,162.4,255,161.4,255,160.2z M250.1,157.7
			c-1.3-0.2-2.5-0.3-3.8-0.4c0-2.8,0-5.6,0-8.3c1.3,0.1,2.5,0.3,3.8,0.4C250.1,152.1,250.1,154.9,250.1,157.7z M318.4,158.1
			c4.4,1.3,8.7,2.6,13.1,4c0,1.6,0,3.3,0,4.8c-2.7-0.9-5.5-1.7-8.3-2.5c0,2.8,0,5.6,0,8.3c2,0.6,4.1,1.3,6.2,1.8c0,1.6,0,3.3,0,4.8
			c-2-0.7-4.1-1.3-6.2-1.8c0,2.8,0,5.6,0,8.3c2.8,0.8,5.5,1.6,8.3,2.5c0,1.6,0,3.3,0,4.8c-4.4-1.4-8.7-2.7-13.1-4
			C318.4,179,318.4,168.6,318.4,158.1z"/>
	</g>
</g>
</svg>
