<?xml version="1.0" encoding="utf-8"?>
<!-- Generator: Adobe Illustrator 24.0.1, SVG Export Plug-In . SVG Version: 6.00 Build 0)  -->
<svg version="1.1" id="Layer_1" xmlns="http://www.w3.org/2000/svg" xmlns:xlink="http://www.w3.org/1999/xlink" x="0px" y="0px"
	 viewBox="0 0 400 400" style="enable-background:new 0 0 400 400;" xml:space="preserve">
<style type="text/css">
	.st0{fill:#B4975A;}
	.st1{fill:#0A2240;}
	.st2{fill:#CE0E2D;}
	.st3{fill:#FFFFFF;}
</style>
<g>
	<path class="st0" d="M372.3,169.8l1.1,0.4v-19.7c0-3.1-0.5-6.2-1.6-9.2c-1.1-3-2.6-5.9-4.6-8.5c-1.8-2.3-3.9-4.5-6.2-6.3
		c-2.1-1.6-4.3-3-6.7-4.1c-1.5-1-4.5-2.4-12.6-5.7c-6.9-2.7-18-6.9-32.4-11.1c-13.1-3.9-30-8.2-48.7-11.4c0,0,0,0,0,0
		c-0.1-0.2-12.7-15.9-31.6-7.8c-0.6,0.3-1.3,0.6-1.9,0.9c-2.8,1.4-5.3,2.6-10.1,1.3c-2.8-0.8-6.4-2.5-5-8.8c0.3-1.4,1.4-3.3,3.2-4.3
		c1.2-0.7,2.5-0.9,3.9-0.5c2.5,0.7,3.6,2.1,3.2,4.2c-0.1,0.8-0.7,1.6-1.5,1.9c-0.8,0.3-1.6,0.1-2.6-0.5c-0.9-0.6-2.1-0.4-2.8,0.5
		c-0.6,0.9-0.4,2.2,0.5,2.8c2.1,1.4,4.4,1.8,6.4,0.9c2-0.8,3.5-2.7,3.8-4.9c0.3-1.6,0.7-6.8-6-8.7c-2.4-0.7-4.9-0.4-7,0.8
		c-2.4,1.4-4.4,4.1-5,6.9c0,0.1,0,0.2,0,0.2c-0.8-1.1-1.6-2-2-2.4l-6.5-6.7l-6.5,6.7c-0.4,0.4-1.2,1.3-2,2.4c0-0.1,0-0.2,0-0.2
		c-0.6-2.7-2.6-5.4-5-6.9c-2.2-1.3-4.6-1.5-7-0.8c-6.7,2-6.3,7.2-6,8.7c0.4,2.1,1.9,4,3.8,4.9c2,0.9,4.3,0.5,6.4-0.9
		c0.9-0.6,1.1-1.9,0.5-2.8c-0.6-0.9-1.9-1.1-2.8-0.5c-1,0.7-1.8,0.8-2.6,0.5c-0.7-0.3-1.3-1.1-1.5-1.9c-0.4-2.1,0.7-3.5,3.2-4.2
		c1.4-0.4,2.7-0.2,3.9,0.5c1.7,1,2.8,2.9,3.2,4.3c1.5,6.3-2.1,8.1-5,8.8c-4.8,1.3-7.3,0.1-10.1-1.3c-0.6-0.3-1.3-0.6-1.9-0.9
		c-18.9-8.1-31.5,7.6-31.7,7.8c0,0,0,0.1-0.1,0.1c-18,3.1-34.3,7.2-47,10.9c-24.4,7.2-44.1,16.1-44.9,16.5l-2.6,1.2l0,0.4
		c-1.1,0.2-2.3,0.5-3.4,1.1c-4.2,1.9-8.3,4-12.4,6l-3.1,1.6v10.7c0,2.6,0.5,4.7,1.5,6.5c0.2,0.4,0.4,0.7,0.7,1v11.9
		c-1.4,2.6-2.1,5.3-2.1,7.9c0,2.6,0.7,4.9,2.1,6.7v24.8l0.3,0.7c0.2,0.6,4.1,11.1,15.9,15.4l-0.3,0.2c0,0,6.2,10,15.8,12.1l-1.8,0.8
		c0,0,6.8,11,19.9,13.3l-1.9,0.9c0,0,8.5,9.1,21.7,10.8c14,43.5,54.8,75.1,102.9,75.1c48.1,0,88.9-31.6,102.9-75.1
		c13.2-1.7,21.7-10.8,21.7-10.8l-1.9-0.9c13.1-2.3,19.9-13.3,19.9-13.3l-1.8-0.8c9.6-2.1,15.8-12.1,15.8-12.1l0.6-0.8
		c11-4.7,17.4-15.4,17.4-25.5v-12.6C374,175.8,373.3,172.7,372.3,169.8z M253.8,93.2c-7.8-1.2-15.8-2.1-24-2.7
		c0.2-0.1,0.5-0.2,0.7-0.3C241.2,85.6,249.4,89.8,253.8,93.2z M168.5,90.2c0.3,0.1,0.5,0.2,0.7,0.4c-8.2,0.6-16.3,1.6-24.1,2.8
		C149.6,89.9,157.9,85.6,168.5,90.2z"/>
	<g>
		<path class="st1" d="M363.2,161.4l5.8,2.3v-13.2c0-2.6-0.5-5.2-1.3-7.7c-0.9-2.6-2.3-5.1-3.9-7.3c-1.6-2.1-3.4-3.9-5.4-5.5
			c-1.9-1.5-3.9-2.7-6.1-3.7c-1.1-0.8-4.1-2.3-12.1-5.4c-6.8-2.7-17.8-6.8-32-11c-23.3-7-58.4-15.2-95-15.7
			c-0.9-2.5-2.9-4.4-5.7-5.1c-0.3-4.8-3.8-8.5-4.5-9.3l-3.4-3.5l-3.4,3.5c-0.7,0.7-4.2,4.5-4.5,9.3c-2.7,0.6-4.8,2.5-5.7,5
			c-36,0.6-70.4,8.6-93.3,15.4c-24.4,7.2-44.3,16.3-44.3,16.3l0,2.7c0,0-0.3-0.2-0.5-0.3c-0.7-0.3-1.4-0.5-2.2-0.5
			c-1,0-2.1,0.3-3.3,0.8c-4.1,1.9-8.2,3.9-12.2,5.9l-0.7,0.3v8.1c0,1.8,0.3,3.2,1,4.3c0.3,0.6,0.8,1.1,1.3,1.5v14.7
			c-1.3,2.2-2.1,4.6-2.1,6.8c0,2.2,0.7,3.9,2.1,5v25.7c0,0,3.9,10.7,16.1,13.5c0.3,0.1,0.6,0.1,0.9,0.2c0,0,0,0,0.1,0
			c1.9,0.4,4,0.6,6.3,0.5c0,0,0,0,0,0c-2.2,1.1-4.3,2.1-6.5,3.3c0,0.1,6.5,10.7,21.9,9.2c-2.6,1.2-5.1,2.5-7.7,3.7
			c0,0.1,7.4,10.5,23.8,10.3c-3.8,1.9-6,3.1-6,3.1c0,0.1,7.4,7.2,19.7,8c12.8,42.7,52.4,73.9,99.3,73.9c46.9,0,86.5-31.1,99.3-73.9
			c12.4-0.9,19.7-8,19.7-8c0,0-2.3-1.2-6-3.1c16.3,0.3,23.7-10.1,23.8-10.3c-2.6-1.3-5.1-2.5-7.7-3.7c15.5,1.5,21.9-9,21.9-9.2
			c-2.2-1.1-4.3-2.2-6.5-3.3c5.3,0.4,9.6-1.1,12.9-3c8.3-4.5,12.7-13.1,12.7-20.5v-12.6C369.6,170.8,363.2,161.4,363.2,161.4z"/>
		<g>
			<path class="st2" d="M268.5,261.4c1.9,1.5,3.9,3,5.8,4.5c0-0.2-23,6.3-39.5-0.9c-0.6-0.3-1.2-0.6-1.8-0.9
				c-4.1,14.7-17.6,25.6-33.6,25.6c-16,0-29.5-10.9-33.6-25.6c-0.6,0.3-1.1,0.6-1.8,0.9c-16.4,7.2-39.5,0.7-39.5,0.9
				c1.9-1.5,3.9-3,5.8-4.5c-8,1.2-15.4-0.3-20.5-1.9c14.5,35.2,49.1,60,89.5,60c40.4,0,75-24.8,89.5-60
				C283.9,261.2,276.5,262.6,268.5,261.4z"/>
		</g>
		<g>
			<path class="st3" d="M189.9,104.2c-1.8-0.9-3.1-2.4-3.8-4.2c-58,1.5-115.9,22.3-115.7,23.1c-2.5,0.9-3.9,3.1-3.9,4.6v2.1
				c40-15.5,81.7-23.7,123.5-24.7L189.9,104.2z"/>
			<path class="st3" d="M332.3,124.6c0.1-0.8-60.6-23.1-119.4-24.6c-0.7,1.8-2.1,3.3-3.8,4.2v0.8c43,1.2,86,10,127.1,26.2v-2.1
				C336.2,127.7,334.8,125.5,332.3,124.6z"/>
		</g>
		<path class="st2" d="M205.9,93.7c-3.8-0.5-4.4,4.9-4.5,6.7h-1.2c0-5.1,2.5-7.2,2.5-10.6c0-3.4-3.1-6.6-3.1-6.6s-3.1,3.2-3.1,6.6
			c0,3.4,2.4,5.5,2.4,10.6h-1.2c-0.1-1.8-0.7-7.2-4.5-6.7c-4.1,0.5-3.6,6.1,0,6.6c0,0-0.7-2.5,1.3-2.5c1.5,0,1.9,1.7,2,2.6h-1.7
			h-0.1v2h0.1h3.9c-0.5,1.9-1.8,2.5-1.8,2.5s0.5,1.1,1.7,1.2c0,0,0,1.3,1,2.4c1-1,1-2.4,1-2.4c1.2-0.1,1.7-1.2,1.7-1.2
			s-1.3-0.6-1.8-2.5h3.9h0v-2h0h-1.7c0.1-0.9,0.5-2.6,2-2.6c2,0,1.3,2.5,1.3,2.5C209.5,99.8,209.9,94.2,205.9,93.7"/>
		<g>
			<path class="st3" d="M187.3,132.8v-12.5c0-1.7-0.3-3.3-1-4.5c-0.6-1.3-1.5-2.3-2.6-3.1c-1.1-0.8-2.4-1.4-3.9-1.7
				c-1.5-0.3-3.1-0.4-4.9-0.3c-1.7,0.1-3.4,0.4-4.9,1c-1.5,0.5-2.8,1.3-4,2.2c-1.1,0.9-2,2.1-2.6,3.5c-0.6,1.4-1,2.9-1,4.7v12.6
				c-1.3,0.3-2.3,1.6-2.3,2.9c0,1.4,1,2.3,2.3,2.4v14.1c0,1.7,0.3,3.2,1,4.5c0.6,1.2,1.5,2.3,2.6,3c1.1,0.8,2.4,1.3,4,1.6
				c1.5,0.3,3.1,0.4,4.9,0.3c1.7-0.1,3.4-0.4,4.9-0.9c1.5-0.5,2.8-1.2,3.9-2.1c1.1-0.9,2-2,2.6-3.4c0.6-1.3,1-2.9,1-4.6v-14.1
				c1.4-0.2,2.5-1.4,2.5-2.7C189.8,134,188.7,132.9,187.3,132.8z M180.4,152.2c0,0.9-0.2,1.7-0.5,2.3c-0.3,0.6-0.8,1.2-1.3,1.6
				c-0.5,0.4-1.1,0.7-1.7,1c-0.6,0.2-1.3,0.4-1.9,0.4c-0.7,0-1.3,0-2-0.1c-0.7-0.1-1.2-0.4-1.8-0.7c-0.5-0.3-0.9-0.8-1.3-1.4
				c-0.3-0.6-0.5-1.3-0.5-2.3v-31.4c0-0.9,0.2-1.7,0.5-2.3c0.3-0.6,0.8-1.2,1.3-1.6c0.5-0.4,1.1-0.8,1.8-1c0.7-0.2,1.3-0.4,2-0.4
				c0.7,0,1.3,0,1.9,0.2c0.6,0.1,1.2,0.4,1.7,0.8c0.5,0.4,0.9,0.8,1.3,1.4c0.3,0.6,0.5,1.4,0.5,2.3V152.2z"/>
			<path class="st3" d="M54.3,166.6c0,0.1,0,0.2-0.1,0.1c-0.1-0.1-0.1-0.1-0.2-0.2c-0.2-0.6-8.4-28-8.9-29.2c-0.4-1.3-0.7-1.9-0.7-2
				c-0.1-0.4-0.3-0.7-0.6-0.8c-0.3-0.1-0.7-0.1-1.2,0.2c-2.5,1.2-4.9,2.3-7.4,3.5v2.3c0,0.8,0.1,1.4,0.3,1.7
				c0.2,0.4,0.5,0.6,0.8,0.8c0.3,0.2,0.7,0.2,1.1,0.2v20.9c-1.2,0.8-2.1,2.3-2.1,3.7c0,1.3,0.9,2,2.1,1.6v29.5
				c1.9-0.9,3.8-1.8,5.8-2.7v-37c0-0.3,0-0.4,0.1-0.4c0,0,0.1,0.1,0.1,0.1c0,0,0.2,0.7,0.7,1.9c0.4,1.2,8.5,28.2,8.6,28.4
				c0.2,0.7,0.5,1.2,0.7,1.6c0.2,0.4,0.7,0.5,1.2,0.2c1.3-0.5,2.6-1.1,3.9-1.6c0.5-0.2,0.9-0.6,1.2-1c0.3-0.5,0.4-0.9,0.4-1.4v-27.7
				c1.1-0.8,1.9-2.1,1.9-3.3c0-1.2-0.8-1.9-1.9-1.8v-20.5c0-0.4,0.1-0.8,0.2-1c0.1-0.2,0.3-0.5,0.4-0.7c0.4-0.4,0.7-1,1.1-1.6
				c0.4-0.6,0.5-1.4,0.5-2.1v-2c-2.7,1.1-5.4,2.2-8.1,3.4V166.6z"/>
			<path class="st3" d="M328.2,167.1c0,0.1,0,0.1-0.1,0c-0.1-0.1-0.1-0.2-0.2-0.3c-0.2-0.7-0.5-2-1.1-4c-0.5-2-1.2-4.3-1.9-6.9
				c-0.7-2.6-1.4-5.4-2.2-8.2c-0.8-2.9-1.5-5.5-2.2-7.9c-0.7-2.4-1.3-4.4-1.7-6.1c-0.5-1.6-0.7-2.5-0.7-2.6
				c-0.1-0.5-0.3-0.9-0.6-1.3c-0.3-0.3-0.7-0.6-1.2-0.8c-2.6-0.8-5.1-1.7-7.7-2.5v2.3c0,0.8,0.1,1.4,0.3,2c0.2,0.6,0.5,1,0.8,1.4
				c0.3,0.4,0.7,0.8,1.2,1.1v16.3c-1.2-0.2-2.2,0.7-2.2,2c0,1.3,0.9,2.7,2.2,3.3v23.9c2,0.6,4,1.3,6,1.9V148c0-0.3,0-0.4,0.1-0.3
				c0,0.1,0.1,0.1,0.1,0.3c0,0.1,0.2,0.9,0.7,2.5c0.5,1.6,1,3.6,1.7,6c0.7,2.4,1.4,5,2.2,7.8c0.8,2.8,1.5,5.4,2.2,7.9
				c0.7,2.5,1.3,4.6,1.8,6.3c0.5,1.8,0.8,2.8,0.9,3c0.2,0.9,0.5,1.6,0.7,2.2c0.3,0.6,0.7,1,1.2,1.2c1.3,0.5,2.6,1,3.9,1.5
				c0.5,0.2,0.9,0.2,1.2-0.1c0.3-0.3,0.4-0.6,0.4-1.1V163c1.1,0.1,1.9-0.6,1.9-1.8c0-1.2-0.8-2.6-1.9-3.3V142c0-0.4,0.1-0.7,0.2-0.8
				c0.1-0.1,0.3-0.3,0.4-0.4c0.4-0.1,0.7-0.4,1.1-0.7c0.4-0.4,0.5-0.9,0.5-1.7v-2c-2.7-1.1-5.5-2.1-8.2-3.1V167.1z"/>
			<path class="st3" d="M362.4,172.3c-0.8-1.8-1.9-3.6-3.1-5.3c-1-1.4-2.1-2.8-3.3-4.2c0.1-0.2,0.1-0.4,0.1-0.6
				c0-1.5-1.2-3.2-2.6-3.9c-0.6-0.3-1.2-0.3-1.6-0.1c-0.2-0.2-0.4-0.5-0.6-0.7c-1.2-1.4-2.3-2.7-3.1-3.9c-0.8-1.2-1.3-2.2-1.3-3.2
				v-10.9c0-0.5,0.2-0.9,0.5-1.1c0.3-0.3,0.7-0.4,1.2-0.5c0.5-0.1,1,0,1.5,0c0.5,0.1,1,0.3,1.5,0.5c0.4,0.2,0.9,0.5,1.5,0.8
				c0.5,0.4,1.1,0.8,1.5,1.2c0.5,0.5,0.8,1,1.1,1.5c0.3,0.6,0.5,1.1,0.5,1.7v2.6c0,1.1,0.4,2.2,1.1,3.3c0.7,1.1,1.7,1.9,2.8,2.4
				c1,0.5,2,0.9,2.9,1.4v-5.1c0-1.7-0.3-3.4-0.8-5c-0.6-1.6-1.4-3-2.4-4.4c-1-1.3-2.2-2.6-3.6-3.6c-1.4-1.1-2.9-2-4.5-2.7
				c-1.6-0.7-3.1-1.2-4.5-1.4c-1.4-0.2-2.6-0.1-3.6,0.3c-1,0.4-1.8,1.2-2.4,2.2c-0.6,1.1-0.9,2.5-0.9,4.4v9c0,1.9,0.4,3.7,1.2,5.4
				c0.8,1.7,1.9,3.3,3.1,4.8c1.2,1.5,2.5,3,3.9,4.4c-0.1,0.3-0.2,0.6-0.2,1c0,1.5,1.2,3.2,2.6,3.8c0.8,0.4,1.5,0.3,2-0.1
				c1.1,1.3,2.1,2.7,2.8,4c0.8,1.5,1.2,2.9,1.2,4.5v12.9c0,0.6-0.2,1.1-0.5,1.4c-0.3,0.3-0.8,0.5-1.3,0.7c-0.5,0.1-1.1,0.1-1.7,0
				c-0.6-0.1-1.2-0.2-1.8-0.5c-0.6-0.3-1.2-0.6-1.8-1.1c-0.6-0.5-1.2-1-1.7-1.5c-0.5-0.5-0.9-1.1-1.3-1.7c-0.3-0.6-0.5-1.2-0.5-1.8
				v-3c0-1.1-0.3-2-0.9-2.8c-0.6-0.8-1.5-1.5-2.7-2c-1.1-0.4-2.1-0.9-3.2-1.3v5.2c0,1.7,0.3,3.4,1,5c0.6,1.6,1.5,3,2.6,4.3
				c1.1,1.3,2.4,2.5,3.8,3.5c1.5,1,3,1.9,4.6,2.7c1.6,0.7,3.2,1.2,4.6,1.5c1.5,0.3,2.7,0.2,3.8-0.1c1.1-0.3,2-1,2.6-2
				c0.7-1,1-2.4,1-4.1v-12.4C363.6,175.9,363.2,174.1,362.4,172.3z"/>
			<path class="st3" d="M130,142.5c-0.3,2.4-0.6,4.8-0.8,7.2c-0.3,2.4-0.5,4.4-0.8,6.3c-0.2,1.8-0.4,3.3-0.6,4.4
				c-0.1,1.1-0.2,1.7-0.3,1.7c-0.6-3.2-1.1-6.1-1.5-8.7c-0.4-2.6-0.9-5.4-1.5-8.6c-0.5-3.2-1.1-6.3-1.6-9.4
				c-0.6-3.1-1.1-5.9-1.6-8.6c-0.5-2.6-0.9-4.7-1.3-6.2c-0.1-0.5-0.5-0.8-1.3-1c-0.8-0.2-1.5-0.1-2.3,0c-0.7,0.2-1.4,0.5-2.2,0.9
				c-0.8,0.4-1.2,1-1.3,1.6c-0.4,1.6-0.8,3.8-1.3,6.7c-0.5,2.8-1,5.9-1.6,9.3c-0.5,3.3-1.1,6.7-1.6,10.1c-0.5,3.4-1,6.6-1.5,9.4
				c-0.4,2.8-0.9,6-1.5,9.5c0,0-0.1-0.5-0.3-1.6c-0.2-1.1-0.3-2.5-0.6-4.2c-0.2-1.7-0.4-3.7-0.7-5.9c-0.3-2.2-0.6-4.5-0.8-6.8
				c-0.6-5.4-2.9-25-2.9-25c-2.8,0.8-5.6,1.6-8.4,2.4v2.1c0,0.8,0.2,1.4,0.5,1.8c0.3,0.4,0.7,0.7,1,0.8c0.2,0.1,0.4,0.3,0.6,0.4
				c0.2,0.2,0.3,0.4,0.4,0.8c0.7,5.5,1.3,10.6,1.8,15.4c-1,0.7-1.7,1.8-1.7,3c0,1.3,1,2.2,2.3,2c0,0.1,0,0.2,0,0.3
				c0.3,2.6,0.6,5.2,0.9,7.7c0.3,2.5,0.6,4.7,0.8,6.7c0.3,2,0.5,3.6,0.6,4.8c0.2,1.2,0.2,1.9,0.2,2c0,0.4,0.2,0.7,0.4,0.9
				c0.3,0.3,0.6,0.4,1.1,0.2c2.6-0.7,5.2-1.4,7.8-2.1c0.5-0.1,0.9-0.4,1.2-0.7c0.3-0.3,0.5-0.8,0.8-1.5c2-11.7,3.9-23.3,5.9-34.9
				c1.9,10.7,3.8,21.5,5.8,32.3c0.2,0.5,0.5,0.9,0.8,1.1c0.3,0.2,0.7,0.3,1.2,0.2c2.6-0.5,5.2-1,7.8-1.5c0.5-0.1,0.8-0.3,1.1-0.7
				c0.3-0.4,0.4-0.8,0.5-1.1c0-0.1,0.1-0.8,0.3-2.1c0.2-1.3,0.4-3,0.6-5.1c0.3-2.1,0.5-4.4,0.8-7.1c0.3-2.6,0.6-5.3,0.9-8.1
				c0-0.1,0-0.2,0-0.3c1.3-0.4,2.3-1.7,2.3-3c0-1.1-0.7-2-1.7-2.2c0.6-5,1.2-10.4,1.9-16.2c0.1-0.4,0.2-0.7,0.4-1
				c0.2-0.3,0.4-0.5,0.6-0.7c0.4-0.3,0.7-0.7,1-1.3c0.3-0.6,0.5-1.2,0.5-2v-2.1c-2.9,0.5-5.7,0.9-8.5,1.5
				C133,116.3,130.7,136.8,130,142.5z"/>
			<path class="st3" d="M302.4,149.8c0-1.3-1-2.7-2.3-3.3c-0.3-1.9-0.6-3.8-1-5.7c-0.4-2.6-0.8-4.9-1.2-7c-0.3-2.1-0.6-3.8-0.9-5.2
				c-0.2-1.3-0.4-2.1-0.4-2.3c-0.1-0.9-0.5-1.7-1.1-2.5c-0.6-0.8-1.5-1.3-2.6-1.6c-3.1-0.8-6.2-1.6-9.3-2.3v1.6c0,2,0.6,3.3,1.7,4.1
				c0.2,0.1,0.3,0.4,0.3,0.7c0,0.3,0,0.6-0.1,1c0,0-0.1,0.6-0.3,1.6c-0.2,1-0.5,2.4-0.8,4.1c-0.3,1.7-0.7,3.6-1.1,5.8
				c-0.2,1.1-0.4,2.1-0.6,3.2c-1.5-0.3-2.7,0.6-2.7,2.1c0,1.1,0.7,2.2,1.7,2.9c-1.3,6.7-4.5,23-4.5,23c2.2,0.5,4.4,1,6.6,1.5
				c0,0,1.9-11.2,2-11.4c0.1-0.9,0.5-1.3,1.2-1.1c2.6,0.6,5.3,1.3,7.9,2c0.4,0.1,0.8,0.3,1,0.5c0.3,0.3,0.5,0.7,0.5,1.3
				c0,0.2,1.5,12.3,1.5,12.3c2.3,0.7,4.6,1.3,6.9,2c0,0-2.8-17-4.3-25.4C301.8,151.5,302.4,150.8,302.4,149.8z M295.4,155
				c-0.2,0.2-0.4,0.2-0.8,0.1c-2.2-0.6-4.3-1.1-6.5-1.7c-0.3-0.1-0.5-0.2-0.7-0.5c-0.2-0.2-0.3-0.5-0.2-0.8c0,0,0.1-0.4,0.2-1.1
				c0.1-0.7,0.3-1.6,0.4-2.7c0.2-1.1,0.4-2.3,0.6-3.7c0.2-1.4,0.5-2.8,0.8-4.2c0.7-3.8,1.4-7.6,2.1-11.5c0.1,0,0.1,0,0.1,0
				c0.7,4.2,1.4,8.3,2.1,12.5c0.3,1.6,0.5,3.1,0.8,4.6c0.2,1.5,0.4,2.9,0.6,4c0.2,1.2,0.3,2.2,0.5,3c0.1,0.8,0.2,1.2,0.2,1.2
				C295.7,154.6,295.6,154.9,295.4,155z"/>
			<path class="st3" d="M218.2,156.9c-0.2-0.2-0.4-0.3-0.6-0.4c-0.2-0.1-0.2-0.4-0.2-0.9v-11.8c0-1.7-0.3-3.3-0.8-4.7
				c-0.5-1.4-1.3-2.5-2.4-3.3c-0.5-0.5-0.6-1-0.1-1.4c1-0.7,1.8-1.7,2.4-2.9c0.6-1.2,0.9-2.5,0.9-4v-5.4c0-1.7-0.2-3.3-0.6-4.7
				c-0.4-1.4-1.1-2.7-2-3.7c-0.9-1-2.1-1.9-3.5-2.5c-1.4-0.6-3.1-1-5.2-1c-4.9-0.1-9.7-0.1-14.6,0v2c0,1,0.2,1.7,0.5,2.2
				c0.4,0.5,0.7,0.9,1.1,1.1c0.2,0.1,0.4,0.2,0.5,0.4c0.1,0.2,0.2,0.5,0.2,0.9v15.7c-1.3,0.3-2.2,1.4-2.2,2.7c0,1.3,0.9,2.4,2.2,2.6
				v23.9c2.3,0,4.6,0,6.9,0v-22.7c0-0.6,0.3-1,0.9-1c1.5,0,2.9,0,4.4,0.1c1.5,0,2.6,0.5,3.3,1.4c0.7,0.9,1,2.2,1,3.8v15.1
				c0,1,0.3,1.8,0.9,2.5c0.6,0.6,1.5,1,2.7,1c2,0.1,3.9,0.2,5.9,0.3v-2.7c0-0.8-0.2-1.4-0.5-1.8C219,157.5,218.6,157.2,218.2,156.9z
				 M210.4,127.4c0,1.6-0.3,2.9-1,3.8c-0.7,0.9-1.8,1.4-3.3,1.4c-1.5,0-3,0-4.5-0.1c-0.2,0-0.4-0.1-0.6-0.2
				c-0.2-0.1-0.3-0.3-0.3-0.5V117c0-0.6,0.4-1,1.1-1c1.4,0,2.8,0,4.2,0.1c1.5,0,2.6,0.5,3.3,1.5c0.7,1,1,2.2,1,3.8V127.4z"/>
			<path class="st3" d="M240.3,143.8c-0.7,0.2-1.1,0.9-1.1,1.9c0,0.3,0.1,11.9-0.1,12.2c-0.2,0.2-0.4,0.3-0.7,0.3
				c-2.1-0.2-4.1-0.4-6.2-0.6c-0.3,0-0.6-0.2-0.7-0.5c-0.1-0.3-0.2-0.6-0.2-1c0-12.6,0-25.2-0.1-37.9c0-0.5,0.1-0.8,0.2-1
				c0.1-0.2,0.3-0.3,0.5-0.4c0.4-0.2,0.7-0.6,1.1-1.1c0.4-0.5,0.6-1.1,0.6-1.9v-2.1c-3.9-0.4-7.9-0.7-11.8-0.9v2.1
				c0,0.8,0.2,1.4,0.6,2c0.4,0.5,0.8,0.9,1.1,1.2c0.2,0.2,0.4,0.3,0.6,0.5c0.1,0.2,0.2,0.5,0.2,1v15.7c-1.3,0.2-2.2,1.2-2.2,2.5
				c0,1.3,1,2.5,2.2,2.8v23.9c6.2,0.4,12.4,1,18.6,1.7c0.5,0.1,0.9,0.1,1.4,0.2c0.4,0,0.7-0.1,1.1-0.3c0.4-0.3,0.6-0.7,0.6-1.2V144
				c-1-0.1-2-0.2-3-0.4C242,143.5,241,143.6,240.3,143.8z"/>
			<path class="st3" d="M87,127.7c-0.1,0-0.2,0-0.3,0.1c0,0-0.1,0-0.1,0v0c-7.2,2.3-14.4,4.8-21.5,7.6v2c0,0.9,0.1,1.6,0.4,2
				c0.2,0.4,0.6,0.6,1,0.7c0.2,0.1,0.4,0.2,0.6,0.3c0.2,0.2,0.3,0.4,0.3,0.9v15.6c-1.2,0.7-2.1,2.1-2.1,3.5c0,1.3,0.9,2.1,2.1,1.8
				V186c0.6-0.2,1.2-0.4,1.7-0.7c3.1-1.2,6.2-2.3,9.2-3.3c1.3-0.5,2.6-0.9,4-1.3c1-0.3,2-0.7,3-1c0.4-0.1,0.8-0.3,1.2-0.4
				c0,0,0.1,0,0.1,0c0.2-0.1,0.3-0.1,0.5-0.3c0.2-0.2,0.4-0.3,0.6-0.6c0.3-0.4,0.5-0.9,0.5-1.4V170l0,0c0-2.5,0-5,0-7.5
				c-1,0.3-1.9,0.6-2.9,0.9c-1,0.3-2,0.8-2.7,1.4c-0.7,0.5-1,1.3-1,2.4c0,0.3,0.1,7.5-0.1,7.8c-0.2,0.3-0.4,0.5-0.7,0.6
				c-0.9,0.3-1.7,0.6-2.6,0.9c-1.2,0.4-2.4,0.8-3.6,1.2c-0.5,0.2-0.8,0-0.8-0.7v-16c0-0.6,0.3-1.1,1-1.3c2.7-1,5.4-1.9,8.1-2.8
				c0.7-0.2,1-0.7,1-1.3v-3.9c0-0.4-0.1-0.6-0.4-0.7c-0.2-0.1-0.5-0.1-0.7,0c-2.7,0.9-5.4,1.8-8.1,2.8c-0.7,0.2-1,0-1-0.6v-14.4
				c0-0.3,0.1-0.6,0.3-0.8c0.2-0.3,0.4-0.5,0.6-0.5c2.2-0.8,4.3-1.5,6.5-2.2c0.1,0,0.2,0.1,0.3,0.2c0.2,0.2,0.1,7.5,0.1,7.8
				c0,1.1,0.3,1.6,1,1.7c0.7,0.1,1.7-0.1,2.7-0.4c1-0.3,1.9-0.6,2.9-0.9v-7.5h0v-7.3c0-0.4-0.2-0.7-0.5-0.9
				C87.6,127.8,87.3,127.7,87,127.7z"/>
			<path class="st3" d="M271.6,117.4c-0.1-0.1-0.2-0.1-0.3-0.1c0,0-0.1,0-0.1,0h0c-7.4-1.4-14.8-2.7-22.2-3.7v2
				c0,0.9,0.1,1.6,0.4,2.2c0.3,0.5,0.6,1,1.1,1.2c0.2,0.2,0.4,0.4,0.6,0.6c0.2,0.2,0.3,0.6,0.3,1v15.6c-1.3,0.1-2.2,1-2.2,2.3
				c0,1.3,1,2.5,2.2,2.9v23.8c0.6,0.1,1.2,0.2,1.8,0.3c3.2,0.5,6.4,1,9.6,1.5c1.4,0.2,2.7,0.5,4.1,0.7c1,0.2,2,0.4,3.1,0.6
				c0.4,0.1,0.8,0.2,1.3,0.2c0,0,0.1,0,0.1,0c0.2,0,0.3,0,0.5,0c0.2,0,0.5-0.1,0.7-0.3c0.3-0.2,0.5-0.6,0.5-1.1v-7.1v-7.5
				c-1-0.2-2-0.4-2.9-0.6c-1-0.2-2-0.2-2.7,0c-0.7,0.2-1,0.8-1,1.9c0,0.3,0.1,7.6-0.1,7.8c-0.2,0.2-0.4,0.3-0.7,0.2
				c-0.9-0.2-1.8-0.3-2.7-0.5c-1.2-0.2-2.5-0.4-3.7-0.6c-0.6-0.1-0.8-0.5-0.8-1.1v-16c0-0.6,0.4-0.9,1.1-0.8
				c2.8,0.5,5.6,0.9,8.4,1.5c0.7,0.1,1-0.1,1-0.8v-3.8c0-0.4-0.1-0.7-0.4-0.9c-0.3-0.2-0.5-0.3-0.7-0.4c-2.8-0.5-5.5-1-8.3-1.5
				c-0.7-0.1-1.1-0.5-1.1-1.1v-14.4c0-0.3,0.1-0.5,0.3-0.7c0.2-0.2,0.4-0.2,0.7-0.2c2.2,0.4,4.5,0.7,6.7,1.2
				c0.1,0.1,0.2,0.2,0.3,0.3c0.2,0.3,0.1,7.5,0.1,7.8c0,1.1,0.4,1.8,1,2.3c0.7,0.5,1.7,0.8,2.7,1c1,0.2,2,0.4,2.9,0.6v-7.5v-7.3
				c0-0.4-0.2-0.7-0.5-1.1C272.3,117.7,272,117.5,271.6,117.4z"/>
		</g>
		<g>
			<path class="st3" d="M143.1,274.2l4.9,4.7c0.8,0.8,1.9,1.9,1.7,3.4c-0.1,0.7-0.5,1.4-1.1,2c-0.7,0.8-1.5,1-2.1,1.1
				c-1.4,0.2-2.4-0.7-3.4-1.7l-2.8-2.7l-2.9,3l-2-1.9L143.1,274.2z M141.6,279.6l2.5,2.4c0.6,0.6,1.5,1.5,2.5,0.4
				c0.4-0.4,0.5-0.8,0.5-1.2c0-0.5-0.3-0.8-1.2-1.6l-2.2-2.2L141.6,279.6z"/>
			<path class="st3" d="M156.2,285.6l8.8,5.3l-1,1.7l-6.4-3.9l-1.3,2.1l6.2,3.7l-1,1.7l-6.2-3.7l-1.4,2.3l6.7,4l-1,1.7l-9.1-5.4
				L156.2,285.6z"/>
			<path class="st3" d="M171.5,293.8l2.6,0.9l-2.8,8.5l5.8,1.9l-0.6,1.9l-8.4-2.8L171.5,293.8z"/>
			<path class="st3" d="M186.6,297.9l2.7,0.4l-1.7,10.9l-2.7-0.4L186.6,297.9z"/>
			<path class="st3" d="M210,305.9c-0.2,0.7-0.4,1.5-1.3,2.4c-0.9,0.8-2.3,1.8-5.1,1.9c-3.9,0.2-6.7-1.8-6.9-5.6
				c-0.2-4.1,3.1-6,6.5-6.1c1.3-0.1,4.9,0.1,6.5,3.2l-3,0.5c-0.3-0.5-1.2-1.7-3.4-1.6c-2.5,0.1-3.8,1.9-3.8,4c0.1,2.4,2,3.8,4.1,3.7
				c2.4-0.1,3.1-1.5,3.4-2.2L210,305.9z"/>
			<path class="st3" d="M219.8,296.3l2.9-0.8l8.2,9.1l-3,0.9l-1.5-1.7l-5.4,1.6l-0.3,2.3l-2.9,0.9L219.8,296.3z M222.4,299
				c-0.1-0.1-0.2-0.2-0.3-0.4c-0.1-0.1-0.2-0.2-0.2-0.4c0,0.1,0,0.3,0,0.4c0,0.2,0,0.3,0,0.5l-0.6,4l3.7-1.1L222.4,299z"/>
			<path class="st3" d="M233.3,291.4l2.4-1.4l7.8,2.5c1,0.3,1.1,0.4,2.2,0.8c-0.6-0.9-0.8-1.1-1.3-1.9l-2.9-4.8l2.3-1.4l5.7,9.5
				L247,296l-7.9-2.5c-0.8-0.3-1.2-0.4-2.1-0.8c0.5,0.7,0.6,0.8,1,1.6l3.1,5.2l-2.3,1.3L233.3,291.4z"/>
			<path class="st3" d="M256,284.7c1.4,0.5,2.8-0.3,3.9-1.3c0.5-0.5,1.9-2,1-3c-0.6-0.6-1.2-0.2-1.7,0.2c-0.4,0.2-2.3,1.6-2.7,1.9
				c-0.9,0.6-3,2-4.8,0.2c-0.4-0.4-0.7-0.9-0.8-1.4c-0.4-1.7,0.8-3.4,2.1-4.6c1.2-1.1,2.2-1.8,3.5-2.2c1.2-0.3,2.1-0.1,2.5,0
				l-1.4,2.3c-0.2-0.1-0.6-0.2-1.3,0c-0.8,0.3-1.5,0.9-1.9,1.2c-0.9,0.8-1.6,1.9-0.9,2.6c0.5,0.5,1.1,0.2,1.8-0.2
				c0.4-0.2,2.3-1.5,2.7-1.8c1.1-0.7,3-1.9,4.7-0.2c2.5,2.5-0.5,5.6-1.5,6.5c-1.3,1.3-3.5,3-6.5,2L256,284.7z"/>
		</g>
		<path class="st3" d="M186.8,231.9c0,0-39.5-13.2-22.3-55.3c0,0-41.8,1.7-99,24.8c0,0-4,1.7-6.4,2.5c-2.3,0.8-6.1,2.3-11.5-0.3
			c0,0,52.3-27.4,119.6-33.7c8.9-0.8,10,0.5,7.7,3.8C173,176.6,149,207.1,186.8,231.9z"/>
		<path class="st0" d="M151.7,188.5c-33.8,4.4-66.9,16.2-66.9,16.2c5.6,10,20.9,5.8,20.9,5.8c28.7-8.1,41.5-10.9,45.6-11.7
			C151.1,195.7,151.2,192.2,151.7,188.5z"/>
		<path class="st0" d="M151.9,205c-5.6,1.1-29.3,6-53.2,14.9c0,0,7.5,8.6,22.5,4.3c12.6-3.6,28.7-8.7,33.5-10.3
			C153.5,211.3,152.6,208.3,151.9,205z"/>
		<path class="st0" d="M157.2,218.7c-5.1,1.6-30.6,9.9-41.4,14.1c0,0,6.2,8.3,24,1.3c12.4-4.9,19.3-7.8,22.3-9
			C160.3,223.2,158.7,221.1,157.2,218.7z"/>
		<path class="st0" d="M166.1,228.6c-4.5,1.9-21,9.2-30.6,13.8c0,0,12.1,5.9,27.2-3.4l9.4-6.2C170.1,231.6,168,230.2,166.1,228.6z"
			/>
		<path class="st0" d="M176.7,235.2c-3,1.9-15.6,9.8-21.7,14.3c0,0,10.4,4.3,21.1-5.8c3.5-3.3,5.4-5.1,6.4-6.2
			C180.6,236.9,178.7,236.1,176.7,235.2z"/>
		<g>
			<path class="st3" d="M212.2,231.9c0,0,39.5-13.2,22.3-55.3c0,0,41.8,1.7,99,24.8c0,0,4,1.7,6.4,2.5c2.3,0.8,6.1,2.3,11.5-0.3
				c0,0-52.3-27.4-119.6-33.7c-8.9-0.8-10,0.5-7.7,3.8C226,176.6,250,207.1,212.2,231.9z"/>
			<path class="st0" d="M247.3,188.5c33.8,4.4,66.9,16.2,66.9,16.2c-5.6,10-20.9,5.8-20.9,5.8c-28.7-8.1-41.5-10.9-45.6-11.7
				C247.9,195.7,247.8,192.2,247.3,188.5z"/>
			<path class="st0" d="M247.1,205c5.6,1.1,29.3,6,53.2,14.9c0,0-7.5,8.6-22.5,4.3c-12.6-3.6-28.7-8.7-33.5-10.3
				C245.5,211.3,246.4,208.3,247.1,205z"/>
			<path class="st0" d="M241.8,218.7c5.1,1.6,30.6,9.9,41.4,14.1c0,0-6.2,8.3-24,1.3c-12.4-4.9-19.3-7.8-22.3-9
				C238.7,223.2,240.3,221.1,241.8,218.7z"/>
			<path class="st0" d="M232.9,228.6c4.5,1.9,21,9.2,30.6,13.8c0,0-12.1,5.9-27.2-3.4l-9.4-6.2C228.9,231.6,231,230.2,232.9,228.6z"
				/>
			<path class="st0" d="M222.3,235.2c3,1.9,15.6,9.8,21.7,14.3c0,0-10.4,4.3-21.1-5.8c-3.5-3.3-5.4-5.1-6.4-6.2
				C218.3,236.9,220.3,236.1,222.3,235.2z"/>
		</g>
		<g>
			<g>
				<g>
					<path class="st3" d="M231.8,254.8c0,17.9-14.5,32.3-32.3,32.3c-17.9,0-32.3-14.5-32.3-32.3c0-17.9,14.5-32.3,32.3-32.3
						C217.4,222.5,231.8,237,231.8,254.8z"/>
				</g>
				<g>
					<path class="st0" d="M225.1,261.5c0,14.2-11.5,25.7-25.6,25.7c-14.2,0-25.6-11.5-25.6-25.7c0-14.2,11.5-25.6,25.6-25.6
						C213.7,235.9,225.1,247.4,225.1,261.5z"/>
				</g>
				<path class="st1" d="M199.5,220c-19.2,0-34.9,15.6-34.9,34.9c0,19.2,15.6,34.9,34.9,34.9c19.2,0,34.9-15.6,34.9-34.9
					C234.4,235.6,218.7,220,199.5,220z M228.8,249.2c-2.2,8.6-8.1,15.7-15.7,19.6c0.6-4.3,2.5-8.5,4.4-12.9
					c2.8-6.4,5.9-13.3,4.5-20.7C225.4,239.2,227.8,244,228.8,249.2z M184.2,229.3c3.9-2.3,8.4-3.8,13.1-4.2V272
					c-2.4-0.2-4.7-0.6-6.9-1.3c-0.2-5.8-2.6-11.2-5-16.5C181.6,245.4,178.3,237.8,184.2,229.3z M190.2,275.1c2.3,0.6,4.7,1,7.2,1.2
					v8.3c-3.9-0.3-7.6-1.3-11-3C188,280.1,189.7,277.9,190.2,275.1z M201.7,276.3c2.5-0.1,4.9-0.5,7.2-1.2c0.5,2.8,2.2,5,3.8,6.5
					c-3.4,1.6-7.1,2.7-11,3V276.3z M208.6,270.7c-2.2,0.7-4.5,1.2-6.9,1.3v-46.9c4.8,0.3,9.2,1.8,13.1,4.2
					c5.9,8.5,2.6,16.2-1.3,24.9C211.2,259.5,208.8,264.9,208.6,270.7z M177,235.3c-1.3,7.4,1.7,14.3,4.5,20.7
					c1.9,4.4,3.8,8.7,4.4,13c-7.7-3.8-13.5-10.9-15.7-19.7C171.2,243.9,173.6,239.2,177,235.3z M170.1,260.1
					c3.8,6.1,9.3,10.9,15.9,13.6c0,0.2,0,0.4-0.1,0.6c-0.3,2.2-2.2,4-3.5,5C176.1,274.9,171.5,268,170.1,260.1z M216.5,279.3
					c-1.3-1-3.1-2.8-3.5-5c0-0.2,0-0.4-0.1-0.6c6.6-2.8,12.1-7.5,15.9-13.6C227.4,268,222.9,274.9,216.5,279.3z"/>
			</g>
			<g>
				<path class="st1" d="M209.9,174.7c0,0-0.3,1.1-0.9,1.1c-0.7,0-4.9-2-6.9-3.1c-0.9-0.5-2.1-1.2-2.5-1.4c0,0-1.8,0.9-2.6,1.4
					c-2,1.1-6.2,3.1-6.9,3.1c-0.7,0-0.9-1.1-0.9-1.1s-11,6.6-11,24.9c0,13.6,7.1,19.8,7.1,19.8l1,3.9h12.1h2.4h12.1l1-3.9
					c0,0,7.1-6.2,7.1-19.8C220.8,181.4,209.9,174.7,209.9,174.7z"/>
				<path class="st3" d="M215.1,195.1c0-5.7-2.3-10.3-4.8-13c0,0-0.1,1.6-2.8-0.2c-2.3-1.6-5.1-2.5-8-2.5c-3,0-5.7,0.9-8.1,2.5
					c-2.6,1.8-2.7,0.2-2.7,0.2c-2.5,2.7-4.8,7.4-4.8,13c0,4.7,1.2,7,1.6,7.7c2.3,6,7.7,10.2,14,10.2c6.2,0,11.6-4.1,13.9-10
					C213.6,202.7,215.1,200.5,215.1,195.1z"/>
				<path class="st1" d="M205.4,207.8C205.3,207.8,205.3,207.8,205.4,207.8c-0.1-0.1-1.6-3,0.9-5c0,0,5.8,1.2,5.9-6.4
					c0,0-0.1-0.8,0.7-2.4c0,0-1.5-1.3-4.7,1.1c-3.2,2.4-4.9,9.2-6.7,7.6c-1.7-1.6-1.1-10.5-2-10.8h0c-0.9,0.3-0.3,9.2-2,10.8
					c-1.7,1.6-3.5-5.2-6.7-7.6c-3.2-2.4-4.7-1.1-4.7-1.1c0.8,1.6,0.7,2.4,0.7,2.4c0.1,7.6,5.9,6.4,5.9,6.4c2.5,2,1,4.9,1,4.9
					c0,0,0,0.1-0.1,0.1c-6.9-7.4-10.9-6.4-8.9,1.9c1.9,8.1,9.4,42.9,10.5,51c-0.2,7.3-1,9.9-1.2,10.4l-0.7,1.5l0.8,1.7
					c1.3,1.9,2.2,4,2.5,4.8l2.8,7.2l2.8-7.2c0.3-0.8,1.2-3,2.5-4.9l0.9-1.6l-0.8-1.6c-0.2-0.5-1-3-1.2-10c1-7.2,8.6-43.1,10.5-51.4
					C216.2,201.5,212.2,200.5,205.4,207.8z"/>
				<g>
					<path class="st2" d="M194.8,244.1c-2.5-13-4.4-22.5-6-29.5c-1.2-5.3,2-3.2,3.7,0.1L194.8,244.1z"/>
					<path class="st2" d="M204.2,244.1c2.5-13,4.4-22.5,6-29.5c1.2-5.3-2-3.2-3.7,0.1L204.2,244.1z"/>
				</g>
				<g>
					<path class="st2" d="M191,200.3c-0.5-0.1-0.8-0.6-0.6-1.1c0.1-0.2,0.2-0.3,0.3-0.5c-0.3-0.4-0.7-0.7-1.2-1.1
						c0,0-0.8,3.7,2.5,3.3c0,0-0.1-0.3-0.4-0.8C191.5,200.3,191.2,200.3,191,200.3z"/>
					<path class="st2" d="M209.5,197.6c-0.5,0.3-0.8,0.7-1.2,1.1c0.1,0.1,0.3,0.3,0.3,0.5c0.1,0.5-0.2,1-0.6,1.1
						c-0.2,0.1-0.5,0-0.7-0.1c-0.3,0.5-0.4,0.8-0.4,0.8C210.3,201.4,209.5,197.6,209.5,197.6z"/>
				</g>
				<path class="st2" d="M201.1,248.9c1.1-20,2.7-34.2,2.7-36c0-0.6-0.1-1.4-0.3-2.3l-1.2,3.8l-0.4-6.7c-0.6-0.8-1.4-1.5-2.4-2.2
					h-0.1c-1,0.7-1.7,1.5-2.3,2.2l-0.4,6.7l-1.2-3.8c-0.3,0.9-0.3,1.7-0.3,2.3c0,1.8,1.6,15.9,2.7,36c1.1,20-1.4,23.7-1.4,23.7
					c1.4,2.1,3,5.8,3,5.8s1.6-3.7,3-5.8C202.5,272.7,200,269,201.1,248.9z"/>
			</g>
		</g>
	</g>
</g>
</svg>
