<svg width="500" height="500" viewBox="0 0 500 500" fill="none" xmlns="http://www.w3.org/2000/svg">
<path d="M440.351 142.221C440.351 142.221 440.303 142.277 440.279 142.301C440.199 142.397 440.127 142.501 440.039 142.589C440.143 142.469 440.247 142.349 440.343 142.213L440.351 142.221Z" fill="white"/>
<path d="M449.28 111.54C449.288 110.692 449.16 109.836 448.864 109.012C440.096 84.4837 416.304 87.5557 402.087 89.3958C398.727 89.8278 393.815 90.4598 391.775 90.1798C387.079 84.9477 381.991 80.1716 376.607 75.9396C376.831 73.7475 376.055 71.4835 374.335 69.8915C372.807 68.4755 370.759 67.8035 368.711 68.0035C367.759 68.0675 364.975 68.1395 362.327 68.1395C361.791 66.9394 360.983 65.9074 359.927 65.1314C357.687 63.4354 355.087 63.1954 353.327 63.1634C352.503 61.9234 351.295 60.9074 349.815 60.3154C336.83 55.0833 322.822 52.4592 308.198 52.5312C289.35 52.6272 269.182 57.2033 248.245 66.1234C237.421 64.5234 228.261 61.7314 219.405 59.0033C207.893 55.4673 197.021 52.1232 184.268 52.0032C174.06 51.9072 163.684 53.9473 152.556 58.2433C150.724 58.9553 149.284 60.3234 148.468 62.0274C146.06 61.5154 144.02 61.0354 143.228 60.8034C143.228 60.8034 143.244 60.8034 143.252 60.8114C141.276 60.1473 139.092 60.3554 137.268 61.4434C136.02 62.1874 135.06 63.2834 134.452 64.5554C133.404 64.6914 132.484 64.9474 131.652 65.3954C129.956 66.3074 128.692 67.8115 128.092 69.6355C128.06 69.7235 128.036 69.8115 128.012 69.8995C127.868 70.3955 127.78 70.9315 127.748 71.4435C127.748 71.4915 127.748 71.5395 127.74 71.5955C127.74 71.6115 127.74 71.6275 127.74 71.6515C127.74 71.6355 127.74 71.6195 127.74 71.5955C124.532 72.3555 122.051 73.8035 120.051 75.1476C119.579 75.0196 119.123 74.8916 118.627 74.7716C118.299 74.6916 118.003 74.6355 117.755 74.5875L117.499 74.5395C116.915 74.4195 116.419 74.3155 115.867 74.2195C115.523 74.1635 115.195 74.1155 114.907 74.0755L114.643 74.0355C114.083 73.9555 113.587 73.8835 113.043 73.8275C112.659 73.7875 112.291 73.7555 111.971 73.7315L111.731 73.7155C111.243 73.6755 110.707 73.6275 110.123 73.6035C109.699 73.5795 109.291 73.5715 108.923 73.5635H108.763C108.299 73.5475 107.739 73.5395 107.147 73.5395C106.627 73.5395 106.147 73.5555 105.731 73.5715C105.139 73.5955 104.603 73.6195 104.107 73.6515C103.651 73.6835 103.171 73.7155 102.651 73.7635C102.123 73.8115 101.571 73.8675 101.019 73.9395C100.515 74.0035 100.011 74.0675 99.5312 74.1395C99.0591 74.2115 98.5311 74.2995 97.8991 74.4115C97.2991 74.5236 96.8431 74.6116 96.4031 74.6996C95.8031 74.8276 95.2511 74.9556 94.7391 75.0756C94.2831 75.1876 93.7711 75.3076 93.2351 75.4516C92.6431 75.6116 92.107 75.7796 91.587 75.9316C91.571 75.9316 91.363 76.0036 91.363 76.0036C90.971 76.1236 90.523 76.2596 90.051 76.4196C89.515 76.6036 89.003 76.7956 88.547 76.9636L88.395 77.0196L88.123 77.1236C87.755 77.2596 87.339 77.4116 86.899 77.5956C86.379 77.8036 85.891 78.0276 85.467 78.2196L85.227 78.3316L84.8989 78.4756C84.5629 78.6196 84.1869 78.7876 83.7789 78.9876C83.2669 79.2356 82.7869 79.4916 82.3629 79.7156L82.0509 79.8836L81.7069 80.0676C81.4109 80.2196 81.0669 80.3956 80.6909 80.6116C80.5149 80.7156 80.3469 80.8116 80.1709 80.9156C80.0029 80.9076 79.8349 80.8596 79.6589 80.8596C78.3629 80.8596 77.0828 81.2116 75.9628 81.8757C75.1148 82.3797 74.2748 82.9157 73.3148 83.5797C73.0348 83.7717 72.7228 83.9797 72.3948 84.2197C71.7468 84.6917 71.1468 85.1477 70.5707 85.6037C70.4507 85.6997 70.3067 85.8357 70.1787 85.9397C69.3627 86.2437 68.5627 86.5717 67.7707 86.9717C67.3787 87.1717 67.1387 87.2997 66.9467 87.4037C66.8347 87.4677 66.7387 87.5157 66.6187 87.5877C66.4427 87.6917 66.2507 87.8037 66.0987 87.8917C66.0827 87.8997 65.9627 87.9717 65.9467 87.9797L65.9147 88.0037C65.8827 88.0197 65.7147 88.1237 65.6827 88.1397C65.4507 88.2837 65.2667 88.4037 65.1227 88.4997C65.0747 88.5317 65.0187 88.5717 65.0187 88.5717C64.9387 88.6277 64.8187 88.6997 64.6907 88.7877C64.4667 88.9398 64.2827 89.0758 64.1147 89.1878C64.0347 89.2438 63.7707 89.4358 63.7707 89.4358C63.5626 89.5878 63.4106 89.7078 63.2746 89.8118C63.0826 89.9558 62.9626 90.0518 62.8346 90.1558C62.6506 90.3078 62.4666 90.4518 62.3226 90.5718C62.1786 90.6918 62.0666 90.7878 61.9386 90.8918C61.7786 91.0278 61.6346 91.1558 61.5146 91.2678C61.4106 91.3638 61.0666 91.6758 61.0666 91.6758C60.8986 91.8358 60.7386 91.9798 60.6026 92.1158C60.4986 92.2198 60.3626 92.3478 60.2106 92.4918L59.7946 92.9158C59.7226 92.9878 59.3946 93.3318 59.3946 93.3318C59.3706 93.3558 58.9706 93.7958 58.9706 93.7958C58.9786 93.7878 58.5946 94.2198 58.5946 94.2198C58.4586 94.3718 58.3306 94.5238 58.1866 94.6918C58.0986 94.7958 57.9706 94.9478 57.8266 95.1238C57.8026 95.1558 57.5226 95.4998 57.5226 95.4998C57.2906 95.7958 57.1626 95.9558 57.0506 96.1078C56.9546 96.2359 56.8266 96.4039 56.7226 96.5559C56.5866 96.7399 56.4666 96.9079 56.3465 97.0679L56.0185 97.5399C55.8985 97.7159 55.7785 97.8919 55.6585 98.0759C55.5385 98.2599 55.4345 98.4199 55.3305 98.5799C55.3385 98.5639 55.0025 99.1079 55.0025 99.1079C54.9865 99.1319 54.7145 99.5799 54.7145 99.5799C54.5785 99.8039 54.4665 100.004 54.3625 100.196C54.2825 100.332 54.1865 100.5 54.0905 100.684C53.9945 100.86 53.8905 101.052 53.7705 101.292L53.5305 101.764C53.4105 101.996 53.3145 102.212 53.2185 102.412C53.1385 102.588 53.0665 102.74 52.9865 102.916C52.8825 103.148 52.7865 103.372 52.6985 103.572C52.6665 103.652 52.4985 104.044 52.4985 104.044C52.3865 104.316 52.2985 104.548 52.2185 104.756C52.2265 104.74 52.0425 105.228 52.0425 105.228C51.9385 105.516 51.8505 105.764 51.7705 105.988C51.7065 106.18 51.6585 106.308 51.6105 106.452C51.5145 106.732 51.4345 107.004 51.3625 107.236C51.3145 107.388 51.2745 107.524 51.2345 107.676C51.1465 107.98 51.0745 108.252 51.0105 108.508C50.9625 108.684 50.9305 108.796 50.8985 108.932C50.8185 109.252 50.7545 109.548 50.6985 109.812C50.6665 109.956 50.6425 110.068 50.6185 110.204C50.5465 110.564 50.4905 110.892 50.4425 111.164C50.4265 111.268 50.4025 111.372 50.3865 111.5C50.3225 111.924 50.2665 112.316 50.2345 112.612C50.2345 112.612 50.2185 112.7 50.2105 112.82C49.9945 114.66 49.9465 116.508 50.0585 118.324C50.0585 118.404 50.0745 118.564 50.0825 118.644C50.0985 118.956 50.1385 119.348 50.1785 119.732C50.1785 119.788 50.2105 119.996 50.2185 120.052V120.076C50.2585 120.38 50.2985 120.74 50.3625 121.124C50.3865 121.26 50.4025 121.388 50.4185 121.476C50.4825 121.836 50.5385 122.164 50.6105 122.532C50.6425 122.692 50.6745 122.82 50.6905 122.908C50.7705 123.276 50.8425 123.588 50.9305 123.94C50.9705 124.1 51.0025 124.228 51.0345 124.316C51.1305 124.676 51.2185 124.996 51.3225 125.34C51.3705 125.5 51.4105 125.628 51.4425 125.732C51.5705 126.132 51.6665 126.428 51.7785 126.732C51.8505 126.924 51.9065 127.084 51.9545 127.212C52.0745 127.524 52.1865 127.828 52.3225 128.156C52.3865 128.3 52.4425 128.444 52.4985 128.564C52.6585 128.932 52.7865 129.228 52.9305 129.54C53.0105 129.716 53.0905 129.876 53.1545 130.004C53.2985 130.3 53.4505 130.604 53.6185 130.916C53.6985 131.068 53.7865 131.228 53.8585 131.356C54.0905 131.772 54.2345 132.028 54.3785 132.268C54.5065 132.484 54.6185 132.668 54.7145 132.828C54.8825 133.1 55.0505 133.364 55.2105 133.612C55.3305 133.788 55.4505 133.964 55.5705 134.148C55.7625 134.428 55.9465 134.692 56.1305 134.948C56.2585 135.124 56.3945 135.308 56.5226 135.476C56.7146 135.732 56.9146 135.996 57.1146 136.244C57.2506 136.412 57.3946 136.596 57.5386 136.772C57.7466 137.02 57.9546 137.268 58.1706 137.524L58.6266 138.044C58.8346 138.276 59.0506 138.508 59.2986 138.772C59.4906 138.98 59.6506 139.148 59.8026 139.3C60.0426 139.548 60.2826 139.78 60.4986 139.996C60.5146 140.012 61.0346 140.508 61.0346 140.508C61.2666 140.724 61.5066 140.948 61.8026 141.212C61.8586 141.26 62.3626 141.708 62.3626 141.708C62.6426 141.956 62.9226 142.188 63.1626 142.388C63.1466 142.372 63.7387 142.869 63.7387 142.869C64.0267 143.101 64.2907 143.301 64.5947 143.541C64.8027 143.701 65.0027 143.853 65.2187 144.013C65.5227 144.245 65.8187 144.453 66.0987 144.653C66.2107 144.733 66.7547 145.117 66.7547 145.117C67.0907 145.349 67.4027 145.557 67.6987 145.757L67.8507 145.853L68.3707 146.197C68.6907 146.397 68.9867 146.581 69.2747 146.757C69.3787 146.821 69.5547 146.925 69.5547 146.925L70.0667 147.237C70.4267 147.453 70.7708 147.645 71.0988 147.837C71.1308 147.853 71.2988 147.949 71.2988 147.949C71.4588 148.045 71.6508 148.149 71.8588 148.269C72.1708 148.437 72.4748 148.605 72.7708 148.757L72.9708 148.861L73.1948 148.981L73.7068 149.253C74.1148 149.461 74.5068 149.653 74.8828 149.837C74.9228 149.861 75.1228 149.957 75.1228 149.957C75.2748 150.037 75.4508 150.117 75.6428 150.213C76.0748 150.421 76.5148 150.621 76.9308 150.813C77.0108 150.845 77.1868 150.933 77.1868 150.933C77.2428 150.965 77.3308 150.997 77.4028 151.029C77.2908 158.029 75.4748 161.317 72.7388 166.213C70.3467 170.501 67.3627 175.829 65.2027 184.461C64.7307 186.341 65.0347 188.333 66.0427 189.981C67.0507 191.637 68.6827 192.813 70.5707 193.261C70.8188 193.317 70.9388 193.381 70.9788 193.397C72.5068 195.109 71.3868 204.605 70.7787 209.709C69.4107 221.262 67.7387 235.47 75.1308 245.526L75.6988 252.246C75.6188 252.414 75.5548 252.542 75.5548 252.542C75.5548 252.55 75.4668 252.726 75.4668 252.726C75.2908 253.078 75.1468 253.39 75.0108 253.686C74.9548 253.806 74.9308 253.862 74.9308 253.862C74.7548 254.254 74.6188 254.55 74.4988 254.838C74.5148 254.798 74.4028 255.062 74.4028 255.062C74.2748 255.366 74.1468 255.67 74.0268 255.958C74.0188 255.982 73.9548 256.15 73.9468 256.174L73.9228 256.23C73.7868 256.574 73.6748 256.862 73.5788 257.134C73.5788 257.15 73.5148 257.302 73.5148 257.318L73.4988 257.366C73.3708 257.742 73.2668 258.022 73.1868 258.294C73.1788 258.326 73.1228 258.486 73.1148 258.518L73.0988 258.566C73.0108 258.846 72.9148 259.158 72.8268 259.486C72.7948 259.598 72.7708 259.702 72.7468 259.782C72.6508 260.142 72.5868 260.422 72.5228 260.686C72.4908 260.822 72.4668 260.934 72.4508 261.014C72.3708 261.398 72.3228 261.678 72.2748 261.95C72.2748 261.998 72.2348 262.198 72.2268 262.254V262.286C72.1868 262.542 72.1388 262.854 72.0988 263.198C72.0828 263.35 72.0668 263.494 72.0668 263.574C72.0428 263.862 72.0188 264.166 72.0028 264.51C72.0028 264.574 71.9948 264.798 71.9948 264.862V264.894C71.9948 265.126 71.9788 265.446 71.9948 265.806C71.9948 265.878 72.0028 266.11 72.0108 266.182V266.214C72.0268 266.486 72.0428 266.814 72.0748 267.166C72.0908 267.318 72.1068 267.462 72.1228 267.55C72.1548 267.822 72.1948 268.134 72.2588 268.494C72.2828 268.63 72.3148 268.782 72.3308 268.878C72.3868 269.158 72.4428 269.454 72.5228 269.79C72.5788 270.014 72.6188 270.142 72.6428 270.23C72.7148 270.486 72.7948 270.766 72.8908 271.086C72.9628 271.31 73.0108 271.438 73.0428 271.526C73.1308 271.766 73.2348 272.062 73.3628 272.382C73.4428 272.582 73.5148 272.734 73.5628 272.838C73.6588 273.046 73.7788 273.326 73.9308 273.638C74.0188 273.814 74.0908 273.95 74.1388 274.046C74.2668 274.294 74.4108 274.566 74.5788 274.862C74.6668 275.014 74.7468 275.134 74.7948 275.214C74.8428 275.294 74.8668 275.326 74.8668 275.326C74.9788 275.51 75.1228 275.75 75.2988 276.006C75.4108 276.174 75.4988 276.302 75.5628 276.39C75.6108 276.462 75.6508 276.518 75.6508 276.518C75.7708 276.694 75.9148 276.902 76.0988 277.15C76.2268 277.318 76.3228 277.446 76.3948 277.534C76.4588 277.614 76.5308 277.71 76.5308 277.71C76.6508 277.862 76.8028 278.054 76.9788 278.27C77.0908 278.406 77.2108 278.542 77.2988 278.638C77.3788 278.726 77.4588 278.822 77.4588 278.822C77.5788 278.958 77.7308 279.134 77.9068 279.334C78.0429 279.486 78.1789 279.622 78.2909 279.742C78.3629 279.822 78.4589 279.918 78.4589 279.918C78.5789 280.046 78.7229 280.198 78.8909 280.366C79.0589 280.542 79.2189 280.694 79.3549 280.814C79.4109 280.87 79.5149 280.974 79.5149 280.974C79.6349 281.094 79.7789 281.238 79.9469 281.39C80.1629 281.59 80.3389 281.742 80.4909 281.886C80.5709 281.958 80.6989 282.07 80.6989 282.07C80.8029 282.166 80.9229 282.278 81.0669 282.406C81.3069 282.614 81.5069 282.782 81.6909 282.934L81.8109 283.03C81.9869 283.182 82.1229 283.294 82.2669 283.414C82.5149 283.614 82.7549 283.806 82.9789 283.982L83.1149 284.094L83.2429 284.198L83.5069 284.406C83.8829 284.694 84.2589 284.982 84.6989 285.302L84.8669 285.43C84.9469 285.486 85.0429 285.55 85.1229 285.614C88.259 304.815 94.1871 319.655 102.771 329.727C104.147 331.343 106.163 332.271 108.283 332.271C108.963 332.271 109.643 332.175 110.299 331.983C113.307 331.103 116.003 330.631 118.307 330.559C121.699 330.455 123.979 331.199 125.076 332.775C126.276 334.487 126.204 337.167 125.684 338.447C124.555 341.263 125.292 344.479 127.54 346.511C151.948 368.632 166.132 371.872 175.516 374.016C182.692 375.656 185.396 376.272 190.548 385.048C195.876 394.808 199.213 403.424 202.157 411.024C209.589 430.216 215.461 445.377 245.029 448.081C250.445 448.577 256.589 448.681 263.805 448.401C264.789 448.385 265.909 448.313 267.013 448.217C267.941 448.137 268.805 448.009 269.549 447.897C269.686 447.881 269.901 447.857 270.158 447.817C271.982 447.521 273.822 447.073 275.614 446.513C275.966 446.441 276.294 446.361 276.59 446.273C276.646 446.257 276.702 446.249 276.75 446.233C276.758 446.233 276.766 446.233 276.782 446.225C276.782 446.225 276.79 446.225 276.798 446.225C276.798 446.225 276.79 446.225 276.782 446.225C277.422 446.041 277.958 445.841 278.462 445.601C278.806 445.441 279.086 445.297 279.31 445.177L279.574 445.049C279.422 445.129 279.318 445.169 279.166 445.241C279.894 444.929 280.622 444.601 281.31 444.249C281.126 444.345 280.934 444.425 280.742 444.505C281.014 444.393 281.294 444.249 281.558 444.105C283.478 443.121 285.326 441.969 287.046 440.649C287.182 440.545 287.326 440.433 287.478 440.313C289.054 439.073 290.566 437.649 291.958 436.121C292.15 435.905 292.39 435.649 292.638 435.361C293.038 434.897 293.39 434.465 293.734 434.041C294.006 433.697 294.246 433.369 294.462 433.081C294.462 433.081 294.566 432.937 294.574 432.929C295.038 432.297 295.454 431.705 295.838 431.121C296.254 430.497 296.582 429.984 296.886 429.488C297.142 429.056 297.374 428.664 297.566 428.32C297.87 427.784 298.19 427.2 298.502 426.592L298.63 426.352C298.75 426.136 298.878 425.888 299.014 425.6C299.454 424.704 299.886 423.768 300.286 422.824C300.382 422.592 300.462 422.408 300.526 422.24L300.614 422.016C300.926 421.248 301.238 420.44 301.542 419.624C301.542 419.608 301.598 419.456 301.598 419.456L301.862 418.712C302.062 418.128 302.254 417.576 302.422 417.04C302.774 416.528 303.062 415.976 303.27 415.368L304.086 412.976C307.198 403.632 308.078 397.728 308.446 392.48C317.774 387.768 325.622 376.72 333.854 365.112C339.958 356.495 347.559 345.767 352.631 343.951C352.871 343.871 353.095 343.775 353.327 343.663C357.175 341.815 361.999 340.783 367.103 339.679C371.831 338.663 377.191 337.503 382.559 335.527C382.295 335.623 382.023 335.703 381.751 335.775C382.863 335.503 383.879 335.079 384.831 334.575C384.879 334.591 384.927 334.623 384.983 334.647C385.311 334.783 385.655 334.903 385.999 334.991C386.047 335.007 386.103 335.007 386.159 335.023C386.447 335.087 386.743 335.143 387.047 335.167C387.159 335.183 387.271 335.183 387.383 335.191C387.519 335.191 387.647 335.215 387.783 335.215C387.863 335.215 387.935 335.191 388.007 335.191C388.303 335.183 388.599 335.151 388.903 335.103C389.039 335.079 389.183 335.071 389.319 335.039C389.695 334.959 390.063 334.847 390.423 334.703C390.471 334.687 390.519 334.679 390.567 334.655C390.943 334.495 391.311 334.311 391.663 334.087C391.695 334.063 391.727 334.039 391.767 334.015C391.775 334.015 391.791 334.007 391.799 333.999C391.791 333.999 391.775 334.007 391.767 334.015C391.791 333.999 391.815 333.983 391.839 333.967C396.535 330.927 399.151 326.855 400.671 323.111C401.151 322.871 401.615 322.599 402.031 322.263C402.567 321.887 403.095 321.471 403.615 320.975C403.671 320.919 403.815 320.783 403.983 320.607C404.607 319.943 405.143 319.247 405.599 318.503C405.663 318.399 405.783 318.183 405.847 318.079C405.847 318.079 405.823 318.127 405.791 318.183C406.007 317.807 406.199 317.431 406.383 317.055C407.543 316.463 408.487 315.623 409.223 314.567C409.967 313.479 410.727 312.279 411.503 310.983C411.575 310.911 411.623 310.863 411.703 310.783C414 308.503 418.264 304.255 419.48 296.103C419.528 295.791 419.576 295.439 419.632 295.031C419.736 294.207 419.84 293.295 419.936 292.263C421.512 288.191 423.32 284.894 425.08 281.71C427.048 278.142 428.904 274.774 430.256 270.718C430.472 270.062 430.648 269.494 430.808 268.918C430.84 268.798 430.872 268.678 430.888 268.598C431.048 268.006 431.168 267.51 431.272 267.038C431.312 266.854 431.344 266.694 431.368 266.566C431.496 265.958 431.576 265.51 431.648 265.078C431.688 264.846 431.712 264.638 431.744 264.462C431.832 263.886 431.888 263.446 431.928 263.014C431.952 262.782 431.976 262.55 431.992 262.35C432.048 261.726 432.072 261.286 432.096 260.878C432.112 260.582 432.12 260.278 432.128 260.006C432.144 259.534 432.152 259.078 432.152 258.646C432.152 258.326 432.152 258.006 432.144 257.686C432.136 257.222 432.112 256.766 432.088 256.31C432.072 255.958 432.048 255.606 432.024 255.278C431.992 254.886 431.952 254.422 431.904 253.894C431.872 253.574 431.832 253.198 431.784 252.806C431.72 252.286 431.648 251.758 431.592 251.366C431.544 251.006 431.488 250.622 431.416 250.206C431.336 249.694 431.24 249.19 431.152 248.71C431.064 248.246 431 247.894 430.92 247.502C430.808 246.958 430.688 246.406 430.576 245.926L430.536 245.726L430.296 244.678C430.16 244.102 430.016 243.55 429.872 243.014C429.872 242.998 429.784 242.686 429.784 242.686L429.52 241.694C429.368 241.126 429.2 240.566 429.048 240.03C429.008 239.894 428.904 239.534 428.904 239.534L428.616 238.55C428.616 238.55 428.568 238.398 428.496 238.182C430.024 236.846 430.936 234.91 430.968 232.854C431.576 196.637 428.184 172.909 419.792 156.341C420.04 156.237 420.296 156.141 420.536 156.037L420.856 155.901L421.2 155.765C421.448 155.669 421.728 155.557 422.032 155.429C422.896 155.061 423.672 154.685 424.424 154.333C424.464 154.309 424.552 154.277 424.632 154.237C424.816 154.157 425.048 154.053 425.296 153.925C426.208 153.477 427.032 153.029 427.728 152.637L427.816 152.589C427.952 152.517 428.136 152.421 428.344 152.309C429.304 151.765 430.144 151.229 430.768 150.829C430.704 150.869 430.744 150.845 430.744 150.845C430.848 150.781 431.024 150.677 431.216 150.549C431.944 150.069 432.728 149.517 433.56 148.885C433.528 148.909 433.664 148.821 433.824 148.693C434.584 148.109 435.328 147.493 436.104 146.805C436.024 146.877 435.992 146.901 435.912 146.973C436.008 146.893 436.136 146.789 436.288 146.653C436.984 146.029 437.704 145.317 438.392 144.581C438.32 144.661 438.272 144.709 438.2 144.781C438.28 144.709 438.376 144.597 438.456 144.517C439.12 143.797 439.752 143.045 440.344 142.268C440.384 142.22 440.424 142.18 440.456 142.132C443.664 137.924 445.504 133.164 445.952 127.98C446.512 127.172 447.024 126.356 447.472 125.524C447.504 125.46 447.536 125.404 447.568 125.34C450.04 120.684 450.624 115.836 449.336 111.516L449.28 111.54ZM275.862 446.465C275.862 446.465 275.814 446.473 275.79 446.481C275.894 446.449 276.006 446.425 276.102 446.393C276.022 446.417 275.942 446.441 275.862 446.465ZM387.743 335.239C387.615 335.239 387.495 335.223 387.375 335.215C387.567 335.223 387.767 335.215 387.959 335.215C387.887 335.215 387.815 335.239 387.743 335.239ZM438.784 124.948C439.104 137.42 429.144 146.573 408.903 152.405C418.632 165.941 424.424 187.781 423.672 232.766L418.176 230.702C433.392 270.614 418.928 270.342 411.655 293.879C411.655 293.903 411.655 293.927 411.647 293.951C411.159 297.239 410.095 299.143 408.919 300.495C407.111 304.287 405.199 307.599 403.207 310.487C402.231 311.903 402.735 304.679 401.727 305.903C400.775 307.063 401.495 314.343 397.567 316.551C396.399 317.743 397.383 310.807 396.175 311.799C395.223 312.583 395.943 322.783 387.735 327.999C391.199 320.943 389.711 320.455 388.423 321.175C387.231 321.839 384.135 327.767 380.007 328.767C369.383 332.687 358.703 333.063 350.151 337.167C334.774 342.663 318.542 383.872 301.414 387.416C301.126 394.616 300.822 400.392 296.398 413.008C296.246 413.152 296.086 413.288 295.934 413.432C290.598 431.577 279.79 440.833 263.485 441.193C208.173 443.313 218.885 421.896 196.805 381.496C182.18 356.543 175.196 380.008 132.356 341.167C135.14 334.255 132.356 318.047 108.227 325.055C100.043 315.447 94.5471 300.919 91.747 281.47C76.5788 271.31 76.9388 265.022 83.2749 253.262L81.8589 242.446C67.9867 226.814 88.651 190.093 72.1708 186.221C76.9548 167.109 85.819 166.885 84.4509 146.141C40.0743 129.228 59.5786 94.4598 75.2908 91.9878C75.2908 91.9878 75.2908 91.9878 75.2908 91.9958C76.4188 91.3718 77.6828 90.7958 79.0909 90.2518C92.9711 79.7716 110.251 78.9236 121.211 83.1157C124.836 80.7556 127.444 78.1476 132.748 78.2916C133.876 77.6276 138.452 78.2116 139.548 77.5956C140.828 76.8756 133.852 72.4355 135.092 71.7795C136.244 71.1635 149.076 74.2435 150.188 73.6755C151.132 73.1955 140.98 67.6755 140.98 67.6755C140.98 67.8515 159.236 71.9875 160.94 71.2435C162.652 70.4915 153.548 65.6354 155.18 65.0034C194.62 49.7872 212.253 69.0115 250.237 73.7235L250.605 72.9955C291.486 55.4433 323.302 57.4353 347.127 67.0354C348.783 67.6995 340.126 67.9795 343.735 69.9395C345.623 71.7635 353.695 69.4675 355.591 70.9235C356.655 71.4755 353.151 74.4275 355.255 74.9476C356.607 75.7076 369.495 75.2916 369.423 75.2196C368.895 76.4356 361.783 78.2676 363.135 79.2036C364.527 80.1636 369.607 79.6596 370.911 80.6596C377.447 85.6517 382.975 91.0518 387.535 96.2759C396.375 102.204 431.928 83.1317 442.056 111.468C442.048 111.468 442.04 111.468 442.032 111.468C444.672 115.604 442.48 120.588 438.792 124.956L438.784 124.948Z" fill="white"/>
<path d="M447.48 125.436C447.512 125.38 447.544 125.316 447.576 125.26C447.56 125.3 447.536 125.332 447.52 125.364C447.504 125.388 447.504 125.412 447.488 125.436H447.48Z" fill="white"/>
<path d="M430.263 270.559C430.239 270.631 430.223 270.679 430.199 270.743C430.215 270.687 430.239 270.615 430.255 270.559H430.263Z" fill="white"/>
<path d="M127.731 71.4437C127.731 71.3557 127.731 71.2677 127.747 71.1797C127.739 71.2597 127.731 71.3397 127.723 71.4277C127.723 71.4917 127.715 71.5397 127.715 71.5957C127.715 71.5477 127.731 71.4997 127.731 71.4437Z" fill="white"/>
<path d="M447.473 125.453C447.473 125.453 447.433 125.517 447.417 125.549C447.377 125.621 447.345 125.693 447.305 125.757C447.361 125.661 447.425 125.557 447.481 125.453H447.473Z" fill="white"/>
<path d="M281.645 444.072C281.645 444.072 281.565 444.104 281.533 444.128C281.453 444.168 281.381 444.216 281.309 444.256C281.421 444.2 281.541 444.136 281.653 444.072H281.645Z" fill="white"/>
<path d="M368.464 105.524C364.36 97.58 358.432 94.492 350.688 96.26C350.688 70.5077 288.199 67.4916 273.439 77.6198C285.007 80.6678 296.687 81.7318 308.488 80.8038C296.103 89.2839 278.183 92.596 263.207 86.9879C254.783 99.9801 267.223 116.46 290.351 102.164C295.639 100.508 324.504 89.0439 344.008 114.46C302.375 103.812 290.143 139.381 276.551 126.204C272.919 121.124 278.207 101.74 248.871 131.701C253.071 105.948 251.295 91.628 247.575 78.9078L247.823 78.4198C225.63 71.5157 203.998 68.1556 182.934 68.3476L193.062 77.6118C183.59 78.4678 176.526 79.2598 166.598 79.5398C163.806 79.6758 156.333 79.2998 154.989 79.5398C153.333 79.8278 158.549 81.8678 156.941 82.2038C155.613 82.4838 144.501 79.3958 138.757 81.3478C144.781 82.6278 148.493 84.1878 147.573 84.4439C141.989 85.9799 139.445 87.3239 134.773 89.8919L136.821 102.604C123.077 94.572 103.789 90.4759 78.9643 90.3239C79.0043 90.2919 79.0443 90.2679 79.0763 90.2439C77.6763 90.7879 76.4043 91.3639 75.2763 91.988C54.308 121.924 74.1563 129.316 87.2685 134.365C76.9563 123.828 76.7323 113.06 89.9485 106.812C101.653 103.644 111.525 108.852 119.573 122.436C96.8206 142.205 96.7326 167.261 100.077 207.87L81.8684 242.454C81.8684 242.454 81.8604 242.446 81.8524 242.438L83.2684 253.254C84.0524 258.59 87.5885 260.422 93.8845 258.75C91.1725 264.494 92.9485 272.478 93.8845 277.087C95.3246 273.799 97.5006 269.99 102.437 267.214C104.317 290.303 110.733 312.591 127.589 309.327C130.581 313.119 135.037 317.823 140.245 322.671C141.773 324.095 144.429 334.639 146.061 336.071C147.573 337.391 148.061 329.599 149.637 330.895C151.389 332.335 152.445 345.152 154.237 346.52C154.493 347.024 156.253 335.319 160.205 338.975C177.422 351.088 193.742 357.096 191.446 338.711C98.3086 299.431 122.101 210.054 122.101 210.054L113.341 218.526C111.861 204.19 111.453 191.261 111.981 179.845C112.093 177.405 116.021 170.661 116.221 168.357C119.029 162.797 120.573 157.829 111.277 166.501C110.973 156.589 120.725 152.477 121.501 149.461C122.021 147.437 116.901 147.909 117.509 146.069C128.013 140.165 125.381 138.437 126.461 136.149C127.573 133.797 122.797 134.093 124.093 132.189C129.069 124.884 135.357 120.932 142.589 120.636C134.493 132.389 125.077 155.469 128.333 176.701C160.589 168.789 140.325 137.885 164.926 121.628C176.382 115.9 183.222 114.668 207.118 126.876C200.422 127.924 189.846 129.468 189.894 137.493C194.246 148.533 221.03 134.453 229.102 164.597C220.342 159.869 216.566 158.493 210.014 162.077C226.182 167.421 236.143 172.229 228.934 190.429C221.718 176.693 215.23 174.157 207.502 179.677C206.406 175.677 204.814 172.781 202.926 170.533C201.838 185.909 192.702 191.453 177.902 181.413C179.206 183.837 181.262 186.493 184.03 189.549C178.966 187.805 175.55 185.605 173.782 182.941C172.062 186.093 173.526 189.253 178.158 192.445C170.206 207.262 181.878 208.294 190.118 202.453C200.422 189.405 206.95 185.629 213.646 186.581C205.918 203.83 184.286 218.942 196.99 221.686C189.558 230.374 189.494 234.198 196.79 233.142C192.174 240.342 191.838 245.038 196.99 243.662C192.526 270.102 198.134 278.527 207.294 284.527C199.398 296.199 202.814 311.855 213.694 330.415V330.455C213.806 329.903 213.942 329.367 214.086 328.855C212.846 305.535 214.534 304.191 220.03 290.167C224.054 292.527 225.974 302.399 231.238 304.415C233.334 297.183 235.391 292.695 237.407 290.967L243.575 296.463L248.623 294.327L252.103 295.895L255.463 293.655L261.407 295.671L267.127 291.415C268.607 290.463 269.839 294.647 270.831 303.967L278.343 294.319C281.847 300.303 282.783 314.287 281.151 336.263C288.831 326.679 293.951 317.519 295.623 308.343C298.063 299.959 296.231 292.559 290.127 286.143L301.911 292.479C301.911 292.479 301.911 292.415 301.911 292.383C308.544 294.031 313.248 291.799 314.792 285.319C333.76 312.567 303.751 344.191 296.711 364.632L300.695 371.72C320.36 351.192 331.592 334.967 334.376 323.063L341.464 330.071C344.176 326.711 346.016 320.951 346.96 312.791C379.768 326.375 382.825 291.927 402.697 290.103L408.993 300.295C408.961 300.359 408.929 300.423 408.897 300.495C410.073 299.151 411.137 297.239 411.625 293.951C411.625 293.927 411.625 293.903 411.633 293.879C411.633 293.879 411.633 293.887 411.633 293.895L409.225 284.967C414.257 260.846 413.913 242.99 408.193 231.39C418.649 209.158 417.737 183.405 405.441 154.117C381.673 147.917 373.088 134.869 379.689 114.964C392.049 128.356 433.265 118.74 438.753 124.924C438.753 124.924 438.753 124.932 438.753 124.94C442.441 120.572 444.633 115.58 441.993 111.452C424.233 113.58 414.953 94.108 368.432 105.524H368.464ZM94.1885 258.446C94.8366 246.606 93.6285 228.75 97.2526 223.27C106.013 237.582 106.845 243.566 94.1885 258.446ZM214.534 133.173C229.254 119.716 235.895 103.228 234.454 83.7158C240.695 91.2919 241.839 103.316 237.887 119.772C233.422 163.389 245.783 137.285 249.567 145.181C251.575 148.493 249.391 156.749 246.479 166.821L233.43 161.669C231.462 150.469 225.166 140.965 214.542 133.165L214.534 133.173ZM282.031 285.095C282.031 285.095 235.735 281.815 213.606 285.095L219.534 280.583L209.942 277.887C194.502 250.406 211.318 217.87 219.998 208.686C218.814 214.966 216.254 220.638 225.726 221.774C235.959 218.454 240.991 222.734 240.815 234.63C235.479 232.494 232.51 234.174 231.926 239.662L220.47 233.006C216.454 238.574 218.206 243.134 225.734 246.694C229.846 248.566 238.823 242.598 243.383 247.622L239.983 255.678C245.943 256.142 261.263 249.254 258.463 263.638L266.295 247.39C278.615 242.838 284.191 235.742 283.015 226.11C295.167 240.366 279.751 248.79 277.055 256.614L284.183 252.886C291.431 260.158 288.511 269.166 275.423 279.895L282.039 285.103L282.031 285.095ZM258.143 225.99C262.783 217.99 266.847 216.734 271.551 222.934C274.391 227.95 274.311 232.67 271.319 237.086C268.399 240.11 254.975 236.95 258.143 225.99ZM368.96 251.63C379.936 250.046 387.529 240.622 391.737 223.358L404.441 242.374C398.401 245.838 394.969 255.718 394.129 272.014C392.233 278.663 381.537 284.871 375.192 288.287C373.344 289.279 384.585 278.535 376.992 272.374C372.312 277.095 361.48 295.519 361.12 295.159C357.408 296.607 363.56 284.447 359.64 286.127C357.368 287.095 347.824 301.255 345.568 302.399C343.4 303.495 347.32 293.495 345.208 294.799C341.416 297.167 336.536 308.215 333.184 311.575C334.336 297.143 331.368 286.279 324.28 278.983C318.288 276.711 314.472 277.255 304.199 279.543C306.031 267.294 305.527 255.102 302.679 242.974C320.888 281.215 362.544 218.318 357.624 206.406C346.504 221.038 330.648 218.83 310.072 199.773C347.608 194.405 349.496 189.453 333.304 174.493C333.544 177.813 326.96 182.605 314.12 189.133C320.808 182.925 324.128 177.773 324.08 173.677C322.992 164.461 310.144 156.757 299.207 166.917C300.775 165.549 302.951 164.789 305.535 165.093L307.936 170.245L314.464 166.813C324.416 172.653 316.864 189.821 301.751 181.925C295.535 177.549 295.359 171.037 298.591 167.517C295.895 170.205 293.327 173.997 291.111 179.181C288.199 174.133 276.759 177.309 277.143 206.878C269.583 185.245 264.559 162.125 250.591 176.437L266.391 134.917C270.855 142.269 271.471 145.493 287.679 133.853C296.263 148.805 312.136 136.141 316.528 155.485C300.039 153.085 291.799 158.573 290.775 170.597C297.583 159.061 305.559 157.085 316.056 159.237C319.88 152.085 326.072 150.093 337.928 165.677C352.256 170.293 353.296 151.525 334.152 142.429C334.168 142.333 334.2 142.245 334.216 142.149C325.728 137.877 320 137.765 313.68 138.581C320.088 125.868 329.912 124.436 343.136 134.213C348.864 132.805 354.24 133.221 348.936 127.172C409.945 144.677 381.161 230.046 368.968 251.622L368.96 251.63Z" fill="#E64100"/>
<path d="M232.911 403.633L233.311 403.905C249.247 414.729 264.207 406.561 270.087 403.689C289.216 408.041 292.104 381.025 287.232 357.248C282.984 371.592 277.575 388.401 271.807 391.025C276.407 362.528 275.863 335.912 269.951 317.424C260.527 310.808 254.807 325.28 245.167 322.248C241.143 322.92 236.351 310.088 230.151 313.168C217.815 335.696 224.599 364.648 236.095 390.985C242.207 392.145 246.911 391.505 250.215 389.073L256.159 392.553L261.879 391.209L270.407 391.881L259.863 397.825L253.247 394.793C247.719 399.529 246.575 399.337 239.671 394.793L233.055 399.393L231.711 393.673C220.047 388.625 222.959 382.457 217.463 368.336C217.375 367.888 217.295 367.456 217.207 367.016C211.671 390.681 216.199 407.801 232.903 403.625L232.911 403.633Z" fill="#E64100"/>
<path d="M196.51 165.349C195.662 164.853 194.798 164.389 193.926 163.941C192.478 163.749 191.078 163.629 189.734 163.629L192.07 170.101L196.51 165.357V165.349Z" fill="#E64100"/>
<path d="M178.926 234.998C157.742 228.35 145.285 215.277 141.581 195.789C136.565 205.757 135.093 214.213 136.253 221.557C136.429 222.693 135.165 231.406 135.469 232.494C135.893 233.998 137.933 227.854 138.581 229.262C139.053 230.302 135.469 239.926 139.597 243.43C140.437 244.862 141.965 235.126 143.021 236.47C144.093 237.83 146.589 247.118 147.861 248.398C149.093 249.646 149.093 242.894 150.494 244.07C151.638 245.038 151.982 261.398 158.598 265.75C159.638 266.526 157.158 250.254 161.71 251.702C174.158 263.134 165.838 294.942 187.326 299.127C179.462 274.078 175.166 246.198 178.942 234.998H178.926Z" fill="#E64100"/>
<path d="M281.78 422.585C261.26 431.745 234.964 430.297 228.18 421.057C228.436 430.001 234.964 438.521 260.604 436.073C276.412 434.289 283.46 429.793 281.78 422.585Z" fill="#E64100"/>
<path d="M284.166 252.878L277.037 256.606C279.742 248.782 295.158 240.358 282.998 226.102C284.174 235.734 278.598 242.83 266.277 247.382L258.445 263.631C261.245 249.246 245.925 256.134 239.965 255.67L243.365 247.614C238.805 242.59 229.829 248.558 225.717 246.686C218.197 243.126 216.437 238.566 220.453 232.998L231.909 239.654C232.501 234.166 235.461 232.494 240.797 234.622C240.973 222.734 235.949 218.446 225.709 221.766C216.237 220.63 218.797 214.958 219.981 208.678C211.301 217.862 194.476 250.398 209.925 277.879L219.517 280.575L213.589 285.087C235.717 281.807 282.014 285.087 282.014 285.087L275.397 279.879C288.486 269.151 291.398 260.142 284.158 252.87L284.166 252.878Z" fill="#0B162A"/>
<path d="M246.468 166.83C249.38 156.766 251.572 148.51 249.556 145.189C245.78 137.293 233.412 163.39 237.876 119.781C241.828 103.325 240.676 91.3007 234.444 83.7246C235.892 103.237 229.252 119.717 214.523 133.181C225.14 140.981 231.436 150.486 233.412 161.686L246.46 166.838L246.468 166.83Z" fill="#0B162A"/>
<path d="M348.927 127.188C354.231 133.236 348.855 132.812 343.127 134.228C329.903 124.451 320.079 125.883 313.671 138.596C319.991 137.78 325.719 137.892 334.207 142.164C334.191 142.26 334.159 142.34 334.143 142.444C353.287 151.54 352.247 170.308 337.919 165.692C326.063 150.108 319.871 152.1 316.047 159.252C305.551 157.092 297.575 159.076 290.767 170.612C291.791 158.596 300.039 153.1 316.519 155.5C312.127 136.148 296.255 148.812 287.671 133.868C271.462 145.508 270.846 142.292 266.382 134.932L250.582 176.452C264.55 162.14 269.582 185.26 277.134 206.893C276.75 177.324 288.191 174.148 291.103 179.196C293.327 174.012 295.887 170.22 298.583 167.532C295.351 171.052 295.535 177.572 301.743 181.94C316.847 189.836 324.407 172.668 314.455 166.828L307.927 170.26L305.527 165.108C302.935 164.812 300.767 165.572 299.199 166.932C310.143 156.772 322.991 164.476 324.071 173.692C324.119 177.788 320.799 182.94 314.111 189.148C326.959 182.62 333.535 177.828 333.295 174.508C349.479 189.476 347.599 194.42 310.063 199.788C330.639 218.845 346.495 221.053 357.616 206.421C362.536 218.325 320.879 281.222 302.671 242.989C305.519 255.117 306.023 267.309 304.191 279.558C314.463 277.27 318.279 276.726 324.271 278.998C331.359 286.294 334.327 297.158 333.175 311.59C336.527 308.238 341.407 297.182 345.199 294.814C347.303 293.502 343.391 303.502 345.559 302.414C347.815 301.278 357.359 287.11 359.632 286.142C363.552 284.47 357.399 296.622 361.112 295.174C361.472 295.534 372.304 277.102 376.984 272.39C384.576 278.55 373.344 289.294 375.184 288.302C381.52 284.886 392.216 278.678 394.12 272.029C394.952 255.733 398.392 245.853 404.432 242.389L391.728 223.373C387.52 240.629 379.928 250.061 368.952 251.645C381.144 230.069 409.92 144.7 348.919 127.195L348.927 127.188Z" fill="#0B162A"/>
<path d="M271.317 237.093C274.317 232.677 274.389 227.957 271.549 222.941C266.845 216.733 262.781 217.989 258.141 225.997C254.973 236.965 268.397 240.117 271.317 237.093Z" fill="#0B162A"/>
<path d="M379.71 114.973C373.118 134.877 381.702 147.925 405.462 154.125C417.751 183.406 418.671 209.166 408.214 231.398C413.927 242.998 414.279 260.855 409.246 284.975L411.655 293.903C411.655 293.903 411.655 293.895 411.655 293.887C418.927 270.351 433.383 270.623 418.175 230.71L423.671 232.774C424.423 187.79 418.631 165.949 408.902 152.413C429.143 146.581 439.103 137.429 438.783 124.957C438.783 124.957 438.783 124.949 438.783 124.941C433.287 118.757 392.078 128.373 379.718 114.981L379.71 114.973Z" fill="#0B162A"/>
<path d="M136.821 102.613L134.773 89.9004C139.445 87.3244 141.99 85.9883 147.574 84.4523C148.502 84.1963 144.782 82.6363 138.757 81.3563C144.502 79.4043 155.614 82.4923 156.942 82.2123C158.55 81.8763 153.334 79.8363 154.99 79.5483C156.334 79.3083 163.806 79.6843 166.598 79.5483C176.526 79.2683 183.582 78.4842 193.062 77.6202L182.934 68.3561C204.006 68.1641 225.639 71.5241 247.823 78.4282L247.575 78.9163C251.295 91.6364 253.071 105.957 248.871 131.709C278.207 101.757 272.919 121.133 276.551 126.213C290.144 139.389 302.368 103.821 344.008 114.469C324.504 89.0444 295.64 100.517 290.352 102.173C267.223 116.469 254.783 99.9885 263.207 86.9964C278.183 92.6044 296.104 89.2924 308.488 80.8123C296.688 81.7323 285.007 80.6763 273.439 77.6282C288.2 67.5001 350.688 70.5161 350.688 96.2685C358.432 94.5005 364.361 97.5885 368.465 105.533C414.977 94.1165 424.265 113.589 442.026 111.461C442.034 111.461 442.042 111.461 442.05 111.461C431.922 83.1243 396.369 102.197 387.529 96.2685C382.969 91.0444 377.441 85.6443 370.905 80.6523C369.601 79.6523 364.513 80.1563 363.129 79.1963C361.777 78.2602 368.889 76.4362 369.417 75.2122C369.497 75.2842 356.6 75.7082 355.248 74.9402C353.136 74.4202 356.648 71.4681 355.584 70.9161C353.688 69.4601 345.616 71.7562 343.728 69.9321C340.12 67.9721 348.776 67.7001 347.12 67.0281C323.296 57.428 291.48 55.4359 250.599 72.9882L250.231 73.7162C212.247 69.0041 194.606 49.7798 155.174 64.9961C153.542 65.6281 162.646 70.4841 160.934 71.2361C159.23 71.9802 140.974 67.8441 140.974 67.6681C140.974 67.6681 151.126 73.1882 150.182 73.6682C149.07 74.2362 136.237 71.1561 135.085 71.7722C133.853 72.4362 140.822 76.8682 139.541 77.5882C138.445 78.2122 133.869 77.6202 132.741 78.2842C127.437 78.1402 124.829 80.7483 121.205 83.1083C110.245 78.9163 92.9648 79.7643 79.0847 90.2444C79.0447 90.2764 79.0047 90.3004 78.9727 90.3244C103.797 90.4764 123.085 94.5725 136.829 102.605L136.821 102.613Z" fill="#0B162A"/>
<path d="M100.082 207.878C96.7382 167.261 96.8262 142.213 119.578 122.445C111.53 108.861 101.65 103.652 89.9541 106.82C76.7379 113.069 76.9619 123.837 87.274 134.373C74.1618 129.325 54.3136 121.933 75.2819 91.9963C75.2819 91.9963 75.2819 91.9963 75.2819 91.9883C59.5696 94.4603 40.0654 129.229 84.45 146.141C85.818 166.885 76.9539 167.109 72.1698 186.222C88.65 190.094 67.9858 226.814 81.8579 242.446C81.8579 242.446 81.8659 242.454 81.8739 242.462L100.082 207.878Z" fill="#0B162A"/>
<path d="M402.718 290.102C382.845 291.934 379.781 326.374 346.981 312.79C346.037 320.95 344.197 326.71 341.485 330.07L334.397 323.062C331.613 334.966 320.38 351.183 300.716 371.719L296.732 364.631C303.772 344.191 333.781 312.566 314.812 285.318C313.268 291.798 308.564 294.03 301.932 292.382C301.932 292.414 301.932 292.446 301.932 292.478L290.148 286.142C296.252 292.558 298.084 299.958 295.644 308.342C293.972 317.518 288.852 326.678 281.172 336.262C282.804 314.286 281.868 300.302 278.364 294.318L270.852 303.966C269.86 294.646 268.628 290.462 267.148 291.414L261.428 295.67L255.484 293.654L252.124 295.894L248.643 294.326L243.595 296.462L237.427 290.966C235.419 292.702 233.363 297.182 231.259 304.414C225.987 302.398 224.075 292.534 220.051 290.166C214.555 304.19 212.867 305.526 214.107 328.854C213.955 329.366 213.827 329.902 213.715 330.454V330.414C202.835 311.846 199.419 296.198 207.315 284.526C198.163 278.526 192.547 270.102 197.011 243.661C191.859 245.037 192.195 240.333 196.811 233.141C189.515 234.189 189.579 230.373 197.011 221.685C184.307 218.941 205.939 203.829 213.667 186.58C206.971 185.628 200.443 189.404 190.139 202.453C181.899 208.293 170.218 207.261 178.178 192.444C173.546 189.26 172.082 186.092 173.802 182.94C175.57 185.604 178.986 187.812 184.051 189.548C181.283 186.484 179.226 183.836 177.922 181.412C192.723 191.46 201.851 185.916 202.947 170.532C204.835 172.772 206.419 175.668 207.523 179.676C215.251 174.148 221.747 176.692 228.955 190.428C236.163 172.228 226.203 167.42 210.035 162.076C216.587 158.484 220.363 159.86 229.123 164.596C221.051 134.452 194.267 148.532 189.915 137.492C189.867 129.468 200.443 127.924 207.139 126.876C183.243 114.667 176.402 115.899 164.946 121.627C140.346 137.884 160.61 168.788 128.354 176.7C125.09 155.468 134.506 132.388 142.61 120.635C135.378 120.931 129.09 124.884 124.114 132.188C122.818 134.092 127.602 133.796 126.482 136.148C125.402 138.436 128.026 140.164 117.53 146.068C116.922 147.9 122.034 147.436 121.522 149.46C120.754 152.476 110.994 156.588 111.298 166.5C120.594 157.828 119.05 162.796 116.242 168.356C116.042 170.66 112.114 177.396 112.002 179.844C111.474 191.252 111.882 204.181 113.362 218.525L122.122 210.053C122.122 210.053 98.3294 299.43 191.467 338.71C193.763 357.095 177.442 351.079 160.226 338.974C156.274 335.318 154.506 347.023 154.258 346.519C152.474 345.151 151.41 332.334 149.658 330.894C148.082 329.598 147.602 337.398 146.082 336.07C144.45 334.646 141.794 324.094 140.266 322.67C135.066 317.822 130.602 313.118 127.61 309.326C110.754 312.59 104.337 290.302 102.457 267.213C97.5214 269.998 95.3453 273.798 93.9053 277.086C92.9613 272.478 91.1933 264.493 93.9053 258.749C87.6092 260.429 84.0732 258.589 83.2892 253.253C76.9531 265.013 76.6011 271.302 91.7613 281.462C94.5613 300.91 100.057 315.438 108.242 325.046C132.37 318.038 135.154 334.246 132.37 341.159C175.21 379.991 182.195 356.527 196.819 381.487C218.899 421.888 208.187 443.304 263.5 441.184C279.804 440.832 290.612 431.568 295.948 413.424C296.108 413.28 296.26 413.144 296.412 413C300.836 400.383 301.14 394.599 301.428 387.407C318.556 383.863 334.789 342.655 350.165 337.158C358.717 333.062 369.397 332.678 380.021 328.758C384.149 327.758 387.245 321.83 388.437 321.166C389.725 320.446 391.205 320.934 387.749 327.99C395.958 322.782 395.245 312.582 396.19 311.79C397.39 310.798 396.405 317.734 397.582 316.542C401.51 314.334 400.782 307.054 401.742 305.894C402.75 304.67 402.246 311.894 403.222 310.478C405.214 307.582 407.118 304.278 408.934 300.486C408.966 300.422 408.998 300.358 409.03 300.286L402.734 290.094L402.718 290.102ZM193.923 163.94C194.795 164.388 195.659 164.852 196.507 165.348L192.067 170.092L189.731 163.62C191.075 163.62 192.475 163.74 193.923 163.932V163.94ZM161.698 251.701C157.146 250.261 159.634 266.525 158.586 265.749C151.978 261.405 151.634 245.037 150.482 244.069C149.082 242.893 149.082 249.645 147.85 248.397C146.586 247.117 144.082 237.829 143.01 236.469C141.954 235.125 140.426 244.861 139.586 243.429C135.466 239.925 139.042 230.293 138.57 229.261C137.93 227.845 135.882 233.997 135.458 232.493C135.154 231.405 136.426 222.693 136.242 221.557C135.082 214.213 136.554 205.757 141.57 195.788C145.282 215.277 157.73 228.341 178.914 234.997C175.138 246.197 179.435 274.078 187.299 299.126C165.81 294.942 174.13 263.125 161.682 251.701H161.698ZM217.211 367.023C217.299 367.463 217.379 367.895 217.467 368.343C222.963 382.463 220.051 388.631 231.715 393.679L233.059 399.399L239.675 394.799C246.579 399.343 247.723 399.535 253.252 394.799L259.868 397.831L270.412 391.887L261.884 391.215L256.164 392.559L250.219 389.079C246.915 391.511 242.211 392.151 236.099 390.991C224.603 364.647 217.819 335.694 230.155 313.174C236.355 310.086 241.147 322.918 245.171 322.254C254.82 325.286 260.54 310.814 269.956 317.43C275.868 335.926 276.412 362.543 271.812 391.031C277.58 388.407 282.988 371.591 287.236 357.255C292.108 381.023 289.22 408.039 270.092 403.695C264.212 406.567 249.259 414.744 233.315 403.911L232.915 403.639C216.211 407.823 211.691 390.695 217.219 367.031L217.211 367.023ZM228.179 421.056C234.963 430.304 261.26 431.752 281.78 422.584C283.46 429.792 276.412 434.288 260.604 436.072C234.963 438.52 228.435 430 228.179 421.056Z" fill="#0B162A"/>
<path d="M94.1875 258.446C106.844 243.566 106.012 237.582 97.2515 223.27C93.6275 228.75 94.8275 246.606 94.1875 258.446Z" fill="#0B162A"/>
</svg>
