<svg xmlns="http://www.w3.org/2000/svg" viewBox="0 0 960 640"><path fill="#010101" d="M583.062 568.33c0-4.774-3.845-8.651-8.629-8.651-4.766 0-8.644 3.877-8.644 8.652s3.878 8.647 8.644 8.647c4.784 0 8.629-3.871 8.629-8.647m-15.411 0c0-3.754 3.034-6.797 6.782-6.797s6.783 3.043 6.783 6.798c0 3.74-3.035 6.792-6.783 6.792s-6.782-3.052-6.782-6.792"/><path fill="#010101" d="m577.996 573.268-1.96-4.177c1.132-.403 1.96-1.507 1.96-2.767a2.95 2.95 0 0 0-2.949-2.946h-4.167v9.89h1.864v-4.007h1.335l1.869 4.007zm-2.949-5.87h-2.303v-2.144h2.303c.617 0 1.085.479 1.085 1.07 0 .6-.468 1.075-1.085 1.075"/><path fill="#fff" d="M512.19 74.155 480 43.935s-26.653 25.02-32.189 30.22H276.035V451.41C340.161 522.497 393.997 556.45 480 596.066c85.835-39.538 139.732-73.451 203.965-144.655V74.155z"/><path fill="#b9975b" d="M509.374 81.259c-.298-.294-29.375-27.583-29.375-27.583s-29.075 27.29-29.374 27.583H283.137v367.423C343.223 515.307 396.79 549.912 480 588.247c83.032-38.253 136.588-72.732 196.862-139.565V81.259zM347.059 238.85v194.346a433 433 0 0 1-7.101-7.18V238.853c0-79.242 45.581-133.864 110.653-157.58.787.55 2.189 3.998 2.533 4.895 1.009 2.633 1.832 5.614 2.476 8.385 0 0-3.555-2.973-7.1-4.674-69.487 29.032-101.461 82.522-101.461 148.973zm128.277 161.895-31.411-101.594 10.557-10.557-2.507 12.55L480 391.79zm37.274 99.544-12.496 14.36 92.993-268.147 9.022-4.335z"/><path fill="#010101" d="M662.657 95.464v347.76C607.783 504.072 550.285 540.223 480 572.607c-70.286-32.384-127.784-68.535-182.658-129.383V95.464h122.857c-48.42 28.168-80.242 77.183-80.242 143.388v187.164c33.017 34.218 77.644 68.654 119.929 88.634l-92.997-268.146 87.593 42.09-10.557 10.559 31.411 101.594h9.328l31.411-101.594-10.558-10.557 87.591-42.092-92.995 268.145c41.998-19.844 86.649-54.142 119.929-88.633V238.852c0-66.205-31.822-115.22-80.242-143.388z"/><path fill="#333f48" d="M504.38 94.55c2.493-10.733 5.008-13.278 5.008-13.278q-14.69-13.802-29.389-27.598v268.229l19.492-62.73 103.855-49.978c-9.275-53.7-44.262-94.707-98.966-114.645m108.56 171.116-77.275 223.637 13.392-17.298s35.216-26.957 56.78-51.783v-114.27zm-265.881 0L411.37 451.78l-35.751-84.247-21.457-61.581zm106.399-18.296-82.707-31.39 89.757 43.194V127.74z"/></svg>