<svg xmlns="http://www.w3.org/2000/svg" viewBox="0 0 960 640"><path fill="#fff" d="M512.19 74.155 480 43.935s-26.653 25.02-32.189 30.22H276.035v377.256C340.161 522.496 393.997 556.45 480 596.066c85.835-39.538 139.732-73.451 203.965-144.655V74.155zM583.062 568.63c0-4.941-3.977-8.951-8.927-8.951-4.929 0-8.941 4.01-8.941 8.95s4.012 8.943 8.941 8.943c4.949 0 8.927-4.003 8.927-8.943m-15.941 0c0-3.886 3.138-7.031 7.014-7.031s7.019 3.145 7.019 7.03c0 3.868-3.141 7.025-7.019 7.025-3.876 0-7.014-3.158-7.014-7.025"/><path fill="#fff" d="m577.822 573.737-2.029-4.32c1.173-.419 2.028-1.56 2.028-2.865a3.06 3.06 0 0 0-3.05-3.048h-4.311v10.232h1.927v-4.146h1.382l1.934 4.146zm-3.051-6.072h-2.384v-2.219h2.384a1.104 1.104 0 0 1 1.123 1.106c0 .621-.485 1.113-1.123 1.113"/><path fill="#b9975b" d="M509.374 81.26c-.298-.294-29.375-27.583-29.375-27.583s-29.075 27.289-29.374 27.582H283.137v367.424C343.223 515.307 396.79 549.913 480 588.247c83.032-38.252 136.588-72.731 196.862-139.564V81.259zM347.059 238.851v194.344a429 429 0 0 1-7.101-7.18V238.854c0-79.242 45.581-133.863 110.653-157.58.787.551 2.189 3.999 2.533 4.895 1.009 2.633 1.832 5.614 2.476 8.385 0 0-3.555-2.972-7.1-4.674-69.487 29.032-101.461 82.523-101.461 148.973m128.277 161.895-31.411-101.594 10.557-10.557-2.507 12.55L480 391.789zm37.274 99.544-12.496 14.36 92.993-268.147 9.022-4.336z"/><path fill="#010101" d="M662.657 95.464v347.76C607.783 504.072 550.285 540.223 480 572.607c-70.286-32.384-127.784-68.535-182.658-129.383V95.463h122.857c-48.42 28.167-80.242 77.182-80.242 143.389v187.163c33.017 34.218 77.644 68.654 119.929 88.634l-92.997-268.146 87.593 42.09-10.557 10.558 31.411 101.594h9.328l31.411-101.593-10.558-10.558 87.591-42.092-92.995 268.147c41.998-19.845 86.649-54.142 119.929-88.633V238.853c0-66.206-31.822-115.221-80.242-143.39z"/><path fill="#333f48" d="M504.38 94.55c2.493-10.732 5.008-13.278 5.008-13.278q-14.69-13.802-29.389-27.597v268.229l19.492-62.73 103.855-49.978c-9.275-53.702-44.262-94.709-98.966-114.645m108.56 171.116-77.275 223.636 13.392-17.297s35.216-26.958 56.78-51.783v-114.27zm-265.881 0 64.311 186.116-35.751-84.247-21.457-61.583zm106.399-18.296-82.707-31.39 89.757 43.195V127.742z"/></svg>