<svg xmlns="http://www.w3.org/2000/svg" viewBox="0 0 960 640"><path fill="#fff" d="M721.78 147.026c-29.147-36.535-76.238-57.49-129.197-57.49-40.962 0-76.725 17.446-105.46 31.463-18.098 8.83-33.73 16.453-45.17 16.96-6.863.321-18.22-11.067-24.084-19.237l-3.595-5.026-4.96 3.701c-10.752 8.024-12.805 19.616-11.538 29.708-23.73-11.44-45.823-9.383-46.903-9.276-24.918 2.407-40.04 13.07-48.337 21.591-6.217 6.384-9.663 12.587-11.277 16.034-22.042 8.666-32.115 20.202-34.815 23.734-13.016 9.093-20.487 8.764-20.394 8.776l-8.13-.96 1.467 8.014c4.307 23.53 21.816 33.013 36.014 35.838-16.069 16.451-47.958 19.652-48.319 19.686l-9.767.902 5.197 8.28c16.918 26.94 54.277 26.423 59.34 26.216 4.762.445 9.973-.053 15.162-1.069-3.702 6.468-5.909 13.492-7.965 20.035-1.91 6.08-3.715 11.82-6.468 16.671l-.178.34c-1.474 3.034-5.753 5.518-9.89 7.921-2.365 1.374-4.81 2.795-6.869 4.416l-7.455 5.867 8.5 4.233c5.107 2.544 10.487 4.582 15.561 5.915.645 8.791 2.917 21.413 5.281 31.576-11.897-2.923-23.503-.512-24.163-.37l-9.567 2.06 6.13 7.59c11.94 14.79 13.213 25.661 14.69 38.25 1.012 8.646 2.06 17.585 6.575 28.09 4.584 14.911 18.054 26.328 28.592 33.302l.866.477c12.032 5.39 22.706 6.208 31.434 5.057-5.275 3.416-11.005 6.277-15.493 8.07l-8.115 3.228 5.896 6.42c8.752 9.527 28.446 15.597 39.303 16.315q1.955.127 3.914.13c20.152 0 31.964-10.643 42.457-20.096 11.753-10.592 21.906-19.742 43.027-17.59 9.836 1.002 19.556 4.993 30.812 9.616 17.621 7.235 37.593 15.435 65.426 15.435 64.597 0 111.312-35.649 139.125-65.556 30.962-33.294 54.238-77.3 59.292-112.11l1-6.879H601.055l-1.309 4.258c-.142.461-14.545 46.105-47.206 46.105-13.559 0-45.095-5.557-45.095-57.018 0-43.007 36.504-125.254 93.733-125.254 7.75 0 13.346 2.552 17.108 7.801 6.71 9.362 6.911 27.361.511 45.855l-2.759 7.978h130.74l1.09-4.654c11.506-49.178 2.241-95.818-26.088-131.329m-369.742 225.71c-9.052 4.165-17.655 5.454-28.43 2.387l-.448-.107c-6.313-1.286-10.105-4.53-14.656-9.934 2.417-1.894 4.495-4.096 6.433-6.15 1.896-2.013 3.701-3.927 5.531-5.257 1.418-.143 2.794.798 6.96 4.49 4.644 4.12 10.98 9.734 21.56 13.18a58 58 0 0 0 3.05 1.39"/><path fill="#f1be48" d="M740.998 277.355C764.713 175.52 694.905 95.74 592.19 95.74c-65.542 0-118.05 47.05-149.773 48.464-13.242.59-29.166-21.78-29.166-21.78-17.938 13.452-4.81 38.121-4.81 38.121-26.58-19.544-56.434-16.494-56.434-16.494-44.524 4.322-55.415 36.374-55.415 36.374-25.962 9.61-34.932 23.388-34.932 23.388-16.036 11.532-25.319 10.428-25.319 10.428 6.1 33.49 41.023 31.885 41.023 31.885-13.78 26.601-58.649 30.771-58.649 30.771 16.018 25.635 54.157 23.397 54.157 23.397 13.043 1.394 30.786-5.654 39.526-9.62-5.848 3.061-8.576 5.477-8.576 5.477-16.83 11.836-16.455 33.44-25.137 48.814-3.34 6.91-13.03 10.22-18.379 14.451 5.788 2.898 12.405 5.328 18.651 6.446-.158 10.72 5.036 36.715 8.502 47.092-12.503-9.295-31.885-5.105-31.885-5.105 21.48 26.733 11.38 43.238 22.156 68.11 3.632 12.304 14.86 22.88 26.146 30.384 29.25 13.17 49.448-4.139 49.448-4.139-3.358 16.195-33.806 28.367-33.806 28.367 7.133 7.804 24.631 13.687 35.097 14.383 41.322 2.715 43.453-42.256 89.267-37.573 26.568 2.72 50.912 25.045 95.247 25.045 110.916 0 182.951-112.278 191.681-172.68H605.083s-15.416 50.412-52.78 50.412c-38.692 0-50.94-33.182-50.94-63.098 0-45.479 37.766-131.4 99.388-131.4 29.053 0 33.516 31.87 23.246 61.694zM321.955 380.941c-10.152-2.067-15.234-8.268-21.62-16.344l-.798-1.367c7.516-2.45 11.89-11.037 18.46-15.18 10.34-3.196 13.552 11.443 33.267 17.676 5.633 2.812 8.986 3.292 14.808 6.12-13.613 8.57-26.275 14.17-44.117 9.095"/><path fill="#c8102e" d="M361.15 212.774c-6.936-1.128-14.993-4.476-23.048-2.466-14.31 2.017-23.488 16.105-37.343 18.785-15.454 5.813-38.258 6.707-50.34-7.157 0-.669-1.1-1.118-.892-1.787 19.682-2.24 29.972-24.383 49.21-27.966 23.04-8.494 46.527 1.787 61.283 19.02 0 .667.901.892 1.131 1.571m-42.8 250.735c23.703 13.65 41.372-12.746 65.526-3.802v.893c-18.766 6.937-27.048 27.517-44.275 36.47-8.95 4.241-21.474 4.241-30.202-.464-21.019-11.398-27.278-36.67-28.409-59.94-.885-5.59-3.342-10.5-5.145-15.87 21.258 6.922 21.482 35.781 42.505 42.713"/><path fill="#c8102e" d="M732.206 264.43c16.557-73.886-37.935-157.183-138.738-157.674-61.528-.297-112.184 48.922-152.219 48.922-10.166 0-18.739-6.209-24.738-13.83 1.801 21.968 22.19 40.34 41.692 47.75-9.859.66-18.38-3.15-27.12-5.167-26.228-7.172-44.849-32.278-74.876-29.817-21.068-.67-39.675 12.113-49.987 29.597 5.161-4.716 11.215-7.617 17.714-8.972 15.461-2.69 28.907 4.256 39 14.794 12.555 19.95 26.453 39.23 47.073 53.133-14.797 0-27.794-5.606-40.79-10.083-26.688-7.632-58.294-4.27-78.47 14.784-10.308 16.82-27.573 30.491-46.615 34.518v.685l5.594 2.456c21.978 9.421 46.181.224 64.558-11.213 12.781-4.03 28.03-1.78 36.991 8.307 6.272 10.752 17.942 21.52 28.241 29.352-2.692 1.125-5.383-1.12-8.514-1.12-17.703-8.733-44.388-20.615-62.314-4.252-16.809 12.78-8.297 37.44-26.234 49.537 12.56 1.12 19.732-8.072 26.904-17.034 17.937-13.228 29.364 10.537 43.71 16.14 15.251 7.39 35.421 4.925 46.407 20.625-11.669 2.234-23.547 4.26-33.63 10.312-15.467 9.632-38.108 11.212-54.922 3.136-8.737-4.722-14.79-11.214-20.609-19.286 0 .235 0 .68-.236.901 1.128 33.188 13.443 69.271 47.752 80.924 23.312 10.752 48.404-6.732 71.284 4.486-12.108 2.696-23.313 9.187-30.495 19.72-11.874 15.468-11.653 36.77-26.446 49.997-2.688 2.461-6.72 3.806-9.404 5.821 2.913 1.346 5.818 2.026 9.178 2.465 16.372 2.692 30.266-7.85 39.451-20.179 13.24-12.774 33.318-20.569 49.326-19.495 32.31 2.175 56.386 25.64 99.043 25.792 84.945.322 159.92-80.623 175.85-146.984H615.413s-18.242 50.77-62.367 50.77c-55.07 0-64.693-51.435-64.693-76.97 0-59.962 47.025-145.685 113.463-145.685 31.526 0 50.078 32.191 39.818 62.836z"/><path fill="#fff" d="M428.045 534.184c0-6.467 4.89-11.362 11.14-11.362 6.176 0 11.07 4.895 11.07 11.362 0 6.58-4.894 11.423-11.07 11.423-6.25 0-11.14-4.844-11.14-11.423m11.14 13.695c7.453 0 13.805-5.773 13.805-13.695 0-7.85-6.352-13.624-13.805-13.624-7.523 0-13.88 5.773-13.88 13.624 0 7.922 6.357 13.695 13.88 13.695m-2.804-12.039h2.79l4.232 6.462h2.804l-4.585-7.117c2.37-.297 4.185-1.563 4.185-4.448 0-3.174-1.893-4.59-5.693-4.59h-6.157v16.155h2.424zm0-2.424v-4.846h3.236c1.651 0 3.408.355 3.408 2.306 0 2.403-1.794 2.54-3.81 2.54z"/></svg>