<svg xmlns="http://www.w3.org/2000/svg" viewBox="0 0 960 640"><path fill="#f1be48" d="M747.887 270.395s4.798-17.958 4.798-41.322c0-83.14-64.841-146.666-158.651-146.666-67.59 0-125.021 50.172-155.899 50.172-13.176 0-29.475-22.55-29.475-22.55s-17.937 12.054-4.978 39.465c0 0-21.238-17.246-53.49-17.246-47.247 0-62.274 37.823-62.274 37.823-35.94 12.585-33.29 32.697-62.364 34.994 0 0 3.216 31.79 42.461 33.003-14.983 27.714-60.7 31.848-60.7 31.848s12.954 24.264 53.056 24.264c25.881 0 43.908-10.009 43.908-10.009-40.167 21.62-14.308 51.627-53.923 71.15 0 0 8.742 4.935 19.313 6.671 0 0 .756 24.946 8.797 48.743 0 0-11.115-9.115-33.011-5.286 0 0 14.764 16.68 15.888 37.88 1.801 33.988 20.133 69.154 55.176 69.154 19.452 0 30.121-9.378 30.121-9.378-4.743 17.717-34.991 29.36-34.991 29.36s16.024 15.002 39.876 15.002c37.212 0 42.509-39.356 82.3-39.356 30.451 0 56.759 26.282 105.126 26.282 122.339 0 192.668-128.764 198.384-178.134h-130.12s-16.879 51.578-54.763 51.578c-34.116 0-52.59-25.615-52.59-65.3 0-50.28 40.445-135.997 102.869-135.997 22.794 0 29.226 18.627 29.226 33.761 0 16.457-5.166 30.093-5.166 30.093zm-508.404-58.627c21.632-2.315 32.622-32.05 68.696-32.05 28.64 0 46.712 24.422 46.712 24.422-44.01-13.365-38.353 21.002-85.579 21.002-22.6 0-29.829-13.374-29.829-13.374m76.868 289.555c-36.525 0-44.347-50.043-44.347-63.097 0-7.247-5.465-18.999-5.465-18.999 23.407 7.547 24.466 48.297 58.514 48.297 19.148 0 32.516-15.577 53.833-7.767-32.762 17.238-31.91 41.566-62.535 41.566m286.71-308.763c-65.768 0-117.149 84.704-117.149 150.422 0 46.062 22.862 79.457 66.795 79.457 45.147 0 64.382-52.409 64.382-52.409h103.459c-8.544 49.188-81.415 151.741-181.542 151.741-45.555 0-71.29-26.624-105.351-26.624-46.033 0-51.708 41.385-82.594 41.385-9.32 0-15.459-2.975-15.459-2.975 36.518-17.12 15.042-62.753 68.507-77.985-16.566-8.949-33.005-.869-55.917-.869-43.709 0-68.492-50.49-66.744-88.237 0 0 13.682 25.262 45.938 25.262 28.526 0 34.835-16.147 66.762-19.246-6.732-10.994-24.664-15.158-39.779-18.212-18.835-3.81-28.073-23.807-42.659-23.807-15.405 0-17.026 22.913-38.372 21.65 0 0 10.433-5.045 13.881-24.9 3.431-19.774 14.935-34.653 36.253-34.653 21.442 0 42.886 16.182 50.075 13.967-31.101-21.958-27.177-40.815-53.394-40.815-25.56 0-25.786 17.522-61.527 17.522-15.157 0-24.864-7.253-24.864-7.253 50.907-11.923 36.692-54.827 101.704-54.827 32.623 0 42.896 14.337 69.563 14.337-46.436-32.904-44.095-70.728-81.843-70.728-15.118 0-25.317 9.854-25.317 9.854s14.699-30.669 53.583-30.669c39.241 0 52.556 33.843 103.329 36.23-41.886-17.158-43.047-49.302-43.047-49.302s10.002 14.287 25.54 14.287c41.354 0 92.439-50.51 157.164-50.51 83.613 0 146.257 60.482 146.257 134.523 0 17.554-3.019 28.26-3.019 28.26h-93.517s2.931-7.069 2.931-18.326c0-21.83-15.28-46.55-44.03-46.55ZM291.195 359.706c8.693-1.932 13.872-16.149 22.256-16.149 9.051 0 9.795 12.888 46.536 25.057-3.385 1.555-15.164 11.4-32.55 11.4-26.282 0-36.243-20.308-36.243-20.308z"/><path fill="#c8102e" d="M737.676 257.434s3.02-10.706 3.02-28.259c0-74.042-62.646-134.523-146.258-134.523-64.725 0-115.81 50.51-157.164 50.51-15.538 0-25.54-14.287-25.54-14.287s1.161 32.143 43.046 49.302c-50.771-2.387-64.087-36.23-103.328-36.23-38.884 0-53.582 30.67-53.582 30.67s10.198-9.855 25.316-9.855c37.748 0 35.407 37.823 81.843 70.727-26.666 0-36.939-14.336-69.563-14.336-65.011 0-50.798 42.903-101.704 54.827 0 0 9.707 7.252 24.864 7.252 35.741 0 35.967-17.52 61.527-17.52 26.216 0 22.293 18.856 53.394 40.814-7.188 2.215-28.633-13.967-50.074-13.967-21.319 0-32.823 14.88-36.254 34.651-3.448 19.857-13.88 24.901-13.88 24.901 21.345 1.264 22.966-21.65 38.372-21.65 14.585 0 23.823 19.996 42.659 23.807 15.114 3.054 33.047 7.218 39.778 18.213-31.927 3.1-38.236 19.246-66.761 19.246-32.257 0-45.939-25.262-45.939-25.262-1.748 37.746 23.035 88.237 66.743 88.237 22.914 0 39.352-8.08 55.917.868-53.464 15.232-31.988 60.865-68.505 77.986 0 0 6.138 2.975 15.458 2.975 30.887 0 36.561-41.385 82.594-41.385 34.061 0 59.796 26.623 105.351 26.623 100.127 0 172.998-102.552 181.542-151.74H617.09s-19.236 52.41-64.383 52.41c-43.933 0-66.796-33.395-66.796-79.457 0-65.719 51.383-150.422 117.15-150.422 28.75 0 44.03 24.718 44.03 46.548 0 11.258-2.933 18.326-2.933 18.326z"/><path fill="#c8102e" d="M354.892 204.14s-18.073-24.423-46.713-24.423c-36.074 0-47.064 29.737-68.696 32.051 0 0 7.229 13.373 29.829 13.373 47.226 0 41.569-34.367 85.58-21.002m23.995 255.617c-21.318-7.809-34.686 7.768-53.834 7.768-34.048 0-35.107-40.752-58.513-48.299 0 0 5.464 11.753 5.464 19 0 13.053 7.822 63.097 44.347 63.097 30.624 0 29.773-24.328 62.536-41.566M433.69 529.396c-7.789 0-14.098 6.308-14.098 14.097s6.31 14.1 14.098 14.1c7.779 0 14.089-6.314 14.089-14.1s-6.31-14.097-14.089-14.097m0 25.172c-6.121 0-11.07-4.96-11.07-11.075a11.064 11.064 0 0 1 11.07-11.072c6.107 0 11.074 4.953 11.074 11.072 0 6.114-4.967 11.075-11.073 11.075z"/><path fill="#c8102e" d="M439.015 538.571c-.629-2.007-2.597-3.292-4.7-3.292h-6.713v16.2h3.241V545h2.31l3.264 6.48h2.836l-3.201-6.858a4.82 4.82 0 0 0 2.714-2.42 4.82 4.82 0 0 0 .249-3.63m-4.807 3.188h-3.365v-3.24h3.476a1.62 1.62 0 0 1 1.222.548 1.62 1.62 0 0 1 .389 1.281c-.101.83-.885 1.411-1.722 1.411"/></svg>