<svg xmlns="http://www.w3.org/2000/svg" viewBox="0 0 960 640"><path fill="#010101" d="M661.543 476.678c-6.846 0-12.404 5.549-12.404 12.399 0 6.842 5.558 12.399 12.404 12.399s12.393-5.557 12.393-12.398c0-6.851-5.548-12.4-12.393-12.4m0 22.137a9.71 9.71 0 0 1-6.89-2.849 9.75 9.75 0 0 1-2.85-6.89 9.726 9.726 0 0 1 9.74-9.732 9.73 9.73 0 0 1 9.737 9.733 9.73 9.73 0 0 1-9.737 9.739m5.094-12.613a4.22 4.22 0 0 0-1.233-2.972 4.21 4.21 0 0 0-2.974-1.228h-5.975v14.153h2.656v-5.747h1.906l2.683 5.748h2.937l-2.801-5.994a4.21 4.21 0 0 0 2.801-3.96m-4.207 1.548h-3.319v-3.097h3.319c.854 0 1.551.695 1.551 1.55a1.55 1.55 0 0 1-1.551 1.547"/><path fill="#fff" d="M738.66 128.726c0-73.223-82.433-73.223-93.531-73.223l-19.974-.002s28.202 28.35 28.202 38.59a4.195 4.195 0 0 1-4.198 4.189h-71.825a4.196 4.196 0 0 1-4.198-4.19c0-10.238 28.202-38.59 28.202-38.59-27.373 0-66.621 6.119-93.888 25.497a232 232 0 0 0-23.175-1.16c-126.668 0-229.358 102.692-229.358 229.368 0 24.995 4.01 49.047 11.406 71.568-16.958 20.726-44.983 63.16-44.983 117.256 0 46.75 23.102 86.47 23.102 86.47s41.134-60.227 133.321-60.227c7.059 0 8.879-6.155 9.166-7.348 29.553 13.874 62.542 21.648 97.346 21.648 126.673 0 229.364-102.698 229.364-229.368 0-40.688-10.605-78.892-29.188-112.016 25.394-7.803 54.209-28.006 54.209-68.463"/><path fill="#010101" d="M729.208 128.726c0-45.471-41.731-65.354-83.727-63.782 0 0 17.338 16.72 17.338 29.138 0 6.596-4.921 13.64-18.713 13.64h-62.143c-13.972 0-22.309-4.801-22.309-12.852 0-13.194 20.747-28.6 20.747-28.6s-42.062 2.532-70.218 24.59c-8.504-.997-17.138-1.571-25.908-1.571-121.45 0-219.91 98.459-219.91 219.916 0 41.85 11.696 80.972 31.993 114.272-3.29 1.744-6.611 2.905-11.243 2.905-15.398 0-15.489-34.136-15.489-34.136s-38.837 45.283-38.837 105.782c0 37.25 15.738 69.293 15.738 69.293s43.579-52.504 131.236-52.504c0 0-41.573-16.702-41.573-36.866.005-.008.185-2.145 1.591-4.778 38.893 34.771 90.214 55.94 146.494 55.94 121.464 0 219.92-98.453 219.92-219.909 0-43.569-12.725-84.147-34.58-118.314 21.21-3.385 59.593-17.88 59.593-62.165m-441.714 180.48c0-108.684 88.106-196.787 196.781-196.787 2.554 0 5.074.097 7.599.191-4.061 8.034-6.491 17.424-6.491 28.454 0 50.553 56.035 51.044 56.035 51.044l-27.339 72.23-47.502-60.16c-16.868-21.355-34.34-25.844-46.029-25.844-23.861 0-42.353 16.897-54.958 50.215l-60.928 161.013c-10.996-24.537-17.166-51.723-17.166-80.357zm24.572 95.22c12.729-4.131 32.215-8.964 53.753-8.964 27.672 0 52.665 6.796 52.665 6.796l24.2-63.923 22.94 41.638-20.8 21.754c-12.644 13.235-44.181 4.962-79.005 4.962-24.173 0-38.867 2.731-48.796 6.171a194 194 0 0 1-4.957-8.435m368.994-95.22c0 108.678-88.097 196.778-196.785 196.778-46.147 0-88.548-15.922-122.108-42.535 32.413 1.411 50.134 22.361 95.787 22.361 67.052 0 106.331-40.64 120.731-78.693l74.955-198.083c17.401 29.346 27.42 63.58 27.42 100.171"/><path fill="#cd001a" d="M664.166 74.66s8.097 7.61 8.097 19.422-9.198 23.096-28.156 23.096h-62.144c-24.147 0-31.756-12.336-31.756-22.308s5.653-15.31 5.653-15.31-61.033 11.893-61.033 61.505c0 41.727 46.659 41.6 46.659 41.6h13.607l-38.085 100.632-57.845-73.266c-3.593-4.546-17.659-22.248-38.615-22.248-29.135 0-41.801 32.688-46.123 44.105l-61.467 162.425s22.745-8.3 52.862-8.3c25.402 0 46.778 5.135 46.778 5.135l28.488-75.28 36.151 65.62-25.59 26.77c-16.834 17.613-51.983 7.873-85.827 7.873-63.187 0-57.086 19.689-80.706 19.689-16.731 0-21.069-20.313-21.069-20.313s-23.81 39.47-23.81 82.522c0 27.952 9.813 52.539 9.813 52.539s49.241-41.914 98.845-41.914c0 0-22.146-10.626-22.146-30.702 0-5.71 7.578-24.016 31.988-24.016 37.802 0 53.548 22.434 99.219 22.434 63.911 0 99.411-39.596 111.903-72.59l83.664-221.113s66.245.125 66.245-53.941c0-49.604-55.6-54.066-55.6-54.066"/></svg>