<svg xmlns="http://www.w3.org/2000/svg" viewBox="0 0 960 640"><path fill="#fff" d="M627.517 433.045c-8.506.325-12.194-.622-14.511-1.738-2.558-1.23-6.02-3.885-12.082-12.08 40.186-33.528 66.298-83.403 68.008-139.31l72.939-113.003s-35.254-18.395-94.685-34.05a195631 195631 0 0 0 39.013-52.899s-41.952-11.105-48.07-12.108c-3.49-.565-9.453-1.173-15.868 1.427-5.313 2.147-9.029 5.708-11.629 9.183-.184.24-10.767 14.596-27.511 37.273-29.673-19.385-65.097-30.66-103.107-30.66s-73.434 11.275-103.107 30.66a62698 62698 0 0 0-27.511-37.273c-2.586-3.475-6.316-7.036-11.629-9.183-6.415-2.6-12.363-1.992-15.868-1.427-6.118 1.003-48.07 12.108-48.07 12.108s15.373 20.84 39.098 53.012c-59.276 15.626-94.77 33.937-94.77 33.937l72.939 113.003c.141 4.52.466 8.986.918 13.436-32.852 1.286-52.45 17.35-52.45 43.12s24.953 52.588 60.688 62.633a107.8 107.8 0 0 0 29.263 4.041c3.943 0 7.97-.24 11.968-.664a189.5 189.5 0 0 0 17.606 16.743c-6.061 8.181-9.523 10.851-12.081 12.08-2.317 1.116-5.991 2.05-14.511 1.738.042 0-135.097-5.962-135.097-5.962l26.268 62.62c2.062 4.874 5.454 10.709 11.727 14.863 6.543 4.323 13.41 4.959 18.2 4.959h83.268c9.524 0 19.386-.65 28.938-5.454 10.442-5.255 17.875-14.2 25.194-24.033 2.035-2.726 7.503-10.144 15.614-21.122L480 572.637l73.391-113.723c8.111 10.978 13.579 18.381 15.614 21.122 7.305 9.848 14.737 18.778 25.194 24.033 9.551 4.804 19.414 5.454 28.938 5.454h83.268c4.79 0 11.657-.636 18.199-4.959 6.274-4.154 9.665-9.989 11.728-14.863l26.268-62.619s-135.14 5.962-135.097 5.962z"/><path fill="#010101" d="M627.757 439.598c-8.987.339-13.904-.593-17.606-2.373-3.999-1.922-8.238-5.61-14.526-14.101-.65-.876-2.091-2.826-4.225-5.708 41.811-32.567 69.068-83.007 70.17-139.734l69.647-107.902s-36.555-17.505-95.788-32.044l39.748-53.888s-32.414-8.576-38.109-9.508c-3.052-.495-7.587-.89-12.349 1.03-3.914 1.583-6.754 4.24-8.817 7.023-.198.268-12.576 17.025-31.736 42.994-29.504-20.727-65.436-32.92-104.153-32.92s-74.648 12.193-104.152 32.92c-19.16-25.969-31.538-42.726-31.736-42.994-2.077-2.783-4.903-5.44-8.817-7.022-4.762-1.922-9.297-1.526-12.349-1.031-5.709.932-38.109 9.508-38.109 9.508l39.748 53.888c-59.233 14.539-95.788 32.044-95.788 32.044l69.647 107.902c.156 7.672.806 15.23 1.879 22.649-1.37-.057-53.778-3.547-53.778 36.14 0 25.15 25.363 47.432 55.601 55.923 13.763 3.87 28.02 4.776 42.588 2.67 7.277 8.124 15.246 15.627 23.866 22.352a1071 1071 0 0 0-4.211 5.708c-6.288 8.492-10.527 12.193-14.526 14.1-3.702 1.78-8.619 2.713-17.606 2.374l-124.796-5.51 22.269 53.068c1.809 4.239 4.522 8.774 9.297 11.925 4.974 3.292 10.33 3.87 14.569 3.87h83.268c9.297 0 17.86-.678 25.985-4.76 8.93-4.493 15.585-12.278 22.862-22.084 2.529-3.406 10.315-13.932 21.774-29.459l72.515 112.338 72.516-112.337a25585 25585 0 0 0 21.774 29.458c7.291 9.82 13.932 17.59 22.862 22.083 8.125 4.083 16.688 4.761 25.985 4.761h83.268c4.254 0 9.595-.579 14.569-3.87 4.775-3.165 7.503-7.686 9.297-11.925l22.269-53.068z"/><path fill="#89734c" d="M622.006 160.967c24.035 5.608 47.138 12.743 69.237 21.361l-33.883 52.49c-6.076-27.453-18.384-52.589-35.354-73.852M480.014 455.694a182 182 0 0 1-37.261-3.844l37.261 57.73 37.261-57.73a182 182 0 0 1-37.261 3.843M338.022 160.967c-24.036 5.608-47.138 12.743-69.237 21.361l33.883 52.49c6.076-27.453 18.383-52.589 35.354-73.852"/><path fill="#fff" d="M627.065 149.068c28.613 6.81 56.393 15.837 83.141 27.282l-49.738 77.059a183 183 0 0 0-3.108-18.607l33.883-52.49c-22.085-8.618-45.187-15.739-69.237-21.363a160 160 0 0 0-1.935-2.387c2.387-3.236 4.733-6.415 7.008-9.495zm-109.79 302.78-37.261 57.73-37.261-57.73a178 178 0 0 1-18.228-4.832l55.489 85.974 55.489-85.974a182 182 0 0 1-18.242 4.832zM302.668 234.803l-33.883-52.49c22.085-8.618 45.187-15.739 69.237-21.363a154 154 0 0 1 1.935-2.387c-2.388-3.236-4.733-6.415-7.008-9.495-28.613 6.81-56.393 15.838-83.141 27.283l49.738 77.059a183 183 0 0 1 3.108-18.607z"/><path fill="#cf4520" d="M567.732 169.004c33.277-45.085 57.594-78.048 58.343-79.037 2.402-3.236 4.974-3.758 8.945-3.108 4.719.762 13.169 2.868 18.92 4.408 0 0-32.556 44.139-75.455 102.279-3.264-8.62-6.867-16.828-10.753-24.542M396.265 174.4c-35.297-47.827-61.55-83.389-62.313-84.42-2.402-3.236-4.974-3.758-8.945-3.108-4.719.763-13.169 2.868-18.92 4.408 0 0 35.368 47.938 80.923 109.695 2.275-9.113 5.412-18.042 9.255-26.576m231.972 277.871c-20.446.777-29.772-4.013-42.8-21.617-2.388-3.222-8.817-11.925-18.143-24.556-5.553 5.227-11.855 9.833-18.75 13.79 19.061 25.827 32.4 43.884 35.933 48.645 13.72 18.481 19.767 21.716 38.673 21.716h83.268c6.274 0 9.538-1.794 12.209-8.068 2.67-6.287 14.497-34.544 14.497-34.544s-80.244 3.701-104.873 4.634zm-236.352-45.029-17.31 23.426c-13.027 17.59-22.353 22.38-42.799 21.617-24.629-.933-104.873-4.634-104.873-4.634s11.827 28.271 14.497 34.545c2.671 6.287 5.935 8.067 12.208 8.067h83.269c18.891 0 24.939-3.235 38.673-21.716 3.575-4.818 17.182-23.228 36.597-49.535-6.514-3.362-13.24-7.276-20.262-11.77"/><path fill="#fff" d="m329.02 98.444-22.933-7.164c5.751-1.54 14.201-3.645 18.92-4.408 3.971-.65 6.543-.127 8.945 3.109.777 1.03 27.016 36.594 62.313 84.42a164 164 0 0 0-4.027 9.79zm243.135 79.828c34.011-46.131 58.852-79.828 58.852-79.828l22.933-7.164c-5.75-1.54-14.2-3.645-18.92-4.408-3.97-.65-6.543-.127-8.945 3.109-.735 1.003-25.066 33.952-58.343 79.037a225 225 0 0 1 4.423 9.268zm-180.27 228.972-17.31 23.424c-13.027 17.591-22.353 22.38-42.799 21.617-24.601-.932-104.76-4.62-104.873-4.634l24.219 10.64s65.195 2.459 84.299 2.897c20.008.452 31.906-5.652 46.106-24.57 1.752-2.332 8.281-11.162 18.172-24.542a283 283 0 0 1-7.814-4.832m236.352 45.027c-20.446.777-29.772-4.012-42.8-21.617-2.388-3.22-8.817-11.925-18.143-24.556a97 97 0 0 1-6.98 5.95c9.891 13.394 16.433 22.224 18.186 24.555 14.186 18.919 26.083 25.023 46.106 24.57 19.103-.438 84.299-2.896 84.299-2.896l24.22-10.64c-.114 0-80.259 3.702-104.874 4.634z"/><path fill="#cf4520" d="M674.753 467.12c-.593 8.04-1.031 15.005-1.102 23.143h-7.079c.763-4.577 3.109-18.07 5.03-24.696.65-2.22 1.074-3.35 2.346-3.11 1.342.242.989 2.036.791 4.664zm-20.304 16.474c1.031.085 1.384-1.003 1.695-3.009 2.148-13.86 4.027-20.5 4.027-20.5l-.07-.03c-1.851.071-3.688.128-5.511.184-.608 3.844-1.597 11.474-1.314 19.245.099 2.57.48 4.04 1.158 4.11zm32.371-3.716c-.056 1.795.226 2.29.876 2.388.735.113 1.201-.452 1.625-2.162 2.812-11.416 5.44-19.328 6.133-21.32-1.894.071-3.928.141-6.076.226-.876 4.648-2.346 13.352-2.558 20.868m-386.964-19.793s1.865 6.64 4.027 20.5c.311 1.992.664 3.094 1.696 3.01.678-.057 1.074-1.54 1.159-4.112.282-7.757-.707-15.4-1.315-19.244-1.822-.055-3.659-.126-5.51-.183l-.071.029zm-27.525 22.182c.65-.1.933-.593.876-2.388-.212-7.516-1.667-16.22-2.557-20.868-2.148-.085-4.197-.155-6.076-.226.692 1.992 3.32 9.904 6.132 21.32.424 1.71.89 2.275 1.625 2.162m16.08-16.7c-.65-2.22-1.074-3.35-2.346-3.11-1.342.242-.989 2.036-.791 4.664.594 8.039 1.032 15.005 1.102 23.143h7.079c-.763-4.578-3.108-18.071-5.03-24.697z"/><path fill="#fff" d="M316.868 460.637c1.004 5.666 2.939 16.969 4.663 29.643h-28.09c-.763-4.578-3.109-18.071-5.03-24.697-.65-2.22-1.074-3.35-2.346-3.11-1.342.24-.989 2.035-.791 4.663.593 8.04 1.031 15.005 1.102 23.143h-25.844c-4.182-15.627-7.489-26.18-9.425-32.002h.043s5.355.226 13.437.523c.693 2.02 3.335 9.932 6.133 21.32.424 1.71.89 2.275 1.625 2.162.65-.099.932-.594.876-2.388-.212-7.516-1.668-16.22-2.558-20.868 8.62.311 19.09.692 29.278 1.045l-.071.03s1.865 6.64 4.027 20.5c.311 1.992.664 3.094 1.696 3.01.678-.057 1.074-1.54 1.158-4.112.283-7.757-.706-15.4-1.3-19.244 3.957.141 7.814.268 11.432.381zm392.023-2.36s-5.355.198-13.438.494c-.692 2.021-3.334 9.933-6.132 21.321-.424 1.71-.89 2.276-1.625 2.163-.65-.1-.933-.594-.876-2.388.212-7.517 1.667-16.22 2.558-20.868-8.62.31-19.09.692-29.278 1.045l.071.028s-1.865 6.64-4.027 20.5c-.311 1.993-.664 3.095-1.696 3.01-.678-.056-1.074-1.54-1.158-4.111-.283-7.756.706-15.4 1.299-19.243-3.956.14-7.813.268-11.431.38-1.003 5.666-2.939 16.97-4.663 29.642h28.091c.763-4.577 3.108-18.07 5.03-24.697.65-2.218 1.074-3.348 2.346-3.108 1.342.24.989 2.035.79 4.663-.592 8.04-1.031 15.004-1.101 23.142h25.844c4.182-15.626 7.489-26.18 9.424-32h-.042zM485.044 112.576c-42.475 0-89.725 64.456-89.725 120.265 0 23.143 8.138 34.36 21.845 31.027-2.162-8.04-.212-17.11 5.863-23.087-2.981 14.2 5.667 25.249 19.698 24.57 23.908-1.158 44.481-37.045 82.406-37.045 10.936 0 20.898 4.647 25.321 12.262-.028 0-5.257-2.74-17.338-2.74-4.267 0-8.308.536-12.194 1.441 5.977 42.287-39.875 60.457-65.817 39.136-4.423 1.753-8.987 2.785-13.763 2.785-7.531 0-13.367-2.445-17.507-6.217-12.265 16.729-31.015 34.856-54.867 47.558 20.87 11.81 38.49 27.678 48.918 44.746-56.788-37.498-92.339-51.853-121.673-51.853-21.902 0-34.181 7.997-34.181 21.137 0 10.398 7.687 21.292 19.429 29.698 18.044 12.08 45.075 18.183 66.708 11.514-27.342-21.786-44.27-32.58-60.816-38.995 62.398-.806 107.628 84.405 193.878 84.405 34.943 0 68.05-13.987 85.373-36.282 13.593-17.492 19.754-42.768 19.754-77.568 0-100.116-49.314-196.771-101.312-196.771zM427.21 215.505c-.551 5.948-4.055 10.498-7.814 10.144s-6.358-5.453-5.807-11.416c.551-5.948 4.055-10.483 7.814-10.144 3.758.353 6.358 5.453 5.807 11.416m11.954-37.273c-2.755 5.298-7.814 8.138-11.304 6.33-3.49-1.809-4.084-7.573-1.328-12.886 2.755-5.297 7.814-8.137 11.304-6.328 3.49 1.807 4.083 7.572 1.328 12.884m16.574 45.763c-2.402 5.482-7.206 8.661-10.753 7.107s-4.465-7.248-2.077-12.716c2.402-5.482 7.207-8.66 10.753-7.107 3.547 1.554 4.465 7.248 2.077 12.716m-4.465-73.922c-2.67-2.896-1.286-8.519 3.109-12.589 4.394-4.055 10.117-5 12.788-2.119 2.67 2.897 1.285 8.52-3.109 12.59-4.394 4.054-10.117 5.001-12.788 2.118m27.935 41.653c-4.281 4.168-9.975 5.27-12.717 2.458-2.741-2.811-1.497-8.477 2.798-12.645 4.281-4.168 9.976-5.27 12.717-2.458 2.741 2.81 1.484 8.477-2.798 12.645m33.361-21.618c-5.44 2.472-11.177 1.568-12.816-2.035-1.639-3.602 1.442-8.519 6.882-10.992 5.44-2.471 11.177-1.567 12.816 2.036s-1.442 8.519-6.882 10.992m-88.665 156.01c-3.83 1.004-8.154-2.882-9.665-8.66-1.512-5.779.367-11.275 4.182-12.279 3.829-1.003 8.153 2.883 9.665 8.661 1.512 5.78-.367 11.275-4.182 12.278m17.591 33.98c-3.32 2.091-8.605-.325-11.784-5.383s-3.066-10.85.268-12.941c3.321-2.091 8.606.325 11.785 5.383s3.066 10.85-.269 12.942m.975-56.035c-2.783-5.284-2.218-11.063 1.272-12.913s8.591.946 11.389 6.23c2.783 5.285 2.218 11.063-1.272 12.914s-8.591-.946-11.389-6.23m27.822 84.308c-2.458 2.98-8.195 2.317-12.801-1.498-4.607-3.8-6.345-9.311-3.886-12.292s8.195-2.317 12.802 1.498c4.606 3.8 6.344 9.31 3.885 12.292m6.528-51.923c-2.755 2.797-8.449 1.653-12.703-2.558-4.253-4.196-5.454-9.876-2.698-12.673s8.449-1.653 12.703 2.557c4.253 4.196 5.454 9.876 2.698 12.674m30.903 19.992c-1.823 3.673-7.645 4.507-13 1.85s-8.209-7.785-6.387-11.473c1.823-3.673 7.645-4.507 13-1.85s8.209 7.785 6.387 11.473m6.641-42.317c-5.483 2.374-11.248 1.243-12.887-2.515-1.625-3.758 1.498-8.746 6.98-11.119s11.248-1.243 12.887 2.516c1.625 3.758-1.498 8.745-6.98 11.119m30.153 54.778c-.975 3.985-6.47 6.062-12.279 4.635-5.807-1.427-9.721-5.807-8.732-9.806.975-3.984 6.486-6.061 12.279-4.634 5.807 1.427 9.721 5.807 8.732 9.805m8.365-66.915c-5.878 1.06-11.247-1.398-11.982-5.482-.735-4.083 3.433-8.265 9.312-9.325s11.247 1.385 11.982 5.482c.735 4.084-3.434 8.266-9.312 9.325m-176.441.68c-4.027-16.404-.424-28.837 12.463-37.88 3.871 7.22 9.509 11.402 16.574 12.165-7.927 9.48-17.564 17.972-29.037 25.715"/><path fill="#010101" d="M484.38 99.677c-48.014 0-101.553 68.017-101.553 134.14 0 6.866.58 12.998 1.696 18.339-20.192 12.687-27.44 33.612-20.672 58.295a248 248 0 0 1-9.086 4.903c-16.673-5.581-26.974-7.813-41.429-9.678-18.454-2.035-37.995-.142-50.048 8.463-3.731 2.67-6.557 5.877-8.464 9.579-1.894 3.688-2.925 7.94-2.925 12.787 0 5.524 1.272 10.68 3.532 15.47 3.095 6.542 8.083 12.448 14.399 17.634 8.902 7.714 20.601 13.973 33.756 17.675 16.137 4.535 39.056 3.857 56.973-1.54 1.328.819 2.769 1.709 4.366 2.67 46.671 35.124 78.365 48.193 116.318 48.193 41.231 0 77.404-15.767 97.031-42.91 13.791-19.073 21.732-46.511 21.251-85.294-1.356-108.75-53.086-208.684-115.145-208.684zm-95.477 165.11c3.872 7.22 9.51 11.402 16.575 12.165-7.927 9.48-17.564 17.972-29.037 25.714-4.027-16.403-.424-28.837 12.462-37.88m177.699 122.115c-17.309 22.296-50.416 36.283-85.373 36.283-86.25 0-131.48-85.225-193.878-84.405 16.546 6.414 33.474 17.208 60.816 38.995-21.619 6.669-48.664.565-66.708-11.515-11.728-8.407-19.429-19.3-19.429-29.7 0-13.139 12.279-21.136 34.181-21.136 19.061 0 40.75 6.061 69.166 20.585 15.331 7.828 32.612 18.113 52.507 31.253-10.428-17.053-28.048-32.92-48.918-44.746 23.851-12.687 42.602-30.829 54.867-47.543 4.14 3.772 9.961 6.216 17.507 6.216 4.776 0 9.34-1.045 13.762-2.783 25.943 21.32 71.795 3.165 65.818-39.137 3.886-.904 7.927-1.44 12.194-1.44 12.095 0 17.324 2.74 17.338 2.74-4.423-7.615-14.385-12.264-25.321-12.264-37.925 0-58.499 35.887-82.406 37.046-14.032.678-22.665-10.37-19.698-24.57-6.076 5.977-8.026 15.047-5.864 23.087-13.706 3.334-21.845-7.884-21.845-31.027 0-55.809 47.265-120.265 89.726-120.265 51.998 0 101.312 96.655 101.312 196.772 0 34.785-6.161 60.062-19.754 77.567z"/><path fill="#cf4520" d="M487.107 272.39c-6.797 2.826-13.72 2.133-18.722-1.23 10.795-7.263 21.463-16.997 33.601-24.062 1.936 9.891-4.437 20.953-14.879 25.291"/><path fill="#010101" d="M427.21 215.505c-.551 5.949-4.055 10.484-7.814 10.145-3.758-.353-6.358-5.454-5.807-11.416.551-5.948 4.055-10.484 7.814-10.145 3.758.354 6.358 5.454 5.807 11.416m10.626-50.143c-3.49-1.808-8.549 1.017-11.304 6.33-2.756 5.298-2.162 11.077 1.328 12.885 3.49 1.809 8.549-1.017 11.304-6.33 2.755-5.299 2.162-11.077-1.328-12.886m29.32-29.981c-2.671-2.897-8.394-1.95-12.788 2.119-4.38 4.055-5.779 9.693-3.109 12.589s8.394 1.95 12.788-2.12c4.394-4.054 5.779-9.692 3.109-12.588m-13.495 75.9c-3.546-1.555-8.35 1.638-10.752 7.106-2.403 5.482-1.47 11.176 2.077 12.716 3.546 1.554 8.35-1.639 10.753-7.107 2.402-5.482 1.469-11.176-2.078-12.716m28.345-32.2c-2.741-2.811-8.435-1.71-12.717 2.459-4.281 4.168-5.539 9.833-2.798 12.645 2.742 2.812 8.436 1.71 12.717-2.458s5.539-9.834 2.798-12.646m37.459-19.978c-1.639-3.604-7.376-4.508-12.816-2.035s-8.52 7.403-6.881 10.992c1.639 3.603 7.375 4.507 12.816 2.034 5.44-2.472 8.52-7.403 6.881-10.992m-65.86 215.493c-2.459 2.98-.721 8.477 3.886 12.292 4.606 3.8 10.343 4.479 12.801 1.498 2.459-2.982.721-8.479-3.885-12.293-4.607-3.8-10.343-4.479-12.802-1.498m-23.625-32.822c-3.321 2.091-3.448 7.884-.269 12.942s8.45 7.474 11.785 5.383c3.32-2.09 3.447-7.884.268-12.942s-8.45-7.474-11.784-5.383m-11.559-36.594c-3.829 1.003-5.694 6.5-4.182 12.278 1.512 5.78 5.835 9.664 9.665 8.661s5.694-6.499 4.182-12.278-5.836-9.664-9.665-8.66m69.915 41.638c-1.822 3.673 1.032 8.816 6.387 11.472 5.355 2.657 11.177 1.823 13-1.85s-1.032-8.817-6.387-11.473-11.177-1.823-13 1.851m35.156 16.927c-.975 3.984 2.939 8.378 8.732 9.805 5.794 1.427 11.304-.65 12.279-4.634s-2.939-8.378-8.732-9.805c-5.808-1.427-11.304.65-12.279 4.634m-62.059-42.514c-2.755 2.798-1.554 8.464 2.699 12.674 4.253 4.196 9.933 5.34 12.703 2.557 2.769-2.797 1.554-8.463-2.699-12.673-4.253-4.197-9.934-5.341-12.703-2.558m-17.691-30.08c-3.49 1.85-4.069 7.63-1.272 12.914 2.784 5.284 7.885 8.067 11.389 6.23 3.49-1.85 4.07-7.63 1.272-12.914-2.784-5.283-7.885-8.067-11.389-6.23m77.602 11.868c-1.625-3.758-7.404-4.888-12.886-2.515-5.483 2.374-8.606 7.347-6.981 11.12 1.625 3.758 7.404 4.888 12.887 2.515 5.482-2.374 8.605-7.347 6.98-11.12m40.85-10.356c-.735-4.083-6.104-6.542-11.982-5.482s-10.047 5.228-9.312 9.325c.735 4.083 6.104 6.542 11.982 5.482s10.047-5.228 9.312-9.325"/><path fill="#89734c" d="M281.473 366.258c18.044 12.08 45.075 18.184 66.694 11.515-27.342-21.788-44.27-32.582-60.816-38.997-12.081.27-20.389 6.895-15.628 18.92 2.77 3.037 6.062 5.92 9.736 8.561zm199.77 56.925c34.944 0 68.05-13.988 85.374-36.283 13.593-17.491 19.753-42.768 19.753-77.567 0-52.63-13.621-104.3-34.11-141.473a766 766 0 0 0 4.819 10.766c22.961 50.44 36.95 155.234-.382 201.124-30.026 36.89-111.966 50.058-186.77-2.953 31.354 22.394 65.563 46.385 111.316 46.385M516.78 218.23c-33.898.89-57.354 33.782-75.892 35.76-9.213.974-15.911-4.31-17.861-13.21-2.981 14.198 5.667 25.247 19.698 24.57 23.908-1.16 44.481-37.047 82.406-37.047 10.936 0 20.898 4.65 25.321 12.264-3.702-11.416-15.43-22.832-33.672-22.352zm-99.616 45.636c-13.24 3.222-21.28-7.121-21.817-28.667 1.95 17.406 13.72 19.95 21.449 17.28a24.8 24.8 0 0 0 .368 11.386"/><path fill="#fff" d="M513.333 543.914c-5.398 0-9.764 4.38-9.764 9.777s4.366 9.763 9.764 9.763 9.749-4.366 9.749-9.763-4.352-9.777-9.749-9.777m0 17.434c-4.254 0-7.673-3.434-7.673-7.672s3.419-7.686 7.673-7.686 7.658 3.433 7.658 7.686-3.434 7.672-7.658 7.672"/><path fill="#fff" d="M517.346 551.416c0-1.824-1.484-3.322-3.307-3.322h-4.705v11.162h2.091v-4.52h1.498l2.119 4.52h2.304l-2.205-4.719a3.31 3.31 0 0 0 2.205-3.122m-3.307 1.214h-2.614v-2.43h2.614c.678 0 1.215.537 1.215 1.215s-.537 1.216-1.215 1.216"/></svg>