<svg xmlns="http://www.w3.org/2000/svg" viewBox="0 0 960 640"><path fill="#010101" d="M633.197 447.695c-9.318.352-14.417-.615-18.256-2.461-4.146-1.993-8.542-5.817-15.062-14.623-.674-.908-2.168-2.93-4.381-5.919 43.354-33.772 71.617-86.078 72.76-144.905l72.218-111.895s-37.904-18.154-99.323-33.23l41.215-55.882s-33.611-8.893-39.516-9.86c-3.164-.513-7.868-.923-12.805 1.07-4.059 1.64-7.004 4.395-9.143 7.281-.205.279-13.04 17.656-32.907 44.585C557.404 100.362 520.145 87.718 480 87.718s-77.405 12.644-107.997 34.138c-19.868-26.93-32.702-44.306-32.908-44.585-2.153-2.886-5.084-5.64-9.142-7.282-4.938-1.992-9.641-1.582-12.806-1.07-5.919.968-39.515 9.861-39.515 9.861l41.215 55.882c-61.42 15.076-99.323 33.23-99.323 33.23l72.217 111.895c.162 7.956.836 15.794 1.949 23.487-1.421-.059-55.764-3.678-55.764 37.479 0 26.08 26.3 49.185 57.654 57.991 14.271 4.015 29.054 4.952 44.16 2.769 7.546 8.425 15.809 16.205 24.747 23.179a1181 1181 0 0 0-4.367 5.919c-6.519 8.806-10.915 12.645-15.061 14.623-3.839 1.846-8.938 2.813-18.256 2.461L197.4 441.981l23.091 55.032c1.875 4.395 4.688 9.099 9.641 12.366 5.157 3.414 10.71 4.015 15.105 4.015h86.342c9.641 0 18.52-.704 26.944-4.938 9.26-4.659 16.161-12.732 23.707-22.901a17913 17913 0 0 0 22.578-30.548L480 571.502l75.192-116.495a25622 25622 0 0 0 22.578 30.548c7.56 10.183 14.446 18.242 23.706 22.901 8.425 4.234 17.304 4.938 26.945 4.938h86.341c4.41 0 9.949-.601 15.106-4.015 4.952-3.282 7.78-7.971 9.641-12.366l23.091-55.032z"/><path fill="#89734c" d="M627.232 158.728c24.922 5.817 48.877 13.216 71.792 22.154l-35.134 54.431c-6.3-28.468-19.062-54.534-36.658-76.585M479.998 464.363c-13.23 0-26.153-1.378-38.636-3.986l38.636 59.867 38.636-59.867a188.6 188.6 0 0 1-38.636 3.986M332.764 158.728c-24.922 5.817-48.877 13.216-71.792 22.154l35.134 54.431c6.3-28.468 19.062-54.534 36.658-76.585"/><path fill="#fff" d="M632.476 146.426c29.67 7.062 58.475 16.424 86.21 28.292l-51.573 79.911a190 190 0 0 0-3.224-19.297l35.135-54.431c-22.901-8.937-46.856-16.322-71.793-22.153a161 161 0 0 0-2.007-2.476c2.476-3.356 4.908-6.652 7.267-9.846zM518.633 460.397l-38.636 59.867-38.636-59.867a185 185 0 0 1-18.901-5.011l57.537 89.156 57.537-89.156a189 189 0 0 1-18.915 5.011zM296.105 235.332l-35.135-54.431c22.901-8.937 46.856-16.322 71.793-22.153.66-.835 1.334-1.656 2.008-2.476-2.477-3.356-4.909-6.652-7.268-9.846-29.669 7.062-58.474 16.424-86.21 28.292l51.574 79.911a190 190 0 0 1 3.223-19.297z"/><path fill="#cf4520" d="M570.958 167.104c34.505-46.754 59.72-80.936 60.497-81.962 2.49-3.355 5.157-3.897 9.274-3.223 4.894.791 13.655 2.974 19.618 4.571 0 0-33.757 45.772-78.239 106.064-3.385-8.938-7.121-17.45-11.15-25.45m-177.797 5.582c-36.6-49.596-63.822-86.474-64.614-87.544-2.49-3.355-5.157-3.897-9.274-3.223-4.894.791-13.655 2.974-19.619 4.571 0 0 36.673 49.714 83.91 113.756 2.359-9.45 5.612-18.71 9.597-27.56m240.535 288.17c-21.201.806-30.871-4.161-44.379-22.417-2.477-3.341-9.143-12.366-18.813-25.465-5.758 5.421-12.293 10.198-19.443 14.3 19.765 26.783 33.596 45.508 37.259 50.446 14.227 19.164 20.498 22.519 40.102 22.519h86.341c6.506 0 9.89-1.86 12.659-8.366 2.77-6.52 15.033-35.823 15.033-35.823s-83.206 3.839-108.744 4.806zm-245.062-46.71-17.949 24.293c-13.508 18.241-23.178 23.208-44.379 22.417-25.538-.967-108.745-4.806-108.745-4.806s12.264 29.318 15.033 35.823c2.769 6.52 6.154 8.366 12.659 8.366h86.342c19.589 0 25.86-3.355 40.101-22.519 3.707-4.996 17.817-24.088 37.948-51.369-6.754-3.487-13.729-7.546-21.01-12.205"/><path fill="#fff" d="m323.434 93.919-23.78-7.429c5.964-1.597 14.725-3.78 19.619-4.571 4.117-.674 6.784-.132 9.274 3.223.806 1.07 28.014 37.948 64.614 87.544a170 170 0 0 0-4.176 10.154zm252.11 82.782c35.266-47.838 61.024-82.782 61.024-82.782l23.779-7.429c-5.963-1.597-14.724-3.78-19.618-4.571-4.117-.674-6.784-.132-9.274 3.223-.762 1.04-25.992 35.208-60.497 81.962a235 235 0 0 1 4.586 9.611zm-186.91 237.445-17.949 24.293c-13.508 18.241-23.178 23.208-44.379 22.417-25.509-.967-108.627-4.791-108.745-4.806l25.113 11.033s67.603 2.549 87.412 3.003c20.746.469 33.083-5.86 47.808-25.479 1.817-2.417 8.586-11.575 18.842-25.45a291 291 0 0 1-8.102-5.011m245.062 46.71c-21.201.806-30.871-4.161-44.379-22.417-2.477-3.341-9.143-12.366-18.813-25.465a101 101 0 0 1-7.238 6.168c10.256 13.89 17.04 23.048 18.857 25.465 14.71 19.619 27.046 25.948 47.808 25.479 19.809-.454 87.411-3.003 87.411-3.003l25.113-11.033c-.117 0-83.221 3.839-108.744 4.806z"/><path fill="#cf4520" d="M681.944 476.23c-.616 8.337-1.07 15.56-1.143 24h-7.34c.791-4.747 3.223-18.74 5.215-25.611.674-2.301 1.114-3.473 2.432-3.224 1.392.249 1.026 2.11.821 4.835zm-21.069 17.084c1.069.088 1.435-1.04 1.758-3.121 2.227-14.373 4.176-21.259 4.176-21.259l-.074-.029c-1.919.073-3.824.131-5.714.19-.63 3.985-1.655 11.897-1.362 19.956.102 2.666.498 4.19 1.201 4.263zm33.566-3.853c-.058 1.861.235 2.373.909 2.476.762.117 1.245-.469 1.685-2.242 2.915-11.838 5.641-20.043 6.359-22.109-1.964.073-4.074.146-6.301.234-.908 4.821-2.432 13.846-2.652 21.641m-401.233-20.513s1.934 6.887 4.175 21.26c.323 2.066.689 3.209 1.758 3.121.704-.059 1.114-1.597 1.202-4.264.293-8.044-.733-15.97-1.363-19.955-1.89-.059-3.795-.132-5.714-.191l-.073.029zm-28.556 22.989c.674-.103.967-.615.908-2.476-.22-7.795-1.729-16.82-2.652-21.641-2.227-.088-4.351-.161-6.3-.234.718 2.066 3.443 10.271 6.359 22.109.439 1.773.923 2.359 1.685 2.242m16.673-17.318c-.674-2.301-1.113-3.473-2.432-3.224-1.392.249-1.026 2.11-.821 4.835.616 8.337 1.07 15.56 1.143 24h7.341c-.791-4.747-3.224-18.74-5.216-25.611z"/><path fill="#fff" d="M310.835 469.483c1.04 5.875 3.047 17.597 4.835 30.739h-29.127c-.792-4.747-3.224-18.739-5.216-25.611-.674-2.3-1.114-3.472-2.433-3.223-1.391.249-1.025 2.109-.82 4.835.615 8.337 1.07 15.56 1.143 23.999h-26.798c-4.337-16.205-7.765-27.149-9.773-33.186h.044s5.553.235 13.934.542c.718 2.095 3.458 10.3 6.359 22.11.439 1.772.923 2.359 1.685 2.241.674-.102.967-.615.908-2.476-.22-7.795-1.729-16.82-2.652-21.64 8.938.322 19.794.718 30.358 1.084l-.073.029s1.934 6.886 4.176 21.26c.322 2.066.688 3.208 1.758 3.121.703-.059 1.113-1.597 1.201-4.264.293-8.044-.732-15.97-1.348-19.956 4.103.147 8.103.279 11.854.396zm406.493-2.432-13.933.513c-.718 2.095-3.458 10.3-6.359 22.109-.44 1.773-.923 2.359-1.685 2.242-.674-.103-.967-.616-.909-2.477.22-7.794 1.729-16.82 2.652-21.64-8.937.322-19.794.718-30.358 1.084l.074.029s-1.934 6.887-4.176 21.26c-.322 2.066-.689 3.209-1.758 3.121-.704-.059-1.114-1.597-1.202-4.264-.293-8.044.733-15.97 1.348-19.955-4.102.146-8.102.278-11.853.395-1.04 5.876-3.047 17.597-4.835 30.739h29.127c.792-4.747 3.224-18.739 5.216-25.611.674-2.3 1.114-3.472 2.432-3.223 1.392.249 1.026 2.11.821 4.835-.615 8.337-1.07 15.56-1.143 23.999h26.798c4.337-16.204 7.765-27.149 9.772-33.186h-.043zM485.22 108.542c-44.043 0-93.038 66.841-93.038 124.715 0 24 8.439 35.633 22.652 32.175-2.242-8.336-.22-17.743 6.08-23.941-3.092 14.725 5.875 26.183 20.424 25.48 24.791-1.202 46.124-38.417 85.448-38.417 11.341 0 21.67 4.82 26.256 12.718-.029 0-5.45-2.843-17.977-2.843-4.425 0-8.616.557-12.645 1.495 6.198 43.852-41.347 62.694-68.247 40.585-4.586 1.817-9.318 2.886-14.271 2.886-7.809 0-13.86-2.534-18.153-6.446-12.718 17.347-32.16 36.145-56.892 49.317 21.64 12.249 39.911 28.703 50.724 46.402-58.885-38.885-95.748-53.772-126.165-53.772-22.71 0-35.442 8.293-35.442 21.919 0 10.784 7.97 22.08 20.146 30.798 18.71 12.527 46.738 18.857 69.17 11.941-28.351-22.593-45.904-33.786-63.061-40.438 64.702-.835 111.602 87.529 201.035 87.529 36.233 0 70.562-14.505 88.525-37.626 14.095-18.138 20.483-44.35 20.483-80.437 0-103.822-51.134-204.055-105.052-204.055zM425.251 215.28c-.572 6.168-4.205 10.886-8.103 10.519s-6.593-5.655-6.021-11.838c.571-6.168 4.205-10.872 8.102-10.52 3.897.366 6.593 5.656 6.022 11.839m12.395-38.637c-2.857 5.494-8.102 8.439-11.721 6.564s-4.235-7.853-1.377-13.362c2.857-5.495 8.102-8.44 11.721-6.564s4.234 7.853 1.377 13.362m17.186 47.442c-2.49 5.685-7.472 8.982-11.149 7.37-3.678-1.612-4.63-7.516-2.154-13.186 2.491-5.685 7.472-8.982 11.15-7.37s4.63 7.516 2.153 13.186m-4.63-76.643c-2.769-3.003-1.333-8.835 3.224-13.054 4.557-4.205 10.49-5.187 13.26-2.198 2.769 3.003 1.333 8.835-3.224 13.054-4.556 4.205-10.49 5.187-13.26 2.198m28.967 43.193c-4.44 4.323-10.344 5.466-13.187 2.55s-1.553-8.791 2.901-13.113c4.44-4.323 10.344-5.466 13.187-2.55s1.538 8.791-2.901 13.113m34.592-22.431c-5.641 2.564-11.589 1.626-13.289-2.11s1.495-8.835 7.135-11.399c5.641-2.564 11.59-1.627 13.289 2.11 1.7 3.736-1.494 8.835-7.135 11.399m-91.939 161.784c-3.97 1.04-8.454-2.989-10.021-8.982s.381-11.692 4.336-12.732c3.971-1.04 8.454 2.989 10.022 8.981 1.568 5.993-.381 11.692-4.337 12.733m18.256 35.237c-3.443 2.169-8.923-.337-12.219-5.582-3.297-5.246-3.18-11.253.278-13.421 3.443-2.169 8.923.337 12.22 5.582 3.296 5.245 3.179 11.253-.279 13.421m.997-58.094c-2.887-5.48-2.301-11.472 1.318-13.392s8.908.982 11.809 6.462c2.887 5.48 2.301 11.472-1.318 13.391s-8.908-.981-11.809-6.461m28.849 87.427c-2.55 3.091-8.498 2.403-13.275-1.553-4.776-3.942-6.578-9.656-4.029-12.747 2.549-3.092 8.498-2.403 13.274 1.553 4.777 3.941 6.579 9.655 4.03 12.747m6.769-53.845c-2.857 2.901-8.762 1.714-13.172-2.652-4.41-4.352-5.656-10.242-2.799-13.143s8.762-1.714 13.172 2.652c4.41 4.352 5.656 10.242 2.799 13.143m32.057 20.732c-1.89 3.809-7.926 4.674-13.479 1.919-5.553-2.754-8.513-8.073-6.623-11.897 1.89-3.809 7.927-4.674 13.48-1.919 5.553 2.754 8.512 8.073 6.622 11.897m6.872-43.882c-5.685 2.462-11.663 1.289-13.362-2.608-1.685-3.897 1.553-9.069 7.238-11.531 5.684-2.461 11.662-1.289 13.362 2.608 1.685 3.898-1.553 9.07-7.238 11.531m31.266 56.805c-1.011 4.131-6.71 6.285-12.732 4.805-6.022-1.479-10.08-6.021-9.055-10.168 1.011-4.132 6.711-6.285 12.733-4.806s10.08 6.022 9.054 10.169m8.674-69.405c-6.095 1.098-11.663-1.451-12.424-5.685-.762-4.235 3.56-8.571 9.655-9.67s11.663 1.436 12.425 5.685c.761 4.234-3.561 8.571-9.656 9.67m-182.954.703c-4.176-17.011-.44-29.904 12.922-39.281 4.015 7.487 9.861 11.824 17.187 12.615-8.22 9.831-18.212 18.637-30.109 26.666"/><path fill="#010101" d="M484.549 95.182c-49.786 0-105.301 70.533-105.301 139.103 0 7.121.601 13.479 1.758 19.018-20.937 13.157-28.453 34.856-21.435 60.453a256 256 0 0 1-9.421 5.084c-17.289-5.788-27.97-8.103-42.959-10.037-19.135-2.109-39.398-.146-51.896 8.777-3.868 2.769-6.798 6.095-8.776 9.934-1.963 3.824-3.033 8.234-3.033 13.259 0 5.729 1.319 11.077 3.663 16.044 3.209 6.784 8.381 12.908 14.93 18.285 9.231 8 21.362 14.491 35.003 18.33 16.732 4.703 40.497 4 59.075-1.597 1.377.849 2.872 1.773 4.527 2.769 48.395 36.424 81.258 49.977 120.612 49.977 42.754 0 80.262-16.351 100.613-44.497 14.3-19.78 22.534-48.234 22.036-88.453-1.407-112.774-55.046-216.405-119.396-216.405zm-99.016 171.234c4.015 7.487 9.861 11.824 17.187 12.615-8.22 9.832-18.212 18.637-30.109 26.666-4.176-17.01-.44-29.904 12.922-39.281m184.259 126.62c-17.948 23.121-52.277 37.626-88.525 37.626-89.433 0-136.333-88.379-201.035-87.53 17.157 6.652 34.71 17.846 63.061 40.439-22.417 6.916-50.46.586-69.17-11.941-12.161-8.718-20.146-20.014-20.146-30.798 0-13.626 12.732-21.919 35.442-21.919 19.765 0 42.255 6.286 71.72 21.348 15.897 8.117 33.815 18.783 54.445 32.409-10.813-17.684-29.084-34.138-50.724-46.402 24.732-13.157 44.175-31.97 56.892-49.303 4.293 3.912 10.33 6.447 18.154 6.447 4.952 0 9.684-1.084 14.27-2.886 26.901 22.109 74.445 3.282 68.247-40.586 4.03-.937 8.22-1.494 12.645-1.494 12.541 0 17.962 2.842 17.977 2.842-4.586-7.897-14.915-12.717-26.256-12.717-39.324 0-60.657 37.215-85.448 38.417-14.549.703-23.501-10.755-20.424-25.48-6.3 6.198-8.322 15.604-6.08 23.941-14.212 3.458-22.652-8.176-22.652-32.175 0-57.874 49.01-124.715 93.038-124.715 53.918 0 105.052 100.232 105.052 204.054 0 36.072-6.388 62.284-20.483 80.438z"/><path fill="#cf4520" d="M487.377 274.268c-7.048 2.93-14.227 2.212-19.414-1.275 11.194-7.531 22.256-17.626 34.842-24.952 2.007 10.256-4.601 21.728-15.428 26.227"/><path fill="#010101" d="M425.257 215.293c-.571 6.168-4.205 10.871-8.102 10.52-3.898-.367-6.593-5.656-6.022-11.839.571-6.168 4.205-10.872 8.102-10.52 3.898.366 6.594 5.656 6.022 11.839m11.018-51.999c-3.619-1.876-8.864 1.055-11.721 6.564-2.857 5.494-2.242 11.487 1.377 13.362s8.864-1.055 11.721-6.564c2.857-5.494 2.242-11.487-1.377-13.362m30.402-31.091c-2.769-3.004-8.703-2.022-13.26 2.198-4.542 4.205-5.992 10.051-3.223 13.054s8.703 2.022 13.26-2.197c4.556-4.205 5.992-10.051 3.223-13.055m-13.992 78.709c-3.678-1.612-8.659 1.699-11.15 7.37-2.491 5.684-1.524 11.589 2.154 13.186 3.677 1.612 8.659-1.699 11.15-7.37 2.49-5.685 1.523-11.589-2.154-13.186m29.391-33.377c-2.842-2.915-8.747-1.773-13.186 2.55-4.44 4.322-5.744 10.197-2.901 13.113s8.747 1.773 13.186-2.549c4.439-4.323 5.743-10.198 2.901-13.114m38.841-20.717c-1.699-3.736-7.648-4.674-13.289-2.11s-8.835 7.677-7.135 11.399c1.7 3.736 7.648 4.674 13.289 2.11s8.835-7.678 7.135-11.399m-68.291 223.453c-2.549 3.091-.747 8.791 4.029 12.747 4.777 3.941 10.725 4.644 13.275 1.553 2.549-3.092.747-8.791-4.029-12.747-4.777-3.942-10.725-4.645-13.275-1.553m-24.483-34.036c-3.443 2.168-3.575 8.175-.278 13.421s8.762 7.75 12.22 5.582c3.443-2.168 3.575-8.176.278-13.421s-8.762-7.751-12.22-5.582m-11.999-37.948c-3.971 1.04-5.905 6.74-4.337 12.732 1.568 5.993 6.051 10.022 10.022 8.982s5.904-6.74 4.337-12.733c-1.568-5.992-6.052-10.021-10.022-8.981m72.496 43.193c-1.89 3.81 1.069 9.143 6.622 11.897 5.553 2.755 11.59 1.89 13.48-1.919s-1.07-9.143-6.623-11.897c-5.553-2.755-11.589-1.89-13.479 1.919m36.453 17.538c-1.011 4.132 3.048 8.689 9.055 10.168 6.022 1.48 11.721-.674 12.732-4.805 1.011-4.132-3.048-8.689-9.055-10.169-6.022-1.479-11.721.674-12.732 4.806m-64.35-44.087c-2.857 2.901-1.611 8.777 2.799 13.143 4.41 4.351 10.3 5.538 13.172 2.652s1.611-8.777-2.799-13.143c-4.41-4.351-10.3-5.538-13.172-2.652m-18.329-31.179c-3.619 1.92-4.22 7.912-1.319 13.392 2.887 5.48 8.176 8.366 11.81 6.461 3.619-1.919 4.219-7.911 1.318-13.391-2.886-5.48-8.175-8.366-11.809-6.462m80.452 12.293c-1.685-3.897-7.677-5.069-13.362-2.608-5.685 2.462-8.923 7.619-7.238 11.531 1.685 3.897 7.677 5.07 13.362 2.608 5.685-2.461 8.923-7.619 7.238-11.531m42.358-10.74c-.762-4.234-6.33-6.783-12.425-5.684s-10.417 5.421-9.655 9.67c.762 4.234 6.329 6.783 12.424 5.685s10.418-5.422 9.656-9.671"/><path fill="#89734c" d="M274.136 371.63c18.71 12.527 46.738 18.857 69.155 11.941-28.35-22.593-45.903-33.787-63.06-40.439-12.527.279-21.142 7.15-16.205 19.619 2.872 3.15 6.286 6.139 10.095 8.879zm207.144 59.032c36.234 0 70.562-14.506 88.525-37.626 14.095-18.139 20.483-44.351 20.483-80.438 0-54.577-14.124-108.159-35.369-146.707a825 825 0 0 0 4.996 11.164c23.809 52.307 38.314 160.978-.395 208.567-31.135 38.256-116.099 51.911-193.68-3.062 32.512 23.223 67.984 48.102 115.426 48.102zm36.849-212.538c-35.149.923-59.471 35.032-78.694 37.083-9.553 1.011-16.497-4.468-18.519-13.699-3.092 14.725 5.875 26.183 20.424 25.479 24.791-1.201 46.123-38.416 85.448-38.416 11.34 0 21.67 4.82 26.256 12.717-3.839-11.838-16-23.677-34.915-23.179zm-103.294 47.325c-13.728 3.341-22.065-7.385-22.622-29.728 2.022 18.051 14.227 20.688 22.241 17.919a25.75 25.75 0 0 0 .381 11.809"/><path fill="#010101" d="M512.758 545.182c-5.596 0-10.124 4.542-10.124 10.139s4.528 10.124 10.124 10.124 10.11-4.527 10.11-10.124-4.513-10.139-10.11-10.139m0 18.08c-4.41 0-7.955-3.561-7.955-7.956s3.545-7.971 7.955-7.971 7.942 3.561 7.942 7.971-3.561 7.956-7.942 7.956"/><path fill="#010101" d="M516.908 552.935c0-1.89-1.538-3.443-3.428-3.443h-4.879v11.575h2.168v-4.689h1.554l2.197 4.689h2.388l-2.285-4.894a3.43 3.43 0 0 0 2.285-3.238m-3.428 1.26h-2.711v-2.52h2.711c.703 0 1.26.557 1.26 1.26a1.25 1.25 0 0 1-1.26 1.26"/></svg>