<svg xmlns="http://www.w3.org/2000/svg" viewBox="0 0 960 640"><path fill="#00205b" d="M668.46 476.31c-6.869 0-12.446 5.569-12.446 12.443 0 6.867 5.577 12.444 12.446 12.444s12.439-5.577 12.439-12.443c0-6.875-5.568-12.444-12.439-12.444m0 22.217a9.76 9.76 0 0 1-9.031-6.032 9.8 9.8 0 0 1-.742-3.741c0-5.4 4.368-9.768 9.773-9.768 5.401 0 9.772 4.368 9.772 9.768s-4.371 9.773-9.772 9.773m5.114-12.658a4.22 4.22 0 0 0-2.608-3.896 4.2 4.2 0 0 0-1.615-.32h-5.995v14.204h2.665v-5.77h1.913l2.692 5.77h2.948l-2.812-6.015a4.22 4.22 0 0 0 2.812-3.973Zm-4.223 1.553h-3.33v-3.11h3.33c.857 0 1.557.698 1.557 1.558a1.56 1.56 0 0 1-1.557 1.552"/><path fill="#00205b" d="M764.51 294.65c0-57.708-35.875-114.593-99.544-149.548l-24.397 19.359c43.511 27.379 69.119 68.294 69.119 114.726 0 108.376-133.922 206.537-282.959 206.537-15.298 0-30.3-1.12-44.79-3.27l-50.293 37.217c31.756 10.744 67.195 16.447 104.229 16.447 176.923 0 328.635-119.447 328.635-241.468"/><path fill="#00205b" d="m539.479 334.945-91.021 17.796 201.896-165.898-93.99 12.6L739.052 54.556l-212.677 55.959a401 401 0 0 0-8.461-.102c-174.292 0-322.424 118.452-322.424 243.424 0 61.316 33.027 110.093 84.217 141.698l-78.593 89.91zm-319.692.41c0-112.064 140.229-206.531 282.962-206.531.986 0 1.959.019 2.945.029L367.7 283.23l79.35-12.55-156.34 151.197 63.408-11.452-44.29 50.66c-53.813-25.484-90.042-69.43-90.042-125.73"/></svg>