<svg width="500" height="500" viewBox="0 0 500 500" fill="none" xmlns="http://www.w3.org/2000/svg">
<path fill-rule="evenodd" clip-rule="evenodd" d="M249.658 438.336C213.223 438.499 185.285 428.095 171.912 421.038C145.713 407.287 124.127 389.08 105.542 363.81C78.8328 327.586 73.6623 298.418 71.5342 282.533C70.2837 274.262 68.7966 254.384 71.5868 236.55C74.7448 210.819 80.5931 198.003 84.7757 185.46C88.0283 176.543 98.5216 155.084 104.748 145.242C110.04 137.528 119.703 123.315 123.644 118.297C124.721 116.72 123.323 117.466 122.729 117.482C121.284 117.834 120.538 117.923 119.424 117.834C118.589 117.834 116.918 117.556 115.988 117.277C110.786 116.168 103.351 110.404 104.281 100.368C104.097 98.1401 106.509 79.0082 108.369 73.0601C110.786 64.7053 115.799 60.8012 124.721 60.0551C129.177 60.0551 147.941 59.682 156.464 61.0114C173.53 62.7086 186.026 67.6742 193.456 82.7232C199.404 95.9121 197.365 116.536 189.189 132.326C186.399 137.712 180.829 147.748 175.995 154.248C171.539 160.748 169.679 164.101 165.775 171.341C161.876 178.955 148.871 207.382 144.415 225.957C135.934 260.627 140.695 280.578 157.042 307.708C169.122 325.725 183.241 338.736 194.202 344.679C212.225 356.007 236.837 359.171 249.658 359.171C262.48 359.171 287.092 356.007 305.12 344.679C316.076 338.736 330.195 325.725 342.27 307.708C358.622 280.578 363.383 260.627 354.907 225.957C350.451 207.382 337.441 178.955 333.542 171.341C329.643 164.101 327.783 160.748 323.322 154.248C318.498 147.748 312.918 137.712 310.128 132.326C301.957 116.536 299.918 95.9121 305.861 82.7232C313.286 67.6742 325.792 62.7086 342.853 61.0114C351.371 59.682 370.14 60.0551 374.596 60.0551C383.518 60.8012 388.536 64.7053 390.948 73.0601C392.803 79.0082 395.225 98.1401 395.036 100.368C395.966 110.404 388.536 116.168 383.329 117.277C382.41 117.556 380.728 117.834 379.893 117.834C378.779 117.923 378.038 117.834 376.588 117.482C375.994 117.466 374.596 116.72 375.673 118.297C379.614 123.315 389.272 137.528 394.574 145.242C400.795 155.084 411.294 176.543 414.541 185.46C418.724 198.003 424.572 210.819 427.73 236.55C430.52 254.384 429.033 274.262 427.788 282.533C425.655 298.418 420.495 327.586 393.775 363.81C375.19 389.08 353.604 407.287 327.41 421.038C314.037 428.095 286.099 438.168 249.658 438.336Z" fill="white"/>
<path fill-rule="evenodd" clip-rule="evenodd" d="M249.459 402.527C251.871 402.527 253.831 400.572 253.831 398.16C253.831 395.743 251.871 393.783 249.459 393.783C247.042 393.783 245.087 395.743 245.087 398.16C245.087 400.572 247.042 402.527 249.459 402.527ZM133.081 347.165C135.498 347.165 137.453 345.21 137.453 342.793C137.453 340.376 135.498 338.416 133.081 338.416C130.669 338.416 128.709 340.376 128.709 342.793C128.709 345.21 130.669 347.165 133.081 347.165ZM107.076 246.104C109.488 246.104 111.448 244.144 111.448 241.732C111.448 239.309 109.488 237.355 107.076 237.355C104.659 237.355 102.704 239.309 102.704 241.732C102.704 244.144 104.659 246.104 107.076 246.104ZM158.35 127.198C160.767 127.198 162.722 125.243 162.722 122.826C162.722 120.409 160.767 118.454 158.35 118.454C155.933 118.454 153.973 120.409 153.973 122.826C153.973 125.243 155.933 127.198 158.35 127.198ZM370.645 342.793C370.645 340.376 368.685 338.416 366.273 338.416C363.861 338.416 361.896 340.376 361.896 342.793C361.896 345.21 363.861 347.165 366.273 347.165C368.685 347.165 370.645 345.21 370.645 342.793ZM396.655 241.732C396.655 239.309 394.695 237.355 392.278 237.355C389.866 237.355 387.906 239.309 387.906 241.732C387.906 244.144 389.866 246.104 392.278 246.104C394.695 246.104 396.655 244.144 396.655 241.732ZM345.381 122.826C345.381 120.409 343.421 118.454 341.004 118.454C338.587 118.454 336.632 120.409 336.632 122.826C336.632 125.243 338.587 127.198 341.004 127.198C343.421 127.198 345.381 125.243 345.381 122.826ZM168.192 408.769C144.415 394.655 122.861 376.821 102.053 342.493C92.7626 325.542 71.2136 289.501 81.8384 226.709C94.0972 169.298 118.778 140.314 132.897 120.436C139.581 110.778 132.708 105.203 127.317 107.247C122.803 108.96 119.703 109.07 119.703 109.07C111.716 107.987 112.83 102.791 114.317 89.2235L116.177 78.0785C117.843 68.2315 122.304 68.4154 134.006 68.6414C152.586 69.0092 155.928 69.1616 165.964 71.0164C179.342 73.9905 196.803 87.3686 183.057 124.151C174.508 143.845 165.591 150.528 155.928 170.969C145.524 193.637 120.26 244.538 137.353 288.014C160.762 346.35 206.093 367.158 249.196 367.904C292.299 367.342 342.086 341.889 362.001 288.014C379.094 244.538 353.83 193.637 343.421 170.969C333.763 150.528 324.846 143.845 316.297 124.151C302.551 87.3686 320.017 73.9905 333.39 71.0164C343.421 69.1616 346.768 69.0092 365.348 68.6414C377.05 68.4154 381.516 68.2315 383.187 78.0785L385.042 89.2235C386.524 102.791 387.643 107.987 379.656 109.07C379.656 109.07 376.556 108.96 372.037 107.247C366.646 105.203 359.768 110.778 366.457 120.436C380.581 140.314 405.251 169.298 417.515 226.709C428.14 289.501 406.591 325.542 397.301 342.493C376.498 376.821 354.944 394.655 331.162 408.769C298.61 431.442 237.678 430.134 249.38 429.398C261.644 430.328 204.606 431.81 168.192 408.769Z" fill="#013369"/>
</svg>
