<svg xmlns="http://www.w3.org/2000/svg" viewBox="0 0 960 640"><path fill="#fff" d="M748.218 196.054c-39.226-39.225-91.25-61.012-146.66-61.453 3.991-18.267 10.205-37.77 18.534-58.126l.153-.384a13.2 13.2 0 0 0-1.19-12.201 13.23 13.23 0 0 0-10.702-5.966l-.384-.009c-2.464-.07-4.998-.104-7.527-.104-20.775 0-62.211 2.476-106.326 19.078-46.613 17.54-83.893 45.824-110.817 84.073-11.099 15.77-26.048 41.429-34.26 74.118a309 309 0 0 0-3.118 13.713q-2.296.045-4.613.044c-18.421 0-40.595-2.031-65.91-6.052-22.484-3.575-59.931-16.1-67.977-19.144a394 394 0 0 1-17.439-7.09l-6.798-3.001-32.864-14.592 19.75 38.471c7.68 16.375 14.692 29.64 19.851 37.7 13.44 20.984 28.969 38.188 46.988 51.964l17.967 33.272c10.575 19.602 21.28 35.276 32.737 47.922 6.375 7.034 13.431 13.21 18.223 17.148 6.608 5.429 13.982 10.387 21.935 14.736l9.363 20.295c.981 2.128 10.859 19.549 25.463 34.019 9.429 9.34 26.117 19.986 35.136 23.675l1.116.466c6.868 2.914 25.123 10.644 54.188 10.644 5.368 0 11.016-.291 16.785-.863l.737-.074c4.348 5.533 6.62 9.667 6.933 12.62.227 2.124-.579 4.094-2.145 7.64-.829 1.662-2.926 3.728-5.351 6.123l-.096.095c-1.452 1.431-3.096 3.053-4.701 4.85l-.467.524a13.17 13.17 0 0 0-2.031 14.574c2.193 4.514 6.855 7.43 11.874 7.43.275 0 .549-.008.833-.021l.693-.048c10.51-.658 32.205-6.59 46.845-24.651 3.676-4.532 6.763-9.236 9.354-14.252 21.512 7.339 44.201 11.059 67.541 11.059 56.049 0 108.746-21.83 148.377-61.462 39.632-39.64 61.462-92.331 61.462-148.382s-21.83-108.742-61.462-148.378"/><path fill="#010101" d="M743.013 201.26c-38.245-38.244-89.088-59.302-143.176-59.302-2.376 0-4.827.052-7.291.14 4.614-25.269 13.039-49.606 20.724-68.392l.155-.38a5.85 5.85 0 0 0-.526-5.398 5.85 5.85 0 0 0-4.737-2.642l-.401-.01c-2.398-.07-4.862-.104-7.318-.104-20.273 0-60.711 2.42-103.731 18.607-45.205 17.007-81.334 44.402-107.39 81.422-10.741 15.253-25.206 40.075-33.143 71.67a306 306 0 0 0-4.143 19.083l-.71.03c-3.266.144-6.637.22-10.017.22-18.808 0-41.372-2.068-67.066-6.146-23.038-3.663-61.226-16.43-69.424-19.532a413 413 0 0 1-20.087-8.234l-3.109-1.378-14.914-6.624 8.634 17.837c7.388 16.204 15.443 30.696 20.781 39.033 20.112 31.398 45.033 53.992 76.205 69.067 18.407 8.905 39.745 12.826 50.826 14.37 8.302 1.155 22.436 2.245 29.095 2.245h.004l1.282-.012a238 238 0 0 0 1.893 6.836c-.397 0-.794.005-1.181.005-12.699 0-24.138-.91-38.245-3.044-11.674-1.766-22.581-4.238-33.343-7.548-4.636-1.43-9.476-2.99-13.449-4.73l-16.318-7.152 8.46 15.677c10.292 19.069 20.67 34.272 31.721 46.469 6.07 6.703 12.834 12.62 17.439 16.405 6.384 5.25 13.544 10.038 21.28 14.234 20.889 11.307 40.557 16.353 63.783 16.353q.445-.001.897-.008l3.917-.036q2.61 3.358 5.311 6.642a96 96 0 0 1-6.354.2c-3.021 0-6.471-.121-10.853-.378-11.77-.694-31.141-4.941-36.471-7.484l-15.332-7.34 7.126 15.443c.868 1.875 10.33 18.376 23.962 31.882 8.561 8.477 24.404 18.682 32.803 22.114l1.138.48c6.497 2.75 23.753 10.06 51.31 10.06h.004c5.133 0 10.536-.278 16.056-.83l4.409-.44c1.017.995 1.911 1.959 2.643 2.888 11.735 14.835 9.428 20.16 5.888 28.162-1.357 2.84-3.913 5.355-6.869 8.272l-.087.087c-1.444 1.426-2.935 2.896-4.387 4.522l-.463.52a5.84 5.84 0 0 0 1.253 8.846c.929.582 2.003.89 3.099.891.127 0 .245 0 .371-.008l.694-.05c9.315-.579 28.555-5.86 41.585-21.939 5.285-6.519 8.769-12.864 11.233-18.82 22.572 8.56 46.582 12.903 71.378 12.903 54.088 0 104.931-21.063 143.176-59.308 38.245-38.244 59.303-89.09 59.303-143.17s-21.059-104.93-59.303-143.176"/><path fill="#b9975b" d="M796.474 344.434c0 52.522-20.453 101.9-57.593 139.041-37.138 37.136-86.521 57.593-139.042 57.593-24.181 0-47.529-4.238-69.469-12.58.947-2.809 1.71-5.517 2.364-8.08 1.081-4.222 1.688-8.82 2.177-13.659 2.032-.606 4.783-1.627 10.251-4.086 6.484-2.922 10.741-4.94 11.426-5.264 14.007 3.951 28.555 5.957 43.251 5.957 42.453 0 82.359-16.532 112.375-46.548 30.019-30.016 46.552-69.926 46.552-112.375 0-44.956-19.166-87.993-52.588-118.104-.022-.532-.057-2.926.968-6.306.244-.807.489-1.675.737-2.534.244-.868.48-1.687.711-2.446 12.001 12.001 18.983 9.781 19.235 9.668.455-.269.973-.41 1.501-.406 2.46 0 5.006 2.77 5.29 3.083l.035.044.043-.048-.048.04.205-.21.204-.214v-.004c-.348-.397-3.195-3.803-1.87-6.476.13-.297 2.96-7.44-9.724-20.91l-.314-.336-.174.427c-.05.123-1.134 2.948-.062 7.985l.044.332c0 .03.343 2.882-1.24 4.675-.853.972-2.131 1.465-3.797 1.465l-1.365-.097c-2.133-.679-4.178-1.023-6.08-1.023l-1.216.051c.227-.575.484-1.169.776-1.805.55-1.173 1.065-2.36 1.322-3.493l.793-.127c2.32 0 4.876 2.102 5.177 2.355l.044.04.034-.053-.04.048.17-.24.176-.24c-.38-.33-3.7-3.322-2.743-6.153.086-.314 1.9-7.78-12.524-19.37l-.358-.293-.11.45c-.03.126-.715 3.077 1.038 7.92l.088.316c.008.032.797 3.023-.733 5.025-.933 1.225-2.555 1.848-4.767 1.852a22 22 0 0 0-3.771-.339c-3.384 0-5.168.876-5.242.915l-.41.205.358.288c2.973 2.36 5.599 4.051 7.95 5.316l-.768.288c-.68.258-1.378.528-2.12.794a81 81 0 0 0-4.84 1.945 36 36 0 0 0-3.398 1.731c-25.515-16.323-55.085-24.953-85.524-24.953-3.502 0-7.033.118-10.545.35-.658-12.412.27-25.224 2.233-37.884 2.769-.118 5.55-.178 8.312-.178 52.522 0 101.904 20.456 139.042 57.593 37.14 37.141 57.593 86.52 57.593 139.041Z"/><path fill="#fff" d="m719.271 386.6-2.137 9.206 5.952 25.08s-17.422 2.73-25.179 3.899c-2.386 8.002-14.325 39.404-14.325 39.404l-2.394-1.181c-1.736-17.156-10.668-25.93-20.867-32.498-5.722-3.68-12.268-6.204-18.509-8.19-8.428-2.677-17.176-4.3-26.021-5.594 1.527-3.594 1.1-7.923-.004-10.632-1.814-4.447-4.552-7.474-7.025-10.632 10.888-1.853 12.149-9.554 11.709-14.251-1.369 2.399-7.192 12.249-15.786 10.309-17.666-20.814-20.679-21.943-22.389-28.66-1.217-4.796 1.034-10.963 6.079-14.368 9.22-5.73 14.971.087 24.299 11.813 4.958 6.232 22.869 29.994 34.643 43.352 9.004 10.22 18.009 16.798 29.173 22.646 6.141 3.217 13.223 5.643 13.223 5.643l1.465-2.342s-8.735-8.704-14.3-19.764c-2.734-5.428-4.8-11.19-6.105-16.806-3.257-14.033-.126-28.5-.126-28.5s-8.273 1.366-15.974-9.98c-2.022-2.974-3.911-9.908-4.514-14.326-.422-3.148-.715-5.591-.767-8.22 14.16-12.913 33.431-36.012 40.8-37.726 2.228 4.627 34.447 72.94 34.447 72.94l-7.227 3.466.035 7.859-18.856 13.828z"/><path fill="#c8102e" d="M500.813 546.424c.087-.628.135-1.072.148-1.208.942-9.158-1.678-15.504-4.212-20.728-2.386-4.928-5.53-8.708-8.548-12.159-5.386-6.17-12.441-11.554-16.17-14.214-.636-.46-64.304-46.518-91.748-113.291-21.06-51.21-18.507-96.854-12.66-126.13 1.933-9.676 4.327-18.742 7.536-28.545l.105-.322c11.447-35.031 28.646-59.147 41.057-73.211 40.216-45.584 104.8-73.01 177.56-75.5-5.263 13.14-10.12 29.284-14.442 48.058-.811 3.514-7.728 34.489-5.98 59.708-22.352 6.638-42.403 17.509-59.616 32.332-11.988 10.322-22.606 23.74-29.902 37.782-9.28 17.87-11.072 32.383-12.381 42.98a511 511 0 0 1-.462 3.68c-2.05 15.229 2.939 53.893 24.164 78.509 5.82 6.755 13.898 16.772 24.119 29.45l.13.165c6.805 8.429 14.47 17.94 23.1 28.507-3.11 3.123-10.008 10.479-16.083 24.874-3.035 7.196-4.957 14.15-5.716 20.666-.297 2.564-.51 5.255-.737 8.094-.606 7.749-1.295 16.48-4.012 25.127-1.823 5.787-3.912 10.483-6.581 14.779-2.481 3.995-5.577 7.749-8.67 10.597"/><path fill="#010101" d="m712.199 364.507-14.438 8.745.357.87 24.073-5.8zM696.247 331.8s-.231-3.693-1.199-5.146 4.334-3.715 4.334-3.715l-2.738-1.5-.668 1.191-12.38 4.335-10.318 8.46 8.849-2.849 18.185 2.321zM646.425 175.615c.619-1.186 1.917-1.784 3.859-1.784 1.578 0 3.044.41 3.322.494l.053.013.083-.28.035-.295c-.484-.154-4.723-1.55-4.997-4.528-.05-.322-1.396-7.884-19.272-12.672l-.45-.118.084.454c.022.13.59 3.118 4.169 6.847l.188.235c.022.026 1.948 2.45 1.356 4.897-.362 1.5-1.6 2.72-3.615 3.615-5.704 1.426-7.924 4.052-8.016 4.165l-.292.358.445.113c4.54 1.19 8.644 1.793 12.193 1.793 8.15 0 10.719-3.128 10.855-3.307"/><path fill="#010101" d="M672.153 182.21c1.923 0 3.898.85 4.278 1.02l.052.026.123-.27.074-.287c-.459-.22-4.462-2.187-4.327-5.174-.004-.322-.292-8-17.338-15.206l-.424-.177.018.457c.004.13.153 3.166 3.175 7.348l.161.27c.016.026 1.592 2.696.667 5.037-.566 1.43-1.957 2.473-4.081 3.079-5.844.624-8.408 2.922-8.512 3.022l-.341.31.423.179c5.939 2.468 11.151 3.724 15.489 3.724 5.356 0 7.427-1.924 7.549-2.046.624-.872 1.636-1.312 3.014-1.312"/><path fill="#010101" d="M694.56 188.994c.039-.32.81-7.963-15.076-17.452l-.397-.24-.043.463c-.017.13-.287 3.148 2.124 7.7l.126.301c.014.03 1.208 2.887-.034 5.08-.759 1.34-2.277 2.177-4.466 2.486l-.785-.013c-5.347 0-7.954 1.757-8.064 1.831l-.379.258.397.235c8.434 4.975 14.151 6.023 17.457 6.023 3.466-.005 5.024-1.095 5.128-1.178q.891-.938 2.399-.94c2.167 0 4.574 1.481 4.858 1.66l.052.03.156-.249.114-.274c-.423-.275-4.117-2.778-3.567-5.722m48.432 54.392 1.112-.227c2.607 0 4.979 3.428 5.241 3.82l.031.043.244-.165.213-.205c-.274-.423-2.647-4.203-.954-6.672.165-.278 3.954-6.96-6.747-22.057l-.265-.375-.232.4c-.06.11-1.539 2.775-1.164 7.933l-.005.297c-.004.222-.117 5.464-4.822 5.464-.725 0-1.527-.127-2.35-.353-3.603-1.731-6.36-1.988-7.676-1.988-.733 0-1.134.073-1.15.078l-.455.087.27.374c8.814 12.29 15.464 13.62 17.915 13.62z"/><path fill="#010101" d="m755.426 263.974.737-.096c2.783 0 4.832 4.069 5.063 4.53l.02.048.263-.127.244-.178c-.217-.454-2.04-4.532-.026-6.738.205-.253 4.88-6.349-3.637-22.776l-.213-.41-.28.365c-.082.105-1.901 2.526-2.245 7.663l-.048.332c-.03.197-.78 4.802-4.745 4.802-.93 0-1.975-.258-3.065-.734-4.461-2.96-7.758-3.114-8.368-3.114l-.572.026.213.406c8.177 15.564 15.665 16.008 16.493 16.008z"/><path fill="#010101" d="m764.902 286.085.353-.021c2.996 0 4.592 4.652 4.775 5.205l.017.061.279-.096.266-.135c-.148-.483-1.395-4.77.903-6.68.24-.221 5.708-5.616-.453-23.06l-.157-.436-.332.322c-.092.092-2.233 2.242-3.283 7.296l-.092.306c-.008.039-1.265 4.143-4.701 4.143-1.1 0-2.316-.41-3.594-1.196-4.4-3.895-7.823-4.239-7.967-4.248l-.462-.044.157.437c6.263 17.413 13.91 18.124 14.29 18.145"/><path fill="#010101" d="M767.248 294.306c-3.82-4.462-7.17-5.276-7.31-5.311l-.443-.101.09.449c3.804 18.11 11.278 19.872 11.649 19.947 3.24.06 4.256 5.232 4.365 5.843l.008.06.289-.051.279-.104c-.08-.498-.724-4.916 1.822-6.49.262-.183 6.429-4.77 2.73-22.903l-.096-.45-.37.275c-.1.079-2.525 1.915-4.261 6.773l-.126.284c-.018.039-1.627 3.502-4.658 3.502-1.256 0-2.603-.594-3.968-1.723M625.265 168.078c.65-9.682-29.043-1.959-29.043-1.959s28.411 11.315 29.043 1.958m-17.386 352.715.057.284v-.035l.009.035-.018-.59-.257.005c-.955 0-5.74-.152-6.415-3.174-.126-.297-3.331-7.28-21.834-7.427h-.46l.19.418c.06.131 1.517 3.244 6.606 6.083 1.757 1.418 2.629 2.918 2.59 4.462-.065 2.517-2.56 4.353-2.586 4.374l-.161.127c-4.496 2.68-5.835 5.45-5.892 5.568l-.196.419.633.005c18.354 0 21.607-6.908 21.746-7.218 1.035-2.791 5.491-3.035 5.997-3.052z"/><path fill="#010101" d="m632.328 518.424-.048-.28.096.27-.004-.03.013.03-.1-.58-.053.008.048.19-.004.09-.044-.28c-.222.035-1.012.153-2.006.153-1.866 0-4.243-.4-4.984-2.38-.118-.2-3.083-4.871-15.097-4.871-2.325 0-4.867.179-7.553.532l-.459.06.245.388c.079.123 1.954 3.005 7.383 5.111 1.94 1.165 3.009 2.53 3.183 4.06.284 2.508-1.936 4.667-1.958 4.688l-.248.236c-3.99 3.24-4.92 6.127-4.959 6.25l-.139.44.458-.061c18.332-2.511 20.618-9.847 20.71-10.178.64-2.896 5.002-3.755 5.516-3.846z"/><path fill="#010101" d="m656.047 511.844-.061.017c-.301.092-1.814.537-3.423.537-1.88 0-3.149-.584-3.799-1.783-.104-.127-2.625-3.123-10.461-3.123-3.646 0-7.877.659-12.577 1.953l-.441.123.297.353c.091.109 2.35 2.708 8.019 4.042 2.08.885 3.328 2.089 3.711 3.585.628 2.437-1.273 4.888-1.29 4.915l-.184.23c-3.532 3.776-4.059 6.776-4.081 6.902l-.074.46.445-.126c17.809-5.015 19.061-12.6 19.108-12.935.232-2.965 4.449-4.417 4.933-4.574l-.087-.27.135.257-.008-.031.016.026z"/><path fill="#010101" d="m678.752 502.626-.053.026.101.166.021.087-.122-.253c-.384.179-2.398 1.077-4.348 1.077-1.334 0-2.324-.427-2.982-1.312-.083-.08-2.106-1.906-7.252-1.906-4.396 0-9.687 1.32-15.721 3.928l-.427.183.343.306c.11.095 2.7 2.358 8.504 2.9 2.181.588 3.581 1.61 4.165 3.035.959 2.33-.58 5.02-.597 5.04l-.101.193c-3.026 4.264-3.136 7.338-3.139 7.47l-.013.462.427-.188c16.946-7.427 17.137-15.11 17.137-15.45-.178-2.965 3.803-4.989 4.257-5.21l-.122-.258.166.234-.014-.026.023.026z"/><path fill="#010101" d="m699.968 490.365-.048.03.123.153.034.088-.157-.24c-.27.178-2.708 1.727-4.906 1.727-.968 0-1.761-.306-2.389-.942-.062-.044-1.571-1.078-4.888-1.078-3.333 0-9.094 1.08-17.588 6.249l-.393.24.379.254c.11.069 2.634 1.726 7.776 1.726l1.047-.026c2.241.279 3.772 1.1 4.548 2.429 1.273 2.177.113 5.05.105 5.08l-.07.192c-2.416 4.645-2.098 7.71-2.08 7.84l.052.46.393-.24c15.759-9.7 14.887-17.332 14.844-17.672-.589-2.913 3.078-5.468 3.498-5.748l-.158-.239.197.213-.018-.03.022.026z"/><path fill="#010101" d="m719.285 475.294-.043.035v.005c-.293.252-2.856 2.424-5.194 2.424a3.02 3.02 0 0 1-1.92-.65c-.042-.018-1.06-.528-3.073-.528-3.537 0-9.606 1.522-18.472 8.757l-.358.292.414.2c.07.035 1.779.846 5.006.846a21 21 0 0 0 3.965-.384h.165c2.185 0 3.763.611 4.692 1.806 1.536 1.98.794 4.962.786 4.993l-.044.2c-1.744 4.933-1.007 7.924-.977 8.055l.114.445.357-.292c14.269-11.779 12.354-19.223 12.263-19.55-.986-2.808 2.289-5.839 2.669-6.179l-.192-.209.226.178-.021-.026.026.022z"/><path fill="#010101" d="m736.341 457.7-.039.043c-.288.332-2.817 3.153-5.285 3.153a3 3 0 0 1-1.514-.41c-.022-.008-.601-.204-1.678-.204-2.997 0-9.385 1.473-18.529 11.325l-.31.34.436.143c.039.008.999.313 2.738.313 1.95 0 4.056-.37 6.211-1.089 2.367-.362 4.151.077 5.25 1.307 1.583 1.775 1.282 4.61 1.277 4.641l-.039.336c-1.007 5.045.118 7.858.166 7.98l.179.428.31-.34c12.511-13.637 9.584-20.744 9.449-21.06-1.36-2.641 1.461-6.095 1.788-6.48l-.217-.187.252.149-.031-.022.031.018z"/><path fill="#010101" d="m750.806 437.916-.035.049c-.266.409-2.608 3.885-5.224 3.885l-1.13-.228-.663-.048c-1.91 0-8.848 1-17.814 13.854l-.266.38.454.078c.016.005.37.065 1.02.065 1.33 0 4.122-.274 7.74-2.07.895-.27 1.728-.406 2.473-.406 4.618 0 4.807 5.176 4.81 5.4l.009.261c-.314 5.188 1.204 7.844 1.269 7.953l.236.402.257-.384c10.505-15.233 6.628-21.866 6.45-22.153-1.71-2.426.597-6.223.876-6.673l-.24-.152.27.11-.03-.019.03.014-.492-.32z"/><path fill="#010101" d="m762.909 416.627-.257-.118.279.074-.031-.017.031.009-.533-.244-.021.052c-.227.475-2.241 4.592-5.036 4.592l-.759-.096h-.074c-.824 0-8.294.453-16.318 16.222l-.162.432h.475c.615 0 3.885-.157 8.33-3.193 1.159-.532 2.224-.802 3.169-.802 3.908 0 4.706 4.544 4.737 4.736l.056.336c.41 5.128 2.264 7.527 2.346 7.63l.284.362.209-.413c8.299-16.541 3.546-22.572 3.328-22.837-2.037-2.168-.262-6.267-.053-6.725"/><path fill="#010101" d="M771.24 394.58v-.004l-.27-.088.284.04-.026-.01h.03l-.558-.17-.017.052c-.175.55-1.752 5.246-4.762 5.246l-.388-.02c-.32.025-7.963.788-14.108 18.245l-.152.436.458-.044c.144-.013 3.567-.384 7.902-4.274 1.316-.833 2.546-1.25 3.65-1.25 3.41 0 4.69 4.072 4.705 4.112l.07.187c1.072 5.128 3.262 7.295 3.357 7.387l.332.323.148-.437c6.049-17.49.54-22.84.288-23.077-2.294-1.875-1.095-6.14-.942-6.655"/><path fill="#010101" d="M778.404 378.097c-2.53-1.561-1.893-5.983-1.81-6.48l-.28-.049.228-.008.06.008-.03-.008h.03l-.58-.097-.004.057h-.004c-.104.599-1.112 5.784-4.413 5.858-.314.066-7.793 1.836-11.574 19.95l-.096.45.449-.105c.136-.035 3.484-.846 7.266-5.281 1.4-1.168 2.75-1.757 4.007-1.757 3.022 0 4.64 3.458 4.658 3.493l.09.183c1.74 4.937 4.196 6.799 4.3 6.872l.376.275.092-.454c3.684-18.133-2.486-22.712-2.765-22.908m-228.071 135.34s26.653 15.206 28.546 5.686c1.835-9.197-28.546-5.686-28.546-5.686M778.315 334.13c-4.981 0-9.01 4.034-9.01 9.01s4.029 9.01 9.009 9.01c4.972 0 9.005-4.034 9.005-9.01s-4.033-9.01-9.005-9.01"/><path fill="#b9975b" d="m608.009 71.127-.414-.008c-2.333-.07-4.741-.101-7.152-.101-19.877 0-59.517 2.368-101.673 18.234-44.088 16.583-79.302 43.273-104.67 79.315-10.457 14.852-24.538 39.006-32.252 69.728-12.76 50.81-8.486 89.343-4.797 107.784 3.572 17.91 11.488 40.147 20.653 58.03 1.845 3.598 11.242 20.139 17.483 29.192a295 295 0 0 0 20.723 26.636c9.912 11.338 16.2 17.3 21.25 22.096 1.732 1.64 3.227 3.057 4.653 4.487 7.209 7.24 15.102 13.305 22.066 18.656 7.117 5.469 13.26 10.19 16.85 14.727 13.95 17.644 10.549 25.328 6.612 34.224-1.794 3.802-4.846 6.812-8.073 9.995-1.408 1.392-2.865 2.826-4.225 4.343l-.462.523.693-.048c8.36-.523 25.654-5.281 37.41-19.785 8.724-10.76 12.168-21.097 14.388-29.79 1.386-5.423 1.958-11.786 2.564-18.515.352-3.954.724-8.037 1.269-12.05.885-6.462 2.856-13.295 5.408-18.751 4.125-8.84 8.542-15.502 13.478-20.338-1.517-1.553-2.991-3.157-4.456-4.771-5.285 5.517-11.551 14.97-14.618 22.162-5.503 12.908-6.157 20.4-6.637 25.873-.126 1.469-.24 2.738-.427 3.955-.201 1.308-.323 3-.467 4.958-.544 7.566-1.461 20.226-8.866 33.64-5.206 9.437-12.196 16.505-21.341 21.582 2.21-3.171 4.64-9.612 3.92-17.562-1.382-15.327-13.266-27.198-22.991-34.455-29.566-22.08-54.223-47.328-73.28-75.05-18.711-27.222-31.131-55.492-36.918-84.03-7.043-34.746-5.848-71.12 3.454-105.205 8.988-32.95 25.345-63.254 47.293-87.644 43.229-48.056 107.15-74.23 184.856-75.713l-.897 2.538c-4.183 11.831-8.51 24.068-12.072 37.547-2.77 10.453-5.024 21.007-6.894 32.27-2.206 13.297-3.001 27.09-2.08 38.28l6.06-1.387c-2.28-40.603 12.045-84.936 24.422-115.188zm95.534 147.86c1.042-3.893 2.542-7.033 3.537-9.114.754-1.582 1.212-2.538 1.155-3.082l-.013-.14-.113-.074-.777-.14c-4.604 0-24.14 5.441-43.054 22.104-12.397 10.925-17.042 22.655-20.121 30.418l-.501 1.268c-7.77 19.433-14.85 45.48-16.611 55.92-1.164-4.418-2.808-9.586-4.578-11.718-1.75-2.102-4.627-4.898-9.477-4.898-.75 0-1.543.066-2.35.202-4.644.771-8.848 4.547-10.71 9.607l-.053.147c-1.256 3.406-2.437 6.616-2.268 12.241.092 3.122.96 6.441 2.268 8.653 4.648 7.871 11.84 11.86 21.368 11.86 1.226 0 2.508-.065 3.81-.196 3.709-.37 7.65-1.89 11.405-4.399 8.66-5.788 15.664-13.218 23.082-21.086 4.204-4.45 8.552-9.06 13.235-13.339 2.882-2.629 9.637-8.787 16.532-12.808 5.137-2.99 10.288-5.102 15.32-6.275l.794-.436-.166-1.015-.183-.463c-1.71-4.458-3.118-10.174-4.317-17.488-.986-6.035-1.57-12.005-1.217-21.542.188-5.242 1.736-15.734 4.003-24.207M560.138 481.873c5.603-2.552 11.399-5.19 17.486-7.78 13.292-5.643 23.218-9.105 35.402-12.35 12.224-3.258 24.521-6.188 40.477-6.288h.271c4.579 0 10.396.689 14.385 1.683-5.546-16.457-24.908-22.131-32.243-24.277-6.968-2.041-23.095-4.714-28.38-5.215l-.755-.07.611-.445c1.74-1.265 2.708-2.477 3.933-4.012l.973-1.203.1-.118.157.02c9.35 1.096 19.419 3.19 27.622 5.745 8.695 2.708 16.13 6.358 22.096 10.854 3.297 2.48 6.11 5.59 8.848 9.782 3.45 5.272 4.64 13.505 4.614 18.95l-.004.529-.436-.292c-4.13-2.717-8.36-4.391-12.586-4.98-3.021-.42-6.27-.628-9.663-.628-8.439 0-17.862 1.269-28.804 3.88-10.178 2.426-20.204 5.46-30.647 9.28-11.697 4.27-20.902 8.322-33.61 14.016a719 719 0 0 0-5.795 2.639c-6.201 2.839-12.097 5.539-18.59 7.78.212-2.36.44-4.75.714-7.121 8.478-3.398 16.27-6.94 23.824-10.38"/><path fill="#b9975b" d="M453.035 516.067h-.004c-26.378 0-42.841-6.978-49.038-9.603l-1.155-.484c-7.776-3.18-22.991-12.991-30.945-20.88-12.83-12.707-22-28.511-22.773-30.182l-.331-.72.715.345c6.567 3.136 26.789 7.349 38.647 8.046 4.504.267 8.062.389 11.194.389 4.378 0 7.971-.244 11.901-.651.266.306.527.615.794.926a407 407 0 0 0 4.656 5.223c-4.086.393-8.83.637-15.036.786l-1.064.013c-7.732 0-29.653-1.627-36.125-3.25 12.389 16.052 23.514 26.971 42.997 35.074a104.3 104.3 0 0 0 22.214 6.454c7.532 1.304 16.276 1.936 26.741 1.936 1.487 0 3.036-.017 4.658-.039 2.661 2.045 5.172 3.977 7.431 5.813-5.233.524-10.427.803-15.477.803m-92.887-140.07c-1.395.052-2.913.082-4.58.082-13.05 0-30.236-1.565-45.975-4.19-14.2-2.368-24.421-4.88-29.72-7.287.344.55.759 1.217 1.235 1.984 4.822 7.833 16.12 26.16 30.748 38.25 12.82 10.6 28.747 22.244 49.657 28.227 9.93 2.839 18.25 4.26 30.936 5.224a288 288 0 0 0 4.47 6.188c-.45.004-.903.018-1.343.018-22.202 0-41.014-4.828-61-15.652-7.401-4.012-14.246-8.59-20.352-13.606-4.453-3.662-10.99-9.38-16.82-15.816-10.732-11.843-20.841-26.67-30.91-45.321l-.392-.733.763.335c4.252 1.867 9.276 3.488 14.077 4.963 11.04 3.4 22.223 5.93 34.189 7.74 14.408 2.18 26.113 3.114 39.113 3.114 1.21 0 2.454-.013 3.7-.03q1.059 3.27 2.204 6.51m-56.64-109.382-.458-.048c-26.667-2.777-56.76-9.964-74.43-15.28-12.796-3.842-24.941-8.059-36.092-12.52l-.427-.187c3.865 8.36 8.404 16.671 13.494 24.691 13.714 21.625 29.962 39.13 48.299 52.03 23.893 16.806 50.892 23.866 58.47 25.344l.01-.109h.262l.131.018.976.2c3.297.65 20.391 3.873 34.337 3.873q1.78-.002 3.402-.074c.147.784.291 1.556.44 2.28.271 1.361.571 2.756.894 4.16-.183.004-.366.004-.563.004-6.454 0-20.207-1.063-28.293-2.188-10.737-1.5-31.394-5.285-49.086-13.842-30.168-14.59-54.318-36.496-73.833-66.96-5.359-8.373-13.283-22.106-20.592-39.98l-.31-.75-.043-.017-.03-.131-.35-.667.667.296h.131l.044.078c7.596 3.384 15.062 6.462 22.192 9.158 8.316 3.144 47.097 16.1 70.577 19.832 25.999 4.13 48.871 6.223 67.981 6.223 3.558 0 6.999-.078 10.278-.226a293 293 0 0 0-.912 6.044c-4.992.576-10.182.86-15.816.86-11.111 0-21.865-1.122-31.35-2.112m253.153 133.688c9.24 9.838 17.386 18.521 20.518 25.432q.248.552.458 1.082.394 1.045.654 2.133c.257 1.16.458 2.28.614 3.357.158 1.072.267 2.11.336 3.101.133 1.87.129 3.748-.013 5.617a36 36 0 0 1-.2 2.033c-.022.205-.053.4-.08.6-.3 2.181-.736 4.1-1.13 5.791 3.085-2.524 7.397-6.38 10.768-9.449l.894-.816c1.16-1.059 2.164-1.984 2.918-2.677q.609-.57 1.243-1.138.64-.572 1.299-1.156c.88-.78 1.797-1.574 2.735-2.389 3.506-3.058 7.086-6.172 9.859-9.168 1.663-1.792 3.032-3.545 3.92-5.21l.263-.489c.999-1.852 1.674-3.108 1.635-5.315a15 15 0 0 0-.152-1.7 13 13 0 0 0-.872-3.19c-.7-1.661-1.75-3.225-3.176-5.096a178 178 0 0 0-4.46-5.604 200 200 0 0 0-3.241-3.811 286 286 0 0 0-1.997-2.25q-1.122-1.245-2.255-2.477c-.462-.502-.915-.995-1.37-1.48l-1.09-1.167-1.294-1.374a9 9 0 0 0-.223-.24l-.842-.894-.906-.96c-5.984-6.353-10.174-11.028-11.957-16.21a15 15 0 0 1-.703-2.676c-.034-.183-.052-.371-.078-.558q-.015-.091-.022-.175a19.2 19.2 0 0 1-.096-4.208c1.902-13.17 18.372-21.992 30.011-7.348l4.549 5.656s21.429 27.046 32.88 40.923l5.901 6.954c.209.227.393.428.549.585 9.66 11.347 27.277 20.33 31.503 22.27q-.523-.62-1.038-1.246c-2.106-2.573-5.211-6.655-7.754-11.176a49 49 0 0 1-1.927-3.777q-.17-.375-.34-.755a126 126 0 0 1-1.919-4.466c-1.238-3.052-2.399-6.405-3.327-10.287a70 70 0 0 1-1.16-6.044c-.017-.118-.035-.231-.048-.35a79 79 0 0 1-.266-2.053 71 71 0 0 1-.305-3.422c-.004-.05-.009-.093-.009-.141a67 67 0 0 1-.101-2.006 64 64 0 0 1-.043-2.991c0-.951.026-1.854.065-2.7.096-2.171.275-3.976.454-5.33.008-.056.013-.103.022-.155.131-.991.257-1.723.34-2.164a21 21 0 0 1-2.489-.75c-2.199-.806-5.291-2.306-8.099-4.99a21.2 21.2 0 0 1-3.851-4.957c-2.813-5.011-5.477-11.05-6.001-21.185-.65.475-1.29.964-1.94 1.457-2.94 2.228-5.979 4.54-9.751 6.323-2.058.973-5.835 2.486-10.331 3q-1.533.179-3.078.183c-.876 0-1.744-.047-2.587-.14a21 21 0 0 1-2.472-.422c-10.71-2.486-17.326-7.457-20.81-15.638a24 24 0 0 1-1.662-5.795 24 24 0 0 1-.266-2.992q-.045-1.528.105-3.05c.213-2.231.602-4.652 1.274-7.063q.225-.81.488-1.61.266-.798.584-1.591a25 25 0 0 1 2.35-4.557c.32-.48.655-.951 1.007-1.404a19.5 19.5 0 0 1 3.089-3.144 18.5 18.5 0 0 1 2.267-1.566q.406-.24.833-.463.87-.45 1.779-.814a16 16 0 0 1 1.331-.46 15.5 15.5 0 0 1 4.286-.587c5.42 0 10.575 2.595 12.956 6.419q.126-.342.257-.737c.624-1.854 1.4-4.626 2.312-7.901 2.084-7.471 4.932-17.702 8.848-27.426.58-1.431 1.151-2.887 1.731-4.361q.663-1.695 1.339-3.397c3.166-7.942 6.624-15.882 11.804-22.214-7.203-5.16-13.958-8.387-19.872-10.401-.488-.17-.976-.327-1.457-.48-9.131-2.878-16.056-2.878-19.195-2.878l-1.125.005c-11.81.157-22.093 1.792-31.883 5.142a94 94 0 0 0-10.462 4.32c-.903.437-1.801.885-2.699 1.352-.428.227-.86.44-1.286.67-7.854 4.232-15.089 9.692-21.482 16.098a99.926 99.926 0 0 0-20.831 30.67 96 96 0 0 0-4.898 14.173c-1.351 5.198-2.603 10.74-3.196 16.8a74 74 0 0 0-.363 7.542 73 73 0 0 0 1.514 14.582 83 83 0 0 0 1.954 7.61c1.853 6.07 4.556 12.594 8.376 19.646 1.745 3.217 3.747 6.397 5.91 9.524 7.483 10.798 17.033 20.985 25.698 30.213"/><path fill="#fff" d="M766.807 495.317c-14.369.065-14.372 21.922 0 21.987 14.381-.065 14.377-21.926 0-21.987m0 19.63c-11.207.164-11.206-17.435 0-17.273 11.212-.163 11.213 17.44 0 17.273"/><path fill="#fff" d="M771.32 503.762c.09-4.693-6.022-3.668-9.028-3.735v12.565h2.362v-5.111h1.69l2.379 5.11h2.6l-2.477-5.318a3.73 3.73 0 0 0 2.475-3.511m-3.725 1.37h-2.941v-2.746h2.94c1.78-.027 1.785 2.775 0 2.746"/></svg>