<svg xmlns="http://www.w3.org/2000/svg" viewBox="0 0 960 640"><path fill="#fff" d="M748.218 196.054c-39.23-39.226-91.255-61.013-146.66-61.453 3.991-18.268 10.201-37.769 18.534-58.125l.153-.385a13.22 13.22 0 0 0-1.19-12.201 13.22 13.22 0 0 0-10.702-5.964l-.388-.01q-3.76-.105-7.523-.105c-20.775 0-62.212 2.477-106.325 19.078-46.614 17.54-83.895 45.824-110.819 84.073-11.098 15.769-26.052 41.428-34.258 74.118a309 309 0 0 0-3.119 13.714q-2.297.045-4.613.044c-18.42 0-40.6-2.032-65.91-6.053-22.485-3.576-59.93-16.1-67.977-19.144a396 396 0 0 1-17.444-7.091l-6.793-3-32.864-14.592 19.746 38.471c7.68 16.376 14.696 29.642 19.855 37.7 13.44 20.985 28.97 38.188 46.988 51.964l17.967 33.274c10.57 19.602 21.281 35.274 32.737 47.921 6.375 7.034 13.432 13.209 18.224 17.147 6.602 5.429 13.98 10.387 21.934 14.735l9.36 20.295c.985 2.128 10.858 19.549 25.462 34.019 9.428 9.34 26.117 19.986 35.14 23.675l1.111.467c6.874 2.913 25.128 10.645 54.188 10.645 5.374 0 11.02-.293 16.79-.864l.733-.074c4.351 5.534 6.62 9.669 6.933 12.62.231 2.124-.575 4.095-2.145 7.64-.824 1.662-2.922 3.728-5.35 6.123l-.097.096c-1.448 1.431-3.09 3.053-4.696 4.85l-.467.522a13.15 13.15 0 0 0-2.037 14.575c2.198 4.513 6.86 7.43 11.88 7.43.274 0 .548-.008.832-.022l.694-.047c10.51-.659 32.204-6.59 46.844-24.653 3.671-4.53 6.764-9.235 9.35-14.25 21.515 7.339 44.2 11.058 67.544 11.058 56.051 0 108.742-21.83 148.378-61.461 39.632-39.64 61.462-92.332 61.462-148.383s-21.83-108.741-61.462-148.377Z"/><path fill="#010101" d="M743.012 201.261c-38.245-38.245-89.088-59.304-143.176-59.304-2.376 0-4.827.053-7.291.14 4.614-25.267 13.039-49.605 20.724-68.39l.152-.38a5.8 5.8 0 0 0 .404-2.764 5.843 5.843 0 0 0-5.663-5.278l-.402-.008q-3.657-.105-7.316-.106c-20.274 0-60.713 2.42-103.732 18.608-45.205 17.008-81.335 44.403-107.391 81.422-10.74 15.254-25.21 40.076-33.142 71.671a303 303 0 0 0-4.143 19.082l-.711.031c-3.266.144-6.636.218-10.016.218-18.81 0-41.376-2.067-67.07-6.145-23.034-3.662-61.227-16.431-69.425-19.531a411 411 0 0 1-20.082-8.235l-3.114-1.376-14.91-6.625 8.635 17.836c7.388 16.205 15.442 30.696 20.78 39.033 20.108 31.399 45.034 53.992 76.2 69.068 18.413 8.905 39.75 12.825 50.832 14.369 8.298 1.155 22.436 2.245 29.09 2.245h.009l1.283-.012a213 213 0 0 0 1.892 6.837q-.597.002-1.186.004c-12.7 0-24.133-.911-38.24-3.043-11.674-1.766-22.581-4.239-33.343-7.548-4.64-1.431-9.476-2.993-13.45-4.732l-16.322-7.153 8.465 15.678c10.29 19.07 20.666 34.272 31.716 46.469 6.075 6.702 12.839 12.62 17.444 16.406 6.384 5.25 13.544 10.038 21.28 14.233 20.884 11.308 40.557 16.355 63.778 16.355q.444-.002.902-.009l3.917-.036q2.61 3.357 5.31 6.642a96 96 0 0 1-6.357.201c-3.018 0-6.467-.123-10.85-.38-11.77-.693-31.141-4.94-36.47-7.483l-15.332-7.339 7.12 15.442c.873 1.874 10.336 18.376 23.968 31.882 8.56 8.477 24.399 18.681 32.803 22.114l1.138.479c6.493 2.752 23.748 10.06 51.309 10.06h.004c5.134 0 10.532-.278 16.057-.827l4.409-.441c1.016.994 1.906 1.958 2.642 2.886 11.732 14.836 9.428 20.16 5.883 28.163-1.352 2.839-3.907 5.355-6.864 8.273l-.086.086c-1.444 1.426-2.936 2.896-4.388 4.523l-.467.519a5.842 5.842 0 0 0 1.18 8.797c.946.614 2.05.94 3.177.94.122 0 .244 0 .37-.008l.694-.05c9.31-.58 28.55-5.86 41.585-21.938 5.285-6.52 8.77-12.864 11.23-18.82 22.57 8.559 46.586 12.903 71.382 12.903 54.083 0 104.93-21.063 143.175-59.308 38.245-38.244 59.303-89.092 59.303-143.171S781.257 239.505 743.01 201.26"/><path fill="#b9975b" d="M796.471 344.433c0 52.523-20.453 101.901-57.594 139.043-37.137 37.136-86.514 57.593-139.037 57.593-24.185 0-47.533-4.239-69.472-12.581a112 112 0 0 0 2.363-8.081c1.082-4.221 1.688-8.817 2.177-13.658 2.032-.606 4.783-1.626 10.252-4.086 6.489-2.922 10.74-4.941 11.425-5.264 14.007 3.951 28.559 5.957 43.255 5.957 42.449 0 82.355-16.532 112.375-46.548 30.015-30.015 46.547-69.925 46.547-112.374 0-44.956-19.166-87.993-52.587-118.105-.022-.532-.052-2.926.968-6.306.244-.806.493-1.674.737-2.533.245-.868.48-1.688.711-2.447 12.001 12.001 18.987 9.781 19.235 9.668a2.9 2.9 0 0 1 1.501-.405c2.459 0 5.006 2.769 5.289 3.083l.036.043.043-.047-.043.039.2-.21.205-.213v-.005c-.349-.396-3.197-3.801-1.866-6.476.126-.296 2.956-7.439-9.729-20.909l-.315-.336-.174.427c-.048.123-1.133 2.948-.061 7.984l.043.332c0 .03.345 2.882-1.233 4.675-.855.972-2.137 1.465-3.799 1.465l-1.369-.096c-2.133-.68-4.178-1.024-6.075-1.024l-1.22.052c.226-.576.483-1.169.78-1.805.545-1.174 1.06-2.36 1.317-3.493l.798-.127c2.316 0 4.871 2.101 5.172 2.355l.043.039.035-.053-.039.049.175-.24.169-.24c-.378-.331-3.693-3.323-2.738-6.154.083-.313 1.901-7.779-12.524-19.37l-.363-.292-.109.449c-.03.126-.714 3.079 1.043 7.919l.083.319c.008.03.798 3.021-.733 5.023-.933 1.226-2.555 1.849-4.766 1.853a22 22 0 0 0-3.772-.34c-3.384 0-5.168.877-5.242.916l-.409.205.361.288c2.97 2.359 5.595 4.051 7.946 5.316l-.764.288c-.68.257-1.378.528-2.124.793a83 83 0 0 0-4.84 1.945 37 37 0 0 0-3.397 1.731c-25.515-16.322-55.086-24.952-85.521-24.952-3.501 0-7.038.117-10.55.348-.657-12.41.272-25.222 2.234-37.882 2.769-.118 5.552-.179 8.316-.179 52.523 0 101.9 20.457 139.037 57.594 37.14 37.14 57.594 86.519 57.594 139.041"/><path fill="#fff" d="m719.267 386.601-2.137 9.206 5.953 25.079s-17.421 2.73-25.175 3.898c-2.384 8.003-14.33 39.405-14.33 39.405l-2.39-1.181c-1.735-17.157-10.666-25.93-20.866-32.498-5.725-3.68-12.267-6.205-18.507-8.189-8.43-2.678-17.178-4.3-26.026-5.596 1.527-3.592 1.103-7.923-.005-10.631-1.814-4.449-4.552-7.474-7.025-10.632 10.89-1.854 12.15-9.555 11.714-14.251-1.374 2.398-7.196 12.249-15.791 10.309-17.665-20.815-20.675-21.944-22.384-28.66-1.221-4.796 1.033-10.963 6.075-14.369 9.218-5.729 14.971.088 24.298 11.815 4.959 6.231 22.868 29.993 34.643 43.351 9.004 10.221 18.014 16.796 29.178 22.645 6.136 3.218 13.218 5.643 13.218 5.643l1.465-2.342s-8.735-8.704-14.3-19.763c-2.734-5.429-4.8-11.19-6.105-16.807-3.252-14.033-.126-28.498-.126-28.498s-8.273 1.365-15.974-9.982c-2.018-2.974-3.911-9.908-4.51-14.325-.422-3.149-.72-5.591-.766-8.22 14.155-12.913 33.426-36.013 40.8-37.726 2.228 4.627 34.442 72.94 34.442 72.94l-7.222 3.465.03 7.86-18.855 13.828z"/><path fill="#c8102e" d="M500.813 546.423a33 33 0 0 0 .148-1.208c.942-9.157-1.683-15.502-4.212-20.727-2.386-4.927-5.53-8.708-8.548-12.159-5.385-6.169-12.446-11.555-16.17-14.215-.64-.458-64.305-46.517-91.748-113.29-21.063-51.209-18.507-96.855-12.66-126.13 1.933-9.676 4.328-18.742 7.536-28.546l.1-.322c11.452-35.031 28.652-59.146 41.063-73.209 40.215-45.585 104.795-73.01 177.559-75.5-5.267 13.14-10.121 29.283-14.446 48.056-.807 3.515-7.723 34.49-5.975 59.709-22.353 6.637-42.405 17.509-59.617 32.331-11.988 10.322-22.606 23.741-29.902 37.783-9.28 17.87-11.072 32.383-12.381 42.98a323 323 0 0 1-.467 3.68c-2.045 15.229 2.944 53.892 24.168 78.51 5.818 6.754 13.894 16.772 24.12 29.448l.13.165c6.8 8.43 14.47 17.941 23.1 28.507-3.108 3.122-10.011 10.48-16.083 24.875-3.035 7.195-4.957 14.15-5.716 20.666-.301 2.565-.511 5.254-.738 8.093-.61 7.75-1.294 16.48-4.015 25.127-1.82 5.787-3.912 10.484-6.581 14.779-2.477 3.995-5.573 7.75-8.665 10.597"/><path fill="#010101" d="m712.197 364.507-14.44 8.743.359.873 24.076-5.8zM696.246 331.8s-.231-3.693-1.2-5.145c-.967-1.452 4.335-3.716 4.335-3.716l-2.743-1.499-.663 1.19-12.38 4.334-10.318 8.46 8.849-2.847 18.18 2.32zM646.422 175.615c.619-1.186 1.919-1.783 3.859-1.783 1.584 0 3.044.409 3.323.492l.057.013.078-.278.035-.297c-.484-.152-4.719-1.548-4.993-4.527-.052-.322-1.4-7.884-19.275-12.672l-.445-.118.079.453c.021.131.588 3.119 4.169 6.847l.192.236c.017.026 1.945 2.45 1.352 4.897-.363 1.499-1.596 2.72-3.615 3.615-5.705 1.426-7.923 4.052-8.016 4.165l-.292.357.444.114c4.54 1.19 8.645 1.792 12.194 1.792 8.15 0 10.719-3.127 10.854-3.306"/><path fill="#010101" d="M672.15 182.21c1.928 0 3.899.85 4.278 1.02l.053.026.122-.271.074-.286c-.458-.219-4.461-2.186-4.327-5.173-.004-.323-.291-8.002-17.334-15.206l-.426-.179.016.458c.005.132.153 3.166 3.176 7.348l.16.271c.017.026 1.592 2.694.668 5.036-.567 1.431-1.958 2.473-4.082 3.079-5.843.623-8.403 2.921-8.513 3.022l-.34.31.428.178c5.94 2.468 11.146 3.724 15.485 3.724 5.359 0 7.427-1.923 7.549-2.045.623-.872 1.639-1.312 3.013-1.312"/><path fill="#010101" d="M694.559 188.993c.04-.318.811-7.962-15.076-17.452l-.396-.24-.049.463c-.012.13-.283 3.148 2.129 7.701l.126.301c.013.03 1.208 2.886-.034 5.08-.76 1.339-2.281 2.177-4.466 2.486l-.785-.013c-5.351 0-7.954 1.757-8.063 1.832l-.38.257.398.235c8.429 4.976 14.146 6.022 17.456 6.022 3.466-.004 5.019-1.094 5.129-1.177.588-.623 1.394-.942 2.393-.942 2.171 0 4.579 1.483 4.863 1.661l.052.031.157-.249.114-.274c-.424-.275-4.118-2.778-3.568-5.722m48.429 54.392 1.112-.227c2.608 0 4.98 3.428 5.242 3.82l.03.043.245-.165.213-.205c-.275-.423-2.647-4.203-.955-6.672.166-.279 3.955-6.96-6.741-22.056l-.271-.376-.231.402c-.061.108-1.54 2.772-1.16 7.931l-.008.297c0 .222-.118 5.465-4.82 5.465-.723 0-1.53-.127-2.354-.354-3.602-1.732-6.36-1.989-7.675-1.989-.73 0-1.134.074-1.151.079l-.454.087.27.375c8.818 12.289 15.463 13.619 17.914 13.619z"/><path fill="#010101" d="m755.426 263.974.737-.096c2.782 0 4.832 4.068 5.059 4.531l.025.047.263-.126.244-.179c-.218-.454-2.041-4.531-.027-6.738.205-.252 4.88-6.35-3.637-22.777l-.213-.409-.28.366c-.083.105-1.901 2.525-2.246 7.661l-.047.332c-.035.197-.781 4.802-4.744 4.802-.93 0-1.976-.258-3.066-.733-4.466-2.961-7.758-3.113-8.374-3.113l-.566.026.213.405c8.177 15.564 15.665 16.009 16.493 16.009z"/><path fill="#010101" d="m764.899 286.085.358-.022c2.99 0 4.588 4.653 4.77 5.207l.018.06.279-.095.267-.135c-.148-.484-1.396-4.771.907-6.681.236-.223 5.708-5.617-.458-23.06l-.153-.436-.331.323c-.096.091-2.237 2.241-3.288 7.295l-.088.305c-.013.039-1.27 4.143-4.705 4.143-1.1 0-2.315-.409-3.59-1.195-4.404-3.894-7.827-4.239-7.971-4.248l-.462-.043.16.436c6.26 17.413 13.913 18.124 14.287 18.146"/><path fill="#010101" d="M767.247 294.306c-3.82-4.462-7.169-5.277-7.308-5.312l-.445-.101.092.45c3.798 18.11 11.277 19.872 11.647 19.946 3.24.062 4.253 5.233 4.361 5.844l.013.061.288-.052.28-.105c-.08-.498-.725-4.915 1.822-6.489.262-.183 6.428-4.771 2.73-22.903l-.096-.45-.37.275c-.1.079-2.526 1.915-4.262 6.773l-.126.283c-.017.039-1.63 3.502-4.657 3.502-1.256 0-2.604-.593-3.969-1.723M625.263 168.077c.654-9.681-29.043-1.958-29.043-1.958s28.41 11.317 29.043 1.958m-17.387 352.715.058.284v-.036l.008.036-.017-.589-.258.004c-.955 0-5.734-.152-6.415-3.174-.122-.297-3.332-7.279-21.83-7.427h-.463l.193.419c.056.131 1.513 3.244 6.602 6.083 1.762 1.418 2.63 2.917 2.59 4.462-.066 2.515-2.56 4.352-2.586 4.373l-.161.126c-4.496 2.683-5.835 5.452-5.891 5.57l-.197.417.633.005c18.354 0 21.612-6.907 21.747-7.216 1.038-2.792 5.49-3.036 5.996-3.053z"/><path fill="#010101" d="m632.328 518.423-.048-.279.096.271-.005-.032.014.031-.1-.579-.058.008.049.187v.092l-.049-.279c-.217.034-1.011.152-2.001.152-1.871 0-4.244-.401-4.985-2.381-.122-.2-3.083-4.871-15.097-4.871-2.324 0-4.867.18-7.557.533l-.453.06.244.389c.078.123 1.953 3.004 7.382 5.111 1.942 1.163 3.009 2.529 3.179 4.06.284 2.507-1.931 4.666-1.953 4.687l-.248.236c-3.995 3.241-4.924 6.127-4.959 6.249l-.139.44.458-.061c18.332-2.512 20.617-9.846 20.71-10.178.64-2.896 4.997-3.754 5.516-3.846z"/><path fill="#010101" d="m656.044 511.844-.061.016c-.296.093-1.81.537-3.423.537-1.876 0-3.149-.585-3.798-1.783-.101-.127-2.626-3.123-10.463-3.123-3.646 0-7.875.658-12.572 1.954l-.444.122.296.353c.096.109 2.351 2.708 8.024 4.042 2.076.885 3.323 2.09 3.707 3.585.628 2.438-1.27 4.889-1.291 4.915l-.178.231c-3.537 3.777-4.065 6.776-4.087 6.903l-.074.458.445-.127c17.81-5.014 19.061-12.598 19.109-12.934.231-2.966 4.453-4.418 4.933-4.574l-.088-.271.135.258-.009-.03.018.025z"/><path fill="#010101" d="m678.749 502.625-.052.026.1.166.026.087-.126-.253c-.384.179-2.398 1.078-4.348 1.078-1.33 0-2.325-.428-2.983-1.313-.082-.079-2.105-1.906-7.252-1.906-4.395 0-9.685 1.321-15.72 3.929l-.424.184.344.304c.105.096 2.696 2.36 8.5 2.901 2.18.588 3.585 1.609 4.169 3.035.955 2.328-.584 5.019-.602 5.041l-.095.192c-3.027 4.264-3.14 7.34-3.14 7.47l-.013.462.423-.188c16.946-7.426 17.142-15.109 17.138-15.45-.175-2.965 3.801-4.988 4.26-5.211l-.123-.257.167.235-.013-.026.017.026z"/><path fill="#010101" d="m699.966 490.364-.044.031.117.153.036.087-.153-.24c-.27.179-2.712 1.727-4.91 1.727-.969 0-1.758-.305-2.39-.942-.061-.044-1.565-1.077-4.888-1.077-3.332 0-9.093 1.082-17.587 6.249l-.394.239.385.254c.104.069 2.63 1.727 7.77 1.727l1.047-.027c2.241.279 3.773 1.099 4.553 2.429 1.27 2.176.113 5.05.1 5.08l-.069.192c-2.412 4.645-2.098 7.71-2.081 7.842l.053.458.392-.24c15.76-9.699 14.893-17.33 14.844-17.67-.584-2.914 3.079-5.469 3.498-5.748l-.157-.24.196.213-.018-.03.027.027z"/><path fill="#010101" d="m719.285 475.293-.044.036v.004c-.296.253-2.856 2.425-5.194 2.425a3.02 3.02 0 0 1-1.922-.651c-.04-.017-1.056-.527-3.075-.527-3.532 0-9.607 1.522-18.472 8.757l-.354.292.414.2c.07.036 1.78.846 5.006.846 1.279 0 2.63-.126 3.965-.384h.166c2.184 0 3.763.611 4.687 1.806 1.54 1.98.798 4.963.79 4.993l-.043.201c-1.75 4.933-1.008 7.923-.978 8.054l.114.445.357-.292c14.269-11.778 12.354-19.222 12.263-19.55-.985-2.808 2.289-5.839 2.665-6.179l-.19-.209.229.178-.022-.026.026.022z"/><path fill="#010101" d="m736.339 457.699-.035.043c-.288.332-2.821 3.153-5.29 3.153a3 3 0 0 1-1.508-.41c-.027-.008-.603-.205-1.684-.205-2.996 0-9.385 1.474-18.525 11.325l-.31.34.432.145c.04.008.999.313 2.744.313 1.944 0 4.05-.37 6.204-1.089 2.368-.363 4.152.078 5.25 1.307 1.585 1.775 1.283 4.61 1.279 4.64l-.04.336c-1.007 5.046.119 7.858.166 7.981l.18.426.308-.34c12.512-13.636 9.59-20.744 9.45-21.058-1.36-2.643 1.466-6.096 1.789-6.48l-.213-.187.248.147-.026-.021.03.017z"/><path fill="#010101" d="m750.803 437.915-.031.048c-.27.41-2.607 3.886-5.224 3.886l-1.134-.227-.658-.048c-1.915 0-8.853.999-17.82 13.854l-.26.38.454.078c.012.005.37.066 1.016.066 1.333 0 4.12-.275 7.74-2.071.898-.271 1.73-.407 2.473-.407 4.617 0 4.805 5.177 4.809 5.4l.009.262c-.314 5.189 1.204 7.844 1.269 7.953l.235.402.258-.385c10.505-15.231 6.628-21.864 6.45-22.152-1.71-2.425.598-6.223.876-6.673h.004l-.24-.152.267.109-.031-.017.035.013z"/><path fill="#010101" d="m762.908 416.626-.257-.117.278.074-.03-.017.031.008-.532-.244-.027.052c-.222.475-2.236 4.592-5.032 4.592l-.759-.096h-.077c-.825 0-8.291.454-16.314 16.223l-.167.431h.48c.611 0 3.886-.157 8.33-3.192 1.159-.532 2.224-.803 3.17-.803 3.907 0 4.705 4.544 4.736 4.736l.057.336c.41 5.129 2.263 7.527 2.341 7.631l.288.363.205-.415c8.303-16.54 3.55-22.571 3.332-22.838-2.037-2.167-.263-6.266-.053-6.724"/><path fill="#010101" d="M771.238 394.579v-.004l-.27-.088.288.04-.031-.008h.03l-.557-.171-.017.053c-.175.549-1.75 5.246-4.762 5.246l-.385-.022c-.322.026-7.967.789-14.111 18.246l-.153.435.458-.043c.144-.013 3.567-.383 7.902-4.274 1.32-.832 2.547-1.251 3.649-1.251 3.41 0 4.693 4.072 4.706 4.112l.07.187c1.077 5.129 3.262 7.297 3.358 7.388l.33.322.153-.436c6.045-17.491.537-22.841.289-23.077-2.294-1.875-1.1-6.14-.947-6.655"/><path fill="#010101" d="M778.402 378.097c-2.53-1.562-1.89-5.984-1.811-6.481l-.28-.048.228-.008.06.008-.03-.008h.03l-.574-.097-.008.057h-.005c-.105.598-1.112 5.783-4.413 5.857-.314.066-7.79 1.835-11.574 19.951l-.096.449.449-.105c.139-.035 3.485-.845 7.266-5.28 1.399-1.17 2.751-1.758 4.006-1.758 3.024 0 4.641 3.458 4.658 3.493l.092.183c1.74 4.936 4.199 6.799 4.304 6.873l.37.275.092-.454c3.685-18.132-2.486-22.712-2.765-22.907M550.33 513.435s26.653 15.207 28.55 5.687c1.832-9.197-28.55-5.687-28.55-5.687M778.312 334.13a9.01 9.01 0 1 0 0 18.018 9.01 9.01 0 0 0 0-18.018"/><path fill="#b9975b" d="M556.66 400.304c9.241 9.837 17.387 18.52 20.518 25.432q.249.55.458 1.081.228.602.41 1.217.14.465.24.916a44 44 0 0 1 .954 6.458q.098 1.493.097 2.865a39 39 0 0 1-.11 2.752 39 39 0 0 1-.2 2.032l-.078.602c-.306 2.18-.738 4.099-1.13 5.791 3.083-2.525 7.391-6.38 10.767-9.45l.894-.815c1.155-1.06 2.163-1.984 2.913-2.678q.613-.569 1.247-1.138.64-.572 1.3-1.155c.881-.781 1.797-1.575 2.734-2.39 3.507-3.057 7.086-6.171 9.86-9.167 1.657-1.792 3.031-3.546 3.916-5.211l.266-.489c.999-1.853 1.67-3.109 1.63-5.315a13.5 13.5 0 0 0-.147-1.701 13 13 0 0 0-.873-3.188c-.702-1.661-1.748-3.227-3.179-5.098a174 174 0 0 0-4.457-5.604 214 214 0 0 0-5.236-6.061q-1.122-1.244-2.255-2.477-.684-.743-1.374-1.478c-.362-.393-.729-.781-1.086-1.17q-.655-.692-1.294-1.373-.113-.123-.223-.24-.427-.45-.847-.893-.456-.488-.907-.96c-5.978-6.353-10.169-11.028-11.957-16.209a15 15 0 0 1-.697-2.678c-.036-.183-.053-.37-.079-.558q-.013-.09-.022-.174a19 19 0 0 1-.096-4.208c1.901-13.171 18.368-21.992 30.012-7.348l4.547 5.656s21.43 27.046 32.882 40.922l5.895 6.955c.214.227.397.428.554.584 9.66 11.348 27.277 20.331 31.503 22.272-.305-.363-.658-.781-1.043-1.247-2.105-2.573-5.206-6.655-7.753-11.178a48 48 0 0 1-1.923-3.776q-.17-.375-.34-.754a134 134 0 0 1-1.923-4.465c-1.235-3.053-2.394-6.408-3.323-10.288a70 70 0 0 1-1.16-6.044l-.053-.349q-.144-1.048-.262-2.055a99 99 0 0 1-.143-1.382q-.099-1.019-.162-2.041-.007-.07-.008-.139a54 54 0 0 1-.101-2.007 71 71 0 0 1-.048-2.99 66 66 0 0 1 .07-2.7 60 60 0 0 1 .475-5.486c.127-.99.258-1.722.341-2.163a21 21 0 0 1-2.491-.75c-2.202-.807-5.289-2.307-8.098-4.99a21 21 0 0 1-3.851-4.957c-2.812-5.011-5.476-11.051-6.004-21.186-.646.476-1.286.964-1.936 1.457-2.94 2.229-5.979 4.539-9.751 6.323-2.059.973-5.839 2.486-10.332 3.001-.993.113-2.023.183-3.078.183-.877 0-1.745-.048-2.59-.139a21 21 0 0 1-2.469-.424c-10.714-2.486-17.325-7.457-20.809-15.638a24 24 0 0 1-1.662-5.795 25 25 0 0 1-.27-2.991 24 24 0 0 1 .109-3.048c.213-2.234.602-4.654 1.273-7.065a31 31 0 0 1 1.068-3.202 25.4 25.4 0 0 1 2.352-4.557c.317-.479.653-.95 1.011-1.404a19.3 19.3 0 0 1 3.087-3.144 18 18 0 0 1 2.268-1.565q.406-.242.833-.463.87-.45 1.779-.815.654-.26 1.33-.459a15.5 15.5 0 0 1 4.287-.588c5.421 0 10.575 2.595 12.956 6.419.082-.227.165-.475.257-.737.623-1.853 1.4-4.626 2.311-7.902 2.085-7.47 4.932-17.7 8.849-27.425q.874-2.177 1.731-4.361.662-1.702 1.34-3.397c3.165-7.941 6.623-15.882 11.803-22.214-7.204-5.159-13.963-8.386-19.872-10.401a51 51 0 0 0-1.46-.479c-9.129-2.879-16.053-2.879-19.193-2.879l-1.125.005c-11.81.157-22.096 1.792-31.883 5.141a95 95 0 0 0-10.466 4.321q-1.347.654-2.695 1.352c-.427.227-.858.441-1.29.672-7.849 4.23-15.088 9.69-21.478 16.096q-.023.028-.047.048c-8.692 8.722-15.817 19.183-20.788 30.622a97 97 0 0 0-4.894 14.172c-1.35 5.198-2.603 10.742-3.196 16.803a75 75 0 0 0-.366 7.54c.008 3.253.235 6.65.754 10.221q.308 2.138.763 4.362a82 82 0 0 0 1.955 7.609c1.853 6.07 4.557 12.594 8.377 19.646 1.744 3.218 3.746 6.397 5.91 9.524 7.478 10.798 17.033 20.985 25.697 30.213"/><path fill="#b9975b" d="m608.007 71.128-.415-.009a241 241 0 0 0-7.151-.1c-19.877 0-59.517 2.367-101.674 18.232-44.084 16.585-79.302 43.273-104.668 79.316-10.454 14.853-24.535 39.007-32.254 69.729-12.759 50.808-8.482 89.341-4.796 107.783 3.571 17.911 11.49 40.146 20.657 58.03 1.84 3.597 11.238 20.138 17.478 29.191a295 295 0 0 0 20.723 26.637c9.912 11.337 16.201 17.299 21.25 22.096 1.732 1.639 3.227 3.056 4.654 4.487 7.208 7.239 15.101 13.306 22.065 18.656 7.117 5.468 13.262 10.191 16.851 14.726 13.955 17.645 10.549 25.328 6.611 34.224-1.793 3.803-4.841 6.812-8.072 9.996-1.409 1.39-2.865 2.825-4.225 4.342l-.463.524.698-.048c8.359-.523 25.65-5.281 37.411-19.785 8.718-10.758 12.163-21.098 14.383-29.789 1.386-5.425 1.958-11.788 2.564-18.517.352-3.954.724-8.036 1.268-12.048.885-6.463 2.857-13.297 5.408-18.752 4.125-8.84 8.547-15.502 13.48-20.339-1.518-1.553-2.992-3.157-4.457-4.771-5.285 5.517-11.552 14.971-14.617 22.162-5.5 12.908-6.159 20.4-6.638 25.873-.127 1.47-.24 2.739-.428 3.955-.2 1.309-.317 3.001-.462 4.959-.549 7.566-1.466 20.225-8.865 33.639-5.211 9.437-12.202 16.506-21.346 21.581 2.214-3.17 4.639-9.61 3.919-17.561-1.382-15.328-13.265-27.198-22.99-34.454-29.566-22.079-54.223-47.329-73.279-75.051-18.713-27.22-31.132-55.491-36.919-84.029-7.039-34.746-5.844-71.12 3.454-105.205 8.991-32.95 25.345-63.254 47.293-87.645 43.234-48.055 107.15-74.229 184.856-75.712l-.898 2.538c-4.182 11.831-8.503 24.068-12.071 37.547-2.765 10.453-5.019 21.006-6.894 32.27-2.207 13.297-2.996 27.09-2.081 38.28l6.067-1.387c-2.281-40.604 12.04-84.936 24.416-115.187zm95.534 147.86c1.042-3.895 2.542-7.035 3.536-9.115.759-1.583 1.213-2.538 1.16-3.083l-.017-.139-.114-.074-.772-.14c-4.608 0-24.141 5.442-43.054 22.106-12.402 10.923-17.047 22.654-20.121 30.416l-.506 1.269c-7.771 19.432-14.848 45.479-16.61 55.919-1.16-4.417-2.805-9.585-4.58-11.717-1.744-2.102-4.626-4.898-9.475-4.898-.75 0-1.544.066-2.346.201-4.65.772-8.853 4.548-10.715 9.607l-.052.148c-1.256 3.406-2.438 6.615-2.268 12.241.09 3.122.959 6.441 2.268 8.652 4.649 7.871 11.839 11.862 21.368 11.862 1.229 0 2.512-.066 3.816-.197 3.706-.37 7.648-1.893 11.399-4.4 8.66-5.787 15.663-13.217 23.082-21.085 4.203-4.452 8.55-9.062 13.235-13.339 2.882-2.631 9.638-8.788 16.53-12.808 5.139-2.992 10.289-5.102 15.322-6.276l.793-.436-.165-1.016-.184-.462c-1.71-4.457-3.117-10.174-4.317-17.487-.981-6.035-1.565-12.006-1.216-21.543.187-5.241 1.735-15.734 4.003-24.206M560.135 481.872c5.604-2.552 11.399-5.19 17.487-7.78 13.296-5.643 23.218-9.105 35.4-12.35 12.229-3.258 24.523-6.189 40.483-6.288h.27c4.579 0 10.397.688 14.383 1.682-5.543-16.458-24.905-22.13-32.24-24.277-6.972-2.04-23.1-4.713-28.385-5.215l-.754-.069.615-.445c1.735-1.265 2.708-2.477 3.928-4.013l.973-1.203.1-.118.157.022c9.35 1.095 19.419 3.187 27.622 5.744 8.696 2.707 16.13 6.358 22.1 10.853 3.298 2.482 6.106 5.591 8.845 9.782 3.449 5.272 4.644 13.506 4.613 18.952v.527l-.44-.291c-4.126-2.717-8.36-4.392-12.585-4.98-3.022-.419-6.272-.629-9.66-.629-8.438 0-17.866 1.27-28.808 3.882-10.178 2.425-20.203 5.46-30.648 9.279-11.695 4.27-20.901 8.321-33.604 14.016q-2.907 1.305-5.8 2.638c-6.201 2.839-12.097 5.539-18.591 7.781.214-2.36.441-4.75.716-7.122 8.477-3.397 16.27-6.938 23.823-10.378"/><path fill="#b9975b" d="M453.032 516.066c-26.378 0-42.84-6.978-49.037-9.603l-1.16-.483c-7.776-3.179-22.986-12.992-30.944-20.88-12.83-12.708-21.996-28.512-22.773-30.182l-.331-.72.715.345c6.567 3.136 26.793 7.348 38.646 8.046 4.509.265 8.062.388 11.194.388 4.378 0 7.976-.245 11.9-.649.267.304.528.614.799.924a368 368 0 0 0 4.653 5.224c-4.082.392-8.831.637-15.037.785l-1.063.013c-7.732 0-29.654-1.626-36.121-3.249 12.385 16.052 23.509 26.972 42.993 35.075a104.5 104.5 0 0 0 22.219 6.454c7.527 1.303 16.27 1.936 26.74 1.936 1.483 0 3.032-.017 4.654-.04 2.66 2.045 5.172 3.978 7.43 5.814-5.232.522-10.426.802-15.477.802m-92.885-140.069q-2.288.084-4.578.083c-13.053 0-30.238-1.565-45.976-4.191-14.199-2.368-24.426-4.879-29.719-7.287.344.549.758 1.217 1.229 1.985 4.823 7.831 16.127 26.16 30.749 38.248 12.825 10.602 28.75 22.245 49.66 28.228 9.93 2.839 18.251 4.261 30.937 5.224a295 295 0 0 0 4.469 6.188c-.449.005-.902.018-1.347.018-22.197 0-41.009-4.828-60.995-15.651-7.4-4.012-14.247-8.592-20.352-13.606-4.457-3.663-10.989-9.381-16.825-15.817-10.731-11.844-20.835-26.671-30.905-45.322l-.392-.733.759.336c4.252 1.867 9.28 3.489 14.076 4.963 11.047 3.401 22.227 5.93 34.19 7.74 14.412 2.181 26.116 3.114 39.116 3.114 1.212 0 2.455-.013 3.703-.031a250 250 0 0 0 2.202 6.511m-56.64-109.381-.462-.048c-26.663-2.777-56.756-9.965-74.427-15.281-12.795-3.841-24.94-8.058-36.09-12.519l-.427-.188c3.863 8.36 8.403 16.671 13.492 24.691 13.71 21.626 29.963 39.13 48.3 52.03 23.894 16.806 50.892 23.867 58.471 25.345l.008-.109h.262l.131.017.977.201c3.292.649 20.391 3.872 34.337 3.872a77 77 0 0 0 3.402-.074c.147.785.291 1.557.436 2.281a179 179 0 0 0 .893 4.16c-.178.005-.361.005-.557.005-6.459 0-20.209-1.065-28.294-2.189-10.741-1.501-31.398-5.285-49.086-13.842-30.172-14.591-54.318-36.496-73.833-66.961-5.36-8.373-13.283-22.105-20.596-39.98l-.306-.75-.043-.018-.031-.131-.348-.667.662.297h.136l.043.079c7.597 3.384 15.062 6.462 22.193 9.157 8.316 3.144 47.096 16.1 70.575 19.833 25.996 4.13 48.868 6.223 67.981 6.223 3.554 0 7-.078 10.279-.227a279 279 0 0 0-.915 6.045c-4.989.575-10.183.859-15.814.859-11.11 0-21.865-1.121-31.349-2.111"/><path fill="#010101" d="M766.308 495.725c-6.066 0-10.99 4.922-10.99 10.995 0 6.068 4.924 10.992 10.99 10.992 6.073 0 10.996-4.924 10.996-10.992 0-6.073-4.923-10.995-10.996-10.995m0 19.631c-4.768 0-8.638-3.866-8.638-8.636s3.87-8.637 8.638-8.637c4.778 0 8.64 3.869 8.64 8.637s-3.862 8.636-8.64 8.636"/><path fill="#010101" d="M770.82 504.17a3.72 3.72 0 0 0-1.088-2.638 3.73 3.73 0 0 0-2.636-1.095l-5.303-.002V513h2.362v-5.111h1.689l2.38 5.111h2.6l-2.477-5.318a3.735 3.735 0 0 0 2.474-3.512m-3.724 1.372h-2.942v-2.746h2.942a1.374 1.374 0 0 1 0 2.746"/></svg>