<svg xmlns="http://www.w3.org/2000/svg" viewBox="0 0 960 640"><path fill="#97999b" d="m473.365 384.905 119.857-59.8c82.088 23.052 106.417 54.186 106.417 54.186l46.956-53.08c2.552-2.723 10.292-12.336 10.292-29.774 0-18.799-19.65-33.43-33.43-43.298-23.393-61.332-152.692-79.11-162.22-100.462-3.317-7.4-22.117-71.2-22.117-71.2-11.228-33.005-44.489-33.005-56.993-33.005-12.59 0-39.556 4.253-39.556 4.253 0 46.02-6.21 102.078-12.76 112.371 0 0-23.393 12.25-50.784 22.117l-65.5-44.149 17.183 59.376C220.381 263.091 193.5 368.828 193.5 368.828s28.327 222.7 307.511 222.7c147.588 0 232.824-71.369 232.824-71.369l-47.552-106.332s-72.645 37.77-165.452 37.77c-85.575 0-119.006-39.897-131.255-63.119 72.475 2.126 83.789-3.573 83.789-3.573"/><path fill="#00205b" d="M712.739 260.964c-22.798-61.587-148.61-72.816-162.475-101.908-5.614-11.654-12.76-39.47-23.138-73.412-8.336-24.498-32.92-24.498-45.17-24.498-11.739 0-26.965 2.381-26.965 2.381 0 25.095-4.764 97.995-16.418 110.585-2.892 3.573-24.329 12.25-47.636 21.266l6.975 4.68-7.146 7.145-13.44 13.44-14.716 46.105-19.225-10.037 6.805 17.098-34.281 5.7 19.395 6.72-55.803 42.872 15.057 1.191-19.906 35.983c28.667-13.015 37.429-15.482 37.429-15.482l-8.251-8.507 57.844-23.308s-4.338 11.57-4.338 34.026c0 3.233.51 7.997 1.616 13.526 7.145 34.962 41.257 107.097 161.794 107.097 87.192 0 154.479-30.453 154.479-30.453l31.219 69.923s-81.833 56.654-205.603 56.654c-252.984 0-285.054-198.883-285.054-198.883 34.877-93.316 93.572-134.148 130.916-151.5l-11.654-1.277-1.021-3.488c-98.591 54.357-127.768 155.16-127.768 155.16s30.028 209.26 294.751 209.26c135.424 0 217.342-62.778 217.342-62.778l-38.28-85.66S608.534 464.1 520.831 464.1c-130.575 0-149.885-89.064-149.885-89.064s74.347 4.424 98.166-1.956l122.919-61.417c83.279 23.478 107.267 48.912 107.267 48.912l38.109-42.873s6.976-6.55 6.976-21.266c-.085-13.78-20.671-27.646-31.644-35.472m-267.701 22.797-62.353-8.42 31.389-17.525zm-10.378-84.044-38.705 61.842-13.61-32.495zm-128.023 117.22 72.39-48.743-5.444 38.705z"/><path fill="#00205b" d="m368.649 303.157 4.594-26.286-48.998 33.261zm24.669-29.518 40.661 4.934-23.903-13.95zm-3.147-42.873 4.508 20.075 28.667-38.789z"/><path fill="#00205b" d="m281.542 333.44-14.461.34 60.396-45-26.2-10.378 42.873-8.252-14.886-30.113 26.455 15.057 10.548-32.836c-31.814 11.06-100.122 46.106-139.762 149.46 4.764 23.733 46.19 187.74 274.506 187.74 98.59 0 170.556-37.344 192.673-50.444l-23.564-52.826c-21.861 8.421-78.94 27.476-149.204 27.476-138.827.085-173.703-95.018-173.703-130.745 0-7.91.51-14.63 1.19-20.076l-31.899 10.548 4.168 9.017-24.924 9.017-21.436 14.121 43.553 8.081-9.017 31.134 18.714-5.529 17.949 45.68 21.437-2.722 7.145 32.07s40.406 27.986 108.884 34.111c90.424 8.081 171.321-22.798 171.321-22.798s-96.464 37.854-184.251 28.582c-67.032-7.06-110.67-34.366-110.67-34.366l-.51-28.922-26.456.34-12.419-44.319-23.563 11.058 10.378-39.64-45.17-5.529 9.187-27.647zm92.891-113.053 13.1-17.609L323.82 158.8l18.204 53.676z"/><path fill="#041c2c" d="M753.57 494.212c-7.145 0-12.93 5.784-12.93 12.93s5.785 12.93 12.93 12.93 12.93-5.785 12.93-12.93-5.784-12.93-12.93-12.93m0 23.138c-5.614 0-10.208-4.594-10.208-10.208s4.509-10.123 10.208-10.123c5.614 0 10.208 4.508 10.208 10.123-.085 5.7-4.594 10.208-10.208 10.208"/><path fill="#041c2c" d="M758.929 504.166c0-2.382-1.956-4.423-4.423-4.423h-6.21v14.801h2.807v-6.04h1.957l2.807 6.04h3.062l-2.892-6.295c1.616-.51 2.892-2.126 2.892-4.083m-4.423 1.616h-3.488v-3.232h3.488c.85 0 1.616.68 1.616 1.616s-.766 1.616-1.616 1.616m-72.731-240.649c-52.145-4.254-72.391-21.352-72.391-34.792 0-6.465 5.955-7.656 9.953-7.656 21.266 0 54.186 16.843 59.546 31.22-9.358-10.039-25.69-18.8-38.11-18.8-2.637 0-5.444.765-5.444 4.083 0 8.421 14.972 21.606 69.669 27.731-20.926-60.396-136.445-64.65-162.39-102.589-7.231-10.548-19.14-77.92-31.134-87.192-13.185-10.122-47.041-5.529-47.041-5.529 0 9.357-2.297 92.041-19.395 109.31-11.57 9.696-30.964 13.95-54.187 26.2l-13.44 13.44-14.716 46.105-19.225-10.038 6.805 17.098-34.281 5.7 19.395 6.72-55.803 42.873 15.057 1.191-19.906 35.982c28.667-13.015 37.429-15.482 37.429-15.482l-8.251-8.506 57.844-23.308s-4.338 11.57-4.338 34.026c0 3.232.51 7.996 1.616 13.525 2.467-4.763 47.977-88.723 145.462-94.422l-40.832 31.56-80.982 62.522s66.69 2.807 83.024-1.87c51.549-23.99 92.806-46.362 125.13-62.609 31.05-15.567 53.932-25.35 69.755-25.35 19.565 0 46.7 18.885 69.923 34.877 0 0 1.446-1.19 2.637-3.743 5.615-19.99-23.393-35.642-51.38-42.277M373.583 306.9l-66.946 10.037 72.39-48.742zm61.077-107.183-38.705 61.843-13.61-32.495zm-51.975 75.623 31.389-17.523 30.964 25.945zm113.137-103.354c-9.612.596-29.092 6.89-29.092 6.89s17.523-10.122 21.096-15.567c3.573-5.444 4.508-66.776 4.508-66.776s5.615 60.056 10.378 66.096c4.764 6.04 22.458 13.525 22.458 13.525s-22.288-4.593-29.348-4.168"/><path fill="#fff" d="M502.797 162.63c-4.764-6.04-10.378-66.096-10.378-66.096s-.936 61.332-4.508 66.776c-3.573 5.445-21.097 15.567-21.097 15.567s19.48-6.38 29.093-6.89c7.06-.425 29.432 4.168 29.432 4.168s-17.778-7.486-22.542-13.525M358.952 366.446c2.467-2.467 52.315-52.145 104.715-62.863l40.831-31.559c-97.484 5.784-142.994 89.744-145.546 94.422m376.243-67.627c0-12.419-16.332-20.84-30.198-31.899-54.697-6.125-69.668-19.31-69.668-27.73 0-3.319 2.807-4.085 5.444-4.085 12.42 0 28.752 8.762 38.109 18.8-5.444-14.29-38.279-31.219-59.545-31.219-3.999 0-9.953 1.276-9.953 7.656 0 13.44 20.245 30.538 72.39 34.792 27.987 6.635 56.994 22.202 51.38 42.362 1.106-2.042 2.041-4.849 2.041-8.677m-102.588-.085 20.33 7.231c3.743-1.616 7.826-3.573 8.167-4.083.255-.596.255-1.02-.596-1.787-.595-.595-9.697-3.913-15.312-6.039zm17.098-6.465c5.444 2.127 12.93 5.19 13.525 5.274.851.171 2.297.256 3.148 0 .68-.17 5.104-2.38 8.336-4.083-3.147-1.53-9.527-4.508-13.781-4.508-4.083.085-11.228 3.317-11.228 3.317m20.075 7.061c-.17.425 0 .765.681 1.276.765.595 11.313 6.04 12.164 6.124.851.086 1.531.086 2.382-.085.595-.17 4.253-2.466 6.72-4.168l-14.036-7.57c-3.657 1.786-7.571 3.912-7.91 4.423Zm9.953 11.143c.255-.51.34-.85.17-1.36-.68-.766-11.144-6.21-12.249-6.38-1.191-.17-1.872-.17-2.893.34-.935.425-6.209 3.402-8.166 4.423l16.333 7.401c3.147-1.872 6.55-3.998 6.805-4.424m20.075 5.785c.426.085 1.446-.17 2.552-.596.596-.255 2.978-2.21 4.594-3.572l-12.59-7.997c-3.062 1.957-6.21 4.084-6.55 4.51 0 .084.085.424.681 1.36zm5.189 1.276c-.34.765-.425 1.021-.255 1.191.425.425 6.975 4.763 11.399 7.741l5.104-5.104-11.654-7.486c-2.127 1.446-4.424 3.232-4.594 3.658m-7.23 2.126c.255-.425.085-.935-.341-1.446-.68-.595-10.718-6.039-11.483-6.209-.851-.17-2.382.085-3.148.34-.425.17-3.402 2.211-6.124 4.168l15.396 7.145c2.637-1.7 5.445-3.657 5.7-3.998m2.722 2.042c-.425.17-3.318 2.382-5.529 4.083l13.95 8.592 5.189-5.7c-4.253-2.892-10.378-7.145-10.888-7.315s-2.042.085-2.722.34"/><path fill="#fff" d="M590.925 301.712c75.198 19.99 107.267 46.02 107.267 46.02l7.996-9.017c-3.743-2.807-31.474-21.862-85.746-39.64 16.163-6.38 35.728-13.95 41.002-13.95 11.994 0 36.663 15.566 63.118 32.92l6.04-6.806c-23.138-15.992-50.274-34.877-69.924-34.877-15.907 0-38.789 9.783-69.753 25.35"/></svg>