<svg xmlns="http://www.w3.org/2000/svg" viewBox="0 0 960 640"><path fill="#97999b" d="m473.365 384.905 119.857-59.801c82.088 23.053 106.417 54.187 106.417 54.187l46.956-53.081c2.552-2.722 10.293-12.335 10.293-29.773 0-18.8-19.65-33.431-33.431-43.298-23.393-61.332-152.692-79.111-162.22-100.462-3.317-7.401-22.117-71.2-22.117-71.2-11.228-33.006-44.489-33.006-56.993-33.006-12.59 0-39.556 4.254-39.556 4.254 0 46.02-6.209 102.078-12.759 112.37 0 0-23.393 12.25-50.785 22.118l-65.5-44.15 17.183 59.377C220.381 263.09 193.5 368.828 193.5 368.828s28.327 222.7 307.511 222.7c147.589 0 232.824-71.37 232.824-71.37l-47.551-106.331s-72.646 37.769-165.453 37.769c-85.575 0-119.006-39.895-131.255-63.118 72.475 2.126 83.789-3.573 83.789-3.573"/><path fill="#00205b" d="M712.739 260.964c-22.798-61.587-148.609-72.816-162.475-101.908-5.614-11.654-12.76-39.471-23.138-73.412-8.336-24.499-32.92-24.499-45.169-24.499-11.739 0-26.966 2.382-26.966 2.382 0 25.094-4.764 97.996-16.418 110.585-2.892 3.573-24.328 12.25-47.636 21.267l6.975 4.678-7.145 7.146-13.441 13.44-14.716 46.105-19.225-10.037 6.805 17.098-34.281 5.699 19.395 6.72-55.803 42.873 15.057 1.19-19.906 35.984c28.667-13.015 37.429-15.482 37.429-15.482l-8.251-8.507 57.844-23.308s-4.338 11.569-4.338 34.027c0 3.232.51 7.996 1.616 13.525 7.146 34.962 41.257 107.097 161.794 107.097 87.192 0 154.479-30.453 154.479-30.453l31.219 69.924s-81.833 56.653-205.603 56.653c-252.984 0-285.054-198.883-285.054-198.883 34.877-93.316 93.572-134.148 130.916-151.501l-11.654-1.276-1.021-3.488c-98.591 54.357-127.768 155.16-127.768 155.16s30.028 209.26 294.751 209.26c135.424 0 217.342-62.778 217.342-62.778l-38.28-85.661S608.534 464.1 520.832 464.1c-130.575 0-149.885-89.063-149.885-89.063s74.347 4.423 98.166-1.957l122.919-61.417c83.279 23.478 107.267 48.912 107.267 48.912l38.11-42.872s6.975-6.551 6.975-21.267c-.085-13.78-20.671-27.646-31.644-35.472M445.038 283.76l-62.353-8.421 31.389-17.523zm-10.378-84.044-38.704 61.842-13.611-32.495zm-128.023 117.22 72.39-48.743-5.444 38.705z"/><path fill="#fff" d="m368.649 303.157 4.594-26.286-48.998 33.26zm24.669-29.518 40.661 4.934-23.903-13.951zm-3.147-42.873 4.508 20.075 28.667-38.79z"/><path fill="#fff" d="m281.543 333.439-14.461.34 60.396-45-26.2-10.377 42.873-8.252-14.887-30.113 26.456 15.057 10.548-32.836c-31.815 11.059-100.122 46.106-139.763 149.46 4.764 23.734 46.191 187.74 274.506 187.74 98.591 0 170.556-37.344 192.673-50.444l-23.563-52.826c-21.862 8.422-78.941 27.476-149.204 27.476-138.827.085-173.704-95.018-173.704-130.745 0-7.911.51-14.631 1.191-20.076l-31.899 10.549 4.168 9.016-24.924 9.017-21.437 14.12 43.554 8.082-9.017 31.134 18.714-5.53 17.949 45.68 21.436-2.721 7.146 32.07s40.406 27.986 108.883 34.11c90.425 8.082 171.322-22.797 171.322-22.797s-96.464 37.855-184.252 28.582c-67.031-7.06-110.67-34.366-110.67-34.366l-.51-28.922-26.455.34-12.42-44.32-23.563 11.059 10.378-39.64-45.17-5.53 9.187-27.645zm92.891-113.052 13.1-17.608-63.714-43.98 18.204 53.677zM753.57 494.212c-7.145 0-12.93 5.785-12.93 12.93s5.785 12.93 12.93 12.93 12.93-5.784 12.93-12.93-5.784-12.93-12.93-12.93m0 23.138c-5.614 0-10.208-4.593-10.208-10.208s4.509-10.122 10.208-10.122c5.615 0 10.208 4.508 10.208 10.122-.085 5.7-4.593 10.208-10.208 10.208"/><path fill="#fff" d="M758.929 504.167c0-2.382-1.956-4.424-4.423-4.424h-6.21v14.8h2.807v-6.038h1.957l2.807 6.039h3.062l-2.892-6.294c1.616-.511 2.892-2.127 2.892-4.083m-4.423 1.616h-3.488v-3.233h3.488a1.616 1.616 0 1 1 0 3.233"/><path fill="#041c2c" d="M681.775 265.13c-52.145-4.253-72.391-21.351-72.391-34.791 0-6.465 5.955-7.656 9.953-7.656 21.266 0 54.187 16.843 59.546 31.219-9.357-10.038-25.69-18.8-38.11-18.8-2.637 0-5.444.766-5.444 4.084 0 8.42 14.972 21.606 69.669 27.73-20.926-60.395-136.445-64.65-162.39-102.588-7.23-10.548-19.14-77.92-31.134-87.192-13.185-10.123-47.041-5.53-47.041-5.53 0 9.358-2.297 92.042-19.395 109.31-11.57 9.698-30.964 13.95-54.186 26.2l-13.441 13.44-14.716 46.106-19.225-10.038 6.805 17.098-34.281 5.7 19.395 6.72-55.803 42.873 15.057 1.19-19.906 35.983c28.667-13.015 37.429-15.481 37.429-15.481l-8.251-8.507 57.844-23.308s-4.338 11.569-4.338 34.026c0 3.233.51 7.996 1.616 13.526 2.467-4.764 47.977-88.724 145.462-94.423l-40.832 31.559-80.982 62.523s66.69 2.807 83.024-1.871c51.55-23.99 92.806-46.361 125.13-62.608 31.05-15.567 53.933-25.35 69.755-25.35 19.565 0 46.7 18.885 69.923 34.877 0 0 1.447-1.191 2.637-3.743 5.615-19.99-23.392-35.642-51.38-42.277m-308.192 41.768-66.946 10.038 72.39-48.743zm61.077-107.182-38.705 61.842-13.61-32.495zm-51.975 75.623 31.389-17.524 30.964 25.945zm113.137-103.355c-9.612.596-29.092 6.89-29.092 6.89s17.523-10.122 21.096-15.566 4.508-66.777 4.508-66.777 5.615 60.056 10.378 66.096c4.764 6.04 22.458 13.525 22.458 13.525s-22.287-4.593-29.348-4.168"/><path fill="#fff" d="M502.798 162.628c-4.764-6.04-10.378-66.096-10.378-66.096s-.936 61.332-4.509 66.776c-3.573 5.445-21.096 15.567-21.096 15.567s19.48-6.38 29.092-6.89c7.061-.425 29.433 4.168 29.433 4.168s-17.779-7.485-22.542-13.525M358.952 366.445c2.467-2.467 52.315-52.146 104.716-62.864l40.831-31.56c-97.485 5.785-142.995 89.745-145.547 94.424m376.244-67.627c0-12.42-16.332-20.841-30.198-31.9-54.697-6.125-69.669-19.31-69.669-27.731 0-3.318 2.808-4.083 5.445-4.083 12.419 0 28.752 8.76 38.109 18.799-5.444-14.291-38.28-31.22-59.546-31.22-3.998 0-9.952 1.277-9.952 7.657 0 13.44 20.245 30.538 72.39 34.792 27.987 6.635 56.994 22.202 51.38 42.362 1.105-2.041 2.041-4.85 2.041-8.676m-102.589-.086 20.331 7.23c3.743-1.615 7.826-3.572 8.166-4.082.255-.596.255-1.021-.595-1.786-.596-.596-9.698-3.913-15.312-6.04zm17.099-6.464c5.444 2.126 12.929 5.189 13.525 5.274.851.17 2.297.255 3.147 0 .681-.171 5.104-2.382 8.337-4.084-3.148-1.531-9.528-4.508-13.781-4.508-4.083.085-11.228 3.318-11.228 3.318m20.075 7.06c-.17.425 0 .766.68 1.276.766.595 11.314 6.04 12.165 6.125s1.531.085 2.382-.085c.595-.171 4.253-2.467 6.72-4.17l-14.036-7.57c-3.658 1.787-7.571 3.914-7.911 4.424m9.953 11.143c.255-.51.34-.85.17-1.361-.681-.765-11.144-6.21-12.25-6.38-1.191-.17-1.871-.17-2.892.34-.936.426-6.21 3.403-8.166 4.424l16.332 7.4c3.148-1.871 6.55-3.997 6.806-4.423m20.075 5.785c.425.085 1.446-.17 2.552-.596.595-.255 2.977-2.211 4.593-3.572l-12.589-7.996c-3.063 1.956-6.21 4.083-6.55 4.508 0 .085.085.425.68 1.36zm5.189 1.276c-.34.766-.425 1.02-.255 1.19.425.426 6.975 4.765 11.399 7.742l5.103-5.104-11.653-7.486c-2.127 1.446-4.424 3.233-4.594 3.658m-7.231 2.127c.256-.426.085-.936-.34-1.447-.68-.595-10.718-6.04-11.484-6.21-.85-.17-2.381.086-3.147.34-.425.17-3.403 2.213-6.125 4.169l15.397 7.146c2.637-1.702 5.444-3.658 5.699-3.998m2.723 2.04c-.426.17-3.318 2.383-5.53 4.084l13.951 8.592 5.189-5.7c-4.253-2.892-10.378-7.145-10.888-7.315-.511-.17-2.042.085-2.722.34"/><path fill="#fff" d="M590.926 301.712c75.198 19.99 107.267 46.02 107.267 46.02l7.996-9.017c-3.743-2.807-31.474-21.862-85.746-39.64 16.163-6.38 35.728-13.951 41.002-13.951 11.994 0 36.663 15.567 63.118 32.92l6.04-6.805c-23.138-15.992-50.274-34.877-69.924-34.877-15.907 0-38.789 9.783-69.753 25.35"/></svg>