<svg xmlns="http://www.w3.org/2000/svg" width="500" height="500" viewBox="0 0 500 500"><g fill="none"><path d="M0 0h500v500h-500z"/><path fill="#000" d="M397.158 202.281c-33.703-19.594-66.876-15.06-92.034-3.846-1.11-8.276-3.268-17.36-6.872-27.99-5.335-15.81-11.183-30.92-16.336-44.255-6.776-17.513-11.933-32.519-14.762-42.556l-18.336-62.879-19.036 62.921c-2.908 9.996-7.928 25.08-14.667 42.61-5.124 13.344-10.931 28.47-16.232 44.28-3.562 10.646-5.716 19.739-6.801 28.027-25.187-11.164-58.377-15.632-92.034 4.036-27.515 16.1-42.248 44.073-38.458 73.016 3.459 26.332 21.455 47.02 46.953 54.032l18.991 5.217 4.647-19.142c.667-2.598 7.518-26.564 29.089-26.129 14.965.311 27.387 13.543 33.6 22.101-2.009 6.05-3.077 13.303-2.054 21.114l-8.45-11.272-15.28 11.396c-13.76 10.253-33.74 35.594-21.393 65.503 5.385 13.042 16.961 21.927 32.593 25.043 9.56 1.902 20.42 1.459 30.485-.754 3.96 12.718 11.179 28.106 24.309 41.848l13.851 14.48 13.805-14.513c13.105-13.775 20.279-29.187 24.226-41.91 10.069 2.176 20.921 2.598 30.481.671 15.623-3.141 27.175-12.06 32.535-25.114 12.281-29.942-7.774-55.238-21.546-65.457l-15.309-11.351-8.421 11.285c1.011-7.812-.083-15.056-2.104-21.119 6.196-8.562 18.585-21.827 33.546-22.167 21.575-.485 28.472 23.464 29.193 26.199l4.685 19.134c-.029-.145 18.945-5.404 18.945-5.404 25.494-7.062 43.428-27.803 46.825-54.152 3.724-28.935-11.08-56.879-38.632-72.904"/><path fill="#FFFFFE" d="M242.497 86.365c-2.324 10.949-8.313 26.531-15.251 44.587-5.082 13.22-10.835 28.201-16.042 43.742-4.995 14.931-7.033 26.058-7.033 36.435 0 3.319.381 6.564.77 9.826-19.206-13.195-57.051-31.235-98.326-7.099-22.926 13.415-35.24 36.431-32.142 60.09 2.759 21.044 17.131 37.604 37.514 43.207l6.047 1.658 1.504-6.108c.377-1.496 9.456-36.721 41.991-36.067 26.185.526 43.3 25.996 47.923 33.825-2.199 4.07-4.026 9.681-4.026 16.121 0 6.904 2.348 14.757 8.342 22.631-2.39 3.241-6.304 7.215-10.873 7.592-6.515.535-13.109-6.328-17.492-12.188l-3.657-4.882-4.892 3.651c-10.007 7.464-26.484 27.538-17.16 50.119 3.732 9.026 11.726 14.989 23.12 17.256 11.78 2.337 26.649.211 37.211-4.604 2.046 11.923 7.841 32.101 24.446 49.461l4.432 4.637 4.419-4.646c16.564-17.41 22.313-37.604 24.33-49.535 10.579 4.791 25.469 6.888 37.249 4.509 11.374-2.292 19.351-8.28 23.054-17.306 9.257-22.598-7.244-42.639-17.268-50.078l-4.896-3.634-3.649 4.898c-4.374 5.86-10.955 12.747-17.475 12.221-4.564-.373-8.487-4.331-10.885-7.559 5.952-7.861 8.284-15.686 8.284-22.573 0-6.477-1.843-12.109-4.063-16.191 4.606-7.832 21.671-33.36 47.844-33.945 32.531-.729 41.701 34.479 42.074 35.98l1.52 6.084 6.047-1.658c20.362-5.648 34.697-22.233 37.406-43.286 3.048-23.667-9.315-46.663-32.27-60.02-41.358-24.061-79.186-5.893-98.347 7.352.356-3.174.725-6.324.725-9.561 0-10.489-2.025-21.798-7.062-36.713-5.24-15.512-11.026-30.468-16.133-43.667-6.983-18.044-13.006-33.626-15.354-44.575l-6.014-28.073-5.944 28.085"/><path fill="#000" d="M248.929 451.386c23.423-24.616 23.704-55.664 23.704-55.664 10.363 10.336 50.636 17.248 59.665-4.766 9.903-24.169-15.251-42.842-15.251-42.842-24.38 32.697-40.736.696-40.736.696 18.564-20.074 4.635-38.172 4.635-38.172 1.214-3.634 21.803-39.597 54.769-40.335 37.994-.858 48.146 40.625 48.146 40.625 39.842-11.048 47.537-66.622 3.695-92.121-55.635-32.366-104.108 16.941-104.108 16.941 4.511-18.454 5.795-32.246-3.301-59.195-12.331-36.539-27.445-69.187-31.669-88.917-4.188 19.734-19.235 52.436-31.475 89-9.025 26.974-7.7 40.766-3.164 59.203 0 0-48.585-49.187-104.141-16.697-43.789 25.607-35.961 81.151 3.906 92.108 0 0 10.053-41.504 48.051-40.729 32.974.655 53.638 36.568 54.86 40.194 0 0-13.888 18.139 4.726 38.164 0 0-16.29 32.055-40.732-.588 0 0-25.129 18.727-15.16 42.871 9.087 21.993 49.335 14.985 59.673 4.625 0 0 .356 31.048 23.825 55.606"/><path fill="#D3BC8D" d="M348.589 217.071c-45.276.046-82.4 51.491-82.4 51.491 1.611-8.417 20.967-46.29 3.45-91.557-17.516-45.263-21.091-63.497-21.091-63.497l-.083.518v-.506s-3.541 18.238-20.95 63.551c-17.413 45.308 2.038 83.14 3.661 91.54 0 0-37.245-51.35-82.52-51.292-45.268.05-82.959 51.599-41.126 82.042 0 0 12.244-38.035 54.438-38.114 31.032-.066 62.121 33.24 63.438 49.747 0 0-14.207 20.07 5.546 36.866 0 0-21.339 44.914-50.925 12.561 0 0-22.752 28.479 7 35.375 23.605 5.462 46.854-18.495 46.854-18.495s-2.535 37.844 14.948 58.528v-.186l.087.178c17.438-20.721 14.812-58.569 14.812-58.569s23.307 23.908 46.912 18.383c29.731-6.962 6.909-35.391 6.909-35.391-29.503 32.42-50.938-12.437-50.938-12.437 19.699-16.846 5.443-36.879 5.443-36.879 1.276-16.494 32.278-49.883 63.322-49.892 42.202 0 54.533 37.994 54.533 37.994 41.763-30.538 3.947-82.017-41.32-81.959"/></g></svg>