<?xml version="1.0" encoding="utf-8"?>
<!-- Generator: Adobe Illustrator 28.3.0, SVG Export Plug-In . SVG Version: 6.00 Build 0)  -->
<svg version="1.1" id="Layer_1" xmlns="http://www.w3.org/2000/svg" xmlns:xlink="http://www.w3.org/1999/xlink" x="0px" y="0px"
	 viewBox="0 0 400 400" style="enable-background:new 0 0 400 400;" xml:space="preserve">
<style type="text/css">
	.st0{fill:#C8102E;}
	.st1{fill:#12173F;}
	.st2{fill:#4891CE;}
	.st3{fill:#FFFFFF;}
</style>
<g>
	<path class="st0" d="M350,200.5c0,82.8-67.2,150-150,150s-150-67.2-150-150c0-82.8,67.2-150,150-150S350,117.7,350,200.5"/>
	<path class="st1" d="M342.5,200.5c0,78.7-63.8,142.5-142.5,142.5c-78.7,0-142.5-63.8-142.5-142.5C57.5,121.8,121.3,58,200,58
		C278.7,58,342.5,121.8,342.5,200.5"/>
	<path class="st2" d="M304.1,200.5c0,57.5-46.6,104.1-104.1,104.1S95.9,258,95.9,200.5S142.5,96.4,200,96.4S304.1,143,304.1,200.5"
		/>
	<path class="st3" d="M299.9,200.5c0,55.2-44.7,99.9-99.9,99.9c-55.2,0-99.9-44.7-99.9-99.9s44.7-99.9,99.9-99.9
		C255.2,100.6,299.9,145.3,299.9,200.5"/>
	<path class="st3" d="M101.1,274.7c4.6-4,9.9-2.8,13.4,1.3c1.4,1.7,2.4,3.7,2.6,5.3l-2.5,2.1l-0.2-0.2c0.2-2-0.5-3.7-1.7-5.1
		c-1.9-2.2-4.4-2.7-6.5-0.9l-3.2,2.8c-2.2,1.9-2.2,4.5-0.3,6.7c1.2,1.4,2.8,2.3,5.1,2.5l0.1,0.2l-2.5,2.1c-1.8-0.4-3.6-1.7-5.1-3.4
		C96.8,284,96.5,278.7,101.1,274.7"/>
	<path class="st3" d="M127.5,292.8c0.3-0.7,0.4-1.5,0.5-2.8l0.1-0.2l5.2,3.7l-8.7,12.3l6.8,4.8l-2.3,1.8l-10.2-7.2l7.9-11.1
		C127.2,293.6,127.4,293.2,127.5,292.8"/>
	<path class="st3" d="M151.6,307.3c0.1-0.8,0.1-1.6-0.1-2.8l0.1-0.2l5.8,2.5l-7,16.4l-4.6-2l5.3-12.5
		C151.4,308.2,151.5,307.8,151.6,307.3"/>
	<path class="st3" d="M171.9,314.6c0-0.8-0.3-1.5-0.8-2.7l0-0.2l10,1.8c4.4,0.8,6.6,3.5,5.9,7.5c-0.7,3.9-3.7,5.7-8.2,4.9l-3.8-0.7
		l-0.9,5.2l-4.9-0.9l2.4-13.4C171.9,315.4,171.9,315,171.9,314.6 M178.7,323c1.6,0.3,2.7-0.3,3.1-2l0.4-2.2c0.3-1.7-0.5-2.6-2.2-2.9
		l-3.1-0.5l-1.3,7L178.7,323z"/>
	<path class="st3" d="M202.7,317.9c-0.2-0.7-0.6-1.4-1.4-2.4l0-0.2l10.2-0.9c4.5-0.4,7.3,1.7,7.7,5.7c0.3,4-2.1,6.5-6.6,6.9
		l-3.9,0.3l0.4,5.2l-4.9,0.4l-1.1-13.5C202.9,318.8,202.8,318.3,202.7,317.9 M211.5,324.3c1.7-0.1,2.6-1,2.4-2.7l-0.2-2.2
		c-0.1-1.7-1.2-2.4-2.9-2.2l-3.1,0.3l0.6,7.1L211.5,324.3z"/>
	<path class="st3" d="M233.3,313.1c-0.4-0.6-1-1.2-2-2l-0.1-0.2l13.3-4.7l1.7,2.3l-8.1,2.9l1.5,4.2l6.2-2.2l0.2,2.8l-5.5,2l1.7,4.9
		l8.5-3l0.2,2.9l-12.4,4.4l-4.6-12.8C233.7,313.9,233.5,313.5,233.3,313.1"/>
	<path class="st3" d="M260.2,301.4c-0.6-0.5-1.3-0.9-2.4-1.4l-0.1-0.2l8.9-6.1c3.5-2.4,6.8-2.2,8.7,0.6c1.5,2.2,1.3,4.7-0.6,6.8
		l8.1,3l-5,3.4l-7.4-3l-1.1,0.8l3.8,5.5l-4.1,2.8l-7.7-11.2C260.8,302.1,260.5,301.7,260.2,301.4 M270.7,301.2
		c1.1-0.8,1.5-1.8,0.6-3l-0.9-1.3c-0.8-1.2-1.9-1.3-3-0.5l-3.1,2.1l3.3,4.8L270.7,301.2z"/>
	<path class="st3" d="M294.7,291.3l-2.5-2.1l0.1-0.2c2.4-0.3,4.5-1.6,6-3.4c1.5-1.7,2-3.3,0.8-4.3c-0.7-0.6-1.6-0.6-2.8,0.1
		l-3.5,2.2c-2.6,1.7-4.9,1.9-6.7,0.3c-2.5-2.1-2.4-5.9,0.8-9.5c1.5-1.7,3.3-3.1,5-3.6l2.4,2.1l-0.2,0.2c-1.9,0.1-3.9,1.5-5.2,3
		c-1.3,1.5-1.8,3-0.8,3.8c0.7,0.6,1.6,0.4,2.6-0.3l3.5-2.2c2.8-1.8,5.2-2.1,7.3-0.3c2.8,2.5,2.1,6.4-1,10
		C298.8,289.2,296.5,290.8,294.7,291.3"/>
	<path class="st3" d="M77.7,157.5c-0.8-0.1-1.6-0.1-2.8,0.2l-0.2-0.1l2.4-5.9l13.9,5.6l3.1-7.7l2.3,1.8L91.7,163l-12.6-5.1
		C78.5,157.7,78.1,157.5,77.7,157.5"/>
	<path class="st3" d="M94.1,136.5c-4.6-3.3-5.3-8.6-1.9-13.3c3.4-4.7,8.7-5.7,13.2-2.4s5.3,8.6,1.9,13.3
		C103.9,138.8,98.6,139.8,94.1,136.5 M105.1,132.5c1.5-2.2,1.2-4.4-1-6l-3.7-2.7c-2.2-1.6-4.5-1.2-6,1c-1.5,2.2-1.2,4.4,1,6l3.7,2.7
		C101.3,135.1,103.5,134.7,105.1,132.5"/>
	<path class="st3" d="M119.5,117l-2.1-2.5l0.2-0.2c2.4,0.1,4.7-0.9,6.4-2.4c1.7-1.5,2.5-3,1.5-4.1c-0.6-0.7-1.5-0.9-2.8-0.3
		l-3.8,1.6c-2.9,1.2-5.1,1.1-6.7-0.7c-2.1-2.5-1.4-6.2,2.3-9.3c1.7-1.5,3.7-2.5,5.5-2.8l2.1,2.4l-0.2,0.2c-1.9-0.2-4.1,0.8-5.6,2.1
		c-1.5,1.3-2.2,2.7-1.4,3.6c0.6,0.6,1.5,0.6,2.6,0.1l3.8-1.7c3-1.3,5.5-1.2,7.2,0.9c2.4,2.9,1.1,6.7-2.6,9.8
		C123.9,115.5,121.4,116.8,119.5,117"/>
	<path class="st3" d="M160.7,74.4l-0.1-0.2l6.8-1.9l12,15.2l-5.2,1.4l-2.4-3.1l-8.4,2.3l-0.5,3.9l-3,0.8l1.9-13.8
		C162.1,76.4,162,75.8,160.7,74.4 M170,83.5l-5.1-6.6l-1.1,8.3L170,83.5z"/>
	<path class="st3" d="M191.3,71.1c-0.2-0.8-0.5-1.5-1.2-2.5v-0.2l6.4,0l8.9,11l0-11l3.2,0l-0.1,17.8l-4.1,0l-9.9-12.3l-0.1,12.2
		l-3.2,0l0.1-13.6C191.5,71.9,191.4,71.5,191.3,71.1"/>
	<path class="st3" d="M223,79c1.4-5.4,6-8.1,12.2-6.5c1.9,0.5,3.9,1.4,5.3,2.8l-0.8,3.1l-0.2-0.1c-0.9-1.7-2.8-2.8-4.5-3.2
		c-3.1-0.8-5.4,0.3-6.1,3.1l-1,4c-0.8,3,0.6,4.9,3.4,5.7c0.9,0.2,1.7,0.3,2.3,0.2l1.4-5.1l-3.1-0.8l1.4-2.4l7.2,1.9l-2.3,8.5
		c-2.4,0.9-5.1,0.9-7.8,0.2C224.2,88.9,221.6,84.4,223,79"/>
	<path class="st3" d="M256.3,83.7c0.2-0.7,0.3-1.5,0.1-2.8l0.1-0.2l12.4,6.8l-0.6,2.8l-7.5-4.1l-2.1,3.9l5.8,3.2l-2,2l-5.1-2.8
		l-2.5,4.6l7.9,4.3l-2,2l-11.5-6.3l6.5-11.9C256,84.5,256.2,84.1,256.3,83.7"/>
	<path class="st3" d="M281.5,99.7c0.4-0.7,0.6-1.5,0.8-2.7l0.2-0.2l4.7,4.2l-10,11.2l6.2,5.5l-2.4,1.6l-9.4-8.3l9-10.2
		C281,100.4,281.3,100.1,281.5,99.7"/>
	<path class="st3" d="M301.6,119.9c0.5-0.6,0.9-1.3,1.3-2.5l0.2-0.1l8.2,11.5l-1.7,2.2l-5-7l-3.6,2.6l3.8,5.3l-2.6,1l-3.4-4.7
		l-4.2,3l5.2,7.3l-2.7,0.9l-7.6-10.7l11-7.9C300.9,120.5,301.3,120.2,301.6,119.9"/>
	<path class="st3" d="M304.2,149.4l3.1-1.3l0.1,0.2c-0.8,2.2-0.6,4.7,0.3,6.9c0.9,2.1,2.1,3.2,3.5,2.7c0.9-0.4,1.3-1.1,1.2-2.6
		l-0.4-4.1c-0.3-3.1,0.5-5.2,2.8-6.2c3-1.2,6.3,0.5,8.1,5c0.9,2.1,1.2,4.3,0.9,6.1l-3,1.2l-0.1-0.2c0.8-1.8,0.5-4.1-0.3-6
		c-0.8-1.8-1.9-2.9-3-2.4c-0.8,0.3-1.1,1.2-0.9,2.5l0.4,4.1c0.3,3.3-0.5,5.6-3,6.6c-3.5,1.4-6.7-1-8.5-5.4
		C304.2,154.1,303.8,151.3,304.2,149.4"/>
	<path class="st1" d="M132.9,194.3l-17.8,2.8c1.8-45.4,39.2-81.7,85-81.7l0,0v0.4v27.6v8.3v4.5v4.6l0.4,0.1l1.2-4.8H224l0.2,0.6
		c-0.2,1.6-0.1,6.5,8,10l0.2,0.6l-32.4-0.8l-32.4,0.8l0.2-0.6c8.2-3.5,8.3-8.3,8-10l0.2-0.6h22.2l-1.1-4.4l-16.2,0.6l0.1-0.4
		c4.8-2.7,5-6.6,4.9-8l0.2-0.5h8.8l-2.6-10C160.8,137,135.8,162.5,132.9,194.3 M257.5,165.2l-2.6,7.9l0.6,1.2H279l1-2.9
		c-11.5-31.5-41.2-54.3-76.4-55.8l2.8,17.8C228,135.4,246.6,147.6,257.5,165.2 M255.4,226.8l-0.6,1.2l2.6,7.9
		c-10.8,17.6-29.5,29.8-51.1,31.8l-2.8,17.9c35.2-1.4,64.8-24.2,76.4-55.8l-1-2.9H255.4z M233.9,171.9l-0.2-0.7H200h-33.7l-0.2,0.7
		c-0.1,2-1,8.4-9.8,17.2l-0.2,0.7c4.9-2.1,9.4-3.9,13.5-5.4c5.1-1.9,9.9-3.4,14.5-4.7c2.5-0.7,5.1-1.3,7.5-1.8
		c2.6-0.5,5.2-1,7.7-1.3l0.5-0.1l0.5,0.1c2.2,0.3,4.4,0.6,6.6,1.1c2.1,0.4,4.3,0.9,6.5,1.5c4,1,8.2,2.3,12.6,3.9
		c6.1,2.1,12,4.6,17.8,7.1l-0.3-1C234.9,180.4,234,174,233.9,171.9 M218.9,152c-4.8-2.7-5-6.6-4.9-8l-0.2-0.5H205l-2.2,8.3l16.2,0.6
		L218.9,152z M215.1,240.3c0.1,0.1,0.1,0.2,0.2,0.3l0,0l0,0c0.2,0.2,0.5,0.4,0.8,0.7c0.3,0.2,0.7,0.4,1.2,0.6l0,0l0,0
		c0.8,0.4,1.8,0.7,3.1,1c2.3,0.6,5,0.9,7.2,1.1c0.6,0.1,1.3,0.1,1.9,0.2c1-3,2.3-6,3.8-9c-2.7,1.2-5.6,2.3-8.7,3.1
		C220.7,239.4,217.4,240,215.1,240.3 M179.8,242.9c1.3-0.3,2.3-0.6,3.1-1l0,0c0.5-0.2,0.8-0.4,1.2-0.6c0.3-0.2,0.6-0.4,0.8-0.7l0,0
		l0,0c0.1-0.1,0.2-0.2,0.2-0.3c-2.3-0.3-5.6-0.9-9.5-2c-3.1-0.9-6-1.9-8.7-3.1c1.5,3,2.8,6,3.8,9c0.7-0.1,1.3-0.1,1.9-0.2
		C174.8,243.8,177.5,243.5,179.8,242.9 M285,200.5L285,200.5v3.4l-17.8,2.8l-18.7,2.9c-4,6.5-8.3,12.9-12,19.4
		c-0.4,0.3-0.9,0.5-1.3,0.8c-5.9,3.4-12.6,5.4-19.8,6c0.6-1.5,1.6-3.1,2.6-4.6c0.5-0.8,1.1-1.7,1.9-2.7c0.6-0.9,1.3-1.7,2-2.7
		c1.9-2.4,3.8-4.9,5.7-7.2c0.9-1.2,1.9-2.4,2.8-3.6l2.1-2.7c0.1-0.1,0.2-0.2,0.3-0.4c0.6-0.8,1.2-1.6,1.8-2.4c0.7-0.9,1.3-1.9,2-2.8
		c0.2-0.3,0.4-0.6,0.6-0.9c0.1-0.2,0.2-0.4,0.3-0.5l0,0c0,0,0,0,0,0l-3.6-1c0,0,0,0,0,0.1c-0.2,0.3-0.4,0.6-0.6,0.9
		c-0.5,0.8-1.2,1.7-1.9,2.7c-1.1,1.4-2.5,3.2-4,5c-0.1,0.1-0.2,0.2-0.3,0.3l0,0c-1.9,2.2-4,4.4-6,6.5c-1.1,1.2-2.3,2.5-3.5,3.7
		c-1.4,1.6-3.1,3.4-4.6,5.4c-0.7,1-1.4,2-2.1,3c-0.5,0.9-1.2,2-1.7,3.3c-0.4,0.9-0.8,2.3-0.8,4c0,1.6,0.7,3.2,1.8,4.4
		c0.6,0.7,1.3,1.2,1.9,1.6l0,0l0,0c0.8,0.5,1.5,0.8,2.1,1.1c1.3,0.5,2.7,0.9,4.3,1.2c1.4,0.3,2.9,0.4,4.2,0.5
		c1.5,0.1,2.9,0.1,4.1,0.1c0.1,0,0.1,0,0.2,0c0.3,0,0.5,0,0.8,0c-0.2,0.8-0.4,1.6-0.6,2.5v0c0,0,0,0,0,0l-12.5,4.5l-7.7,2.9
		l-5.4-55.5l-0.5-5l-1-10.2l-0.6,0.2v10v2.9v1.3v60.8v22.6v0.4c-47,0-85-38-85.1-85h0l0-0.1h18.7h31.4h4.9l0.2-0.5l-8.1-2.2
		l-7.7-2.1l0.3-0.8c14-6.2,29.3-12.2,45.4-14.4c15.8,2.1,31,8.4,45.5,14.6l0.2,0.6l-7.7,2.1l-8.1,2.2l0.2,0.5h4.9h31.4H285z
		 M193.8,267.6l-1.5-9.7l-7.4-2.8l-12.4-4.5c0,0,0,0-0.1,0l0,0h0c-0.2-0.8-0.4-1.6-0.6-2.5c0.3,0,0.5,0,0.8,0c0.1,0,0.1,0,0.2,0
		c1.2,0,2.7,0,4.1-0.1c1.3-0.1,2.8-0.2,4.2-0.5c1.7-0.3,3-0.7,4.3-1.2c0.7-0.3,1.4-0.6,2.2-1.1l0,0l0,0c0.6-0.4,1.3-0.9,1.9-1.6
		c1.1-1.2,1.8-2.8,1.8-4.4c0-0.8,0-2-0.8-4c-0.5-1.3-1.2-2.4-1.7-3.3c-0.6-1-1.3-2-2.1-3c-1.5-2-3.2-3.8-4.6-5.4
		c-1.2-1.3-2.3-2.5-3.5-3.7c-2-2.1-4.1-4.3-6-6.5l0,0c-0.1-0.1-0.2-0.2-0.2-0.3c-1.6-1.8-3-3.6-4-5c-0.8-1-1.4-1.9-1.9-2.7
		c-0.2-0.3-0.4-0.6-0.5-0.9c0,0,0,0,0-0.1l-3.6,1c0,0,0,0,0,0l0,0c0.1,0.2,0.2,0.4,0.3,0.5c0.2,0.3,0.4,0.6,0.6,0.9
		c0.7,1,1.3,2,2,2.8c0.6,0.8,1.2,1.6,1.8,2.4c0.1,0.1,0.2,0.2,0.3,0.3l2.1,2.7c0.9,1.2,1.9,2.4,2.8,3.5c1.9,2.4,3.9,4.8,5.7,7.2
		c0.7,1,1.4,1.8,2,2.7c0.8,1,1.4,1.9,1.9,2.7c1,1.5,1.9,3,2.6,4.6c-7.2-0.6-13.8-2.7-19.8-6c-0.5-0.3-0.9-0.5-1.4-0.8
		c-3.7-6.5-8-12.9-12-19.4l-18.7-2.9C135.9,239,161.6,264.7,193.8,267.6 M200,262.5"/>
</g>
</svg>
