<?xml version="1.0" encoding="utf-8"?>
<!-- Generator: Adobe Illustrator 24.0.1, SVG Export Plug-In . SVG Version: 6.00 Build 0)  -->
<svg version="1.1" id="Layer_1" xmlns="http://www.w3.org/2000/svg" xmlns:xlink="http://www.w3.org/1999/xlink" x="0px" y="0px"
	 viewBox="0 0 400 400" style="enable-background:new 0 0 400 400;" xml:space="preserve">
<style type="text/css">
	.st0{fill:#C8102E;}
	.st1{fill:#FFFFFF;}
</style>
<g>
	<path class="st0" d="M200.5,350.9c-82.9,0-150.4-67.5-150.4-150.4c0-82.9,67.5-150.4,150.4-150.4s150.4,67.5,150.4,150.4
		C350.9,283.4,283.4,350.9,200.5,350.9"/>
	<path class="st1" d="M200.5,344C121.4,344,57,279.6,57,200.5C57,121.4,121.4,57,200.5,57C279.6,57,344,121.4,344,200.5
		C344,279.6,279.6,344,200.5,344"/>
	<path class="st0" d="M200.5,337C125.2,337,64,275.8,64,200.5C64,125.2,125.2,64,200.5,64C275.8,64,337,125.2,337,200.5
		C337,275.8,275.8,337,200.5,337"/>
	<path class="st1" d="M293.8,200.5c0,51.5-41.7,93.3-93.3,93.3c-51.5,0-93.3-41.8-93.3-93.3s41.7-93.3,93.3-93.3
		C252,107.2,293.8,149,293.8,200.5"/>
	<path class="st0" d="M200.5,114c-28.6,0-53.9,13.7-69.7,35c2.3,0.7,6.7,1.9,12.1,3.5l0,0c8.5,2.5,36.8,10.8,42.1,12.5
		c15.4,5,19.5,6.9,23.8,11.5c4.3,4.7,10.9,10,17.4,14.5c6.5,4.5,9.6,9.4,9.6,17.2c0,7.8-6,14.4-9.7,16.6c0,0,1.3-3.7-0.5-5.4
		c-1.8-1.7-7.5-4.8-22-3.8c-14.5,1.1-34,8.1-47.2,15.2c0,0,6.3-9.9,15.7-14.4c0,0-7.8,0-51.3,19c13.4,30.8,44.1,52.4,79.8,52.4
		c48,0,87-38.9,87-87C287.5,153,248.6,114,200.5,114 M200.5,268.8c-19,0-36.1-7.8-48.4-20.4c35.1-18.1,57-13.4,57-9.9
		c0,3.6-5.4,12-5.4,12c28.6-4,49.5-21.3,49.5-44.5c0-23.3-21.8-34.5-27.3-37.9c-5.9-3.7-3.1-8.7-22.6-16c-11.9-4.5-28.5-8.9-35-10.5
		c9.6-5.2,20.6-8.2,32.3-8.2c37.4,0,67.8,30.4,67.8,67.8C268.3,238.4,238,268.8,200.5,268.8"/>
	<path class="st0" d="M199.8,178.4c0,0-5,0.4-10.1-2.1c-5.1-2.5-12.9-8.2-19.6-2c0,0,5.7-0.7,5.2,0.8c-0.5,1.5-1,10.2,6.7,13.5
		C189.9,191.9,198.9,189.4,199.8,178.4"/>
	<path class="st1" d="M98.3,270l0.9,1.2l12.5-9.6l-0.9-1.2l2.8-2.2l4,5.2c3,3.9,2.7,6.8-0.3,9.1c-2.1,1.6-4,1.7-5.9,0.7
		c0.8,2.6,0.1,4.3-2.4,6.2c-3.3,2.5-6.6,1.5-9.4-2l-4.1-5.3L98.3,270z M102.6,275.6c1.1,1.4,2.6,1.7,4.4,0.3
		c1.8-1.4,1.8-2.8,0.6-4.2l-0.8-1l-5,3.9L102.6,275.6z M110.1,269.4c1.1,1.4,2.5,1.5,4.1,0.3c1.6-1.2,1.8-2.6,0.6-4.1l-0.6-0.8
		l-4.8,3.7L110.1,269.4z"/>
	<path class="st1" d="M113.2,288l0.9,0.8l16.4-11.5l3.3,2.9l-9.2,17.8l0.8,0.7l-2.3,2.6l-5.6-4.9l2.2-2.5l1.4,1.2l1.2-2.2l-3.3-2.9
		l-2,1.5l1.4,1.2l-2.2,2.5l-5.4-4.7L113.2,288z M124,290.3l3.8-6.7l-6.2,4.6L124,290.3z"/>
	<path class="st1" d="M134.9,307.1l-0.8,1.5l-2.6-1.5l3.8-6.6l2.9,1.7c-1.4,2.7-1.1,4.3,0.5,5.2c1.5,0.9,2.6,0.6,3.4-0.8
		c1.9-3.3-5.4-8.3-1.9-14.1c1.9-3.3,5.2-3.9,7.9-2.3c1.6,0.9,2.5,2.1,2.3,3.6l0.8-1.5l2.6,1.5l-3.6,6.3l-3-1.7
		c1.1-2.2,1.1-3.6-0.3-4.4c-1.4-0.8-2.4-0.4-3.1,0.7c-1.8,3.1,5.3,8.2,1.9,14c-2.1,3.6-5.4,3.9-8.4,2.2
		C135.9,309.9,134.8,308.7,134.9,307.1"/>
	<polygon class="st1" points="155.2,315.6 156.6,316.1 161.5,301.1 160.1,300.6 161.1,297.3 167.8,299.4 166.8,302.7 165.5,302.3 
		163.3,309.3 169.3,303.5 168.5,303.2 169.5,299.9 175.6,301.9 174.5,305.3 173.1,304.8 168.3,309.2 169,320.1 170.2,320.4 
		169.1,323.7 162.6,321.6 163.6,318.4 164.8,318.8 164.3,312.2 161.5,314.9 160.7,317.5 161.9,317.8 160.9,321 154.2,318.9 	"/>
	<polygon class="st1" points="182.6,322.8 184.1,323 185.5,307.3 184,307.2 184.3,303.6 198,304.8 197.3,312 193.4,311.7 
		193.7,307.8 189.8,307.4 189.3,313.5 192.8,313.9 192.5,317.4 189,317.1 188.4,323.5 192.4,323.9 192.7,319.5 196.7,319.9 
		196.1,327.5 182.3,326.3 	"/>
	<polygon class="st1" points="212.8,323.4 214.7,323.1 212.6,307.3 210.2,307.6 210.7,311.5 207.4,312 206.4,304.8 222.1,302.7 
		223.1,309.9 219.8,310.3 219.3,306.4 216.9,306.7 219,322.6 220.9,322.3 221.3,325.7 213.2,326.8 	"/>
	<path class="st1" d="M237.6,318.5l1.4-0.5l-5.6-14.7l-1.4,0.5l-1.3-3.3l6.2-2.3c4.6-1.8,7.3-0.6,8.6,2.9c0.9,2.4,0.5,4.3-1,5.8
		c2.7-0.1,4.2,1.2,5.3,4.1c1.5,3.9-0.5,6.8-4.7,8.4l-6.3,2.4L237.6,318.5z M240.4,307c1.7-0.6,2.2-2,1.5-3.8
		c-0.7-1.9-1.9-2.4-3.7-1.8l-0.9,0.3l2.1,5.6L240.4,307z M244.1,316c1.7-0.6,2.4-2,1.6-4.1c-0.8-2.1-2.1-2.5-3.9-1.8l-1.2,0.5
		l2.3,5.9L244.1,316z"/>
	<path class="st1" d="M258.1,310l1-0.6l-6.1-19l3.8-2.3l14.3,14l0.9-0.6l1.8,2.9l-6.3,3.9l-1.8-2.8l1.6-1l-1.7-1.8l-3.8,2.3l0.8,2.4
		l1.6-1l1.8,2.8l-6.1,3.7L258.1,310z M263.4,300.3l-5.3-5.6l2.5,7.3L263.4,300.3z"/>
	<polygon class="st1" points="279.7,295.4 280.8,294.4 270,282.9 268.9,283.9 266.5,281.3 272,276.2 274.4,278.8 273.2,279.9 
		284,291.5 286.7,289 283.7,285.9 286.6,283.1 291.8,288.7 282,297.9 	"/>
	<polygon class="st1" points="295.7,279.3 296.5,278.1 283.9,268.8 283,269.9 280.2,267.8 284.6,261.8 287.5,263.9 286.5,265.3 
		299.3,274.7 301.4,271.8 297.9,269.2 300.3,266 306.4,270.6 298.4,281.4 	"/>
	<path class="st1" d="M96,172.9l0.4-1.2l-16.8-10.9l1.5-4.2l19.9,1.9l0.4-1l3.2,1.1l-2.4,7l-3.2-1.1l0.6-1.7l-2.5-0.3l-1.5,4.2
		l2.1,1.3l0.6-1.8l3.2,1.1l-2.3,6.7L96,172.9z M94.1,162l-7.6-1L93,165L94.1,162z"/>
	<polygon class="st1" points="105.7,149 106.7,147.4 93,139.2 91.7,141.3 95.1,143.3 93.4,146.2 87.2,142.5 95.3,128.8 101.5,132.5 
		99.8,135.4 96.4,133.4 95.2,135.5 108.9,143.7 109.9,142 112.9,143.8 108.7,150.8 	"/>
	<polygon class="st1" points="116.9,132.2 117.9,131.1 106.4,120.4 105.4,121.4 102.8,119 107.9,113.5 110.5,116 109.4,117.2 
		121,128 123.5,125.4 120.3,122.4 123,119.5 128.6,124.7 119.5,134.5 	"/>
	<path class="st1" d="M131.7,117.2l1-0.7l-7.3-18.6l3.6-2.6l15.1,13.1l0.9-0.6l2,2.8l-6,4.3l-1.9-2.7l1.5-1.1l-1.8-1.7l-3.6,2.5
		l1,2.3l1.5-1.1l1.9,2.7l-5.8,4.1L131.7,117.2z M136.5,107.2l-5.6-5.3l3,7.1L136.5,107.2z"/>
	<polygon class="st1" points="152.2,103.8 153.5,103.3 147.6,88.7 146.2,89.2 144.9,85.9 150.3,83.7 160.1,93.4 156.6,85 
		155.4,85.5 154,82.2 160.3,79.6 161.7,82.9 160.3,83.5 167.6,101.2 164,102.7 153.5,92.6 157.3,101.7 158.5,101.2 159.8,104.4 
		153.5,107 	"/>
	<polygon class="st1" points="177.6,95.1 179.5,94.8 176.7,79 174.3,79.4 175,83.3 171.7,83.9 170.4,76.8 186.1,74 187.3,81.1 
		184,81.7 183.3,77.8 180.9,78.2 183.7,94 185.6,93.7 186.2,97 178.2,98.5 	"/>
	<path class="st1" d="M194.5,92.6l1.2,0l5.1-19.3l4.4,0.1l4.4,19.5l1.1,0l-0.1,3.4l-7.4-0.1l0.1-3.3l1.8,0l-0.4-2.5l-4.4-0.1
		l-0.6,2.4l1.9,0l-0.1,3.3l-7.1-0.1L194.5,92.6z M204.2,87.4l-1.4-7.6l-1.8,7.5L204.2,87.4z"/>
	<polygon class="st1" points="227.2,95.8 228.6,96.2 233.7,81.3 232.3,80.9 233.5,77.5 240.5,79.9 239.3,83.1 237.9,82.6 236,88.1 
		240.6,89.7 242.5,84.2 241,83.7 242.1,80.4 249.1,82.8 248,86.2 246.5,85.7 241.5,100.6 242.9,101.1 241.8,104.3 234.8,101.9 
		235.9,98.8 237.4,99.3 239.4,93.3 234.8,91.7 232.7,97.7 234.2,98.2 233.1,101.4 226.1,99 	"/>
	<path class="st1" d="M250.3,104.6l1,0.6l14.3-14l3.8,2.3l-6.2,19l0.9,0.6l-1.8,2.9l-6.3-3.9l1.8-2.8l1.6,1l0.9-2.3l-3.8-2.3
		l-1.8,1.8l1.6,1l-1.8,2.8l-6.1-3.8L250.3,104.6z M261.3,105.1l2.7-7.2l-5.4,5.5L261.3,105.1z"/>
	<polygon class="st1" points="280.2,105.7 279.2,104.7 281.7,102.2 286.7,107.1 284.3,109.6 283.3,108.6 277.2,116.9 288.5,108.9 
		291.1,111.5 283.3,123 291.5,116.7 290.6,115.8 293,113.3 297.7,118 295.2,120.5 294.2,119.5 278.3,130.9 275.5,128.1 283.6,116.2 
		271.8,124.5 269,121.7 	"/>
	<polygon class="st1" points="287.3,136.2 288.1,137.4 301.4,129 300.6,127.8 303.6,125.8 307.4,131.8 304.4,133.6 303.7,132.5 
		297.5,136.5 305.8,135.9 305.4,135.1 308.3,133.3 311.7,138.7 308.7,140.6 307.9,139.3 301.4,139.6 295.1,148.4 295.7,149.5 
		292.8,151.3 289.1,145.5 291.9,143.7 292.6,144.8 296.5,139.3 292.6,139.7 290.3,141.1 291,142.2 288.2,144 284.4,138 	"/>
	<path class="st1" d="M298.2,159.3l-1.6,0.6l-1.1-2.8l7.1-2.7l1.2,3.1c-2.8,1.2-3.5,2.7-2.9,4.4c0.6,1.6,1.7,2.1,3.1,1.5
		c3.6-1.4,1-9.8,7.3-12.2c3.5-1.4,6.5,0.2,7.6,3.1c0.6,1.7,0.7,3.2-0.4,4.2l1.6-0.6l1.1,2.8l-6.8,2.6l-1.2-3.2
		c2.2-1,3.1-2.1,2.5-3.7c-0.6-1.5-1.7-1.8-2.8-1.4c-3.3,1.3-1,9.7-7.2,12.1c-3.9,1.5-6.7-0.4-7.9-3.6
		C297.3,162.1,297.2,160.4,298.2,159.3"/>
</g>
</svg>
