<svg width="500" height="500" viewBox="0 0 500 500" fill="none" xmlns="http://www.w3.org/2000/svg">
<path fill-rule="evenodd" clip-rule="evenodd" d="M491.341 276.976C489.382 265.047 481.522 247.527 455.159 231.764C453.378 230.698 451.508 229.662 449.581 228.641C454.513 226.982 459.611 225.271 459.611 225.271L430.394 213.878C427.894 212.902 425.271 212.024 422.616 211.17C424.547 209.21 426.584 207.141 426.584 207.141L404.181 204.002C394.501 202.644 386.865 202.331 381.014 202.416C380.957 201.473 380.884 200.603 380.787 199.822C380.787 199.814 377.046 171.764 377.046 171.764C377.046 171.764 368.378 183.6 367.516 184.775C365.674 181.705 363.584 178.818 361.185 176.106C361.185 176.102 337.022 148.78 337.022 148.78C337.022 148.78 337.985 156.818 338.758 163.234C330.923 157.769 322.307 152.886 312.777 148.8C273.899 132.126 224.735 128.662 177.884 139.282C138.697 148.17 82.1166 171.341 35.1234 231.243L8 265.819L48.8253 249.556C49.1506 249.426 80.6651 237.139 106.081 233.557C115.558 232.219 122.816 232.113 116.924 245.096C112.281 255.342 101.734 270.296 101.625 270.446L81.1814 300.18L115.282 288.34C131.683 282.636 146.406 279.826 153.851 279.562C156.51 279.611 156.998 281.367 156.16 283.278C155.92 283.941 155.782 284.287 153.94 287.116L132.558 317.635L167.63 305.071C193.082 295.939 226.544 289.926 238.514 294.5C239.49 294.87 242.653 296.549 239.518 301.148L225.743 323.063C225.743 323.063 246.081 319.977 248.971 319.529C250.569 339.542 260.608 350.454 261.844 351.715L276.619 366.868L281.807 346.348C285.532 331.581 292.549 323.534 298.811 319.151C298.811 319.159 300.014 327.584 300.014 327.584L313.712 322.644C325.227 318.48 334.342 313.479 340.905 307.775C349.585 307.088 370.793 305.823 391.163 307.84C426.271 311.312 449.821 306.645 456.204 305.128C464.742 303.107 471.939 306.754 472.016 306.795L482.453 312.471L488.085 301.9C488.751 300.631 491.935 294.032 491.935 284.25C491.935 281.827 491.74 279.379 491.341 276.976Z" fill="white"/>
<path fill-rule="evenodd" clip-rule="evenodd" d="M486.45 279.003C484.714 268.436 477.562 252.815 453.313 238.308C446.828 234.446 439.786 231.14 432.659 228.331L441.246 225.444L429.451 220.842C423.608 218.561 417.469 216.682 411.138 215.158C412.354 213.926 413.671 212.58 413.671 212.58L404.633 211.307C390.711 209.36 381.1 209.583 375.444 210.112C375.497 208.892 375.537 207.603 375.537 206.302C375.537 204.481 375.468 202.688 375.277 201.236L373.761 189.905C373.761 189.905 368.264 197.415 367.471 198.5C365.653 193.45 362.673 187.193 357.233 181.029L347.467 169.983L348.573 179.204C339.794 171.048 327.646 162.473 310.992 155.329C273.212 139.127 225.308 135.781 179.591 146.145C141.275 154.833 85.9424 177.508 39.9372 236.145L28.3455 250.933L45.8002 243.972C46.1255 243.846 78.5914 230.986 104.983 227.457C115.33 226.082 122.474 227.306 125.089 230.917C127.528 234.299 126.743 240.992 122.954 248.835C117.766 259.597 107.162 275.047 107.056 275.21L98.3148 287.915L112.895 282.857C132.106 276.177 156.327 271.237 161.941 274.909C163.239 275.758 163.938 276.759 164.21 278.157C165.109 282.825 161.092 289.899 159.612 292.022L150.46 305.061L165.463 299.694C189.431 291.099 232.403 281.243 245.686 291.424C251.83 296.136 246.089 305.447 245.832 305.837L239.937 315.225L250.882 313.554C250.882 313.554 253.578 313.135 256.237 312.725C256.204 313.583 256.147 314.453 256.147 315.27C256.147 336.457 266.865 347.723 267.381 348.26L273.704 354.741L275.924 345.954C282.145 321.291 296.867 312.753 305.072 309.858C305.3 311.493 306.442 319.482 306.442 319.482L312.297 317.368C326.658 312.184 334.7 306.496 339.115 302.227C345.722 301.649 369.927 299.82 393.167 302.113C427.393 305.504 450.142 301.003 456.302 299.539C467.649 296.856 476.871 301.763 476.968 301.812L481.473 304.272L483.893 299.739C484.047 299.454 486.962 293.782 486.962 285.207C486.962 283.28 486.812 281.207 486.45 279.003Z" fill="#9A7611"/>
<path fill-rule="evenodd" clip-rule="evenodd" d="M450.3 243.429C440.176 236.269 426.54 231.06 413.309 227.336C418.819 225.555 424.336 225.673 424.336 225.673C415.859 222.433 407.007 220.408 398.774 219.131L401.856 216.366C386.775 213.797 376.249 213.992 370.004 214.642C370.789 211.552 371.427 206.832 370.622 200.53C370.622 200.53 368.792 205.962 364.356 209.336C363.771 202.286 361.518 192.089 353.866 185.169L355.285 197.615C348.544 187.462 335.716 174.48 311.464 163.136C245.536 132.321 129.366 144.002 65.5969 226.364C65.5969 226.364 90.3946 213.972 124.751 213.15C142.751 212.727 147.126 222.807 140.567 239.794C133.972 256.866 122.413 271.845 122.413 271.845C122.413 271.845 200.161 244.295 175.615 282.567C175.615 282.567 234.306 264.99 251.911 285.608C260.095 295.175 250.565 308.556 250.565 308.556L267.215 304.953C261.815 326.1 271.268 339.607 271.268 339.607C278.14 311.963 302.1 304.6 310.581 303.205L312.415 310.694C326.629 305.555 333.313 300.086 337.135 295.581C367.235 290.849 387.674 294.894 410.878 296.159C444.677 298.005 462.148 292.117 467.731 292.154C471.829 292.191 476.688 295.764 476.688 295.764C476.688 295.764 490.735 272.052 450.3 243.429Z" fill="black"/>
<path fill-rule="evenodd" clip-rule="evenodd" d="M215.242 249.324C214.635 249.71 213.534 250.41 213.196 250.633C212.838 250.861 212.468 251.101 212.11 251.341C211.777 251.578 211.441 251.806 211.107 252.033C211.046 252.075 210.984 252.116 210.923 252.158C210.827 252.221 210.732 252.287 210.636 252.353C210.541 252.419 210.445 252.485 210.35 252.548C208.634 252.642 206.942 252.699 205.296 252.699L190.134 253.573C181.132 254.033 165.938 255.858 160.884 256.501C159.799 256.631 159.177 256.708 159.177 256.708C170.956 215.484 181.588 201.034 188.707 193.968C192.94 188.804 200.425 185.303 206.426 183.262C166.105 185.185 126.906 193.484 126.906 193.484C152.257 173.809 211.037 160.062 244.922 163.518C278.802 166.978 276.497 180.721 273.013 188.56C270.191 194.895 256.351 203.482 243.336 206.255C256.81 208.011 264.442 218.412 259.616 228.796C259.201 229.686 258.721 230.548 258.209 231.378C243.828 234.793 231.065 240.209 220.592 246.124C220.226 246.34 219.864 246.551 219.498 246.759C219.394 246.819 219.291 246.879 219.187 246.94C218.802 247.164 218.415 247.389 218.034 247.617C217.926 247.681 217.817 247.745 217.709 247.809C217.447 247.964 217.184 248.118 216.92 248.279C216.53 248.516 216.146 248.756 215.766 248.993C215.702 249.033 215.638 249.073 215.574 249.113C215.503 249.158 215.386 249.232 215.242 249.324ZM461.892 284.478C451.984 286.791 439.388 288.308 422.555 288.401C413.587 288.445 404.994 287.597 396.215 286.731C382.084 285.337 367.471 283.895 350.036 286.047L340.567 278.444C338.01 285.01 334.501 289.475 334.501 289.475C337.397 284.292 334.86 278.207 333.423 274.76C333.311 274.492 333.206 274.239 333.11 274.004C321.466 267.812 302.409 255.964 318.595 252.097C308.512 250.593 277.794 247.56 239.307 258.55C239.307 258.55 274.887 234.785 343.311 245.954C324.824 234.919 284.316 235.374 284.316 235.374C321.176 226.158 365.649 240.699 382.247 246.125L382.319 246.149L366.906 235.004L386.377 236.692L375.911 228.255C375.911 228.255 417.334 231.195 444.295 249.17C475.806 267.629 471.947 287.011 471.947 287.011C464.555 271.528 409.857 260.949 346.658 253.484C329.78 251.499 322.653 252.601 323.364 256.541C324.039 260.249 333.781 267.572 343.539 271.414C336.562 264.714 342.624 263.006 342.624 263.006C353.716 262.099 425.32 268.804 461.892 284.478Z" fill="white"/>
<path fill-rule="evenodd" clip-rule="evenodd" d="M293.159 165.779C218.339 143.453 140.271 165.051 96.9407 206.547C96.9407 206.547 140.559 192.821 153.643 206.307C168.862 221.989 145.804 258.863 145.804 258.863L160.884 256.5C159.799 256.63 159.177 256.708 159.177 256.708C170.956 215.484 181.588 201.034 188.707 193.967C192.94 188.804 200.425 185.303 206.426 183.262C166.105 185.185 126.906 193.484 126.906 193.484C152.257 173.809 211.037 160.062 244.922 163.518C278.803 166.978 276.497 180.721 273.013 188.56C270.191 194.894 256.351 203.482 243.336 206.254C256.81 208.011 264.442 218.411 259.616 228.796C259.201 229.686 258.721 230.548 258.209 231.377C243.828 234.793 231.065 240.208 220.592 246.124C220.226 246.34 219.864 246.551 219.498 246.759L219.187 246.94C218.802 247.164 218.415 247.389 218.034 247.616C217.926 247.68 217.819 247.744 217.711 247.808L217.709 247.809C217.447 247.963 217.185 248.118 216.92 248.279C216.53 248.516 216.146 248.756 215.765 248.994L215.574 249.113C215.426 249.207 215.277 249.3 215.128 249.393C214.904 249.533 214.68 249.672 214.46 249.816C214.034 250.08 213.615 250.357 213.196 250.633L213.196 250.633C212.838 250.861 212.468 251.101 212.11 251.341C211.777 251.578 211.442 251.806 211.108 252.032L210.923 252.158C202.316 258.074 196.066 263.998 192.826 268.592C192.826 268.592 280.945 250.743 265.678 295.122L288.439 288.885C286.833 291.69 284.291 294.894 280.835 298.749C270.077 310.698 270.817 322.058 270.817 322.058C270.817 322.058 273.976 309.629 294.334 301.107C312.899 293.349 317.18 280.16 317.18 280.16C317.18 280.16 323.364 289.3 318.302 302.099C318.302 302.099 326.853 299.964 334.505 289.466C337.398 284.292 334.861 278.208 333.424 274.761C333.311 274.492 333.206 274.239 333.11 274.004C321.466 267.812 302.409 255.964 318.595 252.097C308.512 250.593 277.794 247.56 239.307 258.55C239.307 258.55 274.887 234.785 343.311 245.954C324.824 234.919 284.316 235.374 284.316 235.374C298.412 231.849 313.614 231.804 327.947 233.386C322.185 231.784 314.354 229.918 305.145 228.519C291.073 226.852 277.64 227.596 265.251 229.885C279.173 215.435 304.535 217.334 304.535 217.334C287.621 205.937 265.568 209.584 265.568 209.584C290.293 196.789 317.782 201.119 317.782 201.119C309.138 189.706 288.727 187.194 288.727 187.194C329.191 185.555 343.364 206.82 343.364 206.82C333.277 202.424 326.093 203.087 326.093 203.087C326.093 203.087 335.818 204.665 342.401 216.968C349.374 230.003 355.285 229.629 355.285 229.629C355.285 229.629 366.373 187.629 293.159 165.779ZM216.375 239.708C218.319 238.066 220.039 235.939 221.323 233.179C226.349 222.355 221.872 217.818 213.802 217.818H210.407C204.816 229.654 201.34 240.493 201.34 240.493H210C211.866 240.493 214.082 240.29 216.375 239.708ZM233.07 199.338C232.545 200.477 231.984 201.449 231.407 202.282C228.963 203.006 226.247 203.425 223.352 203.425H217.278C221.039 194.764 224.044 189.479 226.129 186.332C234.041 186.401 237.258 190.349 233.07 199.338Z" fill="#24135F"/>
<path fill-rule="evenodd" clip-rule="evenodd" d="M233.07 199.338C232.545 200.477 231.984 201.449 231.407 202.282C236.257 200.839 240.01 198.155 241.856 194.955C245.914 187.869 242.803 182.786 236.257 182.091L229.455 182.111C229.455 182.111 228.28 183.079 226.129 186.332C234.042 186.401 237.258 190.349 233.07 199.338Z" fill="black"/>
<path fill-rule="evenodd" clip-rule="evenodd" d="M221.324 233.179C220.039 235.939 218.319 238.066 216.375 239.708C221.507 238.44 227.052 235.366 230.106 228.796C235.139 217.968 230.655 213.431 222.592 213.431H212.566C211.818 214.898 211.094 216.366 210.407 217.818H213.802C221.872 217.818 226.349 222.355 221.324 233.179Z" fill="black"/>
<path fill-rule="evenodd" clip-rule="evenodd" d="M269.923 177.712C266.755 172.512 259.022 169.434 245.292 168.735C245.292 168.735 231.391 166.848 213.802 169.202C206.841 170.133 173.005 173.577 144.194 187.641C169.39 181.506 199.169 179.257 218.022 178.574C225.95 178.294 234.659 178.542 234.659 178.542C240.299 178.542 245.528 180.209 247.532 183.498C249.61 186.901 250.183 190.983 246.276 195.968C244.125 198.716 241.6 201.611 234.269 204.596L242.718 202.794C255.347 200.095 266.808 193 269.443 187.499C271.366 183.482 271.476 180.261 269.923 177.712Z" fill="#9A7611"/>
<path fill-rule="evenodd" clip-rule="evenodd" d="M208.805 209.914H222.718C229.898 209.914 233.2 212.857 234.712 215.338C237.083 219.22 236.66 224.453 233.724 231.007C228.061 243.648 214.338 244.787 210.22 244.787L194.432 245.388C201.275 223.677 208.805 209.914 208.805 209.914ZM216.042 248.812C226.085 242.615 238.652 236.716 253.001 232.719C253.907 231.512 254.688 230.235 255.31 228.885C256.753 225.791 256.92 221.945 255.891 218.903C254.342 214.289 251.256 211.215 241.531 208.938C228.731 205.95 210.037 207.267 210.037 207.267C214.338 196.822 217.55 190.715 220.766 185.421C218.002 185.242 204.06 186.722 193.354 196.936C184.031 205.177 173.96 226.584 165.95 252.077C179.73 250.629 192.22 249.975 192.22 249.975L205.32 249.409C208.764 249.409 212.387 249.222 216.042 248.812Z" fill="#9A7611"/>
<path fill-rule="evenodd" clip-rule="evenodd" d="M326.263 226.295C331.931 224.453 334.822 218.936 332.724 213.967C330.626 208.991 324.324 206.454 318.664 208.296C313.001 210.129 310.106 215.655 312.204 220.627C314.302 225.596 320.6 228.141 326.263 226.295ZM328.557 224.437C331.716 223.303 333.354 219.973 332.208 216.996C331.069 214.016 327.593 212.52 324.434 213.658C321.283 214.785 319.636 218.111 320.779 221.087C321.921 224.071 325.397 225.563 328.557 224.437Z" fill="#C8102E"/>
<path fill-rule="evenodd" clip-rule="evenodd" d="M318.152 221.274C316.574 217.541 318.855 213.345 323.234 211.918C324.926 211.369 326.678 211.308 328.28 211.662C326.092 210.28 323.128 209.849 320.351 210.756C315.96 212.179 313.683 216.366 315.269 220.123C316.237 222.425 318.449 224.022 321.026 224.575C319.758 223.774 318.737 222.652 318.152 221.274Z" fill="#FFFFFE"/>
</svg>
