<?xml version="1.0" encoding="utf-8"?>
<!-- Generator: Adobe Illustrator 23.0.3, SVG Export Plug-In . SVG Version: 6.00 Build 0)  -->
<svg version="1.1" id="Layer_1" xmlns="http://www.w3.org/2000/svg" xmlns:xlink="http://www.w3.org/1999/xlink" x="0px" y="0px"
	 viewBox="0 0 400 400" style="enable-background:new 0 0 400 400;" xml:space="preserve">
<style type="text/css">
	.st0{fill:#63727A;}
	.st1{fill:#FFFFFF;}
	.st2{fill:#BEC0C2;}
	.st3{fill:none;}
	.st4{fill:#F9A01B;}
	.st5{fill:#E56020;}
	.st6{fill:#B95915;}
</style>
<g>
	<path class="st0" d="M363.2,36c-0.5-0.7-1.3-1-2.1-1H155.7c-24.5,0.1-39.5,10.6-44.7,31.4L36.3,364.1c-0.2,0.8,0,1.7,0.5,2.3
		c0.5,0.7,1.3,1,2.1,1h223.7l0,0c12.8,0,25.7-10.2,28.6-22.7l72.5-306.3C363.9,37.5,363.7,36.7,363.2,36z"/>
	<g>
		<path d="M38.9,364.7h223.7c11.6,0,23.3-9.3,25.9-20.7l72.5-306.3H155.7c-19,0-36.4,6.3-42.1,29.4L38.9,364.7z"/>
	</g>
	<g>
		<path class="st0" d="M279.1,246.1H82l43.3-171.6c5.5-22.2,19.3-26.7,38.2-26.7h180.9L303,227C300.6,237.6,289.8,246.1,279.1,246.1
			z M85.1,243.7h194c9.7,0,19.4-7.7,21.6-17.2l40.8-176.3H163.5c-21.6,0-31.3,6.8-35.9,24.9L85.1,243.7z"/>
	</g>
	<g>
		<g>
			<g>
				<polygon class="st1" points="114.3,342.4 119.6,349.8 160.5,349.8 177.1,284.1 160.3,284.1 146.1,340.5 131.2,340.5 
					145.5,284.1 124.4,284.1 123,285.3 127.2,291 				"/>
			</g>
			<g>
				<polygon class="st1" points="115.5,307.1 119.5,291.3 114.1,283.8 80.6,283.8 71.4,291.3 65.9,313.4 94.2,325.3 90.3,340.5 
					75.5,340.5 77.3,333.4 62.5,326.6 58.6,342.4 63.9,349.8 97.5,349.8 106.6,342.4 112.2,320.2 83.9,308.3 87.7,293.1 
					102.5,293.1 100.7,300.4 				"/>
			</g>
			<g>
				<polygon class="st1" points="231.1,291.3 225.7,283.8 184.8,283.8 168.2,349.5 185,349.5 199.2,293.1 214.1,293.1 199.9,349.5 
					221,349.5 222.3,348.3 218.1,342.7 				"/>
			</g>
			<g>
				<polygon class="st1" points="282.9,307.1 286.8,291.3 281.5,283.8 247.9,283.8 238.8,291.3 233.2,313.4 261.5,325.3 
					257.7,340.5 242.9,340.5 244.7,333.4 229.9,326.6 225.9,342.4 231.3,349.8 264.8,349.8 274,342.4 279.5,320.2 251.2,308.3 
					255.1,293.1 269.9,293.1 268.1,300.4 				"/>
			</g>
		</g>
		<g>
			<polygon class="st2" points="62.5,326.6 68.6,335.8 67.3,341 70.3,345.2 94,345.2 98.7,341.4 106.6,342.4 97.5,349.8 63.9,349.8 
				58.6,342.4 			"/>
			<polygon class="st2" points="90.3,340.5 98.7,341.4 103.5,322.7 74.9,310.7 79.6,292.2 71.4,291.3 65.9,313.4 94.2,325.3 			"/>
			<polygon class="st2" points="107.7,288.5 84.5,288.5 79.6,292.2 87.7,293.1 102.5,293.1 100.7,300.4 109.5,297.7 110.8,292.7 			
				"/>
			<polygon class="st2" points="229.9,326.6 235.9,335.8 234.6,341 237.7,345.2 261.3,345.2 266.1,341.4 274,342.4 264.8,349.8 
				231.3,349.8 225.9,342.4 			"/>
			<polygon class="st2" points="257.7,340.5 266.1,341.4 270.8,322.7 242.2,310.7 246.9,292.2 238.8,291.3 233.2,313.4 261.5,325.3 
							"/>
			<polygon class="st2" points="275,288.5 251.8,288.5 246.9,292.2 255.1,293.1 269.9,293.1 268.1,300.4 276.9,297.7 278.1,292.7 
							"/>
			<polygon class="st2" points="123,285.3 136.1,288.5 122.9,341 126,345.2 153.2,345.2 160.5,349.8 119.6,349.8 114.3,342.4 
				127.2,291 			"/>
			<polygon class="st2" points="160.3,284.1 167.6,288.5 153.2,345.2 146.1,340.5 			"/>
			<g>
				<polygon class="st2" points="192.1,288.5 184.8,283.8 168.2,349.5 185,349.5 177.7,345.2 				"/>
			</g>
			<g>
				<polygon class="st2" points="209.2,345.2 222.5,292.6 219.4,288.5 192.1,288.5 199.2,293.1 214.1,293.1 199.9,349.5 221,349.5 
					222.3,348.3 				"/>
			</g>
		</g>
	</g>
	<g>
		<g>
			<path class="st1" d="M80.4,256.2l-0.4,0.4l1.4,1.8l-4.2,17.3H83l0.4-0.4l-1.5-1.7l1.1-4.7l9-2.8l1.9-7.6l-1.8-2.4L80.4,256.2
				L80.4,256.2z M88.3,264.1l-4.3,1.3l1.4-5.8l4,0L88.3,264.1z"/>
		</g>
		<g>
			<polygon class="st1" points="128.7,256.2 124.4,256.2 122.7,263.2 118.5,264.2 120.4,256.2 114.6,256.2 114.2,256.6 115.6,258.4 
				111.4,275.7 115.7,275.7 117.6,268 121.8,267 119.7,275.7 125.5,275.7 125.9,275.3 124.5,273.6 			"/>
		</g>
		<g>
			<path class="st1" d="M152.8,256.2l-2.9,2.3l-3.6,14.8l1.8,2.4h7.9l2.9-2.4l3.6-14.8l-1.8-2.3H152.8z M154.8,272.5h-4l3.2-13.1h4
				L154.8,272.5z"/>
		</g>
		<g>
			<polygon class="st1" points="229.7,258.5 227.9,256.2 217.5,256.2 212.7,275.7 217,275.7 221,259.4 225.2,259.4 221.2,275.7 
				227.1,275.7 227.5,275.3 226,273.6 			"/>
		</g>
		<g>
			<polygon class="st1" points="256.7,256.2 250.9,256.2 250.5,256.6 251.9,258.4 247.6,275.7 253.5,275.7 253.9,275.3 252.5,273.6 
							"/>
		</g>
		<g>
			<polygon class="st1" points="288,273.7 285.7,266.1 293.4,256.2 289.2,256.2 284.7,262.2 283.2,256.2 277.4,256.2 276.9,256.5 
				279.3,258.3 281.5,266.2 274.2,275.7 278.4,275.7 282.7,269.9 284.1,275.7 290,275.7 290.4,275.3 			"/>
		</g>
		<g>
			<polygon class="st1" points="190.2,272.5 185.1,272.5 186.3,267.5 190.5,267.5 191.3,264.3 187.1,264.3 188.3,259.4 193,259.4 
				194.2,261.1 194.7,260.8 195.8,256.2 183.3,256.2 182.9,256.6 184.2,258.4 180,275.7 191.4,275.7 192.5,271.1 192.2,270.8 			"/>
		</g>
	</g>
	<g>
		<path class="st3" d="M245.3,197.5"/>
		<g>
			<polygon class="st4" points="90.3,240.6 201.1,179.9 126,240.6 217.2,188.2 215.7,198.7 230.9,190.3 265.3,222.8 283.6,167.8 
				310,166.1 296.5,132.8 320.5,114 289.5,102 297.4,68.6 271,80.7 257.4,52 236.3,73.1 198.3,56.1 193.1,90 159.2,97.3 
				179.2,109.4 159.1,119.5 176.2,121 105.7,175.8 176.6,138.2 100.6,196.1 181.5,153.9 95.1,218.9 190.4,168.1 			"/>
			<g>
				<path class="st5" d="M293.2,133.3c-1.3,30.5-27,54.1-57.4,52.9c-30.5-1.3-54.1-27-52.9-57.4c1.3-30.5,27-54.1,57.4-52.9
					C270.7,77.1,294.4,102.8,293.2,133.3z"/>
				<path class="st6" d="M244.8,178.6c-30.5-1.3-54.1-27-52.9-57.4c0.6-14.1,6.4-26.7,15.5-36.1c-14.2,9.5-23.8,25.3-24.5,43.7
					c-1.3,30.5,22.4,56.2,52.9,57.4c16.4,0.7,31.4-5.9,41.9-16.8C268.3,175.6,256.9,179.1,244.8,178.6z"/>
				<path d="M293.2,131.6c0-2-0.1-3.9-0.2-5.9c-3.2-2.2-7-3.9-11.5-4.5c-0.9-0.1-1.7-0.2-2.5-0.2c-0.5-3.6-1.4-7.2-2.5-10.7
					c0.6,0,1.1,0.1,1.7,0.1c3.9,0.3,7.7,0.7,11.5,1.3c-0.5-1.4-1.1-2.8-1.7-4.1c-4.2-0.6-8.6-1.1-12.9-1.5c0,0,0,0,0,0
					c-1.4-3.6-3.1-7-5.1-10.2c2.8-0.6,5.3-1.7,7.4-3.7c-1-1.1-2.1-2.1-3.3-3c-1.8,1.6-4.1,2.5-6.7,2.8c-0.4-0.6-0.8-1.1-1.2-1.7
					c-3.8-4.9-8.1-9-12.8-12.4c-4.2-1.2-8.5-1.9-13-2.1c-0.2,0-0.5,0-0.7,0c8.4,3.3,15.9,8.8,21.9,16.3c-5.7-0.6-12.4-2.5-18.9-4.4
					c-1.9-0.6-3.8-1.1-5.7-1.6c-11.2-3.1-19.7-3.6-26.2-3c-4.8,2.7-9.1,6.2-12.9,10.1c6.9-2.9,21-7.9,38-3.1c1.8,0.5,3.7,1,5.6,1.6
					c7.5,2.2,16,4.7,23.2,4.8c2,3,3.8,6.2,5.2,9.5c-1.4-0.1-2.9-0.1-4.3-0.1c-35.4-0.6-65.8,10-82.7,26.9c0.1,3.4,0.5,6.6,1.1,9.8
					c4.8-6.8,11.8-13,20.9-18.1c17.2-9.6,39.9-14.7,64.1-14.3c0.8,0,1.7,0,2.5,0.1c1.2,3.5,2.1,7.1,2.7,10.8
					c-15.6,0.7-25.7,10.4-37.3,20.7c-10.4,9.3-23.1,18.6-41.7,24.2c1.8,2.2,3.7,4.2,5.7,6c17.5-7.1,29.1-18,39-26.8
					c11.2-10,20.7-19.6,34.8-20c0.4,3.9,0.4,7.9,0,11.9c-1.9,21.6-14.4,40-31.5,49c4.4-0.4,8.6-1.3,12.6-2.7c1.4-1.1,2.7-2.3,4-3.6
					c11.2-11,18.1-26.1,19.6-42.3c0.4-4.1,0.4-8.1,0-12.1c0.7,0.1,1.4,0.1,2.1,0.3C286.4,126.3,290.2,128.7,293.2,131.6z"/>
			</g>
		</g>
	</g>
</g>
</svg>
