<svg xmlns="http://www.w3.org/2000/svg" viewBox="0 0 960 640"><path fill="#010101" d="M519.087 521.45c-6.857 0-12.423 5.557-12.423 12.418 0 6.854 5.566 12.42 12.423 12.42s12.414-5.566 12.414-12.42c0-6.86-5.559-12.419-12.414-12.419m0 22.173a9.752 9.752 0 0 1-9.755-9.755 9.74 9.74 0 0 1 9.755-9.748 9.745 9.745 0 0 1 9.752 9.748 9.75 9.75 0 0 1-9.752 9.755m5.102-12.634a4.22 4.22 0 0 0-1.236-2.976 4.2 4.2 0 0 0-2.978-1.23h-5.984v14.175h2.66v-5.757h1.909l2.687 5.757h2.943l-2.807-6.003a4.22 4.22 0 0 0 2.032-1.538c.502-.71.772-1.558.774-2.428m-4.214 1.55h-3.324v-3.102h3.324c.855 0 1.555.695 1.555 1.553a1.557 1.557 0 0 1-1.555 1.55"/><path fill="#fff" d="M720.259 133.914H684.35c-1.459-4.169-3.901-8.254-7.502-11.847-10.419-10.434-24.417-12.129-32.569-3.983-1.722 1.728-3.008 3.786-3.863 6.07-2.401-1.757-5.41-3.346-8.996-4.767-5.042-10.586-12.161-25.552-28.164-25.552-5.716 0-10.835 1.774-14.858 3.772-11.798-9.345-37.38-26.835-63.492-26.835-28.592 0-68.265 26.255-79.899 26.255-8.475 0-27.488-41.948-57.006-41.948-15.856 0-31.921 10.746-51.063 22.293-18.261 10.937-23.143 24.164-28.425 38.112-1.801 4.547-9.764 12.867-15.291 18.43H201.6l156.017 271.308H250.804l-34.017 61.258h156.726c5.373 0 11.341-1.839 16.658-4.636l70.766 123.077 68.862-119.765h57.351V431.57h-3.85c-.038-11.667-8.87-24.388-13.299-30.004l-.846-4.852 13.158-22.9 76.692-28.282c12.451-4.59 18.235-15.747 20.926-24.466 0 0 8.46-.084 16.176-8.945 5.408 1.393 12.287 2.831 17.617 2.831 11.604 0 23.792-6.632 26.94-18.98 0 0 12.284-7.55 17.736-30.757l-95.468-31.605z"/><path fill="#010101" d="m645.874 251.421 11.986 3.966-.078 7.73c-6.384-.243-11.491-1.458-11.491 17.207 0 13.925 2.656 18.436 2.656 22.363 0 6.662-.568 8.243-21.51 8.243 0 0-3.27-3.97-14.757-8.418 0 0-.217-1.063-.686-3.014l88.702-154.257h-26.873c1.988-3.818.029-10.166-4.978-15.175-5.67-5.663-13.084-7.446-16.555-3.976-1.581 1.575-2.061 3.971-1.597 6.65l-11.047 11.582c.298-1.749.922-10.94-16.427-15.895-5.228-10.344-9.587-23.274-19.963-23.274-8.478 0-15.836 6.447-15.836 6.447s-31.696-29.51-62.513-29.51c-26.75 0-63.656 26.263-79.9 26.263-17.332 0-32.648-41.959-57.005-41.959-13.093 0-28.552 10.53-45.19 20.661-16.63 10.1-19.731 22.481-23.786 32.634-2.686 6.73-11.193 15.748-21.131 25.552H221.19l155.798 270.957c-1.184.213-2.335.36-3.388.36H257.47l-21.442 38.592h137.485c5.847 0 13.862-3.514 17.809-7.83l2.194-2.375 67.422 117.252 62.305-108.368h52.589v-10.934h-12.636l-2.242-7.03h1.926l9.104-4.212c0-10.506-12.632-25.257-12.632-25.257l-2.062-11.766 17.257-30.018 80.546-29.707c14.28-5.262 15.874-26.077 15.874-26.077s13.096 6.152 20.329-9.827c0 0 14.524 4.641 22.427 4.641 6.859 0 16.449-3.704 16.449-14.009 0 0 10.577-6.337 14.035-17.178l-94.897-31.432zm7.89-114.39c3.308 0 5.209 1.28 5.209 3.133 0 1.844-6.691 10.632-15.175 10.632-1.788 0-2.202-.978-2.202-1.53 0-2.705 8.842-12.236 12.167-12.236zm-7.151 18.222c7.827 9.441 8.105 19.803 8.105 19.803l-10.369-18.198c0-1.855 2.264-1.605 2.264-1.605m-4.818 6.208s11.43 12.647 11.43 19.78c0 3.908-3.122 2.337-3.122 2.337l-11.074-16.589zm1.848 30.65c-5.432 0-10.603-14.738-10.603-14.738s.544-2.98 3.449-2.98c9.274 7.911 7.154 17.718 7.154 17.718m-18.466-7.833c9.213 0 12.838 16.78 12.024 19.825-8.937 0-12.024-19.825-12.024-19.825m3.239 30.191c-13.016 0-19.608-23.522-19.608-23.522s.261-3.26 9.476-2.537c0 0 13.078 13.286 10.132 26.06m8.65-59.01c0 11.821-13.678 26.342-20.454 26.342-3.57 0-4.108-2.829-4.108-2.829s8.45-17.973 20.979-26.04c0 0 3.583.093 3.583 2.526m-12.1-18.209c5.669-3.239 14.044 7.235 6.047 11.288-11.812 5.781-24.515 30.21-24.515 30.21-5.696.96-7.815-2.53-7.815-2.53s2.515-23.57 26.283-38.968M481.087 341.831c-4.398 5.01-16.741-3.585-12.056-8.489l128.986-135.566c4.777-4.77 11.11 1.136 6.583 6.202zm8.767 15.807-1.13 3.695-4.38-.684.699-6.487c2.562-.703 3.629 2.773 4.811 3.476m-13.277-6.313c4.438 0 4.258 6.38 4.258 16.946 0 7.048-2.694 9.876-4.545 9.876-3.323 0-3.153-5.097-4.173-6.91 0 0 1.371-1.795 1.371-5.388 0-3.608-1.809-14.524 3.089-14.524m-60.269-12.58c-2.897 2.881-8.1 2.518-8.1 2.518s-14.162-12.46-5.521-24.439c9.157 5.61 13.62 21.92 13.62 21.92zm-6.731-26.05c0-5.362 11.404-9.125 11.404.933 0 12.73 2.45 12.524 2.45 14.273 0 2.366-4.606.68-4.606.68 0-3.89-9.247-10.537-9.247-15.887zm23.876 24.51c5.537 0 3.609 7.051 3.609 7.051-9.932-2.369-24.679 11.745-24.679 11.745s-.999-2.205-.999-4.679c0-4.797 10.812-14.117 22.068-14.117zm-7.925-25.44c0-7.29 6.923-10.79 6.923 9.457-2.416 2.406-6.923-1.336-6.923-9.459zm-4.855 44.942c9.209 29.623 17.587 45.558 17.587 45.558l-3.273 1.711s-16.736-11.83-19.149-39.662zm6.712-3.684c16.185-8.929 22.589 18.214 22.589 18.214 0 25.87-2.53 30.194-2.53 30.194-3.778-.98-12.733-18.466-20.059-48.408m16.82-22.375c-1.809 1.02-5.737 1.215-5.737-4.679 0-5.702-1.871-13.948.679-19.512 8.917 4.214 2.808 19.714 5.058 24.191m-.972 12.68c0-1.942 2.434-5.072 7.042-5.072 4.618 0 8.903.793 8.903 5.696 0 5.99-7.245 10-8.513 10-2.232 0-7.432-5.535-7.432-10.624m4.899-33.872s7.03-.738 7.03 7.942c0 3.411.006 9.124.349 11.645-1.581 2.448-6.22.463-6.22.463s-2.322-12.87-1.159-20.05m8.299 54.858s9.455-9.504 9.455 13.36c0 19.32-13.008 29.051-13.008 21.438 0-4.683 4.882-4.15 3.552-34.798zm4.603-48.176s4.527-2.085 4.527 7.341c0 9.505-1.001 8.941-2.436 9.74 0 0-3.866-5.87-2.091-17.08m4.513 42.223c-1.391 0-3.805-1.488-3.805-3.414 0-5.909 1.59-9.339 4.46-9.339 1.743 0 2.469 1.913 2.469 3.948 0 6.6-2.158 8.805-3.124 8.805m130.11-172.729s4.548-1.988 7.104 6.11c-4.058-.215-6.527 1.574-6.527 1.574s-2.401-4.972-.577-7.684m12.735-75.034 5.017 10.75c-5.318 0-9.014-8.03-9.014-9.59 0-2.033 3.52-2.194 3.997-1.16m-11.118.621 15.907 21.648s-1.242 2.58-3.439.232l-17.315-18.437s.826-3.443 4.847-3.443m-8.068 8.031 18.929 21.682c1.022 1.025-2.439 3.768-4.396 1.85l-21.444-20.975s4.396-5.436 6.911-2.557m-11.286 7.336c3.183 0 23.558 15.737 23.558 20.384 0 .538-1.487 2.638-2.351 2.026l-25.825-18.446s1.438-3.964 4.618-3.964m-8.91 10.17c9.968 4.518 18.822 10.15 27.798 16.106 1.491 1.004-.856 5.67-2.304 4.902l-27.158-14.739s-.831-2.954 1.664-6.27m-3.084 12.24c5.538 1.582 23.687 11.602 26.036 13.157 2.02 1.311-.859 4.313-1.828 3.903l-25.602-11.977s-1.707-1.92 1.394-5.083m-4.876 10.372c10.17 2.867 23.073 9.693 23.073 9.693-18.142.908-23.749-7.599-23.749-7.599zm-114.684-2.603c38.587 0 81.387 36.695 110.726 77.384l-80.201 84.274c-44.788-23.659-88.195-61.217-88.195-109.496 0-26.815 23.23-52.162 57.67-52.162M341.851 98.977c6.431-3.069 10.95 3.065 10.95 3.065-.879 2.373-7.901 7.36-7.901 12.335 0 2.68 13.251 2.905 13.251 13.145 0 4.475-2.285 6.723-2.285 6.723l-5.244.436s2.258-2.217 2.258-6.42c0-3.615-3.641-6.73-6.176-6.73-7.532 0-5.762 10.896-10.99 6.573 1.552-8.483 5.171-15.118 6.137-29.127m-25.358 36.478c14.032 14.044 20.365 29.482 20.365 29.482-2.831 7.02-33.683 21.051-33.683 21.051l18.249-33.675-45.635 39.307s.703-18.255 6.314-24.574c5.622-6.294 34.39-31.59 34.39-31.59M262.904 450.36h-18.723l16.109-29.002h18.738zm124.881-6.29c-3.06 3.347-9.725 6.29-14.272 6.29h-13.751l13.122-29.002h.717c7.083 0 16.527-3.938 21.525-8.974l22.165-22.353 8.68 12.39zm145.789-8.204h14.498l-2.014 7.03h-16.519zm-45.193-6.648c-1.189-1.514.091-4.49 2.812-6.632 2.761-2.168 5.973-2.663 7.144-1.13 1.204 1.513-.058 4.5-2.805 6.655-2.758 2.147-5.962 2.638-7.151 1.107m72.125 17.383h11.64v3.546h-92.228c1.443-7.758 5.883-13.14 6.896-14.28h3.2l6.08 10.734h10.032l3.409-10.736h5.625l3.93 10.736h29.76l3.055-10.736h5.177zm3.774-99.745c-13.093 0-38.033-6.176-65.088-17.793l69.47-77.549c14.93 24.424 24.24 48.623 24.24 65.778 0 26.223-16.51 29.563-28.622 29.563zm105.952-80.344 3.904-5.737 23.178 7.666.207 7.12zm44.35 30.988c-3.397.814-6.516-.044-6.958-1.942-.472-1.865 1.929-4.076 5.318-4.896 3.367-.814 6.513.076 6.951 1.951.463 1.885-1.918 4.073-5.311 4.887m-4.088-17.64 4.106-5.684 4.945 1.642 1.493 7.535zm-58.839-34.165 87.629 29.004c-3.08 5.95-8.352 9.953-10.284 11.292l-3.939-1.3-2.307-11.715-9.549-3.159-6.391 8.817-5.557-1.84-.343-11.038-28.272-9.362-6.065 8.916-5.113-1.697.114-10.888-11.042-3.655z"/><path fill="#ffb81c" d="M409.838 362.153c-4.977-11.99-2.778-14.724-2.778-14.724s-15.989-13.136-11.245-29.479c0 0-41.154-59.633-41.154-94.989 0-18.302 8.881-16.52 8.881-31.482 0-12.284-8.404-21.465-14.425-21.465-6.902 0-28.446 14.226-59.998 32.821l11.942-27.368-28.778 29.491s-5.621-28.789 9.864-44.258c2.509-2.53 5.083-5.029 7.639-7.529H234.89l149.812 260.517c2.729-1.303 5.25-2.905 7.01-4.692l23.617-23.809c-3.777-8.847-5.49-18.013-5.49-23.034zm180.385-182.472-2.803-6.317c-14.515 2.445-27.506-4.914-31.219-6.829-3.721-1.888.34-10.02.34-10.02s-1.007-1.754-3.289-3.345h-15.183c-2.858 2.567-3.525 6.526-1.189 8.935 16.112 16.721 29.046 34.665 39.351 51.963l16.841-17.705zm61.567-24.098c8.814 10.42 5.177 21.087 5.177 21.087 0 8.06-4.26 7.924-4.26 7.924 0 18.745-9.839 15.453-9.839 15.453 0 24.671-27.175 14.67-27.175 14.67-4.434-.574-8.126-1.803-11.13-3.262l-18.399 20.532c11.927 23.221 19.077 43.857 22.891 56.718l77.91-135.535h-33.008zM525.648 352.331c0-1.657-24.704-8.217-34.396-11.93-8.861 3.482 2.649 5.26 2.649 16.768 0 6.82-3.32 14.82-3.32 14.82l-4.934 1.4s-9.819 18.111-16.127 15.444c-9.004 15.835-12.688 19.5-26.993 19.5-4.595 0-8.638-1.339-12.193-3.577l-31.207 34.037 61.811 107.495 53.161-92.459h-38.218c0-9.845 6.261-17.965 6.261-17.965 0-15.67 9.651-19.008 16.84-19.649 15.277-1.344 21.505-.018 21.505-7.482 0-5.27-.459-11.49-.459-11.49h5.62c0-20.528-5.74-25.512-5.74-35.989 0-4.012 5.74-5.745 5.74-8.923m-4.475 89.188 3.25-5.655h-5.341z"/><path fill="#ffb81c" d="M498.235 442.896h5.192l2.24-7.032h-11.411zm51.881-51.72 11.983-20.84-13.365 6.56z"/></svg>