<svg xmlns="http://www.w3.org/2000/svg" viewBox="0 0 960 640"><path fill="#001e62" d="M704.027 499.785c-7.279 0-13.188 5.901-13.188 13.184 0 7.276 5.91 13.185 13.188 13.185s13.18-5.909 13.18-13.184c0-7.284-5.9-13.185-13.18-13.185m0 23.54a10.35 10.35 0 0 1-10.355-10.355 10.34 10.34 0 0 1 10.355-10.349c5.722 0 10.354 4.626 10.354 10.35s-4.632 10.354-10.354 10.354m5.418-13.412a4.46 4.46 0 0 0-1.312-3.16 4.45 4.45 0 0 0-3.162-1.307h-6.352v15.05h2.823v-6.112h2.026l2.854 6.112h3.123l-2.98-6.373a4.475 4.475 0 0 0 2.98-4.21m-4.474 1.645h-3.529v-3.293h3.528c.908 0 1.651.738 1.651 1.65a1.65 1.65 0 0 1-1.65 1.643"/><path fill="#fff" d="m735.909 316.95 47.027-49.403-26.711-123.138-118.804-35.277-10.685 9.905C587.007 107.181 515.554 94.916 467.823 95c-176.827.308-315.761 98.634-316.298 223.838 0 107.124 92.394 226.164 317.808 226.164 178.606 0 339.142-118.903 339.142-118.903z"/><path fill="#001e62" d="m720.21 315.583 49.303-51.796-23.778-109.655-105.086-31.195-10.772 9.984c-35.472-11.704-111.303-25.694-162.042-25.605-172.45.3-303.493 94.893-303.997 211.582-.522 122.321 118.118 213.782 305.493 213.782 131.121 0 265.461-69.986 322.232-109.773l-71.354-107.325z"/><path fill="#fff" d="M488.721 357.083H460.07v24.292l28.651-.033zm174.272-32.282c-22.265-19.607-54.687-40.145-95.737-50.128V365.6c30.982-8.566 64.975-23.107 95.737-40.799zm-282.911 44.363v-98.548c-28.459 8.228-60.352 24.334-60.352 49.84 0 17.46 26.954 38.533 60.352 48.708m80.632-86.66h27.845v-23.079l-27.845-1.132z"/><path fill="#fff" d="M701.765 326.998s-74.42 50.78-156.464 66.105V248.927c89.088 11.208 141.858 69.454 141.858 69.454l59.361-61.358-19.063-86.06-81.116-23.722-10.288 11.216c-32.915-12.864-100.822-29.53-176.107-29.53-150.724 0-273.811 85.397-274.032 190.788-.218 102.64 104.256 191.494 272.892 191.494 155.792 0 268.24-74.213 303.457-94.105zM444.647 299.84v-59.055c20.61-1.035 43.481.038 59.66 1.97v57.086zm59.66 39.055v59.465c-16.779 2-42.364 2.494-59.66 1.216v-60.68zM401.83 244.216v151.291c-24.835 0-104.099-29.145-104.099-75.057 0-56.756 80.997-72.428 104.099-76.234"/><path fill="#a6192e" d="M697.42 348.327c-97.381 57.184-162.188 68.285-241.255 67.544-111.13-1.048-174.417-45.509-174.417-98.462 0-47.74 58.055-93.24 176.659-93.24 79.796 0 176.023 21.383 227.411 72.036l42.789-43.607-14.611-69.209-63.091-18.435-11.454 12.945c-34.578-13.862-93.023-33.026-182.928-33.026-135.652 0-254.616 78.353-254.616 173.207 0 99.088 103.585 176.785 250.603 176.785 149.1 0 236.618-56.209 287.167-82.726l-42.258-63.813z"/></svg>