<svg width="500" height="500" viewBox="0 0 500 500" fill="none" xmlns="http://www.w3.org/2000/svg">
<path fill-rule="evenodd" clip-rule="evenodd" d="M488.716 355.524C462.118 319.702 415.694 275.946 360.386 251.382L371.682 277.408C324.652 253.722 272.374 236.719 213.112 236.988L225.742 250.662C116.273 254.95 52.0517 309.233 10 355.524C10.9837 292.845 55.8942 236.241 115.061 201.685L102.883 190.38C146.917 159.904 208.676 151.352 260.802 157.373L253.39 144C426.065 156.832 499.205 285.7 488.716 355.524Z" fill="white"/>
<path fill-rule="evenodd" clip-rule="evenodd" d="M212.304 245.368L199.038 231.003C249.315 229.331 300.144 236.901 359.273 264.692L348.38 239.593C392.895 256.839 442.217 289.032 483.574 338.965C479.932 263.357 403.575 165.385 264.693 151.375L272.415 165.306C216.283 155.77 153.212 165.694 113.074 191.287L125.626 202.937C65.2087 235.339 25.5208 286.881 17.0017 338.965C66.8681 286.881 131.699 250.907 212.304 245.368Z" fill="#0080C6"/>
<path fill-rule="evenodd" clip-rule="evenodd" d="M461.901 298.376C438.367 235.03 367.584 180.415 288.124 167.34L297.458 183.973C249.6 169.169 180.053 170.065 134.337 193.919L147.451 206.091C105.55 224.047 61.3376 262.501 43.8381 297.834C72.5371 271.946 134.977 241.982 186.2 235.615L173.472 221.833C222.701 212.075 288.313 221.733 335.088 240.726L326.015 219.817C360.465 226.879 424.487 257.66 461.901 298.376Z" fill="#FFC20E"/>
</svg>
