<svg width="50" height="50" viewBox="0 0 50 50" fill="none" xmlns="http://www.w3.org/2000/svg">
<path d="M26.0605 9.00066C20.1625 9.00066 15.0068 12.235 12.2498 17.0268H8.12063L10.9145 19.6943L8.19122 23.8994H5.02455L7.68917 26.443L4 32.1401L9.63667 28.8144L10.9429 30.0614C13.058 36.4101 19.0337 41 26.0605 41C34.8493 41 42 33.8222 42 25C42 16.1778 34.8493 9 26.0605 9" fill="#061922"/>
<path d="M14.9046 18.093V15.4832L13.215 18.093H10.7721L12.2822 19.5347L10.4217 22.4074L13.4314 20.6313L14.9046 22.0372V19.7625L17.7334 18.093H14.9046Z" fill="#0050B5"/>
<path d="M11.4634 24.9642V22.5643L9.90979 24.9642H7.67729L9.05743 26.2814L7.33885 28.9356L10.1196 27.2953L11.4634 28.5787V26.5019L14.07 24.9642H11.4634Z" fill="#0050B5"/>
<path d="M26.0294 16.0547C24.8518 16.0547 23.7165 16.2977 22.655 16.7772L22.5184 16.8387V14.0163L20.4772 17.1699H17.5203L19.3478 18.9142L18.5858 20.0896V18.9671L16.2728 22.5398H12.8436L14.9633 24.5629L12.4656 28.4204L16.5064 26.0364L17.2967 26.7907L17.3033 26.8205C17.3554 27.0741 17.4135 27.3059 17.4788 27.5304L17.5157 27.6555H15.0431L16.856 29.3515L14.6809 32.7659L18.3529 30.6799C18.4057 30.6501 18.4545 30.6382 18.4987 30.6382C18.6076 30.6382 18.6947 30.7077 18.7685 30.7666C18.7791 30.7753 18.8701 30.8507 18.981 30.9415C19.1538 31.0839 19.3728 31.2646 19.4019 31.2878C20.2226 31.9275 21.4807 32.8414 22.9228 33.3891C23.915 33.7592 24.96 33.9473 26.0281 33.9473C30.9431 33.9473 34.941 29.9336 34.941 25.0007C34.941 20.0678 30.9431 16.054 26.0281 16.054" fill="#0050B5"/>
<path d="M14.4249 19.487L15.972 18.5738H14.4249V17.1069L13.4756 18.5738H11.9714L12.901 19.4612L11.9318 20.9578L13.5 20.0327L14.4249 20.9161V19.487Z" fill="white"/>
<path d="M11.0023 24.1259L10.1605 25.4271H8.83115L9.6525 26.2112L8.79156 27.5416L10.1856 26.7191L11.0023 27.4999V26.237L12.3758 25.4271H11.0023V24.1259Z" fill="white"/>
<path d="M26.0294 16.646C24.5945 16.646 23.1801 17.0202 21.9339 17.7281V15.9937L20.7939 17.7546H18.9823L20.1018 18.8234L18.9348 20.6273L18.9388 20.6247C18.5627 21.2366 18.2698 21.8909 18.0633 22.5769V20.7346L16.5565 23.063H14.1511L15.6375 24.4821L14.1116 26.8403L16.5816 25.3828L17.8627 26.6059C17.9525 27.0694 18.0851 27.533 18.2566 27.9833L18.1121 28.2502H16.5525L17.6266 29.2548L16.41 31.1342L18.0521 30.1653C18.4149 29.9607 18.7712 30.0051 19.1393 30.2985C19.1532 30.3091 19.1789 30.3322 19.2178 30.3653C20.9186 31.8342 22.2598 32.5096 23.0864 32.8169C24.0443 33.1738 25.0352 33.3546 26.0301 33.3546C30.6198 33.3546 34.3532 29.6071 34.3532 25C34.3532 20.3929 30.6198 16.6454 26.0301 16.6454" fill="white"/>
<path d="M30.0472 22.2412C29.4283 20.0485 27.9301 18.3228 26.0057 17.7559C25.2252 17.5261 24.396 17.5745 23.6254 17.8347C22.4003 18.248 21.3151 18.9685 20.4634 19.9062C21.0202 19.5664 21.7558 19.3367 22.5131 19.3367C25.5683 19.3367 27.7368 21.9961 30.0472 22.2418" fill="#0050B5"/>
<path d="M30.852 22.2299C31.9854 22.0584 32.4842 21.2492 32.0903 20.5121C30.8553 18.8347 28.9461 17.6877 26.7637 17.4758C28.7501 18.0837 30.2233 19.9717 30.8514 22.2293" fill="#0050B5"/>
<path d="M30.2424 26.9205C30.3341 26.4258 30.3895 25.9106 30.4074 25.3801C25.9536 25.3112 19.4857 25.1536 19.4857 25.1536V24.8623C19.4857 24.8623 25.9536 24.7046 30.4074 24.6358C30.3895 24.1053 30.3341 23.5901 30.2424 23.0954C27.3364 22.9259 25.2206 20.026 22.2202 20.026C20.627 20.026 19.5569 20.9677 18.9797 22.3332C18.6676 23.163 18.4961 24.0616 18.4961 25.0013C18.4961 25.941 18.6709 26.8575 18.9889 27.6939C19.5661 29.0594 20.6263 29.9899 22.2202 29.9899C25.2206 29.9899 27.3364 27.0893 30.2424 26.9205Z" fill="#0050B5"/>
<path d="M31.2155 24.6239C32.1583 24.6106 32.9658 24.604 33.5503 24.6046C33.4922 23.502 33.2019 22.463 32.7203 21.5359C32.7355 22.2822 32.1437 22.916 31.0453 23.0723C31.1403 23.5782 31.197 24.0974 31.2155 24.6239Z" fill="#0050B5"/>
<path d="M30.0472 27.7747C27.7361 28.0204 25.5683 30.6799 22.5131 30.6799C21.7703 30.6799 21.0479 30.4574 20.495 30.1283C20.6408 30.2865 20.7919 30.4408 20.9509 30.5865C21.7683 31.3362 22.7513 31.9057 23.8378 32.2368C24.5094 32.4408 25.2279 32.4732 25.9048 32.2891C27.8773 31.7527 29.4178 30.0058 30.0472 27.7754" fill="#0050B5"/>
<path d="M30.852 27.786C30.2292 30.0223 28.7778 31.8944 26.8191 32.5209C28.9903 32.2937 30.8857 31.1408 32.1094 29.4627C32.4637 28.7363 31.9636 27.9542 30.8514 27.786" fill="#0050B5"/>
<path d="M33.5503 25.4112C32.9664 25.4119 32.1576 25.4046 31.2155 25.392C31.1964 25.9178 31.1397 26.4377 31.0453 26.9436C32.1411 27.0999 32.7329 27.7317 32.7203 28.4754C33.198 27.5496 33.4922 26.5132 33.5516 25.4132C33.5516 25.4132 33.5509 25.4119 33.5503 25.4112Z" fill="#0050B5"/>
<path d="M21.0321 33.8023L19.7212 34.3327L19.704 32.8897L19.0898 32.4679L17.4702 34.842L18.0785 35.2598L18.9909 33.9235L18.9915 33.9784L19.0179 35.2559L19.1043 35.3155L20.3163 34.8519L20.2839 34.8989L19.4124 36.177L20.02 36.5949L21.6403 34.2208L21.0321 33.8023Z" fill="white"/>
<path d="M28.5436 37.4346C28.7811 37.1194 28.8867 36.7174 28.8405 36.3042L28.8161 36.0777L27.5837 36.2154L27.4003 36.8558L28.0871 36.779L28.0799 36.8048C27.9974 37.0776 27.7665 37.2737 27.4914 37.3048C27.2631 37.3306 27.0434 37.2684 26.8706 37.1286C26.6991 36.9896 26.5902 36.7883 26.5658 36.5618C26.5407 36.3373 26.6034 36.1187 26.7413 35.9466C26.8798 35.7744 27.0804 35.6651 27.306 35.6406C27.5323 35.6161 27.754 35.6784 27.9294 35.8194L27.9624 35.8459L28.3807 35.2585L28.3477 35.2353C28.0878 35.0479 27.7467 34.944 27.4083 34.944C27.3489 34.944 27.2895 34.9473 27.2301 34.9539C26.8033 35.0016 26.4226 35.2036 26.1581 35.5221C25.8955 35.8399 25.7761 36.2393 25.821 36.6465C25.9015 37.3743 26.4781 37.9299 27.2222 37.9968C27.3357 38.0067 27.4511 38.0061 27.5666 37.9928C27.9585 37.9491 28.3055 37.7511 28.5436 37.4352" fill="white"/>
<path d="M30.2868 34.1864L29.5997 34.475L30.7059 37.1294L31.393 36.8409L30.2868 34.1864Z" fill="white"/>
<path d="M34.2588 34.1089C34.2001 34.2718 34.082 34.4235 33.9191 34.548C33.5424 34.8347 33.0106 34.7698 32.7335 34.4029C32.4617 34.0427 32.5475 33.5169 32.9242 33.2301C33.0865 33.1063 33.2646 33.0341 33.4375 33.0202L33.51 33.0142L33.0674 32.4275L33.043 32.4328C32.8457 32.4732 32.6537 32.5633 32.4736 32.701C32.1292 32.9632 31.9069 33.3301 31.8475 33.7341C31.7888 34.1321 31.8931 34.5314 32.1405 34.8585C32.3852 35.183 32.7355 35.3923 33.1274 35.4479C33.1327 35.4486 33.138 35.4492 33.1432 35.4499C33.5503 35.5042 33.96 35.3883 34.305 35.1254C34.4897 34.985 34.6289 34.8254 34.7186 34.6513L34.7299 34.6287L34.2845 34.0394L34.2595 34.1082L34.2588 34.1089Z" fill="white"/>
<path d="M38.3926 29.1647C38.673 28.327 38.2666 27.4595 37.4677 27.1893C37.312 27.137 37.1524 27.1112 36.9934 27.1112C36.7585 27.1112 36.5256 27.1681 36.3092 27.28C36.0322 27.4237 35.8059 27.6476 35.6535 27.927C35.606 28.0144 35.5657 28.1065 35.5347 28.2005C35.259 29.023 35.6779 29.9084 36.4676 30.1753C36.8496 30.3038 37.2599 30.272 37.6221 30.0826C37.9849 29.8932 38.2581 29.5674 38.3926 29.1654M36.9729 29.4985C36.8845 29.4985 36.7948 29.4839 36.7057 29.4541C36.4992 29.3846 36.333 29.2409 36.2367 29.0488C36.1404 28.8548 36.1252 28.633 36.1951 28.4237C36.2664 28.2131 36.4122 28.0442 36.6055 27.9482C36.7974 27.8529 37.0171 27.8396 37.2223 27.9085C37.4301 27.9787 37.597 28.123 37.6927 28.3151C37.7883 28.5078 37.8022 28.731 37.7323 28.9422C37.7164 28.9892 37.696 29.0349 37.6729 29.0793C37.5277 29.3455 37.2606 29.4985 36.9736 29.4985" fill="white"/>
<path d="M27.0731 13.3846C27.054 12.98 26.8739 12.6091 26.5678 12.3396C26.2801 12.0866 25.91 11.9502 25.5188 11.9502C25.4918 11.9502 25.4641 11.9509 25.4364 11.9522C24.5569 11.9946 23.8999 12.6899 23.9394 13.5356C23.9592 13.9435 24.1387 14.3163 24.4448 14.5865C24.6777 14.7925 24.9679 14.9229 25.284 14.964C25.3816 14.9772 25.4812 14.9806 25.5808 14.9759C26.4431 14.9349 27.1134 14.221 27.0731 13.3853M26.1112 14.0097C25.9668 14.1706 25.7662 14.2653 25.5465 14.2759C25.5327 14.2766 25.5195 14.2773 25.5056 14.2773C25.2991 14.2773 25.1052 14.2024 24.9561 14.066C24.7984 13.921 24.7054 13.721 24.6948 13.5031C24.6843 13.2833 24.7575 13.0747 24.9007 12.9164C25.0451 12.7561 25.247 12.6628 25.4687 12.6515C25.5175 12.6495 25.5683 12.6515 25.6171 12.6575C26.0096 12.7085 26.2966 13.0243 26.3164 13.425C26.327 13.6429 26.2537 13.8508 26.1106 14.0104" fill="white"/>
<path d="M29.1902 15.3918L30.0452 15.654L29.6328 14.4375L29.654 14.4349C30.0564 14.3766 30.3473 14.1468 30.4516 13.8038C30.6396 13.1853 30.3236 12.731 29.5365 12.4893L28.7548 12.2495L27.9169 15.0017L28.6294 15.2203L28.8696 14.4309L29.1895 15.3924L29.1902 15.3918ZM29.2713 13.1111L29.3907 13.1475C29.5675 13.2018 29.6817 13.2773 29.7325 13.3733C29.7833 13.4693 29.7556 13.5601 29.7437 13.5985C29.71 13.7091 29.6427 13.7846 29.5451 13.8236C29.4983 13.8422 29.4461 13.8515 29.3888 13.8515C29.3281 13.8515 29.2627 13.8409 29.1941 13.8203L29.0675 13.7813L29.2713 13.1111Z" fill="white"/>
<path d="M32.3239 17.056L32.7019 16.4864L31.9181 15.9626L31.928 15.9481L33.1307 14.1369L32.5106 13.7223L30.9206 16.1176L32.3239 17.056Z" fill="white"/>
<path d="M35.9081 16.6156L32.977 17.5473L33.4632 18.1559L33.8801 18.0122L33.8881 18.0221L34.5418 18.8407L34.5359 18.8512L34.3123 19.2181L34.813 19.8439L36.3541 17.1732L35.9088 16.6156H35.9081ZM34.8776 18.293L34.4877 17.8056L35.3566 17.5089L34.8776 18.2937V18.293Z" fill="white"/>
<path d="M23.4348 34.7817L21.7096 37.3366L22.4669 37.5114L22.7058 37.1392L23.7363 37.377L23.7376 37.3895L23.789 37.816L24.5682 37.9961L24.1281 34.942L23.4341 34.7817H23.4348ZM23.0548 36.5989L23.0686 36.5777L23.5529 35.8254L23.6617 36.7392L23.0548 36.5989Z" fill="white"/>
<path d="M36.8555 20.5664L36.8245 20.6114L35.7518 22.1889L35.984 22.8471L38.6856 21.8849L38.4368 21.1803L36.9445 21.7121L38.0522 20.0916L37.818 19.43L35.1165 20.3929L35.3658 21.0969L36.8555 20.5664Z" fill="white"/>
<path d="M38.993 24.559L38.9851 23.6755L36.1179 23.702L36.1258 24.5934C36.1351 25.6119 36.7783 26.0344 37.378 26.0894C37.4433 26.0953 37.5119 26.0966 37.5772 26.0973C37.9473 26.094 38.2884 25.9702 38.5371 25.7483C38.8399 25.4781 38.9983 25.0669 38.9936 24.559M37.5706 25.3497H37.5634C37.3278 25.3497 37.1326 25.2748 37 25.1338C36.8779 25.004 36.81 24.8205 36.808 24.6166L36.806 24.4424L38.3102 24.4285L38.3115 24.602C38.3115 24.9437 38.1182 25.3444 37.57 25.3497" fill="white"/>
<path d="M26.0565 10.2324C22.1523 10.2324 18.601 11.7701 15.9641 14.27V15.0978C18.5297 12.4634 22.1054 10.8244 26.0565 10.8244C33.8439 10.8244 40.1792 17.1838 40.1792 25.0013C40.1792 32.8189 33.8439 39.1776 26.0565 39.1776C19.9488 39.1776 14.735 35.2645 12.7697 29.8051L12.2525 30.1104C14.328 35.7433 19.7324 39.7702 26.0565 39.7702C34.1691 39.7702 40.769 33.1454 40.769 25.002C40.769 16.8586 34.1691 10.2331 26.0565 10.2331" fill="#0050B5"/>
</svg>
