<svg xmlns="http://www.w3.org/2000/svg" width="500" height="500" viewBox="0 0 500 500"><g fill="none"><path d="M0 0h500v500h-500z"/><path fill="#B0B7BC" d="M434.973 183.278s5.994-5.145 12.263-5.032c6.284.098 10.621 2.205 12.982 4.719 0 0 4.996-.683 10.422.806 5.419 1.498 13.074 5.972 16.056 11.181 2.978 5.218 3.324 11.215.229 16.889 0 0 1.026 3.858-1.506 8.644-2.555 4.797-6.721 7.288-6.721 7.288s-2.851 7.09-10.288 10.386c-7.452 3.301-17.236-.427-17.236-.427s-5.541 1.08-9.72 1.08c-4.211-.008-10.087-1.816-11.892-2.666 0 0-4.991 7.326-6.382 9.073 0 0 6.816 5.932 14.273 8.268 7.442 2.335 13.294 3.405 16.706 5.844 3.382 2.463 4.686 4.853 4.686 4.853s5.202-.81 10.196.368c5.004 1.174 10.842 5.106 14.677 10.331 3.831 5.217 6.17 11.912 4.574 18.286-1.595 6.395-5.241 8.719-5.241 8.719s-1.777 5.873-5.398 9.48c-3.607 3.641-8.761 3.874-8.761 3.874s-2.828 3.798-10.168 4.963c-7.335 1.174-12.588-2.886-12.588-2.886s-5.798.657-13.688-1.794c-7.867-2.438-13.255-10.508-13.255-10.508s-5.125-2.465-14.6-2.9c-9.471-.431-30.62-4.687-40.036-10.165 0 0-5.538 2.675-22.319 3.544 0 0-2.487-7.581-7.352-11.382 0 0-14.425 8.007-18.984 10.122-4.58 2.137-13.048 5.824-20.416 6.271 0 0-1.932 12.034-5.449 18.532-3.503 6.501-10.248 11.33-15.96 13.224 0 0 8.313 2.951 12.687 9.441 4.349 6.502 5.842 13.626 2.868 19.37-2.985 5.749-6.347 7.31-6.347 7.31s-1.707 5.803-8.423 8.817c-6.724 3.016-15.174 1.419-15.174 1.419s-4.679 2.467-11.086 2.417c-6.417-.057-14.457-5.516-14.457-5.516s-21.034 1.925-27.294 1.399c-6.256-.505-13.666-3.102-17.198-12.346 0 0-3.843 3.21-9.577 5.98-5.743 2.767-16.622 8.102-24.438 13.671l.26 4.156s11.425 4.305 12.157 16.007c.751 11.71-5.642 16.053-7.456 17.294 0 0-2.431 5.281-7.646 7.936-5.208 2.651-10.966 1.429-10.966 1.429s-12.846 5.704-22.637-3.667c-9.796-9.358-7.024-19.468-6.91-21.927.096-2.438.809-23.893.708-24.889 0 0-4.862-6.502-3.8-13.848 1.064-7.339 6.7-11.925 9.353-14.153 2.669-2.24 5.86-5.951 7.442-11.595 1.592-5.635 1.703-17.148 2.237-21.399.539-4.258.761-11.391.761-11.391s-19.252-5.311-29.258-16.488c-10.001-11.18-12.773-19.27-15.337-30.324-2.535-11.067-4.337-22.251-14.5-28.525 0 0-6.655 1.906-14.301-1.179-7.655-3.082-12.343-9.256-17.229-15.322-4.896-6.067-22.322-8.834-28.514-9.149 0 0 13.082-14.482 30.745-20.654 17.652-6.163 26.053-3.727 31.906-.423 5.855 3.301 10.453 8.857 12.619 16.405 0 0 11.512 4.981 19.395 14.249 7.869 9.25 11.59 17.448 14.153 27.556 2.55 10.122 5.76 22.38 26.051 26.834 0 0 12.023-12.03 16.58-15.025 4.587-2.968 10.319-4.656 11.973-5.142 1.643-.486 9.374-3.003 9.374-3.003s12.147-9.912 14.126-11.891c0 0 4.529-8.051 7.399-12.733 2.873-4.682 7.368-9.325 7.368-9.325s-5.897-10.964-5.571-22.963c0 0 2.903 1.319 5.502 1.696 0 0-.178-8.886 5.575-17.083 5.74-8.21 11.536-13.347 11.536-13.347s-.438-10.796 6.101-21.026c0 0-4.982-7.988-5.41-13.095 0 0 8.294-.745 14.57-2.555 6.282-1.808 9.358-3.078 12.553-6.927 3.187-3.826 10.84-13.191 20.524-17.773 9.691-4.573 20.425-6.236 28.134-5.627 0 0-4.728-4.059-9.959-5.755 0 0 8.92-6.571 26.477-8.447 0 0 .131-8.899 2.029-13.583 0 0 23.312 15.962 35.001 20.546 11.703 4.584 20.203 6.066 26.27 9.054 6.042 2.964 10.339 8.458 11.326 11.841 0 0 6.533 2.512 11.533 6.029 4.993 3.509 7.891 11.981 7.891 11.981s9.448 3.771 19.238 9.726c9.776 5.958 21.785 18.521 21.785 18.521s-7.567 3.334-13.992 12.627c0 0-2.955 10.314-7.828 15.395"/><path fill="#FFFFFE" d="M421.299 187.581s4.405-.087 8.263.989c3.874 1.083 6.319 2.353 6.319 2.353s2.847-1.808 4.297-3.063c1.435-1.276 5.759-3.512 9.614-2.887 3.874.63 6.607 3.391 7.322 4.568 0 0 3.301.2 6.358.029 3.061-.19 8.728.889 13.218 4.493 4.519 3.599 8.635 8.918 3.152 16.018 0 0 1.175 4.504-.446 7.74-1.618 3.252-5.804 5.021-5.804 5.021s-2.576 7.681-8.594 9.656c-6.028 1.99-13.59-1.722-13.59-1.722s-7.093 1.722-12.229 1.368c-5.123-.367-10.73-4.699-10.73-4.699s-1.232.735-2.39 2.435c-1.181 1.718-10.008 14.098-12.065 16.279 0 0 8.637 8.396 17.18 11.896 8.55 3.505 12.864 4.064 15.127 4.679 2.235.64 7.183 3.427 8.993 8.837 0 0 5.493-1.368 9.08-1.087 3.602.266 7.109.981 13.405 7.461 6.295 6.482 4.862 12.344 3.87 15.034-.987 2.684-4.731 5.015-4.731 5.015s-.312 5.427-3.554 8.311c-3.243 2.869-7.634 2.376-7.634 2.376s-1.72 3.28-6.21 4.647c-4.51 1.352-9.363-1.004-11.627-2.799 0 0-9.258.815-15.275-2.161-6.015-2.968-8.847-8.794-8.847-8.794s-10.21-4.177-20.831-4.264c-10.611-.086-31.165-5.829-37.899-10.745 0 0-10.22 4.659-18.456 4.782 0 0-2.543-7.715-11.451-13.07 0 0-19.088 10.584-25.925 13.734-6.831 3.15-18.862 4.292-20.622 4.482 0 0 .747 2.89-.14 7.576-.931 4.676-3.791 13.868-6.217 16.927-2.443 3.059-9.188 6.832-13.137 8.276-3.954 1.442-8.898 2.707-13.056 4.765-4.124 2.076-9.164 6.288-11.369 8.276 0 0 6.369 1.613 8.289 1.529 1.915-.074 5.339-1.98 7.866-2.956 2.525-1 9.62-2.351 15.29 1.885 5.668 4.229 8.632 9.712 8.438 13.868-.16 4.134-2.845 7.142-6.805 9.19 0 0-1.182 5.844-6.122 7.638-4.97 1.795-13.199.167-13.199.167s-3.906 2.537-8.584 2.797c-4.675.277-10.967-3.774-11.957-4.311-1.002-.549-1.981-1.078-3.697-1.078-1.72 0-20.229 1.532-25.989 1.532-5.751 0-9.708-2.802-12.14-7.295-2.43-4.506.977-11.706 3.151-14.571 2.145-2.898 5.58-6.858 6.01-7.672.454-.81.557-2.15-.617-2.964-1.171-.81-4.926-2.663-4.926-2.663s-5.69 11.401-7.844 15.262c-2.165 3.869-4.955 8.189-10.344 11.521-5.405 3.334-16.835 8.381-22.847 12.065-6.037 3.684-9.609 7.086-9.609 7.086s.062 10.848.389 12.184c0 0 5.431 1.071 7.603 2.957 2.162 1.9 4.308 4.958 4.217 9.187-.075 4.229-.641 9.205-5.908 11.172 0 0-1.471 5.477-5.6 7.094-4.142 1.624-8.376.186-8.376.186s-5.655 2.869-11.595 1.617c-5.933-1.257-10.883-7.37-10.974-13.595-.086-6.218.981-28.708.981-30.164 0-1.437 0-2.963-1.067-4.936-1.085-1.982-3.611-6.927-2.965-10.085.627-3.15 3.858-6.845 6.828-9.369 2.966-2.515 6.577-5.028 8.369-10.078 1.791-5.024 3.321-11.96 3.51-17.28.181-5.299.825-22.581 1.99-27.261 0 0-22.328-4.957-32.398-16.476-10.068-11.525-11.783-20.71-14.66-33.036-2.88-12.337-6.555-21.768-18.282-27.905 0 0-6.284 3.062-14.362-.446-8.103-3.513-12.516-12.694-16.823-15.947-4.319-3.231-16.072-5.091-18.422-5.024 0 0 14.003-9.723 23.637-12.604 9.621-2.877 20.068-3.776 26.625 1.451 6.56 5.2 7.549 14.216 7.549 14.216s13.501 5.58 21.331 15.205c7.828 9.638 10.144 18.626 11.68 24.661 1.536 6.031 6.282 18.088 13.895 23.408 7.616 5.324 16.544 7.561 21.197 7.876 0 0 13.133-13.729 17.634-16.704 4.483-2.969 9.527-4.147 11.673-4.771 2.168-.621 9.648-3.103 9.648-3.103s13.237-11.405 15.78-13.373c0 0 7.677-13.31 9.834-16.469 2.17-3.144 7.962-10.547 7.962-10.547s-5.307-6.061-5.24-13.907c0 0 3.127.622 5.106.428 0 0-2.6-4.407-1.337-10.622 1.262-6.21 7.99-16.296 16.993-24.044 0 0-.356-6.56 1.525-12.755 1.897-6.223 5.733-11.189 5.733-11.189s-4.105-5.082-4.753-9.067c0 0 7.755-.728 13.154-2.517 5.392-1.816 9.712-5.64 9.712-5.64s10.331-14.268 22.92-18.77c12.614-4.502 25.456-3.111 25.456-3.111s6.37-4.147 8.995-5.06c0 0-4.999-5.631-9.146-7.364 0 0 9.712-2.935 18.658-2.248 0 0 .164-6.227 1.181-9.843 0 0 15.592 11.256 22.703 14.395 7.101 3.15 20.675 7.654 25.276 9.1 4.583 1.436 12.363 4.427 14.006 12.738 0 0 7.563 3.185 10.544 4.81 2.97 1.626 6.032 5.497 6.655 7.118.613 1.609 1.241 3.61 2.015 4.857.778 1.259 2.109 2.15 3.373 2.592 1.264.462 13.76 6.04 19.53 10.36 5.742 4.337 13.586 11.797 13.586 11.797s-7.804 6.228-9.724 9.101c0 0-2.335 7.833-6.11 13.402-3.792 5.58-9.44 7.758-9.44 7.758v1.878"/><path fill="#0076B6" d="M404.557 246.42s-20.466 20.634-38.937 30.596c0 0-8.607 4.068-15.292 5.028 0 0-5.257-10.042-15.77-13.153 0 0-22.267-8.529-54.461-1.821 0 0 30.629-2.241 45.972 6.612-6.992 3.872-16.548 9.002-21.616 10.982-8.604 3.352-19.817 3.119-24.137 3.835 0 0 2.157 7.646 1.911 10.037-.232 2.383-2.619 14.353-6.674 17.697-4.07 3.336-14.583 6.683-20.074 8.612-5.493 1.898-17.685 9.552-21.509 20.069 0 0 14.34 3.121 18.159 3.58 3.826.475 7.407-1.671 10.044-2.857 2.622-1.207 5.962-1.924 9.552.233 3.579 2.166 5.259 5.265 5.972 7.655.719 2.387-1.9 4.53-6.214 5.261 0 0 .483 5.022-2.141 6.208-2.637 1.194-9.084.486-12.68-.722 0 0-2.369 3.364-7.395 3.364-5.012 0-8.367-5.269-13.616-5.506-5.255-.238-21.742 1.912-27.719 1.44-5.977-.484-6.447-4.064-5.253-7.423 1.199-3.335 8.598-10.749 9.795-14.105 1.034-2.913 1.95-8.007-9.982-12.756.514-.634 9.112-11.253 22.621-19.403 13.227-7.966 26.36-15.405 41.743-20.305-6.204.601-15.71 2.913-28.12 8.152-18.651 7.901-29.385 18.102-29.385 18.102s1.38-5.388 17.502-19.723l-.167.115c-22.038 10.044-31.247 32.724-31.412 33.075-2.779 5.667-10.468 21.113-13.389 24.227-3.575 3.822-13.605 7.41-21.007 11.706-7.421 4.307-16.977 9.813-18.172 13.39-1.197 3.593.26 19.835.718 20.807 0 0 8.371.712 10.033 2.862 1.67 2.149 1.452 6.45.47 7.651-.942 1.208-4.531 1.208-4.531 1.208s.239 4.759-2.152 6.197c-2.386 1.45-7.64-.703-7.64-.703s-1.44 2.153-5.015 2.616c-3.579.486-6.213-.937-7.887-3.577-1.673-2.632-.947-6.217-.947-9.095 0-2.865 1.182-22.95.705-27.731-.463-4.769-4.537-8.118-3.819-11.236.718-3.098 9.551-8.133 12.414-13.389 2.877-5.264 5.505-12.193 6.21-24.372.718-12.197.718-23.444 2.635-29.653.245-.782.48-1.522.693-2.245-7.763-1.462-24.381-6.037-32.151-12.84-8.747-7.63-12.65-15.267-14.517-25.127-1.86-9.88-5.847-21.015-9.85-28.12-4.178-7.356-16.939-13.959-16.939-13.959s-5.695 4.591-13.182.432c-8.371-4.631-9.233-7.485-12.164-11.357-2.607-3.416-7.716-4.437-9.103-4.668 17.54-6.842 26.223 2.588 26.223 2.588s-.442-4.742-7.196-6.485c-2.032-.541-4.552-1.151-7.321-1.406 1.323-.508 2.534-.916 3.426-1.145 2.954-.739 9.913-1.466 15.212 2.113 4.929 3.332 6.694 13.411 6.694 13.411 2.417 1.488 16.743 8.621 21.402 14.579 4.665 5.966 8.012 12.047 10.055 20.051 2.05 8.012 4.834 19.745 16.74 29.614 9.141 7.555 22.634 9.323 28.434 9.733.235-.316.46-.627.712-.948 4.057-5.264 16.25-16.73 19.82-18.396 3.584-1.677 17.93-5.281 19.605-6.94 1.679-1.66 15.775-12.919 16.961-14.588 1.201-1.66 7.649-13.148 11.467-18.895 3.819-5.733 13.388-16.238 13.388-16.238s-8.113-.254-10.254-3.84c0 0 8.852-3.896 9.643-8.915.455-2.966-1.587-5.099-7.586-2.632 0 0 .774-5.662 5.794-12.831 5.035-7.171 14.527-15.133 18.403-17.93 4.793-3.461 6.453-7.883 5.253-10.275-1.198-2.403-6.457-2.641-10.047 1.436 0 0 3.361-10.046 9.567-14.338 0 0-4.55-.965-6.206-4.562 0 0 6.923.245 11.706-2.394 4.783-2.616 17.214-10.498 21.977-10.741 0 0-3.824-1.925-9.789.243 0 0 9.151-11.003 23.173-13.157 14.037-2.153 26.513 1.67 32.246-.958 0 0-2.626-3.337-8.842-3.337 0 0 7.655-4.555 12.434-4.555 0 0-4.059-4.782-9.807-6.937 0 0 12.424.484 16.973 2.637 0 0-3.121-3.583-2.625-7.658 0 0 9.558 8.605 23.642 13.394 14.096 4.781 22.706 6.455 25.095 10.273 2.39 3.828.959 5.98.959 5.98s10.266 4.318 13.855 6.206c3.582 1.924 5.012 6.227 5.486 7.673.481 1.416 2.88 5.492 4.779 6.212 1.916.716 12.433 5.259 18.152 8.844 5.743 3.589 11.233 8.608 11.233 8.608s-5.489 3.099-6.671 5.736c-1.205 2.624-3.602 15.291-13.874 18.639 0 0 3.101-5.259.743-10.514 0 0-12.204-.721-20.814 4.549 0 0-1.548 10.282 3.947 13.161 5.493 2.862 11.817-5.765 12.546-7.676 0 0-.182 4.845 0 8.112l1.466.237c.347 3.448-.273 8.394-.273 8.394s4.056-3.111 10.759-1.915c6.682 1.187 8.353 3.345 10.513 3.345 2.153 0 6.438-2.864 7.862-4.302 1.45-1.431 3.849-2.398 5.989-1.674 2.148.717 3.344 4.069 3.344 4.069s8.137.717 10.759.23c2.619-.482 7.873 2.399 9.309 3.587 1.431 1.199 3.113 3.117 2.616 4.558-.463 1.419-3.82 3.577-3.82 3.577s1.92 3.826 1.674 6.209c-.235 2.396-5.253 3.345-5.253 3.345s-1.67 6.459-4.775 8.122c-3.092 1.68-11.951-1.902-11.951-1.902s-5.26 1.902-11.22 1.679c-5.972-.24-9.329-4.788-9.329-4.788s-4.533-.722-8.131 2.392c-3.559 3.116-10.968 16.739-18.382 23.43zm-50.051-40.207c8.479 9.138 2.392 17.467 2.392 17.467 8.825-1.842 33.8-10.965 47.419-21.968 0 0-9.85-5.257-16.963-5.658-6.339-.361-10.239 6.585-10.676 13.435-5.107 3.127-12.408 4.579-12.408 4.579l.02-.131c.177-1.106 1.069-9.312-8.908-14.433-10.425-5.355-30.741-8.791-52.683 3.086 21.942-8.25 44.983-3.708 51.807 3.624zm-87.23-2.702c14.171-3.356 23.089-11.43 30.63-15.114 8.65-4.234 20.165-8.121 35.303-5.88 0 0-21.547-9.054-41.933 1.779-20.384 10.821-30.129 16.637-50.697 17.362 0 0 11.744 5.388 26.697 1.852zm51.451-43.459c-21.255-3.876-35.36 9.781-35.36 9.781s15.997-6.404 33.046-4.613c17.026 1.791 33.009 14.671 33.009 14.671s-9.447-15.956-30.695-19.839zm71.866-22.605c-2.105 0-9.646 1.729-9.646 1.729s7.338 1.55 9.281 2.904c1.928 1.35 8.092 5.989 8.092 5.989s-1.531-1.933-1.168-2.898c.395-.959 3.092-4.65 3.092-4.65-3.092-.191-7.524-3.075-9.652-3.075zm85.151 150.569c.725 3.106-2.616 5.023-5.483 5.023 0 0 .723 6.691-1.682 8.366-2.386 1.667-6.92-.728-6.92-.728s-.241 4.79-3.823 5.98c-3.579 1.194-7.883-3.106-7.883-3.106s-8.373 1.446-14.088-1.194c-5.735-2.628-6.939-7.882-6.939-7.882s-9.326-4.298-18.397-5.252c-7.778-.833-24.57-1.683-38.78-8.465 5.889-3.49 14.574-8.944 21.383-14.559 6.543-5.403 12.451-11.189 16.28-15.157 4.297 3.905 10.668 9.201 15.94 11.64 8.831 4.059 15.292 5.743 18.148 6.208 2.859.471 5.024 3.593 5.726 5.26.727 1.673 3.599 4.297 6.944 4.068 3.348-.245 7.65-2.154 11.465 0 3.811 2.15 7.406 6.683 8.109 9.798z"/></g></svg>