<svg xmlns="http://www.w3.org/2000/svg" width="500" height="500" viewBox="0 0 500 500"><g fill="none"><path d="M0 0h500v500h-500z"/><path fill="#FFFFFE" d="M164.953 278.895c.47 5.637 2.473 16.854 8.955 29.37 8.01 15.456 24.79 36.065 59.399 47.737 5.493 8.626 11.956 16.689 19.273 23.985 26.308 26.246 61.256 40.674 98.405 40.615 37.154-.053 72.058-14.578 98.288-40.906 26.23-26.318 40.655-61.287 40.596-98.458-.058-37.181-14.575-72.105-40.878-98.351-20.844-20.798-46.992-34.178-75.758-38.82-38.943-35.284-84.407-22.641-86.356-22.074-.655.184-1.629.466-2.841.834-13.993 4.657-21.227-.679-25.915-4.356-5.193-4.075-10.861-8.213-16.33-11.289-18.575-10.455-44.975-10.828-67.21-1.858-14.647 4.992-22.032-1.465-26.4-4.483-29.008-20.026-64.674-24.805-102.512-16.47-25.479 5.618-35.67 10.804-35.67 10.804s17.455 2.532 35.69 10.159c14.972 6.258 26.875 14.292 35.888 28.72 0 0 5.673 8.335 1.988 10.794-4.126 2.751-8.422-3.983-8.422-3.983-.141 4.846-.141 9.669.179 13.331 2.095 38.486 9.939 61.602 28.49 79.266 8.441 8.034 22.681 15.849 44.684 24.499 10.036 4.017 15.467 9.164 16.456 20.933"/><path fill="#024" d="M442.718 189.174c-20.179-20.133-45.794-32.834-73.518-36.734-36.145-34.605-79.855-21.923-79.855-21.923 9.261 1.378 15.413 6.903 13.042 13.026-1.576 4.046-8.301 4.259-11.375 4.289-9.765.107-18.196-5.885-24.926-11.357-6.996-5.695-18.415-15.801-28.645-21.554-19.045-10.717-49.285-9.382-71.171 4.599 13.086.888 28.834 4.657 38.225 12.439 5.241 4.347 11.927 13.084 6.458 17.164-4.805 3.59-16.611 1.737-22.613-1.742-9.542-5.526-18.138-13.904-23.287-19.978-34.642-40.834-83.719-43.114-124.194-33.11 26.565 7.461 44.291 22.602 55.239 48.703 10.953 26.1 19.457 37.21 37.498 44.283 11.297 4.424 14.352 5.244 13.469 10.256-1.299 7.335-14.681 3.813-24.887-.175-12.436-4.856-28.819-18.27-38.575-43.429 1.775 32.552 7.981 55.635 26.318 73.1 7.792 7.413 22.099 15.083 44.49 23.704 14.293 5.506 25.61 8.839 36.257 18.382 12.417 11.129 7.127 18.479-1.11 17.086-9.319-1.572-15.971-11.095-15.971-11.095s.015 53.035 65.532 73.449c5.455 9.053 12.048 17.494 19.724 25.144 24.63 24.577 57.348 38.078 92.126 38.025 34.783-.053 67.462-13.647 92.024-38.296 24.558-24.645 38.061-57.382 38.002-92.185-.048-34.799-13.644-67.497-38.279-92.069"/><path fill="#4B92DB" d="M435.799 195.772c-19.544-19.551-44.63-31.538-71.704-34.503-23.297-23.233-46.541-22.141-46.541-22.141 10.201 6.399 4.941 20.642-17.75 23.781-22.473 3.105-51.016-4.517-64.916-20.72-14.327-16.698-25.144-17.46-25.144-17.46 12.427 7.767 13.309 17.091 20.853 31.296 7.544 14.21 23.074 19.308 36.601 20.196 14.25.936 14.599 7.389 3.108 14.21-12.533 7.432-23.627.408-31.69-7.539-12.732-12.565-25.411-14.971-42.933-14.748-17.522.223-40.684 2.528-60.238-4.793-19.554-7.326-32.446-33.072-32.446-33.072 9.668 34.182 31.152 50.386 51.093 54.301 26.342 5.167 44.553 11.439 55.695 20.468 10.88 8.829 16.674 17.635 20.761 29.787 3.156 9.368 3.719 21.807.606 22.554-3.632.864-4.378-4.143-8.659-12.875-4.727-9.644-10.371-17.213-21.755-23.286-15.428-8.233-30.526-7.757-45.92-7.544-12.194.17-19.345-1.227-19.345-1.227s.509 1.649 20.378 6.113c22.138 4.968 43.554 17.455 57.808 47.897 12.126 25.892 5.799 44.113-21.067 35.866 0 0 12.548 27.91 53.532 37.85 5.29 9.305 11.864 17.955 19.632 25.731 22.71 22.719 52.902 35.23 85.018 35.23s62.303-12.512 85.023-35.23c22.705-22.728 35.21-52.938 35.21-85.078 0-32.13-12.504-62.34-35.21-85.063"/><path fill="#FFFFFE" d="M350.776 166.417c30.545 0 59.263 11.9 80.863 33.513 21.605 21.613 33.498 50.347 33.498 80.906 0 63.096-51.302 114.433-114.361 114.433-30.545 0-59.263-11.905-80.868-33.518-21.6-21.613-33.493-50.347-33.493-80.915 0-30.559 11.893-59.293 33.493-80.906 21.605-21.613 50.322-33.513 80.868-33.513"/><path fill="#024" d="M350.921 385.396c-57.702.087-104.558-46.655-104.645-104.396-.082-57.745 46.638-104.624 104.344-104.706 57.707-.087 104.562 46.66 104.645 104.401.087 57.745-46.628 104.624-104.344 104.701"/><path fill="#FFFFFE" d="M325.224 259.688h-30.967l-10.206 18.207-13.726-38.936h160.606l-13.702 38.936-10.124-18.207h-30.443l-25.784 112.867-25.654-112.867"/><path fill="#A5ACAF" d="M430.931 238.959h-160.606l2.603 7.379h76.582l-24.286 13.35 25.654 112.852v-126.202h77.459l2.594-7.379"/><path fill="#C60C30" d="M271.93 148.651c-23.287-.665-32.781-9.906-47.248-21.53-17.702-14.229-37.338-10.265-37.338-10.265 11.758-6.734 34.88-7.01 51.535 7.602 14.88 13.055 22.182 20.138 33.052 24.194zm-198.793-51.327c25.964-4.803 47.733 3.318 64.194 32.509 16.107 28.56 45.542 29.321 45.542 29.321-22.347 6.336-52.887.582-68.897-28.162-19.045-34.197-40.839-33.668-40.839-33.668zm123.365 165.571c-12.795-17.703-32.887-21.918-60.272-29.263-39.21-10.518-39.515-44.734-39.515-44.734s5.872 23.728 51.438 33.004c45.265 9.218 48.349 40.994 48.349 40.994zm169.968-33.993l-15.695-11.274-15.525 11.517 5.872-18.421-15.743-11.207 19.321-.233 5.794-18.323 6.07 18.323h19.326l-15.578 11.289 6.158 18.328zm-68.945 64.804l-1.915 19.245 17.731 7.689-18.88 4.119-1.828 19.25-9.76-16.689-18.856 4.206 12.848-14.442-9.823-16.65 17.692 7.767 12.79-14.496zm90.555 27.352l17.615-7.966-2.206-19.211 13.008 14.297 17.566-8.034-9.561 16.795 13.067 14.239-18.919-3.91-9.498 16.839-2.124-19.216-18.948-3.833z"/></g></svg>