<?xml version="1.0" encoding="utf-8"?>
<!-- Generator: Adobe Illustrator 24.0.1, SVG Export Plug-In . SVG Version: 6.00 Build 0)  -->
<svg version="1.1" id="Layer_1" xmlns="http://www.w3.org/2000/svg" xmlns:xlink="http://www.w3.org/1999/xlink" x="0px" y="0px"
	 viewBox="0 0 400 400" style="enable-background:new 0 0 400 400;" xml:space="preserve">
<style type="text/css">
	.st0{fill:#8B8D8D;}
	.st1{fill:#CF0A2C;}
	.st2{fill:#FFFFFF;}
	.st3{fill:#0D2240;}
</style>
<g>
	<g>
		<path class="st0" d="M200,50c-82.9,0-150,67.1-150,150s67.1,150,150,150s150-67.1,150-150S282.9,50,200,50"/>
	</g>
	<g>
		<path class="st1" d="M344.4,199.4c0-77.6-66.4-144.4-144-144.4S55.5,122.2,55.5,199.8c0,71.3,56.6,134.2,125.9,144
			c5.8,0.7,11.8,1.1,17.8,1.1h0.1h0.1l0,0c13.1,0,25.9-1.8,38-5.1C298.1,322.5,344.4,264.3,344.4,199.4z"/>
	</g>
	<g>
		<path class="st2" d="M344.3,192.5H55.8c-0.1,2.4-0.2,5-0.2,7.4c0,13.1,2,26.1,5.5,38.3c33.9,0,243.3,0,277.8,0
			c3.6-12.4,5.5-25.4,5.5-38.6C344.4,197.2,344.4,194.8,344.3,192.5z"/>
	</g>
	<path class="st3" d="M181.5,343.8c5.8,0.7,11.8,1.1,17.8,1.1h0.1h0.1l0,0c13.1,0,25.9-1.8,38-5.1c37.9-10.9,70.2-37.8,89.2-72.3
		H73.3C95.4,307.6,135.7,337.3,181.5,343.8z"/>
	<g>
		<path class="st2" d="M199.3,87.3c0,0-1.1-20.3-1.1-21.3s1-1.9,1-1.9c-0.8,0-3.6,0.2-6.5,0.3c-0.8,0.2-2.1,0.2-1.8,3.2l1.2,22.5
			l7.2-0.4l0.6-0.2C200,89.6,199.5,88.7,199.3,87.3"/>
		<path class="st2" d="M272.2,91.3l2.6-4.6l-10.7-6.2c0,0,0,0-0.1-0.1l-6.1-3.5c-0.8-0.5-1.5,0.2-1.7,0.5c-0.2,0.4-2.4,4.2-2.4,4.2
			l0,0l-0.9,1.7c0,0,1.5-1.4,3.2-0.5l3.8,2.2l-9.8,17l6.8,3.9c0,0,0-1.1,0.7-2.3c0,0,5.3-9.3,8.5-14.7l2.9,1.7
			c1.7,0.9,1.6,3.7,1.6,3.7L272.2,91.3z"/>
		<path class="st2" d="M251.3,74l-9.9-3.5c-3.2-1.1-5.5-1.4-6.8-0.9c-1.3,0.5-2.5,2.2-3.5,5l-3.7,10.6c-0.5,1.2-0.8,2.3-0.8,3.1
			c-0.2,1.7,0.2,2.9,1.1,3.8s2.7,1.8,5.3,2.7l4.5,1.6c3.3,1.1,5.5,1.4,6.9,0.9c1.3-0.6,2.5-2.2,3.5-5c0,0,1.8-5,2-5.7
			c0.4-1.4-0.6-2.3-1.2-2.4l-8.4-2.9c-1-0.4-1.6,0.4-2,1s-1.6,4.2-1.6,4.2l-0.5,1.1c0,0,0.9-0.9,2.3-0.5l3.1,1.1
			c-0.5,1.1-1,1.8-1.5,2s-1.5,0-3.1-0.6c0,0-1.1-0.4-1.4-0.6c-0.8-0.5-1.1-1.1-0.9-1.9c0.1-0.5,0.2-1.1,0.5-1.9l2.1-5.8
			c0.6-1.6,1.1-2.4,1.7-2.6c0.6-0.2,1.6,0,3.2,0.6l7.7,2.6c1.4,0.5,1.7,2.3,1.7,2.3l0.6-1.5l1.4-3.9C253.5,75.3,252.6,74.5,251.3,74
			"/>
		<path class="st2" d="M174.9,66.7c0,0,2.2,0.8,2.7,2.5v0.1l1.3,6.4l-5.1,1c-1.5,0.3-1.8,1.8-1.8,1.8l-2.2-10.8l-8.7,1.8
			c0,0,1.8,0.8,2.2,2.6v0.1l4.6,22l5.1-1c1-0.2,1.7-0.5,1.9-1.2l-1.9-8.8l7-1.5l2,9.7l5.1-1c1-0.2,1.7-0.5,1.9-1.2l-5.1-24.3
			L174.9,66.7z"/>
		<path class="st2" d="M292.3,105.9c0.8-1.5,0.8-2.8,0.1-4c-0.6-1.1-1.9-2.5-4-4.2l-3.8-2.9c-2.7-2.1-4.8-3.1-6.2-3.1
			s-3.1,1.2-4.9,3.6l-6.8,8.8c-0.8,1-1.4,2-1.8,2.7c-0.8,1.5-0.8,2.8-0.2,3.9c0.6,1.1,2,2.5,4.1,4.2l3.8,2.9
			c2.7,2.2,4.8,3.2,6.2,3.1c1.4,0,3.1-1.2,4.9-3.6l6.9-8.8C291.4,107.6,292,106.6,292.3,105.9 M283.3,106.1l-3.8,4.9
			c-1,1.3-1.9,2-2.5,2c-0.5,0-1.4-0.5-2.7-1.5l0.6,0.5c-0.9-0.8-1.5-1.2-1.7-1.5c-0.6-0.7-0.7-1.4-0.3-2.2c0.2-0.4,0.6-0.9,1.1-1.6
			l3.8-4.9c1-1.3,1.9-2,2.4-2s1.6,0.6,2.9,1.6l-0.6-0.4c0.9,0.8,1.5,1.2,1.7,1.5c0.6,0.7,0.7,1.4,0.3,2.2
			C284.3,104.8,283.9,105.4,283.3,106.1"/>
		<path class="st2" d="M163.1,84.8c-1.7-3.2-5.1-4.2-8.6-2.8l-3.9,1.7c-1.4,0.6-2.4,0.5-3-0.3l-0.2-0.4c-0.2-0.6-0.7-1.6,1.5-2.5
			l7.1-3c1.5-0.7,3.8,0.8,3.8,0.8s-1.4-3.4-2.2-5.4c-0.5-1.2-2.1-2-3.3-1.5l-8.7,3.7c-3.2,1.3-5.1,2.6-5.7,3.8
			c-0.7,1.3-0.4,3.3,0.8,6.1l1,2.3c0.2,0.4,0.4,0.7,0.6,1c0.8,1.1,1.9,2,3.4,2.3c1.7,0.5,3.7,0.2,5.9-0.8l3.4-1.4
			c1.3-0.6,2.3-0.4,2.8,0.5c0.2,0.2,0.2,0.5,0.3,0.8c0,0,0.4,1.2-2.3,2.3l-6.8,2.8c-1.5,0.6-3.8-0.9-3.8-0.9s1.4,3.4,2.3,5.4
			c0.5,1.2,2.1,2,3.3,1.4l0.7-0.3l4.7-2l3.4-1.4c3.2-1.3,5.1-2.6,5.7-3.8c0.7-1.3,0.4-3.2-0.8-5.9C164.3,87.4,163.3,85.3,163.1,84.8
			"/>
		<path class="st2" d="M308.7,120.2l-1.2-1.5c0,0,0.4,2.3-1,3.4l0,0l-7.6,5.9l4.9-13.4c0.1-0.4,0.1-0.7-0.2-1
			c-0.6-0.8-3.8-4.9-3.8-4.9l-1.3-1.7c0,0,0.4,2.4-1,3.5l-17.8,13.9l3.2,4.1c0.7,0.8,1.1,1.3,2,1.1c0,0,4.5-3.5,9.5-7.4l-4.5,11.7
			c-0.8,1.9-2.1,0.8-2.1,0.8l0.9,1.2l0,0l3.2,4c0.7,0.8,1.1,1.3,1.9,1.1l19.5-15.3L308.7,120.2z"/>
		<path class="st2" d="M219.6,65.8l-2-0.2c0,0,1.8,1.3,1.6,3.1v-0.1l-1.1,9.6L212,65.3c-0.2-0.3-0.5-0.5-0.8-0.6
			c-0.9-0.1-6.1-0.7-6.1-0.7l-2.2-0.2c0,0,2,1.4,1.8,3.2l-2.5,22.4l5.2,0.6c1,0.1,1.8,0.1,2.2-0.6c0,0,0.7-5.6,1.3-12l5.2,11.4
			c0.8,1.9-0.9,2-0.9,2l1.5,0.2l0,0l5.2,0.6c1,0.1,1.8,0.1,2.2-0.6l2.7-24.7L219.6,65.8z"/>
		<path class="st2" d="M111.7,94.6l-0.8,0.9l-4,4.6c0,0,0,0-0.1,0.1c-0.6,0.7-0.9,1.1-0.8,1.7l10.2,15.8l-14.4-7.8
			c-1.9-0.8-1-2.7-1-2.7l-1.4,1.6l-3,3.4c0,0,0,0-0.1,0.1c-0.8,0.8-1.1,1.7-0.8,2.6l10.3,14.5L91.3,122c-1.9-0.9-1-3.1-1-3.1
			l-1.5,1.7l-3.4,3.8c0,0,0,0-0.1,0.1c-0.8,0.8-0.9,2.2-0.2,2.8c0.1,0.1,0,0.1,0,0.1l22.5,10.5l5.3-6c0.8-0.8,0.9-1.2,0.6-2.1
			l-4.2-7.9l8.7,4.3l5.6-6.4c0.7-0.8,0.8-1.9,0.5-2.7l-11.9-20C111.3,95.8,111.7,94.6,111.7,94.6"/>
		<path class="st2" d="M124.1,87.3l-4.3,3c-0.8,0.6-1.2,1.2-1.1,2.1l7.2,21.9c0.5,1.4-1.2,3.8-1.2,3.8l7.5-5.3
			c0.7-0.5,0.8-1.3,0.6-2.1l-1-3.1l5.7-4l2.2,1.4c1.3,1,0.4,2.3,0.4,2.3l8.3-5.8L124.1,87.3z M129.4,101.8L128,98l3.5,2.3
			L129.4,101.8z"/>
		<polygon class="st2" points="82.7,146.9 86.1,157.3 97.1,157.3 88.2,163.8 91.6,174.2 82.7,167.8 73.9,174.2 77.3,163.8 
			68.4,157.3 79.3,157.3 		"/>
		<polygon class="st2" points="317.3,148.3 313.9,158.8 302.9,158.8 311.8,165.2 308.4,175.6 317.3,169.2 326.1,175.6 322.7,165.2 
			331.6,158.8 320.7,158.8 		"/>
	</g>
	<g>
		<path class="st2" d="M200.8,309.7h-5.3c-1,0-1.7,0.3-2.2,1l-6.7,22.1c-0.4,1.4-3.2,2.4-3.2,2.4h9.2c0.8,0,1.4-0.6,1.7-1.3l0.9-3.2
			h6.9l1,2.4c0.5,1.6-1,2.1-1,2.1h10L200.8,309.7z M197.1,324.7l1.1-3.8l1.4,3.8H197.1z"/>
		<path class="st2" d="M237.3,328.5l-5.5-6.1c1.3-0.3,2.3-1,2.7-1.6c0.7-1,0.7-3,0.1-5.9c0,0-1-5.1-1.2-5.9
			c-0.4-1.5-1.2-2.4-2.2-2.8c-0.9-0.4-2.3-0.4-4.3,0l-18.1,3.4c0,0,2.2,0.8,2.7,2.5l4,22.1l5.1-0.9c1-0.2,1.7-0.4,1.9-1.1l-1.4-7.5
			l3.6-0.8l6.1,7.4l9-1.7C239.8,329.8,238.2,329.4,237.3,328.5 M227.5,313.7c0.2,0.6,0.5,2.3,0.3,2.9c-0.2,0.5-0.5,0.7-1,0.8
			l-4.2,0.8c-0.9,0.2-1.7,1.1-2.3,2.3L219,314l6.8-1.3C226.6,312.5,227.2,312.9,227.5,313.7"/>
		<path class="st2" d="M257.7,298.1c-0.8-1.4-1.8-2.2-2.7-2.3c-0.9-0.2-2.3,0.2-4.2,0.9l-17.1,7.4c0,0,2.3,0.5,3.2,2l7.9,18.3
			c0.4,1.3-0.1,2.7-0.4,3l16.6-7.1c2.3-0.9,3.6-2.1,3.9-3.2c0.4-1.1,0-3.1-1.2-5.8l-5-10.8C258.3,299.2,258,298.8,257.7,298.1
			 M252.9,304c0.3,0.5,4.5,9.9,4.5,10.4s-0.3,0.8-0.7,1.1l-6.6,2.8l-3.8-8.8c-0.3-0.6-0.8-1.9-1.5-3.5l6.4-2.8
			C251.8,302.9,252.4,303.2,252.9,304"/>
		<path class="st2" d="M186.5,314.8l1-4.9c0,0-18.9-4.1-19.2-4.2c-1.6-0.2-2.2,0.8-2.5,2.1l-0.8,3.4l0,0l-0.4,1.4c0,0,1.4-1,2.9-0.8
			l8.7,2L161.7,326l-0.8,4.1l19,4.2c1.2,0.3,2.1,0.3,2.5-0.9l1.4-6.3c0,0-1.4,1.4-3,1.1l-9.2-2.1L186.5,314.8z"/>
		<path class="st2" d="M155.6,325.9c0,0,6.7-19.3,7-20.2c0.4-0.8,1.7-1.3,1.7-1.3c-0.7-0.3-3.4-1.1-6.1-2.2c-0.8-0.1-2-0.6-2.8,2.3
			l-7.4,21.3l6.8,2.3l0.6,0.1C155.3,328.3,155.2,327.3,155.6,325.9"/>
		<path class="st2" d="M154.3,301.6l-1-0.6l-5.2-3.3h-0.1c-0.7-0.5-1.3-0.8-1.9-0.6l-11.3,11l4.1-13.3c0.3-1.3,2.3-1.3,2.3-1.3
			l-1.9-1.1l-3.8-2.4h-0.1c-0.9-0.6-1.9-0.8-2.7-0.3l-11.6,10.8l5.1-12.9c0.7-2,2.8-1.5,2.8-1.5l-2-1.2l-4.3-2.7h-0.1
			c-1-0.7-2.3-0.7-2.8,0.2c-0.1,0.1-0.1,0.1-0.1,0.1l-8,23.1l6.8,4.2c0.9,0.6,1.4,0.8,2.2,0.3l7.1-5.4l-2.8,9.3l7.2,4.5
			c0.8,0.6,2,0.5,2.8,0.1l16.7-15.7C153.1,301.5,154.3,301.6,154.3,301.6"/>
		<path class="st2" d="M284.2,292.5c-2.3-2.7-5.9-3.1-9-0.9l-3.6,2.4c-1.3,0.8-2.3,0.9-3,0.3c0,0-0.3-0.3-0.3-0.4
			c-0.3-0.6-0.9-1.4,0.9-2.7l6.4-4.4c1.4-0.9,3.9,0.1,3.9,0.1s-2.1-3-3.4-4.8c-0.8-1-2.4-1.5-3.6-0.7l-7.8,5.3c-2.8,2-4.4,3.6-4.8,5
			s0.3,3.3,2,5.8l1.5,2.1c0.2,0.3,0.5,0.6,0.7,0.8c1,0.9,2.3,1.5,3.8,1.6c1.8,0.1,3.7-0.6,5.6-2l3-2.1c1.1-0.8,2.2-0.8,2.8-0.2
			c0.2,0.2,0.3,0.4,0.4,0.7c0,0,0.7,1.1-1.8,2.7l-6.1,4.2c-1.4,0.8-3.8-0.1-3.8-0.1s2.1,3,3.4,4.8c0.7,1,2.4,1.5,3.6,0.7l0.6-0.4
			l4.2-2.9l3-2.1c2.8-2,4.4-3.6,4.8-5s-0.3-3.2-2-5.6C285.9,294.9,284.6,293.1,284.2,292.5"/>
	</g>
	<path class="st0" d="M288.5,152.1c-6.2-11.4-14.5-21.5-24.4-29.6c-1.9-1.5-3.8-3-5.7-4.4c-16.4-11.7-36.5-18.6-58.1-18.7h-0.2
		c-53.7,0-97.7,42.2-100.5,95.2c-0.1,1.7-0.1,3.5-0.2,5.2v0.2c0,13.9,2.8,27.1,7.9,39.1c0.7,1.5,1.3,3,2,4.5
		c5.6,11.7,13.5,22.2,23,30.8c2.3,2.2,4.9,4.2,7.4,6.2c16.8,12.6,37.6,20,60.1,20.1h0.1h0.1l0,0c12.2,0,23.8-2.2,34.6-6.1
		c38.5-14.1,66-51,66-94.4v-0.1l0,0V200c0-13.9-2.8-27.1-7.9-39.1C291.4,157.9,290,154.9,288.5,152.1"/>
	<path class="st2" d="M290.2,161.9c-1.2-2.9-2.6-5.8-4.1-8.5c-6-11.1-14.2-20.9-23.8-28.9c-1.8-1.5-3.7-2.9-5.6-4.3
		c-15.9-11.3-35.4-18.1-56.5-18.2h-0.2c-52.3,0-95.1,41.1-97.8,92.7c-0.1,1.7-0.1,3.4-0.1,5.1v0.2c0,13.5,2.7,26.3,7.7,38.1
		c0.7,1.5,1.3,2.9,2,4.3c5.5,11.4,13.1,21.6,22.4,30c2.3,2.2,4.7,4.1,7.2,6c16.3,12.2,36.6,19.5,58.5,19.5h0.1h0.1l0,0
		c11.8,0,23.2-2.1,33.7-5.9c37.5-13.7,64.2-49.7,64.2-91.9V200l0,0v-0.1C297.9,186.5,295.2,173.7,290.2,161.9z"/>
	<path class="st3" d="M181.7,155.1l2.3-8.3l0.6-2l-10.4-5.8c0,0-6.1-4.2-19.7,3.7c-15.9,9.4-28.9,21.6-35.5,34.4
		c-3.8,7.1-6.7,15.4-8.2,24.7c0.5,17.6,6.1,34,15.4,47.7c-2.6-25.5,21.9-53.3,41.3-72.4C177.4,167,181.7,155.1,181.7,155.1"/>
	<path class="st3" d="M245.7,142.8c-13.6-7.9-19.7-3.7-19.7-3.7l-10.4,5.8l0.6,2l2.2,8.3c0,0,4.3,11.9,14.4,22
		c19.2,19,43.7,46.8,41.3,72.2c9.4-13.9,14.9-30.5,15.2-48.3c-1.6-9-4.4-17-8.1-23.9C274.5,164.3,261.6,152.2,245.7,142.8"/>
	<path class="st1" d="M213,127.5c35.7,4,59.2,24.3,71.3,42.3c-9.1-26-29.9-46.4-56-55.1C222.5,116.4,216.1,119.9,213,127.5"/>
	<path class="st1" d="M187.2,127.5c-3.2-7.6-9.7-11.2-15.4-12.8c-26.3,8.7-47.2,29.4-56.2,55.6C127.5,152.1,151.2,131.6,187.2,127.5
		"/>
	<path class="st1" d="M193,126.5l7.1-10.4l7.1,10.4c2.8-7.8,7.3-12.1,11.8-14.4c-6.1-1.3-12.4-2.1-18.9-2.1s-12.8,0.8-19,2.1
		C185.6,114.4,190.1,118.7,193,126.5"/>
	<path class="st3" d="M200.1,156.8c-1,0.8-34,24.5-48.6,48c-19.6,31.7-17.1,50-12,60.5c12.7,11.6,28.6,19.6,46.3,22.4l7.6-108.4
		l6.4-6.4l0.1-0.1l0,0l0,0l0.1,0.1l6.4,6.4l7.7,108.3l-0.1,0.1c17.9-2.8,33.9-10.9,46.7-22.7c5-10.5,7.4-28.7-12.1-60.2
		C234,181.3,201.1,157.5,200.1,156.8"/>
	<polygon class="st0" points="206.5,179.4 200.1,173 200.1,295.5 214.1,287.7 214.1,287.7 214.2,287.6 	"/>
	<path class="st0" d="M219.1,133.8c-3.8-0.7-7.8-1.2-11.7-1.4l-2.8-0.2l-0.1-0.1l-0.1-0.1l-1.1-2.3l-0.1-0.2l0,0L200,123l-1,2.2
		l-2.1,4.2l0,0l-0.1,0.2l-0.1,0.2l-1.1,2.3l-0.1,0.2l0,0l-2.8,0.2c-3.9,0.3-7.9,0.8-11.7,1.4c-1.7,0.3-3.5,0.6-5.2,0.9l0,0l0,0
		l5.4,2.9l5.4,3l1.7,0.9l1.7,0.9l-1,3.8l-0.1,0.2l-0.5,1.7l-3.1,11.1l0,0l0,0l6.9-5.2l4.7-3.5l1.4-1l1.4-1l0,0v-0.1l0,0l0,0v0.1l0,0
		l1.4,1l1.4,1l11.9,8.6l-3.1-11.1l-0.3-0.9l-0.3-0.9l-1-3.8l1.1-0.6l2.2-1.2l7.4-4l3.6-1.9l0,0l0,0
		C222.6,134.4,220.8,134.2,219.1,133.8"/>
</g>
</svg>
