<?xml version="1.0" encoding="utf-8"?>
<!-- Generator: Adobe Illustrator 27.4.0, SVG Export Plug-In . SVG Version: 6.00 Build 0)  -->
<svg version="1.1" id="Layer_1" xmlns="http://www.w3.org/2000/svg" xmlns:xlink="http://www.w3.org/1999/xlink" x="0px" y="0px"
	 viewBox="0 0 400 400" style="enable-background:new 0 0 400 400;" xml:space="preserve">
<style type="text/css">
	.st0{fill:#FFFFFF;}
	.st1{fill:#1D428A;}
	.st2{fill:#C8102E;}
</style>
<g>
	<path class="st0" d="M350,200c0,82.9-67.1,150-150,150S50,282.9,50,200S117.1,50,200,50S350,117.1,350,200"/>
	<path class="st1" d="M344.5,200c0,79.8-64.7,144.5-144.5,144.5S55.5,279.7,55.5,200S120.2,55.5,200,55.5S344.5,120.2,344.5,200"/>
	<g>
		<polygon class="st0" points="77.8,224.6 80.8,234 90.8,234 82.7,240 85.7,249.2 77.8,243.5 69.9,249.2 72.9,240 64.7,234 
			74.8,234 		"/>
		<polygon class="st0" points="322.3,224.6 325.2,234 335.3,234 327.1,240 330.1,249.2 322.3,243.5 314.3,249.2 317.3,240 
			309.2,234 319.2,234 		"/>
		<polygon class="st0" points="112.9,275.1 115.9,284.5 125.9,284.5 117.8,290.5 120.7,299.7 112.9,294 105,299.7 108,290.5 
			99.8,284.5 109.8,284.5 		"/>
		<polygon class="st0" points="290.5,275.1 293.4,284.5 303.4,284.5 295.3,290.5 298.2,299.7 290.5,294 282.5,299.7 285.5,290.5 
			277.4,284.5 287.3,284.5 		"/>
		<polygon class="st0" points="167.6,308 170.6,317.4 180.6,317.4 172.5,323.4 175.5,332.6 167.6,327 159.8,332.6 162.7,323.3 
			154.5,317.4 164.6,317.4 		"/>
		<polygon class="st0" points="234.2,308 237.1,317.4 247.1,317.4 239.1,323.4 242,332.6 234.2,327 226.3,332.6 229.3,323.3 
			221.1,317.4 231.1,317.4 		"/>
	</g>
	<path class="st0" d="M308.3,200.7c0,59.8-48.5,108.3-108.3,108.3S91.7,260.5,91.7,200.7S140.2,92.4,200,92.4
		C259.8,92.3,308.3,140.8,308.3,200.7"/>
	<path class="st1" d="M98.1,222c5.7,27.3,21.7,50.6,44.9,65.8s51,20.5,78.3,14.8c27.2-5.7,50.9-21.5,65.8-44.9
		c14.9-23.3,20.2-51.1,14.8-78.3c-5.4-27.3-21.6-50.5-44.9-65.8s-51.1-20.5-78.2-14.8c-27.2,5.7-50.6,21.7-65.9,44.9
		C97.7,167,92.4,194.8,98.1,222"/>
	<g>
		<path class="st0" d="M235.4,119.6c0.4,4-1.6,8-5.6,11.8C210.3,117,191.7,110,173.5,110c-3.9,0-7.8,0.3-11.4,0.9
			c5.8-2.4,11.8-4.3,18-5.6c16.3-3.4,32.8-2.6,48.3,2.2C231.7,110.5,235,114.8,235.4,119.6"/>
		<path class="st0" d="M215.1,287.7c20.5-18.8,30-59.2,35.7-83.3l0.9-3.8c2.9-12.3,8.1-21.4,13.6-27c20.6,32,17.8,65,12.6,85.7
			c-14.3,18.9-34.6,31.9-58,36.8c-6.7,1.4-13.4,2.1-20,2.1C204.8,295.9,209.9,292.5,215.1,287.7"/>
		<path class="st0" d="M252.3,150.7c8.3-7,15-12.3,19.8-15.7c10.2,11.3,17.7,24.7,22,39.6c-3.8-5.1-8.8-10.1-14.1-11.2
			c-4.6-0.9-9.3,0.4-13.7,3.5C262.3,161.5,257.7,156,252.3,150.7"/>
		<path class="st0" d="M104.3,196.3c9.5-25.4,44.2-35.9,57.3-39.7l0.5-0.2c4.3-1.3,10.4-2.3,17.6-3.6c16.8-2.8,37.6-6.4,50.1-15.7
			c5.1,3.8,10.3,8.3,15.6,13.4c-28.4,24.1-72.3,64.6-119.1,114.4c-10.9-12.4-18.5-27.6-22-44.3c-1.4-6.6-2.1-13.3-2.1-19.9
			C103.5,198.2,104.3,196.3,104.3,196.3"/>
		<path class="st0" d="M249,147.5c-5.3-4.9-10.5-9.4-15.6-13.4c4.8-4.7,7-9.6,6.5-14.9c-0.3-3.2-1.6-6.2-3.2-8.9
			c5.8,2.4,11.3,5.3,16.7,8.8c5.7,3.8,10.9,8,15.5,12.5C264,135.3,257.3,140.6,249,147.5"/>
		<path class="st0" d="M226.2,134.3c-11.8,8.1-31.3,11.4-47.1,14.1c-7.3,1.3-13.5,2.3-18.1,3.7l-0.5,0.2
			c-12.5,3.8-44.1,13.2-57.1,35.9c1.8-14.5,7-28.4,15.2-40.9c7-10.5,16.1-20.3,26.2-27.3C167.6,110.2,193.5,110.8,226.2,134.3"/>
		<path class="st0" d="M279,167.8c6.8,1.4,14.2,12.8,17.7,19.5c3,21.4-1.1,42.9-11.9,61.6c0.5-3.3,0.9-6.8,1.2-10.4
			c1.4-18.3-1.1-43.2-17.2-67.8C272.3,168.2,275.9,167.2,279,167.8"/>
	</g>
	<path class="st0" d="M248.9,153.6c5.4,5.3,10,10.7,13.8,16.2c-6.7,6.4-12.3,16.8-15.4,29.7l-0.9,3.8c-5.6,23.6-14.9,63.2-34.4,81
		c-8,7.4-15.9,11.2-23,13.3c-15-1.6-29.5-6.9-42.4-15.4c-6.3-4.1-12-8.9-17-14.1C176.9,217.9,220.9,177.4,248.9,153.6"/>
	<path class="st0" d="M226.9,229.6l2.7-0.7c1.6-0.5,2.7-1,2.7-3.3c0-1.9-0.5-5.4-2.8-5.4c-2.5,0-2.5,4.1-2.5,6.4L226.9,229.6
		L226.9,229.6z"/>
	<path class="st0" d="M195.2,228.2c0-8.3-0.3-15.5-5.9-15.5c-4.6,0-5.4,7.2-5.4,15.5s-0.3,15.5,5.4,15.5
		C194.1,243.7,195.2,236.5,195.2,228.2"/>
	<path class="st0" d="M226.9,229.6l2.7-0.7c1.6-0.5,2.7-1,2.7-3.3c0-1.9-0.5-5.4-2.8-5.4c-2.5,0-2.5,4.1-2.5,6.4L226.9,229.6
		L226.9,229.6z"/>
	<path class="st0" d="M183.2,209.1L183.2,209.1L183.2,209.1c2.8-4.2,8-6.2,13-6.2c11.4,0,18.5,9.9,18.5,23.1
		c0,15.7-10.7,25.1-23.9,25.1c-20.3,0-27.6-16.4-27.6-35.3c0-21.9,9.5-39.9,33.1-39.9c9.2,0,16.7,5.9,16.7,15c0,5.9-4.6,8.8-8.9,8.8
		c-6.4,0-8.4-5.3-9.3-10c-0.4-2,0.4-6.4-2.9-6.4c-6.9,0-8,13.4-8.2,18.4L183.2,209.1z"/>
	<path class="st0" d="M195.2,228.2c0-8.3-0.3-15.5-5.9-15.5c-4.6,0-5.4,7.2-5.4,15.5s-0.3,15.5,5.4,15.5
		C194.1,243.7,195.2,236.5,195.2,228.2"/>
	<g>
		<path class="st0" d="M72.3,176.8c3.8,0.5,5.4,3.2,4.8,8.2l-0.5,3.7l2.1,0.3c2.7,0.3,3.7,0.3,3.9-1.9l2.5,0.3l-1.2,9.9l-2.5-0.3
			c0.2-2.2-0.7-2.5-3.4-2.7l-7.7-0.9c-2.7-0.3-3.7-0.3-3.9,1.9l-2.5-0.3l1.3-10.9C66,178.7,68.4,176.3,72.3,176.8z M74.4,187.3
			c0.4-3.3-0.5-5-2.9-5.3c-2-0.3-3.5,1-3.8,3.5c-0.2,1.7,0.4,2.1,2.3,2.3l4.3,0.5C74.3,187.9,74.3,187.7,74.4,187.3z"/>
		<path class="st0" d="M86.9,165.9c0.8-2-0.1-2.6-2.6-3.6l-7.1-3c-2.5-1-3.5-1.3-4.3,0.7l-2.3-0.9l3.8-9.1l2.2,0.9
			c-0.8,2,0.1,2.6,2.6,3.6l1.8,0.7l2.8-6.9l-1.8-0.7c-2.5-1-3.5-1.3-4.3,0.7l-2.2-0.9l3.8-9.1l2.3,0.9c-0.8,2,0.1,2.6,2.6,3.6l7.1,3
			c2.5,1,3.5,1.3,4.3-0.7l2.3,0.9l-3.8,9.1l-2.2-0.9c0.8-2-0.1-2.6-2.6-3.6l-3.1-1.3l-2.8,6.9l3.1,1.3c2.5,1,3.5,1.3,4.3-0.7
			l2.2,0.9l-3.8,9.1L86.9,165.9z"/>
		<path class="st0" d="M96.5,117.1c-1.3,1.7-0.5,2.5,1.6,4.1l6.2,4.7c2.1,1.6,3,2,4.4,0.4l2,1.5l-5.9,8l-2-1.5
			c1.3-1.7,0.5-2.5-1.6-4.1l-6.2-4.7c-2.1-1.6-3-2.1-4.4-0.4l-2-1.5l5.9-8L96.5,117.1z"/>
		<path class="st0" d="M118.8,118.3l-1.6-1.9c1.6-1.5,1.1-2.3-0.6-4.3l-4.9-5.9c-1.7-2-2.5-2.7-4.2-1.4l-1.6-1.9l7.6-6.4l1.6,1.9
			c-1.6,1.5-1.1,2.3,0.5,4.4l5.6,6.6c1.3,1.6,1.8,1.7,3.5,0.5c2.1-1.7,3-4.9,2.2-8.9l2.2-0.5l2.2,7.3L118.8,118.3z"/>
		<path class="st0" d="M142.4,100.1l-1-2.3c1.8-1.2,1.7-2.4,1.7-4.6l-0.5-15.4l4.1-1.9l11.4,11.2c1.3,1.3,2,1.9,3.8,1.3l1,2.3
			l-9.1,4.1l-1-2.2c0.1,0,0.1-0.1,0.2-0.1c1.3-0.5,1.7-1.1,1.4-1.9c-0.1-0.3-0.3-0.5-0.5-0.7l-2.1-2.1l-5.9,2.7l0.4,2.8
			c0,0.2,0.1,0.5,0.2,0.6c0.4,0.8,1.3,0.9,2.7,0.4l1,2.2L142.4,100.1z M149.8,86.1l-4.3-4.6l0.4,6.4L149.8,86.1z"/>
		<path class="st0" d="M173,85.3c2.1-0.4,2.2-1.4,1.8-4l-1.1-7.7c-0.4-2.7-0.7-3.6-2.8-3.4l-0.4-2.5l10.1-1.5
			c7.7-1.1,12.3,1.9,13.2,8.3s-2.7,10.5-10.3,11.6l-10.1,1.5L173,85.3z M180.2,81.7c0.3,2,0.6,2.5,2.7,2.2c4-0.5,6.1-3.7,5.4-8.5
			c-0.6-4.8-3.6-7.2-7.6-6.6c-2.1,0.3-2.3,0.9-2,2.8L180.2,81.7z"/>
		<path class="st0" d="M208,82.4c2.2,0.3,2.5-0.7,2.8-3.4l1.1-7.7c0.4-2.7,0.4-3.7-1.8-4l0.4-2.5l16.6,2.4l1.8,6.4l-2,0.7
			c-1.6-3.3-3.9-5.2-7-5.7c-2-0.3-2.3,0.3-2.6,2.2l-0.5,2.8l0.9,0.2c2.1,0.3,2.7-0.3,3.2-2.7l2.1,0.3l-1.3,9l-2.1-0.3
			c0.1-2.4-0.6-3.5-2.3-3.8l-0.9-0.2l-0.6,4.7c-0.3,1.9-0.1,2.6,1.9,2.8c2.9,0.5,6.4-1,9.1-4.2l1.7,1.3l-4,6.4l-16.9-2.5L208,82.4z"
			/>
		<path class="st0" d="M239.1,91.2l1-2.3c2,0.8,2.6,0,3.7-2.5l3.1-7c1.1-2.5,1.4-3.4-0.6-4.3l1-2.3l9.1,3.9l-1,2.3
			c-2-0.8-2.6,0-3.7,2.5l-3.5,7.9c-0.8,1.8-0.7,2.5,1.1,3.3c2.5,1.1,5.8,0.5,8.9-1.9l1.4,1.7l-5.6,5.2L239.1,91.2z"/>
		<path class="st0" d="M290.1,105.9c-2.5,3-5.6,2.9-9.5-0.3l-2.8-2.3l-1.3,1.6c-1.6,2.1-2.2,2.9-0.5,4.4l-1.6,1.9l-7.8-6.2l1.6-1.9
			c1.7,1.3,2.5,0.6,4.2-1.4l4.8-6c1.6-2.1,2.2-2.9,0.5-4.4l1.6-1.9l8.5,6.9C291.8,99.5,292.6,102.8,290.1,105.9z M280,102
			c2.6,2.1,4.6,2.2,6,0.4c1.3-1.6,1-3.5-0.9-5c-1.4-1.1-2-0.7-3.2,0.7l-2.7,3.4C279.6,101.6,279.8,101.8,280,102z"/>
		<path class="st0" d="M291.6,123.9c1.3,1.7,2.2,1.4,4.4-0.2l6.3-4.5c2.2-1.6,2.9-2.3,1.7-4l2-1.4l5.7,8.1l-2,1.4
			c-1.3-1.7-2.2-1.4-4.4,0.2l-1.6,1.2l4.3,6.1l1.6-1.2c2.2-1.6,2.9-2.3,1.7-4l2-1.4l5.7,8.1l-2,1.4c-1.3-1.7-2.2-1.4-4.4,0.2
			l-6.3,4.5c-2.2,1.6-2.9,2.3-1.7,4l-2,1.4l-5.7-8.1l2-1.4c1.3,1.7,2.2,1.4,4.4-0.2l2.7-1.9l-4.3-6.1L299,128
			c-2.2,1.6-2.9,2.3-1.7,4l-2,1.4l-5.7-8.1L291.6,123.9z"/>
		<path class="st0" d="M327.7,158c-0.8-2-1.8-1.8-4.3-0.8l-7.2,2.7c-2.5,1-3.4,1.5-2.7,3.6l-2.3,0.9l-3.6-9.2l2.3-0.9
			c0.8,2,1.8,1.8,4.3,0.8l7.2-2.7c2.5-1,3.4-1.5,2.7-3.5l2.3-0.9l3.6,9.2L327.7,158z"/>
		<path class="st0" d="M314.8,175.2l2.5-0.4c0.5,2.1,1.8,2.4,3.8,3l14.8,4l0.5,4.5l-14.1,7.7c-1.6,0.8-2.4,1.4-2.4,3.2l-2.5,0.4
			l-1.3-9.9l2.4-0.3c0,0.1,0,0.2,0,0.2c0.2,1.4,0.5,2,1.4,1.8c0.3,0,0.5-0.1,0.8-0.3l2.7-1.4l-0.8-6.4l-2.8-0.5
			c-0.2,0-0.5-0.1-0.6,0c-0.9,0.1-1.3,0.9-1.1,2.5l-2.4,0.3L314.8,175.2z M326,186.5l5.7-2.7l-6.2-1.6L326,186.5z"/>
	</g>
	<g>
		<g>
			<path class="st0" d="M260.8,213.4c-2.3,0-3.9,1-5.2,2.4c-0.1-0.3-0.3-0.6-0.5-0.9l-1.1-2.1l-15.5,4.6v8.5h2.8c0.3,0,0.5,0,0.5,0
				c0.1,0.3,0.4,1,0.4,3.7v9.9l-2.8,0.4v9.3H261v-9.3l-2.8-0.4v-2.9c0-1.6,0.4-4.8,0.8-6.7c0.8,0.3,1.7,0.5,2.8,0.5
				c3.8,0,6.6-3.5,6.6-8.4C268.4,216.7,265.4,213.4,260.8,213.4z"/>
			<path class="st0" d="M287.9,223.3c-0.2-0.7-0.3-1-0.3-1.4c0-2.6-1-8.5-10.4-8.5c-5.2,0-15.5,4-15.5,13.4c0,3.5,1,5.9,2.5,7.9
				c-2,1.2-3.3,3.6-3.3,6.4c0,3.4,1.6,9,13,9c9.7,0,15.2-5,15.2-13.7C289.1,227.9,288.4,225.2,287.9,223.3z"/>
			<path class="st0" d="M173.9,173.2c-0.5-0.6-1.5-1.1-2.4-1.1c-1.5,0-2.6,0.9-3.9,2.4c-4.6,4.8-10.8,7.4-18,7.4
				c-9.4,0-19.3-4.3-27.2-11.9c-0.6-0.6-1.5-0.9-2.3-0.9c-3.8,0-4.8,6.1-4.8,6.2v30.9l2.5,0.4c9.3,1.4,17.4,1.1,24.7-0.9
				c-7.9,7-25.7,26.3-25.4,44.7c0,3.4,2.1,3.8,3,3.8c1.1,0,1.8-0.6,2.4-1c0.1-0.1,0.3-0.3,0.5-0.4c2.6-1.9,6.7-2.9,11.3-2.9
				c3.8,0,7.7,0.7,10.5,2.1c0.5,0.3,1.2,0.5,1.9,0.5c0.9,0,1.7-0.4,2.3-1c1-1.1,0.9-2.5,0.8-3.4c-1.3-13.4,1.6-27.9,7.3-36.3
				l0.8-1.3c4.8-7.1,14.9-22,16.7-34.3C174.8,175,174.7,173.9,173.9,173.2z"/>
			<path class="st0" d="M245.6,232.2l-0.2-2.4c-0.1-1.6-0.4-3-0.6-4.4l-0.1-2.7l-0.5,0.7c-2.3-6.3-7.6-10.2-14.3-10.2
				c-10,0-17,7.9-17,19.2c0,8.7,5.1,17.5,16.5,17.5c6.5,0,12.4-3.3,15.5-8.5l0.5-0.7l-0.4-8.4L245.6,232.2z M233.6,237.6
				c-1.1,0-1.8-0.7-2.3-1.6l5.6-1.5C235.2,236.5,234,237.5,233.6,237.6z"/>
			<path class="st0" d="M208.5,204.8c-0.5-0.8-1.2-1.7-1.7-2.5c4.9-1,9.2-4.8,9.2-11.3c0-10.2-8.4-17.9-19.7-17.9
				c-22.5,0-35.9,16-35.9,42.7c0,24.2,11.2,38.1,30.5,38.1c15.7,0,26.7-11.5,26.7-28C217.6,217.8,212.1,210.1,208.5,204.8z"/>
		</g>
		<g>
			<path class="st1" d="M233.6,240.5c-3.5,0-5.6-3.2-5.9-6.4l15-4c-0.5-7.3-4.7-13.8-12.6-13.8c-8.5,0-14.1,6.6-14.1,16.4
				c0,7.6,4.4,14.5,13.5,14.5c5.2,0,10.3-2.5,13.1-7.1l-2.9-3.6C238.1,238.8,236.5,240.5,233.6,240.5z M227,226.7
				c0-2.3,0-6.4,2.5-6.4c2.3,0,2.8,3.5,2.8,5.4c0,2.3-1.1,2.8-2.7,3.3l-2.7,0.7L227,226.7L227,226.7z"/>
			<path class="st1" d="M258.3,246.3h-15.8v-4l2.8-0.4v-12.4c0-4.4-0.5-6.6-3.8-6.6v-3.5l11.3-3.3c1.3,2.5,1.6,5.4,1.8,8.2h0.1
				c1.1-3.4,2.6-8.1,6.2-8.1c3.2,0,4.7,2.5,4.7,5.5c0,3.1-1.4,5.6-3.7,5.6c-1.6,0-3-0.6-3.8-0.9c-2-0.7-2.7,8.2-2.7,10.1v5.4
				l2.8,0.4L258.3,246.3L258.3,246.3z"/>
			<path class="st1" d="M284.8,222c0,2.5-2.1,3.7-4.4,3.7c-2.7,0-4.7-2.2-5.1-4.8c-1.2,0-2,0.6-2,2.6c0,4.6,13,1.3,13,12.9
				c0,8.7-6.3,10.9-12.3,10.9c-3.7,0-10.2-0.5-10.2-6.1c0-2.6,1.4-4.5,3.9-4.5c3.9,0,4.6,3.6,5.3,6.1c0.2,0.6,0.7,0.8,1.3,0.8
				c2.1,0,3.6-0.8,3.6-2.2c0-5.2-13.3-3.2-13.3-14.5c0-7.2,8.5-10.4,12.6-10.4C281.9,216.4,284.8,217.9,284.8,222"/>
			<path class="st1" d="M196.3,202.8c-5,0-10.2,2-12.9,6.2h-0.1h-0.1h0.1l0.5-7.3c0.3-4.9,1.4-18.4,8.2-18.4c3.3,0,2.6,4.4,2.9,6.4
				c0.9,4.7,2.9,10,9.3,10c4.3,0,8.9-2.8,8.9-8.8c0-9.1-7.6-15-16.7-15c-23.6,0-33.1,18-33.1,39.9c0,18.9,7.3,35.3,27.6,35.3
				c13.2,0,23.9-9.3,23.9-25.1C214.8,212.7,207.8,202.8,196.3,202.8z M189.3,243.7c-5.7,0-5.4-7.2-5.4-15.5s0.8-15.5,5.4-15.5
				c5.7,0,5.9,7.2,5.9,15.5S194.1,243.7,189.3,243.7z"/>
			<path class="st2" d="M118.3,175.7v28.1c15.7,2.3,34.6,0.8,47.8-18.7c0.5-0.8,0.9-0.3,0.5,0.5c-3.8,7.6-12.5,14.5-20.1,20.5
				c-7.3,5.8-26.9,26.3-26.6,44.3c0,1.4,0.1,1,1.3,0.1c5.9-4.4,17.6-4.6,24.7-1.1c1,0.5,1.1,0.4,0.9-1c-1.4-14,1.7-29.3,7.8-38.1
				c4.1-6.1,15.3-22,17.2-34.4c0.2-1.3-0.5-1.1-2.1,0.6c-12.6,13.4-35.4,13-50.1-1.1C118.8,174.4,118.4,174.8,118.3,175.7"/>
		</g>
	</g>
	<g>
		<ellipse class="st0" cx="145.6" cy="158.7" rx="27" ry="27"/>
		<g>
			<polygon class="st1" points="145.6,132.8 146.5,135.6 149.6,135.6 147,137.4 148,140.2 145.6,138.5 143.2,140.2 144.1,137.4 
				141.6,135.6 144.7,135.6 			"/>
			<polygon class="st1" points="163.6,143.2 164.5,146 167.5,146 165.1,147.9 166,150.7 163.6,149 161.1,150.7 162.1,147.9 
				159.6,146 162.7,146 			"/>
			<polygon class="st1" points="155.8,135.2 156.7,138 159.8,138 157.4,139.8 158.3,142.7 155.8,140.9 153.4,142.7 154.4,139.8 
				151.9,138 154.9,138 			"/>
			<polygon class="st1" points="166.5,153.1 167.4,155.9 170.5,155.9 168,157.7 168.9,160.6 166.5,158.8 164.1,160.6 165.1,157.7 
				162.5,155.9 165.5,155.9 			"/>
			<polygon class="st1" points="165.2,163.5 166.2,166.4 169.2,166.4 166.7,168.3 167.6,171 165.2,169.3 162.9,171 163.7,168.2 
				161.2,166.4 164.3,166.4 			"/>
			<polygon class="st1" points="159.5,171.9 160.3,174.8 163.4,174.8 160.9,176.6 161.9,179.3 159.5,177.6 157,179.3 157.9,176.6 
				155.5,174.8 158.6,174.8 			"/>
			<polygon class="st1" points="150.3,176.6 151.3,179.4 154.4,179.4 151.9,181.3 152.8,184.1 150.3,182.3 148,184.1 148.9,181.3 
				146.4,179.4 149.4,179.4 			"/>
			<polygon class="st1" points="127.3,142.3 126.4,145.1 123.4,145.1 125.8,147 124.9,149.8 127.3,148 129.8,149.8 128.8,147 
				131.3,145.1 128.2,145.1 			"/>
			<polygon class="st1" points="134.9,135.2 134,138 130.9,138 133.3,139.8 132.4,142.7 134.9,140.9 137.3,142.7 136.3,139.8 
				138.8,138 135.8,138 			"/>
			<polygon class="st1" points="123.8,151.8 122.9,154.6 119.9,154.6 122.3,156.5 121.4,159.3 123.8,157.6 126.2,159.3 125.4,156.5 
				127.8,154.6 124.7,154.6 			"/>
			<polygon class="st1" points="124.7,162.2 123.8,165.2 120.8,165.2 123.3,166.9 122.3,169.7 124.7,168 127.2,169.7 126.3,166.9 
				128.8,165.2 125.6,165.2 			"/>
			<polygon class="st1" points="130.5,170.8 129.7,173.7 126.6,173.7 129,175.5 128.1,178.2 130.5,176.5 133,178.2 132,175.5 
				134.5,173.7 131.5,173.7 			"/>
			<polygon class="st1" points="139.6,176.2 138.7,179.1 135.6,179.1 138.1,180.9 137.3,183.7 139.5,182 142,183.7 141.1,180.9 
				143.6,179.1 140.5,179.1 			"/>
		</g>
	</g>
</g>
</svg>
