<svg xmlns="http://www.w3.org/2000/svg" viewBox="0 0 960 640"><path fill="#c8102e" d="M490.714 472.446c-6.481 0-11.742 5.253-11.742 11.738 0 6.478 5.261 11.74 11.742 11.74s11.734-5.262 11.734-11.739c0-6.486-5.253-11.739-11.734-11.739m0 20.958a9.21 9.21 0 0 1-6.522-2.698 9.219 9.219 0 0 1-2.698-6.522 9.207 9.207 0 0 1 9.22-9.214c5.094 0 9.218 4.12 9.218 9.214s-4.124 9.22-9.218 9.22m4.823-11.94a3.98 3.98 0 0 0-3.983-3.978h-5.656v13.4h2.514v-5.442h1.804l2.541 5.441h2.78l-2.652-5.674a3.99 3.99 0 0 0 2.652-3.748m-3.983 1.464h-3.142v-2.932h3.142a1.47 1.47 0 0 1 1.469 1.468 1.47 1.47 0 0 1-1.469 1.464"/><path fill="#c8102e" d="M762.178 222.393c28.437-24.3 55.997-63.485 55.997-108.357 0-6.495-7.923-8.322-11.136-3.906-29.301 39.985-56.933 55.177-73.624 60.96 27.756-21.013 54.976-55.323 61.939-94.232.765-7.1-6.957-9.172-10.526-5.456-33.983 33.978-80.769 70.237-206.502 70.237-30.382 0-65.112-.88-87.57-.88-102.083 0-139.625 63.137-148.088 80.665-8.404-1.214-16.914-1.963-25.373-1.963-96.753 0-175.47 78.716-175.47 175.478-.001 96.754 78.715 175.474 175.469 175.474 71.21 0 134.161-42.05 161.662-107.39 1.936.197 3.989.527 5.721.527 22.235 0 26.898-6.503 26.898-11.975 0-2.934-2.907-6.478-4.346-8.542 32.618-.176 42.185-1.704 56.302-6.582 2.296-.716 3.644-2.849 3.644-5.118 0-4.813-9.868-12.779-17.015-18.97 45.622-.766 79.215-8.914 79.215-19.584 0-2.084-.198-4.71-12.306-14.247 25.74-7 70.962-24.358 70.962-35.658 0-4.38-3.78-7.064-8.195-10.142 40.066-15.097 73.756-41.698 73.756-51.237 0-7.689-11.328-8.342-16.945-8.776 19.965-12.788 47.764-34.582 47.764-43.995 0-9.748-15.276-5.908-22.232-6.33z"/><path fill="#fff" d="M750.469 224.886c31.928-23.926 62.279-65.247 62.279-110.85 0-.96-.947-1.108-1.343-.708-49.354 67.382-94.235 66.72-94.235 66.72-1.962 0-2.426-2.754-.867-3.84 31.865-18.74 66.042-57.403 73.717-100.31.105-.574-.754-1.27-1.359-.67-36.246 36.249-86.059 71.83-210.336 71.83-39.8 0-60.57-.88-87.57-.88-107.766 0-140.905 71.627-144.828 81.108a171.5 171.5 0 0 0-28.633-2.41c-93.918 0-170.055 76.133-170.055 170.062s76.137 170.056 170.054 170.056c71.916 0 133.402-44.64 158.265-107.716 3.18.542 6.25.85 9.113.85 17.326 0 21.486-3.867 21.486-6.554 0-1.823-11.08-13.932-5.579-13.932 38.427 0 47.077-1.435 61.185-6.31-6.769-10.593-31.286-24.306-18.662-24.306 60.903 0 80.862-11.758 80.862-14.248 0-2.91-19.42-16.895-19.42-16.895 28.053-4.625 78.073-26.998 78.073-33.01 0-3.48-14.268-9.32-11.98-12.62 44.478-14.794 77.535-43.537 77.535-48.759 0-4.19-26.073-3.7-26.073-3.7v-2.77c22.547-11.722 56.892-40.065 56.892-46.3 0-3.973-32.229 2.683-28.521-3.838"/><path fill="#c8102e" d="M359.045 362.811a52.76 52.76 0 0 0-21.222-16.416l-1.368 1.341 2.825 19.428a34 34 0 0 1 2.537 2.218l14.233.118a252 252 0 0 0 2.995-6.689m-61.58-14.786 15.739 11.727a36 36 0 0 1 3.363-.225l14-13.776-.284-1.886a52.7 52.7 0 0 0-12.989-1.624 52.5 52.5 0 0 0-19.812 3.874zm34.092 4.532-7.705 7.561a35 35 0 0 1 9.257 3.117zm5.715 71.638a35.6 35.6 0 0 1-8.74 4.344l8.654 6.445zm-70.282 48.578 25.06-24.655c-9.797-4.649-18.098-11.945-24-20.95l-21.016 28.193a93 93 0 0 0 19.956 17.412m79.563-97.816a35 35 0 0 1 3.479 6.425 207 207 0 0 0 3.333-6.367zm-47.103 76.085a56 56 0 0 1-1.828-.622l-25.737 25.313a92.1 92.1 0 0 0 32.765 11.01zm46.912-34.312-1.291.192a34 34 0 0 1-2.214 2.536l-.17 19.634 1.534 1.136a53 53 0 0 0 12.646-10.513c-5.225-4.746-8.966-9.244-10.505-12.985m-49.043-51.048a35 35 0 0 1 8.741-4.344l-8.653-6.456zm-32.313 56.297a75 75 0 0 1-.865-1.723l-36.096-.305a92.4 92.4 0 0 0 15.389 30.953zm72.12 19.876-15.73-11.733q-1.675.19-3.362.22l-14.003 13.771.27 1.893a52.6 52.6 0 0 0 12.993 1.622 52.5 52.5 0 0 0 19.813-3.868zm-34.083-4.542 7.694-7.567a35.3 35.3 0 0 1-9.252-3.107zm39.573 10.78-.301 36.091a92.3 92.3 0 0 0 30.948-15.389l-28.932-21.569a69 69 0 0 1-1.715.867m-54.582-33.178a35.2 35.2 0 0 1-4.33-8.746l-6.459 8.653 10.789.094m4.738 5.577-19.626-.164-1.14 1.53c5.715 9.594 14.386 17.233 24.768 21.618l1.363-1.346-2.822-19.418a38 38 0 0 1-2.543-2.22m-1.03-50.078.16-19.628-1.526-1.145c-9.599 5.718-17.23 14.39-21.627 24.776l1.349 1.371 19.425-2.835q1.05-1.321 2.219-2.539m-16.826 10.263 7.565 7.701a35.1 35.1 0 0 1 3.116-9.256zm-8.696 1.27a53.3 53.3 0 0 0-1.614 12.993 52.5 52.5 0 0 0 3.871 19.81l1.905.016 11.733-15.735a31 31 0 0 1-.221-3.362l-13.778-13.992zm39.047 70.62 5.065 34.78c8.85.667 17.75.062 26.428-1.795l.295-35.154a58.9 58.9 0 0 1-19.761 3.408c-4.121 0-8.146-.424-12.027-1.239M368.79 325.03c0-2.398-.052-4.8-.132-7.22a59 59 0 0 0-1.054-.709l-25.063 24.65a58.95 58.95 0 0 1 19.144 14.541c3.871-10.125 7.105-21.51 7.105-31.263zm-78.526 17.61c.567-.29 1.134-.586 1.712-.859l.303-36.093a92.3 92.3 0 0 0-30.954 15.39zm39.063-5.332-5.071-34.786a99 99 0 0 0-6.962-.264c-6.675 0-13.192.718-19.469 2.07l-.291 35.146a58.8 58.8 0 0 1 19.76-3.405c4.127 0 8.149.43 12.033 1.24m60.889 114.8c-10.697-5.534-20.779-12.044-28.646-18.385a59.9 59.9 0 0 1-12.042 10.473l28.185 21.004a93.7 93.7 0 0 0 12.503-13.093m-27.498-137.963a92.2 92.2 0 0 0-32.769-11.017l5.198 35.705a68 68 0 0 1 1.831.617zM224.623 394.94c0 6.68.711 13.19 2.059 19.463l35.147.292a58.9 58.9 0 0 1-3.4-19.755c0-4.129.423-8.146 1.23-12.04l-34.774 5.075a92 92 0 0 0-.262 6.965m.865-12.658 35.702-5.2c.196-.619.41-1.214.625-1.828l-25.31-25.734a91.9 91.9 0 0 0-11.017 32.762m13.976-37.648 24.647 25.057a59 59 0 0 1 20.955-23.998l-28.187-21.018a92.7 92.7 0 0 0-17.415 19.96M317.293 414.047c10.553 0 19.108-8.555 19.108-19.109s-8.555-19.108-19.108-19.108-19.108 8.555-19.108 19.108 8.555 19.11 19.108 19.11"/><path fill="#c8102e" d="M317.294 280.29c-63.317 0-114.642 51.33-114.642 114.65s51.325 114.642 114.642 114.642c38.654 0 72.833-19.128 93.608-48.435a154 154 0 0 1-13.165-5.366c-18.42 24.31-47.592 40.017-80.443 40.017-55.705 0-100.867-45.159-100.867-100.858s45.162-100.87 100.867-100.87c18.61 0 36.047 5.052 51.011 13.845-.137-4.997-.162-10.142.232-15.554-15.419-7.722-32.824-12.072-51.243-12.072"/><path fill="#c8102e" d="M444.715 465.59c-7.405 1.772-16.958.652-27.217-2.316-21.837 31.961-58.572 52.947-100.206 52.947-66.973 0-121.28-54.298-121.28-121.282 0-2.15.061-4.278.163-6.395-3.75 5.69-2.669 15.08-9.319 15.08-5.274 0-2.351-7.185-6.211-7.185-2.402 0-2.739 3.296-5.726 3.296-.349 0-.66-.125-.886-.125-.642 0-.928 1.393-2.144 1.393-1.553 0-2.643-1.833-3.876-1.833-1.391 0-1.834 2.654-3.678 2.654-1.892 0-3.723-3.166-4.461-4.614 1.218 85.916 71.23 155.176 157.42 155.176 65.963 0 122.441-40.56 145.879-98.102-17.659-5.34-34.535-14.352-34.535-14.352 1.077 10.522 16.077 25.658 16.077 25.658M175.476 334.74c3.636 3.004.738 8.262 3.347 11.88 19.972-57.24 74.425-98.315 138.471-98.315 20.931 0 40.834 4.397 58.847 12.297a124 124 0 0 1 4.588-9.808c-19.411-8.556-40.866-13.316-63.435-13.316-66.157 0-122.768 40.812-146.077 98.621 1.297.85 2.725-2.627 4.259-1.36m334.082-161.82h86.63c110.667 0 159.121-39.565 178.208-74.637 1.101-2.109-.254-2.551-2.357-.682-24.093 21.615-60.041 59.343-206.821 59.343h-61.94c-97.434 0-134.125 43.934-143.694 73.236a171 171 0 0 1 14.36 4.367c17.321-31.185 50.333-61.627 135.614-61.627"/><path fill="#c8102e" d="M507.526 195.261c-86.692 0-136.627 59.54-130.912 116.43 4.259 42.385-19.46 76.821-19.46 76.821s33.084-14.98 33.084-75.338c0-57.208 56.911-98.846 104.875-98.846 46.381 0 100.197.291 126.881.291 141.509 0 175.749-65.375 180.624-78.132.859-1.914-.379-1.526-.845-.637-29.544 39.843-70.914 62.596-183.17 62.596-72.11 0-94.912-3.185-111.077-3.185"/><path fill="#c8102e" d="M539.848 244.8c-23.409 0-25.76 6.515-25.76 6.515-.74.908-.363 3.041-2.003 3.664-5.347 2.065-11.266-2.365-15.869 3.592-2.78 3.598-9.525-.839-13.899 1.701-.983.576.016 3.068.776 3.398 2.048.9 5.43.633 6.701 1.69 1.343 1.101 1.225 2.676 2.472 3.598 1.544 1.131 4.443 1.635 5.735 3.42 1.009 1.373 1.332 4.104 2.796 4.184 35.141 1.995 71.215 1.99 104.561-10.929 3.777-5.947-32.715-20.834-65.51-20.834M401.725 322.29c.463 3.4-.424 8.618.281 8.687 24.46 2.67 49.289-1.679 71.923-12.068 6.299-2.673-24.581-18.75-50.271-18.75-8.347 0-14.031 3.551-14.031 3.551-1.432.823-2.58 4.178-4.246 6.68-1.241 1.856 1.135 4.767.138 5.964-1.844 2.222-4.121 3.584-3.794 5.935zm33.451-59.54c-1.183.198-2.073 2.12-2.95 3.366-2.22 3.125-9.251 2.434-9.193 5.991.08 6.485-7.144 7.672-8.292 12.343-.897 3.662-2.865 6.428-3.135 10.368 25.952.14 52.649-1.533 75.656-14.745 6.014-2.739-31.687-20.272-52.086-17.324m82.626-22.25c-1.888-7.528-11.023-8.938-17.249-12.58-2.47-1.448-5.369-.788-8.221.437-6.181 2.654-14.128-1.852-20.507 2.731-1.816 1.32-2.788 3.772-5.136 4.38-2.915.758-5.856.878-8.832 1.255-1.092.152-3.14.89-3.006 2.13.595 5.292-4.33 6.396-8.237 7.762-3.82 1.343-2.463 6.381-2.582 10.092 25.283.322 51.587-3.24 73.77-16.207M388.905 365.343c6.5 3.38 37.935-1.16 54.324-11.347-16.835-14.28-43.777-19.46-43.777-19.46-3.736 10.193-7.601 20.337-10.547 30.808"/><path fill="#c8102e" d="M384.193 371.296c-3.07 1.632-6.591 6.266-3.805 8.148 4.988 3.381 13.264 10.957 51.438 10.957 37.172 0 51.314-11.488 58.348-18.62 0-4.604-32.703-14.024-37.093-11.467-1.349.67-1.508 2.021-1.69 2.616-1.467.575-6.01.646-7.089 1.434-2.535 1.861-2.031 4.897-2.708 5.076-5.801 1.443-12.991-2.21-18.484.292-1.473.68-1.346 4.78-3.298 4.928-3.977.3-8.355-2.065-12.143-.856-.674.223-2.723.52-4.068 1.368-2.082-1.068-3.189-1.327-5.909-1.986-2.011-.493-3.955.89-6.419.472-2.307-.402-4.898-3.524-7.08-2.362m150.733-26.838c6.865-3.574 15.126-3.913 20.17-10.73-30.813-16.095-66.796-14.429-71.19-11.886-1.085.634-2.348 2.878-3.725 3.756-2.115 1.387-4.077.72-5.478 2.122-.84.84.082 3.058-.51 3.88-.773 1.087-2.48 1.28-3.545 1.854-1.082.592-3.367-.374-5.069.344-1.695.72-1.764 2.307-2.873 2.87-4.133 2.105-10.129-.337-12.975-.293-1.468.025-1.087 2.34-.614 2.805 1.842 1.825 7.171 2.382 6.968 5.085-.047.554-1.324 2.44-2.131 2.544 2.825 6.031 29.107 14.03 63.678 2.562 5.773-1.737 11.741-2.028 17.294-4.914zm39.327-44.416c2.828-1.893 6.431-1.915 8.115-4.592 3.731-4.842-32.269-12.844-46.876-12.844-14.516 0-41.321 3.642-45.921 5.258-1.905.792-2.007 4.68-4.243 4.955-4.304.53-8.568 1.051-12.899 1.415-1.423.115-1.066 2.397-.622 2.747 2.815 2.274 3.686 3.683 4.872 7.166.119.328 3.042.04 3.681.584 2.813 2.428 4.823 5.883 8.347 6.74 17.048 4.09 33.527 5.218 50.978 1.163 1.869-.429 3.238-1.949 4.905-2.153 6.123-.792 12.494-1.162 17.24-5.682 3.35-3.196 8.694-2.243 12.423-4.757m41.407-73.704c1.002-.62.187-3.862-.653-3.986-3.908-.594-8.143-2.174-12.372 1.622-1.43 1.291-4.095-1.487-6.075-.29-1.602.951-3.182 3.514-4.67 4.177-4.056 1.803-7.99-2.409-12.467-1.885-1.313.145-.994 3.066-2.299 3.372-3.85.911-7.215-3.282-9.387-1.872-3.326 2.144-6.119 4.875-10.145 3.063-3.865-1.756-8.968-5.409-11.61-3.107-4.59 4.008-10.173-1.8-14.209-.235-3.42 1.325-12.615 3.516-6.342 7.153 19.485 11.796 60.172 9.453 90.23-8.01zM422.515 447.534c-1.018-1.847-3.653-.856-5.467-1.923-1.316-.798-1.946-3.54-3.235-4.6-.996-.82-3.4 1.04-4.635.318-1.753-1.029-3.091-3.25-4.46-4.78-1.522-1.689-2.92-3.525-4.418-5.215-1.404-1.589-2.904-3.042-4.697-4.102-.963-.57-2.835.661-4 .358-2.062-.55-3.262-4.135-4.949-5.632-.969-.86-2.516-.978-3.373-1.792-.878-.846-1.065-2.398-1.988-3.42-1.219-1.338-3.003-1.814-4.322-2.893-1.786-1.462-3.124-5.165-4.5-7.204-1.374-2.04-3.409-2.266-4.73-4.053-1.655-2.24-2.624-6.004-4.647-8.27-2.026-2.293-7.099 1.363-8.65 4.45-2.543 5.048-2.394 11.46 1.484 15.787 19.078 21.313 43.851 38.99 72.204 43.656-2.115-3.05-4.344-8.369-5.617-10.685m62.734-7.135c-2.888-.804-5.42-2.4-8.066-3.493-1.632-.672-3.205 1.861-4.964.814-3.559-2.124-6.62-5.169-9.453-7.432-2.246-1.798-6.75-6.308-8.686-5.399-.762.34-1.858 4.53-3.697 3.15-4.434-3.323-7.314-6.897-11.452-10.522-1.896-1.649-3.703 3.804-6.108 2.65-5.533-2.69-7.761-8.688-12.017-12.937-4.967-4.945-9.715-10.674-16.547-12.485-1.135-.298-.51 1.357-1.573 2.19-5.219 4.073-10.964-2.887-16.033-5.21-4.649-2.147-8.74-5.555-13.971-5.91-1.109-.083-1.059 1.591-.638 2.09 29.797 35.248 71.143 61.692 116.555 60.626 1.054-.024 3.204.094 1.437-2.095-1.412-1.734-2.997-5.539-4.787-6.037m42.177-25.676c-1.326-.196-3.386 1.596-4.536 1.38-3.522-.662-6.308-3.825-10.58-6.08-1.762-.93-2.679 3.235-4.06 3.147-7.084-.404-17.319-7.914-23.642-11.702-1.12-.677-7.879.671-9 .897-4.066.818-9.238-6.3-12.434-7.802-2.423-1.128-5.796-2.323-8.094-.602-3.119 2.32-6.825 1.076-10.24 1.03-1.325-.029-2.495 2.791-4.138 3.308-4.659 1.495-9.815-1.745-14.387.537-.133.062-.757 1.02-.722 1.35.314 2.865 3.516 3.347 5.627 4.635 32.746 20.771 83.314 27.496 111.491 21.194.638-.198-.358-2.607-2.258-4.057-1.965-1.509-4.862-2.076-6.084-2.933-2.844-1.993-4.36-3.914-6.943-4.302Zm65.918-30.227c-3.466 1.026-6.147-1.514-9.026-.415-.661.258-1.112 1.348-1.663 1.354-5.429.107-9.046-5.735-14.574-5.294-1.367.107-1.341 2.528-2.505 2.802-3.405.798-6.425-3.322-9.495-1.844-2.189 1.07-3.73.99-5.828.375-2.72-.799-4.74-3.217-7.366-3.63-2.321-.365-4.603 1.936-7.222 1.174-6.513-1.897-11.564-8.088-18.557-6.605-3.452.73-6.42-1.632-8.803-.203-2.616 1.55-3.359 3.435-6.01 5.011-1.795 1.09-5.999.952-7.879 2.091-1.423.873-1.787 3.07-3.416 3.744-3.059 1.264-6.679.366-9.544 1.988-.337.187-.526 1.787.702 2.13 26.7 9.05 69.915 19.007 121.535 5.611 1.591-.485 1.921-1.437.627-2.932-2.835-3.279-6.73-6.62-10.976-5.357m61.776-45.24c-4.562 2.121-9.845-.236-14.902.965-1.321.313-.308 2.197-1.63 2.381-4.957.702-10.1-.565-14.747 1.25-3.634 1.412-7.994-.192-11.994-.09-1.522.04-1.558 2.081-1.792 3.734-.215 1.402-2.332 2.242-2.957 2.057-4.955-1.473-9.703-2.006-14.727-2.744-12.617-1.864-25.107-5.875-36.97-2.332-3.87 1.162-9.002 2.13-11.967 5.142-1.139 1.167-2.353 3.47-3.87 4.023-7.26 2.64-15.166 3.13-22.4 5.706-2.187.771-6.351 3.838-4.793 4.24 0 0 22.32 6.48 46.673 6.48 46.868 0 82.597-11.532 108.734-25.792-1.501-1.893-9.203-6.629-12.658-5.02m51.43-51.332c-2.874.947-6.797-1.767-9.255.047-3.67 2.706-7.981 2.216-11.75 1.828-1.798-.19-4.617-.823-6.208.421-1.029.81.449 2.106 1.412 2.976-9.486 3.265-19.95.19-28.946 3.842-.674.274-1.08 3.576-2.742 3.907-8.259 1.67-15.986-1.574-24.176-.074-2.082.385-1.159 4.792-3.336 4.897-7.354.36-14.517-.258-21.862-.564-8.737-.364-16.787 2.805-25.031 5.332-2.454.738-3.189 4.636-5.829 5.035-7.127 1.088-14.381-.16-20.88 3.05-.439.215-.468 2.401.011 2.66 7.966 4.501 17.095 7.61 22.54 14.887 55.435-.583 115.085-7.829 161.241-45.673.91-.738-4.556-1.878-7.499-2.56-2.869-.666-5.231-.666-8.71-1.803-3.095-1.02-5.953.801-8.98 1.792m57.557-52.137c-.563-.339-8.952-1.85-13.591-.76-.994.234-1.58 1.852-2.51 2.004-5.991.96-10.211 3.821-16.295 4.008-1.272.03-4.008.936-5.646 1.715-2.208 1.066-5.233-1.524-6.957.408-1.111 1.247.826 4.242-1.192 5.194-5.299 2.495-11.493-1.98-16.682 1.402-1.511.977 1.596 4.286-.352 4.902-7.461 2.332-20.361-9.249-25.245 2.775-.76 1.89-3.096 1.036-4.556.656-1.412-.366-3.408-1.019-4.248-.32-4.57 3.72-7.256 5.204-13.684 3.4-1.624-.468-1.654 4.367-4.812 3.598-3.612-.869-7.083-3.474-10.385-1.998-1.535.685-.404 4.701-2.64 4.92-8.984.856-18.245-.439-26.524 3.24-2.042.911-2.232 4.583-5.092 5.054-6.3 1.043-12.584.308-18.47 2.218-.955.306-.732 3.112.725 3.324 3.774.561 8.062-.025 10.958 1.701 3.555 2.122 5.807 8.104 9.302 8.245 71.19 1.376 122.619-24.135 157.896-53.558 1.396-1.212.672-1.715 0-2.128m-17.45-41.76c-1.069.486-.73 4.01-2.764 4.954-3.505 1.612-7.491 1.565-11.235 2.703-1.417.44-1.338 2.323-2.522 3.061-1.99 1.27-4.685.215-6.139 1.288-8.993 6.591-19.683 3.634-29.671 5.286.158 7.526-11.724 2.93-16.593 6.205-5.319 3.565-4.612 2.59-12.526 2.665-2.459.027-1.132 3.656-3.111 3.697-6.31.113-14.464-1.889-19.168-.52-.846.245-1.121 4.222-2.795 4.672-3.433.92-7.036 1.291-10.326 2.332-2.547.806.782 5.618-2.63 6.7-5.794 1.833-12.176.495-18.02 3.807-2.293 1.31-5.657.074-8.635.622-2.533.454-3.502 3.114-1.432 4.283 1.872 1.055 4.999.78 6.844 1.691 4.28 2.111 7.831 5.167 12.432 5.456 75.206 4.628 172.483-48.83 187.806-113.582.534-2.605-.661-2.125-1.193-.672-16.316 38.852-58.322 55.352-58.322 55.352"/></svg>