<?xml version="1.0" encoding="utf-8"?>
<!-- Generator: Adobe Illustrator 24.0.1, SVG Export Plug-In . SVG Version: 6.00 Build 0)  -->
<svg version="1.1" id="Layer_1" xmlns="http://www.w3.org/2000/svg" xmlns:xlink="http://www.w3.org/1999/xlink" x="0px" y="0px"
	 viewBox="0 0 400 400" style="enable-background:new 0 0 400 400;" xml:space="preserve">
<style type="text/css">
	.st0{fill:#FFFFFF;}
	.st1{fill:#BD1B21;}
</style>
<g>
	<path class="st0" d="M350,200c0,82.8-67.2,150-150,150c-82.8,0-150-67.2-150-150c0-82.8,67.2-150,150-150
		C282.8,50,350,117.2,350,200"/>
	<path d="M200,342.2c-37.7,0-73.1-14.6-99.9-41.1c-26.8-26.5-41.8-61.9-42.2-99.6c-0.4-38,14-73.9,40.5-101
		c26.6-27.2,62.1-42.3,100.1-42.8c0.5,0,1.1,0,1.6,0c37.7,0,73.1,14.6,99.9,41.1c26.8,26.5,41.8,61.9,42.2,99.6
		c0.4,38-14,73.9-40.5,101c-26.6,27.2-62.1,42.3-100.1,42.8C201,342.2,200.5,342.2,200,342.2"/>
	<g>
		<path class="st0" d="M214,102.4l-4.9,5h-13.9l-5-5V74.9l5-5H209l5,5V102.4z M199.6,78l-1.5,1.5v18.1l1.5,1.5h5.1l1.5-1.5V79.5
			l-1.5-1.5H199.6z"/>
		<path class="st0" d="M294.2,167.1l-6.6-2.3l-6-12.5l2.3-6.6l24.8-11.9l6.6,2.3l6,12.5l-2.3,6.6L294.2,167.1z M310,143.6l-2-0.7
			l-16.3,7.8l-0.7,2l2.2,4.6l2,0.7l16.4-7.8l0.7-2L310,143.6z"/>
		<path class="st0" d="M140.5,123.1l0.1,7l-9.7,9.9l-7,0.1L104.2,121l-0.1-7l9.6-9.9l7-0.1L140.5,123.1z M113,116.5l0,2.1l13,12.6
			l2.1,0l3.5-3.6l0-2.1l-13-12.6l-2.1,0L113,116.5z"/>
		<polygon class="st0" points="264.9,85.8 250.4,120.2 244.4,117.6 242.8,93.2 234.3,113.3 227.7,110.6 242.3,76.2 250.4,79.6 
			250.5,101 258.2,82.9 		"/>
		<path class="st0" d="M168.8,93.6l-1.7,5.8l10.4,10.3l-7.3,3.2l-9.7-9.3l-3.5,1.6l4.9,11.3l-6.7,2.9L140.5,85l16-7l6.8,2.7
			L168.8,93.6z M153.5,97l5.9-2.6c0.1,0,0.8-1.9,0.8-1.9l-2-4.7l-2-0.8l-5.9,2.6L153.5,97z"/>
		<polygon class="st0" points="294.2,119.3 289.3,114.5 268.7,135.4 263.2,129.9 283.8,109 278.9,104.2 284.5,98.5 299.8,113.5 		
			"/>
		<polygon class="st0" points="94.8,140.6 92,146.8 118.8,158.8 115.6,166 88.8,154 86,160.2 78.6,156.9 87.4,137.3 		"/>
		<path class="st0" d="M299.7,236l-3.7,7l-2.6-1.4l-0.7,1.4l-2.3,4.4l0.6,2l3.7,1.9l-0.5-0.3l2-0.6l4.4-8.4l6.9-2.1l11.2,5.9
			l2.1,6.7l-6.4,12.3c0,0-6.8,2.1-6.8,2l-5.6-3l3.7-7l2.8,1.5l3-5.8l-0.6-2l-3-1.6l-2,0.6l-4.3,8.2l-7,2.1l0,0l-11.2-5.9l-2.2-6.9
			l6.4-12.3l6.8-2L299.7,236z"/>
		<path class="st0" d="M107.6,261.8l-5.9-1.3l-9.5,11.1l-3.7-7l8.6-10.3l-1.8-3.4l-11,5.7l-3.4-6.4l33.2-17.2l8.1,15.5l-2.3,6.9
			L107.6,261.8z M103.1,246.8l3,5.7c0,0,2,0.6,2,0.6l4.5-2.4l0.6-2l-3-5.7L103.1,246.8z"/>
		<path class="st0" d="M156.5,307l-5.4,12.9l-6.5-2.7l14.4-34.6l15.8,6.6l2.6,6.8l-5.2,12.6l-5.2,2.8L156.5,307z M159.3,300.3
			l5.3,2.2c0,0,1.9-0.8,1.9-0.8l2-4.7l-0.8-1.9l-5.3-2.2L159.3,300.3z"/>
		<polygon class="st0" points="213.2,300.5 206.4,300.6 206.7,330 198.9,330.1 198.6,300.7 191.8,300.8 191.7,292.7 213.2,292.5 		
			"/>
		<path class="st0" d="M256.7,312.8l-2.8,6.4l-13,4.9l-6.4-2.9l-9.7-25.7l2.9-6.4l12.9-4.9l6.4,2.9L256.7,312.8z M234.6,295.1
			l-0.9,1.9l6.4,17l1.9,0.9l4.7-1.8l0.9-1.9l-6.4-16.9l-1.9-0.9L234.6,295.1z"/>
		<path class="st0" d="M284.1,276.6l0.1,6l13,6.8l-6,5.1l-12-6.1l-2.9,2.5l8,9.4l-5.5,4.7l-24.2-28.5l13.3-11.3l7.3,0.7L284.1,276.6
			z M270.5,284.2l4.9-4.2c0,0,0.2-2.1,0.2-2.1l-3.3-3.9l-2.1-0.2l-4.9,4.2L270.5,284.2z"/>
		<path class="st0" d="M125.6,307.3l-5.8-5.4l2.7-5.5l-8-7.4l-5.3,3.2l-5.9-5.4l33.8-20.3l5.9,5.4L125.6,307.3z M125.8,289.5
			l5.1-10.4l-9.9,5.9L125.8,289.5z"/>
	</g>
	<g>
		<path class="st1" d="M229.1,275.2c0.1,0.2,0.2,0.3,0.3,0.3c0.4,0,1.3-0.2,1.3-0.2l0.8-0.4l2.4-0.9c0,0,5.9-2.8,5.9-2.8
			c0,0,1-0.5,1-0.5l0.5-0.2l0.6-0.4l1-0.6l1.2-0.7l1.6-1l2.8-2l1.4-1.1l1.9-1.4l1.8-1.3l0.8-0.6l1.2-1.1l1.2-1.2l2-2.1l2.3-2.2
			l2.6-3l1.4-1.9l0.5-0.7l1.6-1.9l3-4.4l0.8-1.4l2-4l1.1-2.2l2-4l1.1-2.4l1.2-3.7c0,0,1.4-4.9,2.1-7.5c0.1-0.3,0.1-0.6-0.1-0.8
			c-0.4-0.6-0.7-1.3-1.1-2c-0.2-0.3-0.5-0.7-0.7-1c-0.2-0.3-0.7-0.9-0.9-1.2c-0.2-0.2-0.5-0.5-0.7-0.7c-0.6-0.6-1.2-1.2-1.7-1.6
			c-0.3-0.1-0.5-0.3-0.7-0.5c-1.7-1.3-3.3-2.3-5.2-3.1c-0.8-0.3-1.6-0.6-2.4-0.9c-0.6-0.2-1.5-0.4-2.1-0.5c-0.3-0.1-0.6-0.1-0.9,0.1
			c-0.3,0.2-0.3,0.6-0.3,1c-0.1,1-0.1,2.1-0.2,3.2c-0.1,1.1-0.2,2.1-0.3,3.2c-0.1,1-0.1,1.9-0.2,2.9c-0.1,1.3-0.3,2.5-0.6,3.8
			c-0.4,2.3-0.9,4.7-1.4,7c-0.1,0.6-0.2,1.3-0.5,1.9c-0.4,1-0.7,2-0.9,3.1c-0.4,2.2-1.2,4.3-2,6.4c-0.6,1.7-1.2,3.4-2.2,5
			c-0.1,0.1-0.1,0.2-0.1,0.3c-0.5,1.1-0.9,2.2-1.4,3.2c-0.3,0.7-0.8,1.3-1,2c-0.4,0.9-0.9,1.7-1.4,2.5c-0.8,1.3-1.7,2.5-2.4,3.8
			c-0.5,0.9-1.1,1.8-1.7,2.6c-0.2,0.2-0.3,0.4-0.4,0.7c-0.5,0.7-0.9,1.5-1.5,2.1c-1,1.3-2.1,2.6-3.2,3.9c-0.7,0.8-1.4,1.5-2.1,2.3
			c-0.6,0.7-1.3,1.4-2,2.1c-0.1,0.1-0.3,0.3-0.5,0.4c-0.4,0.3-0.8,0.6-1.2,1c-0.8,0.8-1.7,1.7-2.7,2.3c-0.4,0.3-0.9,0.6-1.3,0.9
			C231.7,273.8,230.5,274.5,229.1,275.2"/>
		<path class="st1" d="M281.7,212.3c0,0,0.1-0.1,0.1-0.2c0-0.2,0.1-0.6,0.1-0.6l0.6-5.1l0.3-4.8l0-4.7l0-0.7l-0.6-5.4
			c0,0-0.7-4.9-1.2-7.3c-0.2-0.9-0.7-1.3-1.4-1.7c-0.2-0.1-0.5-0.2-0.8-0.3c-0.5-0.2-1.1-0.4-1.6-0.6c-1.2-0.3-2.4-0.7-3.6-0.9
			c-1.5-0.2-2.9-0.4-4.4-0.5c-1.2-0.1-2.4-0.2-3.6-0.2c-1,0-1.5,0-2.5,0c-0.5,0-1.1,0-1.3,0.3c-0.2,0.3-0.1,0.9,0,1.5
			c0.2,1.2,0.4,1.8,0.6,2.9c0.6,3.5,1.2,6.9,1.3,10.4c0.1,1.6,0.2,3.2,0.2,4.7c0,0.4,0,0.7,0,1.2c0,0.3,0.1,0.6,0.2,0.8
			c0.1,0.2,0.4,0.3,0.6,0.3c0.3,0.1,0.6,0.1,0.9,0.2c0.3,0.1,0.9,0.2,1.2,0.3c1.4,0.5,2.9,1,4.2,1.5c1,0.4,1.9,0.9,2.8,1.4
			c0.1,0.1,0.2,0.1,0.3,0.2c0.5,0.4,1.1,0.8,1.6,1.2c1.3,0.9,2.6,1.8,3.6,3.1c0.2,0.2,0.4,0.5,0.6,0.7c0.4,0.3,1,1.6,1.5,2.1
			C281.6,212.2,281.6,212.3,281.7,212.3"/>
		<path class="st1" d="M245.6,154.8c0.5,0,0.9,0,1.3-0.1c0.3,0,0.5,0,0.7-0.3c0.1-0.3-0.1-0.6-0.2-0.7c-0.1-0.2-1-1.9-1-1.9
			l-0.9-1.4l-3.8-5.5l-0.8-0.9l-0.7-1l-1.2-1.4l-3.1-3.4l-1.3-1.3l-4.8-4.4l-3.9-3l-1.4-0.7l-4.6-2.8l-3.2-1.7l-0.6-0.3l-2.6-1
			l-3.9-1.4l-0.3-0.1l-1.2-0.3l-0.3-0.1l-1.1-0.3l-2.3-0.4l-1.1,0l-2.1-0.4l-2.5-0.2l-0.9-0.1l-1.5,0l-2.6,0.1l-2.5,0.3l-2,0
			l-1.7,0.2l-1.8,0.4l-1.4,0.4l-2.2,0.4l-0.5,0l-2.1,0.7l-1.2,0.3l-0.7,0.4l-1.8,0.5l-0.9,0.5l-1.1,0.4l-2.7,1.1l-3.4,1.3l-1.1,0.5
			l-2.4,1.3l-2.1,1.4l-1.9,1l-0.7,0.4l-2.1,1.1l-0.3,0.2l-2.4,1.9l-2,1.3l-0.4,0.3l-2.2,1.8l-0.8,0.7c0,0-1.2,1-1.2,1.2l0.8-0.3
			c0,0,1.5-0.6,1.6-0.6c0,0,0.3,0,0.3,0l2.2-0.9h0.3l2.4-1c0,0,1.3-0.4,1.3-0.4c0,0,1.3-0.5,1.3-0.5l1.8-0.6l4.4-1.7l0.4,0l2.2-0.8
			l1.8-0.7l0.2,0.2c0,0,3.4,0.1,3.4,0.1c0,0,2.2,0.2,2.2,0.2l0.1,0l4.4,0.3l0,0l6.1,0.3l0,0.1l2.2,1.9l0.2,0l2.2,2.1l0.2-0.1l3,0.1
			l0.1-0.1l7.6,0.4l0,0.2l3.4,2l0.1,0l6,2.9l0,0.3l3.4-1.3l5,1.7l0.8,1.4l1.8,0.1l1.8,2l0.2,0l1.4,1.6l0,0.1h0.2l3.9,0.9l1.5,2.2
			l3.6,1.3c0,0,3.9,1,5.9,1.2C242.1,155,244.2,154.9,245.6,154.8"/>
		<path class="st1" d="M279.6,177.9c-0.1-0.6-0.5-1.8-0.5-1.8l-0.2-0.6l-0.2-0.8l-0.6-1.9l-0.6-1.7l-1.9-4.2l-0.8-2l-1.1-2.4
			l-1.3-2.1l-0.3-0.6l-0.9-1.7l-0.8-1.3l-0.3-0.4l-5.5-7.4c0,0-0.5-0.6-0.8-0.9c-0.1-0.2-0.2-0.3-0.3-0.3c0,0,0,0,0,0
			c0,0-1.7,2.7-2.4,3.5c-0.7,0.8-2.1,2.1-2.1,2.1s-1.2,1-1.4,1.1c-0.2,0.2-1.1,0.7-1.1,0.7l-1.2,0.7c0,0-0.9,0.4-1.1,0.5
			c-0.2,0.1-0.3,0.1-0.4,0.2c-0.1,0.1-0.1,0.2-0.1,0.4c0,0.2,0.1,0.3,0.2,0.5c0.5,1.1,1,2.1,1.5,3.2c0.8,1.5,1.4,3.2,2,4.8
			c0.2,0.5,0.5,1.1,0.6,1.6c0.5,1.4,0.9,2.8,1.3,4.2c0.2,0.6,0.4,1.2,0.6,1.9c0.2,0.6,0.3,1.3,0.5,1.9c0.1,0.4,0.4,0.6,0.8,0.6
			c0.4,0,0.8,0,1.2,0c1.5,0,2.9-0.1,4.4-0.1c0.4,0,3.3,0.3,3.3,0.3s1,0.1,1.5,0.2c1.1,0.2,2.2,0.5,3.3,0.7c0.9,0.2,1.9,0.5,2.7,0.9
			c0.4,0.2,0.9,0.3,1.3,0.4c0.1,0,0.4,0.1,0.4,0.1C279.5,178.1,279.6,178,279.6,177.9"/>
		<path class="st1" d="M260.5,145.4c0-0.2-0.4-0.8-0.4-0.8l-0.3-0.5l-0.8-0.9l-0.5-0.8l-1-1c0,0-0.2-0.2-0.3-0.3
			c-1.7-1.4-5.2-4.2-5.2-4.2c0,0-1-0.8-1-0.8l-1.8-1.6l-9-5.4l-7.1-3.4c0,0-3.8-1.5-3.8-1.5c0,0-1.4-0.5-1.4-0.5
			c0,0-4.7-1.6-4.7-1.6l-3.3-0.8l-3.2-0.7l-0.5,0l-0.3,0.3l0.1,0.1c0,0,0.3,0.2,0.5,0.2c1,0.4,2,0.8,3,1.2c0.6,0.3,1.3,0.6,1.9,0.8
			c0.5,0.1,0.9,0.3,1.3,0.5c1.5,0.9,3,1.8,4.5,2.7c0.9,0.5,1.7,1.2,2.5,1.9c0.6,0.5,1.2,1.1,1.9,1.4c0.3,0.2,0.6,0.5,0.9,0.7
			c0.2,0.1,0.3,0.3,0.5,0.4c0.9,0.7,1.8,1.4,2.6,2.2c0.8,0.9,1.7,1.8,2.6,2.6c0.8,0.8,1.7,1.6,2.4,2.6c0.6,0.8,1.2,1.5,1.9,2.2
			c1.3,1.3,2.3,2.8,3.5,4.2c0.1,0.2,0.2,0.4,0.4,0.6c0.8,1.2,1.5,2.5,2.4,3.6c0.6,0.8,1.2,1.6,1.7,2.5c0.3,0.5,0.6,1.1,1,1.6
			c0.2,0.3,0.5,0.4,0.7,0.4c0.2,0,0.5-0.2,0.5-0.2l0.6-0.3c0,0,0.8-0.4,1.1-0.5c0.3-0.1,0.8-0.4,1.1-0.6c0.2-0.2,1.1-0.8,1.5-1.2
			c0.5-0.4,1.4-1.6,1.4-1.6l0.7-0.9l1.2-2C260.3,146,260.5,145.6,260.5,145.4"/>
		<path class="st1" d="M256.7,175.4c-0.5-1.5-0.9-2.9-1.4-4.4c-0.4-1.2-0.8-2.5-1.3-3.6c-0.3-0.7-0.5-1.5-0.8-2.2
			c-0.1-0.4-0.3-0.7-0.4-1.1c-0.7-1.9-1.6-3.4-2.5-5.2c0-0.1-0.1-0.2-0.2-0.3c-0.1-0.2-0.2-0.3-0.4-0.4c-0.2-0.1-0.4,0-0.8,0
			c-0.8,0.1-1.7,0.2-2.1,0.2c-0.4,0-1.9,0.1-3.1,0.2l-0.3-0.1h-0.8h-0.7l-3.9-0.5c-1.4-0.2-4.7-1-4.7-1l-2.4-0.8l-2.9-1l-0.2,0.1
			l-4.6-0.4l-0.1,0.1l-2.6-2l-0.3,0l-1.6-1.5l-0.1-0.3l-1.8-0.3l-0.2,0.1l-1.5-0.5l-0.2-0.2l-3.4,0.2l-3.1-1.2l-10.6,0.6l-0.2-0.1
			l-2,0.1l-0.2,0.2l-5.2,0.4l-0.1-0.1l-7.4,4.3l-0.1,0.3l-0.3,0.3l-0.2-0.1l-3.7-0.4l-0.2,0.1l-6.6,0l-0.1-0.1l-1.9-0.1l-0.6-0.3
			l-6.9,5.4l0,0.1l-2.4,1.9l-2.7-1.3l-0.2,0.1l-1-0.3c0,0-5,1.3-4.9,1.3c0,0-4.7-0.7-4.7-0.7l-0.3-0.3l-0.9,0.9l-1.9,0.9l0,0.2
			l-3.7,2.8l-5.3,3.8l-6,4.4l-2.7,2l-0.1,1.1l-1.1,2.6l-0.5,2.2l-0.7,4.5l-0.4,2l-0.2,2.4l-0.6,4.9l-0.3,10.8l0.3,0.6l0.2,3
			c0,0,0,0.5,0.2,0.5c0,0,0,0,0,0l13.2-13.6l4.3-1.7l3.6-0.2l2.2-2.5l0.2-0.5l0.3,0.1l5.9-0.7l0.3-0.2h2.2l0.3,0.1l0.7-0.9l2.7-1.6
			l2.8-2l8,0.1l0.1,0.2l3.1,0.3l2.4-0.5l4.5-4.6l0.1,0l3.6-3.4l5.3-0.7l0.2-0.1l0.2,0.2l2.8,1.3l0.2-0.2l2.5-0.3l0.1-0.1l2.3-0.4
			l0.2-0.1l2.5,2.1l0.1-0.2l5.2-0.1l0.4-0.3l4.1,0.2l0.2,0.1l0.6-0.2l0.1-0.2l1.7-0.7l0.2,0l1.9-0.9l0.2-0.2l2-0.8l0.1-0.2l5.6-2.2
			l0-0.1l1-0.3l0.2-0.2l0.3,0.3l1.6,0.8l0.5,0l1.8,1l0.1-0.2l0.6-0.3l0.1,0l0.9-0.4l0-0.1l1.3-0.3l3.4,0.9l0.7-0.2l0.6,0.4l2.5,0.4
			l2.4,0.9c0,0,1.4-0.1,1.4-0.1c0,0,0.5,0.3,0.5,0.3l0.4-0.2c0,0,4.8-0.6,7.2-0.8c1.6-0.1,3.1-0.3,4.7-0.4c0.9-0.1,1.8-0.2,2.6-0.3
			C256.7,176.2,256.9,176,256.7,175.4"/>
		<path class="st1" d="M260.2,199.9c0-0.3-0.1-0.5-0.1-0.9c-0.1-0.9-0.1-1.8-0.1-2.8c0-0.3-0.1-0.6-0.1-0.9
			c-0.1-1.1-0.1-2.3-0.2-3.4c-0.1-1.5-0.4-2.9-0.6-4.3c-0.2-1.1-0.4-2.2-0.6-3.3c-0.2-1.2-0.4-2.2-0.7-3.4c-0.3-1.2-0.5-1.3-1.7-1.2
			c-0.1,0-0.2,0-0.3,0.1c-0.4,0.1-1.1,0.1-1.5,0.2c-2.3,0.3-4.5,0.4-6.9,0.7l-6.7,2.3l-9.7-0.3l-1.1-0.3l0,0.2l-2.9,2.1l-0.4,0
			l-2.3,2.1l-0.1,0.3l-5.8,0.8l-5.3,4.1l-0.6,0l-2.8,1.7l-1.1,0.1l-1.1,0.9l-0.3-0.2l-5.4-0.4l-0.9,1.1l0,0.2l-4.7,5.1l-0.1,0.3
			l-0.2,0l-6,6.8l-1.6,0l-0.1,0.2l-4.9,0.8l-0.4,0c0,0-0.1,0.2-0.1,0.2c0,0-8.1,4.5-8.1,4.5l-3.6-0.4l-0.8,0.3l-3.6-0.2l-3.6,3.9
			l-2.1,0.4l-1.2-0.1l-1.3,0.5l-0.8-0.1l0,0.2l-4.4,3.4l-0.4,0.1l-6.9,5.4l0.1,0.3l-4.3,10.4l0.2,0.4l-7.1,0.6l-2.3,2l-0.2,0.8
			l3.2,4.4l2.3,3.6l2,2.6l3.3,3.6c0,0,0,0.2,0.1,0.3c0.1,0,0.4,0,0.4,0.1c0,0,2,0.7,2,0.7c0,0,2.4,0.8,2.4,0.8s0,0.1,0.1,0.1
			c0,0,0.2,0,0.2,0l4,1.6l0.3,0l0.2,0.3c0,0,0.3,0,0.4,0c0,0,0.9,0.6,0.9,0.6l1.7-0.9l0.1,0l0.8-0.5l6.1,1.5l4.5-2.3l9.9-1l4.1-6.5
			c0.6-0.6,1.8-1.8,1.8-1.8l0.2,0c0,0,1.4-1.3,1.4-1.3c0,0,0-0.2,0-0.2l2.5-2.3l1.2-1.2c0,0,0.3-0.2,0.3-0.2c0,0,1.4-1.4,1.4-1.4
			l1.1-1.1l0.3-0.1l-0.3-1l1.1-4.2l2.2-0.7l0.1-0.1l0.7-0.1l0-0.4l3-4.8l0.3-0.1l1.2-2.4l2-1.1l0.3-0.3l0.4,0.1c0,0,1.2-0.7,1.2-0.7
			h0.1l2.2-1l0.2-0.3l7.3-3.3l0.4,0l0.1-0.4l0.3-0.2l0.7-2.5l2.3-1l2.7-0.3l2.4-1.7l3.4,0.1l0.3,0.3l0.2-0.2l4.8-2.1l0-0.6l1.2-2.2
			l2.4-0.6l0.1-0.2l3.2-0.7l1.2-1.5l0.2,0c0,0,0.7-0.7,0.8-0.7c0,0,2.2,0.3,2.2,0.3l0.1,0.1l1.2,0.2l0.8,0.1c0,0,3.3-1.5,4.6-2.1
			c0.6-0.2,1.1-0.4,1.7-0.6c0.8-0.3,1.5-0.5,2.3-0.8c0.4-0.1,0.8-0.2,1.1-0.3l1.5-0.3l1.8-0.3l1.1-0.1c0,0,0.5-0.1,0.7-0.1
			c0.2,0,0.5,0,0.7-0.2c0.2-0.2,0.2-0.4,0.3-0.6C260.2,200.3,260.2,200.2,260.2,199.9"/>
		<path class="st1" d="M260.1,206.3c0-0.3,0-0.7-0.2-0.9c-0.2-0.2-0.5-0.3-0.6-0.3c-0.2,0-1,0.1-1,0.1l-1.4,0.2
			c-0.2,0-0.3,0-0.5,0.1c-0.8,0.2-1.7,0.4-2.5,0.6c-0.9,0.3-1.9,0.5-2.7,0.9c-0.9,0.4-2,0.7-2.9,1.2c-0.3,0.2-3.5,1.7-4.9,2.4
			l-1.8,1.9l-0.1,0.4l-0.2-0.1l-1.1,0.1l-0.1,0.1l-3.7,1.2l0,0.4L236,215l0,0.2l-1.7,3l-0.2,0l0,0.3c0,0-0.4,0.6-0.7,1.2l-7.8,5
			l-0.2,0l-1.2,1l-0.8,3.3l-0.8,0.7l-3,11.3l0.4,1.3l-4.5,2.2h-0.7l-0.9,3.9l-0.1,0.1l-1.1,3.6l0.1,0.2l-0.5,3.1l-0.2,0.2l0.1,0.3
			l-4.3,6.9l-0.3,0.1l-1.1,1.7l0,0.3c0,0-3.7,5.2-3.7,5.2c0,0-3.9,2.3-3.9,2.3l0.2,0.3c0,0-0.2,1.6-0.2,1.6l0.3,0.6l-0.6,0.2
			l-2.8,1.7l-0.3-0.1l-4.2,2.5l-0.5,0.8c0,0.1,1.6,0.2,1.6,0.2l2.7,0.2l1.8,0.1l2.1,0l1,0l1.6,0l1.6,0l5.8-0.7l3.5-0.6l2.6-0.7
			l2.8-0.8l3.6-1.4l0.3-0.2l1-0.6c0,0,2.9-1.5,4.2-2.5c2.2-1.7,4.5-3.4,6.6-5.3c0.7-0.7,1.4-1.3,2.1-2c0.7-0.6,1.3-1.3,2-2
			c0.1-0.1,0.3-0.2,0.3-0.4c0.2-0.5,0.6-0.9,1-1.3c0.3-0.3,0.6-0.6,0.8-0.9c0.4-0.7,1.1-1.2,1.7-1.8c0.5-0.5,0.9-1,1.3-1.5
			c0.7-1,1.3-2,2-3c0.9-1.3,1.8-2.6,2.6-4c0.8-1.5,1.6-3,2.4-4.4c0.7-1.2,1.4-2.5,2-3.8c0.9-2.2,1.9-4.3,2.7-6.6
			c0.9-2.3,1.6-4.7,2.2-7.2c0.5-1.8,0.8-3.7,1.4-5.4c0.1-0.2,0.1-0.5,0.2-0.7c0.3-1.5,0.5-3,0.7-4.4c0.2-1.4,0.4-2.8,0.6-4.2
			c0.1-1,0.3-1.9,0.4-2.9c0.1-1.3,0.2-2.7,0.2-4c0-0.1,0-0.4,0-0.4S260.1,206.5,260.1,206.3"/>
	</g>
</g>
</svg>
