<svg xmlns="http://www.w3.org/2000/svg" viewBox="0 0 960 640"><path fill="#fff" d="M444.425 437.492c-7.005 0-12.69 5.675-12.69 12.683 0 7 5.686 12.686 12.689 12.686s12.68-5.686 12.68-12.685c0-7.009-5.677-12.685-12.68-12.685zm0 22.647a9.97 9.97 0 0 1-7.048-2.914 9.95 9.95 0 0 1-2.916-7.048 9.95 9.95 0 0 1 9.963-9.957c5.505 0 9.961 4.452 9.961 9.957s-4.456 9.963-9.961 9.963zm5.211-12.904a4.3 4.3 0 0 0-1.262-3.04 4.3 4.3 0 0 0-3.042-1.257h-6.112v14.48h2.717v-5.88h1.95l2.745 5.88h3.004l-2.866-6.132a4.31 4.31 0 0 0 2.867-4.05zm-4.304 1.583h-3.395v-3.169h3.395a1.59 1.59 0 0 1 1.587 1.587 1.585 1.585 0 0 1-1.587 1.583"/><path fill="#fff" d="M585.043 123.399H196.855v12.275c0 34.1 16.329 64.182 41.064 81.87h-41.064v12.282c0 34.09 16.329 64.167 41.064 81.858h-41.064v12.284c0 34.09 16.329 64.166 41.064 81.856h-41.064v12.29c0 54.304 41.407 98.487 92.304 98.487h87.877l64.83-109.599c33.551 45.452 86.549 72.601 143.177 72.601 98.205 0 178.102-79.896 178.102-178.098S683.248 123.4 585.043 123.4"/><path fill="#010101" d="M585.042 135.675h-372.36c0 47.62 35.828 86.217 80.025 86.217h140.268c2.184 0 3.96 1.776 3.96 3.965s-1.776 3.97-3.96 3.97H212.682c0 47.611 35.828 86.21 80.025 86.21h84.58a3.97 3.97 0 0 1 3.966 3.972 3.97 3.97 0 0 1-3.966 3.96H212.683c0 47.61 35.827 86.21 80.024 86.21H321.6a3.965 3.965 0 0 1 3.965 3.965 3.97 3.97 0 0 1-3.965 3.971H212.683c0 47.604 35.827 86.206 80.024 86.206h77.331L514.593 259.92c14.24-24.072 40.454-40.215 70.449-40.215 45.177 0 81.8 36.623 81.8 81.802s-36.623 81.8-81.8 81.8c-44.609 0-80.875-35.717-81.779-80.114l-54.701 92.491c29.918 43.272 79.881 71.642 136.48 71.642 91.58 0 165.822-74.245 165.822-165.819s-74.243-165.832-165.822-165.832"/><path fill="#fc4c02" d="M585.043 254.444c-25.992 0-47.054 21.069-47.054 47.062s21.062 47.053 47.054 47.053 47.061-21.072 47.061-47.054-21.067-47.062-47.061-47.062"/></svg>