<svg xmlns="http://www.w3.org/2000/svg" viewBox="0 0 960 640"><path fill="#010101" d="M445.201 434.914c-6.849 0-12.411 5.552-12.411 12.406 0 6.847 5.562 12.408 12.411 12.408s12.402-5.561 12.402-12.407c0-6.855-5.552-12.407-12.402-12.407m0 22.151a9.73 9.73 0 0 1-9.005-6.014 9.7 9.7 0 0 1-.74-3.73 9.733 9.733 0 0 1 9.745-9.739c5.384 0 9.743 4.354 9.743 9.739s-4.359 9.744-9.743 9.744m5.098-12.621a4.218 4.218 0 0 0-1.234-2.974 4.2 4.2 0 0 0-2.976-1.229h-5.978v14.162h2.657v-5.752h1.908l2.684 5.752h2.939l-2.803-5.997a4.21 4.21 0 0 0 2.804-3.962zm-4.21 1.548h-3.321v-3.099h3.321c.854 0 1.553.695 1.553 1.552a1.554 1.554 0 0 1-1.553 1.547"/><path fill="#010101" d="M582.738 121.499H196.855v18.213c0 28.194 11.02 54.673 29.878 73.872h-29.878v18.217c0 28.187 11.02 54.67 29.878 73.857h-29.878v18.221c0 28.181 11.02 54.661 29.878 73.869h-29.878v18.215c0 56.538 43.28 102.538 96.484 102.538h89.489l60.739-102.686c34.17 41.66 85.393 66.492 139.171 66.492 99.475 0 180.407-80.923 180.407-180.398s-80.932-180.41-180.407-180.41"/><path fill="#fff" d="M582.738 127.706h-379.68v12.006c0 33.353 15.971 62.776 40.164 80.075h-40.163v12.015c0 33.341 15.971 62.759 40.163 80.063h-40.163v12.015c0 33.342 15.971 62.759 40.163 80.062h-40.163v12.021c0 53.113 40.499 96.328 90.28 96.328h85.952l63.408-107.197c32.817 44.456 84.652 71.01 140.039 71.01 96.053 0 174.199-78.145 174.199-174.195s-78.146-174.203-174.199-174.203"/><path fill="#010101" d="M582.738 139.713h-364.2c0 46.576 35.043 84.328 78.273 84.328h137.191c2.136 0 3.873 1.737 3.873 3.878s-1.737 3.883-3.873 3.883H218.539c0 46.569 35.042 84.32 78.272 84.32h82.725a3.885 3.885 0 0 1 3.88 3.886 3.885 3.885 0 0 1-3.879 3.872H218.538c0 46.567 35.042 84.32 78.272 84.32h28.26a3.88 3.88 0 0 1 3.876 3.879 3.883 3.883 0 0 1-3.876 3.884H218.538c0 46.561 35.042 84.318 78.272 84.318h75.635l141.387-239.048c13.928-23.543 39.567-39.333 68.905-39.333 44.186 0 80.007 35.82 80.007 80.01s-35.821 80.006-80.007 80.006c-43.632 0-79.103-34.934-79.988-78.358l-53.5 90.465c29.263 42.324 78.13 70.073 133.489 70.073 89.573 0 162.188-72.619 162.188-162.186s-72.615-162.197-162.188-162.197"/><path fill="#fc4c02" d="M582.738 255.878c-25.421 0-46.023 20.608-46.023 46.031s20.602 46.021 46.023 46.021 46.029-20.609 46.029-46.021-20.604-46.031-46.029-46.031"/></svg>