<svg width="500" height="500" viewBox="0 0 500 500" fill="none" xmlns="http://www.w3.org/2000/svg">
<path fill-rule="evenodd" clip-rule="evenodd" d="M248.689 102.258C127.44 102.268 25 170.223 25 250.659C25 334.391 121.171 397.529 248.689 397.529C323.114 397.529 393.674 371.371 437.446 327.563C461.54 303.453 474.789 276.132 474.763 250.659C474.732 210.999 451.401 173.75 409.072 145.761C366.632 117.703 309.68 102.258 248.689 102.258Z" fill="#FFB612"/>
<path fill-rule="evenodd" clip-rule="evenodd" d="M92.2598 349.009C53.3578 323.062 31.9275 288.124 31.9275 250.659C31.9275 175.303 133.22 109.196 248.689 109.186C369.464 109.18 467.767 172.645 467.841 250.659C467.862 274.295 455.328 299.863 432.545 322.668C390.047 365.202 321.318 390.601 248.689 390.601C188.009 390.601 132.452 375.825 92.2598 349.009Z" fill="#203731"/>
<path fill-rule="evenodd" clip-rule="evenodd" d="M345.728 211.794C328.315 185.857 290.186 167.87 245.289 167.87C183.667 167.87 133.699 201.765 133.699 243.573C133.699 285.376 168.969 322.083 245.289 322.041C291.118 322.02 327.967 302.226 345.181 276.227L215.004 276.453L214.604 242.636L440.573 242.557C440.878 245.268 441.194 247.911 441.194 250.659C441.194 315.75 355.004 368.512 248.689 368.512C142.38 368.512 56.1953 315.75 56.1953 250.659C56.1953 185.568 147.497 130.81 248.689 130.415C332.916 130.094 404.513 164.895 430.623 211.741L345.728 211.794Z" fill="white"/>
</svg>
