<svg xmlns="http://www.w3.org/2000/svg" width="500" height="500" viewBox="0 0 500 500"><g fill="none"><path d="M0 0h500v500h-500z"/><path fill="#FFC62F" d="M252.336 338.886c-2.781 10.918-2.308 14.016-2.118 17.124-7.599-5.302-27.231-15.281-28.145-40.551-.425-11.693.515-22.181 2.704-29.664-.36.437-.782.935-1.195 1.423-25.15 30.264-53.845 28.223-80.1 30.922-3.888.399-18.475 3.343-22.317 4.176 9.355-10.005 25.543-24.709 36.11-31.924 20.428-13.943 55.933-28.486 55.933-28.486-16.056 8.836-29.038 23.163-29.038 23.163 9.99-6.762 44.875-26.908 44.875-26.908-9.31 8.866-35.839 32.243-51.572 42.648 20.019-9.437 36.955-21.673 46.082-30.303 11.417-10.785 28.562-21.191 36.318-25.196 3.803 3.747 9.306 7.179 14.228 9.205-13.167 9.27-21.95 14.552-25.703 27.085 0 0 9.634-12.363 23.52-19.935 2.609-1.423 5.436-3.178 8.337-5.172 3.122.737 9.897 1.358 13.214 1.358l.821-.346c-.537.409-1.87 1.172-2.425 1.574-26.533 19.463-50.814 24.575-53.059 64.165 0 0 3.355-25.798 23.767-38.878 11.564-7.407 32.301-17.26 46.191-31.426 10.641-4.867 17.335-13.192 20.799-24.768l.078-.36c3.437-.339 6.858-.779 10.451-1.097-.412 4.182-1.323 9.86-3.359 15.67-2.489 7.77-6.672 16.42-14.048 25.435-13.271 16.211-29.291 26.366-45.969 48.068-16.678 21.707-20.225 43.825-20.225 43.825-3.717-26.996 9.152-44.162 9.152-44.162-1.958 1.55-10.248 11.306-13.308 23.336zm-58.6-22.691c12.972-3.247 24.692-17.27 24.692-17.27-1.372 4.74-.349 19.219-.349 19.219s-5.063 1.998-11.235 1.998-13.618-3.896-13.618-3.896l.51-.05zm84.355 64.493c-2.925 7.85-4.945 15.125-5.698 17.958-8.701-5.216-22.054-12.175-26.949-19.803-6.566-10.234-6.5-23.635-6.5-23.635 3.25 2.872 11.586 7.536 19.22 11.769 6.232 3.46 16.404 11.039 19.926 13.711zm-16.292-16.832c.284-5.141 2.133-14.817 7.415-26.832 5.925-13.466 21.041-29.99 21.041-29.99 5.031 5.213 11.626 15.86 9.001 29.74-2.625 13.872-9.253 18.617-16.006 31.931-1.162 2.295-2.26 4.732-3.281 7.188-4.214-3.341-11.852-8.108-18.171-12.037zm-29.187-156.573l.336.086-.479.08c-6.85 1.209-13.96 2.879-19.976 4.44.268-2.386.589-4.781.972-7.129.12-.652.253-1.31.396-1.97 2.631.641 5.305 1.254 7.982 1.876 2.414.56 4.834 1.125 7.22 1.725l3.549.893zm134.413 17.105c3.519-2.34 15.822-1.404 19.923-.936 4.107.469 17.817 2.577 24.616 1.055 6.79-1.522 9.842-2.928 9.842-2.928s-1.641 12.416-14.767 13.354c-13.126.938-14.882-2.227-24.726-3.515 0 0 2.928-1.759 8.204-2.809 0 0-9.146-1.29-16.059.466-6.912 1.759-9.725 4.687-9.725 4.687s-.82-7.033 2.693-9.374zm-130.33-76.186s1.057-1.349 1.245-1.637c5.646-8.535 11.785-17.009 14.85-21.129 2.133-2.874 3.76-5.729 5.013-8.379 3.527-7.47 4.024-13.312 4.024-13.312 32.583 1.495 71.619 15.79 103.203 45.702 13.973 13.234 23.218 28.862 29.195 42.184-5.82-.946-17.916-2.373-31.552-2.463-15.29-.105-33.625 1.967-37.109 2.379l-.002-.016c-.055-.542-.128-1.076-.208-1.608l-.068-.466c-.065-.419-.146-.834-.226-1.248l.023-.005c-1.959-14.966-13.034-29.273-27.09-35.214-5.05-2.351-15.683-5.883-26.78-6.881-5.61-.641-11.637-.578-18.95.196-3.135.331-6.182.724-9.172 1.105-2.172.279-4.3.549-6.397.792zm41.281 277.731s-7.399-3.843-12.569-11.301c-4.053-5.849-4.414-13.033-4.38-15.875 5.214 3.004 11.189 5.974 14.68 8.14 3.836 2.377 6.949 4.729 9.261 6.696-3.678 6.519-6.992 12.34-6.992 12.34zm-21.345-185.109c-24.551 6.693-76.854 28.833-107.434 50.243-13.197 9.242-27.599 23.835-36.372 32.84-8.591 2.652-19.442 7.201-24.479 9.403 11.756-12.923 35.573-36.076 54.99-49.123 58.621-39.386 107.085-45.751 110.698-46.48l1.07.927c.485.751 1.002 1.475 1.528 2.191zm142.309 63.391c-15.119 9.961-24.725 33.708-24.725 33.708 3.881-26.353 20.822-44.761 20.822-44.761-12.657 7.382-21.874 21.503-26.768 52.968-5.591 35.991-15.91 49.8-15.91 49.8l1.076-3.648c4.334-19.446 3.631-28.586 7.147-52.022 3.516-23.432 13.829-37.728 13.829-37.728-12.891 9.023-19.83 28.315-22.265 56.358-2.688 30.925-10.094 41.871-10.094 41.871 4.508-15.453 2.594-32.613 3.292-44.096.705-11.485 1.213-27.1 7.654-41.863 6.448-14.763 21.413-29.021 37.119-36.167 15.699-7.149 28.231-3.629 28.231-3.629 8.276 7.76 8.787 15.931 8.787 15.931s-13.076 3.322-28.195 13.276zm-131.978 128.949c-1.552-5.224.784-7.212 2.109-8.93 0 0 3.469 3.059 7.057 4.885 0 0-1.963 5.323-3.479 10.13-2.351-1.23-4.735-2.881-5.686-6.084zm-2.06 30.219s1.2 2.173 2.489 3.922c1.597 2.16 1.256 4.211.109 5.508-1.148 1.303-2.99 1.49-4.312-.068-1.326-1.555-.375-6.774 1.714-9.362zm31.064-103.991c1.073 2.024 3.953 7.131 4.768 13.546 1.19 9.341-2.479 19.599-7.263 28.286-1.302 2.36-4.568 5.368-6.234 8.328-1.286-1.431-3.552-3.575-7.376-6.251-.795-.552-1.739-1.159-2.779-1.806 3.477-13.906 11.631-31.652 14.934-36.118 1.045-1.41 2.828-4.187 3.95-5.985zm-25.593 95.876c2.777 1.876 5.716 6.073 5.927 8.113.32 3.079-4.474 5.508-4.474 5.508s.669-3.377-2.826-5.961c-5.105-3.784-6.899-5.263-3.196-11.631 0 0 1.791 2.093 4.57 3.971zm12.452-30.451c4.24-7.631 10.289-15.78 10.289-15.78s3.704 11.499.609 21.105c-3.092 9.607-10.707 18.087-10.707 18.087s-3.555-4.985-6.334-6.858c-.245-.167-.516-.331-.797-.492 1.329-3.739 3.984-10.737 6.941-16.061zm-9.894 18.83c3.802 1.814 6.516 4.348 7.93 7.334 1.411 2.983.148 5.724-2.404 7.517 0 0-1.355-3.647-4.948-5.472-3.591-1.826-6.974-3.395-7.813-7.03-.836-3.632 1.437-6.697 1.437-6.697s2 2.533 5.798 4.349z"/><path fill="#FFFFFE" d="M254.927 207.756c-11.42-3.452-27.833-6.538-42.412-10.678-29.434-8.244-49.646-25.988-60.069-52.741-6.857-17.588-7.009-33.529-6.932-37.361.006-.549-.026-1.577-.023-1.93.161-12.329 1.818-23.747 3.216-31.96l.164-1.001.023 1.756c-.045 8.535.542 16.047.748 18.382l.016.23c.032.341.266-1.753.422-2.803.571-3.804 1.224-7.574 1.601-11.404.38-3.812 1.242-8.366 1.406-12.192.067-1.47.131-2.949.089-4.421.424.252.596 1.68.683 2.085.339 1.59 1.065 14.098 1.281 18.38.088 1.71.119 3.421.14 5.13.01.854.036 1.693.172 2.538.029.224.102.467.154.708.041.198.672-5.573 1.143-8.614.398-2.558 1.037-5.153 1.018-7.762 0-.227-.07-.51-.031-.734.067-.385.623 1.277.907 4.33.195 3.45.343 7.029.742 10.402l.307 2.668c2.789 24.492 17.467 46.807 37.302 56.801 16.007 8.974 30.947 7.059 46.766 5.032 2.951-.38 5.961-.766 9.053-1.092 6.925-.732 12.589-.795 17.873-.196 11.655 1.052 22.431 5.021 25.975 6.86 11.827 5.312 21.101 17.355 23.036 30.019l.008.339c.502 2.301.761 4.685.761 7.137l-.003.089c-.08-.466-.122-.92-.226-1.397-.058 4.103-.891 8.015-2.336 11.616 1.179-3.648 1.568-7.919.495-12.9-.062 4.666-1.14 9.068-2.989 13.052 1.107-3.57 1.56-7.4 1.198-11.347-.724-7.991-4.607-14.94-10.31-19.795 4.568 4.883 6.779 12.626 7.44 19.867 1.528 16.968-12.043 28.09-26.6 30.6l-.304.075c1.25.222 6.102.889 10.939-.651 2.146-.151 4.997-.633 7.889-2.032 1.071-.518 2.424-1.292 3.876-2.306-6.042 5.583-14.1 9.02-22.975 9.02-11.72 0-22.028-5.957-28.104-15.003 8.451 1.058 16.731 2.738 16.731 2.738-7.621-5.876-20.251-9.576-20.251-9.576l-.013.041zm-5.146-87.971c-3.966 6.094-9.823 14.38-14.397 20.824-5.519-4.145-14.732-12.36-18.972-23.565-6.552-17.321-4.349-33.844-5.49-43.09-.331-2.658-.75-5.909-1.273-9.369 1.448 4.779 3.352 11.621 3.86 16.003 0 0-.424-12.446-2.143-20.172 0 0 4.289 12.019 5.151 18.883 0 0 .562-6.649-.067-13.752.813 2.726 1.534 5.594 2.073 8.614 3.378 18.75 8.931 31.838 31.257 45.623z"/><path fill="#E9BF9B" d="M386.079 242.923c1.179 1.409 3.282 4.451 3.399 5.508.015.131.002.417-.023.805v.002l-.024.278-.005.045c-.148 1.62-.927 9.159-2.665 11.261-.256.419-.545.823-.909 1.188-1.995 1.866-5.485 3.64-12.076 8.21-7.266 5.042-13.008 15.35-13.008 15.35s2.065-9.74 6.557-15.307c5.566-6.895 12.819-11.452 17.295-13.833l2.011-8.984c-1.541-1.029-3.479-2.082-5.354-2.418-3.891-.685-10.448-.596-14.462-1.905l.049-.081c4.805-.586 7.618-1.991 14.764-3.166 7.147-1.17 12.657.94 12.657.94-4.807.235-8.206 2.108-8.206 2.108zm23.247-3.869s2.987 6.827 2.844 11.806c-.14 4.977 1.419 8.39 3.269 9.812 1.852 1.42 3.701 1.706 4.839 2.564 1.144.85 1.144 3.411.573 5.542-.573 2.132-2.136 2.418-3.842 1.991-1.591-.394-9.914-1.522-18.95.138-.479-1.672-1.307-5.495.493-7.389 2.346-2.452 6.915-2.222 8.67-1.87 0 0-3.743-1.758-7.027-1.758-3.282 0-5.98 2.228-6.917 4.687-.695 1.829-.096 5.592.256 7.411-9.823 2.892-23.89 10.563-35.43 25.38-12.521 16.068-15.355 36.126-15.355 36.126s-13.206 2.6-20.041-7.549c-9.167-13.611-5.721-29.573-5.721-29.573s-5.428 2.561-9.724 1.441c-1.506-.393-2.575-1.384-3.333-2.558 7.146-6.35 14.749-12.314 22.291-20.944 3.906.868 7.417 1.809 9.332 2.395 4.222 1.287 8.62 4.856 9.79 8.72 1.174 3.869 1.755 16.991 1.755 16.991 2.373-9.127 2.753-13.732 2.984-16.316.24-2.575-.031-9.09-4.977-13.601-2.669-2.434-10.228-4.695-13.225-6.357 11.443-15.755 14.587-39.896 14.587-39.896l-.01-.686c1.166-.127 1.928-.248 1.959-.368 2.11-.122 9.6-1.035 11.678-1.073 0 0-3.131 9.24-.427 16.068 0 0 6.972-4.692 16.933-3.981 9.957.714 25.895 5.547 32.724 2.846zm-94.39 87.901c4.734 6.946 11.082 12.853 21.278 12.853 1.476 0 3.227-.026 5.133-.075-.838 5.282-1.25 10.975-1.454 15.107-2.213.737-4.18 1.449-5.745 2.106-9.904 4.135-28.336 13.901-28.336 13.901l-.628.378c-1.518-10.505-4.945-19.135-4.945-19.135s6.613-17.196 4.139-27.768c-3.251-13.887-8.571-21.272-8.571-21.272.584-.622 1.169-1.207 1.756-1.803 3.487 4.745 9.391 4.881 9.391 4.881s3.256 13.888 7.982 20.826zm101.177 12.632c5.024.149 9.646-.222 9.646-.222-1.476 1.181-5.466 1.035-7.683 1.331-2.216.295-15.954.738-32.656 3.252-3.024.451-6.324 1.042-9.745 1.714 1.062-2.869 2.049-4.922 3.274-6.847l.149-.002c12.264 0 31.987.63 37.015.774zm5.883-20.3c3.513 1.407 5.506 2.692 6.795 9.958 1.289 7.265-2.813 7.029-4.805 6.917-1.99-.118-7.782-.156-16.691-1.212-8.907-1.052-24.817-1.465-24.817-1.465 7.605-21.04 34.125-32.471 34.125-32.471.471 6.089-4.102 17.222-4.102 17.222s5.977-.354 9.495 1.053z"/><path fill="#4F2683" d="M396.872 196.858c-4.201-.782-17.584-2.803-34.198-2.915-15.098-.102-33.305 1.785-36.896 2.184l-.003.063c-.021 22.454-19.353 38.481-37.357 38.748-27.19.406-37.2-21.503-37.407-22.796-1.938-.565-4.008-1.129-6.154-1.704-3.612.441-7.474.995-11.527 1.71-7.492 1.319-15.231 3.166-21.53 4.805-.3 3.325-.781 8.674-.8 9.13-.896 18.906.295 17.587.295 17.587 5.484-2.144 25.71-7.33 25.71-7.33 5.923-1.378 12.957-2.858 21.192-4.378 5.79 11.667 17.814 19.688 31.723 19.688 17.368 0 31.801-12.502 34.823-28.987 37.959-4.12 55.902-4.237 79.344-1.12-2.459-13.061-7.214-24.687-7.214-24.687"/><path fill="#000" d="M394.28 240.818s-5.503-2.11-12.646-.941c-7.159 1.168-9.967 2.58-14.772 3.165l-.049.081c4.01 1.314 10.569 1.217 14.464 1.899 1.881.341 3.816 1.396 5.357 2.418l-2.013 8.991c-4.48 2.386-11.737 6.931-17.29 13.828-.422.518-.828 1.087-1.2 1.686-.179.243-.341.503-.487.779-.213.341-.406.682-.584 1.022-.227.406-.44.828-.649 1.266-.211.422-.406.844-.584 1.266-.795 1.783-1.429 3.57-1.899 5.081l-.162.518c-.357 1.183-.615 2.158-.779 2.824l-.065.258-.049.196-.065.308-.016.083c.097-.164.601-1.073 1.446-2.387l.614-.941c1.623-2.434 4.092-5.81 7.031-8.698.406-.406.826-.811 1.25-1.185.86-.764 1.735-1.477 2.646-2.11 6.591-4.576 10.081-6.345 12.076-8.21.359-.375.651-.781.911-1.186 1.737-2.111 2.516-9.656 2.664-11.262v-.049l.031-.276c.016-.276.016-.503.016-.649v-.162c-.114-1.055-2.224-4.106-3.393-5.501 0 0 3.393-1.882 8.198-2.11zm0 0s-5.503-2.11-12.646-.941c-7.159 1.168-9.967 2.58-14.772 3.165l-.049.081c4.01 1.314 10.569 1.217 14.464 1.899 1.881.341 3.816 1.396 5.357 2.418l-2.013 8.991c-4.48 2.386-11.737 6.931-17.29 13.828-.422.518-.828 1.087-1.2 1.686-.179.243-.341.503-.487.779-.213.341-.406.682-.584 1.022-.227.406-.44.828-.649 1.266-.211.422-.406.844-.584 1.266-.795 1.783-1.429 3.57-1.899 5.081l-.162.518c-.357 1.183-.615 2.158-.779 2.824l-.065.258-.049.196-.065.308-.016.083c.097-.164.601-1.073 1.446-2.387l.614-.941c1.623-2.434 4.092-5.81 7.031-8.698.406-.406.826-.811 1.25-1.185.86-.764 1.735-1.477 2.646-2.11 6.591-4.576 10.081-6.345 12.076-8.21.359-.375.651-.781.911-1.186 1.737-2.111 2.516-9.656 2.664-11.262v-.049l.031-.276c.016-.276.016-.503.016-.649v-.162c-.114-1.055-2.224-4.106-3.393-5.501 0 0 3.393-1.882 8.198-2.11zm0 0s-5.503-2.11-12.646-.941c-7.159 1.168-9.967 2.58-14.772 3.165l-.049.081c4.01 1.314 10.569 1.217 14.464 1.899 1.881.341 3.816 1.396 5.357 2.418l-2.013 8.991c-4.48 2.386-11.737 6.931-17.29 13.828-.422.518-.828 1.087-1.2 1.686-.179.243-.341.503-.487.779-.213.341-.406.682-.584 1.022-.227.406-.44.828-.649 1.266-.211.422-.406.844-.584 1.266-.795 1.783-1.429 3.57-1.899 5.081l-.162.518c-.357 1.183-.615 2.158-.779 2.824l-.065.258-.049.196-.065.308-.016.083c.097-.164.601-1.073 1.446-2.387l.614-.941c1.623-2.434 4.092-5.81 7.031-8.698.406-.406.826-.811 1.25-1.185.86-.764 1.735-1.477 2.646-2.11 6.591-4.576 10.081-6.345 12.076-8.21.359-.375.651-.781.911-1.186 1.737-2.111 2.516-9.656 2.664-11.262v-.049l.031-.276c.016-.276.016-.503.016-.649v-.162c-.114-1.055-2.224-4.106-3.393-5.501 0 0 3.393-1.882 8.198-2.11zm0 0s-5.503-2.11-12.646-.941c-7.159 1.168-9.967 2.58-14.772 3.165l-.049.081c4.01 1.314 10.569 1.217 14.464 1.899 1.881.341 3.816 1.396 5.357 2.418l-2.013 8.991c-4.48 2.386-11.737 6.931-17.29 13.828-.422.518-.828 1.087-1.2 1.686-.179.243-.341.503-.487.779-.213.341-.406.682-.584 1.022-.227.406-.44.828-.649 1.266-.211.422-.406.844-.584 1.266-.795 1.783-1.429 3.57-1.899 5.081l-.162.518c-.357 1.183-.615 2.158-.779 2.824l-.065.258-.049.196-.065.308-.016.083c.097-.164.601-1.073 1.446-2.387l.614-.941c1.623-2.434 4.092-5.81 7.031-8.698.406-.406.826-.811 1.25-1.185.86-.764 1.735-1.477 2.646-2.11 6.591-4.576 10.081-6.345 12.076-8.21.359-.375.651-.781.911-1.186 1.737-2.111 2.516-9.656 2.664-11.262v-.049l.031-.276c.016-.276.016-.503.016-.649v-.162c-.114-1.055-2.224-4.106-3.393-5.501 0 0 3.393-1.882 8.198-2.11zm-12.646-.941c-7.159 1.168-9.967 2.58-14.772 3.165l-.049.081c4.01 1.314 10.569 1.217 14.464 1.899 1.881.341 3.816 1.396 5.357 2.418l-2.013 8.991c-4.48 2.386-11.737 6.931-17.29 13.828-.422.518-.828 1.087-1.2 1.686-.179.243-.341.503-.487.779-.213.341-.406.682-.584 1.022-.227.406-.44.828-.649 1.266-.211.422-.406.844-.584 1.266-.795 1.783-1.429 3.57-1.899 5.081l-.162.518c-.357 1.183-.615 2.158-.779 2.824l-.065.258-.049.196-.065.308-.016.083c.097-.164.601-1.073 1.446-2.387l.614-.941c1.623-2.434 4.092-5.81 7.031-8.698.406-.406.826-.811 1.25-1.185.86-.764 1.735-1.477 2.646-2.11 6.591-4.576 10.081-6.345 12.076-8.21.359-.375.651-.781.911-1.186 1.737-2.111 2.516-9.656 2.664-11.262v-.049l.031-.276c.016-.276.016-.503.016-.649v-.162c-.114-1.055-2.224-4.106-3.393-5.501 0 0 3.393-1.882 8.198-2.11 0 0-5.503-2.11-12.646-.941zm42.352 96.283c-1.997-.114-7.774-.146-16.688-1.217-8.912-1.04-24.822-1.461-24.822-1.461 7.599-21.03 34.124-32.473 34.124-32.473.471 6.086-4.092 17.217-4.092 17.217s5.975-.339 9.482 1.056c3.523 1.412 5.519 2.694 6.803 9.964 1.281 7.27-2.81 7.027-4.807 6.913zm-5.909 4.528c-2.224.31-15.957.747-32.661 3.262-3.019.454-6.316 1.039-9.74 1.704 1.055-2.856 2.045-4.917 3.277-6.831l.146-.018c12.258 0 31.981.633 37.013.777 5.016.146 9.641-.226 9.641-.226-1.477 1.183-5.453 1.037-7.677 1.331zm-49.805 5.438c-5.599 35.993-15.907 49.803-15.907 49.803l1.073-3.651c4.334-19.442 3.635-28.578 7.141-52.014 3.523-23.432 13.832-37.731 13.832-37.731-12.891 9.025-19.838 28.322-22.273 56.363-2.597 29.941-9.626 41.171-10.063 41.837 4.479-15.435 2.563-32.587 3.277-44.058.698-11.49 1.201-27.103 7.646-41.871s21.413-29.016 37.125-36.173c15.697-7.14 28.229-3.619 28.229-3.619 8.263 7.757 8.782 15.92 8.782 15.92s-13.068 3.327-28.197 13.291c-15.115 9.946-24.725 33.706-24.725 33.706 3.881-26.355 20.829-44.774 20.829-44.774-12.662 7.384-21.882 21.503-26.77 52.971zm-28.374 8.713c-2.224.73-4.188 1.444-5.747 2.111-9.902 4.135-28.343 13.906-28.343 13.906l-.633.372c-1.51-10.514-4.935-19.132-4.935-19.132s6.605-17.202 4.139-27.767c-3.247-13.891-8.569-21.275-8.569-21.275.583-.633 1.166-1.217 1.752-1.801 3.49 4.739 9.383 4.885 9.383 4.885s3.263 13.875 7.987 20.821c4.74 6.944 11.087 12.853 21.28 12.853 1.477 0 3.232-.031 5.13-.083-.826 5.292-1.248 10.972-1.443 15.11zm-46.428 46.381c-1.297 2.369-4.576 5.372-6.234 8.325-1.281-1.428-3.553-3.57-7.368-6.248-.795-.553-1.753-1.152-2.792-1.801 3.49-13.908 11.639-31.645 14.934-36.124 1.054-1.412 2.841-4.187 3.961-5.972 1.071 2.014 3.945 7.124 4.756 13.534 1.201 9.348-2.467 19.604-7.258 28.286zm.245 28.919c-3.086 9.607-10.698 18.096-10.698 18.096s-3.555-4.984-6.333-6.866c-.242-.161-.518-.325-.794-.488 1.315-3.747 3.977-10.742 6.933-16.064 4.235-7.627 10.29-15.774 10.29-15.774s3.701 11.49.601 21.097zm-15.261 28.351s-1.346-3.634-4.949-5.469c-3.589-1.816-6.966-3.392-7.808-7.027-.844-3.635 1.429-6.702 1.429-6.702s2.013 2.548 5.811 4.351c3.8 1.816 6.511 4.348 7.922 7.334 1.412 2.986.146 5.727-2.404 7.514zm-6.621 10.402s.664-3.376-2.841-5.956c-5.097-3.799-6.899-5.274-3.182-11.637 0 0 1.786 2.095 4.561 3.963 2.776 1.881 5.714 6.086 5.925 8.114.325 3.082-4.464 5.516-4.464 5.516zm-4.336 3.927c-1.151 1.298-2.987 1.493-4.316-.065-1.315-1.558-.372-6.783 1.721-9.364 0 0 1.201 2.175 2.484 3.913 1.607 2.158 1.266 4.218.112 5.516zm8.621-43.705s-1.946 5.326-3.474 10.128c-2.354-1.217-4.724-2.872-5.682-6.071-1.558-5.222.779-7.22 2.11-8.94 0 0 3.458 3.067 7.045 4.883zm-15.097-30.362c5.211 3.002 11.199 5.972 14.691 8.147 3.831 2.369 6.948 4.722 9.253 6.686-3.67 6.525-6.996 12.35-6.996 12.35s-7.386-3.848-12.564-11.311c-4.058-5.842-4.417-13.031-4.383-15.871zm-15.584-19.912c-6.558-10.224-6.493-23.629-6.493-23.629 3.247 2.872 11.59 7.53 19.218 11.766 6.235 3.457 16.397 11.035 19.92 13.713-2.922 7.853-4.935 15.125-5.698 17.949-8.686-5.209-22.045-12.171-26.947-19.799zm53.813-42.064c-2.614 13.875-9.251 18.614-16.006 31.921-1.154 2.304-2.256 4.739-3.279 7.191-4.204-3.345-11.85-8.1-18.166-12.027.276-5.144 2.128-14.817 7.42-26.843 5.925-13.452 21.038-29.988 21.038-29.988 5.032 5.209 11.623 15.871 8.993 29.747zm-77.172-21.324c-.438-11.684.503-22.168 2.695-29.665-.357.44-.779.941-1.185 1.428-25.161 30.266-53.845 28.223-80.11 30.931-3.88.391-18.473 3.343-22.32 4.171 9.366-10.013 25.551-24.716 36.119-31.921 19.788-13.5 53.715-27.588 55.826-28.448-16.006 8.862-28.927 23.125-28.927 23.125 9.675-6.555 42.725-25.657 44.771-26.84-9.383 8.94-35.794 32.195-51.475 42.582 20.015-9.445 36.963-21.683 46.086-30.315 11.412-10.776 28.554-21.178 36.313-25.186 3.799 3.749 9.318 7.173 14.236 9.201-13.165 9.266-21.947 14.557-25.713 27.085 0 0 9.642-12.366 23.522-19.945 2.612-1.412 5.438-3.163 8.345-5.161 3.115.729 9.901 1.363 13.21 1.363l.812-.359c-.534.406-1.865 1.17-2.417 1.576-26.491 19.443-50.745 24.554-53.05 64.005.341-2.223 4.302-26.258 23.765-38.721 11.558-7.4 32.289-17.252 46.183-31.418 10.633-4.869 17.337-13.194 20.795-24.764l.081-.357c3.441-.341 6.867-.779 10.454-1.104-.406 4.187-1.331 9.867-3.36 15.66-2.484 7.773-6.672 16.423-14.043 25.448-13.277 16.211-29.299 26.353-45.97 48.067-16.688 21.697-20.226 43.817-20.226 43.817-3.622-26.258 8.457-43.216 9.123-44.125-2.013 1.608-10.243 11.345-13.28 23.304-2.774 10.922-2.305 14.021-2.125 17.123-7.597-5.308-27.223-15.273-28.132-40.556zm-3.993 2.694s-5.065 1.996-11.233 1.996c-6.185 0-13.62-3.893-13.62-3.893l.503-.052c12.97-3.246 24.691-17.264 24.691-17.264-1.364 4.739-.341 19.213-.341 19.213zm-105.255 5.759c-8.587 2.647-19.447 7.209-24.479 9.398 11.753-12.919 35.567-36.076 54.981-49.123 58.618-39.386 107.09-45.748 110.71-46.478l1.057.925c.484.763 1.005 1.477 1.524 2.191-24.544 6.702-76.847 28.838-107.43 50.243-13.197 9.25-27.596 23.839-36.362 32.845zm39.609-179.565c-6.85-17.592-6.996-33.528-6.932-37.358.016-.552-.016-1.59-.016-1.931.162-12.334 1.818-23.758 3.214-31.97.065-.325.114-.665.162-.99l.032 1.753c-.049 8.536.536 16.05.747 18.387l.016.227c.032.341.26-1.753.422-2.808.568-3.797 1.217-7.579 1.591-11.409.39-3.814 1.25-8.358 1.412-12.188.065-1.477.13-2.954.081-4.414.438.243.601 1.672.698 2.077.325 1.59 1.055 14.102 1.266 18.387.097 1.704.13 3.408.146 5.128.016.844.032 1.688.179 2.532.016.227.097.471.146.714.065 0 .666-5.631 1.136-8.617.406-2.564 1.039-5.161 1.023-7.757 0-.227-.065-.519-.032-.73.065-.389.633 1.266.909 4.317.195 3.457.341 7.027.747 10.402l.308 2.678c2.792 24.489 17.467 46.803 37.304 56.799 16.006 8.974 30.94 7.059 46.767 5.031 2.938-.373 5.958-.763 9.042-1.087 6.932-.73 12.597-.795 17.873-.211 11.655 1.055 22.434 5.031 25.973 6.865 11.832 5.307 21.103 17.364 23.049 30.022v.341c.505 2.304.765 4.69.765 7.14v.081c-.083-.471-.13-.909-.229-1.396-.063 4.106-.89 8.017-2.336 11.62 1.169-3.651 1.558-7.919.487-12.902-.049 4.674-1.136 9.072-2.987 13.048 1.105-3.57 1.558-7.4 1.2-11.344-.729-7.984-4.61-14.93-10.306-19.799 4.561 4.885 6.784 12.626 7.435 19.88 1.526 16.959-12.045 28.075-26.59 30.59l-.31.081c1.252.211 6.105.893 10.943-.649 2.143-.162 5-.633 7.889-2.045 1.071-.503 2.417-1.282 3.88-2.304-6.039 5.583-14.107 9.023-22.988 9.023-11.719 0-22.027-5.956-28.098-14.995 8.457 1.055 16.735 2.726 16.735 2.726-7.628-5.875-20.257-9.575-20.257-9.575v.049c-11.428-3.457-27.84-6.54-42.417-10.678-29.431-8.244-49.641-25.998-60.079-52.742zm63.975-27.296c-6.558-17.316-4.35-33.836-5.487-43.086-.341-2.661-.763-5.907-1.282-9.38 1.461 4.787 3.36 11.636 3.863 16.017 0 0-.422-12.415-2.127-20.139.243.714 4.302 12.188 5.13 18.841 0 0 .568-6.654-.065-13.745.812 2.726 1.542 5.599 2.078 8.617 3.376 18.744 8.928 31.84 31.265 45.618-3.977 6.086-9.837 14.378-14.399 20.821-5.519-4.138-14.74-12.35-18.976-23.564zm41.394.016c3.523-7.465 4.026-13.323 4.026-13.323 32.578 1.509 71.62 15.79 103.192 45.715 13.98 13.226 23.231 28.854 29.205 42.178-5.828-.941-17.921-2.369-31.557-2.467-15.292-.097-33.619 1.964-37.109 2.386v-.016c-.065-.536-.128-1.071-.211-1.607l-.065-.471c-.065-.422-.146-.828-.227-1.25h.016c-1.948-14.963-13.034-29.276-27.077-35.216-5.048-2.353-15.681-5.891-26.785-6.881-5.618-.649-11.639-.584-18.944.195-3.149.325-6.185.73-9.172 1.104-2.175.276-4.302.552-6.412.795 0 0 1.071-1.347 1.25-1.639 5.649-8.536 11.785-17.007 14.855-21.129 2.123-2.872 3.764-5.729 5.014-8.374zm-45.307 94.822c.26-2.386.584-4.771.958-7.124.13-.649.26-1.314.406-1.964 2.63.633 5.308 1.25 7.987 1.866 2.402.568 4.821 1.136 7.207 1.736 1.201.292 2.386.584 3.555.893l.341.081-.487.081c-6.85 1.201-13.96 2.872-19.967 4.43zm191.583 9.656c-23.441-3.116-41.378-3.002-79.347 1.12-3.019 16.488-17.451 29-34.82 29-13.913 0-25.924-8.033-31.719-19.701-8.23 1.525-15.275 3.002-21.2 4.382 0 0-20.226 5.193-25.697 7.335 0 0-1.201 1.314-.308-17.592.032-.454.503-5.81.812-9.12 6.298-1.639 14.042-3.489 21.525-4.82 4.058-.714 7.922-1.266 11.525-1.704 2.143.568 4.221 1.136 6.152 1.704.211 1.298 10.227 23.207 37.417 22.801 18.002-.276 37.336-16.293 37.352-38.753v-.065c3.589-.389 21.799-2.288 36.898-2.175 16.623.114 30 2.126 34.203 2.905 0 0 4.756 11.636 7.207 24.683zm7.482 2.97c6.787-1.525 9.839-2.921 9.839-2.921s-1.64 12.415-14.772 13.34c-13.116.941-14.869-2.223-24.723-3.505 0 0 2.938-1.769 8.214-2.808 0 0-9.155-1.298-16.071.454-6.899 1.769-9.724 4.69-9.724 4.69s-.812-7.027 2.695-9.364c3.523-2.353 15.827-1.412 19.916-.941 4.11.471 17.826 2.58 24.626 1.055zm3.881 36.158c1.851 1.425 3.701 1.719 4.837 2.564 1.136.858 1.136 3.423.568 5.55-.568 2.124-2.143 2.416-3.847 1.994-1.591-.406-9.904-1.525-18.944.13-.487-1.672-1.315-5.485.487-7.384 2.338-2.434 6.836-2.223 8.62-1.882-.422-.195-3.896-1.753-6.982-1.753-3.277 0-5.972 2.24-6.914 4.692-.698 1.832-.097 5.597.26 7.415-9.821 2.889-23.895 10.565-35.437 25.381-12.516 16.066-15.339 36.123-15.339 36.123s-13.215 2.598-20.049-7.545c-9.17-13.616-5.716-29.583-5.716-29.583s-5.436 2.564-9.724 1.443c-1.508-.389-2.581-1.379-3.341-2.564 7.157-6.345 14.754-12.301 22.303-20.933 3.894.858 7.401 1.8 9.318 2.4 4.221 1.282 8.62 4.851 9.805 8.715 1.169 3.862 1.753 16.991 1.753 16.991 2.368-9.137 2.743-13.729 2.971-16.326.243-2.564-.032-9.088-4.967-13.599-2.68-2.434-10.227-4.69-13.232-6.347 11.446-15.756 14.595-39.904 14.595-39.904-.016-.227-.016-.454-.016-.682 1.17-.13 1.93-.243 1.964-.373 2.11-.114 9.594-1.039 11.672-1.071 0 0-3.131 9.234-.422 16.066 0 0 6.964-4.69 16.931-3.976 9.951.714 25.89 5.55 32.726 2.84 0 0 2.987 6.832 2.841 11.814-.13 4.966 1.427 8.388 3.279 9.804zm17.481 64.036c-.648-3.976-4.641-7.53-6.638-7.97-1.997-.437-7.094-1.767-7.094-1.767 3.766-10.628 3.766-17.283 3.766-17.283 3.328-1.771 9.965-4.429 9.965-4.429-2.206-11.751-10.193-20.839-10.193-20.839.666-2.434 2.222-6.637 2.222-8.195 0-1.558-2.888-4.203-5.988-6.199-3.101-1.996-3.539-5.534-3.539-9.753 0-4.203-1.769-9.526-2.435-9.753-.666-.211 7.904-2.921 10.568-10.467 2.662-7.53 2.727-13.648 2.727-13.648-3.539 5.161-17.402 7.287-17.402 7.287-1.104-11.749-10.534-49.643-48.651-83.982-38.115-34.339-103.064-40.555-103.064-40.555.097 1.915-.146 4.187-.714 6.686-.536 3.229-1.477 7.043-3.117 10.127-.097.179-.227.406-.357.617-8.961-4.852-18.376-11.376-22.694-19.003-8.36-14.768-7.321-27.475-11.753-37.893-7.256-17.056-17.727-26.322-20.843-29.033-1.786-1.558-2.386-2.077-3.312-1.331-.909.73-.308 1.785.438 2.889.698 1.039 7.224 13.616 9.659 30.688 2.435 17.056-.795 43.979 7.191 61.262 4.967 10.759 13.181 19.279 18.684 24.18.195.162.39.341.568.503l1.786 1.769c-11.396 1.071-21.996.665-33.262-5.664-18.116-9.12-32.012-30.331-34.56-52.775l-.308-2.694c-.714-6.151-.422-12.301-.698-18.468-.243-5.599-.86-11.181-1.834-16.699-.422-2.434-.925-4.836-1.51-7.238l-.016-.081c-.243-1.461-.666-2.905-1.088-4.333-.276-.941-.584-1.882-.893-2.84-.714-2.093-1.64-4.106-2.825-6.021-1.429-2.304-3.003-4.544-4.837-6.54-1.088-1.185-2.256-2.304-3.571-3.229 0 0-1.217-.763-2.045-.325 0 0-1.088.763.065 3.132 0 0 .292.471.633 1.282.195.454.406 1.022.601 1.672.179.584.325 1.217.438 1.899.909 4.869 1.558 15.352-2.289 35.362l-.032.065c-.341 2.905-.714 5.81-1.217 8.698-1.591 9.364-3.133 19.993-3.393 31.029 0 .487.065 1.915.049 2.207-.114 9.818 1.769 74.18 68.341 94.449-.308 1.379-.601 2.71-.812 3.992-4.497 28.383-2.841 40.344-2.841 40.344l.032.292c-13.62 5.128-29.025 12.041-45.258 21.324-18.165 9.948-37.872 23.482-57.157 41.95-3.62 3.489-7.013 6.913-10.227 10.321-.779.811-1.558 1.639-2.338 2.468l-.146.161c-10.178 10.954-17.856 21.048-23.424 29.26 30.08-21.712 77.075-28.221 91.441-29.067 15.064-.875 30.323-3.453 30.323-3.453s5.958 3.179 13.068 4.737c8.068 1.785 16.509-.779 16.509-.779 3.036 15.612 14.009 25.641 16.882 27.895-.747 4.692.016 20.173 5.292 28.775 5.682 9.266 15.064 15.514 15.064 15.514s-.649 8.39 1.558 14.395c2.208 6.004 7.337 11.473 7.337 11.473s-2.338 3.927-2.646 8.861c-.308 4.933 2.646 7.674 2.646 7.674s-2.678 3.442-3.133 6.12c-.44 2.694 1.217 6.733 1.217 6.733s-1.623 2.955-2.094 5.227c-.487 2.288.877 5.097.877 5.097-1.088 2.124-4.316 12.105.438 16.113 4.74 4.008 10.649-3.473 10.649-3.473 1.818-.536 5.242-2.791 6.865-5.323 1.998-3.1 1.998-5.988 1.998-5.988s2.549-1.657 4.755-5.875c1.821-3.424 1.56-5.68 1.56-5.68s10.308-10.824 12.451-24.343c1.833-11.522-.878-22.153-.878-22.153s7.745-11.78 7.388-25.25c5.276-3.685 18.002-11.944 33.846-18.109.455 9.086 1.883 16.957-.958 31.563-3.555 18.176-19.739 31.468-19.739 31.468 22.611-2.434 37.693-22.381 43.667-36.79 4.886-11.751 9.334-28.369 11.396-35.899 22.059-4.284 42.206-5.42 48.894-6.425 8.863-1.332 11.087-3.312 11.298-6.637.227-3.328-.666-9.317-1.333-13.309zm-38.649-83.884s-5.503-2.11-12.646-.941c-7.159 1.168-9.967 2.58-14.772 3.165l-.049.081c4.01 1.314 10.569 1.217 14.464 1.899 1.881.341 3.816 1.396 5.357 2.418l-2.013 8.991c-4.48 2.386-11.737 6.931-17.29 13.828-.422.518-.828 1.087-1.2 1.686-.179.243-.341.503-.487.779-.213.341-.406.682-.584 1.022-.227.406-.44.828-.649 1.266-.211.422-.406.844-.584 1.266-.795 1.783-1.429 3.57-1.899 5.081l-.162.518c-.357 1.183-.615 2.158-.779 2.824l-.065.258-.049.196-.065.308-.016.083c.097-.164.601-1.073 1.446-2.387l.614-.941c1.623-2.434 4.092-5.81 7.031-8.698.406-.406.826-.811 1.25-1.185.86-.764 1.735-1.477 2.646-2.11 6.591-4.576 10.081-6.345 12.076-8.21.359-.375.651-.781.911-1.186 1.737-2.111 2.516-9.656 2.664-11.262v-.049l.031-.276c.016-.276.016-.503.016-.649v-.162c-.114-1.055-2.224-4.106-3.393-5.501 0 0 3.393-1.882 8.198-2.11zm0 0s-5.503-2.11-12.646-.941c-7.159 1.168-9.967 2.58-14.772 3.165l-.049.081c4.01 1.314 10.569 1.217 14.464 1.899 1.881.341 3.816 1.396 5.357 2.418l-2.013 8.991c-4.48 2.386-11.737 6.931-17.29 13.828-.422.518-.828 1.087-1.2 1.686-.179.243-.341.503-.487.779-.213.341-.406.682-.584 1.022-.227.406-.44.828-.649 1.266-.211.422-.406.844-.584 1.266-.795 1.783-1.429 3.57-1.899 5.081l-.162.518c-.357 1.183-.615 2.158-.779 2.824l-.065.258-.049.196-.065.308-.016.083c.097-.164.601-1.073 1.446-2.387l.614-.941c1.623-2.434 4.092-5.81 7.031-8.698.406-.406.826-.811 1.25-1.185.86-.764 1.735-1.477 2.646-2.11 6.591-4.576 10.081-6.345 12.076-8.21.359-.375.651-.781.911-1.186 1.737-2.111 2.516-9.656 2.664-11.262v-.049l.031-.276c.016-.276.016-.503.016-.649v-.162c-.114-1.055-2.224-4.106-3.393-5.501 0 0 3.393-1.882 8.198-2.11zm0 0s-5.503-2.11-12.646-.941c-7.159 1.168-9.967 2.58-14.772 3.165l-.049.081c4.01 1.314 10.569 1.217 14.464 1.899 1.881.341 3.816 1.396 5.357 2.418l-2.013 8.991c-4.48 2.386-11.737 6.931-17.29 13.828-.422.518-.828 1.087-1.2 1.686-.179.243-.341.503-.487.779-.213.341-.406.682-.584 1.022-.227.406-.44.828-.649 1.266-.211.422-.406.844-.584 1.266-.795 1.783-1.429 3.57-1.899 5.081l-.162.518c-.357 1.183-.615 2.158-.779 2.824l-.065.258-.049.196-.065.308-.016.083c.097-.164.601-1.073 1.446-2.387l.614-.941c1.623-2.434 4.092-5.81 7.031-8.698.406-.406.826-.811 1.25-1.185.86-.764 1.735-1.477 2.646-2.11 6.591-4.576 10.081-6.345 12.076-8.21.359-.375.651-.781.911-1.186 1.737-2.111 2.516-9.656 2.664-11.262v-.049l.031-.276c.016-.276.016-.503.016-.649v-.162c-.114-1.055-2.224-4.106-3.393-5.501 0 0 3.393-1.882 8.198-2.11zm0 0s-5.503-2.11-12.646-.941c-7.159 1.168-9.967 2.58-14.772 3.165l-.049.081c4.01 1.314 10.569 1.217 14.464 1.899 1.881.341 3.816 1.396 5.357 2.418l-2.013 8.991c-4.48 2.386-11.737 6.931-17.29 13.828-.422.518-.828 1.087-1.2 1.686-.179.243-.341.503-.487.779-.213.341-.406.682-.584 1.022-.227.406-.44.828-.649 1.266-.211.422-.406.844-.584 1.266-.795 1.783-1.429 3.57-1.899 5.081l-.162.518c-.357 1.183-.615 2.158-.779 2.824l-.065.258-.049.196-.065.308-.016.083c.097-.164.601-1.073 1.446-2.387l.614-.941c1.623-2.434 4.092-5.81 7.031-8.698.406-.406.826-.811 1.25-1.185.86-.764 1.735-1.477 2.646-2.11 6.591-4.576 10.081-6.345 12.076-8.21.359-.375.651-.781.911-1.186 1.737-2.111 2.516-9.656 2.664-11.262v-.049l.031-.276c.016-.276.016-.503.016-.649v-.162c-.114-1.055-2.224-4.106-3.393-5.501 0 0 3.393-1.882 8.198-2.11zm0 0s-5.503-2.11-12.646-.941c-7.159 1.168-9.967 2.58-14.772 3.165l-.049.081c4.01 1.314 10.569 1.217 14.464 1.899 1.881.341 3.816 1.396 5.357 2.418l-2.013 8.991c-4.48 2.386-11.737 6.931-17.29 13.828-.422.518-.828 1.087-1.2 1.686-.179.243-.341.503-.487.779-.213.341-.406.682-.584 1.022-.227.406-.44.828-.649 1.266-.211.422-.406.844-.584 1.266-.795 1.783-1.429 3.57-1.899 5.081l-.162.518c-.357 1.183-.615 2.158-.779 2.824l-.065.258-.049.196-.065.308-.016.083c.097-.164.601-1.073 1.446-2.387l.614-.941c1.623-2.434 4.092-5.81 7.031-8.698.406-.406.826-.811 1.25-1.185.86-.764 1.735-1.477 2.646-2.11 6.591-4.576 10.081-6.345 12.076-8.21.359-.375.651-.781.911-1.186 1.737-2.111 2.516-9.656 2.664-11.262v-.049l.031-.276c.016-.276.016-.503.016-.649v-.162c-.114-1.055-2.224-4.106-3.393-5.501 0 0 3.393-1.882 8.198-2.11zm0 0s-5.503-2.11-12.646-.941c-7.159 1.168-9.967 2.58-14.772 3.165l-.049.081c4.01 1.314 10.569 1.217 14.464 1.899 1.881.341 3.816 1.396 5.357 2.418l-2.013 8.991c-4.48 2.386-11.737 6.931-17.29 13.828-.422.518-.828 1.087-1.2 1.686-.179.243-.341.503-.487.779-.213.341-.406.682-.584 1.022-.227.406-.44.828-.649 1.266-.211.422-.406.844-.584 1.266-.795 1.783-1.429 3.57-1.899 5.081l-.162.518c-.357 1.183-.615 2.158-.779 2.824l-.065.258-.049.196-.065.308-.016.083c.097-.164.601-1.073 1.446-2.387l.614-.941c1.623-2.434 4.092-5.81 7.031-8.698.406-.406.826-.811 1.25-1.185.86-.764 1.735-1.477 2.646-2.11 6.591-4.576 10.081-6.345 12.076-8.21.359-.375.651-.781.911-1.186 1.737-2.111 2.516-9.656 2.664-11.262v-.049l.031-.276c.016-.276.016-.503.016-.649v-.162c-.114-1.055-2.224-4.106-3.393-5.501 0 0 3.393-1.882 8.198-2.11z"/><path fill="#FFFFFE" d="M434.262 338.011c-.211 3.325-2.435 5.305-11.298 6.637-6.688 1.005-26.835 2.141-48.894 6.425-2.062 7.53-6.509 24.148-11.396 35.899-5.974 14.409-21.056 34.355-43.667 36.79 0 0 16.184-13.293 19.739-31.468 2.841-14.606 1.412-22.476.958-31.563-15.843 6.165-28.57 14.424-33.846 18.109.357 13.47-7.388 25.25-7.388 25.25s2.711 10.631.878 22.153c-2.143 13.518-12.451 24.343-12.451 24.343s.261 2.256-1.56 5.68c-2.206 4.218-4.755 5.875-4.755 5.875s0 2.889-1.998 5.988c-1.623 2.532-5.047 4.787-6.865 5.323 0 0-5.909 7.481-10.649 3.473-4.755-4.008-1.526-13.989-.438-16.113 0 0-1.364-2.809-.877-5.097.471-2.272 2.094-5.227 2.094-5.227s-1.657-4.039-1.217-6.733c.455-2.678 3.133-6.12 3.133-6.12s-2.954-2.741-2.646-7.674c.308-4.933 2.646-8.861 2.646-8.861s-5.13-5.469-7.337-11.473c-2.208-6.004-1.558-14.395-1.558-14.395s-9.383-6.248-15.064-15.514c-5.276-8.601-6.039-24.083-5.292-28.775-2.873-2.254-13.847-12.283-16.882-27.895 0 0-8.441 2.564-16.509.779-7.11-1.558-13.068-4.737-13.068-4.737s-15.259 2.579-30.323 3.453c-14.366.845-61.361 7.355-91.441 29.067 5.568-8.212 13.246-18.306 23.424-29.26l.146-.161c.779-.829 1.558-1.657 2.338-2.468 3.214-3.408 6.607-6.832 10.227-10.321 19.285-18.468 38.992-32.002 57.157-41.95 16.233-9.283 31.638-16.196 45.258-21.324l-.032-.292s-1.656-11.96 2.841-40.344c.211-1.282.503-2.613.812-3.992-66.572-20.269-68.455-84.631-68.341-94.449.016-.292-.049-1.72-.049-2.207.26-11.035 1.802-21.665 3.393-31.029.503-2.889.877-5.794 1.217-8.698l.032-.065c3.847-20.01 3.198-30.493 2.289-35.362-.114-.682-.26-1.314-.438-1.899-.195-.649-.406-1.217-.601-1.672-.341-.811-.633-1.282-.633-1.282-1.153-2.369-.065-3.132-.065-3.132.828-.438 2.045.325 2.045.325 1.315.925 2.484 2.045 3.571 3.229 1.834 1.996 3.409 4.236 4.837 6.54 1.185 1.915 2.11 3.927 2.825 6.021.308.957.617 1.899.893 2.84.422 1.428.844 2.872 1.088 4.333l.016.081c.584 2.402 1.088 4.804 1.51 7.238.974 5.518 1.591 11.1 1.834 16.699.276 6.167-.016 12.317.698 18.468l.308 2.694c2.549 22.444 16.444 43.654 34.56 52.775 11.266 6.329 21.866 6.735 33.262 5.664l-1.786-1.769c-.179-.162-.373-.341-.568-.503-5.503-4.901-13.717-13.421-18.684-24.18-7.987-17.283-4.756-44.206-7.191-61.262-2.435-17.072-8.961-29.649-9.659-30.688-.747-1.104-1.347-2.158-.438-2.889.925-.747 1.526-.227 3.312 1.331 3.117 2.71 13.587 11.977 20.843 29.033 4.432 10.419 3.393 23.125 11.753 37.893 4.318 7.627 13.733 14.151 22.694 19.003.13-.211.26-.438.357-.617 1.64-3.083 2.581-6.897 3.117-10.127.568-2.499.812-4.771.714-6.686 0 0 64.949 6.215 103.064 40.555 38.117 34.339 47.547 72.232 48.651 83.982 0 0 13.863-2.126 17.402-7.287 0 0-.065 6.118-2.727 13.648-2.664 7.546-11.233 10.256-10.568 10.467.666.227 2.435 5.55 2.435 9.753 0 4.219.438 7.757 3.539 9.753 3.101 1.996 5.988 4.641 5.988 6.199 0 1.558-1.557 5.761-2.222 8.195 0 0 7.987 9.088 10.193 20.839 0 0-6.638 2.658-9.965 4.429 0 0 0 6.655-3.766 17.283 0 0 5.097 1.331 7.094 1.767 1.997.44 5.99 3.994 6.638 7.97.667 3.992 1.56 9.98 1.333 13.309zm4.253-14.088c-1.023-6.183-6.623-11.587-10.991-12.561-.307-.065-.713-.146-1.151-.258 1.136-4.091 1.687-7.355 1.963-9.641 2.518-1.152 5.458-2.353 6.722-2.858l4.302-1.735-.86-4.544c-1.771-9.38-6.688-17.137-9.498-20.967 1.01-3.197 1.609-5.274 1.609-7.041 0-3.604-2.889-7.288-8.571-10.94-.455-.29-.974-1.12-.974-5.031 0-.065-.065-3.733-1.023-7.465 3.084-2.093 6.946-5.534 8.847-10.889 1.899-5.388 2.614-10.159 2.889-12.934.146-1.509-.067-5.128-.067-5.128l-.583-6.978s-3.506 2.791-5.453 4.284c-.521.389-.911.682-1.123.811-.276.211-.583.406-.875.584-1.43.86-3.019 1.542-3.701 1.899-1.528.828-3.847 1.704-6.397 2.418-3.667-18.971-17.108-52.158-49.607-81.434-39.089-35.216-103.65-41.739-106.375-42.015l-6.055-.568s-.13 9.072-.7 11.652l-.063.292c-.211 1.25-.455 2.434-.748 3.538-7.352-4.593-12.482-9.25-14.965-13.648-4.594-8.114-6.087-15.563-7.516-22.752-1.006-5.096-1.98-9.932-3.961-14.606-5.227-12.269-12.743-22.736-22.337-31.094-1.737-1.493-3.506-3.051-6.233-3.051-1.088 0-2.711.276-4.35 1.59-1.169.957-4.675 4.495-.763 10.289.065.097 6.445 11.766 8.831 28.481.795 5.501.958 12.285 1.136 19.458.357 14.524.779 30.964 6.526 43.427 2.532 5.469 5.795 10.386 9.204 14.654.341.422 1.64 1.785 1.867 2.061.584.682 1.185 1.363 1.769 2.012-6.282-.536-11.672-2.191-17.028-5.193l-.227-.13c-16.493-8.309-29.155-27.751-31.492-48.393l-.308-2.694c-.438-3.651-.471-7.351-.519-11.262-.016-2.223-.049-4.511-.146-6.816-.26-5.777-.893-11.636-1.916-17.413-.422-2.434-.942-4.885-1.51-7.287l-.049-.179c-.308-1.769-.795-3.44-1.201-4.787-.292-1.022-.617-2.029-.958-3.035-.844-2.532-1.964-4.95-3.36-7.205-1.851-3.002-3.604-5.355-5.503-7.416-1.493-1.623-2.954-2.937-4.448-3.992l-.227-.146c-.633-.422-2.354-1.363-4.497-1.363-1.136 0-2.224.26-3.214.779l-.633.389c-2.484 1.753-3.977 5.599-1.737 10.208l.211.389c.049.081.162.308.308.633.13.308.26.682.39 1.087.114.357.195.763.292 1.314.747 4.008 1.445 13.567-2.191 32.749l-.195.99c-.406 3.408-.763 5.988-1.169 8.39-1.558 9.185-3.198 20.139-3.474 31.856 0 .357.016 1.104.032 1.72l.016.552c-.081 7.757 1.104 74.991 67.481 98.311l.049.016-.211.081c-3.019 19.328-3.23 31.24-3.036 37.049-14.399 5.647-28.57 12.431-42.092 20.172-21.168 11.587-40.81 26.014-58.39 42.859-3.555 3.423-6.964 6.85-10.405 10.484-.812.844-1.607 1.688-2.305 2.452l-.227.242c-8.701 9.365-16.558 19.133-23.359 29.033-.211.308-.828 1.298-1.071 1.882-.779 1.783-1.607 5.209.016 7.011.974 1.087 2.889 2.012 6.509.471.179-.049.877-.325 1.136-.471.698-.389 1.737-1.039 2.078-1.3 21.98-16.811 72.464-26.095 87.204-26.954 12.353-.73 24.609-2.533 29.155-3.246 2.467 1.17 7.289 3.199 12.727 4.398 2.305.503 4.789.763 7.402.763 2.273 0 4.399-.193 6.217-.454 3.766 11.895 11.266 20.058 15.162 23.71-.243 7.173.974 20.628 6.347 29.357 4.383 7.157 10.649 12.626 14.139 15.354 0 3.423.292 8.926 2.013 13.582 1.526 4.171 4.107 7.952 6.022 10.433-.747 1.998-1.493 4.645-1.672 7.613-.211 3.341.568 6.037 1.542 8.049-.844 1.525-1.64 3.359-1.948 5.193-.422 2.515.097 5.258.682 7.269-.584 1.284-1.201 2.923-1.544 4.481-.453 2.24-.08 4.479.39 6.151-1.735 5.047-3.636 15.092 2.81 20.531 1.948 1.637 4.287 2.498 6.753 2.498 4.951 0 8.975-3.522 10.909-5.566 2.873-1.347 6.313-3.976 8.264-6.996 1.476-2.288 2.19-4.494 2.547-6.164 1.299-1.3 2.953-3.28 4.446-6.12 1.268-2.4 1.836-4.463 2.079-6.021 2.808-3.359 9.026-11.603 11.719-21.876l.635-2.84c.065-.339.13-.698.177-1.071 1.477-9.317.278-18.013-.485-22.071 2.191-3.927 6.493-12.869 7.013-23.239 4.756-3.165 13.051-8.276 23.181-12.869.39 6.199.505 12.577-1.38 22.249-2.321 11.814-10.941 21.584-15.275 25.868-1.508 1.477-5.227 5.696-5.227 5.696s-1.427 1.201-1.151 3.651c.015.146.13.568.242.876.049.112.308.487.422.584 2.062 1.996 7.727 1.266 7.727 1.266 24.398-2.613 40.922-23.109 47.952-40.035 4.383-10.548 8.344-24.618 10.696-33.203 14.141-2.564 27.224-3.846 36.104-4.721 3.961-.391 7.094-.699 9.155-1.024 5.406-.795 15.47-2.304 16.103-11.847.211-3.035-.243-7.674-1.396-14.606z"/></g></svg>