<svg xmlns="http://www.w3.org/2000/svg" width="500" height="500" viewBox="0 0 500 500"><g fill="none"><path d="M0 0h500v500h-500z"/><path fill="#000" d="M60 250.184c0 104.667 85.15 189.816 189.816 189.816 104.662 0 189.816-85.15 189.816-189.816 0-104.662-85.154-189.812-189.816-189.812-104.667 0-189.816 85.15-189.816 189.812"/><path fill="#A5ACAF" d="M249.816 435.837c102.527 0 185.649-83.122 185.649-185.653 0-102.527-83.122-185.649-185.649-185.649-102.532 0-185.653 83.122-185.653 185.649 0 102.532 83.122 185.653 185.653 185.653"/><path fill="#FFFFFE" d="M249.816 405.51c85.53 0 154.869-69.339 154.869-154.869s-69.339-154.873-154.869-154.873c-85.534 0-154.873 69.344-154.873 154.873 0 85.53 69.339 154.869 154.873 154.869"/><path fill="#FFB612" d="M250.619 250.85c1.789-63.434 61.709-78.327 76.764-76.961-37.112-2.015-73.737-17.698-76.568-76.384-4.47 54.575-26.369 70.091-76.837 76.568 36.049 1.827 72.537 16.092 76.64 76.777"/><path fill="#C60C30" d="M327.597 329.364c1.789-63.434 60.655-79.087 75.714-77.721-37.236-1.375-73.101-19.073-75.927-77.755-4.47 54.579-26.297 70.484-76.764 76.961 36.049 1.827 72.87 17.83 76.978 78.515"/><path fill="#00539B" d="M251.55 404.865c1.785-63.443 60.988-76.867 76.047-75.5-37.112-2.02-74.147-19.824-76.978-78.515-4.47 54.579-25.72 70.975-76.184 77.447 36.044 1.836 73.007 15.887 77.114 76.568"/><path fill="#000" d="M207.47 237.289l6.046-.064.026 2.916c.909-1.601 1.456-2.558 3.514-3.019h1.503v7.075c-5.205-.367-4.859 1.456-4.927 2.856v13.462h-6.161v-23.227zm27.24 7.574l-5.397-.026c0-.559.013-1.05-.09-1.477-.149-.598-.948-1.166-1.759-1.174-.956 0-1.695.307-2.015 1.234-.384 1.119-.205 2.767 2.707 3.096l1.482.367c1.652.555 3.249 1.016 4.492 3.386.209.406.243.538.576 1.699.704 2.408.239 4.244-.547 5.679-.478.858-1.652 1.926-2.071 2.186-2.284 1.409-5.367 1.558-8.168.709-1.375-.418-2.873-1.469-3.616-2.912-.769-1.49-.786-2.711-.884-4.727l5.218-.034c-.107.816.397 1.759 1.204 2.067.816.32 2.852.333 3.211-.581.252-.645.414-.995-.145-1.836-1.02-1.541-3.202-1.793-5.119-2.276-3.429-.867-4.261-4.189-4.112-6.708.073-1.191.286-2.566 1.038-3.493 1.584-1.96 2.276-1.862 3.224-2.318 3.155-1.533 7.079-.444 9.171 1.678 1.174 1.183 1.558 3.36 1.601 5.461zm-100.081-7.438h-4.278l-2.327.017c-.056-1.02-.209-2.344-.884-2.963-.999-.909-3.262-.406-3.86.858-1.084 2.271.303 4.406 3.796 5.521l.961.478c3.3 1.61 4.214 2.4 5.448 4.142.371.525 1.097 1.896 1.392 3.569.628 3.578-.273 5.798-1.08 7.758 0 0-.307.927-1.157 1.716-3.467 3.236-8.27 3.377-11.831 1.687-1.64-.786-2.903-1.546-3.804-3.569-.888-1.985-1.089-3.787-.833-6.716l6.648-.038c-.124.931.149 3.283.773 3.937.619.649 3.138 1.281 4.107-.436.342-.602.427-3.219-.632-4.227-1.994-1.917-3.715-2.109-6.063-3.578-3.352-2.092-5.132-5.845-4.919-9.406.102-1.687.564-2.861 1.383-4.338.82-1.46 1.981-2.792 3.659-3.527 4.466-1.96 9.923-.841 12.327 3.403.632 1.11 1.264 2.767 1.174 5.713zm3.394-.12v-2.143l6.225-3.416.026 5.636 2.37-.051.026 5.495-2.395-.038v9.146c0 1.251-.226 1.751 2.284 1.712l-.004 6.96c-2.963-.073-8.573.935-8.599-5.61l-.047-12.327-2.323.077-.026-5.363 2.464-.077zm43.986-9.321l6.272.017v32.714h-6.272v-32.731zm13.257 25.96c.009 2.084 4.56 2.511 4.671-.115v-.662l5.124-.026.009 2.737c.051 1.819-.704 3.796-3.779 4.855-3.262 1.016-5.299.406-7.207 0-2.506-.918-3.723-2.912-3.838-5.721v-11.332c-.115-2.126 1.067-3.979 3.121-5.329 3.501-1.529 5.414-1.119 8.044-.209 2.506 1.366 3.638 3.057 3.663 5.418v7.19h-9.829l.021 3.194zm.222-8.048l4.637.017c.956-4.06-5.414-4.586-4.637-.017zm-25.178 8.048c.013 2.084 4.564 2.511 4.68-.115v-.662l5.119-.026.013 2.737c.043 1.819-.709 3.796-3.783 4.855-3.262 1.016-5.299.406-7.207 0-2.506-.918-3.723-2.912-3.838-5.721v-11.332c-.115-2.126 1.072-3.979 3.121-5.329 3.501-1.529 5.418-1.119 8.04-.209 2.511 1.366 3.638 3.057 3.668 5.418v7.19h-9.803l-.009 3.194zm.226-8.048l4.637.017c.956-4.06-5.414-4.586-4.637-.017zm-17.22 8.048c.013 2.084 4.564 2.511 4.68-.115v-.662l5.119-.026.013 2.737c.047 1.819-.709 3.796-3.783 4.855-3.262 1.016-5.303.406-7.207 0-2.506-.918-3.723-2.912-3.838-5.721v-11.332c-.115-2.126 1.072-3.979 3.121-5.329 3.497-1.529 5.418-1.119 8.04-.209 2.511 1.366 3.638 3.057 3.668 5.418v7.19h-9.803l-.009 3.194zm.226-8.048l4.637.017c.956-4.06-5.414-4.586-4.637-.017z"/></g></svg>