<?xml version="1.0" encoding="utf-8"?>
<!-- Generator: Adobe Illustrator 22.0.1, SVG Export Plug-In . SVG Version: 6.00 Build 0)  -->
<svg version="1.1" id="Layer_1" xmlns="http://www.w3.org/2000/svg" xmlns:xlink="http://www.w3.org/1999/xlink" x="0px" y="0px"
	 viewBox="0 0 400 400" style="enable-background:new 0 0 400 400;" xml:space="preserve">
<style type="text/css">
	.st0{fill:#12173F;}
	.st1{fill:#5D76A9;}
	.st2{fill:#707271;}
	.st3{fill:#FFBB22;}
</style>
<g>
	<path class="st0" d="M122.7,339.5c0-3.6-2.9-6.5-6.5-6.5H104v23h5.4v-7.2h5c1.6,0,2.9,1.3,2.9,2.9v4.2h5.4v-4.2
		c0-1.9-0.6-3.6-1.7-5c1.2-1.2,1.9-2.8,1.9-4.7v-2.5H122.7z M116.2,338.3c0.6,0,1.2,0.5,1.2,1.2v2.6c0,0.7-0.6,1.4-1.4,1.4h-6.7
		v-5.1h6.9V338.3z"/>
	<polygon class="st0" points="243.4,356 224.3,356 224.3,333 229.7,333 229.7,350.6 243.4,350.6 	"/>
	<polygon class="st0" points="296.5,338.3 296.5,333 277.4,333 277.4,356 296.5,356 296.5,350.6 282.8,350.6 282.8,346.9 
		294.6,346.9 294.6,341.5 282.8,341.5 282.8,338.3 	"/>
	<polygon class="st0" points="175.9,356 155.2,356 167.1,338.3 156.5,338.3 156.5,333 177.1,333 165.3,350.6 175.9,350.6 	"/>
	<polygon class="st0" points="209.2,356 188.5,356 200.3,338.3 189.7,338.3 189.7,333 210.4,333 198.5,350.6 209.2,350.6 	"/>
	<rect x="256.7" y="333" class="st0" width="5.4" height="23"/>
	<rect x="137" y="333" class="st0" width="5.4" height="23"/>
	<rect x="137" y="333" class="st0" width="5.4" height="23"/>
	<g>
		<path class="st0" d="M228.1,282.6h-19.6v42.1h9.7v-13.6h9.9c6.5,0,11.8-5.3,11.8-11.8v-5C239.9,287.9,234.6,282.6,228.1,282.6z
			 M230.2,299.3c0,1.2-1,2.1-2.1,2.1h-9.9v-9.2h9.9c1.2,0,2.1,1,2.1,2.1V299.3z"/>
	</g>
	<path class="st1" d="M213.7,324.7h-0.8V287H228c4.1,0,7.4,3.3,7.4,7.4v5c0,4.1-3.3,7.4-7.4,7.4h-14.3V324.7z M213.7,305.9H228
		c3.6,0,6.6-2.9,6.6-6.6v-5c0-3.6-2.9-6.6-6.6-6.6h-14.3V305.9z"/>
	<polygon class="st0" points="153.1,292.2 153.1,282.6 121.1,282.6 121.1,324.7 153.1,324.7 153.1,315 130.8,315 130.8,308.5 
		149.6,308.5 149.6,298.8 130.8,298.8 130.8,292.2 	"/>
	<polygon class="st1" points="153.1,287.8 153.1,287 125.6,287 125.6,320.3 153.1,320.3 153.1,319.5 126.4,319.5 126.4,304 
		149.6,304 149.6,303.2 126.4,303.2 126.4,287.8 	"/>
	<path class="st0" d="M191.5,282.6h-33.4v42.1h9.7v-32.4h8.1v32.4h9.7v-32.4h6c1.2,0,2.1,1,2.1,2.1v30.3h9.7v-30.3
		C203.3,287.9,198,282.6,191.5,282.6"/>
	<path class="st1" d="M191.5,287h-29v37.7h0.8v-36.8h17v36.9h0.8v-36.9h10.4c3.6,0,6.6,2.9,6.6,6.6v30.3h0.8v-30.3
		C198.9,290.3,195.5,287,191.5,287"/>
	<path class="st0" d="M104.1,282.6H70.7v42.1h9.7v-32.4h8.1v32.4h9.7v-32.4h6c1.2,0,2.1,1,2.1,2.1v30.3h9.7v-30.3
		C115.9,287.9,110.6,282.6,104.1,282.6"/>
	<path class="st1" d="M104.1,287h-29v37.7h0.8v-36.8h17v36.9h0.8v-36.9h10.4c3.6,0,6.6,2.9,6.6,6.6v30.3h0.8v-30.3
		C111.5,290.3,108.2,287,104.1,287"/>
	<rect x="282.1" y="282.6" class="st0" width="9.7" height="42.1"/>
	<rect x="286.5" y="282.6" class="st1" width="0.8" height="42.1"/>
	<polygon class="st0" points="266.1,282.6 266.1,298.8 254.1,298.8 254.1,282.6 244.4,282.6 244.4,324.7 254.1,324.7 254.1,308.5 
		266.1,308.5 266.1,324.7 275.8,324.7 275.8,282.6 	"/>
	<polygon class="st1" points="270.5,282.6 270.5,303.2 249.6,303.2 249.6,282.6 248.8,282.6 248.8,324.7 249.6,324.7 249.6,304 
		270.5,304 270.5,324.7 271.4,324.7 271.4,282.6 	"/>
	<path class="st0" d="M89.5,356H77.2c-3.6,0-6.5-2.9-6.5-6.5v-9.9c0-3.6,2.9-6.5,6.5-6.5h5.7c3.6,0,6.5,2.9,6.5,6.5v1.1H84v-1.1
		c0-0.6-0.5-1.2-1.2-1.2h-5.7c-0.6,0-1.2,0.5-1.2,1.2v9.9c0,0.6,0.5,1.2,1.2,1.2H84v-2.1h-3.2v-5.4h8.5V356H89.5z"/>
	<path class="st0" d="M89.5,356H77.2c-3.6,0-6.5-2.9-6.5-6.5v-9.9c0-3.6,2.9-6.5,6.5-6.5h5.7c3.6,0,6.5,2.9,6.5,6.5v1.1H84v-1.1
		c0-0.6-0.5-1.2-1.2-1.2h-5.7c-0.6,0-1.2,0.5-1.2,1.2v9.9c0,0.6,0.5,1.2,1.2,1.2H84v-2.1h-3.2v-5.4h8.5V356H89.5z"/>
	<path class="st0" d="M322.6,356h-5.7c-3.6,0-6.5-2.9-6.5-6.5v-0.8h5.4v0.8c0,0.6,0.5,1.2,1.2,1.2h5.7c0.6,0,1.2-0.5,1.2-1.2v-1
		l-9.9-2.6c-2.1-0.6-3.5-2.5-3.5-4.7v-1.4c0-3.7,3-6.7,6.7-6.7h5.6c3.6,0,6.5,2.9,6.5,6.5v1.1h-5.4v-1.1c0-0.6-0.5-1.2-1.2-1.2h-5.6
		c-0.7,0-1.3,0.6-1.3,1.3v1.1l9.9,2.6c2.1,0.6,3.5,2.5,3.5,4.7v1.3C329.2,353.1,326.2,356,322.6,356"/>
	<path class="st0" d="M317.4,324.6h-19.9v-13.4h9.7v3.7h10.2c1.2,0,2.2-1,2.2-2.2v-1.9l-15.8-4.9c-3.7-1.2-6.3-4.6-6.3-8.5v-3
		c0-6.6,5.3-11.9,11.9-11.9h19.9v13.9h-9.7v-4.2h-10.2c-1.2,0-2.2,1-2.2,2.2v2.4l15.7,4.8c3.8,1.2,6.3,4.6,6.3,8.6v2.5
		C329.3,319.3,324,324.6,317.4,324.6"/>
	<path class="st1" d="M317.4,320.2H302v-9h0.8v8.2h14.6c3.7,0,6.6-3,6.6-6.6v-2.5c0-1.6-1.1-3.1-2.6-3.6l-16.3-5
		c-1.9-0.6-3.1-2.3-3.1-4.2v-3c0-4.1,3.3-7.5,7.5-7.5h15.4v9.5h-0.8v-8.7h-14.6c-3.7,0-6.6,3-6.6,6.6v3c0,1.6,1,3,2.6,3.5l16.3,5
		c1.9,0.6,3.2,2.3,3.2,4.3v2.5C324.9,316.9,321.5,320.2,317.4,320.2"/>
	<path class="st2" d="M302.3,95.8c2.9-5.5,4.3-11,4.3-16.3c0-12-6.7-22.7-16.1-29.1c-13.1-8.9-32.7-10.1-46.6,6.5
		c-20.3-2.8-37.3,2.8-43.8,5.5c-6.5-2.7-23.5-8.2-43.8-5.5c-13.9-16.6-33.6-15.4-46.6-6.5c-9.4,6.4-16.1,17.1-16.1,29.1
		c0,5.3,1.4,10.8,4.3,16.3c-10.5,15.1-17.7,33.1-17.7,51.4c0,22,9.4,33.3,12.9,38.2c0,0,1.5-1.5,2.8-2.8c10,25.3,27,39,47.6,51.4
		c0,0,0.5-2.5,0.9-4.7c22.2,19.2,32.7,14.5,55.7,40.5c22.9-25.9,33.8-21.5,55.7-40.5c0.4,2.2,0.9,4.7,0.9,4.7
		c9.2-5.5,35-19.4,47.6-51.4c1.3,1.3,2.8,2.8,2.8,2.8c2.2-3,12.9-15,12.9-38.2C320.1,128.9,312.8,111,302.3,95.8"/>
	<path class="st0" d="M296,96.2c21.1-32.4-26.8-66.2-50-33.5c-23.5-4.2-43.2,4.4-45.9,5.6c-2.6-1.2-22.4-9.8-45.9-5.6
		c-23.2-32.7-71.1,1.1-50,33.5c-24.1,33.1-21.6,65.7-10.5,81l4.6-4.6c0,0,6.6,31.9,41.2,52.8l1.2-6.9c21.3,22.8,40.8,22.3,59.3,43.1
		c18.4-20.8,37.9-20.3,59.3-43.1l1.2,6.9c34.7-20.9,41.2-52.8,41.2-52.8l4.6,4.6C317.7,161.8,320.1,129.2,296,96.2"/>
	<path class="st1" d="M200.3,217.4c0,0-16.7,0.3-19.1,1.8c0,0-2.9,5,19.1,4.9c20.9-0.1,17.8-3.9,18-4.5
		C218.3,219.6,211.2,217.4,200.3,217.4"/>
	<path class="st1" d="M185.9,198.1c0,0,2.6-7.5,5.4-5.1c3.8,3.3,8.9,10,8.9,10.7v9l-6.1,0.3c-3.5,0.1-14.7,2.8-14.7,2.8
		c-15.5-38.3-6.9-67.4-2.8-77.7c-15.3,3.3-17.8-15.1-17.8-15.1c1.6-0.3,3.9,0.4,6.6,1.6c4.1,2,8.9,5.3,12.8,8.3l0,0
		c1.1,0.9,2.2,1.7,3.1,2.5c10.4,8.8,18.9,7,18.9,7v37.5C200.1,179.9,169.7,177.5,185.9,198.1"/>
	<path class="st1" d="M214.4,198.1c19.4-19.7-12.2-18.5-14.2-18.2C203.5,180.1,228,180.2,214.4,198.1"/>
	<path class="st1" d="M227.3,138.6c17.4,47-4.7,77.2-4.8,77.4c13.7-35.9,4.9-65.8-1.1-76.9c-3.1,0.3-6.8,0.1-6.8,0.1
		s4.6-2.9,7.6-5.6c0.2-0.2,0.4-0.4,0.7-0.6c2.5-2.2,7.3-6.1,13-8.4l0,0c2.1-0.8,4.4-1.4,6.7-1.7C242.7,122.9,241,138.4,227.3,138.6"
		/>
	<path class="st1" d="M254.9,77.8c0,0,7.1-17.8,28.9-13.5c0,0-20-13.2-33.9,10.6c0,0-20-9.4-49.8,3.5c0,0-28-9.8-49.3-4.3
		c0,0-12.4-21.5-29.9-12.7c-17.5,8.9-8.4,29.4-5.3,34.7c0,0-29,29.5-18.1,66l5.8-7.3c0,0,8.3,39.7,29.8,52.3l1.3-9.8
		c0,0,22.4,27,48.8,38.5c2.5,1.2,16.5,8.1,16.9,11.5v-18.9c0,0-18.3,1.5-23.1-6.9c-3.3-5.7-24.3-43.2-13.9-82.5
		c0,0-10.1-1.5-12-18.6c0,0-7.5-3.7-16.9-2.9c0,0,16.8-5.3,32.5,0.8s19.9,21.6,30.6,14.7l2.9-43.6l3.2,43.6
		c10.6,6.8,14.9-8.6,30.6-14.7c15.7-6.1,32.5-0.8,32.5-0.8s-6.7-4.7-17.5-6.9c-9-1.8-22.2,4-22.2,4s1.8-12.4,7.8-19
		C239.7,90.2,251.3,88.9,254.9,77.8z M119.4,92.9c-0.6-5.9,6.9-11.8,6.9-11.8c-3.1-3.2-8.5-0.4-8.5-0.4c4.9-9.6,15.9-4.9,15.9-4.9
		c-4.2-5.1-13-4.8-13-4.8c10.9-10.8,24.1,5.7,24.1,5.7C133,79.3,119.4,92.9,119.4,92.9z"/>
	<path class="st3" d="M178.1,132.8c-1.7-0.5-4.5,1.2-6,4.2c-5.2-1.5-7-7.1-6.8-12.5l0,0C169.4,126.5,174.3,129.8,178.1,132.8"/>
	<path class="st3" d="M229.3,137.1c-1.6-3.2-4.6-4.9-6.3-4.1c2.5-2.2,7.3-6.1,13-8.4l0,0C236.3,130,234.4,135.6,229.3,137.1"/>
</g>
</svg>
