<svg xmlns="http://www.w3.org/2000/svg" viewBox="0 0 960 640"><path fill="#006ac6" d="m424.035 343.797 46.639 75.055c6.071 9.763 9.764 18.657 10.845 27.334 6.509 43.601-41.001 80.044-98.706 88.937-55.1 8.677-112.152-9.98-118.007-50.759-5.422-39.265 38.611-72.886 91.76-82 10.412-1.953 21.695-2.823 32.972-2.6L204.5 102.788h69.199l37.53 60.09c8.239-1.303 14.1-7.59 14.1-18.219 0-8.677-3.687-16.705-19.09-41.866H755.5c-11.499 22.777-37.314 46.207-69.637 59.874l23.214 4.773c-19.089 19.74-46.423 36.66-76.79 45.991l23.425 8.461c-19.522 16.483-43.817 30.588-76.357 38.394l21.257 11.278c-23.43 14.532-48.807 24.728-82.65 29.94l17.138 18.218c-23.863 6.072-46.207 7.375-69.853 6.072l15.618 24.944c-15.618 1.735-36.227-.865-56.835-6.942z"/><path fill="#ffb81c" d="M736.297 112.986H324.566c9.326 15.186 11.715 23.646 11.715 31.67 0 14.531-7.812 26.68-29.718 29.07l-37.962-60.956h-45.342l185.909 298.497c-16.484-2.384-34.276-1.95-50.327.865-49.24 8.461-87.856 38.612-83.299 70.935 4.774 33.405 54.884 50.327 106.297 42.304 53.581-8.46 95.663-41.217 90.024-77.877-.87-7.158-3.903-14.532-9.331-23.43l-61.171-98.052c20.825 8.244 45.12 13.667 60.955 13.883l-16.273-25.815c24.296 2.384 46.207 2.601 68.335-.87l-19.522-20.17c33.405-2.169 60.306-9.11 83.736-21.258l-31.02-16.705c38.395-4.557 63.56-14.748 86.12-30.156l-39.265-14.316c42.298-5.638 70.935-19.959 92.192-36.875l-42.952-9.11c41.871-7.59 73.324-26.68 92.63-51.629zm-139.068 45.336H365.984l2.384 3.687c3.038 4.99 4.99 6.072 10.845 6.072h232.764l49.894 10.628c-25.382 14.75-58.787 24.08-111.065 24.08H393.75l2.384 3.687c3.255 4.99 5.206 6.071 11.061 6.071l163.349-.216 39.914 14.748c-26.901 13.45-54.019 18.873-98.269 19.09l-90.894.432 2.389 3.692c3.255 4.99 5.206 6.071 11.067 6.071l94.365-.216 27.333 14.97c-20.17 7.811-49.24 12.58-78.53 12.58h-5.422l21.04 21.695c-24.944 1.086-46.855-.649-67.031-3.909l15.619 25.382c-16.273-2.167-43.17-10.844-65.296-21.694l77.227 124.083c4.774 7.811 7.158 13.883 8.028 19.743 4.558 29.502-32.107 58.787-81.563 66.594-47.51 7.374-90.895-7.812-94.582-34.059-3.687-25.166 29.718-51.846 74.838-59.658 23.863-3.908 51.197-2.822 70.935 5.861L241.684 122.744h21.474L301.12 183.7c30.805.65 45.991-17.354 45.991-38.61 0-7.159-1.736-14.1-5.423-22.345h371.596c-26.896 24.296-67.248 35.578-116.055 35.578M453.176 520.071c0 3.491 2.827 6.323 6.324 6.323s6.318-2.832 6.318-6.323a6.321 6.321 0 1 0-12.642 0m11.288 0c0 2.74-2.219 4.97-4.969 4.97s-4.97-2.226-4.97-4.97a4.97 4.97 0 0 1 9.939 0"/><path fill="#ffb81c" d="M456.899 523.687h1.359v-2.94h.974l1.364 2.94h1.499l-1.427-3.064a2.144 2.144 0 0 0-.715-4.161h-3.054zm1.354-5.87h1.694c.433 0 .788.355.788.792a.79.79 0 0 1-.788.788h-1.694z"/></svg>