<svg xmlns="http://www.w3.org/2000/svg" viewBox="0 0 960 640"><path fill="#6cace4" d="M825 380.216c.506-97.99-101.813-158.985-134.484-169.555 0 0 61.905 89.845 57.346 151.781-2.026 27.33-15.558 36.2-29.198 38.045-.289-53.755-22.613-98.533-38.35-123.438l11.902-12.959s-24.747-65.882-125.112-145.7l-15.992 10.353-96.023-62.262-95.915 62.153-14.906-9.665L135 254.606l121.17 65.303-24.785 16.072L364.601 407.8l-24.169 15.674s92.985 51.584 185.064 44.09a350 350 0 0 0 26.991 15.24c-46.13 24.181-100.184 11.005-100.184 11.005l-65.632 41.34c168.168 81.41 262.237 14.152 295.85-26.535 76.123-4.054 142.008-40 142.478-128.36z"/><path fill="#010101" d="M811.576 383.763c0-55.456-38.315-114.64-90.813-145.084 46.564 84.958 52.86 141.392 22.359 165.428-9.551 7.53-23.77 11.222-39.69 11.077.362-4.67.579-9.376.579-14.118 0-47.529-17.692-90.859-42.512-125.356l12.953-14.299s-27.063-57.41-108.47-124.632l-14.906 9.665-96.06-62.261-95.914 62.153-14.907-9.666-179.998 116.741 121.169 65.303-24.784 16.072 133.181 71.82-23.192 15.021 3.763 1.846c27.207 12.344 87.846 35.113 152.718 28.923 15.051 10.208 32.273 19.584 51.666 26.932-29.704 30.77-84.301 35.44-123.702 28.525l-39.075 25.303c36.724 17.05 79.272 25.158 116.249 25.158 50.363 0 96.204-15.095 128.151-46.697 5.066-4.995 9.624-10.316 13.785-15.89 79.416-1.05 137.414-41.268 137.414-111.964z"/><path fill="#fff" d="M652.888 376.487s13.604-4.127 26.955-1.014c-.435-3.004-.977-5.973-1.556-8.94-1.664-6.915-8.611-21.575-39.039-30.444 0 0 10.42-5.973 29.415-2.317-1.086-2.787-2.207-5.538-3.437-8.253-3.51-6.842-14.364-22.262-41.934-23.928 0 0 11.47-6.696 25.182-7.022-5.065-7.783-10.528-15.13-16.317-21.937l12.699-14.407c-11.469-18.099-36.398-52.415-80.827-91.474l-12.953 8.398-96.06-62.262-85.313 55.276 121.132 17.34 63.316 41.048-54.234-13.719-110.568 41.846 65.667 23.927-80.501 25.122 107.239 57.52s11.65-11.258 31.296-20.633c12.555-6.009 28.402-11.258 46.565-12.272 0 0-18.923-34.714-62.195-53.646l8.575-10.063s-15.124-5.575-50.979-8.29c0 0 41.825-20.525 84.844-17.629l52.317 33.918h22.396l-23.988 28.127c21.13 26.135 34.697 57.158 39.98 88.29 5.174 3.981 10.384 7.492 15.594 10.424a124 124 0 0 0 35.022 13.213c.073-1.05.109-2.1.181-3.15-.108-6.914-2.894-24.905-28.582-33.049zM609.906 488.74a87 87 0 0 1-2.93 3.403c-20.805 23.203-51.486 35.33-83.035 39.565a201 201 0 0 1-27.027 1.81c12.012 1.665 23.915 2.461 35.312 2.461 45.587 0 85.097-13.176 112.45-40.253.397-.398.795-.832 1.193-1.23-9.66-.942-33.865-5.322-35.963-5.792z"/><path fill="#6cace4" d="m554.224 226.551-63.895-60.669-75.509-11.728 40.269-41.267-85.314 55.312 121.133 17.303zM499.99 212.833 389.42 254.678l65.668 23.928-37.664-24.398zM551.112 175.151l25.073 16.253-12.084-24.65zM481.826 361.247s11.65-11.258 31.296-20.633l-138.535-36.887zM630.673 389.012c5.174 3.981 10.384 7.493 15.594 10.425 1.34.76 2.678 1.448 4.016 2.136-.759-12.779-3.075-26.136-7.019-39.964-6.729-23.384-17.8-45.466-32.309-64.977l3.727-24.036-23.988 28.127c21.093 26.135 34.697 57.121 39.979 88.29M645.905 494.531s-15.63-2.136-36.036-5.792a86 86 0 0 1-2.93 3.403c-20.804 23.203-51.485 35.33-83.035 39.565a201 201 0 0 1-27.026 1.81s16.245 1.194 28.835.362a208 208 0 0 0 4.85-.398c1.374-.145 2.748-.29 4.087-.435h.253c2.026-.253 4.016-.507 6.042-.832 30.465-4.598 55.212-16.18 73.411-33.014z"/><path fill="#fff" d="M501.87 379.89c32.563-26.425 64.148-29.393 64.148-29.393s7.598 11.837 21.419 26.497c30.356 32.29 69.937 56.072 114.259 56.072 28.365 0 54.126-10.46 66.789-33.809 18.09-33.339 4.161-81.194-13.532-116.922 15.594 17.918 31.658 44.56 37.375 73.555 4.378 22.154 3.98 48.362-10.022 71.384-19.465 32-60.313 46.733-104.96 46.733-60.422 0-125.474-32.144-175.44-94.153"/><path fill="#6cace4" d="M527.812 363.022c-8.177 4.127-17.04 9.63-25.978 16.87 36.29 45.066 82.781 77.645 136.582 89.916 12.916 2.933 27.352 4.49 42.042 4.236 25.073-4.417 36.29-15.059 36.29-15.059-107.71 13.792-169.399-65.375-188.972-95.963M536.93 261.63s8.72 21.284 24.566 30.805l10.818-7.892 9.407-1.013-44.756-21.9z"/><path fill="#fff" d="M355.194 216.778 310.8 273.755l79.996-49.339-23.916-15.529 21.745-14.697-43.923-28.488-25.435 56.868z"/><path fill="#6cace4" d="m286.162 240.018 41.209-7.023-16.57 40.76 44.393-56.977-35.927 5.792 25.435-56.868-134.375 85.175 87.195-35.402zM692.035 515.672v1.484h-2.351v7.53h-1.665v-7.53h-2.388v-1.484h6.441zm7.96 9.013v-3.04c0-2.39.109-3.91.145-4.743h-.073c-.651 2.317-1.483 5.358-2.207 7.711h-1.483c-.687-2.57-1.447-5.394-2.026-7.747h-.072c.072.833.18 2.425.18 5.466v2.317h-1.591v-9.014h2.568c.652 2.281 1.34 4.887 1.773 6.517h.036c.398-1.593 1.23-4.345 1.882-6.517h2.388v9.014h-1.592z"/></svg>