<?xml version="1.0" encoding="utf-8"?>
<!-- Generator: Adobe Illustrator 24.0.1, SVG Export Plug-In . SVG Version: 6.00 Build 0)  -->
<svg version="1.1" id="Layer_2_1_" xmlns="http://www.w3.org/2000/svg" xmlns:xlink="http://www.w3.org/1999/xlink" x="0px" y="0px"
	 viewBox="0 0 400 400" style="enable-background:new 0 0 400 400;" xml:space="preserve">
<style type="text/css">
	.st0{fill:#FFFFFF;}
	.st1{fill:#63717A;}
	.st2{fill:#592D81;}
</style>
<g id="Layer_2_2_">
	<path class="st0" d="M340,39l-40.1,40.3l-33.6-33.4l-33.6,33.4l-33.6-33.6l-33.4,33.4l-33.4-33.4L98.9,79.3L60,39.8v178.1
		c0,77.5,62.2,140.5,139.6,140.5S340,295.4,340,217.9V39z"/>
	<path class="st1" d="M72.5,242.3c3.3,16.8,9.9,32.5,19.5,47c5.9-10.3,17.5-22.8,40.4-28.3c-1.7-5.9-3.3-12.1-4.6-18.6L72.5,242.3
		L72.5,242.3z"/>
	<path class="st1" d="M101.1,301.3c24.7,29,60.4,45.6,97.8,45.9c-3.6-1.8-6.9-3.8-10.4-6c-15.9-10.3-37.8-30.3-51.9-67.4
		C114.5,278.7,105,291.3,101.1,301.3"/>
	<path class="st1" d="M150.5,272c10.1,25.2,25.2,44.6,45,57.6c13.1,8.6,25.8,12.4,34,14.3c20.8-4.7,40.2-14.8,56.3-29
		c-12.6-1.4-25.8-8.6-39.3-16.3c-21.5-12-48.1-26.9-84.1-26.9C158.5,271.5,154.5,271.6,150.5,272"/>
	<path class="st2" d="M204.5,176.7h-46.2v55.1h19.2v-44.3H192v44.3h18.3v-47.3C210.3,180.4,207.7,176.7,204.5,176.7"/>
	<path class="st2" d="M218.3,176.7V224c0,4.2,2.6,7.8,5.7,7.8h30.3h16v-33.6h-18.4v22.5h-14.4v-33.6h32.9v-10.6L218.3,176.7
		L218.3,176.7z"/>
	<polygon class="st2" points="107,176.7 96.6,199.1 90.6,199.1 90.6,176.7 71.4,176.7 71.4,231.9 90.6,231.9 90.6,209.7 96.6,209.7 
		107,231.9 126.2,231.9 112.8,204.5 126.2,176.7 	"/>
	<rect x="131.2" y="176.7" class="st2" width="19.8" height="55.1"/>
	<path class="st2" d="M328.6,191.7v-14.9h-50.8V202c0,4.2,2.6,7.6,5.7,7.6h25.9v12h-31.7V232h50.8v-25.3c0-3.9-2.2-7.6-5-7.6h-26.7
		v-11.6h13.4v4.2L328.6,191.7L328.6,191.7z"/>
	<polygon class="st2" points="274.5,120.9 258.4,120.9 291.7,87.4 266.4,62 232.8,95.5 199.3,62 140.6,120.9 124.3,120.9 
		157.8,87.3 132.5,62 99.1,95.5 71.4,68 71.4,122.9 71.4,166.7 328.6,166.7 328.6,124.2 328.6,66.8 	"/>
	<path class="st0" d="M127.6,156.1c0,1.4,1.1,2.6,2.6,2.6h14.3v-3.8h-11.8v-12.5h11.8v-3.9h-17v17.6H127.6z"/>
	<path class="st0" d="M104,138.4v20.3h5.2v-5.3h6.6v5.3h5.2v-17.8c0-1.5-1.2-2.6-2.9-2.6h-14V138.4z M115.7,149.5h-6.6v-7.3h6.6
		V149.5z"/>
	<path class="st0" d="M316.3,138.4h-11.9c-1.4,0-2.6,1.1-2.6,2.6v15.1c0,1.4,1.1,2.6,2.6,2.6h11.9c1.4,0,2.6-1.2,2.6-2.6V141
		C319.1,139.5,317.9,138.4,316.3,138.4 M313.8,154.7h-6.5v-12.5h6.5V154.7z"/>
	<path class="st0" d="M80.4,147.9c0,1.4,1.1,2.6,2.6,2.6h9.2v4.4H80.4v3.9h17v-9.6c0-1.3-0.9-2.5-2.4-2.6h-0.1h-9.4v-4.4h11.8v-3.9
		H80.4V147.9z"/>
	<path class="st0" d="M188.7,138.4h-14.4v20.3h5.2v-5.3h6.6v5.3h5.2v-17.8C191.4,139.5,190.1,138.4,188.7,138.4 M186,149.5h-6.6
		v-7.3h6.6V149.5z"/>
	<polygon class="st0" points="279,142.2 285,142.2 285,158.7 290.1,158.7 290.1,142.2 296,142.2 296,138.4 279,138.4 	"/>
	<path class="st0" d="M224.5,138.4h-26.2v20.3h5.2v-16.4h6.5v16.4h5.3v-16.4h6.5v16.4h5.2v-17.8C227,139.5,225.9,138.4,224.5,138.4"
		/>
	<path class="st0" d="M271.1,138.4h-14.5v20.3h5.2v-16.4h6.6v16.4h5.2v-17.8C273.7,139.5,272.6,138.4,271.1,138.4"/>
	<path class="st0" d="M234.2,156.1c0,1.4,1.1,2.6,2.6,2.6h14.4v-3.8h-11.8v-4.4h11.8v-3.9h-11.8v-4.5h11.8v-3.8h-17V156.1z"/>
	<path class="st0" d="M164.9,151.2h2.8v-10.4c0-1.5-1.2-2.6-2.9-2.6h-14.2v20.3h5.2v-7.4h3.8l3.2,7.4h5L164.9,151.2z M162.6,147.3
		h-6.6v-5.2h6.6V147.3z"/>
	<path class="st1" d="M159.4,257.9c27.3-0.5,54.6,6.4,89.1,26c25.6,14.5,36.8,18.9,44.5,17.1c7-1.7,13.7-6,25.2-30.3
		c4.4-9.4,7.6-20.3,9-28.4H141.4c1.3,5.7,2.6,11.3,4.3,16.3C150.1,258.2,154.9,257.9,159.4,257.9"/>
</g>
</svg>
