<svg xmlns="http://www.w3.org/2000/svg" viewBox="0 0 960 640"><path fill="#ffb81c" d="M480 598.5c-153.791 0-278.5-124.709-278.5-278.5S326.209 41.5 480 41.5 758.5 166.209 758.5 320 633.791 598.5 480 598.5"/><path fill="#003087" d="M479.825 582.43c-144.883 0-262.344-117.461-262.344-262.344S334.942 57.742 479.825 57.742s262.344 117.461 262.344 262.344S624.708 582.43 479.825 582.43"/><path fill="#fff" d="M578.335 105.076c21.833 7.162 39.736 13.886 38.95 15.807-.786 2.009-19.3-3.231-41.133-10.479-32.924-10.829-73.446-25.938-72.922-26.986.35-1.048 42.182 10.83 75.105 21.658m16.506 182.96c.961 1.31-43.578 19.475-80.257 32.574-24.366 8.646-45.238 15.021-46.985 12.663-1.746-2.357 17.991-10.392 42.356-19.038 36.592-13.1 83.925-27.509 84.886-26.199m-293.957-72.223c-2.184-4.192-4.542-14.847-4.542-25.85 0-30.828 20.785-41.046 51.264-46.985 5.152-.96 5.938-1.572 9.432-6.724 23.142-33.623 52.224-50.39 84.536-50.39 19.999 0 33.012 4.628 94.056 26.286 16.506 5.851 36.243 13.1 60.696 21.833 11.702 4.192 24.54 8.646 38.6 13.536 19.126 6.638 25.152 9.694 25.152 13.188 0 4.104-7.336 4.977-7.336 8.296 0 2.62 9.868 5.589 19.038 6.463-8.733 6.986-36.242 2.794-36.242-3.93 0-3.581 5.589-5.415 5.589-8.21 0-4.191-16.942-12.575-34.671-14.409 6.987 23.492.961 32.4.961 37.64 0 4.978 7.772 7.51 17.553 5.502 4.891 5.676 12.576 10.654 18.602 12.75-.96 1.572-1.485 4.541-.873 6.288 2.532-.961 6.375-1.834 8.995-1.834 5.24 5.851 7.598 17.553 6.55 24.889-6.113-2.096-13.973-3.231-19.126-3.406-5.327-7.947-13.973-15.37-22.706-19.911-15.196-2.184-38.775 2.183-52.224 7.161 7.074 1.048 20.96.699 27.684-.175 3.056 2.62 8.995 5.764 12.576 7.423-1.048 1.834-1.048 4.542-.437 6.114 2.707-1.572 5.938-2.795 8.558-3.144 5.764 4.366 10.83 14.322 11.965 22.793-5.589-1.048-12.576-1.397-17.379-1.135-9.17-8.908-23.405-17.466-33.623-17.466-11.09 0-21.309 5.676-28.295 5.676-10.742 0-21.484-11.877-38.426-11.877-4.716 0-9.257.873-13.886 2.533.961 9.694 6.638 20.261 10.393 25.413-3.057.35-7.86.262-10.829 0 2.62 3.843 6.288 6.201 8.558 6.812-6.55 3.93-10.567 7.86-12.838 15.283 5.153 1.31 10.655.786 13.712-.699 2.095-2.707 5.414-5.152 8.645-6.025 8.995 5.152 14.061 13.274 14.76 18.95-6.463.612-12.75 2.97-15.982 4.978-5.939-1.834-10.567-2.445-14.497-2.445-7.162 0-13.013 2.271-18.34 2.271-5.415 0-9.082-3.057-9.956-6.114 1.572-4.89 2.97-12.663 2.97-19.038 0-17.553-15.807-31.963-41.57-33.797 6.026 2.882 13.187 7.86 15.632 11.702-5.24 2.358-10.916 8.734-10.916 14.235 0 4.542 3.668 8.821 7.51 10.131 2.096-1.572 5.415-3.144 7.86-3.843 6.55 5.851 10.48 14.759 10.567 21.484-4.716-.524-12.75.611-17.379 1.572-4.279-3.581-7.86-5.677-11.09-7.074-6.376-2.62-11.44-1.747-16.419-3.144-4.105-1.048-7.074-3.843-7.423-6.113 5.152-4.716 10.392-13.624 10.392-22.619 0-12.576-7.51-19.912-14.235-19.912-5.327 0-9.519 4.454-9.519 10.829 0 7.162 5.938 14.323 14.934 15.021-5.24 5.415-11.528 9.258-19.126 9.258-4.629 0-8.122-1.398-10.043-1.398-3.406 0-7.249 1.485-8.908 1.485-.786 0-1.223-.437-1.223-1.223 0-2.707 4.978-8.995 7.948-11.789-5.066-.437-8.559.349-11.965 3.056-4.803 3.755-6.899 9.607-12.838 9.607-5.589 0-7.947-6.725-12.4-10.83-3.145-2.969-5.415-2.969-10.393-7.51-7.86-7.249-9.694-14.934-11.09-16.68-2.534-2.882-13.188-7.598-16.943-14.759m48.992 11.789a8.95 8.95 0 0 0-6.113-8.558c.35-4.017 2.184-7.86 4.367-9.607-1.921-.873-5.415-.524-7.336 1.747-1.747 2.009-2.445 5.327-2.969 8.821-.437 2.707-.786 5.501-1.398 8.034-1.048 4.279-2.969 6.463-4.541 6.812 1.397.873 3.668 1.485 5.502.699 3.057-1.398 4.541-4.629 5.065-8.821 1.398.699 2.708 2.358 2.708 4.192 0 2.533-2.009 4.454-4.804 5.24 5.328.349 9.519-3.581 9.519-8.559m-42.705-56.241c13.449-4.017 22.969-1.572 22.969 5.327 0 4.279-3.232 6.55-3.232 10.917 0 3.93 3.406 5.851 7.249 5.851 8.995 0 16.505-7.511 16.505-17.117 0-9.17-6.899-16.768-19.3-16.768-9.519-.087-19.475 5.24-24.191 11.79"/><path fill="#ffb81c" d="M629.861 495.099c-4.978 0-8.646 4.105-11.79 8.035-9.432 11.79-19.038 18.252-34.059 18.252-23.143 0-45.587-19.562-45.587-43.665 0-14.672 6.55-30.916 6.55-43.055 0-9.344-5.852-14.322-12.227-14.322-2.969 0-5.065 1.659-5.065 2.882 0 2.096 6.986-.612 6.986 9.257 0 11.528-7.772 28.819-7.772 46.897 0 29.081 27.335 52.486 55.63 52.486 16.942 0 29.605-8.034 38.863-20.436 1.309 2.882 4.366 5.066 8.296 5.066 5.677 0 9.956-4.716 9.956-10.829-.088-5.328-4.279-10.568-9.78-10.568m-80.083-46.46c3.755 3.581 17.553 13.799 33.273 24.016 15.72 10.218 30.653 18.689 35.544 20.611 1.048.436 1.747.524 1.834.262.175-.262.087-.524-1.223-1.31-11.004-6.812-22.968-14.497-34.583-22.008a2583 2583 0 0 1-34.147-22.619c-1.31-.873-1.572-.873-1.746-.611-.088.262.262.873 1.048 1.659m.611 21.222c-.087.436-.087.96-.175 1.484-.087.524-.087.961-.174 1.485-.088 3.057 4.628 5.764 7.248 1.397-.174 1.136-.262 2.184-.436 3.319-.088 2.969 4.628 5.764 7.248 1.31-.175 1.135-.262 2.183-.437 3.318-.087 2.97 4.716 5.677 7.336 1.31-.087 1.136-.262 2.184-.349 3.319-.087 2.969 4.716 5.677 7.336 1.223-.088 1.135-.262 2.183-.35 3.318-.349 2.969 4.716 5.589 7.336 1.223l-.349 3.318c-.087 2.97 4.716 5.59 7.423 1.223l-.349 3.319c-.088 3.318 5.327 5.24 7.685 1.31-.087.873-.175 1.397-.262 2.27-.524 4.629 4.629 7.249 8.122 4.629 2.27-1.747 5.327-4.716 7.248-7.161 2.97-3.756-2.27-6.987-5.152-4.629-.786.611-1.485 1.223-2.271 1.834.087-1.31.087-2.62.175-3.93.087-2.707-4.716-5.764-7.249.349.088-1.571.088-3.143.175-4.715.087-2.708-4.716-5.764-7.249.349.088-1.572.175-3.144.175-4.716.087-2.795-4.716-5.764-7.161.262.087-1.572.175-3.144.175-4.803.087-2.708-4.629-5.851-7.162.262.088-1.572.175-3.144.175-4.803.087-2.795-4.628-5.852-7.16.174.086-1.572.174-3.231.261-4.803.087-2.795-4.629-5.939-7.16.175.086-1.572.173-3.232.261-4.804.087-2.794-4.629-5.938-7.074.175.087-1.572.175-3.231.262-4.803.087-2.707-4.192-5.153-6.2-1.572a5.3 5.3 0 0 0-.612 1.223c.087-1.398.175-2.882.262-4.28.087-3.493-5.677-4.978-6.899-1.484-.786 2.27-1.485 8.034-1.572 11.353 0 3.056 4.716 5.327 6.9 1.572M425.33 432.483c0-9.956 6.987-7.161 6.987-9.257 0-1.223-2.096-2.882-5.065-2.882-6.463 0-12.227 4.978-12.227 14.322 0 12.227 6.55 28.383 6.55 43.055 0 24.103-22.444 43.753-45.587 43.753-15.021 0-24.627-6.463-34.059-18.253-3.144-3.93-6.812-8.034-11.79-8.034-5.502 0-9.694 5.24-9.694 10.567 0 6.113 4.28 10.829 9.956 10.829 3.843 0 6.899-2.183 8.297-5.065 9.257 12.314 21.92 20.435 38.862 20.435 28.295 0 55.63-23.404 55.63-52.486-.087-18.165-7.86-35.369-7.86-46.984m-83.925 60.87c4.803-2.009 19.737-10.393 35.544-20.61 15.719-10.218 29.518-20.436 33.273-24.104.873-.786 1.135-1.397.961-1.572-.175-.262-.437-.262-1.747.612a2593 2593 0 0 1-34.147 22.618c-11.527 7.511-23.579 15.109-34.583 22.008-1.31.786-1.397 1.048-1.222 1.31.174.174.873.174 1.921-.262m66.721-35.107c.087 1.397.175 2.882.262 4.279l-.611-1.223c-2.096-3.58-6.375-1.048-6.201 1.572.088 1.572.175 3.231.262 4.803-2.532-6.113-7.161-2.882-7.074-.174.088 1.572.175 3.231.262 4.803-2.532-6.113-7.248-2.969-7.161-.175.088 1.572.175 3.232.262 4.804-2.532-6.114-7.248-2.97-7.161-.175.087 1.572.175 3.144.175 4.803-2.533-6.113-7.249-2.969-7.161-.262.087 1.572.174 3.144.174 4.803-2.445-6.026-7.248-3.056-7.161-.262.087 1.572.087 3.144.175 4.716-2.533-6.113-7.249-3.056-7.249-.262.087 1.572.087 3.144.175 4.716-2.533-6.026-7.249-3.056-7.249-.349.088 1.31.088 2.62.175 3.93-.786-.612-1.485-1.223-2.271-1.834-2.882-2.358-8.121.873-5.152 4.628 1.921 2.446 4.978 5.415 7.248 7.162 3.406 2.619 8.646-.001 8.122-4.629-.087-.873-.175-1.397-.262-2.271 2.358 3.93 7.773 2.009 7.685-1.31-.087-1.048-.262-2.183-.349-3.231 2.707 4.454 7.51 1.834 7.423-1.223l-.349-3.318c2.62 4.366 7.685 1.746 7.336-1.223-.088-1.135-.262-2.183-.35-3.318 2.62 4.454 7.423 1.746 7.336-1.223l-.436-3.319c2.619 4.454 7.423 1.747 7.335-1.31-.174-1.135-.262-2.183-.436-3.318 2.707 4.454 7.423 1.659 7.248-1.31-.174-1.135-.262-2.183-.436-3.319 2.619 4.454 7.335 1.66 7.248-1.397l-.175-1.485c-.087-.524-.087-.96-.174-1.484 2.183 3.668 6.986 1.397 6.899-1.747 0-3.319-.786-9.17-1.572-11.353-1.135-3.493-6.987-2.009-6.812 1.485"/><path fill="#fff" d="M480 399.386c-76.59-57.115-165.668-131.696-220.163-196.583.874 10.218 8.559 31.614 26.375 51.176 47.246 51.613 116.063 108.291 178.942 156.323-11.877 8.646-23.318 16.855-34.147 24.453-.437 2.445 0 8.122.524 10.654.873 2.446 3.668 6.376 5.589 7.948A3270 3270 0 0 0 480 421.568c14.846 11.266 29.343 21.92 42.88 31.789 2.008-1.572 4.716-5.502 5.589-7.948.437-2.532.873-8.121.524-10.654-10.829-7.598-22.27-15.807-34.147-24.453 62.879-48.032 131.696-104.71 178.942-156.323 17.903-19.562 25.589-40.958 26.375-51.176C645.668 267.777 556.59 342.271 480 399.386"/><path fill="#c8102e" d="M340.357 236.25c2.707-.786 4.716-2.707 4.716-5.24 0-1.834-1.31-3.493-2.62-4.192-.524 4.192-2.009 7.424-5.065 8.821.524.174 1.659.524 2.969.611"/><path fill="#003087" d="M679.203 536.668c-7.336 0-13.274 5.939-13.274 13.274s5.938 13.275 13.274 13.275 13.274-5.939 13.274-13.275c-.087-7.335-6.025-13.274-13.274-13.274m0 23.667c-5.764 0-10.392-4.629-10.392-10.393s4.628-10.392 10.392-10.392 10.393 4.628 10.393 10.392-4.629 10.393-10.393 10.393m5.415-13.449c0-2.533-2.009-4.541-4.454-4.541h-6.375v15.195h2.881v-6.113h2.009l2.882 6.113h3.144l-2.969-6.375c1.659-.699 2.882-2.358 2.882-4.279m-4.542 1.659h-3.58v-3.319h3.58c.874 0 1.66.699 1.66 1.66 0 .873-.699 1.659-1.66 1.659"/></svg>