<svg xmlns="http://www.w3.org/2000/svg" viewBox="0 0 960 640"><path fill="#ffb81c" d="M480 598.5c-153.821 0-278.5-124.679-278.5-278.5S326.179 41.5 480 41.5 758.5 166.179 758.5 320 633.821 598.5 480 598.5"/><path fill="#003087" d="M479.826 582.447c-144.922 0-262.359-117.438-262.359-262.359S334.904 57.816 479.826 57.816s262.359 117.438 262.359 262.359-117.438 262.272-262.359 262.272"/><path fill="#fff" d="M578.33 105.105c21.9 7.155 39.786 13.873 38.913 15.88-.785 2.006-19.282-3.316-41.182-10.47-32.893-10.819-73.376-25.913-72.94-27.047s42.316 10.818 75.209 21.637m16.49 182.875c.96 1.309-43.625 19.544-80.269 32.544-24.343 8.638-45.283 15.007-47.028 12.651s17.974-10.382 42.316-19.107c36.732-12.913 84.021-27.397 84.981-26.088m-293.856-72.155c-2.181-4.188-4.537-14.833-4.537-25.826 0-30.799 20.766-41.094 51.303-46.94 5.148-.96 5.933-1.571 9.51-6.718 22.947-33.679 52.088-50.43 84.37-50.43 19.98 0 32.98 4.624 94.055 26.349 16.49 5.846 36.209 13.174 60.638 21.899 11.692 4.188 24.517 8.725 38.565 13.524 19.107 6.631 25.127 9.772 25.127 13.262 0 4.101-7.329 4.973-7.329 8.289 0 2.617 9.86 5.584 19.021 6.456-8.725 6.98-36.209 2.792-36.209-3.926 0-3.577 5.584-5.41 5.584-8.202 0-4.188-16.926-12.563-34.638-14.483 6.98 23.47.96 32.457.96 37.605 0 4.973 7.765 7.503 17.537 5.496 4.886 5.671 12.564 10.645 18.584 12.739-.959 1.57-1.483 4.537-.872 6.369 2.53-.96 6.369-1.832 8.986-1.832 5.323 5.845 7.591 17.537 6.544 24.866-6.107-2.094-13.96-3.316-19.107-3.403-5.323-7.94-13.96-15.356-22.773-19.893-15.181-2.181-38.826 2.181-52.175 7.155 7.068 1.047 21.027.698 27.658-.175 3.054 2.618 8.987 5.758 12.652 7.416-1.047 1.832-1.047 4.537-.437 6.108 2.705-1.571 6.021-2.792 8.551-3.141 5.758 4.362 10.906 14.396 11.953 22.859-5.584-1.047-12.564-1.396-17.363-1.134-9.161-8.9-23.383-17.45-33.591-17.45-11.08 0-21.289 5.758-28.356 5.758-10.731 0-21.463-11.866-38.39-11.866-4.711 0-9.248.873-13.872 2.531.96 9.684 6.631 20.242 10.383 25.389-3.054.349-7.853.262-10.819 0 2.617 3.839 6.282 6.195 8.55 6.806-6.544 3.926-10.557 7.852-12.826 15.268 5.148 1.309 10.645.786 13.786-.698 2.094-2.704 5.409-5.147 8.725-6.02 8.986 5.148 14.047 13.262 14.745 18.933-6.457.611-12.739 2.967-15.967 4.973-5.933-1.832-10.557-2.442-14.483-2.442-7.155 0-13 2.268-18.323 2.268-5.409 0-9.073-3.054-10.033-6.107 1.57-4.886 2.966-12.652 2.966-19.021 0-17.624-15.792-32.02-41.618-33.765 6.021 2.879 13.175 7.852 15.618 11.691-5.235 2.356-10.906 8.725-10.906 14.222 0 4.624 3.664 8.812 7.503 10.121 2.094-1.571 5.41-3.229 7.853-3.839 6.543 5.933 10.47 14.745 10.557 21.463-4.712-.523-12.739.611-17.363 1.571-4.275-3.578-7.852-5.672-11.08-7.068-6.37-2.617-11.43-1.745-16.403-3.141-4.101-1.134-7.068-3.839-7.417-6.107 5.148-4.712 10.383-13.611 10.383-22.598 0-12.564-7.503-19.893-14.309-19.893-5.322 0-9.51 4.45-9.51 10.819 0 7.155 5.933 14.309 14.92 15.007-5.323 5.41-11.517 9.249-19.195 9.249-4.624 0-8.114-1.396-10.034-1.396-3.403 0-7.242 1.483-8.899 1.483-.786 0-1.222-.436-1.222-1.222 0-2.704 5.061-8.986 7.94-11.778-5.061-.436-8.551.349-11.953 3.054-4.799 3.751-6.893 9.597-12.826 9.597-5.584 0-7.94-6.718-12.389-10.819-3.229-2.966-5.41-2.966-10.383-7.503-7.94-7.242-9.772-14.92-11.081-16.665-2.443-3.228-13.174-7.94-16.839-15.094m48.947 11.866c0-4.188-2.705-7.504-6.107-8.551.349-4.1 2.181-7.852 4.362-9.597-1.919-.873-5.409-.524-7.329 1.745-1.745 2.007-2.443 5.322-2.966 8.812-.437 2.705-.786 5.497-1.396 8.027-1.047 4.275-2.967 6.456-4.537 6.805 1.396.873 3.664 1.484 5.496.698 3.054-1.396 4.537-4.624 5.061-8.812 1.396.698 2.705 2.356 2.705 4.188 0 2.53-2.007 4.537-4.799 5.235 5.235.262 9.51-3.664 9.51-8.55m-42.752-56.363c13.436-4.014 22.947-1.571 22.947 5.322 0 4.275-3.229 6.544-3.229 10.906 0 3.926 3.403 5.846 7.242 5.846 8.987 0 16.49-7.504 16.49-17.188 0-9.162-6.893-16.752-19.282-16.752-9.423.087-19.457 5.322-24.168 11.866"/><path fill="#ffb81c" d="M629.895 495.11c-4.974 0-8.638 4.101-11.779 8.027-9.423 11.866-19.108 18.235-34.027 18.235-23.121 0-45.632-19.544-45.632-43.712 0-14.658 6.544-30.886 6.544-43.101 0-9.336-5.846-14.309-12.302-14.309-2.967 0-5.061 1.658-5.061 2.966 0 2.094 6.98-.61 6.98 9.336 0 11.604-7.765 28.792-7.765 46.94 0 29.054 27.309 52.437 55.665 52.437 16.927 0 29.578-8.114 38.826-20.416 1.309 2.879 4.363 5.06 8.289 5.06 5.671 0 9.946-4.711 9.946-10.819 0-5.409-4.188-10.644-9.684-10.644M549.8 448.606c3.751 3.577 17.537 13.785 33.329 24.081 15.792 10.208 30.712 18.671 35.51 20.591 1.047.436 1.745.523 1.833.261.174-.261.087-.523-1.222-1.308-10.993-6.893-23.034-14.484-34.551-21.987a2132 2132 0 0 1-34.201-22.598c-1.31-.872-1.571-.872-1.745-.61-.088.261.174.785 1.047 1.57Zm.61 21.289c-.087.436-.087.96-.174 1.483s-.087.96-.175 1.483c-.087 3.054 4.625 5.759 7.242 1.396-.174 1.135-.262 2.182-.436 3.316-.087 2.966 4.624 5.758 7.329 1.309-.175 1.134-.262 2.181-.436 3.315-.088 2.967 4.711 5.671 7.329 1.309-.088 1.134-.262 2.181-.35 3.315-.087 2.967 4.712 5.671 7.329 1.222-.087 1.134-.261 2.181-.349 3.315-.349 2.967 4.712 5.584 7.329 1.222l-.349 3.315c-.087 2.967 4.712 5.584 7.417 1.222l-.349 3.315c-.088 3.316 5.322 5.235 7.678 1.309-.088.872-.175 1.396-.262 2.268-.524 4.625 4.711 7.242 8.114 4.712 2.268-1.745 5.322-4.712 7.242-7.155 2.966-3.751-2.269-6.98-5.148-4.624-.785.611-1.483 1.222-2.269 1.832.088-1.308.088-2.617.175-3.926.087-2.704-4.712-5.758-7.242.349.087-1.57.088-3.141.175-4.711.087-2.705-4.712-5.759-7.242.349.087-1.571.175-3.141.175-4.712.087-2.792-4.712-5.758-7.155.262.087-1.57.175-3.141.175-4.799.087-2.792-4.625-5.845-7.155.262.087-1.57.175-3.141.175-4.799.087-2.792-4.625-5.845-7.155.175.087-1.571.175-3.228.262-4.799.087-2.792-4.624-5.933-7.154.175.087-1.571.174-3.229.261-4.799.088-2.792-4.624-5.933-7.067.174.087-1.57.175-3.228.262-4.798.087-2.705-4.188-5.148-6.282-1.571-.175.349-.436.698-.61 1.222.086-1.396.174-2.88.261-4.276.087-3.49-5.67-4.973-6.893-1.483-.785 2.269-1.483 8.027-1.57 11.343-.088 2.879 4.711 5.147 6.892 1.483m-125.028-37.343c0-9.946 6.98-7.154 6.98-9.336 0-1.221-2.094-2.966-5.06-2.966-6.457 0-12.215 4.973-12.215 14.309 0 12.215 6.543 28.443 6.543 43.101 0 24.168-22.423 43.712-45.631 43.712-15.007 0-24.692-6.456-34.027-18.235-3.141-3.926-6.806-8.027-11.779-8.027-5.497 0-9.685 5.235-9.685 10.557 0 6.108 4.363 10.819 9.947 10.819 3.839 0 6.892-2.181 8.288-5.06 9.249 12.389 21.9 20.416 38.826 20.416 28.356 0 55.665-23.383 55.665-52.437-.087-18.061-7.852-35.336-7.852-46.853m-84.021 60.813c4.799-2.007 19.805-10.383 35.51-20.591 15.793-10.208 29.491-20.416 33.33-24.081.872-.785 1.134-1.396.959-1.57-.174-.262-.436-.262-1.745.611a2132 2132 0 0 1-34.201 22.597c-11.605 7.504-23.645 15.182-34.551 21.987-1.309.785-1.396 1.047-1.222 1.309.262.174.873.174 1.92-.262m66.746-35.162c.087 1.396.174 2.88.261 4.276l-.61-1.222c-2.094-3.577-6.37-1.047-6.282 1.571.087 1.57.174 3.228.261 4.798-2.53-6.107-7.154-2.966-7.067-.174.088 1.57.175 3.228.262 4.799-2.53-6.108-7.242-2.967-7.154-.175.087 1.571.174 3.228.261 4.799-2.53-6.108-7.241-2.967-7.154-.175.087 1.571.174 3.141.174 4.799-2.53-6.107-7.241-2.966-7.154-.262.087 1.571.174 3.141.174 4.799-2.443-6.02-7.241-3.054-7.154-.262.087 1.571.087 3.141.174 4.712-2.53-6.108-7.241-3.054-7.241-.349.087 1.57.087 3.141.174 4.711-2.53-6.02-7.329-3.054-7.241-.349.087 1.309.087 2.618.174 3.926-.785-.61-1.483-1.221-2.268-1.832-2.88-2.356-8.115.873-5.148 4.624 1.919 2.443 4.973 5.41 7.242 7.155 3.402 2.617 8.637 0 8.114-4.712-.088-.872-.175-1.396-.262-2.268 2.356 3.926 7.765 2.007 7.678-1.309-.087-1.134-.262-2.181-.349-3.315 2.705 4.449 7.503 1.832 7.416-1.222l-.349-3.315c2.618 4.449 7.678 1.745 7.329-1.222-.087-1.134-.262-2.181-.349-3.315 2.618 4.45 7.416 1.745 7.329-1.222l-.436-3.315c2.617 4.45 7.416 1.745 7.329-1.309-.175-1.134-.262-2.181-.437-3.315 2.705 4.449 7.417 1.657 7.329-1.309-.174-1.134-.261-2.181-.436-3.316 2.618 4.45 7.329 1.658 7.242-1.396l-.175-1.483c-.087-.523-.087-.96-.174-1.483 2.181 3.664 6.98 1.396 6.893-1.745 0-3.316-.786-9.161-1.571-11.343-1.047-3.228-6.893-1.744-6.805 1.745"/><path fill="#c8102e" d="M340.314 236.239c2.705-.785 4.799-2.792 4.799-5.235 0-1.832-1.309-3.49-2.618-4.188-.523 4.188-2.007 7.417-5.06 8.813.523.174 1.657.523 2.879.61"/><path fill="#fff" d="M480 399.31c-76.518-57.061-165.512-131.572-219.956-196.398.873 10.208 8.551 31.584 26.35 51.128 47.202 51.565 115.954 108.189 178.774 156.177-11.866 8.637-23.296 16.839-34.115 24.429-.436 2.443 0 8.115.524 10.645.872 2.443 3.664 6.369 5.584 7.94A3282 3282 0 0 0 480 421.472c14.833 11.255 29.316 21.899 42.84 31.759 2.006-1.571 4.711-5.497 5.584-7.94.436-2.53.872-8.114.523-10.645-10.819-7.59-22.249-15.792-34.114-24.429 62.819-47.988 131.572-104.612 178.774-156.177 17.886-19.544 25.564-40.92 26.349-51.128C645.512 267.826 556.518 342.249 480 399.31m199.19 137.418c-7.329 0-13.262 5.933-13.262 13.262s5.933 13.262 13.262 13.262 13.262-5.933 13.262-13.262c-.087-7.329-5.933-13.262-13.262-13.262m0 23.645c-5.758 0-10.382-4.624-10.382-10.383s4.624-10.383 10.382-10.383 10.383 4.625 10.383 10.383c0 5.671-4.624 10.383-10.383 10.383m5.41-13.524c0-2.53-2.007-4.537-4.45-4.537h-6.369v15.094h2.879v-6.194h2.007l2.879 6.194h3.141l-2.966-6.369c1.657-.611 2.879-2.268 2.879-4.188m-4.45 1.658h-3.577v-3.316h3.577c.873 0 1.658.698 1.658 1.658-.087.96-.785 1.658-1.658 1.658"/></svg>