<svg width="500" height="500" viewBox="0 0 500 500" fill="none" xmlns="http://www.w3.org/2000/svg">
<path d="M347.508 126.739C435.24 193.503 368.475 203.499 299.956 213.249C299.956 213.249 271.043 205.278 220.949 180.383C107.322 123.951 143.09 97.3583 232.396 81.2699C89.4701 19.0073 -29.6513 127.419 101.762 232.831L65.6983 258.611C95.3249 276.766 156.694 314.863 147.772 373.19L117.317 394.961L210.346 437.117L283.753 403.858C284.286 371.55 342.022 354.773 366.868 289.058C503.619 257.685 468.794 137.391 347.516 126.747L347.508 126.739Z" fill="white"/>
<path d="M285 219.408C113.333 153.103 101.96 98.7119 209.118 79.9175C75.1049 43.5013 -3.05746 140.622 129.537 233.241L93.9567 258.669C131.734 283.909 171.775 321.293 158.187 380.12L140.262 392.92L209.109 424.129C273.184 353.953 306.706 285.762 284.992 219.408H285ZM241.729 326.172L215.358 296.176L185.075 300.686L199.073 277.628L172.701 247.608L207.724 263.368L221.688 240.31L229.331 273.093L264.353 288.829L234.062 293.364L241.729 326.164V326.172Z" fill="#021018"/>
<path d="M372.139 137.186C431.056 183.311 390.147 212.782 318.323 220.785C336.494 297.381 280.775 367.54 221.792 421.865L275.88 397.364C279.881 366.228 334.756 350.042 360.758 280.957C482.897 253.708 462.963 166.05 372.139 137.178V137.186Z" fill="#EB0028"/>
</svg>
