<?xml version="1.0" encoding="utf-8"?>
<!-- Generator: Adobe Illustrator 26.1.0, SVG Export Plug-In . SVG Version: 6.00 Build 0)  -->
<svg version="1.1" id="Layer_2" xmlns="http://www.w3.org/2000/svg" xmlns:xlink="http://www.w3.org/1999/xlink" x="0px" y="0px"
	 viewBox="0 0 400 400" style="enable-background:new 0 0 400 400;" xml:space="preserve">
<style type="text/css">
	.st0{fill:#BC945C;}
	.st1{fill:#860038;}
</style>
<g>
	<path d="M299.8,175.5c0-1.8,0-3.9-0.1-6.2l0-0.4c0-0.7,0-1.4,0-2.1l0-1c0-1.2,0-2.6,0-4.2c-0.1-14.4-0.8-43.1-2.1-58.8
		c-0.1-1.4-0.2-2.6-0.3-3.8L297,96l-2.5-1.9c-1.9-1.5-4.1-3-6.6-4.5c-4.9-3-11-6.2-18.2-9.3c-29.1-14.2-67.5-27.3-67.8-27.4
		l-1.7-0.6l-1.7,0.6c-0.3,0.1-34.7,12.2-62.9,25.6c-5.5,2.4-10.5,4.7-14.8,6.9c-6,3.1-11,6.2-14.8,9.2l-2.5,1.9l-0.3,3.1
		c-0.2,2.3-0.4,5.1-0.6,8.5c-1,16.5-1.4,41.3-1.5,54c0,1.5,0,2.9,0,4.2l0,0.1l0,0.9c0,0.7,0,1.4,0,2.2l0,0.4c0,2.3,0,4.4,0,6.2
		c0.1,59.7,26.2,102.7,48.1,128.3c23.6,27.7,47.1,41.2,48.1,41.7l3.6,2.1l3.6-2.1c1-0.6,24.4-14.2,47.8-41.9
		C274,278.4,299.9,235.2,299.8,175.5"/>
	<path class="st0" d="M254.8,306.2c22.1-26.1,48.3-69.9,48.2-130.6c0-1.8,0-3.9,0-6.2l0-0.4c0-0.7,0-1.4,0-2.1l0-1
		c0-1.3,0-2.7,0-4.2c-0.1-14.5-0.8-43.3-2.1-59c-0.1-1.5-0.2-2.7-0.3-3.8l-0.3-3.1l-0.1-1.4l-1.1-0.8l-2.5-1.9
		c-2-1.5-4.3-3.1-6.9-4.7c-5-3.1-11.3-6.3-18.5-9.5c-29.1-14.2-67.8-27.4-68.2-27.6l-1.7-0.6l-1-0.4l-1.1,0.4l-1.7,0.6
		c-0.3,0.1-34.7,12.2-63.1,25.8c-5.6,2.4-10.6,4.7-15,7c-6.2,3.2-11.3,6.4-15.3,9.5l-2.5,1.9l-1.1,0.9l-0.1,1.4l-0.3,3.1
		c-0.2,2.3-0.4,5.2-0.6,8.6c-1,16.5-1.4,41.4-1.5,54.2c0,1.5,0,2.9,0,4.2l0,0.1l0,0.8c0,0.8,0,1.5,0,2.2l0,0.3c0,2.4,0,4.5,0,6.2
		c0.2,60.7,26.6,104.4,48.8,130.4c24,28.1,47.9,41.9,48.9,42.4l3.6,2.1l1.6,0.9l1.6-0.9l3.6-2.1C207.1,348.2,231,334.4,254.8,306.2
		 M204.4,346l-3.6,2.1l-3.6-2.1c-1-0.6-24.4-14.1-48.1-41.7c-21.8-25.6-47.9-68.6-48.1-128.3c0-1.8,0-3.9,0-6.2l0-0.4
		c0-0.7,0-1.4,0-2.2l0-0.9l0-0.1c0-1.2,0-2.6,0-4.2c0.1-12.7,0.5-37.6,1.5-54c0.2-3.4,0.4-6.2,0.6-8.5l0.3-3.1l2.5-1.9
		c3.8-2.9,8.8-6,14.8-9.2c4.3-2.2,9.3-4.6,14.8-6.9C163.7,65,198,52.9,198.3,52.8l1.7-0.6l1.7,0.6c0.4,0.1,38.8,13.2,67.8,27.4
		c7.2,3.2,13.3,6.3,18.2,9.3c2.5,1.5,4.7,3,6.6,4.5l2.5,1.9l0.3,3.1c0.1,1.1,0.2,2.4,0.3,3.7c1.3,15.6,1.9,44.3,2.1,58.8
		c0,1.5,0,2.9,0,4.2l0,1c0,0.7,0,1.4,0,2.1l0,0.4c0,2.3,0.1,4.4,0.1,6.2c0.1,59.7-25.7,102.9-47.4,128.5
		C228.7,331.8,205.4,345.5,204.4,346"/>
	<path class="st1" d="M306.9,168.7c0-0.7,0-1.3,0-2l0-1c0-1.3,0-2.7,0-4.2c-0.1-14.5-0.8-43.5-2.1-59.3c-0.1-1.5-0.2-2.8-0.4-3.9
		l-0.3-3.1l-0.1-1.4l-0.2-1.7l-1.3-1l-1.1-0.8l-2.5-1.9c-2.1-1.6-4.5-3.3-7.2-4.9c-5.2-3.2-11.6-6.4-19-9.8
		c-29-14.2-66.9-27.1-68.5-27.7l-1.7-0.6l-1-0.4l-1.3-0.4l-1.3,0.4l-1,0.4l-1.7,0.6c-0.3,0.1-35,12.3-63.5,25.9
		c-5.5,2.4-10.6,4.7-15.1,7.1c-6.4,3.3-11.7,6.6-15.9,9.9l-2.5,1.9L98,91.7l-1.3,1l-0.2,1.7l-0.1,1.4l-0.3,3.1
		c-0.2,2.4-0.5,5.3-0.7,8.8c-1,16.6-1.4,41.6-1.5,54.4c0,1.5,0,2.9,0,4.2l0,0l0,0.2l0,0.8c0,0.8,0,1.6,0,2.3l0,0.3
		c0,2.3,0,4.4,0,6.1c0.2,61.9,27.2,106.4,49.8,132.9c24.4,28.6,48.9,42.7,49.9,43.3l3.6,2.1l1.6,0.9l1.9,1.1l1.9-1.1l1.6-0.9
		l3.6-2.1c1-0.6,25.4-14.7,49.7-43.5c22.5-26.6,49.3-71.3,49.1-133.2c0-1.8,0-3.9,0-6.2l0-0.3L306.9,168.7z M202.5,350.9l-1.6,0.9
		l-1.6-0.9l-3.6-2.1c-1-0.6-24.9-14.4-48.9-42.4c-22.2-26-48.7-69.7-48.8-130.4c0-1.7,0-3.8,0-6.2l0-0.3c0-0.7,0-1.5,0-2.2l0-0.8
		l0-0.2c0-1.3,0-2.7,0-4.2c0.1-12.7,0.5-37.7,1.5-54.2c0.2-3.4,0.4-6.3,0.6-8.6l0.3-3.1l0.1-1.4l1.1-0.9L104,92
		c3.9-3.1,9.1-6.3,15.3-9.5c4.4-2.3,9.4-4.6,15-7c28.4-13.6,62.8-25.6,63.1-25.8l1.7-0.6l1.1-0.4l1,0.4l1.7,0.6
		c0.4,0.1,39.1,13.3,68.2,27.6c7.3,3.2,13.5,6.4,18.5,9.5c2.6,1.6,4.9,3.2,6.9,4.7l2.5,1.9l1.1,0.8l0.1,1.4l0.3,3.1
		c0.1,1.1,0.2,2.3,0.3,3.8c1.3,15.7,1.9,44.5,2.1,59c0,1.5,0,2.9,0,4.2l0,1c0,0.7,0,1.4,0,2.2l0,0.4c0,2.3,0,4.4,0,6.2
		c0.2,60.7-26.1,104.5-48.2,130.6c-23.8,28.2-47.7,42.1-48.7,42.7L202.5,350.9z"/>
	<path class="st0" d="M253,208.1l0-7.7l-1.9-1.9c-24.2-22.9-76,7.4-93.5,22l-8.7,13.5l10.8-2.7c-16.5,20.9-10.6,34.5-9.9,35.9
		c1.8,4.9,5.8,8.8,12.2,11.4c4.9,1.9,10.5,2.2,15.3,1.9c20.6-1,45-13.9,60.7-27.7l0.4-0.3l3.1-15.8l-6.1,3.4
		c-21.2,9.4-38.3,14.6-38.3,14.6c-11.2,3.5-16.3,4.1-20,3.3l-0.4-0.1c-1-0.4-1.2-1.3-1.2-1.6c-0.2-7,11.8-22.1,17.9-28.6
		c5.6-6.1,14.5-12.8,22-16c5-2.1,8.3-3,9.8-2.8c-0.4,1.3-1.1,2.9-2.1,4.9c0,0-8,15.9-8.4,16.6L253,208.1z"/>
	<path class="st1" d="M205.2,207.1c-6.9,3.7-14.9,11.1-17.3,13.7c-20.2,21.7-34.4,50.6,10,36.6c0,0,17.3-5.3,38.7-14.7
		c-60.6,51.4-117.9,30.1-61.7-23.9c-5.1,1.2-10.3,2.3-15.4,3.7c18-15,67.4-43,89.6-22l-23.6,14.5
		C235.6,195.2,217.4,199.9,205.2,207.1"/>
	<polygon class="st0" points="160.7,100.3 163.6,103.2 163.6,105.3 160.4,108.6 160.4,104 159.9,103.6 158.1,103.6 157.7,104.1 
		157.7,116.4 158.1,116.8 160,116.8 160.4,116.4 160.4,114.5 163.7,111.2 163.7,117.2 160.8,120.1 157.3,120.1 154.4,117.2 
		154.4,103.2 157.3,100.4 	"/>
	<polygon class="st0" points="168.6,100.3 168.6,116.8 173.6,116.8 173,120.1 165.4,120.1 165.3,101.3 165.1,100.3 	"/>
	<polygon class="st0" points="182.3,100.3 182.3,103.6 178.2,103.6 178.2,107.9 181.5,107.9 181.5,110.8 178.2,110.8 178.2,116.8 
		182.4,116.8 182.4,120.1 175,120.1 174.9,101.5 174.7,100.3 	"/>
	<polygon class="st0" points="194.2,100.3 191.3,120 187.7,120 185.8,117.6 183.5,100.3 186.7,100.3 188.9,116.5 190.9,100.3 	"/>
	<polygon class="st0" points="202.9,100.2 202.9,103.5 198.8,103.5 198.8,107.9 202.1,107.9 202.1,110.7 198.8,110.8 198.8,116.7 
		202.9,116.7 202.9,120 195.5,120 195.5,101.5 195.3,100.3 	"/>
	<polygon class="st0" points="207.8,100.2 207.9,116.7 212.8,116.7 212.2,120 204.6,120 204.6,101.2 204.4,100.2 	"/>
	<path class="st0" d="M221.5,100.2l2.9,19.8l-3.3,0l-0.5-3.9l-3.1,0L217,120l-3.3,0l2.6-18.5l-0.2-1.2L221.5,100.2z M217.9,112.8
		l2.3,0l-1.2-9.1L217.9,112.8z"/>
	<polygon class="st0" points="235,119.9 231.9,119.9 228.8,109.2 228.8,109.2 228.8,119.9 225.5,120 225.5,101.4 225.2,100.2 
		228.6,100.2 231.7,110.2 231.6,100.2 234.9,100.2 	"/>
	<path class="st0" d="M246.1,103l0,14.2l-2.7,2.7l-6.8,0l0-18.6l-0.2-1.2l6.8,0L246.1,103z M242.8,103.8l-0.4-0.4l-2.5,0l0,13.2
		l2.5,0l0.4-0.4L242.8,103.8z"/>
	<polygon class="st0" points="122.8,127.4 129,133.5 129,137.9 122.1,144.8 122,135.3 121.1,134.4 117.2,134.4 116.3,135.3 
		116.4,161.4 117.3,162.3 121.2,162.3 122.1,161.4 122.1,157.3 129,150.4 129,163.1 123,169.2 115.6,169.2 109.5,163.1 109.4,133.5 
		115.5,127.5 	"/>
	<path class="st0" d="M147.2,127.4l6.2,41.7l-7,0l-1.1-8.2l-6.6,0l-1,8.2l-6.9,0l5.5-39.2l-0.4-2.6L147.2,127.4z M139.6,153.9l4.9,0
		l-2.4-19.1L139.6,153.9z"/>
	<polygon class="st0" points="174.2,127.3 168.3,169.1 160.6,169.1 156.7,163.9 151.6,127.4 158.5,127.4 163,161.7 167.3,127.3 	"/>
	<path class="st0" d="M189.2,127.3l6.2,41.7l-7,0l-1.1-8.2l-6.6,0l-1,8.2l-6.9,0l5.5-39.2l-0.4-2.6L189.2,127.3z M181.6,153.8l4.9,0
		l-2.4-19.1L181.6,153.8z"/>
	<polygon class="st0" points="204.7,127.2 204.8,162 215.3,162 214,169 197.9,169 197.8,129.4 197.4,127.3 	"/>
	<polygon class="st0" points="225,127.2 225.1,168.9 218.1,169 218,129.8 217.6,127.2 	"/>
	<polygon class="st0" points="244.2,127.1 244.2,134.1 235.5,134.1 235.5,143.2 242.5,143.2 242.5,149.3 235.5,149.3 235.6,162 
		244.3,161.9 244.3,168.9 228.6,168.9 228.5,129.8 228.1,127.2 	"/>
	<path class="st0" d="M261.7,127.1l6.1,6l0,10.4l-5.7,3.9l5.8,7.4l0,13.9l-6.9,0l0-11.3l-4.3-6.4l-1.8,1.2l0,16.5l-6.9,0l-0.1-39.1
		l-0.4-2.6L261.7,127.1z M254.7,145.4l6.1-4.4l0-6.1l-0.9-0.9l-5.2,0L254.7,145.4z"/>
	<polygon class="st0" points="284.3,140.1 284.3,134.9 283.4,134 279.1,134 278.2,134.9 278.2,140.1 291.3,150.5 291.3,162.7 
		285.3,168.8 277.5,168.8 271.4,162.7 271.3,150.6 278.3,154.9 278.3,161 279.2,161.9 283.5,161.8 284.4,161 284.4,154 271.3,143.6 
		271.3,133.1 277.4,127.1 285.2,127 291.3,133.1 291.3,144.4 	"/>
</g>
</svg>
