<svg width="500" height="500" viewBox="0 0 500 500" fill="none" xmlns="http://www.w3.org/2000/svg">
<path fill-rule="evenodd" clip-rule="evenodd" d="M424.999 142.129C371.147 108.135 247.797 82.1328 155.789 60.7429L50 174.451L140.806 172.511C95.5915 245.56 104.806 417.334 219.143 440.168C213.256 428.885 203.036 408.156 216.285 382.494C225.721 364.241 278.179 263.895 278.179 263.895C286.604 263.895 276.967 263.895 290.737 263.895C307.741 263.895 313.339 270.287 305.796 279.3C351.125 278.723 378.958 261.584 391.449 243.269C381.94 225.872 351.692 205.39 339.429 197.089C383.333 197.089 395.39 197.089 402.85 197.089C421.036 197.089 425.138 204.709 420.856 213.005C450.537 207.17 465.71 167.826 424.999 142.129Z" fill="#A5ACAF"/>
<path fill-rule="evenodd" clip-rule="evenodd" d="M417.755 145.596C344.408 104.457 162.79 77.0356 162.79 77.0356L84.9895 160.372H165.653C106.096 239.064 119.293 397.915 206.875 430.939C200.663 416.168 197.516 399.024 208.711 377.211C221.346 352.612 241.457 311.261 270.265 256.058C270.265 256.058 288.766 256.058 293.776 256.058C313.288 256.058 319.525 264.308 316.878 270.674C332.923 270.674 362.258 269.101 383.545 243.269C365.813 218.495 307.179 189.609 307.179 189.609C307.179 189.609 401.272 189.609 407.767 189.609C422.548 189.609 429.936 194.866 427.893 203.77C453.591 191.223 446.91 161.945 417.755 145.596Z" fill="white"/>
<path fill-rule="evenodd" clip-rule="evenodd" d="M157.656 88.6541C157.656 88.6541 353.023 117.282 414.706 151.121C443.092 166.697 441.219 188.154 432.825 195.237C432.975 187.576 425.448 181.875 411.869 181.875H279.242L293.497 189.51C293.497 189.51 208.139 359.474 201.587 372.888C194.023 388.386 191.949 405.788 198.465 420.285C181.579 409.58 168.32 392.353 158.987 371.355L151.409 370.839L231.922 252.7C231.752 251.941 231.602 251.173 231.468 250.409L150.181 346.235C146.017 330.779 143.618 314.12 143.102 297.033L133.893 294.726L233.754 215.931C234.001 215.095 234.265 214.264 234.533 213.433L143.979 268.394C145.346 253.236 148.2 238.084 152.6 223.458L143.231 218.154L249.809 182.633C250.284 181.906 250.769 181.184 251.254 180.472L161.794 198.751C166.623 187.989 172.386 177.706 179.149 168.188L170.864 160.372H277.849C278.148 159.773 278.443 159.185 278.737 158.607L119.448 146.426L164.74 97.6671L157.656 88.6541ZM300.555 197.812L298.703 192.312C298.703 192.312 363.533 224.03 376.136 243.269C369.497 252.101 359.343 258.287 345.749 261.393C354.437 254.722 356.083 248.309 350.743 248.309H331.525C328.244 251.539 326.495 257.374 330.896 263.256C323.467 261.63 316.311 255.517 315.759 248.309H275.068C280.501 237.439 296.18 206.371 300.555 197.812Z" fill="black"/>
<path fill-rule="evenodd" clip-rule="evenodd" d="M421.718 163.348L423.42 170.881C411.812 173.063 391.273 174.802 385.469 175.271C385.186 175.849 384.892 176.427 384.592 177.02C389.54 177.02 405.074 177.02 415.165 177.02C427.295 177.02 432.402 182.773 433.481 186.08C435.07 181.555 433.604 169.421 421.718 163.348ZM387.719 148.459C394.498 150.719 409.754 159.231 415.532 165.892H404.569C400.245 158.782 387.719 148.459 387.719 148.459Z" fill="#FFFFFE"/>
<path fill-rule="evenodd" clip-rule="evenodd" d="M158.404 242.598L223.559 207.021C223.91 206.138 224.276 205.251 224.658 204.369L161.954 226.899C160.561 232.068 159.379 237.315 158.404 242.598ZM187.538 172.036C184.664 175.973 181.997 180.069 179.516 184.3L243.247 172.913C243.804 172.181 244.371 171.448 244.939 170.731L187.538 172.036ZM227.97 289.237C227.547 288.478 227.135 287.71 226.732 286.946L173.825 366.722C176.601 371.979 179.67 376.896 183.008 381.41L227.97 289.237ZM157.3 314.553L216.115 248.944C216.068 248.005 216.037 247.071 216.017 246.137L155.396 297.667C155.804 303.378 156.449 309.022 157.3 314.553ZM340.445 239.446L294.271 232.553L289.586 241.623H339.357C339.728 240.885 340.089 240.158 340.445 239.446ZM372.339 156.889L160.937 127.637L173.871 113.629C245.078 124.634 330.24 142.031 373.479 154.624C373.113 155.362 372.726 156.12 372.339 156.889Z" fill="#A71930"/>
</svg>
