<?xml version="1.0" encoding="utf-8"?>
<!-- Generator: Adobe Illustrator 24.0.1, SVG Export Plug-In . SVG Version: 6.00 Build 0)  -->
<svg version="1.1" id="Layer_1" xmlns="http://www.w3.org/2000/svg" xmlns:xlink="http://www.w3.org/1999/xlink" x="0px" y="0px"
	 viewBox="0 0 400 400" style="enable-background:new 0 0 400 400;" xml:space="preserve">
<style type="text/css">
	.st0{fill:#BEC0C2;}
	.st1{fill:#002D62;}
	.st2{fill:#FDBB30;}
	.st3{fill:#FFFFFF;}
</style>
<g>
	<path class="st0" d="M349.8,200.2c0,82.7-67,149.8-149.8,149.8c-82.7,0-149.8-67-149.8-149.8c0-82.7,67-149.8,149.8-149.8
		C282.8,50.5,349.8,117.6,349.8,200.2z"/>
	<path class="st1" d="M341.2,200.2c0,77.9-63.1,141.2-141.2,141.2S58.8,278.2,58.8,200.2S122.1,59.1,200,59.1
		C278,59.1,341.2,122.2,341.2,200.2z"/>
	<path class="st2" d="M200,65.6c-74.3,0-134.5,60.2-134.5,134.6c0,74.3,60.2,134.5,134.5,134.5s134.5-60.2,134.5-134.5
		C334.6,126,274.3,65.6,200,65.6z"/>
	<path class="st1" d="M292.1,200.2c0,51.9-41.3,94-92.1,94c-50.9,0-92.1-42.1-92.1-94s41.2-94,92.1-94
		C250.9,106.2,292.1,148.3,292.1,200.2z"/>
	<path class="st3" d="M286.2,200.2c0,48.6-38.6,87.9-86.2,87.9c-47.6,0-86.2-39.4-86.2-87.9s38.6-87.9,86.2-87.9
		C247.7,112.3,286.2,151.7,286.2,200.2z"/>
	<polygon class="st1" points="105.5,173.9 104.6,177.4 77,170.6 78,167 	"/>
	<polygon class="st1" points="109.3,131.6 121.2,140.7 119.1,143.4 96.7,126.2 97.8,124.6 114.1,128.9 101.8,119.5 103.9,116.7 
		126.3,133.9 125.2,135.6 	"/>
	<path class="st1" d="M153,108.8l1.5-0.8c1.5-0.7,1.7-2.1,1.2-3.2c-2.9-5.8-5.1-9.8-8-15.6c-0.6-1.2-1.9-1.6-3.1-1l-1.7,0.9
		L153,108.8z M138.3,88.1l5.6-2.8c2.4-1.2,5.4-1.1,6.9,1.8c3.5,7,5.2,10,8.7,16.9c1.4,2.8-0.2,5.3-2.4,6.4l-5.8,2.9L138.3,88.1z"/>
	<polygon class="st1" points="196.5,100.2 192.9,100.4 191.3,72.1 195,71.9 	"/>
	<path class="st1" d="M241.7,88.4l-0.2-0.1l-5.8,9.5l3.8,1.4L241.7,88.4z M237.7,107.7l1.2-5.5l-4.8-1.8l-2.8,4.9L228,104l15.1-24.6
		l3.5,1.3l-5.4,28.3L237.7,107.7z"/>
	<polygon class="st1" points="279.8,118.8 268.9,129 266.6,126.6 287.2,107.1 288.4,108.4 281.7,123.9 293,113.3 295.3,115.7 
		274.7,135.2 273.4,133.7 	"/>
	<path class="st1" d="M311.5,162.4l-0.1-0.2l-11,1.5l1.3,3.8L311.5,162.4z M294,171.5l5-2.5l-1.6-4.9l-5.6,0.9l-1.1-3.4l28.6-3.8
		l1.2,3.5L295.2,175L294,171.5z"/>
	<path class="st1" d="M99.6,252.9l2,3.8l10-5.3l-2-3.8L99.6,252.9z M87.3,259.3l-1.7-3.2l25.1-13.1l4.1,8c0.8,1.6,0.4,2.8-0.8,3.4
		c-4.5,2.3-6.8,3.5-11.2,5.9c-1.3,0.7-2.5,0.3-3.3-1.1l-2.5-4.9L87.3,259.3z"/>
	<path class="st1" d="M134.4,287.1l-0.2-0.2l-8.3,7.3l3.1,2.5L134.4,287.1z M124.7,304.4l2.7-4.9l-4-3.2l-4.1,3.7l-2.8-2.2
		l21.8-18.9l2.9,2.3l-13.5,25.5L124.7,304.4z"/>
	<path class="st1" d="M175,317l3.5,0.9l-1.8,7.3c-0.3,1.3-1.5,2-2.7,1.7c-2.5-0.6-4.3-1.1-6.9-1.7c-1.3-0.3-2-1.5-1.7-2.8
		c2.2-9,3.4-14,5.7-23c0.3-1.3,1.5-2,2.7-1.7c2.5,0.6,4.4,1.1,7,1.7c1.2,0.3,1.9,1.5,1.6,2.8L181,308l-3.5-0.8l1.2-5.1l-4.3-1
		l-5.3,21.6l4.3,1L175,317z"/>
	<polygon class="st1" points="227.1,326.7 218,328.4 213.1,300.5 222.1,298.9 222.6,301.9 217.1,302.8 218.7,312 223.9,311 
		224.4,314.1 219.3,315 221,324.7 226.5,323.8 	"/>
	<path class="st1" d="M268.8,308.9l-3,2l-16-23.5l7.8-5.3c1.4-1,2.6-0.5,3.3,0.6c2.2,3.2,3.6,5.4,5.9,8.6c0.9,1.3,0.5,2.6-0.6,3.3
		l-0.4,0.3l10.3,8.9l-3.3,2.3L261.1,296l-0.1-1.3l2.4-1.6l-5.2-7.5l-3.8,2.6L268.8,308.9z"/>
	<path class="st1" d="M297.7,266.2l5.7,3.5l1.6-2.6l-5.5-3.4l-10.5,0.5c-0.7,0-1.4,0-1.9-0.4c-2-1.3-2.9-1.9-5.2-3.2
		c-1-0.6-1.4-2-0.7-3.1c1.1-1.8,2-3.2,3.2-5.1c0.8-1.2,2-1.3,3.1-0.6l5,3.1l-1.9,3l-4.4-2.7l-1.6,2.6l4.3,2.6l10-0.6
		c1,0,1.8,0,2.5,0.5c2.6,1.7,3.5,2.2,6.3,3.9c1.1,0.7,1.5,2,0.8,3.1c-1.1,1.8-2,3.2-3.2,5.1c-0.6,1-1.9,1.4-3.1,0.6l-6.3-3.9
		L297.7,266.2z"/>
	<path class="st0" d="M172.5,146.8l-23.3,105.9h46.1c0,0,5.2-21,5.6-23c2,0,20,0,20,0c15,0.1,27.2-5,35.5-14.7
		c15.1-16.4,12.4-40.4,1.1-54c-8.1-9.8-19.8-15.3-32.9-15.3h-51.9L172.5,146.8z"/>
	<path class="st1" d="M197.6,225.5l-5.6,23h-37.6l21.8-98.5h48.5c12,0,22.5,5,29.8,13.8c10.7,13,11.8,34.6-1.1,48.6
		c-7.9,9.2-19.5,13.4-32.3,13.3L197.6,225.5z"/>
	<path class="st2" d="M171.1,172.5h21.3c2.4,0,5.1,2,3.9,5.2c-0.7,1.9-1.2,4.1-1.5,6.3c-0.2,1.6,1.6,2.6,2.6,2.6h43.3
		c0.8,0,1.2-0.2,1.2-0.6s0-1.8-0.2-2.8c-0.2-0.9-0.3-1.1-1.1-1.1c-5.4,0-7.6-2.4-13.3-6.1s-14-5.8-21.2-5.8h-34.8L171.1,172.5z"/>
	<path class="st2" d="M197.4,200.5c-0.8-1.6-1.4-3.5-1.9-5.3c-0.5-2.2-2.4-4-5.8-4h-22.8l0.6-2.5l73.9,0.1c0.7,0,0.6,0.3,0.5,1.1
		c0,0.8-0.2,2.3-0.3,3.2c-0.1,0.9-0.8,0.7-1.5,0.7c-1.7,0-4.8,0.4-6.6,1.8c-3,2.3-9.6,6.4-13.3,7.5
		C216.3,204.3,201.6,208.8,197.4,200.5"/>
	<path class="st2" d="M162.9,209.8h38.6c1.7,0,3.1,0.4,4.4,1.3c3.2,2.6,7.5,4.7,11.9,6c2,0.6,5.5-0.2,8.6-1.9
		c7.7-4.4,12.6-12.6,14.4-18c0.4-1.4-0.4-1.3-1.4-1.2c-3.2,0.2-6.7,3.1-11.1,6.1c-4.6,2.8-13.7,5.6-22.4,5.6h-42.3L162.9,209.8z"/>
	<path class="st2" d="M219.5,158.1c0.5-0.1,2.5-0.2,3.5,0.2c7.4,2.9,14.3,10.5,17.2,18.6c0.6,1.6,0.7,2.5,0,2.6
		c-3.3,0.4-4.9-1.3-8.9-3.9c-3.9-2.6-7.6-4.5-12.5-6.1c-5-1.5-14-1.8-15.1-1.8s-1-0.5-0.5-1C207.5,162.4,213.3,159.2,219.5,158.1z"
		/>
	<path class="st2" d="M254.6,186c0,0.3-0.3,0.7-0.7,0.7h-8.5c-1.1,0-1.1-0.5-1.1-1.1c-0.1-0.6-0.2-1.8-0.2-2.6
		c0-0.7-0.3-1.5,0.6-1.9c2.3-1,4.6-3.3,5.6-5.3c0.3-0.7,0.8-1.7,1.4-0.8C253.8,178.1,254.4,182,254.6,186z"/>
	<path class="st2" d="M251.6,201.1c-0.1,0.3-0.7,0.5-0.8,0c-1.2-3.3-4.1-5.6-6.2-6.7c-0.6-0.3-0.6-0.7-0.6-1.3
		c0.1-0.6,0.3-2.5,0.4-3.3c0-0.6,0.3-1.1,0.8-1.1h8.8c0.3,0,0.7,0.3,0.7,0.5C254.6,193.4,253.4,197.6,251.6,201.1z"/>
	<path class="st2" d="M228.7,217.6c-0.6,0.1-2-0.1,0.1-1.3c6.4-3.7,12.1-12.4,13.7-17.5c0.6-1.9,0.6-2,1.4-1.8
		c1,0.3,2.5,1.6,3.7,3.2c1.2,1.6,1.7,4.9,1,5.7C244,212.2,236.7,216.5,228.7,217.6z"/>
	<path class="st2" d="M245,178.2c-1.5,0.8-1.8,0.6-2.1-0.5c-2.8-9.7-11-17-14.4-19.1c-0.6-0.4-0.5-0.7,0-0.6
		c8,1.1,15.9,5.5,19.8,11.4C250.7,172.8,246.4,177.4,245,178.2z"/>
</g>
</svg>
