<?xml version="1.0" encoding="UTF-8"?>
<svg id="Layer_1" xmlns="http://www.w3.org/2000/svg" version="1.1" viewBox="0 0 512 512">
  <!-- Generator: Adobe Illustrator 29.6.0, SVG Export Plug-In . SVG Version: 2.1.1 Build 207)  -->
  <defs>
    <style>
      .st0 {
        fill: #4e008e;
      }
    </style>
  </defs>
  <path class="st0" d="M321,153.6l-29.8,63h-119.4l-37.6,79.5h-33.7c.3-4,1.1-7.9,2.4-11.8,3.2-9.6,9.3-17.5,17-23.1,2,2.3,3.8,4.7,5.5,7.3.3.4.8.4.9,0l54.4-114.8h140.5Z"/>
  <path class="st0" d="M44.5,320.6c-3.4,6.7-8.3,12.4-14.2,16.8-4.9-5.6-8.9-12.3-11.4-19.8-1.7-5-2.6-10.1-2.9-15.1h33.5c-.4,6.2-2.1,12.4-5,18.1"/>
  <path class="st0" d="M71.7,302.5v54.9c-13.7-.8-26.7-6.3-36.7-15.4,6.4-4.9,11.7-11.2,15.4-18.5,3.4-6.7,5.3-13.8,5.8-21h15.5Z"/>
  <path class="st0" d="M47.2,284.2c1.3,3.9,2.1,7.8,2.4,11.8H16c.7-12.9,5.8-25.2,14.3-34.9,7.6,5.6,13.6,13.5,16.8,23Z"/>
  <path class="st0" d="M71.7,241.1v54.9h-15.6c-.3-4.7-1.2-9.3-2.7-13.9-3.6-10.6-10.1-19.3-18.5-25.7,6-5.5,13.2-9.8,21.5-12.5,5.1-1.7,10.2-2.6,15.3-2.9"/>
  <path class="st0" d="M93.8,296h-15.5v-54.9c13.7.7,26.8,6.2,36.8,15.3-8.6,6.5-15.1,15.4-18.6,25.8-1.5,4.6-2.5,9.2-2.7,13.9Z"/>
  <path class="st0" d="M115.1,342.2c-6,5.4-13.2,9.7-21.4,12.4-5.1,1.7-10.3,2.6-15.5,2.9v-54.9h15.5c.4,7.2,2.4,14.4,5.8,21,3.8,7.4,9.1,13.7,15.5,18.6"/>
  <path class="st0" d="M134.1,302.5c-.7,13-5.9,25.3-14.4,35-6-4.4-10.8-10.1-14.3-16.8-2.9-5.7-4.6-11.9-5.1-18.1h33.8Z"/>
  <path class="st0" d="M372.6,153.5l-23.8,50.2c-3.7,7.7-8,13.5-18.7,13.5h-7.5c-8.2,0-14.3-6.9-9.4-17.1l22-46.6h11.2l-25.2,53.4h14.8l25.2-53.4h11.2Z"/>
  <path class="st0" d="M406.9,163.1h-10.6l-25.3,53.5h-11.2l25.3-53.5h-12l4.9-9.6h33.8l-4.9,9.6Z"/>
  <path class="st0" d="M378.8,216.6l45.5-63.1h13.5l-13.8,63.1h-10.5l3.3-14.8h-15.5l-10.7,14.8h-11.9ZM418.9,192.1l4.9-21.7-15.5,21.7h10.5Z"/>
  <path class="st0" d="M429.5,216.6l29.8-63.1h11.3l-12.4,26.3h14.1l12.4-26.3h11.2l-29.8,63.1h-11.3l12.8-27h-14.1l-12.8,27h-11.2Z"/>
  <path class="st0" d="M372.6,153.5l-23.8,50.2c-3.7,7.7-8,13.5-18.7,13.5h-7.5c-8.2,0-14.3-6.9-9.4-17.1l22-46.6h11.2l-25.2,53.4h14.8l25.2-53.4h11.2Z"/>
  <path class="st0" d="M406.9,163.1h-10.6l-25.3,53.5h-11.2l25.3-53.5h-12l4.9-9.6h33.8l-4.9,9.6Z"/>
  <path class="st0" d="M378.8,216.6l45.5-63.1h13.5l-13.8,63.1h-10.5l3.3-14.8h-15.5l-10.7,14.8h-11.9ZM418.9,192.1l4.9-21.7-15.5,21.7h10.5Z"/>
  <path class="st0" d="M429.5,216.6l29.8-63.1h11.3l-12.4,26.3h14.1l12.4-26.3h11.2l-29.8,63.1h-11.3l12.8-27h-14.1l-12.8,27h-11.2Z"/>
  <path class="st0" d="M196.8,357.5h42.4s-15.4-126.6-15.4-126.6h-42.5l-59.9,126.6h21.4s14.1-29.8,14.1-29.8h36.3l3.6,29.8ZM165.9,308.6l19.9-42,5.1,42h-25Z"/>
  <path class="st0" d="M345.8,338.3h-45.1l50.8-107.3h-102.2l-9,19.1h55.7l-50.9,107.5h91.5l9.1-19.2Z"/>
  <path class="st0" d="M453.1,357.5l9-19.1h-52.9l50.2-107.5h-92l-9,19.1h46.7l-50.9,107.5h15.9s0,0,0,0h83Z"/>
</svg>