<svg xmlns="http://www.w3.org/2000/svg" viewBox="0 0 960 640"><path fill="#041e42" d="M647.28 450.3c-7.233 0-13.104 5.863-13.104 13.1 0 7.23 5.871 13.1 13.104 13.1s13.095-5.87 13.095-13.1c0-7.237-5.862-13.1-13.095-13.1m0 23.39a10.273 10.273 0 0 1-9.508-6.351 10.3 10.3 0 0 1-.781-3.939 10.275 10.275 0 0 1 10.289-10.282c5.685 0 10.288 4.597 10.288 10.282s-4.603 10.29-10.288 10.29m5.383-13.325a4.43 4.43 0 0 0-1.303-3.14 4.45 4.45 0 0 0-3.142-1.298h-6.312v14.952h2.806v-6.073h2.013l2.835 6.073h3.103l-2.96-6.331a4.45 4.45 0 0 0 2.96-4.183M648.218 462h-3.506v-3.273h3.506c.901 0 1.639.733 1.639 1.638a1.644 1.644 0 0 1-1.64 1.635"/><path fill="#a2aaad" d="m662.654 433.235 116.281-267.601s-84.154 49.836-180.3 87.926l165.213-122.832-103.99 17.895c-14.881-8.914-66.608-35.722-150.157-35.722 0 0-7.323.172-13.574.323-3.067-9.02-17.611-51.724-17.611-51.724l-26.661 55.276c-152.266 19.58-270.79 109.509-270.79 206.548 0 43.366 18.61 100.4 104.293 131.203l-43.223 106.825 114.353-90.177c24.571 3.317 51.782 5.05 81.172 5.05 34.396 0 68.223-2.602 100.7-7.594L663.487 578.5 620.79 449.67s25.174-8.127 41.864-16.435"/><path fill="#041e42" d="M757.459 189.798s-98.069 57.104-207.283 94.82l-3.841-10.588 187.301-129.908-208.194 53.317 116.507-46.933s-49.334-27.534-132.248-27.534c-6.928 0-13.842.168-20.734.492L476.904 88.03l-64.822 134.398-98.894 28.087 91.785-37.655 30.101-61.36 6.307-12.85 5.481-11.164c-138.174 19.79-255.725 102.159-255.725 195.837 0 52.504 28.877 100.605 107.987 125.339l-40.869 89.056 95.217-77.061c24.657 3.57 52.614 5.503 84.187 5.503 39.56 0 74.376-3.368 103.919-8.155l105.584 93.833-39.457-108.68c30.711-9.035 47.166-17.291 47.166-17.291l102.588-236.071"/><path fill="#a2aaad" d="m360.275 315.446 8.164-17.798-47.808-13.152s-13.601 24.304 39.644 30.95"/><path fill="#a2aaad" d="m652.419 182.744-152.313 36.9-26.829-83.865-42.496 101.434-115.557 28.919 80.891 19.798-15.519 31.015c1.398.035 2.828.072 4.282.1 1.944.03 3.929.057 5.989.057 5.584 0 11.25-.178 17.011-.53 14.102-.847 28.714-2.704 43.6-5.356 11.315-2.02 22.792-4.501 34.32-7.354 15.218-3.755 30.54-8.18 45.746-13.044l-8.764-23.322zm-59.972 269.992c-4.089 1.52-7.436 2.927-10.142 5.152-2.551 2.106-4.527 4.948-5.968 9.314a43 43 0 0 0-1.326 5.202l35.312 27.858-17.876-47.525m-273.825 1.981a20 20 0 0 0-3.397-.84 25 25 0 0 0-3.015-.267l-19.209 38.38 36.085-26.887c-2.29-4.192-4.953-8.423-10.464-10.386"/><path fill="#c8102e" d="M495.677 400.226c-44.7-8.452-71.443-17.1-71.443-17.1s20.636-7.993 51.135-21.987c27.223-12.497 62.314-29.769 97.566-50.405 28.354-16.583 56.818-35.327 81.394-55.513 0 0-143.055 78.048-261.874 78.048-79.815 0-116.755-37.019-116.755-61.85 0-73.984 130.227-112.266 159.375-119.916l6.307-12.85c-125.125 24.63-171.655 73.786-171.655 73.786s-41.825 25.297-57.661 72.244a113 113 0 0 0-5.982 36.373c0 56.567 37.072 130.543 227.147 130.543 134.805 0 206.565-35.76 206.565-35.76a919 919 0 0 1-65.72-4.294c-29.813-3.015-56.306-7.144-78.398-11.32zm112.134-250.703s-39.191-19.078-115.612-16.561l3.519 10.333c8.45-.975 54.467-5.351 112.093 6.228"/><path fill="#fff" d="M368.429 374.959c47.093 0 86.489-8.417 106.939-13.82 27.224-12.496 62.315-29.768 97.567-50.405-29.622 11.233-123.371 44.65-189.778 44.65-100.739 0-132.215-58.354-132.215-91.285 0-29.442 18.785-51.66 18.785-51.66s-34.711 24.248-34.711 64.639c0 66.447 66.383 97.88 133.413 97.88"/><path fill="#fff" d="M407.177 406.06c-187.198 0-195.518-99.718-195.111-121.378a113 113 0 0 0-5.983 36.373S208.03 431.39 421.899 431.39c69.629 0 132.309-14.683 152.176-19.844-29.812-3.015-56.305-7.144-78.397-11.32-14.846 2.336-44.382 5.835-88.501 5.835m235.562-79.988c-6.092-12.775-23.847-14.99-39.687-4.988-15.831 10.043-23.772 28.495-17.693 41.27 6.051 12.785 23.79 14.996 39.642 4.979 15.858-10.053 23.745-28.494 17.738-41.262"/><path fill="#fff" d="m484.275 373.675-.123-4.485-3.946 4.934-6.174.804 3.842 2.074-3.842 5.002 6.569-3.438 4.548 3.255-.818-5.351 6.109-3.48zm47.51-22.51-.142-4.583-4.096 5.097-6.437.815 3.951 2.19-3.965 5.172 6.87-3.576 4.676 3.407-.78-5.584 6.31-3.62zm34.548 3.695-.13-4.21-3.72 4.629-5.826.756 3.608 2.003-3.608 4.698 6.183-3.25 4.287 3.07-.716-5.038 5.704-3.298zm-47.676 25.904v-4.166l-3.809 4.565-5.833.576 3.56 2.086-3.751 4.663 6.284-3.116 4.218 3.177-.617-5.102 5.804-3.18zm34.201 4.817-.038-4.212-3.827 4.596-5.849.587 3.563 2.076-3.686 4.642 6.239-3.147 4.214 3.194-.607-5.067 5.805-3.216zm28.231-64.14-.181-5.332-4.69 5.905-7.439.928 4.581 2.545-4.581 5.941 7.877-4.122 5.447 3.938-.961-6.443 7.324-4.197zm46.597-27.66-4.247 7.748 8.875-5.875 7.97 4.096-2.889-7.648 8.159-5.932-9.159 1.845-1.619-6.412-4.419 7.693-9.168 1.965zm74.231-38.241-10.975 1.246-.936-8.116-6.331 8.988-11.013 1.453 7.259 3.832-6.103 9.137 11.288-6.305 8.695 5.964-2.257-9.767zm-58.1 134.1-.04-6.453-5.895 7.022-9.01.95 5.517 3.157-5.768 7.163 9.619-4.803 6.527 4.86-.941-7.803 8.962-4.901zm17.192-42.485-.153-5.902-5.299 6.556-8.262 1.086 5.163 2.784-5.182 6.643 8.806-4.56 6.085 4.364-1.052-7.173 8.096-4.69zm14.814-41.786-.186-6.454-5.734 7.143-8.976 1.154 5.573 3.033-5.573 7.254 9.536-4.986 6.581 4.763-1.1-7.792 8.801-5.1zm-79.747 79.573-4.408 5.301-6.742.668 4.083 2.391-4.283 5.353 7.232-3.605 4.903 3.652-.732-5.83 6.673-3.661-6.697.568zM473.278 150.055l-21.8 99.035 42.742-27.733zm154.369 45.573L451.478 249.09s64.729 14.128 66.698 14.401c1.994.29 109.471-67.863 109.471-67.863M485.798 303.865l-34.32-54.774v62.127c11.315-2.02 22.792-4.501 34.32-7.353m-100.92 13.183c1.944.03 3.929.056 5.988.056 5.585 0 11.251-.18 17.013-.53l43.599-67.483-51.181 37.674zM432.99 238.953l-94.956 25.637 113.444-15.5zm143.347 228.25 23.414 18.532-17.445-27.845c-2.552 2.106-4.528 4.947-5.969 9.314m-275.736 15.419 18.022-27.904a20.5 20.5 0 0 0-3.398-.841l-14.624 28.744"/><path fill="#c8102e" d="M605.429 324.766c-12.896 8.128-19.664 23.36-15.122 33.997 4.505 10.623 18.633 12.626 31.515 4.48 12.882-8.15 19.615-23.37 15.116-33.963-4.586-10.656-18.637-12.64-31.509-4.515"/></svg>