<svg xmlns="http://www.w3.org/2000/svg" viewBox="0 0 960 640"><path fill="#fff" d="M290.487 249.307c-1.802 6.46-.497 13.852-.124 15.84 20.063-1.18 28.262-4.907 28.262-4.907zM263.653 422.996c-2.174 1.118 2.609 12.672.994 20.996 1.304 3.79 6.894 17.58 16.274 12.735 9.379-4.783 1.491-17.394-.808-20.686-7.702-3.603-14.286-14.226-16.46-13.107zM342.228 284.342c-7.764 2.05-14.783 9.815-28.883 13.543a48.3 48.3 0 0 1-12.237 1.615c2.112 2.857 9.007 4.41 9.007 4.41s-5.218 4.721-5.653 8.262a50.3 50.3 0 0 1 11.43-4.597c14.1-3.727 24.038-.435 31.803-2.484 3.664-.932 10.373-2.796 7.64-13.108s-9.504-8.573-13.107-7.64M536.463 240.175c-.87-.435-1.926-.062-2.36.745-6.585 13.17-12.423 25.656-17.455 37.273l-20.436 9.07c-1.118 1.801-2.174 3.54-3.23 5.28l21.616-9.567c-5.59 13.232-10.249 25.221-13.976 35.657l-27.206 11.057c-.745 1.74-1.367 3.231-1.926 4.535l27.58-11.18c-8.448 24.101-11.927 38.824-11.989 39.134-.248.932.373 1.864 1.305 2.113s1.863-.373 2.05-1.305c.062-.248 3.416-14.412 11.491-37.645l14.597 24.6 2.547-2.36v-.125l-15.653-26.4a699 699 0 0 1 12.547-32.366l11.305 19.506c.373-1.615.745-3.293 1.18-4.97l-10.746-18.574c5.528-12.983 11.926-27.084 19.504-41.993.435-.87.062-1.926-.807-2.36zM716.287 294.78c-27.145-43.672-84.788-95.543-97.956-107.035-.808 1.43-1.801 2.796-2.982 3.914 8.324 23.481 40.437 111.444 70.004 159.028 28.946 46.528 57.208 44.292 57.208 44.292s9.504-42.553-26.337-100.2zm16.957 44.415-23.728-4.349-28.076-45.223 33.728 10.001c8.572 14.35 14.349 27.706 18.138 39.571zm-20.809-43.982-33.728-10-26.026-41.87 23.479 5.84c13.603 14.97 26.772 30.997 36.275 45.968zm-92.676-101.566c10.25 9.193 31.307 28.575 52.053 50.876l-21.802-5.404-14.101-22.612a1.713 1.713 0 0 0-2.36-.559c-.807.497-1.056 1.553-.559 2.422l14.721 23.668-3.043 16.524c-11.243-27.333-20.312-52.057-24.909-64.915m27.393 70.817 3.292-18.077 25.53 41.124-8.386 22.798c-7.143-14.847-14.1-30.626-20.436-45.845m41.183 84.36c-6.15-9.94-12.485-21.618-18.635-34.167l8.634-23.419 28.138 45.286-8.634 25.842q-4.658-5.963-9.503-13.605zm51.307 42.49c-6.087-.746-21.616-4.846-39.195-25.656l8.448-25.22 13.355 21.493c.497.807 1.552 1.056 2.422.56.808-.498 1.118-1.616.559-2.424l-13.168-21.183 22.361 4.1c7.081 24.227 6.025 41.807 5.218 48.33M698.459 408.832c-6.025 0-10.932 4.908-10.932 10.933s4.907 10.933 10.932 10.933 10.933-4.907 10.933-10.933-4.845-10.933-10.933-10.933m0 19.444c-4.72 0-8.572-3.852-8.572-8.573s3.852-8.573 8.572-8.573 8.572 3.852 8.572 8.573-3.851 8.573-8.572 8.573"/><path fill="#fff" d="M702.932 417.218a3.74 3.74 0 0 0-3.727-3.727h-5.28v12.486h2.36v-5.093h1.677l2.361 5.093h2.547l-2.485-5.28c1.429-.497 2.485-1.863 2.485-3.479zm-3.727 1.367h-2.92v-2.733h2.92c.745 0 1.366.621 1.366 1.366s-.621 1.367-1.366 1.367"/><path fill="#fedd00" d="M542.799 190.292c5.031 0 4.348-6.709-.311-6.709-71.743 0-112.801 9.132-119.074 10.623-3.976-35.16-24.163-46.342-24.163-69.078 0-8.822 5.839-10.623 10.621-10.623 16.772 0 29.319 19.63 52.55 19.63 21.616 0 26.275-15.282 38.573-15.282 18.511 0 10.374 49.2 43.108 49.2 10.374 0 17.206-4.162 17.206-4.162 4.41-2.485.187-7.765-3.602-5.777 0 0-6.585 3.354-13.045 3.354-27.703 0-15.591-49.324-44.412-49.324-13.79 0-18.386 15.22-38.325 15.22-22.237 0-30.996-19.879-53.046-19.879-12.486 0-16.958 8.387-16.958 16.773 0 25.16 24.846 44.354 24.846 78.831s-11.988 65.972-11.988 114.736c0 56.84 54.04 73.613 54.04 126.602 0 30.004 11.491 48.516 24.349 48.516 7.081 0 13.666-4.162 16.771-15.158 1.864.808 3.541 1.243 4.97 1.243 3.602 0 17.019-3.914 17.019-19.692 0-45.162-77.582-68.58-77.582-139.337 0-34.042 5.466-88.52 13.79-88.52 4.348 0 9.814 19.07 20.249 19.07 12.92 0 8.448-37.583 14.225-37.583 4.596 0 11.491 17.58 19.753 17.58 6.646 0 8.882-13.604 11.739-24.35 1.056-4.97-6.025-6.4-7.019-1.306-1.801 7.952-5.59 18.512-5.59 18.512-4.224-4.224-11.057-17.083-19.318-17.083-13.168 0-11.243 37.521-14.224 37.521-5.529 0-9.007-19.444-20.995-19.444-15.467 0-20.001 53.734-20.001 96.038 0 74.421 77.644 99.27 77.644 138.28 0 9.815-7.144 13.17-10.001 13.17q-1.77 0-3.54-.746c.372-2.733.559-5.715.559-9.007 0-22.985-12.672-27.27-17.828-27.27s-8.012 4.472-8.012 11.864c0 9.94 8.758 20.935 17.33 27.271-1.243 6.212-3.976 11.865-9.752 11.865-11.181 0-17.517-25.904-17.517-41.31 0-55.908-53.978-72.122-53.978-127.968 0-47.584 11.988-78.086 11.988-109.767 0-1.988 0-3.852-.124-5.715 7.454-1.802 53.73-12.114 118.827-10.623zm-59.444 256.682c0-3.914.994-5.343 2.049-5.343 6.274 0 9.131 12.611 9.131 17.642 0 1.367 0 3.914-.186 6.896-6.087-5.902-10.994-14.909-10.994-19.195"/><path fill="#fedd00" d="M578.95 207.996s-40.81 85.975-40.81 186.175c0 66.345 20.56 117.035 26.213 117.035 4.472 0 25.529-31.557 25.529-97.405 0-26.65-14.41-127.782-10.932-205.805m-17.454 57.896c.745-2.609 4.472-3.354 3.913 1.181-2.733 22.984-4.534 43.795-5.715 62.37l-14.348 11.056c3.789-28.078 9.938-53.61 16.15-74.607m-16.771 79.64 14.721-11.369a985 985 0 0 0-1.615 44.478l-16.212 11.057c.186-15.157 1.304-29.942 3.043-44.167zm-3.106 48.825 16.212-11.057c-.124 20.872.683 36.278 1.366 45.907l-14.597 9.07a327 327 0 0 1-2.981-43.92m39.443 72.122c-1.864 1.367-7.764 3.417-17.268-12.362-5.528 16.711-12.113 12.052-14.535 9.505a270 270 0 0 1-3.975-21.183l16.398-10.188 22.734 15.095c-.869 6.958-1.988 13.356-3.292 19.133zm5.342-52.678c0 10.685-.559 20.438-1.553 29.321l-20.747-13.79c-.683-9.07-1.49-23.669-1.428-43.485l23.231 16.027c.248 4.66.435 8.697.435 11.927zm-.808-16.71-22.92-15.84c.124-12.798.497-27.645 1.491-44.417l17.206 12.672c1.677 18.388 3.292 34.85 4.223 47.523zm-4.658-52.43-16.461-12.176c1.18-19.319 3.044-41.185 5.963-65.537.808-6.833 4.845-3.354 4.969.311.994 25.904 3.293 53.113 5.529 77.402M671.377 357.892c-1.366-1.987-2.67-4.037-3.975-6.149-5.839-9.38-11.243-19.444-16.336-29.818 1.863 8.013 3.54 15.965 4.721 23.73 11.491 72.681-10.498 104.362-10.498 104.362s-31.803-30.377-45.033-114.239c-9.256-58.456-4.473-123.372-3.106-138.59-1.802-.374-3.541-1.057-5.156-1.865-6.087 141.138 7.889 165.551 10.436 205.805 35.654 56.22 36.896 72.62 36.896 72.62s41.617-29.198 31.989-115.793zM611.064 195.013a19.2 19.2 0 0 1-5.342 2.112c3.044 6.398 9.131 19.692 16.212 36.9-4.845-15.84-8.51-29.446-10.87-38.95z"/><path fill="#fedd00" d="m614.977 292.232-10.995-69.513c-.497-3.168-4.658-2.796-4.845 1.74-.931 21.12-1.304 50.876 1.305 81.253l14.597-13.542zM626.53 365.596l-5.404-34.353-15.28 15.158c2.422 12.796 5.28 24.227 8.323 34.29zM600.815 310.433c.745 8.324 1.801 16.65 3.043 24.786.373 2.3.746 4.597 1.18 6.834l15.405-15.22-4.783-30.19zM607.585 222.16s5.653 35.967 11.119 70.444l24.597 13.853c-9.193-32.862-21.988-64.978-31.181-86.286-1.056-2.733-5.156-2.174-4.473 1.988zM636.096 405.353c-.31-1.119-6.584-26.96-8.572-35.16l-12.05 14.66c4.348 13.542 9.007 24.6 13.417 33.483 2.36-4.224 6.708-12.176 7.205-12.983M619.449 297.201c1.553 10.002 3.168 19.941 4.596 29.01l27.455 15.717c-1.739-10-4.099-20.313-6.832-30.563zM624.791 330.87c2.609 16.214 4.597 29.197 5.404 34.042l25.219 13.604c-.311-9.566-1.242-20.189-3.106-31.929zM652.184 420.138l-13.666-11.679-7.64 13.853c5.59 10.622 10.622 17.518 13.728 21.37 2.111-4.349 5.217-12.114 7.516-23.544zM655.476 382.741l-24.349-13.107c1.863 7.578 7.205 29.445 8.509 34.974l13.293 11.368c1.553-9.008 2.671-20.065 2.485-33.235z"/><path fill="#d9a510" d="M432.917 445.793c12.547-19.319 5.342-52.616-18.51-43.36-13.79-22.549-29.443-53.113-29.443-90.82 0-40.192 8.199-50.752 8.199-86.285 0-60.567-28.014-72.557-46.027-84.732-42.798 29.01-99.571 68.705-99.571 89.826 0 6.274 2.733 12.051 2.733 18.201 0 21.867-42.549 64.295-42.549 84.857 0 7.703 6.15 14.163 16.026 14.163s35.095-3.665 44.537-4.659 10.497-5.529 10.497-8.013c0-6.15-9.752-14.66-17.082-14.66-6.087 0-6.708 3.602-6.708 4.534 0 4.038 5.777 5.218 5.777 5.218 7.329-.994 7.391 5.405.372 5.405-5.776 0-12.236-4.225-12.236-11.617s5.901-9.194 10.249-9.194c18.386 0 28.945 16.586 25.964 27.21 22.796 11.305 22.113 27.953 18.448 27.953-7.889 0-2.422-20.934-32.114-20.934-8.323 0-25.777 2.484-29.877 2.92s-5.342.993-5.839 4.41c-.497 3.354-4.845 15.654-4.845 23.171 0 11.181 7.392 11.865 12.175 11.865 12.485 0 33.666-2.982 33.666-8.014 0-3.23-5.342-2.298-7.329-2.298-3.727 0-5.404-2.299-5.404-3.665 0-3.293 5.342-4.908 11.801-4.908 10.622 0 11.74 6.895 11.243 10.188-1.18 7.206 10.374 5.466 10.374 20.624 0 1.677-.125 6.025-3.789 6.025s-3.665-4.534-3.665-7.08-4.162-6.524-7.703-6.524c-3.789 0-17.454 7.082-46.897 4.35-11.615 14.597 2.112 15.653 2.112 30.375 0 16.524-5.031 15.406-5.031 25.47 0 20.003 21.927 25.221 43.791 25.221 45.344 0 96.403-10.56 114.417-42.988-6.212 28.7-29.257 39.012-68.514 47.895 4.411 31.806 10.995 39.136 15.84 47.71 4.783 8.571 5.839 20.623 14.286 20.623 10.125 0 69.756-21.494 109.82-45.659l-29.256-62.804zm-143.983-9.504c-2.982 1.553-5.963 1.118-8.821-.186 2.299 3.292 10.187 15.84.808 20.686-9.379 4.783-14.97-9.008-16.274-12.735-.559 3.106-1.988 5.715-4.969 7.268-3.293 1.677-7.392.25-9.256-3.354-2.36-4.597 2.982-19.568.497-26.898-2.36-6.772 3.292-5.529 7.765-7.828 4.472-2.298 6.708-7.578 10.87-1.739 4.472 6.336 19.69 10.747 22.051 15.282 1.863 3.603.621 7.827-2.671 9.504m32.735-264.447 21.243-15.903c1.118-.869 2.733-.869 3.851-.062 15.591 10.871 24.225 21.556 24.598 21.991 1.118 1.43.931 3.48-.559 4.66-1.429 1.18-3.479.931-4.659-.498-.062-.124-7.764-9.504-21.305-19.319-.994.745-2.858 2.174-5.094 3.79 6.646 5.652 25.219 21.803 37.518 37.085 1.118 1.43.931 3.541-.497 4.66-1.429 1.117-3.479.931-4.659-.498-12.609-15.654-32.61-32.862-37.766-37.21-2.05 1.491-3.975 2.982-5.342 3.975 12.113 10.002 20.871 20.314 21.244 20.811 1.366 1.615.683 3.79-.373 4.66a3.326 3.326 0 0 1-4.659-.374c-.124-.124-10.311-12.238-23.604-22.55-1.552-1.304-1.925-3.789 0-5.28zm-44.91 113.743c-3.602 0-1.242-8.946-1.304-12.3-20.312-.31-22.548-7.579.807-7.765-.683-3.044-3.105-15.033.559-21.494l-11.429-4.41c-9.255-3.728 8.386-9.815 5.839-15.344 0 0-5.28-4.038-5.28-8.51s7.019-9.878 20.622-9.878c25.343 0 31.99 21.68 52.239 21.68 3.914 0 14.535-2.112 14.535 2.175s-8.509 8.821-16.212 8.821c-17.703 0-31.057-13.294-39.94-13.294-.869 0-2.547.248-3.23 1.926l-2.422 5.528c-1.74 4.038.931 5.653.931 5.653l31.306 18.388c6.585 3.851 3.106 6.957-.248 7.951 0 0-19.194 5.84-36.213 7.952-1.864 8.51-6.771 13.045-10.622 13.045zm27.766 27.83c1.18 4.41 8.385 4.348 14.1 2.857s9.255-3.54 11.553-4.1c4.659-1.242 9.566-.497 10.56 3.231 1.801 6.833-6.833 9.753-11.74 11.057-24.535 6.461-34.225.373-36.027-6.585-1.863-6.957 4.224-12.486 4.224-12.486s-7.951-1.8-9.814-8.759c-1.801-6.957 3.603-17.02 28.138-23.48 4.907-1.306 13.852-2.983 15.653 3.85.994 3.727-2.981 6.771-7.578 8.014-2.298.621-6.336.56-12.05 2.112-5.715 1.491-12.051 5.031-10.87 9.442.124.373.31.745.559 1.056a48.2 48.2 0 0 0 12.236-1.615c14.1-3.727 21.119-11.492 28.884-13.542 3.603-.932 10.373-2.672 13.106 7.64s-3.975 12.176-7.64 13.108c-7.764 2.05-17.703-1.243-31.803 2.485a50.2 50.2 0 0 0-11.429 4.597c0 .434-.062.87 0 1.242zm71.743 69.575c-42.922-12.673-15.653-65.786 4.224-60.506-26.027 23.606-12.92 51.001-4.224 60.506m34.039 71.687c-8.572-2.485-12.299-15.53-8.386-29.073 3.976-13.604 14.101-22.549 22.672-20.065 8.572 2.485 12.361 15.531 8.386 29.073-3.913 13.604-14.1 22.55-22.672 20.065"/><path fill="#d9a510" d="M421.985 414.484c-4.721-1.366-10.622 4.473-13.169 13.108-2.546 8.635-.683 16.71 4.1 18.14 4.783 1.366 10.684-4.474 13.168-13.108s.684-16.71-4.099-18.14M287.567 222.968l-12.671 3.354c-2.671.683-2.795 2.3-.311 3.48l9.628 4.658c.994.497 2.174 0 2.609-.994l3.292-7.579c.994-2.298-.186-3.603-2.547-2.982z"/><path fill="#f5812b" d="M612.182 133.887h-31.555l20.125 21.804h11.43zM729.02 290.865c-34.287-55.163-94.291-101.567-108.08-111.817a19.5 19.5 0 0 1-2.609 8.697c13.168 11.554 70.811 63.425 97.956 107.033 35.84 57.586 26.337 100.201 26.337 100.201s-28.325 2.298-57.209-44.292c-29.566-47.585-61.68-135.547-70.003-159.029-1.243 1.305-2.733 2.423-4.286 3.355 2.36 9.504 6.025 23.171 10.87 38.95 7.143 17.58 15.28 39.197 22.113 61.747 7.826 18.636 16.833 37.272 27.082 53.734 42.487 68.333 84.974 58.953 84.974 58.953-7.33-11.74 14.1-51.188-27.145-117.532"/><path fill="#f5812b" d="M619.76 193.646c4.596 12.86 13.665 37.583 24.908 64.916l3.044-16.524-14.721-23.668c-.497-.807-.249-1.925.559-2.422a1.713 1.713 0 0 1 2.36.56l14.1 22.611 21.803 5.404c-20.747-22.3-41.804-41.683-52.053-50.877"/><path fill="#f5812b" d="m652.681 243.343 26.026 41.87 33.729 10c-9.504-15.033-22.672-31.06-36.276-45.969l-23.479-5.839zM647.153 264.464c6.335 15.22 13.292 30.998 20.435 45.845l8.386-22.799-25.529-41.123zM739.642 391.313c.808-6.522 1.864-24.102-5.218-48.329l-22.361-4.1 13.168 21.183c.559.807.249 1.863-.559 2.423-.807.497-1.863.248-2.422-.56l-13.355-21.493-8.448 25.221c17.579 20.81 33.108 24.848 39.195 25.655M681.44 289.685l28.076 45.223 23.728 4.35c-3.789-11.866-9.503-25.222-18.137-39.572l-33.729-10zM697.839 362.49l8.634-25.842-28.139-45.286-8.634 23.42c6.15 12.486 12.423 24.227 18.635 34.166 3.23 5.156 6.398 9.63 9.504 13.604z"/><path fill="#c8102e" d="M424.656 405.477c-8.572-2.485-18.759 6.46-22.672 20.065-3.914 13.542-.187 26.587 8.385 29.072s18.697-6.46 22.672-20.065c3.976-13.604.187-26.587-8.385-29.072m1.428 27.146c-2.484 8.635-8.385 14.474-13.168 13.108-4.783-1.367-6.584-9.505-4.1-18.139 2.485-8.635 8.386-14.474 13.169-13.108 4.783 1.367 6.584 9.505 4.099 18.14M269.554 411.503c-4.162-5.84-6.46-.559-10.87 1.74s-10.063 1.055-7.764 7.826c2.484 7.331-2.858 22.302-.497 26.898 1.863 3.603 5.963 5.094 9.255 3.355 2.981-1.553 4.41-4.162 4.969-7.268 1.553-8.324-3.23-19.879-.994-20.997 2.174-1.118 8.758 9.505 16.461 13.108 2.857 1.304 5.839 1.677 8.82.186 3.292-1.677 4.535-5.902 2.671-9.505-2.36-4.596-17.579-9.007-22.051-15.28zM330.179 312.11c-2.299.621-5.777 2.61-11.554 4.1-5.714 1.491-12.982 1.553-14.1-2.858-.124-.373-.062-.807 0-1.242.435-3.54 5.653-8.262 5.653-8.262s-6.833-1.553-9.007-4.41a3.4 3.4 0 0 1-.559-1.057c-1.18-4.348 5.155-7.889 10.87-9.442 5.715-1.49 9.814-1.49 12.05-2.112 4.659-1.243 8.572-4.287 7.578-8.014-1.801-6.833-10.746-5.156-15.653-3.85-24.535 6.46-29.939 16.523-28.138 23.48 1.864 6.958 9.814 8.76 9.814 8.76s-6.025 5.528-4.224 12.485c1.864 6.958 11.492 13.046 36.027 6.585 4.907-1.304 13.541-4.224 11.74-11.057-.994-3.727-5.901-4.41-10.559-3.23zM581.621 176.438c-71.619 53.61-110.192 133.497-121.87 160.892 0 0-1.553 3.23.249 6.71l22.672 44.105c.931 1.863 2.981 2.236 4.534.807l37.331-33.73c2.547-2.3 3.417-6.089 3.417-6.089 17.019-97.343 40.002-144.927 54.226-166.483-.372-1.553-.621-3.168-.621-4.845v-1.429zm-58.947 173.006-37.021 34.29-20.311-43.919s23.106-70.32 106.962-151.698c-31.803 57.337-49.63 161.327-49.63 161.327"/><path fill="#c8102e" d="M516.649 278.254c5.031-11.617 10.87-24.165 17.454-37.272.435-.87 1.491-1.18 2.36-.746.87.435 1.243 1.491.808 2.361-7.516 14.91-13.976 29.072-19.504 41.993l10.746 18.574c7.205-30.625 18.137-70.569 31.43-97.777-29.319 31.62-49.754 59.76-63.73 81.937zM490.498 362.924c-.186.932-1.118 1.491-2.05 1.304-.932-.186-1.553-1.118-1.304-2.112.062-.248 3.54-15.033 11.988-39.136l-27.579 11.182c-1.429 3.48-1.988 5.343-1.988 5.343l17.454 37.77 29.629-27.459-14.597-24.599c-8.075 23.233-11.429 37.396-11.491 37.645z"/><path fill="#c8102e" d="m514.599 282.913-21.616 9.567c-9.877 16.337-16.088 29.072-19.567 37.148l27.207-11.058c3.727-10.436 8.385-22.487 13.976-35.657M503.48 320.931l15.653 26.401c.249-1.615 3.23-17.642 8.199-39.26l-11.305-19.506c-4.969 11.99-9.13 22.861-12.547 32.365M601.25 168.301c-5.28 0-9.566 4.286-9.566 9.566s4.286 9.567 9.566 9.567 9.565-4.286 9.565-9.567-4.286-9.566-9.565-9.566"/><path fill="#008755" d="m641.003 147.926-19.193 12.797 4.41 14.598 21.678-4.845zM588.205 192.653c-1.429-1.243-2.609-2.672-3.665-4.287-22.982 36.776-52.177 128.838-52.177 207.67s24.66 123.432 33.605 123.432c6.895 0 30.995-43.174 30.995-98.77 0-15.159-12.733-76.099-12.733-190.525 0-24.537 1.863-31.122 3.975-37.52m1.677 221.148c0 65.848-20.995 97.405-25.529 97.405-5.653 0-26.213-50.69-26.213-117.035 0-100.2 40.81-186.175 40.81-186.175-3.479 78.024 10.932 179.156 10.932 205.805"/><path fill="#008755" d="m559.446 334.163-14.721 11.368c-1.74 14.226-2.858 29.072-3.044 44.168l16.212-11.058c.124-12.859.621-27.705 1.615-44.478zM570.378 266.948c-2.919 24.29-4.783 46.156-5.963 65.537l16.461 12.176c-2.236-24.289-4.535-51.498-5.528-77.402-.125-3.665-4.224-7.144-4.97-.31M562.676 381.25l22.921 15.841c-.87-12.672-2.485-29.196-4.224-47.522l-17.206-12.673c-.994 16.835-1.367 31.62-1.491 44.417zM565.471 267.072c.497-4.472-3.168-3.789-3.913-1.18-6.212 20.935-12.361 46.528-16.15 74.607l14.349-11.058c1.18-18.574 3.043-39.322 5.714-62.369ZM545.222 442.44a335 335 0 0 0 3.975 21.182c2.422 2.547 9.007 7.206 14.535-9.505 9.503 15.78 15.404 13.667 17.268 12.362 1.304-5.777 2.422-12.175 3.292-19.133l-22.734-15.095-16.399 10.188zM564.105 429.331l20.746 13.791c.994-8.883 1.553-18.636 1.553-29.32 0-3.23-.186-7.269-.435-11.928l-23.231-16.027c0 19.816.745 34.414 1.429 43.484zM557.831 383.238l-16.212 11.058c0 15.903 1.18 30.625 2.981 43.92l14.597-9.07c-.683-9.629-1.49-25.035-1.366-45.908M465.404 339.816l20.311 43.92 37.021-34.29s17.889-103.99 49.63-161.328c-83.856 81.44-106.962 151.698-106.962 151.698m63.109-36.713c-.435 1.677-.808 3.355-1.181 4.97-4.969 21.68-7.888 37.645-8.199 39.26v.124l-2.547 2.361-29.628 27.457-17.455-37.769s.621-1.864 1.988-5.343c.559-1.304 1.18-2.795 1.925-4.534 3.541-8.076 9.69-20.81 19.567-37.148a622 622 0 0 1 3.23-5.28c13.913-22.24 34.349-50.318 63.73-81.938-13.293 27.21-24.225 67.153-31.43 97.778zM601.249 162.96c-8.261 0-14.97 6.708-14.97 14.97s6.709 14.971 14.97 14.971 14.908-6.709 14.908-14.97-6.709-14.972-14.908-14.972m0 24.474c-5.28 0-9.565-4.286-9.565-9.566s4.285-9.567 9.565-9.567 9.566 4.287 9.566 9.567-4.286 9.566-9.566 9.566"/><path fill="#213b88" d="M655.786 345.655c-1.242-7.765-2.857-15.717-4.721-23.73-2.049-8.759-4.472-17.58-7.081-26.215-6.77-22.55-14.907-44.168-22.113-61.748-7.081-17.207-13.168-30.5-16.212-36.9-1.429.311-2.919.56-4.472.56-1.429 0-2.795-.187-4.1-.435-1.304 15.22-6.149 80.135 3.106 138.59 13.23 83.863 45.033 114.24 45.033 114.24s21.989-31.68 10.498-104.362zm-.435 32.923-25.218-13.604c-.808-4.907-2.796-17.829-5.405-34.042l27.518 15.717c1.801 11.74 2.795 22.363 3.105 31.93m-10.684-67.152c2.734 10.25 5.094 20.562 6.833 30.564l-27.455-15.717c-1.428-9.132-3.043-19.07-4.596-29.01zm-32.548-91.255c9.255 21.308 22.051 53.424 31.182 86.286l-24.598-13.853c-5.466-34.477-11.118-70.445-11.118-70.445-.684-4.162 3.416-4.72 4.472-1.988zm-12.982 4.35c.186-4.536 4.348-4.909 4.845-1.74l10.994 69.512-14.597 13.542c-2.546-30.439-2.174-60.194-1.304-81.253zm4.783 110.697c-1.305-8.2-2.298-16.524-3.044-24.786l14.846-13.79 4.783 30.19-15.405 15.22c-.373-2.237-.807-4.473-1.18-6.834m1.925 11.182 15.281-15.157 5.404 34.352-12.361 15.096c-3.044-10.126-5.901-21.494-8.324-34.29m9.628 38.515 12.051-14.66c1.987 8.2 8.261 33.98 8.572 35.16-.497.807-4.845 8.758-7.206 12.983-4.41-8.82-9.069-19.94-13.417-33.483m29.132 58.766c-3.105-3.852-8.075-10.747-13.727-21.37l7.64-13.853 13.665 11.68c-2.36 11.43-5.466 19.132-7.516 23.543zm8.386-27.706-13.293-11.368c-1.366-5.529-6.708-27.395-8.51-34.974l24.35 13.107c.186 13.17-.932 24.165-2.485 33.235z"/><path fill="#010101" d="M485.405 441.632c-1.056 0-2.05 1.43-2.05 5.342 0 4.287 4.907 13.294 10.994 19.195.186-2.98.186-5.528.186-6.895 0-5.032-2.857-17.642-9.13-17.642"/><path fill="#010101" d="M759.457 395.041c0-20.562 20.187-97.094-126.653-212.638l24.659-5.467-12.671-41.93-24.473 16.337v-25.408h-48.078c-31.306-22.549-46.462-51.497-95.843-51.497-20.623 0-42.301 4.1-47.022 4.1-3.602 0-14.597-2.299-33.355-2.299-53.979 0-58.948 40.254-52.177 54.418-70.998 48.64-106.155 83.676-106.155 96.348 0 4.908 2.919 11.244 2.919 20.438 0 20.003-43.17 63.984-43.17 87.217 0 21.742 27.704 23.233 27.704 23.233 1.552 6.4-9.131 27.706.496 38.577-13.292 14.474 2.237 21.68 2.237 33.234 0 7.827-5.404 10.188-5.404 24.6 0 16.4 7.702 36.216 48.201 36.216 16.026 0 30.188-2.547 41.431-2.547 3.106 33.98 17.641 47.336 20.063 55.91 1.926 6.832 6.398 21.68 15.405 21.68 11.739 0 76.588-21.247 125.845-51.126 24.722 9.193 56.09 6.15 67.457 6.15 12.423 0 17.579 7.578 24.908 7.578 4.411 0 37.891-37.334 35.779-119.209 20.995 35.471 33.418 58.58 34.66 71.811 27.144-9.69 50.065-74.047 40.126-115.047 0 0 34.288 55.66 86.216 47.46 0 0-2.981-10.125-2.981-18.015zM641.003 147.926l6.833 22.612-21.616 4.783-4.411-14.598zm-39.754 15.033c8.262 0 14.908 6.71 14.908 14.971s-6.709 14.971-14.908 14.971-14.97-6.709-14.97-14.97 6.709-14.972 14.97-14.972m10.932-29.072v21.804h-11.429l-20.125-21.804zm-259.89 420.431c-8.447 0-9.441-12.05-14.286-20.624-4.783-8.573-11.367-15.965-15.839-47.709 39.256-8.883 62.363-19.195 68.513-47.894-18.014 32.426-69.073 42.987-114.417 42.987-21.864 0-43.791-5.218-43.791-25.22 0-10.064 5.031-8.946 5.031-25.47 0-14.723-13.727-15.779-2.111-30.377 29.442 2.671 43.108-4.349 46.897-4.349 3.54 0 7.702 3.976 7.702 6.523s0 7.082 3.665 7.082 3.789-4.349 3.789-6.026c0-15.157-11.554-13.48-10.374-20.624.559-3.23-.621-10.188-11.242-10.188-6.46 0-11.802 1.615-11.802 4.908 0 1.304 1.677 3.665 5.404 3.665 1.987 0 7.329-.932 7.329 2.298 0 5.032-21.181 8.014-33.666 8.014-4.783 0-12.175-.746-12.175-11.865 0-7.517 4.348-19.817 4.845-23.17.497-3.356 1.739-3.977 5.839-4.412 4.1-.434 21.554-2.919 29.878-2.919 29.691 0 24.224 20.934 32.113 20.934 3.727 0 4.348-16.648-18.448-27.954 3.044-10.56-7.578-27.209-25.964-27.209-4.348 0-10.249 1.802-10.249 9.194s6.46 11.617 12.236 11.617c7.019 0 6.957-6.46-.372-5.405 0 0-5.777-1.18-5.777-5.218 0-.932.559-4.535 6.708-4.535 7.33 0 17.082 8.511 17.082 14.661 0 2.422-1.056 7.02-10.497 8.013-9.442.994-34.661 4.66-44.537 4.66s-16.026-6.46-16.026-14.164c0-20.562 42.549-62.99 42.549-84.857 0-6.15-2.733-11.927-2.733-18.2 0-21.122 56.773-60.817 99.571-89.827 18.013 12.175 46.027 24.165 46.027 84.732 0 35.533-8.199 46.094-8.199 86.285 0 37.77 15.653 68.271 29.443 90.821 23.914-9.194 31.057 24.04 18.51 43.36l29.256 62.803c-40.126 24.165-99.757 45.66-109.819 45.66zm152.742-75.352c-1.429 0-3.168-.435-4.969-1.243-3.106 10.996-9.69 15.158-16.772 15.158-12.857 0-24.349-18.574-24.349-48.516 0-52.989-54.04-69.762-54.04-126.602 0-48.764 11.988-79.638 11.988-114.736s-24.846-53.672-24.846-78.83c0-8.387 4.472-16.774 16.958-16.774 22.051 0 30.871 19.88 53.046 19.88 19.939 0 24.536-15.22 38.325-15.22 28.822 0 16.709 49.323 44.412 49.323 6.46 0 13.045-3.354 13.045-3.354 3.789-1.988 8.013 3.292 3.602 5.777 0 0-6.832 4.162-17.206 4.162-32.796 0-24.659-49.2-43.108-49.2-12.298 0-16.957 15.282-38.573 15.282-23.231 0-35.841-19.63-52.55-19.63-4.782 0-10.621 1.802-10.621 10.623 0 22.736 20.187 33.917 24.163 69.078 6.335-1.49 47.331-10.623 119.074-10.623 4.659 0 5.28 6.71.311 6.71-65.097-1.554-111.373 8.82-118.826 10.622.062 1.863.124 3.727.124 5.715 0 31.62-11.988 62.182-11.988 109.767 0 55.846 53.978 72.06 53.978 127.968 0 15.468 6.335 41.31 17.516 41.31 5.777 0 8.448-5.653 9.752-11.865-8.509-6.274-17.33-17.332-17.33-27.27 0-7.393 2.92-11.866 8.013-11.866s17.827 4.286 17.827 27.271c0 3.292-.186 6.274-.559 9.007 1.18.435 2.36.746 3.541.746 2.857 0 10-3.355 10-13.17 0-39.012-77.644-63.922-77.644-138.28 0-42.304 4.597-96.038 20.001-96.038 11.988 0 15.467 19.443 20.995 19.443 2.982 0 1.056-37.52 14.225-37.52 8.261 0 15.094 12.86 19.317 17.083 0 0 3.789-10.56 5.591-18.512.994-5.032 8.075-3.665 7.019 1.304-2.92 10.685-5.094 24.352-11.74 24.352-8.261 0-15.156-17.58-19.753-17.58-5.776 0-1.242 37.582-14.224 37.582-10.435 0-15.902-19.07-20.25-19.07-8.323 0-13.789 54.48-13.789 88.521 0 70.817 77.582 94.175 77.582 139.336 0 15.78-13.417 19.692-17.02 19.692zm19.504-123.62-37.331 33.732c-1.553 1.366-3.541.993-4.535-.808l-22.672-44.106c-1.801-3.478-.248-6.709-.248-6.709 11.677-27.333 50.189-107.282 121.87-160.89v1.427c0 1.678.186 3.293.621 4.846-14.224 21.555-37.207 69.202-54.227 166.482 0 0-.807 3.728-3.416 6.088zm41.431 164.06c-8.883 0-33.605-42.8-33.605-123.433s29.195-170.83 52.177-207.669a18.6 18.6 0 0 0 3.665 4.287c-2.112 6.398-3.975 12.983-3.975 37.52 0 114.426 12.733 175.366 12.733 190.524 0 55.598-24.163 98.771-30.995 98.771m105.161-169.96c-10.249-16.525-19.318-35.099-27.082-53.735 2.608 8.696 5.031 17.517 7.081 26.214 5.093 10.374 10.497 20.438 16.336 29.818 1.304 2.112 2.609 4.162 3.975 6.15 9.628 86.658-31.989 115.793-31.989 115.793s-1.242-16.4-36.896-72.619c-2.547-40.254-16.523-64.668-10.436-205.805a19 19 0 0 0 5.156 1.863c1.304.25 2.671.435 4.099.435a17.6 17.6 0 0 0 4.473-.559c1.925-.435 3.665-1.18 5.342-2.112a19 19 0 0 0 4.286-3.354 18.1 18.1 0 0 0 2.981-3.914c1.491-2.609 2.423-5.529 2.609-8.697 13.79 10.25 73.793 56.654 108.08 111.817 41.245 66.345 19.815 105.791 27.145 117.532 0 0-42.487 9.38-84.974-58.953z"/><path fill="#010101" d="M376.268 382.99c-8.696-9.505-21.74-36.9 4.224-60.506-19.877-5.28-47.208 47.771-4.224 60.506M345.272 199.673c1.181 1.428 3.293 1.553 4.659.372 1.056-.869 1.801-3.043.373-4.659-.373-.497-9.131-10.809-21.244-20.81a930 930 0 0 0 5.342-3.976c5.156 4.35 25.157 21.494 37.766 37.21 1.181 1.43 3.23 1.678 4.659.497 1.429-1.18 1.677-3.23.497-4.659-12.299-15.28-30.809-31.433-37.518-37.085 2.174-1.616 4.038-3.044 5.094-3.79 13.541 9.815 21.243 19.258 21.305 19.32a3.28 3.28 0 0 0 4.659.497c1.429-1.119 1.677-3.23.559-4.659-.373-.435-9.007-11.12-24.598-21.99-1.18-.809-2.733-.809-3.851.061l-21.243 15.903c-1.988 1.491-1.553 3.976 0 5.28 13.292 10.312 23.479 22.426 23.604 22.55zM338.874 227.502c-20.249 0-26.833-21.68-52.238-21.68-13.604 0-20.623 5.343-20.623 9.877s5.28 8.511 5.28 8.511c2.547 5.53-15.094 11.68-5.839 15.344l11.429 4.41c-3.664 6.461-1.242 18.45-.559 21.494-23.355.186-21.119 7.454-.807 7.765 0 3.354-2.36 12.3 1.304 12.3 3.852 0 8.759-4.473 10.622-13.045 17.02-2.113 36.213-7.952 36.213-7.952 3.354-.994 6.833-4.038.249-7.95l-31.306-18.389s-2.671-1.615-.932-5.653l2.422-5.529c.684-1.677 2.361-1.925 3.23-1.925 8.883 0 22.3 13.293 39.94 13.293 7.703 0 16.213-4.472 16.213-8.82s-10.56-2.175-14.535-2.175zm-52.114 6.026c-.435.994-1.615 1.43-2.609.994l-9.628-4.659c-2.484-1.18-2.36-2.796.311-3.479l12.671-3.354c2.423-.622 3.541.683 2.547 2.981l-3.292 7.58zm31.803 26.712s-8.199 3.727-28.263 4.907c-.372-1.988-1.677-9.38.125-15.84z"/></svg>