<svg xmlns="http://www.w3.org/2000/svg" viewBox="0 0 960 640"><path fill="#fff" d="M290.487 249.37c-1.802 6.398-.497 13.852-.124 15.84 20.063-1.18 28.262-4.908 28.262-4.908zM263.715 423.058c-2.174 1.118 2.609 12.673.994 20.997 1.305 3.79 6.895 17.58 16.274 12.735 9.38-4.784 1.491-17.394-.807-20.687-7.702-3.602-14.225-14.225-16.461-13.107zM342.291 284.405c-7.765 2.05-14.846 9.815-28.884 13.542a48 48 0 0 1-12.236 1.615c2.112 2.858 9.006 4.411 9.006 4.411s-5.217 4.721-5.652 8.262a50.2 50.2 0 0 1 11.429-4.597c14.038-3.727 24.039-.435 31.803-2.485 3.603-.932 10.311-2.795 7.64-13.107-2.733-10.312-9.441-8.573-13.106-7.64M536.525 240.237c-.869-.434-1.925-.062-2.36.746-6.584 13.17-12.423 25.656-17.454 37.272l-20.436 9.07c-1.118 1.801-2.236 3.541-3.23 5.218l21.616-9.567c-5.59 13.232-10.249 25.221-13.976 35.657l-27.206 11.058c-.746 1.74-1.367 3.23-1.926 4.535l27.579-11.182c-8.448 24.103-11.926 38.825-11.988 39.136-.249.932.373 1.863 1.304 2.05.932.248 1.864-.373 2.112-1.305.062-.248 3.354-14.412 11.491-37.645l14.598 24.6 2.546-2.36v-.125l-15.653-26.4a700 700 0 0 1 12.548-32.366l11.305 19.506c.372-1.615.745-3.292 1.18-4.97l-10.746-18.574c5.528-12.983 11.926-27.084 19.504-41.993.435-.87.124-1.926-.745-2.36zM716.349 294.841c-27.144-43.67-84.787-95.54-97.956-107.033-.807 1.428-1.801 2.795-2.981 3.913 8.323 23.482 40.437 111.444 70.004 159.03 28.945 46.527 57.208 44.29 57.208 44.29s9.503-42.552-26.337-100.2zm16.958 44.416-23.728-4.348-28.139-45.224 33.729 10.002c8.572 14.35 14.286 27.705 18.138 39.57m-20.809-43.98-33.729-10.002-26.026-41.87 23.48 5.84c13.603 14.971 26.771 30.998 36.275 45.97zm-92.676-101.568c10.249 9.194 31.306 28.575 52.053 50.877l-21.803-5.405-14.038-22.612c-.497-.807-1.553-1.056-2.422-.559-.808.497-1.056 1.553-.559 2.423l14.721 23.668-3.044 16.524c-11.243-27.333-20.311-52.057-24.908-64.916m27.393 70.817 3.292-18.077 25.53 41.124-8.386 22.798c-7.144-14.847-14.1-30.625-20.436-45.845m41.182 84.36c-6.211-9.939-12.485-21.618-18.634-34.166l8.634-23.42 28.138 45.286-8.634 25.842q-4.752-5.964-9.504-13.604zm51.307 42.49c-6.087-.745-21.616-4.845-39.194-25.655l8.447-25.22 13.355 21.492c.497.808 1.553 1.056 2.423.56.807-.498 1.056-1.616.559-2.423l-13.169-21.183 22.362 4.1c7.081 24.227 6.025 41.807 5.217 48.33"/><path fill="#fedd00" d="M542.861 190.355c5.031 0 4.348-6.709-.311-6.709-71.681 0-112.739 9.131-119.075 10.622-3.975-35.16-24.162-46.342-24.162-69.078 0-8.82 5.838-10.622 10.621-10.622 16.709 0 29.319 19.63 52.55 19.63 21.616 0 26.275-15.282 38.573-15.282 18.511 0 10.374 49.137 43.17 49.137 10.374 0 17.144-4.162 17.144-4.162 4.41-2.485.187-7.703-3.602-5.777 0 0-6.585 3.355-13.045 3.355-27.703 0-15.591-49.386-44.412-49.386-13.79 0-18.386 15.22-38.263 15.22-22.237 0-31.058-19.879-53.046-19.879-12.486 0-16.958 8.386-16.958 16.772 0 25.16 24.846 44.292 24.846 78.831S404.903 269 404.903 317.764c0 56.84 53.978 73.612 53.978 126.601 0 30.004 11.491 48.516 24.349 48.516 7.081 0 13.728-4.162 16.833-15.157 1.864.807 3.541 1.242 5.032 1.242 3.602 0 17.019-3.913 17.019-19.692 0-45.162-77.582-68.58-77.582-139.336 0-34.042 5.467-88.522 13.79-88.522 4.348 0 9.814 19.071 20.312 19.071 12.92 0 8.385-37.645 14.224-37.645 4.597 0 11.491 17.58 19.753 17.58 6.708 0 8.882-13.604 11.802-24.35 1.056-4.97-6.026-6.399-7.019-1.305-1.802 7.951-5.591 18.511-5.591 18.511-4.224-4.224-11.056-17.083-19.318-17.083-13.168 0-11.242 37.521-14.162 37.521-5.528 0-9.007-19.506-20.995-19.506-15.466 0-20.001 53.734-20.001 96.038 0 74.421 77.644 99.27 77.644 138.281 0 9.815-7.143 13.17-9.938 13.17q-1.771 0-3.541-.746c.373-2.734.559-5.715.559-9.008 0-22.984-12.671-27.27-17.827-27.27s-8.013 4.472-8.013 11.864c0 9.94 8.758 20.935 17.33 27.271-1.242 6.212-3.975 11.865-9.752 11.865-11.18 0-17.516-25.904-17.516-41.31 0-55.908-53.978-72.122-53.978-127.968 0-47.584 11.988-78.085 11.988-109.767 0-1.988 0-3.85-.124-5.715 7.454-1.8 53.667-12.113 118.826-10.622zm-59.444 256.681c0-3.913.993-5.342 2.049-5.342 6.274 0 9.131 12.61 9.131 17.642 0 1.367 0 3.914-.186 6.896-6.087-5.902-10.994-14.909-10.994-19.196"/><path fill="#fedd00" d="M579.012 208.06s-40.81 85.973-40.81 186.174c0 66.344 20.561 117.034 26.275 117.034 4.472 0 25.467-31.557 25.467-97.404 0-26.65-14.41-127.782-10.932-205.805m-17.454 57.895c.745-2.609 4.472-3.355 3.913 1.118-2.733 22.985-4.534 43.795-5.715 62.307l-14.348 11.12c3.789-28.079 9.938-53.61 16.15-74.545m-16.771 79.638 14.721-11.368c-.994 16.773-1.491 31.557-1.615 44.478l-16.15 11.058c.186-15.158 1.304-29.942 3.044-44.168m-3.106 48.827 16.212-11.058c-.124 20.873.683 36.28 1.366 45.907l-14.597 9.07a327 327 0 0 1-2.981-43.919m39.443 72.122c-1.864 1.304-7.827 3.416-17.268-12.362-5.528 16.71-12.113 12.051-14.535 9.504-1.49-6.46-2.795-13.604-3.975-21.183l16.398-10.188 22.734 15.096c-.869 6.957-1.987 13.356-3.292 19.133zm5.28-52.678c0 10.684-.559 20.437-1.553 29.32l-20.747-13.79c-.683-9.07-1.428-23.668-1.428-43.485l23.231 16.028c.31 4.66.435 8.696.435 11.927zm-.746-16.71-22.92-15.84c.124-12.798.497-27.645 1.491-44.418l17.206 12.735c1.677 18.388 3.292 34.85 4.223 47.522M581 344.723l-16.523-12.176c1.18-19.319 3.106-41.186 5.963-65.537.808-6.833 4.845-3.355 4.969.31.994 25.905 3.292 53.113 5.529 77.403zM611.125 195.076a19.2 19.2 0 0 1-5.342 2.112c3.044 6.4 9.131 19.692 16.212 36.9-4.845-15.84-8.509-29.445-10.87-38.95zM671.439 357.956c-1.304-1.988-2.608-4.038-3.975-6.15-5.839-9.38-11.305-19.444-16.336-29.818 1.925 8.014 3.54 15.965 4.721 23.73 11.491 72.681-10.498 104.363-10.498 104.363s-31.803-30.377-45.033-114.24c-9.256-58.455-4.473-123.37-3.106-138.59-1.802-.373-3.541-1.057-5.156-1.864-6.087 141.137 7.889 165.551 10.436 205.805 35.654 56.22 36.896 72.62 36.896 72.62s41.617-29.198 31.989-115.794z"/><path fill="#fedd00" d="m615.039 292.294-10.994-69.513c-.497-3.168-4.659-2.795-4.845 1.74-.932 21.121-1.305 50.876 1.242 81.315zM626.592 365.658l-5.404-34.352-15.28 15.157c2.422 12.797 5.28 24.227 8.323 34.353l12.361-15.096zM600.877 310.496c.807 8.324 1.801 16.648 3.105 24.786.373 2.298.746 4.597 1.181 6.833l15.342-15.219-4.783-30.19zM607.647 222.223s5.715 35.968 11.119 70.444l24.597 13.853c-9.193-32.86-21.988-64.978-31.181-86.285-1.056-2.67-5.156-2.112-4.473 1.988zM636.096 405.415c-.249-1.118-6.585-26.96-8.572-35.098l-12.051 14.661c4.348 13.542 9.007 24.6 13.417 33.483a1702 1702 0 0 0 7.143-12.983zM619.511 297.264c1.553 10.001 3.168 19.94 4.596 29.01l27.455 15.716c-1.739-10-4.099-20.313-6.832-30.563zM624.853 330.934c2.546 16.213 4.596 29.196 5.404 34.042l25.22 13.604c-.312-9.567-1.244-20.189-3.107-31.93zM652.246 420.2l-13.666-11.679-7.64 13.853c5.591 10.623 10.622 17.518 13.728 21.37 2.112-4.349 5.217-12.114 7.578-23.482zM655.476 382.804l-24.349-13.108c1.863 7.58 7.205 29.445 8.509 34.974l13.293 11.368c1.553-9.007 2.609-20.065 2.485-33.234z"/><path fill="#d9a510" d="M432.917 445.856c12.547-19.32 5.404-52.616-18.511-43.36-13.789-22.55-29.442-53.113-29.442-90.82 0-40.192 8.199-50.815 8.199-86.286 0-60.567-28.014-72.556-46.027-84.732-42.798 29.01-99.571 68.705-99.571 89.826 0 6.275 2.795 12.052 2.795 18.202 0 21.866-42.549 64.294-42.549 84.856 0 7.703 6.15 14.164 16.026 14.164s35.095-3.665 44.537-4.659 10.497-5.529 10.497-8.014c0-6.15-9.752-14.66-17.082-14.66-6.149 0-6.708 3.603-6.708 4.534 0 4.038 5.777 5.22 5.777 5.22 7.329-.995 7.391 5.403.372 5.403-5.776 0-12.174-4.224-12.174-11.616s5.901-9.194 10.249-9.194c18.386 0 28.945 16.586 25.902 27.208 22.796 11.306 22.113 27.955 18.448 27.955-7.889 0-2.422-20.935-32.114-20.935-8.323 0-25.777 2.485-29.877 2.92s-5.342.994-5.839 4.41c-.497 3.355-4.845 15.655-4.845 23.171 0 11.182 7.454 11.927 12.175 11.927 12.485 0 33.666-2.98 33.666-8.013 0-3.168-5.342-2.299-7.329-2.299-3.727 0-5.404-2.298-5.404-3.665 0-3.292 5.342-4.907 11.802-4.907 10.621 0 11.739 6.895 11.242 10.187-1.18 7.144 10.374 5.467 10.374 20.624 0 1.678-.125 6.026-3.789 6.026s-3.727-4.535-3.727-7.082-4.162-6.522-7.703-6.522c-3.789 0-17.454 7.081-46.897 4.348-11.615 14.598 2.112 15.655 2.112 30.377 0 16.524-4.969 15.406-4.969 25.47 0 20.002 21.927 25.22 43.791 25.22 45.344 0 96.403-10.56 114.417-42.987-6.212 28.7-29.257 39.012-68.514 47.895 4.411 31.806 11.057 39.136 15.84 47.708 4.783 8.573 5.839 20.624 14.286 20.624 10.125 0 69.756-21.493 109.82-45.658l-29.256-62.804zm-143.921-9.504c-2.982 1.553-5.963 1.118-8.821-.187 2.299 3.293 10.249 15.841.808 20.686-9.379 4.784-14.908-9.007-16.274-12.734-.559 3.106-1.988 5.715-4.969 7.268-3.355 1.677-7.454.248-9.256-3.417-2.36-4.597 2.982-19.568.497-26.836-2.298-6.77 3.292-5.529 7.765-7.827s6.708-7.579 10.87-1.74c4.472 6.275 19.753 10.747 22.051 15.282 1.863 3.603.621 7.827-2.671 9.505m32.735-264.447 21.243-15.903c1.118-.87 2.671-.87 3.913-.062 15.591 10.871 24.225 21.556 24.598 21.99a3.34 3.34 0 0 1-.497 4.66c-1.429 1.18-3.479.931-4.659-.497-.062-.125-7.764-9.505-21.305-19.32-.994.746-2.858 2.174-5.094 3.79 6.709 5.652 25.157 21.804 37.456 37.085a3.28 3.28 0 0 1-.497 4.66c-1.429 1.118-3.541.931-4.659-.498-12.609-15.654-32.672-32.86-37.828-37.21-2.05 1.491-3.975 2.982-5.342 4.038 12.113 10.001 20.871 20.313 21.244 20.81 1.428 1.616.683 3.79-.435 4.66a3.325 3.325 0 0 1-4.659-.373c-.124-.124-10.311-12.238-23.604-22.55-1.553-1.304-1.925-3.789 0-5.28zm-44.91 113.742c-3.602 0-1.242-8.945-1.242-12.3-20.312-.31-22.548-7.578.807-7.765-.683-3.043-3.105-15.033.559-21.493l-11.429-4.41c-9.255-3.728 8.386-9.816 5.839-15.345 0 0-5.28-4.037-5.28-8.51s7.019-9.877 20.623-9.877c25.343 0 31.989 21.68 52.238 21.68 3.914 0 14.535-2.112 14.535 2.174s-8.509 8.821-16.212 8.821c-17.702 0-31.057-13.294-39.94-13.294-.807 0-2.546.25-3.23 1.926l-2.422 5.53c-1.802 4.037.932 5.652.932 5.652l31.306 18.387c6.584 3.852 3.105 6.958-.249 7.952 0 0-19.193 5.84-36.213 7.951-1.864 8.511-6.771 12.983-10.622 12.983zm27.766 27.83c1.18 4.411 8.385 4.35 14.1 2.858 5.714-1.49 9.255-3.54 11.553-4.1 4.659-1.243 9.566-.497 10.56 3.23 1.801 6.833-6.833 9.753-11.74 11.058-24.535 6.46-34.225.372-36.027-6.585-1.801-6.958 4.224-12.486 4.224-12.486s-7.951-1.802-9.814-8.759c-1.801-6.958 3.603-17.02 28.138-23.482 4.907-1.304 13.852-2.982 15.653 3.852.994 3.727-2.919 6.771-7.578 8.013-2.236.621-6.336.56-12.05 2.112-5.715 1.491-12.051 5.032-10.87 9.442.124.373.31.746.559 1.057 2.671 0 7.081-.249 12.236-1.616 14.1-3.727 21.182-11.492 28.884-13.542 3.603-.932 10.373-2.67 13.106 7.641s-3.975 12.176-7.64 13.107c-7.764 2.05-17.765-1.242-31.803 2.485-5.156 1.367-9.131 3.293-11.429 4.597v1.243zm71.681 69.575c-42.922-12.672-15.653-65.785 4.224-60.505-26.027 23.606-12.92 51.001-4.224 60.505m34.101 71.687c-8.572-2.485-12.299-15.53-8.386-29.134 3.976-13.605 14.101-22.55 22.672-20.065s12.361 15.53 8.386 29.072c-3.975 13.605-14.1 22.55-22.672 20.065z"/><path fill="#d9a510" d="m287.567 223.03-12.672 3.355c-2.67.683-2.795 2.298-.31 3.478l9.628 4.66c.994.496 2.174 0 2.609-.995l3.354-7.578c.994-2.299-.187-3.603-2.547-2.982zM422.047 414.547c-4.721-1.367-10.622 4.473-13.169 13.107-2.484 8.635-.683 16.711 4.1 18.14 4.783 1.366 10.684-4.473 13.168-13.108s.684-16.71-4.099-18.139"/><path fill="#f5812b" d="M612.243 133.95h-31.554l20.125 21.803h11.429zM729.02 290.927c-34.288-55.163-94.229-101.567-108.081-111.817-.186 3.168-1.055 6.15-2.608 8.697 13.168 11.555 70.811 63.425 97.955 107.034 35.841 57.585 26.337 100.2 26.337 100.2s-28.324 2.298-57.208-44.292c-29.567-47.584-61.68-135.547-70.004-159.028-1.242 1.304-2.733 2.422-4.348 3.354 2.361 9.505 6.025 23.171 10.87 38.95 7.206 17.58 15.281 39.198 22.113 61.748 7.827 18.636 16.834 37.21 27.145 53.734 42.487 68.332 84.973 58.952 84.973 58.952-7.267-11.74 14.1-51.187-27.144-117.532"/><path fill="#f5812b" d="M619.821 193.71c4.597 12.858 13.666 37.582 24.909 64.915l3.043-16.524-14.721-23.668c-.497-.808-.248-1.864.559-2.423.808-.497 1.864-.248 2.423.56l14.038 22.611 21.802 5.405c-20.746-22.302-41.804-41.683-52.053-50.877"/><path fill="#f5812b" d="m652.68 243.405 26.027 41.87 33.728 10.001c-9.503-15.033-22.672-31.06-36.275-45.969l-23.48-5.84zM647.214 264.526c6.336 15.22 13.293 30.998 20.436 45.845l8.386-22.798-25.53-41.124zM739.704 391.376c.807-6.523 1.863-24.103-5.218-48.33l-22.362-4.1 13.169 21.183c.497.808.248 1.864-.559 2.423-.808.497-1.864.25-2.423-.559L708.957 340.5l-8.448 25.221c17.579 20.811 33.107 24.848 39.195 25.656M681.502 289.747l28.138 45.224 23.728 4.348c-3.789-11.865-9.504-25.22-18.138-39.57zM697.9 362.553l8.634-25.842-28.138-45.286-8.634 23.42c6.149 12.485 12.423 24.226 18.634 34.165 3.168 5.156 6.398 9.63 9.504 13.605z"/><path fill="#c8102e" d="M424.656 405.54c-8.572-2.486-18.697 6.46-22.672 20.064-3.976 13.542-.187 26.588 8.385 29.135 8.572 2.485 18.759-6.46 22.672-20.065 3.976-13.605.187-26.588-8.385-29.073zm1.491 27.146c-2.485 8.635-8.386 14.474-13.169 13.107-4.783-1.366-6.584-9.504-4.1-18.139s8.386-14.474 13.169-13.107c4.783 1.366 6.584 9.504 4.1 18.14M269.554 411.565c-4.162-5.839-6.46-.559-10.87 1.74s-10.063 1.056-7.764 7.827c2.546 7.33-2.796 22.301-.497 26.836 1.863 3.603 5.963 5.094 9.255 3.416 2.981-1.553 4.41-4.162 4.969-7.268 1.553-8.324-3.23-19.878-.994-20.996 2.174-1.119 8.758 9.504 16.461 13.107 2.857 1.305 5.839 1.74 8.82.186 3.354-1.677 4.534-5.9 2.671-9.504-2.36-4.597-17.579-9.007-22.051-15.282zM330.241 312.172c-2.299.621-5.777 2.61-11.554 4.1-5.714 1.491-12.982 1.553-14.1-2.857-.124-.373-.124-.808 0-1.243.435-3.54 5.653-8.262 5.653-8.262s-6.833-1.553-9.007-4.41c-.249-.31-.497-.684-.559-1.056-1.18-4.349 5.155-7.89 10.87-9.443 5.715-1.49 9.814-1.49 12.05-2.112 4.659-1.242 8.572-4.286 7.578-8.013-1.801-6.834-10.746-5.156-15.653-3.852-24.535 6.461-29.939 16.524-28.138 23.482 1.864 6.957 9.814 8.76 9.814 8.76s-6.025 5.527-4.223 12.485c1.863 6.957 11.553 13.045 36.026 6.585 4.907-1.305 13.541-4.225 11.74-11.058-.994-3.727-5.901-4.41-10.559-3.23zM581.683 176.501c-71.619 53.61-110.192 133.496-121.808 160.892 0 0-1.553 3.23.249 6.71l22.672 44.104c.931 1.864 2.981 2.236 4.534.808l37.331-33.732c2.547-2.298 3.417-6.088 3.417-6.088 17.02-97.342 40.002-144.927 54.226-166.482-.372-1.553-.62-3.169-.62-4.846 0-.497 0-.932.061-1.429zm-58.947 173.005-37.021 34.291-20.312-43.858s23.107-70.32 106.963-151.698c-31.803 57.338-49.63 161.327-49.63 161.327z"/><path fill="#c8102e" d="M516.711 278.316c5.031-11.616 10.87-24.164 17.454-37.272.435-.869 1.491-1.18 2.36-.745.87.435 1.18 1.491.746 2.36-7.516 14.91-13.976 29.073-19.505 41.994l10.746 18.574c7.206-30.626 18.138-70.569 31.431-97.778-29.319 31.62-49.755 59.76-63.668 81.937zM490.56 362.987c-.186.932-1.18 1.491-2.112 1.304-.932-.186-1.553-1.118-1.304-2.05.062-.248 3.54-15.033 11.988-39.136l-27.579 11.182c-1.429 3.48-1.988 5.343-1.988 5.343l17.455 37.77 29.628-27.459-14.597-24.599c-8.075 23.233-11.429 37.396-11.49 37.645Z"/><path fill="#c8102e" d="m514.661 282.976-21.616 9.566c-9.877 16.338-16.088 29.073-19.629 37.148l27.207-11.057c3.727-10.437 8.385-22.488 13.976-35.657zM503.542 320.994l15.653 26.401c.311-1.615 3.23-17.642 8.199-39.26l-11.305-19.506c-4.969 11.99-9.13 22.86-12.547 32.365M601.312 168.363c-5.28 0-9.566 4.287-9.566 9.567s4.286 9.566 9.566 9.566 9.565-4.286 9.565-9.566-4.286-9.567-9.565-9.567"/><path fill="#008755" d="m641.065 147.988-19.194 12.797 4.41 14.598 21.617-4.845zM588.267 192.715c-1.429-1.242-2.609-2.67-3.665-4.286-22.982 36.775-52.177 128.838-52.177 207.668s24.66 123.434 33.605 123.434c6.895 0 31.057-43.174 31.057-98.772 0-15.157-12.733-76.097-12.733-190.523 0-24.538 1.863-31.123 3.975-37.52zm1.615 221.15c0 65.846-20.995 97.404-25.467 97.404-5.715 0-26.275-50.69-26.275-117.035 0-100.2 40.81-186.175 40.81-186.175-3.479 78.023 10.932 179.155 10.932 205.805"/><path fill="#008755" d="m559.507 334.226-14.72 11.368c-1.74 14.225-2.858 29.072-3.045 44.167l16.15-11.057c.125-12.859.621-27.706 1.615-44.478M570.44 267.011c-2.857 24.29-4.783 46.155-5.963 65.537l16.522 12.175c-2.236-24.289-4.534-51.498-5.528-77.402-.124-3.665-4.224-7.144-4.969-.31zM562.738 381.313l22.92 15.84c-.932-12.672-2.547-29.196-4.224-47.522l-17.206-12.735c-.994 16.835-1.366 31.62-1.49 44.417M565.533 267.135c.497-4.473-3.23-3.789-3.914-1.118-6.211 20.934-12.361 46.466-16.15 74.544l14.349-11.119c1.18-18.574 3.044-39.322 5.715-62.307M545.283 442.501c1.18 7.641 2.485 14.723 3.975 21.183 2.423 2.547 9.069 7.206 14.535-9.504 9.504 15.778 15.405 13.666 17.268 12.362 1.243-5.777 2.423-12.176 3.292-19.133l-22.734-15.096-16.398 10.188zM564.166 429.393l20.747 13.791c.993-8.883 1.552-18.636 1.552-29.32 0-3.23-.186-7.269-.434-11.928L562.8 385.91c0 19.817.745 34.415 1.428 43.484zM557.83 383.301l-16.212 11.057c0 15.903 1.181 30.626 2.982 43.92l14.597-9.07c-.745-9.629-1.491-25.035-1.367-45.907M465.403 339.878l20.312 43.857 37.02-34.29s17.827-103.99 49.63-161.327c-83.855 81.44-106.962 151.698-106.962 151.698zm63.171-36.713c-.372 1.677-.807 3.355-1.18 4.97-4.969 21.68-7.889 37.645-8.199 39.26v.124l-2.547 2.361-29.629 27.457-17.454-37.769s.559-1.864 1.987-5.343c.497-1.304 1.181-2.795 1.926-4.534 3.541-8.076 9.69-20.81 19.628-37.148a236 236 0 0 1 3.23-5.218c13.914-22.24 34.35-50.318 63.668-81.937-13.292 27.208-24.224 67.152-31.43 97.777M601.311 163.021c-8.261 0-14.969 6.71-14.969 14.972s6.708 14.971 14.969 14.971 14.908-6.709 14.908-14.97-6.708-14.973-14.908-14.973m0 24.476c-5.279 0-9.565-4.286-9.565-9.567s4.286-9.566 9.565-9.566 9.566 4.286 9.566 9.566-4.286 9.567-9.566 9.567"/><path fill="#213b88" d="M655.911 345.717c-1.243-7.765-2.858-15.716-4.721-23.73-2.05-8.759-4.472-17.58-7.081-26.215-6.771-22.549-14.908-44.167-22.113-61.747-7.081-17.208-13.169-30.502-16.212-36.9-1.429.311-2.92.56-4.473.56-1.428 0-2.795-.187-4.099-.436-1.305 15.22-6.15 80.136 3.105 138.591 13.231 83.863 45.034 114.24 45.034 114.24s21.989-31.682 10.497-104.363zm-.497 32.924-25.219-13.604c-.808-4.846-2.857-17.829-5.404-34.042l27.517 15.716c1.863 11.741 2.795 22.363 3.106 31.93M644.73 311.49c2.733 10.25 5.093 20.562 6.833 30.563l-27.455-15.716c-1.429-9.132-3.044-19.07-4.597-29.01zm-32.549-91.255c9.194 21.37 22.051 53.423 31.182 86.285l-24.597-13.853c-5.404-34.477-11.119-70.444-11.119-70.444-.621-4.162 3.416-4.72 4.472-1.988zm-12.982 4.348c.187-4.535 4.348-4.907 4.845-1.739l10.995 69.513-14.597 13.542c-2.609-30.439-2.174-60.195-1.243-81.316m4.721 110.7c-1.304-8.2-2.298-16.463-3.106-24.787l14.846-13.79 4.783 30.19-15.343 15.22c-.372-2.237-.807-4.474-1.18-6.834m1.988 11.181 15.28-15.158 5.404 34.353-12.361 15.095c-3.043-10.126-5.901-21.494-8.323-34.353zm9.628 38.514 12.05-14.66c1.988 8.2 8.324 33.98 8.572 35.098-.435.87-4.845 8.76-7.143 12.983-4.41-8.82-9.069-19.94-13.417-33.483zm29.132 58.766c-3.106-3.85-8.137-10.747-13.728-21.369l7.64-13.853 13.666 11.68c-2.361 11.43-5.466 19.132-7.578 23.48zm8.323-27.706-13.292-11.368c-1.367-5.528-6.709-27.395-8.51-34.973l24.349 13.107c.124 13.17-.932 24.227-2.485 33.234z"/><path fill="#010101" d="M485.467 441.693c-1.056 0-2.05 1.43-2.05 5.343 0 4.286 4.907 13.356 10.994 19.195.186-2.982.186-5.529.186-6.895 0-5.032-2.857-17.643-9.13-17.643"/><path fill="#010101" d="M759.519 395.103c0-20.562 20.187-97.094-126.653-212.7l24.659-5.467-12.733-41.93-24.474 16.337v-25.408h-48.077c-31.306-22.549-46.4-51.497-95.843-51.497-20.623 0-42.301 4.1-47.022 4.1-3.602 0-14.597-2.299-33.293-2.299-53.979 0-58.948 40.254-52.177 54.418-70.998 48.64-106.155 83.676-106.155 96.348 0 4.908 2.857 11.244 2.857 20.438 0 20.003-43.108 63.984-43.108 87.217 0 21.742 27.704 23.233 27.704 23.233 1.552 6.4-9.193 27.706.497 38.577-13.293 14.474 2.236 21.68 2.236 33.234 0 7.827-5.404 10.188-5.404 24.6 0 16.4 7.702 36.216 48.201 36.216 16.026 0 30.188-2.547 41.493-2.547 3.106 33.98 17.641 47.336 20.001 55.91 1.926 6.832 6.398 21.68 15.405 21.68 11.739 0 76.588-21.246 125.783-51.126 24.722 9.193 56.09 6.15 67.457 6.15 12.423 0 17.579 7.578 24.908 7.578 4.411 0 37.891-37.334 35.779-119.209 20.995 35.471 33.418 58.58 34.66 71.811 27.144-9.69 50.065-74.047 40.064-115.047 0 0 34.288 55.66 86.216 47.46 0 0-2.919-10.125-2.919-18.015zM641.065 147.988l6.833 22.612-21.616 4.845-4.411-14.598 19.194-12.797zm-39.754 15.033c8.262 0 14.908 6.71 14.908 14.971s-6.709 14.971-14.908 14.971-14.97-6.709-14.97-14.97 6.709-14.972 14.97-14.972m10.932-29.072v21.804h-11.367l-20.187-21.804zM352.353 554.38c-8.447 0-9.441-12.05-14.286-20.624-4.783-8.573-11.367-15.965-15.839-47.708 39.256-8.884 62.363-19.196 68.513-47.895-18.014 32.427-69.072 42.987-114.417 42.987-21.864 0-43.791-5.218-43.791-25.22 0-10.064 4.969-8.946 4.969-25.47 0-14.723-13.727-15.779-2.112-30.377 29.443 2.671 43.108-4.349 46.897-4.349 3.541 0 7.703 3.976 7.703 6.523s0 7.082 3.727 7.082 3.789-4.349 3.789-6.026c0-15.219-11.554-13.48-10.374-20.624.559-3.23-.559-10.188-11.242-10.188-6.46 0-11.802 1.616-11.802 4.908 0 1.304 1.677 3.665 5.404 3.665 1.987 0 7.329-.932 7.329 2.298 0 5.032-21.181 8.014-33.666 8.014-4.783 0-12.175-.745-12.175-11.927 0-7.517 4.348-19.817 4.845-23.17.497-3.356 1.74-3.977 5.839-4.412 4.1-.434 21.554-2.919 29.878-2.919 29.691 0 24.224 20.934 32.113 20.934 3.727 0 4.348-16.648-18.448-27.954 3.044-10.56-7.516-27.209-25.902-27.209-4.348 0-10.249 1.864-10.249 9.194s6.398 11.617 12.174 11.617c7.019 0 6.957-6.46-.372-5.405 0 0-5.777-1.18-5.777-5.218 0-.932.559-4.535 6.708-4.535 7.33 0 17.082 8.511 17.082 14.661 0 2.422-1.056 7.02-10.497 8.013-9.442.994-34.661 4.66-44.537 4.66s-16.026-6.46-16.026-14.164c0-20.562 42.549-62.99 42.549-84.857 0-6.15-2.795-11.927-2.795-18.2 0-21.122 56.773-60.817 99.571-89.827 18.013 12.175 46.027 24.165 46.027 84.732 0 35.533-8.199 46.094-8.199 86.285 0 37.77 15.653 68.271 29.443 90.821 23.914-9.194 31.057 24.04 18.51 43.36l29.256 62.803c-40.126 24.165-99.757 45.66-109.82 45.66zm152.742-75.352c-1.429 0-3.168-.435-5.032-1.242-3.105 10.995-9.69 15.157-16.833 15.157-12.858 0-24.349-18.574-24.349-48.516 0-52.989-53.978-69.76-53.978-126.602 0-48.764 11.988-79.638 11.988-114.736s-24.846-53.672-24.846-78.83c0-8.387 4.472-16.773 16.957-16.773 22.051 0 30.872 19.878 53.047 19.878 19.877 0 24.473-15.219 38.263-15.219 28.821 0 16.709 49.385 44.412 49.385 6.46 0 13.044-3.354 13.044-3.354 3.789-1.988 8.013 3.292 3.603 5.777 0 0-6.77 4.162-17.144 4.162-32.797 0-24.659-49.137-43.17-49.137-12.299 0-16.957 15.281-38.573 15.281-23.231 0-35.841-19.63-52.55-19.63-4.783 0-10.621 1.802-10.621 10.623 0 22.736 20.187 33.918 24.162 69.078 6.336-1.49 47.394-10.623 119.075-10.623 4.659 0 5.28 6.71.311 6.71-65.097-1.554-111.373 8.82-118.827 10.622.063 1.864.125 3.727.125 5.715 0 31.681-11.989 62.183-11.989 109.767 0 55.846 53.979 72.06 53.979 127.968 0 15.468 6.335 41.31 17.516 41.31 5.777 0 8.51-5.715 9.752-11.865-8.572-6.274-17.33-17.332-17.33-27.27 0-7.393 2.857-11.866 8.013-11.866s17.827 4.287 17.827 27.271c0 3.292-.186 6.274-.559 9.008 1.18.434 2.36.745 3.54.745 2.858 0 9.939-3.355 9.939-13.17 0-39.01-77.644-63.922-77.644-138.28 0-42.304 4.596-96.038 20.001-96.038 11.988 0 15.467 19.506 20.995 19.506 2.919 0 .994-37.52 14.162-37.52 8.261 0 15.156 12.858 19.318 17.082 0 0 3.79-10.498 5.59-18.512.994-5.093 8.075-3.665 7.02 1.305-2.92 10.747-5.094 24.351-11.803 24.351-8.26 0-15.156-17.58-19.752-17.58-5.777 0-1.242 37.645-14.225 37.645-10.435 0-15.9-19.07-20.31-19.07-8.325 0-13.79 54.48-13.79 88.521 0 70.817 77.581 94.174 77.581 139.336 0 15.778-13.417 19.692-17.019 19.692zm19.504-123.62-37.331 33.732c-1.553 1.366-3.541.994-4.535-.808l-22.672-44.105c-1.801-3.479-.248-6.709-.248-6.709 11.677-27.333 50.189-107.282 121.808-160.892 0 .497-.062.931-.062 1.428 0 1.678.248 3.293.621 4.846-14.225 21.556-37.207 69.14-54.227 166.483 0 0-.807 3.727-3.416 6.087zm41.431 164.06c-8.945 0-33.605-42.8-33.605-123.433s29.195-170.83 52.177-207.669a18.6 18.6 0 0 0 3.665 4.287c-2.05 6.398-3.975 12.983-3.975 37.52 0 114.426 12.733 175.366 12.733 190.524 0 55.598-24.163 98.771-31.057 98.771zm105.161-169.96c-10.249-16.525-19.318-35.099-27.145-53.735 2.609 8.696 5.032 17.455 7.082 26.214 5.031 10.375 10.497 20.438 16.336 29.818 1.304 2.112 2.609 4.162 3.975 6.15 9.628 86.658-31.989 115.793-31.989 115.793s-1.242-16.4-36.896-72.619c-2.547-40.254-16.523-64.667-10.436-205.805a19 19 0 0 0 5.156 1.863c1.304.25 2.671.435 4.099.435 1.553 0 2.982-.186 4.473-.559 1.863-.435 3.664-1.18 5.342-2.112a20.9 20.9 0 0 0 4.348-3.354c1.118-1.18 2.174-2.485 2.981-3.914 1.491-2.609 2.423-5.529 2.609-8.697 13.79 10.25 73.731 56.654 108.08 111.817 41.245 66.345 19.815 105.791 27.145 117.532 0 0-42.549 9.38-84.974-58.952z"/><path fill="#010101" d="M376.268 383.052c-8.634-9.504-21.803-36.899 4.223-60.505-19.876-5.28-47.207 47.771-4.223 60.505M345.334 199.735c1.181 1.43 3.23 1.553 4.659.373 1.056-.87 1.801-3.044.435-4.659-.373-.497-9.131-10.809-21.244-20.81a247 247 0 0 0 5.342-4.039c5.156 4.35 25.157 21.494 37.829 37.21a3.276 3.276 0 0 0 4.658.497c1.429-1.18 1.615-3.23.497-4.659-12.299-15.28-30.809-31.433-37.455-37.085 2.174-1.616 4.037-3.044 5.093-3.79 13.541 9.815 21.181 19.258 21.306 19.32 1.18 1.428 3.23 1.677 4.658.497a3.28 3.28 0 0 0 .497-4.659c-.373-.435-9.007-11.12-24.597-21.99a3.36 3.36 0 0 0-3.914.061l-21.243 15.903c-1.988 1.491-1.553 3.976 0 5.28 13.293 10.312 23.542 22.426 23.604 22.55zM338.936 227.565c-20.249 0-26.895-21.68-52.238-21.68-13.604 0-20.623 5.342-20.623 9.877s5.28 8.51 5.28 8.51c2.547 5.53-15.094 11.68-5.839 15.344l11.43 4.411c-3.665 6.46-1.243 18.45-.56 21.493-23.355.187-21.119 7.455-.807 7.765 0 3.355-2.36 12.3 1.242 12.3 3.851 0 8.759-4.472 10.622-12.983 17.02-2.112 36.213-7.95 36.213-7.95 3.354-.995 6.833-4.039.249-7.953l-31.306-18.387s-2.734-1.615-.932-5.653l2.422-5.529c.684-1.677 2.361-1.926 3.23-1.926 8.883 0 22.3 13.294 39.94 13.294 7.703 0 16.212-4.473 16.212-8.82s-10.559-2.175-14.535-2.175zm-52.114 6.025c-.435.994-1.615 1.43-2.609.994l-9.628-4.659c-2.484-1.18-2.36-2.795.311-3.478l12.671-3.355c2.423-.62 3.541.683 2.547 2.982l-3.354 7.58zm31.803 26.712s-8.199 3.727-28.263 4.908c-.434-1.988-1.677-9.38.125-15.84zM698.521 408.894c-6.025 0-10.932 4.907-10.932 10.933s4.845 10.933 10.932 10.933 10.933-4.908 10.933-10.933-4.907-10.933-10.933-10.933m0 19.443c-4.72 0-8.572-3.85-8.572-8.572s3.852-8.573 8.572-8.573 8.572 3.851 8.572 8.573-3.851 8.572-8.572 8.572"/><path fill="#010101" d="M702.994 417.218a3.74 3.74 0 0 0-3.727-3.727h-5.28v12.486h2.36v-5.093h1.678l2.36 5.093h2.609l-2.485-5.28c1.429-.497 2.423-1.863 2.423-3.479zm-3.727 1.43h-2.92v-2.734h2.92c.745 0 1.366.621 1.366 1.367 0 .745-.621 1.366-1.366 1.366"/></svg>