<svg width="500" height="500" viewBox="0 0 500 500" fill="none" xmlns="http://www.w3.org/2000/svg">
<path d="M250 393.169C216.304 393.169 160.115 384.318 112.662 359.358C66.2174 334.936 32.4542 306.606 17.5838 279.572C12.5534 270.424 9.9326 260.2 9.9998 249.995C9.9326 239.79 12.5534 229.566 17.5838 220.427C32.4542 193.393 66.2174 165.054 112.662 140.641C160.125 115.681 216.304 106.83 250 106.83C283.696 106.83 339.875 115.681 387.337 140.641C433.782 165.064 467.545 193.393 482.416 220.427C487.446 229.566 490.067 239.79 490 249.995C490.067 260.2 487.446 270.424 482.416 279.563C467.545 306.596 433.782 334.936 387.337 359.348C339.885 384.299 283.696 393.16 250 393.16" fill="white"/>
<path d="M476.502 249.994C476.57 241.786 474.448 233.684 470.483 226.484C457.101 202.148 424.816 175.124 380.858 152.016C335.603 128.218 282.237 119.799 250 119.799C217.763 119.799 164.397 128.218 119.142 152.016C75.184 175.124 42.9088 202.148 29.5168 226.484C25.5616 233.674 23.4304 241.776 23.4976 249.994C23.4304 258.202 25.5616 266.304 29.5168 273.504C42.8992 297.84 75.184 324.864 119.142 347.972C164.397 371.77 217.763 380.189 250 380.189C282.237 380.189 335.603 371.77 380.858 347.972C424.816 324.864 457.091 297.84 470.483 273.504C474.438 266.314 476.57 258.212 476.502 249.994Z" fill="#115740"/>
<path d="M357.366 226.331L342.563 251.972C340.998 254.689 342.207 258.164 345.126 259.316L372.102 269.963H314.214L305.324 285.361H392.195C394.028 285.361 395.727 284.382 396.639 282.798L411.443 257.156C413.007 254.44 411.798 250.964 408.879 249.812L375.395 236.603H423.308L430.719 223.768H361.82C359.987 223.768 358.287 224.747 357.375 226.331H357.366Z" fill="white"/>
<path d="M341.171 236.603L348.582 223.768H266.444L259.033 236.603H279.567L251.411 285.371H292.479L320.636 236.603H341.171Z" fill="white"/>
<path d="M248.761 236.603L256.173 223.768H189.443L153.875 285.371H238.576L247.465 269.963H203.833L209.766 259.7H232.854L240.265 246.865H217.168L223.101 236.603H248.761Z" fill="white"/>
<path d="M421.628 208.158C421.628 208.158 415.542 206.93 397.657 205.691L334.969 199.528C300.515 196.485 270.275 188.565 242.233 168.885H241.292L264.956 207.083H145.168L110.348 267.4C109.427 268.984 107.737 269.963 105.904 269.963H67.8012L58.9116 285.362H135.116C138.784 285.362 142.172 283.403 144.006 280.226L182.54 213.496H436.643C433.484 211.653 428.416 209.32 421.628 208.149V208.158Z" fill="white"/>
</svg>
