<svg xmlns="http://www.w3.org/2000/svg" viewBox="0 0 960 640"><path fill="#010101" d="M473.954 256.543s-2.28 0-6.79.793c4.51-.743 6.74-.793 6.79-.793"/><path fill="#041e42" d="M270.265 224.84c3.866 76.188 35.435 213.801 165.677 303.711 17.445-9.313 29.042-25.016 35.931-37.252 13.728 16.595 15.165 39.729 15.165 39.729 14.669-68.708-49.708-121.713-49.708-121.713s46.437 22.589 78.502 59.247c0 0 .941-6.192-.991-16.248-2.231-11.741-5.749-20.013-5.749-20.013s33.452 27.196 51.542 67.667c.396-.346.792-.743 1.238-1.09 45.942-47.506 47.231-118.641 47.231-118.641-10.011-41.512-27.605-55.927-27.605-55.927 3.519 18.973 5.65 39.828 5.65 39.828-11.201 24.669-31.173 41.165-31.173 41.165-18.04 1.981-32.313.198-57.291-8.273-21.707-7.331-37.764-18.774-37.764-18.774s-8.276-.496-17.742.495c-8.029.842-17.742 3.022-17.742 3.022 10.754-19.022 17.147-38.342 18.287-47.11-7.335-7.728-15.264-15.109-23.342-20.954-17.842.842-32.016 1.882-32.016 1.882l5.997-24.322s-4.114 3.418-8.673 7.975c-4.906 4.904-10.358 10.997-10.358 10.997-10.655 4.31-25.672 6.688-25.672 6.688-7.681-1.982-15.016-6.985-15.016-6.985 18.039-26.7 47.379-37.351 47.379-37.351-5.353-6.34-5.006-11.344-5.006-11.344 7.484-4.953 14.323-9.015 20.369-12.334-1.487 3.913-1.685 6.687-1.685 6.687s10.259-8.273 16.553-12.037c6.988-4.211 13.827-7.778 13.827-7.778 4.51-14.613 12.291-26.453 14.323-28.087 0 0 4.113-.644 6.194-.397.397 4.756 5.848 12.385 8.079 15.307-11.349 3.716-21.162 11.047-21.162 11.047s24.879-6.638 46.932-7.381c29.835-.991 48.271 5.746 48.271 5.746-4.51 6.49-10.556 13.276-10.556 13.276 49.411-16.743 54.565-29.524 81.327-35.27 9.763 1.585 18.585 4.756 18.585 4.756 6.343 6.687 7.83 13.523 7.83 13.523-3.667 28.533-15.165 60.534-15.165 60.534-9.02 10.998-24.532 21.004-24.532 21.004 15.512-1.981 38.557-9.016 38.557-9.016 14.323 10.453 33.106 33.141 40.887 42.899 16.206-44.979 22.599-87.234 24.234-118.839-6.542-3.269-87.571-42.849-209.735-42.849s-203.342 39.53-209.884 42.8m97.979 182.544c-11.993-9.512-16.008-23.332-16.008-23.332.347-9.66 5.006-15.654 5.006-15.654 21.707 15.356 55.06 29.029 55.06 29.029-26.018 2.476-44.058 10.006-44.058 10.006zm-4.708-75.445c1.784-1.387 4.163-3.27 5.749-4.459 0 0 9.466-1.337 19.774-2.031 8.029-.644 15.413-.297 15.413-.297l6.591 7.728c-3.469.396-8.97 1.238-14.867 3.17 0 0 13.133 3.616 22.202 9.809-.149 1.188-.297 2.377-.495 3.566-2.875-.297-11.102-.891-19.477.347 0 0 9.168 4.26 16.701 10.304-.446 1.337-.941 2.625-1.387 3.864-2.974-.644-9.565-1.784-17.247-1.536 0 0 6.988 4.31 13.331 10.205-1.635 3.12-2.824 5.052-2.824 5.052-19.329-5.796-43.414-16.793-49.56-19.666l-.297-19.072c2.081-2.576 3.221-4.161 6.443-7.034zm-28.1-7.53a96 96 0 0 0 4.956 7.133c2.081 2.725 4.411 5.152 6.988 7.58l6.938 19.517c-4.956 4.706-11.448 15.01-11.448 15.01-8.029-13.672-14.323-31.357-14.323-31.357l6.889-17.933zM480.05 555.053a424 424 0 0 0 33.155-19.171c-10.457 6.688-21.459 13.128-33.155 19.171"/><path fill="#041e42" d="M577.434 304.346c10.655-5.994 25.027-19.319 25.027-19.319 7.682-22.688 14.323-53.054 14.323-53.054 0-3.022-3.618-7.877-3.618-7.877-3.618-1.882-11.993-3.12-11.993-3.12-12.39 1.981-28.547 14.118-41.382 24.223 6.69 0 18.337-2.13 18.337-2.13-2.33 5.994-10.656 21.697-10.656 21.697 5.353.347 15.66-1.981 15.66-1.981-4.013 12.335-11.695 27.344-11.695 27.344l5.997 14.316z"/><path fill="#041e42" d="M241.025 106.892v101.402c0 27.642 3.965 100.511 40.54 179.819C326.218 484.81 391.884 541.777 480 587.5c87.373-45.376 153.535-102.046 198.436-199.387 36.624-79.308 40.539-152.177 40.539-179.819V106.892C645.132 68.451 560.633 52.5 480.05 52.5s-164.636 15.703-239.025 54.392m465.065 7.876v93.526c0 26.8-3.816 97.439-39.35 174.37-41.382 89.613-104.174 147.373-186.69 190.223-82.17-42.652-145.16-100.313-186.69-190.223-35.534-76.931-39.35-147.57-39.35-174.37v-93.526c65.319-33.982 150.809-49.29 226.04-49.29s160.572 15.258 226.04 49.29"/><path fill="#041e42" d="M488.227 262.141c-1.685-.694-3.37-1.437-5.055-2.081-4.956-1.981-9.218-3.517-9.218-3.517s-2.28 0-6.789.793a95 95 0 0 0-5.204 1.04c-7.93 1.783-19.774 5.3-35.386 12.335l-1.486-3.072-2.032-4.111-20.121 27.641c6.839 1.288 13.876 1.685 20.418 1.685 14.273-.05 25.821-2.279 25.821-2.279 7.483-6.291 14.124-13.127 18.634-18.131 1.536-1.634 2.775-3.12 3.816-4.26a207 207 0 0 0 2.428-2.823c4.659-1.338 8.326-1.982 14.174-3.171zm-44.058 21.202c-11.349 5.498-21.013.99-21.013.99s1.437-2.378 2.676-4.508c1.636 1.734 6.245 3.567 9.664 2.18 3.37-1.387 4.708-4.904 5.154-6.588 3.767-.694 7.93-1.239 12.192-1.586 0 0-1.685 6.093-8.673 9.512"/><path fill="#b9975b" d="M467.809 272.345c-4.56 4.954-11.151 11.79-18.634 18.131 0 0-11.498 2.229-25.821 2.278 14.273-.049 25.821-2.278 25.821-2.278 7.483-6.291 14.124-13.128 18.634-18.131M426.575 270.661l-1.487-3.071z"/><path fill="#b9975b" d="M254.009 208.294c0 26.799 3.816 97.439 39.351 174.37 41.53 89.91 104.471 147.571 186.69 190.222 82.516-42.849 145.308-100.609 186.69-190.222 35.534-76.931 39.35-147.571 39.35-174.37v-93.526c-65.468-34.032-151.107-49.29-226.04-49.29s-160.721 15.308-226.041 49.29zM665.55 343.728c-7.781-9.759-26.564-32.447-40.886-42.899 0 0-22.996 7.034-38.557 9.016 0 0 15.512-10.007 24.532-21.004 0 0 11.497-32.05 15.165-60.534 0 0-1.487-6.836-7.831-13.524 0 0-8.821-3.17-18.584-4.755-26.763 5.746-31.917 18.526-81.327 35.27 0 0 6.095-6.836 10.556-13.276 0 0-18.387-6.737-48.271-5.746-22.054.743-46.933 7.381-46.933 7.381s9.813-7.381 21.162-11.047c-2.23-2.923-7.682-10.502-8.078-15.307-2.131-.248-6.195.396-6.195.396-1.982 1.685-9.763 13.524-14.323 28.088 0 0-6.839 3.616-13.827 7.777-6.244 3.765-16.553 12.038-16.553 12.038s.199-2.774 1.685-6.688c-6.046 3.319-12.885 7.381-20.368 12.335 0 0-.347 5.003 5.005 11.344 0 0-29.339 10.65-47.379 37.351 0 0 7.335 5.003 15.017 6.985 0 0 15.016-2.329 25.672-6.688 0 0 5.402-6.093 10.357-10.997 4.56-4.558 8.673-7.976 8.673-7.976l-5.996 24.323s14.174-1.04 32.015-1.882c8.078 5.845 16.008 13.176 23.342 20.954-1.139 8.768-7.533 28.087-18.287 47.11 0 0 9.714-2.131 17.742-3.022 9.516-.991 17.743-.496 17.743-.496s16.106 11.443 37.764 18.775c24.978 8.471 39.3 10.254 57.29 8.273 0 0 20.022-16.496 31.173-41.166 0 0-2.18-20.855-5.65-39.827 0 0 17.594 14.415 27.605 55.927 0 0-1.288 71.185-47.23 118.641-.396.347-.793.743-1.239 1.09-14.224 12.632-29.983 24.669-47.379 35.815A401 401 0 0 1 480 554.954s5.997-12.582 6.988-23.926c0 0-1.437-23.184-15.165-39.779-6.889 12.236-18.535 27.89-35.931 37.252-130.143-89.81-161.712-227.424-165.627-303.662 6.542-3.269 87.571-42.849 209.735-42.849s203.243 39.53 209.735 42.849c-1.586 31.654-7.979 73.86-24.234 118.84zm-98.127-79.111s8.326-15.653 10.655-21.697c0 0-11.696 2.13-18.337 2.13 12.836-10.056 28.992-22.192 41.382-24.223 0 0 8.376 1.238 11.993 3.121 0 0 3.618 4.854 3.618 7.876 0 0-6.641 30.416-14.322 53.054 0 0-14.323 13.326-25.028 19.32l-5.996-14.317s7.681-15.009 11.695-27.344c0 0-10.357 2.328-15.66 1.981zm-93.42.694c.149 3.022 0 5.35 0 5.35-5.005 8.669-14.521 19.022-20.616 24.669-12.737 3.022-25.176 3.171-35.782 2.675l-14.67-6.885 20.121-27.642s27.605-10.997 50.898-6.935c0 0 4.262 1.536 9.218 3.517 1.635.644 3.37 1.338 5.055 2.081-5.848 1.188-9.515 1.832-14.174 3.17-.248.248-1.09 1.288-2.428 2.824a219 219 0 0 0 2.428-2.824zm25.87 20.607c.992-4.062.298-16.991.298-16.991s7.335 2.427 18.684 11.443c0 0-1.487 8.322-3.767 16.744l-39.449 18.081s13.133-14.168 24.185-29.277zm-230.005-161.54S352.583 81.33 480.05 81.33s210.181 43.048 210.181 43.048v83.47c-63.04-28.682-141.145-41.661-210.181-41.661s-147.241 13.029-210.182 41.661z"/><path fill="#c8102e" d="M435.496 282.005c-3.419 1.387-8.028-.446-9.664-2.179-1.239 2.13-2.676 4.507-2.676 4.507s9.664 4.508 21.013-.99c6.988-3.369 8.673-9.511 8.673-9.511-4.262.346-8.475.842-12.192 1.585-.446 1.684-1.734 5.201-5.154 6.588M690.231 207.848v-83.47S607.517 81.331 480.05 81.331s-210.181 43.047-210.181 43.047v83.47c62.94-28.632 140.897-41.66 210.181-41.66s147.142 12.978 210.181 41.66m-63.684-81.389c1.685-2.675 3.37-5.301 5.055-7.926 7.781 2.328 15.562 4.805 23.244 7.53 1.635 3.715 3.32 7.43 4.956 11.195v45.079a459 459 0 0 0-10.705-3.716v-21.746c-3.915-1.288-7.83-2.576-11.746-3.815v21.747c-3.617-1.09-7.186-2.18-10.804-3.22zm-59.57-22.837a489 489 0 0 1 28.943 5.647c1.685 3.518 3.419 7.035 5.104 10.601v35.667c-1.685 2.725-3.419 5.499-5.104 8.273a573 573 0 0 0-28.943-5.647zm-37.07-4.805c3.717.347 7.434.743 11.101 1.189v54.491c-3.717-.446-7.434-.793-11.101-1.189zm-201.41 30.713c-5.848 1.734-11.696 3.616-17.544 5.548v10.75a609 609 0 0 1 12.489-4.013v10.998a521 521 0 0 0-12.489 4.012v21.747a458 458 0 0 0-10.704 3.715v-54.491a508 508 0 0 1 28.248-9.263zm54.318 30.416a524 524 0 0 0-28.844 6.192v-54.491a881 881 0 0 1 10.953-2.576v43.494c5.947-1.338 11.894-2.527 17.891-3.666zm60.313-17.09-5.203 9.808c-8.029.644-16.058 1.436-24.037 2.477-1.734-2.923-3.419-5.846-5.154-8.719v-35.666c1.735-3.369 3.42-6.737 5.154-10.106a556 556 0 0 1 24.037-2.477c1.734 3.022 3.469 5.994 5.203 9.016zm26.118-46.268a527 527 0 0 1 29.339.198c1.735 3.17 3.469 6.39 5.204 9.61v13.92l-5.204 9.214c-1.239 0-2.428-.099-3.667-.099 2.973 7.332 5.897 14.713 8.871 22.094-3.965-.199-7.93-.298-11.845-.397-2.973-7.331-5.897-14.613-8.871-21.895h-2.627v21.747c-3.716 0-7.433 0-11.15.099V96.588z"/><path fill="#c8102e" d="M492.638 107.585a501 501 0 0 0-12.192-.148v10.749q6.096 0 12.192.149zM649.097 135.078a1069 1069 0 0 0-11.746-3.814v10.749c3.915 1.239 7.831 2.477 11.746 3.815zM578.029 149.097c4.014.743 8.029 1.536 11.993 2.378v-32.496a569 569 0 0 0-11.993-2.378zM419.835 143.4c4.064-.446 8.078-.891 12.142-1.238v-32.496c-4.064.346-8.128.792-12.142 1.238z"/><path fill="#fff" d="M480.446 129.233h2.627c2.973 7.282 5.897 14.564 8.871 21.895 3.965.099 7.929.198 11.845.397-2.974-7.381-5.898-14.762-8.872-22.094 1.239 0 2.429.05 3.668.099l5.204-9.214v-13.92c-1.735-3.22-3.47-6.39-5.204-9.61a527 527 0 0 0-29.339-.198v54.491c3.717-.099 7.434-.099 11.151-.099v-21.747zm0-21.796q6.096 0 12.192.148v10.75a501 501 0 0 0-12.192-.149zM364.923 109.071c-3.667.793-7.285 1.685-10.952 2.576v54.491a524 524 0 0 1 28.843-6.192v-10.997c-5.996 1.089-11.943 2.328-17.891 3.665zM300.298 182.337a456 456 0 0 1 10.705-3.716v-21.746a609 609 0 0 1 12.489-4.013v-10.997a524 524 0 0 0-12.489 4.012v-10.749c5.798-1.932 11.646-3.814 17.544-5.548v-10.997a536 536 0 0 0-28.249 9.263zM637.351 153.06c3.916 1.238 7.831 2.477 11.746 3.814v21.747a458 458 0 0 1 10.705 3.715v-45.078c-1.636-3.716-3.321-7.48-4.956-11.196a552 552 0 0 0-23.244-7.529c-1.685 2.625-3.37 5.3-5.055 7.926v45.078a692 692 0 0 1 10.804 3.22V153.01zm0-21.747c3.916 1.239 7.831 2.477 11.746 3.815v10.749c-3.915-1.288-7.83-2.576-11.746-3.814zM413.888 100.6c-1.734 3.369-3.419 6.737-5.154 10.106v35.667c1.735 2.922 3.42 5.795 5.154 8.718a556 556 0 0 1 24.036-2.477l5.204-9.808v-35.667a1438 1438 0 0 0-5.204-9.016c-8.028.644-16.057 1.437-24.036 2.477m18.089 41.562c-4.064.347-8.127.793-12.142 1.238v-32.496c4.064-.446 8.078-.892 12.142-1.238zM541.008 99.957a445 445 0 0 0-11.102-1.19v54.491c3.717.347 7.434.743 11.102 1.189zM601.024 155.537V119.87c-1.685-3.517-3.42-7.084-5.105-10.601a574 574 0 0 0-28.942-5.647v54.491a488 488 0 0 1 28.942 5.647c1.685-2.774 3.42-5.499 5.105-8.273zm-10.953-4.062a569 569 0 0 0-11.993-2.378v-32.496a462 462 0 0 1 11.993 2.378zM342.919 373.698s6.492-10.254 11.448-15.009l-6.938-19.518c-2.627-2.427-4.907-4.855-6.988-7.579-1.982-2.527-3.618-5.003-4.956-7.134l-6.889 17.933s6.344 17.685 14.323 31.357zM352.236 384.002s4.015 13.821 16.008 23.332c0 0 18.04-7.48 44.058-10.006 0 0-33.353-13.673-55.06-29.029 0 0-4.659 5.994-5.006 15.654zM449.175 290.476s-11.498 2.229-25.821 2.279c-6.492 0-13.579-.397-20.418-1.684l14.669 6.885c10.606.496 22.996.347 35.782-2.675 6.096-5.647 15.611-16 20.617-24.669 0 0 .148-2.329 0-5.35-.248.247-1.091 1.288-2.429 2.823a250 250 0 0 1-3.816 4.261c-4.559 4.953-11.151 11.789-18.634 18.13zM406.95 377.711s1.189-1.883 2.825-5.053c-6.344-5.895-13.332-10.205-13.332-10.205 7.682-.198 14.273.942 17.247 1.536a70 70 0 0 0 1.388-3.864c-7.583-6.043-16.702-10.303-16.702-10.303 8.376-1.239 16.602-.595 19.477-.347.198-1.189.347-2.378.495-3.567-9.019-6.192-22.202-9.808-22.202-9.808 5.897-1.932 11.399-2.774 14.868-3.171l-6.592-7.727s-7.434-.347-15.413.297c-10.308.693-19.774 2.031-19.774 2.031-1.586 1.189-3.965 3.071-5.749 4.458-3.221 2.873-4.361 4.459-6.442 7.034l.297 19.072c6.145 2.873 30.231 13.871 49.559 19.666z"/><path fill="#041e42" d="M518.904 280.37c-11.349-9.015-18.684-11.443-18.684-11.443s.694 12.88-.297 16.991c-11.002 15.109-24.185 29.277-24.185 29.277l39.449-18.081c2.28-8.421 3.767-16.744 3.767-16.744z"/><path fill="#fff" d="M509.042 432.35s3.519 8.273 5.749 20.013c1.933 10.056.991 16.248.991 16.248-32.015-36.657-78.502-59.246-78.502-59.246s64.378 53.004 49.708 121.712c-.991 11.344-6.988 23.927-6.988 23.927a424 424 0 0 0 33.155-19.171c17.396-11.196 33.155-23.233 47.379-35.815-18.04-40.472-51.542-67.668-51.542-67.668zM426.575 270.661c15.612-7.034 27.407-10.551 35.386-12.334a96 96 0 0 1 5.204-1.041c4.509-.743 6.789-.792 6.789-.792-23.293-4.112-50.897 6.935-50.897 6.935l2.032 4.111 1.486 3.072z"/><path fill="#041e42" d="M543.288 567.933c0 5.598 4.559 10.155 10.159 10.155s10.16-4.557 10.16-10.155-4.559-10.155-10.16-10.155-10.159 4.557-10.159 10.155m18.138 0c0 4.409-3.568 7.975-7.979 7.975s-7.979-3.566-7.979-7.975 3.569-7.976 7.979-7.976 7.979 3.567 7.979 7.976"/><path fill="#041e42" d="M549.284 573.729h2.181v-4.706h1.586l2.18 4.706h2.429l-2.28-4.904c1.338-.496 2.28-1.734 2.28-3.22 0-1.932-1.537-3.468-3.42-3.468h-4.906v11.592zm2.181-9.412h2.726c.693 0 1.288.545 1.288 1.288s-.595 1.288-1.288 1.288h-2.726z"/></svg>