<svg width="500" height="500" viewBox="0 0 500 500" fill="none" xmlns="http://www.w3.org/2000/svg">
<path fill-rule="evenodd" clip-rule="evenodd" d="M289.196 108.914L265.835 133.398C304.102 117.498 387.547 90.2005 387.547 90.2005L360.811 116.354C433.788 94.7474 489.244 84.5098 489.244 84.5098C489.244 84.5098 473.174 121.908 449.167 159.358C453.811 158.857 484.123 155.324 484.123 155.324C484.123 155.324 456.826 200.543 425.305 233.135L442.947 237.524C442.947 237.524 415.459 277.137 379.181 309.471C327.01 355.962 300.166 348.821 300.166 348.821C261.438 376.87 230.398 362.655 230.398 362.655C230.398 362.655 243.808 328.81 229.953 325.217C217.464 321.972 198.464 331.736 196.092 335.653C193.626 344.193 183.243 365.881 172.517 379.008C151.948 404.172 129.141 414.458 129.141 414.458C129.141 414.458 111.176 399.128 111.059 373.03C111.059 373.03 98.7193 386.101 78.632 390.373C64.571 393.364 45.381 390.935 25.7222 374.522C12.522 363.504 10 326.478 10 326.478C10 326.478 22.404 302.782 46.3268 282.015C41.0321 277.473 37.7867 271.758 36.7682 268.229C100.356 240.475 100.401 213.981 150.954 181.773C200.76 150.042 232.059 135.451 289.196 108.914Z" fill="white"/>
<path fill-rule="evenodd" clip-rule="evenodd" d="M258.221 131.39L238.243 152.33C277.698 134.866 361.017 106.501 361.017 106.501L336.836 130.157C422.265 103.708 476.448 94.748 476.448 94.748C476.448 94.748 458.741 134.211 435.178 167.733C446.588 166.638 470.386 163.873 470.386 163.873C470.386 163.873 446.588 203.745 411.417 237.517C415.326 238.091 431.286 241.732 431.286 241.732C431.286 241.732 410.075 273.205 373.211 305.486C326.154 346.687 305.278 341.809 305.278 341.809C305.278 341.809 305.731 340.2 305.686 337.698C305.654 336.316 305.359 335.063 305.347 334.962C269.121 369.054 238.942 357.551 238.942 357.551C238.942 357.551 252.34 325.113 231.788 318.565C215.868 313.497 191.48 326.527 189.536 333.507C187.422 341.098 177.31 362.163 167.283 374.506C149.887 395.923 130.632 405.696 130.632 405.696C130.632 405.696 113.128 392.229 119.199 352.814C120.524 344.226 118.823 340.871 117.885 339.428C115.011 335.031 92.6163 339.828 87.1519 352.321C83.2961 361.144 105.55 368.601 105.55 368.601C105.55 368.601 95.2797 379.93 77.3306 383.6C66.0421 385.908 48.5618 385.172 30.2084 369.28C19.3484 359.879 17.0972 328.067 17.0972 328.067C17.0972 328.067 30.5116 303.494 56.6411 282.271C51.4839 278.896 47.5675 273.177 46.5773 270.93C99.2285 248.252 106.447 216.185 165.884 180.351C193.586 163.651 222.763 147.217 258.221 131.39Z" fill="#004851"/>
<path fill-rule="evenodd" clip-rule="evenodd" d="M399.16 242.241C398.731 242.156 398.38 242.087 398.124 242.034C435.558 206.318 452.137 172.97 452.137 172.97C452.137 172.97 436.718 173.81 422.415 174.817C446.095 141.549 457.242 108.779 457.242 108.779C457.242 108.779 409.792 118.766 387.082 123.62C344.438 132.73 310.593 144.322 310.593 144.322L331.008 124.546C331.008 124.546 265.54 145.211 226.902 164.175C222.622 166.272 212.808 170.468 212.808 170.468L224.529 155.716C224.529 155.716 193.469 168.972 152.894 195.967C137.505 206.206 125.584 217.924 113.763 229.544C97.3019 245.725 81.034 261.717 55.8611 273.26C55.8611 273.26 58.6539 277.916 67.6224 281.356C59.1632 287.426 38.7445 303.759 23.2527 329.44C23.2527 329.44 26.191 357.974 34.0925 364.732C66.3048 392.284 94.1481 370.055 94.1481 370.055C94.1481 370.055 74.8652 361.511 80.374 349.341C87.2045 334.229 108.86 331.618 114.567 331.881C114.567 331.881 128.878 331.178 125.095 353.799C119.966 384.484 131.926 398.108 131.926 398.108C131.926 398.108 169.344 376.667 184.084 331.097C189.763 313.548 263.802 289.189 246.35 353.12C260.723 356.446 295.34 343.727 306.677 323.005C309.045 325.976 311.005 330.285 311.345 335.337C341.556 332.968 395.614 275.366 413.701 246.031C409.467 244.276 402.273 242.856 399.16 242.241ZM145.486 274.299C149.871 271.68 151.827 266.902 149.859 263.62C148.747 261.765 146.605 260.816 144.18 260.787C144.716 260.128 145.222 259.492 145.696 258.897C145.948 258.581 146.19 258.277 146.423 257.986C149.341 258.314 151.864 259.68 153.274 262.024C156.059 266.668 153.464 273.321 147.474 276.889C141.484 280.466 134.375 279.597 131.586 274.961C131.239 274.379 130.976 273.753 130.79 273.114C131.679 272.617 132.54 272.072 133.373 271.482C133.494 272.043 133.676 272.589 133.979 273.09C135.951 276.376 141.1 276.914 145.486 274.299Z" fill="black"/>
<path fill-rule="evenodd" clip-rule="evenodd" d="M218.244 275.408C250.861 264.75 271.546 274.797 271.546 274.797C232.01 269.992 202.53 290.798 192.382 303.776C198.101 292.229 206.54 284.784 206.54 284.784C204.507 285.787 202.498 286.939 200.509 288.212C192.365 292.9 159.013 309.839 130.051 291.845C128.252 290.73 126.74 289.687 125.431 288.709C135.062 293.753 150.954 294.181 157.55 287.69C134.456 293.648 130.354 283.103 129.861 276.543C128.369 276.826 125.973 276.644 124.182 276.228C124.182 276.228 127.961 274.624 129.836 273.654C130.066 273.536 130.29 273.406 130.514 273.275C130.606 273.222 130.698 273.169 130.79 273.116C130.976 273.755 131.239 274.381 131.586 274.963C134.375 279.599 141.485 280.468 147.474 276.891C153.464 273.322 156.059 266.67 153.274 262.026C151.864 259.681 149.342 258.315 146.423 257.988C146.73 257.632 147.079 257.212 147.47 256.74C149.729 254.019 153.409 249.585 158.67 245.802C154.127 251.25 152.676 254.937 152.502 255.401C155.287 255.838 157.728 257.03 158.904 259.241C161.22 263.574 159.644 266.977 158.803 268.719C158.801 268.716 158.798 268.715 158.795 268.715C158.794 268.715 158.792 268.715 158.791 268.715C157.247 271.98 154.378 275.202 150.514 277.639C145.284 280.941 139.553 281.975 135.337 280.787C135.337 280.787 136.093 282.165 137.318 282.978C139.355 284.34 145.373 286.324 154.074 282.392C157.3 280.933 159.721 279.276 161.568 277.594C166.602 273.816 168.184 269.227 169.71 264.8C170.168 263.473 170.62 262.161 171.159 260.89C176.668 247.872 188.045 236.599 201.302 231.919C195.272 232.654 188.6 235.638 183.329 237.995C177.583 240.565 173.503 242.389 173.737 239.744C173.947 237.383 180.705 214.891 222.1 197.682C222.229 197.635 222.357 197.588 222.485 197.542C223.111 197.314 223.736 197.086 224.38 196.861C224.38 196.861 204.28 199.973 173.992 218.032C162.081 225.137 151.379 234.958 145.963 242.419C146.156 238.443 147.934 234.566 149.457 231.243C149.812 230.469 150.153 229.725 150.457 229.017C144.029 233.157 142.18 238.222 140.203 243.637C138.713 247.718 137.151 251.997 133.502 256.23C129.784 260.195 125.867 263.99 121.713 266.69C97.7089 282.323 74.0125 272.595 74.0125 272.595C99.4104 258.867 104.156 253.536 115.46 240.838C118.473 237.453 121.953 233.545 126.413 228.815C150.174 203.627 164.773 190.653 204.761 171.043C203.261 172.977 199.063 176.923 195.317 180.445C192.534 183.061 190.001 185.442 189.007 186.591C189.007 186.591 197.03 182.299 212.222 175.089C266.106 149.505 305.889 139.979 305.889 139.979C305.889 139.979 296.035 147.031 289.225 151.55C279.985 157.681 271.805 163.606 271.805 163.606C271.805 163.606 272.165 163.445 272.832 163.162C350.4 138.851 414.473 146.453 414.473 146.453C372.54 150.495 338.63 158.465 320.637 166.686C320.637 166.686 345.481 162.418 358.111 162.418C370.467 162.418 380.571 163.618 380.571 163.618C301.536 175.95 259.025 198.793 248.662 204.945C244.35 206.78 242.09 207.923 242.09 207.923C242.09 207.923 254.979 203.886 271.316 199.836C300.065 195.427 342.135 197.799 382.725 209.847C382.725 209.847 354.583 208.356 342.284 208.631C305.557 209.447 267.707 224.216 267.707 224.216C291.613 218.189 317.82 222.627 317.82 222.627C307.631 223.213 282.576 229.906 270.002 235.084C251.888 242.545 233.579 253.17 220.237 262.984C214.841 266.185 211.956 268.294 211.956 268.294C211.956 268.294 218.802 264.616 230.325 260.171C249.968 253.562 283.235 247.665 320.188 260.078C263.237 248.732 218.244 275.408 218.244 275.408ZM140.781 273.371C140.781 273.371 138.178 273.585 136.485 272.336C135.523 271.625 135.111 270.784 134.941 270.299C136.081 269.394 137.16 268.428 138.187 267.433C138.073 269.289 138.498 271.645 140.781 273.371Z" fill="white"/>
<path fill-rule="evenodd" clip-rule="evenodd" d="M320.637 166.685C338.63 158.464 372.54 150.494 414.473 146.452C414.473 146.452 350.4 138.85 272.832 163.161C278.26 160.861 305.472 149.88 347.579 142.063C388.068 134.55 423.74 131.672 423.74 131.672C423.74 131.672 415.697 156.65 395.214 176.438C391.844 176.773 387.303 177.113 381.928 177.516L381.927 177.516C364.384 178.829 337.964 180.807 314.457 185.463C281.901 191.913 259.163 200.494 248.662 204.944C259.025 198.792 301.536 175.949 380.571 163.617C380.571 163.617 370.467 162.417 358.111 162.417C345.481 162.417 320.637 166.685 320.637 166.685ZM342.284 208.63C354.583 208.355 382.725 209.847 382.725 209.847C342.135 197.798 300.064 195.426 271.316 199.835C281.081 197.423 292.074 194.998 302.291 193.429C349.664 186.142 415.091 193.167 415.091 193.167C415.091 193.167 412.064 202.79 397.841 218.387C384.431 233.103 379.395 236.979 379.395 236.979C302.324 220.557 241.593 250.32 220.237 262.983C233.579 253.17 251.887 242.544 270.002 235.083C282.576 229.906 307.631 223.213 317.82 222.627C317.82 222.627 291.613 218.189 267.707 224.215C267.707 224.215 305.557 209.447 342.284 208.63ZM174.186 246.113C174.186 246.113 166.761 250.531 165.65 246.255C162.699 234.869 182.645 212.381 220.581 198.227C220.661 198.195 221.676 197.831 222.1 197.682C180.705 214.891 173.947 237.383 173.737 239.744C173.503 242.389 177.583 240.564 183.329 237.995C188.6 235.638 195.272 232.654 201.302 231.919C188.045 236.599 176.667 247.871 171.159 260.89C170.62 262.161 170.168 263.473 169.71 264.8C168.184 269.226 166.602 273.816 161.568 277.594C167.359 272.328 167.299 266.88 167.299 266.88C167.299 266.88 164.255 268.714 161.657 268.997C160.8 269.09 159.781 268.945 158.803 268.719C160.036 266.306 160.098 264.544 160.12 263.908C160.122 263.862 160.123 263.822 160.125 263.788C164.146 254.613 174.186 246.113 174.186 246.113ZM231.732 287.531C285.215 274.262 322.383 290.348 326.849 307.247C326.849 307.247 327.031 307.158 327.374 306.972C327.595 306.852 327.878 306.708 328.224 306.533C331.274 304.984 339.122 301 350.359 289.944C363.495 277.015 371.728 266.644 374.981 259.664C320.273 232.241 259.898 248.747 230.325 260.169C249.968 253.561 283.235 247.664 320.188 260.076C263.237 248.731 218.244 275.406 218.244 275.406C250.861 264.748 271.546 274.796 271.546 274.796C232.01 269.99 202.53 290.797 192.382 303.775C191.602 305.363 190.866 307.02 190.211 308.75C199.366 300.125 209.155 293.129 231.732 287.531ZM201.629 308.969C201.629 308.969 215.108 298.829 237.984 302.507C271.825 307.947 270.855 329.267 270.855 329.267C270.855 329.267 286.088 322.715 293.792 309.317C293.792 309.317 284.237 300.199 266.959 297.147C221.906 289.189 201.629 308.969 201.629 308.969ZM109.155 284.367C100.465 287.027 89.4436 286.267 83.3609 284.618C82.1451 285.456 80.3813 286.473 78.2122 287.725C67.8701 293.691 48.3154 304.973 35.0383 327.448L35.1156 328.31C35.9286 337.387 36.9378 348.656 40.6078 354.923C56.0511 379.315 83.0294 370.298 83.0294 370.298C83.0294 370.298 42.0426 352.11 85.8546 325.597C99.8429 317.133 138.538 310.78 161.616 318.2C163.585 318.924 166.018 320.654 165.852 321.094C163.459 332.843 153.771 365.743 137.71 375.095C134.061 369.768 135.868 361.603 137.605 353.753C140.095 342.497 142.443 331.888 128.361 331.219C128.361 331.219 134.306 340.438 131.744 352.821C131.68 353.131 131.607 353.47 131.529 353.837L131.528 353.84C130.227 359.916 127.292 373.629 133.53 387.79C133.53 387.79 169.865 366.058 180.649 315.901C180.87 315.12 181.079 314.358 181.284 313.614L181.284 313.614C182.376 309.648 183.332 306.175 185.139 302.983C138.453 321.381 109.155 284.367 109.155 284.367ZM95.1141 300.335C91.7676 301.329 84.537 302.356 87.9724 297.207C87.9724 297.207 92.3213 294.863 98.1373 291.848C100.639 293.897 103.238 295.328 110.04 295.978C110.04 295.978 97.8261 299.527 95.1141 300.335Z" fill="#A2AAAD"/>
</svg>
