<svg xmlns="http://www.w3.org/2000/svg" width="500" height="500" viewBox="0 0 500 500"><g fill="none"><path d="M0 0h500v500h-500z"/><path fill="#231F20" fill-rule="nonzero" d="M255.323 308.204c.177.097-.02.277.065.337.089.068.234.057.346-.029-.166-.031-.012-.149-.06-.217-.094-.156-.24-.045-.351-.091"/><path fill="#FFF" fill-rule="nonzero" d="M250.179 53c-50.173 45.474-115.686 44.114-182.966 35.653-14.512 164.821 41.941 327.501 181.897 356.962 141.294-28.325 197.093-190.695 183.469-355.59-62.629 6.314-127.535 8.877-182.4-37.025M250.179 53c-50.173 45.474-115.686 44.114-182.966 35.653-14.512 164.821 41.941 327.501 181.897 356.962 141.294-28.325 197.093-190.695 183.469-355.59-62.629 6.314-127.535 8.877-182.4-37.025"/><path stroke="#0A0A09" stroke-width=".667" d="M250.179 53c-50.173 45.474-115.686 44.114-182.966 35.653-14.512 164.821 41.941 327.501 181.897 356.962 141.294-28.325 197.093-190.695 183.469-355.59-62.629 6.314-127.535 8.877-182.4-37.025z"/><path fill="#0A0A09" fill-rule="nonzero" d="M249.951 69.067c-41.824 34.014-107.79 42.455-170.782 33.249-9.393 150.302 39.629 297.167 169.508 331.056 130.058-33.184 180.451-179.402 171.874-329.749-64.267 7.232-128.963-.316-170.599-34.556"/><path fill="#FFF" fill-rule="nonzero" d="M299.95 328.14c-1.523 4.625-3.901 9.207-5.292 11.269 0 0 1.95 3.525 2.626 6.979 10.1 7.776 21.241 15.073 49.597 8.161-5.053-1.548-36.717-17.324-44.867-25.012l-2.065-1.396M195.505 332.486s4.734 7.511 6.399 8.46c0 0 2.039 1.814 1.278 8.189-11.398 8.528-39.249 11.983-53.377 6.436 0 0 34.077-13.436 43.501-21.923l2.198-1.163M283.791 329.793c-.659.71-1.229 1.452-1.947 2.12-.257.24-.47.669-.799.915-.792.599-1.497 1.155-2.353 1.703-.873.556-1.494 2.07-.749 2.738.638.573 1.87 1.191 2.666-.015.431-.647 1.355-.78 1.873-1.24 1.466-1.311 2.527-3.056 2.909-5.073.137-.71-.462-1.046-.938-1.542.12.565-.636.396-.684.821l.022-.426M211.515 331.845c.812 2.258 2.712 3.225 3.282 4.134.898 1.444 1.318 2.967 2.19 4.346-1.485.845-2.623 3.24-4.08 2.515-.736-.361-.958-1.933-1.4-3.039-1.115-2.797.445-5.111.009-7.956"/><path fill="#C8C7C7" fill-rule="nonzero" d="M238.676 171.912c-17.079 0-34.728 4.271-40.037 20.603 0 0-8.994 32.885-8.413 38.041-4.779 1.455-14.428 6.084-11.532 32.32 0 0 10.351 47.147 14.997 56.369l2.985.162s2.715-2.849 2.219 6.525c0 0-1.569 5.475 3.393 8.735 0 0 1.925-7.903 3.208 4.014.248 11.555 3.884 23.722 20.783 35.723 0 0 7.969-5.136 8.842-5.518 0 0-11.737-4.466-17.794-11.198 0 0 1.703 8.213-5.073-1.12 0 0-3.256-3.164-5.121-24.641.159-2.982-.248-3.434-2.647-6.553-9.325-18.995-16.725-62.818.782-79.041 18.444-1.174 62.472-2.156 78.991.855 6.758 1.632 10.078 3.805 11.604 15.431 3.29 14.706 1.104 44.102-6.544 67.639 0 0-1.124 5.073-3.815 7.497-2.202 1.164-10.189 6.733-14.047 15.084-1.437 2.915-4.58 5.738-9.829 8.033-5.295 3.14-24.8 8.101-17.122 16.628 0 0-2.215 1.001-6.122 2.079 0 0 1.035 4.758 3.213 4.017 0 0 3.926-1.5 5.338-3.995 11.472 1.458 26.147-1.192 35.121-9.27 3.547-2.378 10.129-5.492 10.898-11.664 0 0 3.795-7.069-2.424-18.937 2.356-4.156 6.194-12.078 5.655-18.094.226-.332 20.078-23.081 22.482-54.366 0 0-2.78-18.427-1.993-.855 0 0-.245 3.073-1.993 11.961 0 0-3.713 13.631-1.707.568 0 0 .741-20.768-1.706-39.289 0 0-.621-6.895 3.131 3.133.505 1.848-.569-2.277-.569-2.277s1.805 12.663 2.275 3.704c-2.275-10.529-2.849-13.098-5.98-14.235-1.946-15.484-7.686-30.458-7.686-30.458l-1.42 1.706c5.253 14.62 8.678 63.204 7.4 77.149 0 0-3.367 27.476-6.262 25.622 0 0 4.663-46.368 2.57-63.579-.987-21.859-4.132-27.155-5.389-35.773 0 0-6.924-18.039.257-8.256l.855-.57c-6.129-15.701-15.373-23.343-43.27-23.912l3.812 68.226-25.091.086 2.775-68.312"/><path fill="#FFF" fill-rule="nonzero" d="M206.921 260.976c-.128-.007 5.595-.95 5.509-.95 6.176.028 20.719-.068 23.864 1.172 1.612.633 4.44-.847 5.843-1.403 5.244-2.077 5.898-2.527 11.424-5.815.904-.541 7.408-4.457 6.228-4.587-15.094-1.651-45.879-1.463-51.957.353 0 0-2.563.426-3.285 1.23-2.875 3.208-2.267 3.465-4.266 7.901 1.3-2.888-.684 3.648-.859 4.23-.518 1.685 2.365 1.601 2.946.795 1.061-1.466 1.266-3.148 4.551-2.926M291.148 307.695c-.69 3.248-1.1 6.613-2.221 9.72-1.039 2.866-1.54 4.832-5.119 7.853-.741-6.238-2.503-9.326-2.165-11.662-2.404.941-2.079 4.517-2.335 7.79-.407 5.213 1.004 9.042.676 7.516.158.725-1.813 2.162-2.523 3.292-2.233 3.535-4.702 6.826-7.734 9.686-.453.426-.565 1.29-1.04 1.497-1.671.717-2.108 1.805-3.088 2.941-.799.933-2.92 1.668-4.02 2.267-.693.385-2.792.95-3.362 1.071-1.269.257-2.424.212-4.341.111-1.853-.094-4.38-2.375-6.373-2.859-5.805-1.42-7.16 3.833-16.186 1.893-3.721-.801-4.471-3.29-6.798-5.922-.453-.513-2.672-3.206-3.02-3.585.941 1.01-6.189-5.697-7.554-10.863-1.523-5.783-.739-6.245-.055-11.123.257-1.831-.091-6.425-1.784-6.724-1.583 1.625-.44 2.738-.911 5.081-.453 2.286 1.655 2.38.035 7.487-.462 1.463-1.258 1.102-1.716.123-1.689-3.632-.816-11.503-4.637-14.572-.881-.703-.933-2.832-.192-3.39 1.167-.881 2.327.513 3.841.162.265-.058.102-1.899-.103-2.138-1.254-1.472-4.029-.868-4.003-1.07.368-2.967.311-5.638-.698-7.09-1.395-1.995-3.434-2.335-4.264-4.286-1.759-4.125-1.155-6.478-1.314-7.556-.214-1.455-.565-3.815-.145-5.347-.423.094-.26-3.422-.24-3.651.261-2.575.718-2.43 1.112-4.859.077-1.491 3.761-2.367 3.795 1.061-.904 4.511.44 8.067.559 12.627.014.548.912 1.073 1.519 1.247 9.935 2.849 17.375 1.754 27.255 1.557 2.644-.049 4.235-3.352 4.799-5.944.936-4.269.941-5.725.975-10.425.496-1.252 1.651-.912 2.558.134 1.694 1.95.38 2.676.799 5.174.325 1.944-2.176 4.799-2.176 4.799.283.017-.847 6.587-.561 6.601.51.029-.38 5.897-.517 5.745-.382 3.189 1.817 2.017 1.484 4.352-.055 1.071-.602 2.55-.573 2.748.316 2.156-4.495 1.692-3.725 1.731-1.066-.055-1.896-.525-1.853-1.382.065-1.215-.268-2.125-.257-3.215-2.347-.128-1.377 1.76-1.505 4.19-.055 1.07.646 1.968 2.447 2.269 1.908.315 2.109.537 2.999-.051.462-.318 1.976-.652 2.211-1.386.887 3.471 1.93 3.95 4.497 3.873 1.099-.034 3.614.402 4.603-2.113.248-.631 1.954-.537 2.198-1.162 4.444.871 1.723 2.686 7.112.953 1.625-.517 2.952-2.858 1.549-4.709-.166-.223-1.039-.205-1.056-.088-.59 4.637-2.409 3.268-4.149 3.167-5.72-.336-2.635-2.705-7.485.032-.573.325-2.275 2.66-4.534.83-3.063-2.729.248-4.688.619-7.665.334-2.702.205-11.205.077-13.679-.299-5.826 1.189-2.284 2.178-4.799-.835.207-.39-7.135-.462-7.509-.505-2.592-3.559-1.588-4.354-2.575 0 0-.356-2.045.111-2.139 3.456-.669 7.831-2.577 10.979-4.123 7.272-3.576 11.366-5.8 14.885-7.984 1.044-.648 1.472-2.028 2.033-2.034 6.63-.077 13.024-1.417 18.918 1.855 4.12 2.286 5.115 4.543 6.193 8.443-.474.077.394 4.166.407 4.519.077 2.565-.057 7.252-.026 8.545.2 8.469.685 11.371-.47 17.08-.009.051-.89 2.091-1.177 2.074-.696 1.035-1.899 2.566-3.323 3.766-.45.374-.257 1.625.06 1.409.885-.599 2.613-.932 3.927-1.504-.043 3.625-.416 7.888-1.266 11.906"/><path fill="#0A0A09" fill-rule="nonzero" d="M279.598 267.111c.154.005-2.258-1.83-4.334-3.011-.953-.537-4.919 2.156-5.889 2.258-4.086.428-6.433.635-10.745.746-1.057.024-2.583.041-3.217-.943-.393-.607-.33-1.777.124-2.359 1.305-1.67 3.858 1.175 5.429-3.054-.008.015 4.871-.202 6.365-.27 5.102-.234 12.622-.194 11.951.414.616-.556 1.6 2.207 2.626 2.917 1.92 1.326 1.372-.431 2.233 2.255l-.056 1.064c-.018.284-.363 1.548-.517 1.687-.154.135-2.036-.541-2.324-.548.145 0-1.791-1.163-1.646-1.157M255.047 270.524c2.977-1.737-2.233-2.257-1.314 2.866-.081-.479.971-.154 1.061-.385.137-.351.205-1.632.253-2.481M252.081 282.124c.676 3.456.06 2.994-.325 6.182-.342 2.888 2.122 3.554 2.122.325 0-12.185-.821-8.806-1.797-6.507M286.018 299.576c-.286.669-.731.71-1.287 1.074-.419.277-.89.887-.676 1.343.111.234.616.465.953.459.364-.011.707-.447.83-.772.245-.631.145-1.395.18-2.105M255.354 295.127c.414.028.773-.294.795-.708.021-.419-.299-.772-.715-.797-.419-.024-.773.299-.795.718-.021.413.3.77.715.787M282.297 274.85c-1.098.551-2.062.431-3.114 1.021 1.643-.915-8.88-1.497-4.905-1.129-2.828-.263-5.138-.871-8.081-.854l-.548.289c-1.463.342-2.228-.787-3.323-1.497-.767-.486-1.446.028-2.152-.072.15-.279-.252-.459-.145-.629.18-.291.681-.443.869-.471 1.266-.162 2.741-.051 3.952-.47 4.26-1.48 7.583.548 11.951.411 1.372-.041 3.263-.315 4.551.59.26.19.257.633.449.779.573.427 1.6.167 1.933.523.684.725-.676 1.127-1.438 1.509M278.114 281.03c-.274-.058-.38-.419-.616-.419-2.484 0-4.705-.64-6.998-1.621-.782-.337-1.54.277-2.356.38-1.078.145-2.212-.298-3.145.036-.679.238-1.269 1.261-.693 1.583.878.486 2.307.409 3.456-.364 1.339-.898 3.028-.602 4.599-.234.419.092.838.385 1.275.366 1.526-.058 2.977.378 4.478.274M262.301 276.994c.051-.344-.59-.25-.399-.659-1.039-.301-1.997.631-2.989.223-.561-.223-.904-.815-1.455-1.1-.042.809-.342 1.928.36 2.236 1.411.618 2.951-1.172 4.452-.274.008-.14.005-.28.031-.426"/><path fill="#FFF" fill-rule="nonzero" d="M177.831 214.293l-9.248 9.139s8.101 12.613 9.145 13.095c1.66-3.123 4.457-7.458 8.101-7.697l.671-4.671-8.669-9.866M143.612 177.867l4.914.045c6.468 7.176 22.47 28.118 22.47 28.118l-2.447 5.857c6.257-5.23 9.859-8.674 12.173-11.973 4.534-4.893 8.606-1.044 5.016 2.187-2.378 4.58-13.768 13.813-21.159 20.272-21.096 18.983-60.979-11.332-27.586-40.577l6.618-3.927"/><path fill="#0A0A09" fill-rule="nonzero" d="M137.25 189.074c3.658-4.508 6.947-1.983 4.029.642-2.202 1.985 1.939 6.45 4.633 5.374 2.142-.852 4.7 2.565 4.076 3.85-1.66 3.395 1.519 6.941 3.974 5.766 1.352-.647 4.187 1.598 3.229 3.593-1.454 3.018 1.537 6.431 4.882 4.748 3.579-1.816 1.552 3.069 1.552 3.069-18.122 15.296-44.596-13.884-26.374-27.042"/><path fill="#FFF" fill-rule="nonzero" d="M139.15 182.437c3.208.17 5.942-2.294 6.108-5.503.171-3.203-2.293-5.938-5.495-6.104-3.208-.171-5.942 2.293-6.114 5.497-.166 3.204 2.298 5.937 5.501 6.11"/><path fill="#0A0A09" fill-rule="nonzero" d="M141.088 173.031c3.533 1.897.482 7.078-1.839 6.531-2.503-.588-.587-1.102-.587-1.102 2.335.34 4.457-3.4 1.528-4.623-1.112-.463.898-.806.898-.806"/><path fill="#FFF" fill-rule="nonzero" d="M350.94 178.057l-4.91.195c-6.236 7.383-21.575 28.806-21.575 28.806l2.627 5.781c-6.42-5.03-10.129-8.362-12.545-11.587-4.68-4.753-8.632-.775-4.945 2.341 2.524 4.508 14.192 13.378 21.789 19.599 21.672 18.314 60.665-15.101 26.374-43.287l-6.815-1.848"/><path fill="#0A0A09" fill-rule="nonzero" d="M358.349 186.679c-3.04-3.157-5.487-1.358-4.631 1.275.967 2.953-2.703 8.556-4.539 7.391-2.424-1.538-4.863 2.523-3.953 3.969 1.519 2.421-1.403 7.196-3.79 5.894-1.318-.719-4.021 1.916-3.117 3.687 1.509 2.962-1.725 5.665-4.731 4.899-3.884-.998-1.451 3.119-1.451 3.119 18.589 14.721 44.835-17.659 26.212-30.235"/><path fill="#FFF" fill-rule="nonzero" d="M355.62 180.616c-3.2.263-6.086-.24-6.356-3.436-.265-3.198 2.187-7.881 5.386-8.151 3.194-.269 6.005 2.109 6.274 5.309.27 3.196-2.104 6.004-5.304 6.277"/><path fill="#0A0A09" fill-rule="nonzero" d="M353.387 171.269c-4.551 2.632-1.283 7.367 2.045 6.469 2.481-.665.548-1.112.548-1.112-3.259.575-5.629-2.773-1.668-4.573 1.1-.502-.924-.784-.924-.784"/><path fill="#FFF" fill-rule="nonzero" d="M318.723 215.859c1.245.71 8.794 7.519 10.659 8.685-1.098 4.643-8.481 19.007-10.107 21.488-.193-8.558-1.394-18.242-6.096-18.273l-.884-3.471 6.428-8.428"/><path fill="#0A0A09" fill-rule="nonzero" d="M288.354 352.035c.376-2.594-1.886-5.015-3.482-2.97-.873 1.114-.944 3.165-1.993 4.222-2.832 2.861-4.611 3.402-6.262 5.162-1.791 1.899-2.344 3.14-.65 5.68.142.214.416 2.806 2.281 4.2 2.276 1.711 5.53-.084 8.969-4.389.767-.956.625-2.318.801-3.405.449-2.78-.074-5.663.337-8.502M273.708 368.194c-.223 7.089-10.569 9.926-14.723 7.563-.693-.392-2.892-2.361-2.441-3.721.445-1.324 1.979-2.181 3.1-2.609 1.266-.486 2.366-.06 3.584-1.138 1.694-1.5 2.862-1.771 4.839-3.653 1.129-1.077 3.314-.907 4.358-.085 1.053.832 1.694 1.508 1.194 3.499l.089.145"/><path fill="#FFF" fill-rule="nonzero" d="M285.291 357.588c-4.409 2.934-9.752 5.475-4.7 8.181 1.158.619 4.392-1.673 5.196-4.342-.046.156-.282-3.985-.496-3.839M270.2 371.393c-.778.638-3.601 2.072-3.211 1.856-1.865 1.044-4.034 1.625-6.182 1.275-1.92-.36-1.129-2.009-.71-2.065 5.407-.714 6.447-3.776 9.895-5.124 1.001.243 1.201 1.767 1.064 2.207-.097.329-.329 1.209-.855 1.851"/><path fill="#0A0A09" fill-rule="nonzero" d="M229.596 307.242c-1.356 1.72.017 1.99-3.264 5.167-.941.915-2.647 1.576-3.49 2.755-.14.197-.123.977-.154 1.548 2.087.686 5.891-.967 9.898-1.018 2.418-.034 4.782.761 7.225 1.258 4.303.881 8.276-.06 13.452-.342 6.207-.34 7.397 1.14 9.359.917 3.837-.436 6.176-2.335 4.522-1.858.406-.12-3.196.35-2.917-.197-1.066-.186-1.725.396-2.626.496-2.101.245-4.192.122-6.439-.642-3.237-1.085-6.821.524-10.214.527-5.518.014-11.634-2.007-18.513-1.296-.667.07 5.626-5.02 5.15-4.432 1.831-2.258 2.212-5.364 2.58-4.352-.111-.308-1.819-2.021-4.568 1.47M237.004 324.941c4.726-.393 13.58 2.004 17.72.507-.025.426 3.479-1.095 3.388.606-.124 2.344-5.838 1.882-7.349 1.54-4.118-.933-5.586.368-14.119.111-.364-.008-4.308.63-5.429-2.419-.299-.809 2.187-.96 5.788-.344M265.008 310.181c-.44 1.099.684 1.802 1.28 1.219.465-.454.38-1.694-.608-2.045.106.556-.536.489-.672.826M263.156 307.917c-.433-.274-.886-.682-1.266-.777-1.468-.353-2.649-1.163-4.158-1.403-.373-.062-.539-.71.077-1.011.941-.462 1.959.017 2.921.336 1.263.419 1.455 1.94 2.486 2.57.303.185 1.121.296.893.722-.226.436-1.073.25-1.167-.443l.214.007"/><path fill="#FFF" fill-rule="nonzero" d="M267.57 314.196c.334 0 .602-.357.602-.804 0-.443-.268-.804-.602-.804-.333 0-.604.361-.604.804 0 .447.271.804.604.804M361.391 139.323c3.331 2.271 6.04 3.576 8.649 3.576 1.788 0 2.755-.679 2.755-1.788 0-1.596-1.742-1.788-4.591-2.417-5.898-1.256-8.891-4.495-8.891-9.522 0-7.246 5.655-12.562 14.449-12.562 3.961 0 7.682 1.014 11.647 3.141l-3.773 9.036c-2.416-1.788-4.928-2.707-7.1-2.707-1.74 0-2.706.628-2.706 1.644 0 1.692 2.318 1.932 6.428 2.851 4.59 1.014 7.682 4.447 7.682 9.278 0 7.393-5.894 12.998-14.932 12.998-4.543 0-9.133-1.304-13.582-3.867l3.966-9.662M127.669 133.038h1.933c2.37 0 3.675-1.206 3.675-3.331 0-2.128-1.258-3.434-3.675-3.434h-1.933v6.765zm-12.177-15.656h15.607c9.231 0 13.967 4.252 13.967 11.645 0 4.931-2.657 8.362-6.669 8.844l9.231 14.062h-13.919l-6.04-11.405v11.405h-12.177v-34.551M178.336 139.087l-1.061-3.914c-.484-1.838-1.212-4.255-1.403-7.587h-.24c-.197 3.331-.921 5.749-1.403 7.587l-1.066 3.914h5.172zm-9.325-21.989h13.819l12.079 34.553h-13.337l-1.113-4.351h-9.371l-1.066 4.351h-13.337l12.324-34.553M206.019 117.383h12.613v34.551h-12.613v-34.551M251.91 134.681c0-4.543-2.515-6.668-7.54-6.668h-.53v13.388c5.509-.099 8.07-2.032 8.07-6.72zm-18.721-17.298h10.052c5.988 0 10.483.58 13.674 2.173 5.942 2.999 9.279 8.555 9.279 15.125 0 5.704-2.563 10.681-7.152 13.821-4.497 3.095-9.813 3.432-16.721 3.432h-9.132v-34.551M277.956 117.383h23.098v9.376h-10.921v3.333h9.906v8.842h-9.906v3.626h11.212v9.374h-23.389v-34.551M327.5 133.038h1.933c2.37 0 3.675-1.206 3.675-3.331 0-2.128-1.258-3.434-3.675-3.434h-1.933v6.765zm-12.177-15.656h15.607c9.231 0 13.966 4.252 13.966 11.645 0 4.931-2.657 8.362-6.669 8.844l9.231 14.062h-13.914l-6.044-11.405v11.405h-12.177v-34.551"/></g></svg>