<svg xmlns="http://www.w3.org/2000/svg" viewBox="0 0 960 640"><path fill="#041c2c" d="M268.49 486.88c103.479 9.043 169.127 38.224 201.075 98.62 109.381-17.722 210.564-87.866 210.564-178.269 0-120.45-145.962-139.38-149.85-174.462 61.398 22.253 128.981-1.168 161.231-77.756-95.381-7.049-165.199-41.828-195.375-100.513-116.995 20.824-210.563 96.505-210.563 178.269 0 119.423 153.516 151.021 170.719 176.375-83.778-31.758-156.055 4.431-187.801 77.756z"/><path fill="#9cdbd9" d="M450.026 226.586c-13.094-13.312-18.553-23.723-18.553-37.458 0-15.729 7.595-23.422 7.595-32.222 0-7.572-4.754-13.513-13.859-15.306 5.398-5.82 12.731-9.344 19.559-9.344 39.039 0 50.561 86.254 132.023 83.153 29.027-2.779 56.463-16.896 73.706-41.627-71.128-9.223-136.071-39.452-167.798-90.826-32.915 5.981-170.94 53.61-167.455 153.136 3.646 103.795 157.162 132.634 200.108 177.201 33.862 35.142 10.012 70.566-11.824 83.435-33.721-87.664-144.532-93.907-188.647-30.631 71.128 9.224 136.071 39.452 167.798 90.826 78.46-16.453 116.31-85.248 101.908-134.87-23.851-82.106-178.676-96.565-219.729-173.475-21.937-43.279-3.908-89.477 36.218-116.362-15.752 20.3-23.286 43.681-22.943 65.572 3.565 3.886 5.076 12.969 5.116 13.15.524 3.182 1.45 9.888-.201 13.997 1.752 4.611 4.008 9.002 6.687 13.211 5.379 1.349 11.402 8.337 11.543 8.498 5.902 6.787 6.829 11.077 6.97 12.708 3.646 3.262 7.574 6.404 11.703 9.465 3.465-.403 8.722 1.269 14.081 4.672 6.164 4.048 9.246 8.036 10.112 11.036a470 470 0 0 0 13.214 7.391c3.445-.946 9.125.162 14.826 3.082 5.721 2.92 9.931 6.948 11.16 10.311 4.532 2.255 9.085 4.511 13.637 6.766 3.445-1.007 9.186 0 14.947 2.92 5.64 2.86 9.749 6.828 11.059 10.15a645 645 0 0 1 13.84 7.351c4.23-.866 10.997 1.712 14.663 3.907 5.44 3.242 9.166 7.472 10.274 10.875a236 236 0 0 1 13.315 9.244c3.605-.161 8.903 1.893 13.838 6.102 5.34 4.632 8.078 9.747 8.2 13.291 3.685 3.948 7.07 8.056 10.091 12.325 4.371 1.088 8.763 6.143 11.22 11.197 3.404 7.391 2.941 12.607 1.954 15.286 5.882 18.366 7.473 41.506-1.994 68.109-.1.282-.222.604-.363.947 19.822-21.569 33.217-48.112 32.09-79.992-3.647-103.795-157.163-132.634-200.109-177.201z"/><path fill="#c8102e" d="M508.947 237.481c-17.546-20.179-28.745-55.926-48.084-69.902-8.682 30.792 9.387 64.464 48.084 69.902"/><path fill="#6ba4b8" d="M495.047 526.896c-6.325 18.548-12.368 30.047-12.368 30.047-31.727-51.374-96.67-81.582-167.798-90.826 73.505-36.834 149.588 1.913 180.166 60.779m155.43-353.114c-73.505 36.834-149.588-1.913-180.166-60.779 6.325-18.548 12.368-30.047 12.368-30.047-31.082 5.66-170.981 52.764-167.456 153.136 3.646 103.795 157.162 132.634 200.109 177.201 33.862 35.142 10.012 70.566-11.824 83.435a281 281 0 0 1-8.461 30.148c15.994-2.78 64.481-28.436 64.783-77.817.443-68.049-87.545-86.073-154.221-127.377-54.892-33.995-65.548-67.727-68.328-89.074-6.547-50.227 28.906-96.103 80.434-117.732-7.393 6.304-13.134 12.446-16.659 17.34-15.752 20.3-23.286 43.681-22.944 65.572 3.566 3.886 5.077 12.969 5.117 13.15.524 3.182 1.45 9.888-.202 13.997 1.753 4.611 4.009 9.002 6.688 13.211 5.379 1.349 11.402 8.337 11.543 8.498 5.902 6.787 6.828 11.077 6.969 12.708 3.646 3.262 7.574 6.404 11.704 9.465 3.465-.403 8.722 1.269 14.08 4.672 6.164 4.028 9.247 8.036 10.113 11.036a470 470 0 0 0 13.214 7.391c3.445-.946 9.125.162 14.826 3.082 5.721 2.92 9.931 6.948 11.16 10.311 4.532 2.255 9.084 4.511 13.637 6.766 3.445-1.007 9.185 0 14.947 2.92 5.64 2.86 9.749 6.828 11.059 10.15a642 642 0 0 1 13.838 7.351c4.231-.866 10.999 1.712 14.665 3.907 5.439 3.242 9.166 7.472 10.273 10.875a236 236 0 0 1 13.316 9.244c3.605-.161 8.903 1.893 13.838 6.102 5.338 4.632 8.078 9.747 8.199 13.291 3.686 3.948 7.07 8.056 10.092 12.325 4.371 1.088 8.762 6.143 11.22 11.197 3.404 7.391 2.941 12.607 1.954 15.286 5.882 18.366 7.473 41.506-1.994 68.109 25.32-42.916 22.883-85.509-5.419-121.517-59.162-75.259-208.005-84.241-207.461-170.516.141-20.521 8.702-36.854 19.68-49.239 5.399-5.82 12.731-9.344 19.56-9.344 39.039 0 50.561 86.254 132.023 83.153 29.027-2.779 56.463-16.897 73.706-41.627z"/><path fill="#9cdbd9" d="M594.276 555.01c0 5.055 4.109 9.163 9.165 9.163s9.166-4.108 9.166-9.163-4.089-9.163-9.166-9.163-9.165 4.108-9.165 9.163m16.357 0c0 3.967-3.223 7.189-7.192 7.189s-7.191-3.222-7.191-7.189 3.223-7.19 7.191-7.19 7.192 3.223 7.192 7.19"/><path fill="#9cdbd9" d="M599.654 560.246h1.975v-4.25h1.41l1.974 4.25h2.175l-2.054-4.431a3.08 3.08 0 0 0 2.054-2.92c0-1.712-1.39-3.122-3.102-3.122h-4.432zm1.975-8.519h2.457a1.147 1.147 0 1 1 0 2.296h-2.457z"/></svg>