<svg xmlns="http://www.w3.org/2000/svg" viewBox="0 0 960 640"><path fill="#041c2c" d="M268.5 486.88c103.479 9.043 169.127 38.224 201.075 98.62 109.381-17.722 210.564-87.866 210.564-178.269 0-120.45-145.963-139.38-149.85-174.462 61.398 22.253 128.981-1.168 161.231-77.756-95.381-7.049-165.2-41.828-195.375-100.513-116.995 20.824-210.583 96.505-210.583 178.269 0 119.423 153.516 151.021 170.718 176.375-83.778-31.758-156.054 4.431-187.8 77.756z"/><path fill="#9cdbd9" d="M450.036 226.586c-13.094-13.312-18.553-23.723-18.553-37.458 0-15.729 7.594-23.422 7.594-32.222 0-7.572-4.754-13.513-13.859-15.306 5.399-5.82 12.731-9.344 19.56-9.344 39.039 0 50.561 86.254 132.023 83.153 29.027-2.779 56.463-16.896 73.706-41.627-71.128-9.223-136.072-39.452-167.798-90.826-32.915 5.981-170.941 53.61-167.456 153.136 3.646 103.795 157.162 132.634 200.109 177.201 33.862 35.142 10.011 70.566-11.824 83.435-33.721-87.664-144.532-93.907-188.647-30.631 71.128 9.224 136.071 39.452 167.798 90.826 78.46-16.453 116.31-85.248 101.907-134.87-23.85-82.106-178.675-96.565-219.728-173.475-21.937-43.279-3.908-89.477 36.218-116.362-15.752 20.3-23.286 43.681-22.944 65.572 3.566 3.886 5.077 12.969 5.117 13.15.524 3.182 1.45 9.888-.202 13.997 1.753 4.611 4.009 9.002 6.688 13.211 5.379 1.349 11.402 8.337 11.543 8.498 5.902 6.787 6.828 11.077 6.969 12.708 3.646 3.262 7.574 6.404 11.704 9.465 3.465-.403 8.722 1.269 14.08 4.672 6.164 4.048 9.246 8.036 10.113 11.036a470 470 0 0 0 13.214 7.391c3.445-.946 9.125.162 14.826 3.082 5.721 2.92 9.931 6.948 11.159 10.311 4.533 2.255 9.085 4.511 13.638 6.766 3.444-1.007 9.185 0 14.947 2.92 5.64 2.86 9.749 6.828 11.058 10.15 4.654 2.417 9.287 4.854 13.839 7.351 4.231-.866 10.999 1.712 14.665 3.907 5.439 3.242 9.165 7.472 10.273 10.875a235 235 0 0 1 13.315 9.244c3.606-.161 8.904 1.893 13.839 6.102 5.338 4.632 8.078 9.747 8.199 13.291 3.686 3.948 7.07 8.056 10.092 12.325 4.371 1.088 8.762 6.143 11.22 11.197 3.404 7.391 2.941 12.607 1.954 15.286 5.882 18.366 7.473 41.506-1.994 68.109-.101.282-.222.604-.363.947 19.822-21.569 33.217-48.112 32.089-79.992-3.646-103.795-157.162-132.634-200.109-177.201z"/><path fill="#c8102e" d="M508.957 237.481c-17.546-20.179-28.746-55.926-48.084-69.902-8.682 30.792 9.387 64.464 48.084 69.902"/><path fill="#6ba4b8" d="M495.057 526.896c-6.325 18.548-12.368 30.047-12.368 30.047-31.727-51.374-96.67-81.582-167.798-90.826 73.505-36.834 149.588 1.913 180.166 60.779m155.43-353.114c-73.505 36.834-149.588-1.913-180.167-60.779 6.326-18.548 12.369-30.047 12.369-30.047-31.082 5.66-170.981 52.764-167.456 153.136 3.646 103.795 157.162 132.634 200.109 177.201 33.862 35.142 10.011 70.566-11.825 83.435a281 281 0 0 1-8.46 30.148c15.994-2.78 64.48-28.436 64.783-77.817.443-68.049-87.545-86.073-154.222-127.377-54.891-33.995-65.548-67.727-68.327-89.074-6.547-50.227 28.906-96.103 80.434-117.732-7.393 6.304-13.134 12.446-16.659 17.34-15.752 20.3-23.286 43.681-22.944 65.572 3.566 3.886 5.076 12.969 5.117 13.15.523 3.182 1.45 9.888-.202 13.997 1.753 4.611 4.009 9.002 6.688 13.211 5.378 1.349 11.401 8.337 11.542 8.498 5.903 6.787 6.829 11.077 6.97 12.708 3.646 3.262 7.574 6.404 11.704 9.465 3.464-.403 8.722 1.269 14.08 4.672 6.164 4.028 9.246 8.036 10.112 11.036a472 472 0 0 0 13.215 7.391c3.444-.946 9.125.162 14.826 3.082 5.72 2.92 9.931 6.948 11.159 10.311 4.533 2.255 9.085 4.511 13.638 6.766 3.444-1.007 9.185 0 14.946 2.92 5.641 2.86 9.75 6.828 11.059 10.15 4.654 2.417 9.287 4.854 13.839 7.351 4.23-.866 10.999 1.712 14.665 3.907 5.439 3.242 9.165 7.472 10.273 10.875a235 235 0 0 1 13.315 9.244c3.606-.161 8.904 1.893 13.839 6.102 5.338 4.632 8.078 9.747 8.199 13.291 3.686 3.948 7.07 8.056 10.092 12.325 4.371 1.088 8.762 6.143 11.22 11.197 3.404 7.391 2.941 12.607 1.954 15.286 5.882 18.366 7.473 41.506-1.995 68.109 25.321-42.916 22.884-85.509-5.418-121.517-59.163-75.259-208.005-84.241-207.461-170.516.141-20.521 8.702-36.854 19.68-49.239 5.399-5.82 12.731-9.344 19.56-9.344 39.038 0 50.561 86.254 132.022 83.153 29.028-2.779 56.463-16.897 73.707-41.627z"/><path fill="#041c2c" d="M594.789 554.869c0 5.135 4.17 9.304 9.307 9.304s9.306-4.169 9.306-9.304-4.15-9.305-9.306-9.305-9.307 4.169-9.307 9.305m16.619 0c0 4.027-3.263 7.31-7.312 7.31a7.312 7.312 0 1 1 0-14.621 7.3 7.3 0 0 1 7.312 7.311"/><path fill="#041c2c" d="M600.268 560.185h1.994v-4.33h1.431l2.014 4.33h2.196l-2.095-4.511a3.12 3.12 0 0 0 2.095-2.96 3.15 3.15 0 0 0-3.143-3.162h-4.492zm1.994-8.619h2.498c.625 0 1.148.523 1.148 1.168s-.523 1.168-1.148 1.168h-2.498z"/></svg>