<svg xmlns="http://www.w3.org/2000/svg" width="500" height="500" viewBox="0 0 500 500"><g fill="none"><path d="M0 0h500v500h-500z"/><path fill="#FFFFFE" d="M458.507 373.202c-31.199-6.571-93.096-.17-128.401 74.543 0 0-60.37-72.09-144.251-84.756 3.292-40.111-49.832-50.774-59.996-119.782 0 0-41.27-33.804-61.905-87.039l10.988 3.531s-16.045-17.776-28.382-48.414l11.616 3.837s-11.752-15.934-18.175-61.64c142.376 97.965 217.382 63.779 303.978 112.795 58.775 33.303 72.775 71.971 77.696 110.571 0 0 43.51 39.432 36.833 96.352"/><path fill="#000" d="M452.567 364.857c.933-48.448-37.104-82.863-37.104-82.863-4.107-30.629-15.23-74.925-74.505-107.634-90.007-49.628-139.805-9.092-281.697-96.046 2.953 16.257 12.303 38.753 24.216 52.726l-14.67-4.813c10.665 22.488 27.745 42.887 36.688 49.509l-16.444-5.17c17.419 42.768 51.452 68.1 51.452 68.1 7.755 65.477 55.762 76.632 59.64 116.904 62.542 9.703 128.647 76.708 128.647 76.708 34.61-59.526 82.872-71.063 123.777-67.421"/><path fill="#FFFFFE" d="M372.47 280.586c-13.601 21.902-36.595 15.798-44.792-11.511l16.579 1.01c-14.535-8.701-27.737-21.503-37.944-34.118-3.004 60.332 53.743 87.413 72.512 45.043-2.121-.017-4.242-.161-6.355-.424"/><path fill="#97233F" d="M333.432 182.57c-65.206-35.756-144.896-12.538-246.722-75.655 10.088 30.162 73.114 65.485 73.114 65.485l-55.771-18.141c14.204 24.661 72.342 55.561 72.342 55.561l-52.012-16.817c21.543 35.799 70.416 59.959 70.416 59.959l-30.036-2.173c3.886 33.659 50.366 62.641 52.835 88.618 21.025 8.039 48.118 22.055 69.236 40.222 40.371-19.856 29.239-87.039-47.736-182.338 105.874 6.401 102.955 84.934 163.724 73.643-4.455-21.096-7.331-54.305-69.389-88.364"/><path fill="#FFB612" d="M444.965 352.361c-14.823-14.763-45.962-29.831-83.83-34.373 16.13-4.482 34.491-14.381 42.017-29.78 16.053 10.162 38.411 39.228 41.813 64.152zm-81.047 20.586c6.236-21.257-5.108-40.553-5.108-40.553 33.184-3.251 69.805 12.156 84.628 24.703-23.172-4.678-54.897 2.02-79.52 15.849z"/><path fill="#FFFFFE" d="M372.47 280.586c-13.601 21.902-36.595 15.798-44.792-11.511l16.579 1.01c-14.535-8.701-27.737-21.503-37.944-34.118-3.004 60.332 53.743 87.413 72.512 45.043-2.121-.017-4.242-.161-6.355-.424"/></g></svg>