<?xml version="1.0" encoding="utf-8"?>
<!-- Generator: Adobe Illustrator 24.0.1, SVG Export Plug-In . SVG Version: 6.00 Build 0)  -->
<svg version="1.1" id="Layer_1" xmlns="http://www.w3.org/2000/svg" xmlns:xlink="http://www.w3.org/1999/xlink" x="0px" y="0px"
	 viewBox="0 0 400 400" style="enable-background:new 0 0 400 400;" xml:space="preserve">
<style type="text/css">
	.st0{fill:#FFC627;}
	.st1{fill:#8B2332;}
	.st2{fill:#0D2240;}
	.st3{fill:#FFFFFF;}
</style>
<g>
	<path class="st0" d="M200.6,349.9c-82.4,0-149.4-67-149.4-149.4s67-149.4,149.4-149.4S350,118.1,350,200.5S283,349.9,200.6,349.9"
		/>
	<path class="st1" d="M200.6,58.8c78.2,0,141.8,63.5,141.8,141.7s-63.6,141.7-141.8,141.7S58.9,278.6,58.9,200.5
		C58.9,122.3,122.5,58.8,200.6,58.8"/>
	<path class="st2" d="M335.1,200.9c0,74.5-60.4,134.9-134.9,134.9S65.4,275.4,65.4,200.9S125.7,66,200.2,66S335.1,126.4,335.1,200.9
		"/>
	<path class="st1" d="M200.2,300.2c54.1,0,98-44,98-98.1c0-54-44-98-98-98s-98,44.1-98,98C102.1,256.2,146.1,300.2,200.2,300.2"/>
	<path class="st2" d="M108.6,202.1c0-50.5,41-91.5,91.5-91.5s91.5,41,91.5,91.5s-41,91.5-91.5,91.5
		C149.8,293.6,108.6,252.6,108.6,202.1"/>
	<path class="st0" d="M280.7,222.7c0.1-15.7-8.4-37.2-15.9-51.5l-11.1,6.2l-1.1-1.8l0,0l0,0l-2.8,1.8l-110.4,69.4v0.1l-5.1,6.1
		l-0.1-0.2c-1.6-0.3-3.6-1.9-5.2-4.6c-1.7-2.5-2.3-5.2-1.9-6.5l-0.1-0.2l7.6-2l0.1,0.1l56.8-37l-38.3-24.1l0,0l-4.8-3l0,0l0,0
		l-1.2,1.8l-11.1-6.2c-7.6,14.4-15.9,35.9-15.9,51.5c-5.8-18.2,0.2-43,8.4-59l0.1-0.1l-2-1.2l6.6-10.2l1.9,1.4
		c11.1-14.1,30.9-29.8,49.8-32.2c-14.2,6.5-30.2,23-40.1,35.9l10.3,7.5l-1.3,1.8l0,0l0,0l2.6,1.8l43.7,28.4l43.1-28l3.3-2.1l0,0l0,0
		l-1.3-1.8l10.3-7.5c-9.8-12.7-25.8-29.4-40-35.9c18.9,2.4,38.7,18.1,49.9,32.2l1.8-1.4l6.6,10.2l-2,1.2
		C280.5,179.9,286.5,204.7,280.7,222.7 M266.4,239.6L266.4,239.6L214,205.7l-9.1,5.4l56.8,35.8l-0.1,0.1l5.1,6.1l0.2-0.2
		c1.6-0.3,3.6-1.9,5.2-4.6c1.6-2.5,2.3-5.2,1.9-6.5l0.1-0.2L266.4,239.6z"/>
	<polygon class="st0" points="209.5,130.6 205.6,135.8 200.1,122.9 200.1,182.8 218.4,159.4 236.8,164.2 	"/>
	<polygon class="st3" points="209.5,144.8 209.5,130.7 205.6,135.8 	"/>
	<polygon class="st3" points="200.1,122.9 167,163.2 181.6,159.5 200.1,182.8 	"/>
	<path class="st0" d="M179.8,275.3c4.8-4.6,10.9-7.4,17.5-8.1V258H172C172.6,264.8,175.4,270.7,179.8,275.3"/>
	<path class="st0" d="M197.3,283.8v-10.9c-5,0.6-9.4,2.6-13.2,6C188,281.6,192.6,283.2,197.3,283.8"/>
	<path class="st3" d="M203,227.5v10.8c4.9-0.6,9.5-2.6,13.1-6C212.3,229.7,207.8,228,203,227.5"/>
	<path class="st3" d="M220.5,236.1c-4.8,4.6-10.9,7.4-17.5,8v8.4h25.3C227.5,246.1,224.6,240.3,220.5,236.1"/>
	<path class="st3" d="M197.3,238.3v-10.8c-4.9,0.5-9.3,2.2-13.1,4.9C187.9,235.7,192.5,237.7,197.3,238.3"/>
	<path class="st0" d="M203,258v9.1c6.6,0.6,12.7,3.4,17.5,8.1c4.4-4.6,7.3-10.5,7.9-17.2L203,258L203,258z"/>
	<path class="st3" d="M172.1,252.4h25.3V244c-6.6-0.6-12.6-3.5-17.5-8C175.6,240.3,172.8,246.1,172.1,252.4"/>
	<path class="st0" d="M203,283.8c4.9-0.5,9.3-2.2,13.1-4.8c-3.7-3.4-8.3-5.4-13.1-6V283.8z"/>
	<polygon class="st0" points="309,188.7 312.6,194.8 303.7,203.1 315.2,198.8 318.8,205 319.4,198 327,197.6 320.8,193.8 
		328.5,181.6 315.8,191.9 	"/>
	<polygon class="st0" points="91.5,188.6 88,194.7 96.8,203 85.3,198.7 81.7,204.9 81.1,197.9 73.4,197.5 79.7,193.7 72,181.5 
		84.7,191.8 	"/>
	<path class="st3" d="M111.1,145.1l-17.8-12.6l4-5.6c0.7-0.9,1.5-1.8,2.3-2.5c0.5-0.5,1.1-0.9,1.7-1.2c0.1-0.1,0.2-0.2,0.3-0.4
		c0.1-0.1,0.1-0.2,0.2-0.3l0.2-0.4l15.7,11.1c-0.1,1.1-0.4,2.1-0.8,3.2c-0.4,1-0.9,1.9-1.6,2.8l-0.1,0.1L111.1,145.1z M99.9,129
		c-0.4,0.6-0.4,1.3-0.1,1.7c0.1,0.1,0.2,0.2,0.3,0.3l10.9,7.8l0,0c0.6,0.1,1.2-0.1,1.5-0.6l0.1-0.1c0.5-0.7,0.4-1.6-0.1-1.9
		l-10.6-7.6C101.2,128,100.4,128.2,99.9,129L99.9,129z"/>
	<polygon class="st3" points="137.5,116.5 127.3,101 126.3,101.7 124.5,98.8 135.8,91.4 137.6,94.2 132.1,97.9 135.2,102.5 
		139.5,99.7 140.5,102.7 136.8,105.1 140.4,110.4 146,106.8 147.8,109.6 	"/>
	<polygon class="st3" points="179.9,98 175.5,90.7 175,90.8 176.7,98.7 171.5,99.7 167.8,81.6 166.7,81.8 166,78.5 171.5,77.5 
		176.6,84.7 177,84.6 175.3,76.7 180.5,75.6 185,96.9 	"/>
	<path class="st3" d="M214.7,96.7l0.5-22.1l4.9,0.8l-0.7,13.5l0.5,0.1l4-13l4.9,0.8c-1.9,5.8-6.7,19.3-7.3,20.9L214.7,96.7z"/>
	<path class="st3" d="M292,134.2l-1.2-1.6l-6.2,4.9l-3.1-4.1l17.3-13.3l4.2,5.4c0.7,0.9,1.3,1.8,1.8,2.9c0.3,0.6,0.6,1.3,0.8,1.8
		c0.1,0.2,0.2,0.3,0.3,0.4c0.1,0.1,0.1,0.1,0.2,0.2l0.3,0.3l-9.2,7.1c-0.5-0.3-1.1-0.6-1.6-0.9l-0.2-0.1l-5,7.6l-3-3.8L292,134.2z
		 M300.1,127.5c-0.4-0.5-1-0.8-1.5-0.7c-0.1,0-0.2,0.1-0.3,0.2l-4.1,3.2c-0.6,0.5-0.5,1.3-0.1,1.8v0.1c0.5,0.7,1.3,0.9,1.8,0.6
		l4.2-3.1C300.7,129.1,300.7,128.2,300.1,127.5L300.1,127.5z"/>
	<polygon class="st3" points="250.8,108.7 260.4,92.8 259.4,92.2 261.1,89.3 272.7,96.4 270.9,99.2 265.3,95.7 262.5,100.4 
		266.9,103.1 264.4,105.7 260.7,103.3 257.4,108.7 263.2,112.2 261.4,115.1 	"/>
	<path class="st3" d="M163.5,324.1c-1.2-0.3-2.2-0.8-3.3-1.5c-1.1-0.6-1.9-1.3-2.7-2l5.6-18.6c1.1-0.3,2.2-0.3,3.4-0.3
		c1.3,0.1,2.4,0.3,3.6,0.7c1.2,0.3,2.2,0.8,3.3,1.5c0.5,0.3,1,0.6,1.4,0.9c0.2,0.2,0.5,0.3,0.8,0.4c0.1,0,0.2,0.1,0.3,0.1l0.5,0.1
		l-0.2,0.5l-1.7,5.3l-5-1.5l0.7-2.3c0.2-0.6-0.2-1.3-0.9-1.6c-0.1,0-0.2-0.1-0.3-0.1c-0.8-0.3-1.7,0.1-1.8,0.8l-4.1,13.3
		c-0.1,0.3,0,0.6,0.1,0.9c0.2,0.4,0.6,0.7,1.1,0.8c0.8,0.3,1.7-0.1,1.8-0.8l1.8-5.6l-1.6-0.9l1.7-2.7l5.9,1.8l-3.4,11.3
		c-1.1,0.3-2.2,0.3-3.4,0.3C165.8,324.6,164.5,324.4,163.5,324.1"/>
	<path class="st3" d="M207,329c-1.2,0.1-2.4,0-3.6-0.2c-1.2-0.2-2.2-0.6-3.2-1.1l-1.1-19.4c0.9-0.6,1.9-1.1,3.1-1.4
		c1.2-0.3,2.4-0.6,3.6-0.6c1.2-0.1,2.4,0,3.6,0.2c0.6,0.1,1.1,0.2,1.7,0.4c0.3,0.1,0.6,0.1,0.8,0.1c0.1,0,0.2,0,0.3,0l0.5-0.1v0.5
		l0.3,5.5l-5.2,0.3l-0.1-2.4c0-0.6-0.6-1.2-1.4-1.2c-0.1,0-0.2,0-0.3,0c-0.9,0.1-1.6,0.7-1.5,1.4l0.7,13.9c0,0.3,0.2,0.6,0.4,0.8
		c0.3,0.3,0.8,0.4,1.3,0.4c0.9,0,1.6-0.7,1.5-1.4l-0.3-5.9l-1.8-0.2l0.6-3.1l6.1-0.3l0.7,11.8c-0.9,0.6-1.9,1.1-3.1,1.4
		C209.5,328.7,208.2,328.9,207,329"/>
	<path class="st3" d="M124.2,304c-1-0.7-1.8-1.6-2.6-2.5c-0.8-0.9-1.4-1.9-1.8-2.9l10.6-13.6l-0.9-0.7l2-2.6l5.1,3.9L125.5,300
		c-0.4,0.6-0.2,1.5,0.5,1.9c0.7,0.5,1.6,0.5,2-0.1l11.2-14.4l4.1,3.2L130.6,307c-1.1-0.1-2.1-0.5-3.2-1
		C126.1,305.4,125.1,304.8,124.2,304"/>
	<polygon class="st3" points="281.1,300 269.1,285.9 265.9,288.7 263.6,286.1 274.1,277.1 276.4,279.7 273.2,282.5 285.1,296.5 	"/>
	<path class="st3" d="M308.1,269.7c-0.6,1-1.4,1.9-2.2,2.8c-0.8,0.8-1.8,1.5-2.7,1.9l-4.5-2.8l2.7-4.4l2.3,1.5
		c0.3,0.2,0.7,0.2,1,0.1c0.4-0.1,0.7-0.4,0.9-0.7v-0.1c0.4-0.7,0.3-1.6-0.3-1.9l-5.1-3.1l-3,4.7c-0.8,1.3-2.2,1.8-3.2,1.2
		c-0.2-0.1-0.4-0.2-0.5-0.3l-7.1-4.5c0-1.1,0.3-2.1,0.7-3.3c0.4-1.2,0.9-2.2,1.6-3.2c0.6-1,1.4-1.9,2.2-2.8c0.5-0.5,1-0.9,1.5-1.3
		c0.2-0.2,0.3-0.3,0.4-0.5c0.1-0.1,0.1-0.2,0.1-0.3l0.2-0.4l5.2,3.2l-2.7,4.4l-2.1-1.4c-0.1-0.1-0.2-0.1-0.3-0.1
		c-0.6-0.1-1.2,0.2-1.6,0.8v0.1c-0.4,0.7-0.3,1.6,0.3,1.9l3.6,2.2l0.1,0.1l0.2,0.1l2.9-4.6c0.9-1.4,2.3-1.8,3.4-1.3l0.9,0.6l0.2,0.1
		l7,4.4c0,1.1-0.3,2.1-0.7,3.3C309.3,267.6,308.7,268.7,308.1,269.7"/>
	<polygon class="st3" points="237.2,304 236.1,304.5 234.9,301.5 247.4,296.3 248.7,299.4 242.5,301.9 244.6,307 249.3,304.9 
		249.9,308.4 245.8,310.1 248.3,315.8 254.4,313.3 255.8,316.4 244.4,321.2 	"/>
	<polygon class="st3" points="95.2,273.3 100.4,266.5 100.1,266.1 93.4,270.6 90.4,266.2 105.8,255.9 105.1,254.9 107.9,253.1 
		111.1,257.8 106.2,265.2 106.6,265.5 113.3,261.1 116.2,265.4 98.1,277.6 	"/>
</g>
</svg>
