<svg xmlns="http://www.w3.org/2000/svg" viewBox="0 0 960 640"><path fill="#154734" d="M590.7 492.055c-6.388 0-11.575 5.179-11.575 11.572 0 6.386 5.187 11.572 11.575 11.572s11.568-5.186 11.568-11.571c0-6.395-5.179-11.574-11.568-11.574m0 20.661a9.1 9.1 0 0 1-6.429-2.66 9.07 9.07 0 0 1-2.66-6.43 9.08 9.08 0 0 1 9.089-9.083c5.022 0 9.087 4.061 9.087 9.083s-4.065 9.09-9.087 9.09m4.755-11.772c0-.515-.102-1.026-.3-1.5a3.9 3.9 0 0 0-2.125-2.123 3.9 3.9 0 0 0-1.502-.297h-5.575v13.21h2.478v-5.365h1.779l2.504 5.364h2.741l-2.614-5.594a3.93 3.93 0 0 0 1.893-1.433 3.93 3.93 0 0 0 .721-2.262m-3.927 1.445h-3.097v-2.891h3.097a1.45 1.45 0 0 1 1.448 1.447 1.45 1.45 0 0 1-1.448 1.444"/><path fill="#ddcba4" d="M814.47 203.177s-23.828-7.933-44.448-11.897c.253-.046 23.032-18.25 23.032-18.25s-91.882-24.271-201.231-17.01c0 0-15.927-52.02-89.455-52.02-54.713 0-85.942 34.3-95.652 61.015-103.16 23.092-181.681 75.874-181.681 75.874l18.951 14.285c-48.541 25.866-98.456 66.947-98.456 66.947s4.895 24.624 34.704 63.84c0 0 19.96 15.269 72.53 35.127 0 0 10.055-2.534 15.047-5.076 7.213 2.41 14.655 4.443 21.987 5.787-.298 6.619-2.211 16.097 10.013 27.347l-8.884 4.71s10.977 27.191 71.47 41.48c23.099-5.57 128.171-25.435 164.43 40.663l182.789-179.76h-38.925z"/><path fill="#154734" d="M779.552 210.83c-22.245-8.438-51.985-14.636-51.985-14.636l18.493-14.28c-99.9-20.015-168.331-13.698-168.331-13.698s-13.695-51.927-80.241-51.927c-64.335 0-83.604 57.466-83.604 57.466-88.068 17.357-170.954 67.991-170.954 67.991l20.19 15.222c-51.934 25.553-105.75 69.072-105.75 69.072 7.612 23.801 29.887 52.538 29.887 52.538 20.684 14.392 66.07 32.05 66.07 32.05 6.536-1.496 13.598-5.459 13.598-5.459s22.55 8.964 46.614 8.964c8.794 0 18.63-1.057 18.63-4.494 0-5.935-18.031-7.745-18.031-14.388 0-4.841 10.838-11.635 52.042-11.635 24.673 0 52.604 1.723 52.604 1.723-20.311 0-60.193 5.163-60.193 14.627 0 7.333 27.1 7.716 27.1 17.594 0 14.298-21.221 19.19-45.941 19.19-22.136 0-32.635-6.309-37.67-6.309-1.927 0-3.105.96-3.105 2.204 0 5.14 9.864 15.475 17.76 18.374l-10.676 6.203c11.977 15.856 56.565 27.752 56.565 27.752 127.21-27.757 166.358 35.694 166.358 35.694l149.05-154.347h-35.07z"/><path fill="#eaaa00" d="M557.024 185.707c-40.988-1.337-82.148 1.097-121.497 7.116a63 63 0 0 0-.485 7.58c0 2.85.216 5.647.58 8.395 38.301-4.089 80.521-5.473 122.718-1.003.287-2.43.459-4.89.459-7.391 0-5.068-.629-9.98-1.775-14.697m-60.098 76.575c22.776 0 42.671-12.33 53.415-30.664-33.584 4.302-65.749 9.898-93.962 15.518 10.872 9.427 25.027 15.146 40.547 15.146m0-123.75c-31.607 0-57.659 23.695-61.399 54.29 0 0 31.033-13.976 115.457-22.479-10.563-18.974-30.808-31.811-54.059-31.811z"/><path fill="#a6192e" d="M557.024 185.707a62.2 62.2 0 0 1 1.774 14.697c0 2.5-.171 4.962-.458 7.39 26.847 2.838 53.696 8.041 79.536 16.431-29.154.993-58.865 3.722-87.535 7.392-10.744 18.336-30.639 30.664-53.416 30.664-15.518 0-29.674-5.717-40.546-15.145-59.767 11.916-101.755 23.942-101.755 23.942 29.59 1.317 46.31 8.177 46.31 8.177-76.474 15.46-147.574 44.936-170.663 55.02 5.515 8.773 12.702 19.028 12.702 19.028l-11.421 14.129c20.414 3.714 45.713 1.553 45.713 1.553l37.923-23.225 29.758 8.927 8.971-12.263h-9.775l19.597-31.598 16.476 31.584h-7.38l4.991 10.893 20.56-3.654 8.756-11.152h-7.828l11.685-17.963H402.2l18.499-31.312 15.803 32.335-7-.004L440.1 340.42h-8.357l17.121 31.193 17.106-24.026h-11.744l17.687-26.599H460.56l25.5-43.777 22.117 44.331h-9.204l15.073 26.035h-10.645l14.605 32.307 24.758-40.457h-13.662l20.229-32.908h-12.413l27.072-55.014 28.432 57.618h-9.982l18.304 30.296h-12.516l14.017 30.015 22.873-34.834h-12.3l26.558-38.28h-14.258l42.544-58.715 22.412 40.39 47.702-58.694c-54.961-20.562-117.635-31.533-180.752-33.594m-121.983 14.697c0-2.568.184-5.095.486-7.581-57.512 8.794-111.163 25.255-154.689 48.82 0 0 67.179-23.491 154.784-32.845a64 64 0 0 1-.581-8.394"/><path fill="#fff" d="M504.038 222.747c-80.757 2.608-153.375 22.752-153.392 22.752-.555-3.602-1.103-7.087-1.666-10.71-2.502 4.233-4.881 8.289-7.381 12.487-.008 0-36.533 13.387-60.623 26.042 30.912-10.657 55.985-17.223 55.985-17.223a1503 1503 0 0 1-7.492 15.89c4.637-4.139 9.058-8.102 13.695-12.253 3.322 1.771 6.5 3.508 9.857 5.296-.471-3.95-.91-7.79-1.386-11.793.012-.008 81.486-22.662 152.403-30.489"/></svg>