<svg xmlns="http://www.w3.org/2000/svg" width="500" height="500" viewBox="0 0 500 500"><g fill="none"><path d="M0 0h500v500h-500z"/><path fill="#FFFFFE" d="M43.108 340.48c-2.709-1.234-6.269-2.149-9.414-7.095-3.533-5.577-2.286-9.649-1.152-17.356 1.201-8.167 1.066-11.473-1.228-20.555-1.881-7.46-2.943-10.023-4.109-18.676-.72-5.338-1.247-9.829-1.296-12.847-.072-4.487.27-8.689.76-14.933.27-3.469 1.116-8.392 4.108-17.406.986-2.955 3.65-9.942 5.279-13.262 2.732-5.541 5.661-8.284 4.297-18.059-.522-3.757-1.953-5.775-2.542-10.816-.666-5.716-.284-8.401.787-11.937 1.071-3.518 2.349-5.716 4.532-8.419 1.269-1.568 3.667-4.613 9.184-5.59 0 0 3.622-1.036 6.588-.221 7.452.649 6.354 7.234 17.478.333 5.328-2.978 14.468-5.356 23.688 1.113 3.938 2.315 7.231 10.18 2.997-2.788-1.98-7.707-3.992-11.55-6.687-23.681-3.154-11.473-.599-23.181 8.748-29.514 6.746-5.928 20.434-3.288 36.311-.311 13.932 2.617 17.226-1.775 26.712-1.369 5.333.23 9.859.248 14.252 1.279 6.057 1.428 9.472 3.198 12.82 5.023 9.504 5.185 8.955.063 22.23 1.811 4.248.559 5.917-.068 10.219 1.176 4.977 1.432 8.06 3.077 12.456 5.64 12.308 7.171 12.321 8.784 32.823 7.888 3.794-.167 10.557 2.761 14.216 5.153 4.068 2.662 13.954 8.415 22.689 8.973 11.124.712 20.655-.707 34.371 9.05 10.017 8.915 22.464 8.496 33.579 14.532 3.573 1.937 12.109 8.469 16.303 15.208.895 1.446 4.554 3.82 13.689 5.333 8.212 1.356 16.821 11.113 21.406 17.924 5.904 5.446 2.443 1.748 10.534 7.392 3.911 2.73 5.873 4.095 9.697 6.955 4.981 3.725 1.805 1.009 7.754 5.707 1.089.856 2.538 2.491 6.511 6.068 5.162 3.973 7.421 7.509 9.158 10.973 2.93 5.829.585 9.937-2.12 14.771-1.998 3.554-5.197 9.275-10.296 14.091-5.661 5.347-5.211 5.5-10.377 8.595-11.74 7.014-20.511 4.64-25.479 13.014-7.339 12.37-13.243 16.365-18.783 18.96-11.164 5.234-18.657 5.05-25.74 10.613-5.773 4.532-14.899 10.365-21.069 13.118-11.875 5.293-13.338 2.18-21.465 7.257-2.758 1.725-1.008.73-7.947 6.451-3.996 3.293-10.368 6.086-13.536 6.527-4.144.581-8.721 1.036-12.587 2.072-9.751 2.613-10.813 6.041-21.559 8.104-12.542 2.41-17.726 1.216-29.696 6.928-3.123 1.491-6.534 2.982-11.106 5.464-3.762 2.05-15.327 4.847-24.26 5.293-3.892.198-7.546-2.369-16.965 2.122-12.159 5.797-12.33 5.207-21.969 7.162-3.505.712-7.447.32-11.115.306-7.007-.018-14.306-2.442-21.794-2.212-7.677.243-5.895-.23-12.285.496l-4.527.739-6.674 1.487-2.425.644c-6.12 1.342-9.778.793-13.361.09-6.016-1.194-12.685-4.788-15.106-8.086-3.978-4.752-4.523-9.325-4.059-15.559 2.245-10.865 6.849-26.334 8.986-31.852 0 0 3.528-8.023-5.008-3.527-8.649 3.189-15.408-2.392-20.655-.604-5.175 2.604-8.375 4.982-14.846 5.928-6.719.978-11.93-1.086-11.93-1.086"/><path fill="#000" d="M139.467 382.977c7.758-.874 9.612-.342 16.565.568 6.462.847 12.645 2.095 19.049 1.365 3.209-.365 6.377-.978 9.518-1.982 8.978-2.874 13.145-6.775 23.963-8.248 8.96-1.216 8.964.279 16.817-.095 8.231-.392 12.807-3.901 16.272-5.784 4.203-2.288 5.301-2.473 8.114-3.978 10.17-5.446 22.113-4.77 33.539-7.563 8.033-1.964 11.178-5.752 20.151-8.158 3.564-.955 7.475-.887 11.291-1.423 2.921-.405 8.082-3.005 10.971-5.671 4.955-4.59 4.406-4.775 8.258-6.946 6.422-3.635 13.694-3.523 20.151-6.523 6.008-2.788 12.186-5.162 16.943-9.964 6.93-7.005 17.87-8.964 26.865-12.23 5.297-1.932 12.254-5.338 18.09-15.437 5.729-9.892 10.796-11.311 20.979-14.379 6.773-2.045 9.698-3.491 14.913-8.415 4.698-4.433 6.386-7.284 8.496-10.388 2.417-3.563 7.164-9.415 2.12-13.892-2.214-1.969-4.455-5.622-9.212-9.284-3.654-3.293-6.674-5.131-7.677-5.924-5.481-4.324-.864-.91-6.129-4.243-3.717-2.351-4.766-4.243-8.595-6.406-6.858-3.874-7.574-5.018-13.055-11.608-4.757-8.78-12.218-10-19.697-11.672-7.227-1.613-12.353-7.383-13.572-9.37-3.843-6.221-10.053-9.307-13.347-11.095-10.233-5.554-22.032-4.667-31.253-12.874-13.896-9.879-17.555-8.05-32.162-8.5-8.055-.243-18.626-5.397-22.068-8.262-2.894-2.41-6.233-3.996-9.216-4.915-10.296-3.176-17.348 2.279-31.743-4.734-4.208-2.054-8.006-4.87-12.141-7.252-2.574-1.482-4.536-2.198-8.568-3.068-7.619-1.649-14.252-.595-23.481.189-4.329.374-6.899-1.928-10.877-4.077-3.654-1.978-7.556-3.433-12.389-4.329-6.255-1.162-13.356-.342-20.628 1.117-14.396 2.892-27.608-4.401-41.49-3.104-2.354.221-7.016 3.176-8.577 6.487-2.097 4.437-2.097 7-1.787 11.388.423 5.955 1.125 6.379 2.291 10.253 2.52 8.41 3.798 12.987 5.81 18.658 2.336 6.59 2.259 14.613-3.29 17.172-2.673 1.234-7.119 1.266-9.63-.653-3.906-2.978-6.044-7.171-10.449-8.036-5.877-1.162-12.929 4.874-19.175 6.518-6.264 1.653-7.061-1.757-11.412-3.775-2.894-1.342-5.675.613-7.299 1.514-2.93 1.635-3.636 5.009-4.32 8.604-.545 2.878-.779 5.559-.068 8.694 1.031 4.559 2.547 7.293 2.664 10.469.279 7.982-.999 13.838-4.293 18.05-2.093 2.68-4.833 10.077-5.697 12.811-2.889 9.144-2.543 7.55-3.938 16.046-.716 4.333-.599 9.198-.981 13.257-.072.748.482 9.973.927 12.726 1.103 6.82 2.381 11.212 3.816 16.96 2.066 8.307 2.952 13.469 2.745 19.893-.207 6.577-4.352 12.762-.414 17.406 2.448 2.883 8.825 5.487 14.013 3.198 5.256-2.329 9.09-5.072 13.221-5.64 7.61-1.05 12.501 2.212 15.804 1.824 2.912-.342 8.033-3.27 10.445-3.473 1.922-.162 6.089-.347 7.551.748 2.318 1.739 3.749 3.662 3.362 9.671-.009.09-1.409 6.401-1.422 6.455-2.399 7.901-4.986 15.235-6.224 20.663-1.292 5.662-7.502 17.924 5.099 22.947 5.306 2.113 10.917 1.703 17.87-.086 3.524-.91 4.986-1.059 8.276-1.608 0-.248 4.937-.158 4.937-.401l4.383-.185"/><path fill="#FFFFFE" d="M377.989 192.75c3.411 2.23 7.331 7.982 10.625 12.739 4.019 3.662 4.383 5.784 14.351 7.563-1.926-.347 8.969 3.415 10.611 4.333 4.284 2.378 5.377 3.842 9.175 8.176 3.928 4.482 5.49 5.68 13.415 10.982 3.078 2.063 3.627 2.802 9.49 6.973 2.416 1.721 5.476 4.505 6.565 6.793 2.772 5.811-1.098 7.879-7.123 11.072-9.905 5.257-18.103 3.757-27.023 12.874-7.443 7.599-15.575 16.87-21.078 18.537-2.399.73-8.752 2.721-13.091 5.419-4.298 2.676-5.512 2.59-9.365 6.027-4.576 4.081-7.132 7.009-15.547 9.919-5.189 1.788-11.313 2.622-16.749 4.252-4.023 1.212-7.24 2.887-10.818 4.919-5.463 3.099-12.038 10.352-21.074 12.032-17.892 3.333-13.14 2.969-25.897 8.748-3.168 1.437-9.707 3-14.297 3-7.672 0-13.657 1.27-20.412 4.865-4.918 2.622-9.927 7.437-19.579 8.721-11.925 1.586-12.587.09-27.392 3.257-4.491.968-10.161 4.243-14.445 5.793-4.81 1.743-16.142 1.96-24.147 1.225-7.821-.716-13.563-.73-24.862 1.32-8.748 1.586-13.464 1.766-21.96 1.55-1.912-.054-3.352-1.396-4.59-3.415-1.476-2.396-1.651-4.5-1.328-7.144.68-5.554.563-5.825 1.872-10.969.401-1.563 2.363-11.757 2.709-13.316 2.192-9.807 2.867-19.694-4.851-24.158-2.412-1.392-8.406-2.288-12.744-1.518-13.068 2.32-10.328 4.518-18.679 1.563-1.404-.496-4.955-1.14-7.02-1.054-4.18.167-10.138 3.099-15.408 3.928-3.699.586-4.667-3.541-4.568-6.491.153-4.572.63-8.964.427-14.077-.54-13.383-2.875-14.104-4.486-22.172-1.462-7.32-1.04-19.744-1.39-19.392.364-10.248 5.004-21.289 7.646-25.104 2.763-4 3.357-5.631 5.458-10.523 2.223-5.176 1.926-9.748.797-15.559-.027-.14-1.373-4.437-.886-4.437-.387-2.739.274-5.739 1.148-7.599 1.413-3.014 2.511-4.473 4.761-5.446 1.391-.608 2.862-1.338 4.343-1.441 4.855-.342 5.837 2.775 14.913-1.036 4.698-1.978 9.369.671 11.678 1.518 6.295 2.293 5.202 2.293 9.212 2.423 3.811.122 7.479-.842 11.016-2.991 2.034-1.243 3.573-1.923 4.779-3.68 1.035-1.514 2.407-5.689 2.776-7.847.45-2.626 1.184-4.275.45-10.496-2.011-7.685-2.74-9.334-4.117-14.199-1.116-3.964-2.466-7.757-3.033-11.397-.009-.068-.162-4.415-.162-4.415-.49-3.635 1.98-6.243 5.121-6.27 11.25-.09 21.802 3.117 33.692 3.041 9.81-.063 13.981-2.072 25.528 2.135 4.023 1.464 6.399 4.757 12.695 6.532 11.975 3.378 21.488-4.703 31.73.122 8.514 4.014 6.723 1.59 14.728 6.698 3.731 2.383 10.674 6.41 20.632 7.874 6.894 1.018 17.829-1.829 29.097 6.347 6.336 4.599 12.127 6.46 20.232 7.298 9.544.987 10.471-.36 17.995 5.095 5.535 4.018 4.01 3.122 9.594 7.284 2.529 1.883 4.513 3.802 8.172 5.446 2.093.941 10.116 2.063 9.869 2.05 7.132.365 9.139-.221 14.805 1.797-.122-.131 7.313 4.752 6.016 3.906"/><path fill="#000" d="M131.537 260.604v15.154h56.921l5.666-5.311v-18.185h-8.406l.031-4.613 31.37-18.005 2.632 2.707c-7.02 4.942-12.465 9.554-16.673 16.874-6.156 10.266-8.406 24.514-4.752 35.861 2.38 7.685 5.301 12.262 10.422 17.604 4.932 5.086 9.135 8.014 17.181 11.856 6.579 3.293 22.118 8.014 34.182 9.293 11.695.914 26.321.734 36.009-.55 10.598-1.095 21.569-4.937 28.152-7.649 5.297-2.559 11.147-4.937 15.642-8.451 11.336-8.158 23.288-20.46 23.472-35.83h-21.132c-6.656 23.604-70.632 34.402-96.219 16.14-18.648-14.676-13.347-27.668-5.486-33.704l2.38 2.563-3.987 4.207.292 15.19h53.887l6.944-6.586v-16.473h-4.131l-18.643-20.127c35.825-7.68 53.559 8.05 64.013 25.249h14.036l7.092-6.951v-39.889l-14.949-.036-8.955 5.559c-31.81-14.086-55.386-12.473-80.064-4.279l-4.023-4.095 22.779-13.618 13.743-.072 6.727-6.406.036-13.577h-54.985l-5.846 5.933v9.253l-51.543 29.501v-22.726l8.329-8.419v-13.685h-54.032l-7.38 8.635v10.829h8.847v58.484h-2.709s-7.236 8.198-6.872 8.343"/><path fill="#E31837" d="M141.118 177.678h49.347v8.856l-8.406.077v38.348l67.266-38.425h-5.922v-8.856l50.891-.072v8.856l-11.335.149-34.452 20.343 46.368 50.137 1.611.036v10.212h-51.179v-10.32l7.128.072-31.77-33.884-38.241 21.956v11.928h8.042v10.176h-49.347v-10.176h8.406v-70.556h-8.406v-8.856zm218.394 96.98c-1.976 10.428-6.728 14.636-12.613 21.406-7.862 7.32-9.468 8.239-17.329 12.442-13.523 6.77-27.599 9.694-43.686 10.068-22.486.914-42.403-3.847-54.652-8.969-7.497-2.743-18.648-9.698-25.591-21.591-5.666-11.527-2.889-23.789-.877-29.825 2.524-7.32 6.543-14.825 18.279-22.834l14.769 15.955c-7.493 6.509-12.978 18.406-1.242 31.947 14.04 17.564 46.026 22.505 79.295 12.622 17.181-5.117 24.673-12.257 30.123-21.221h13.527zm-98.487-59.65c10.048-3.113 38.385-12.811 78.232 4.757l8.411-5.491h11.767l-.144 35.425-13.086.149c-13.347-20.091-43.686-27.158-72.018-20.384l-13.162-14.455z"/></g></svg>