<svg xmlns="http://www.w3.org/2000/svg" viewBox="0 0 960 640"><path fill="#010101" d="M644.146 411.164V451.3c0 14.138-2.497 18.429-15.392 24.827l-148.763 73.795-148.757-73.795c-12.895-6.393-15.391-10.69-15.391-24.827v-40.137H119.575l85.9-255.35h110.373V90.078h328.303v65.736h196.274l-85.901 255.35z"/><path fill="#fff" d="m479.996 532.162 138.462-68.14c8.21-4.041 10.016-7.635 10.016-16.088v-52.446h114.791l75.351-223.992H628.474V105.76H331.517v65.736H216.726l-75.351 223.992h190.142v52.446c0 8.453 1.806 12.053 10.016 16.088z"/><path fill="#a2aaad" d="m479.996 520.415 129.365-63.663c6.903-3.397 8.569-6.416 8.569-13.778V384.95h117.863l68.262-202.916H617.93v-65.736H342.062v65.736H224.199L155.937 384.95h186.125v58.025c0 7.362 1.66 10.376 8.569 13.778z"/><path fill="#fff" d="M484.357 384.433c1.05 0 1.405.592 1.405 1.33v1.765h1.05c1.347 0 1.818.922 1.818 2.101v8.076c2.717-1.603 5.457-.418 6.439.453 2.386-1.498 5.846-.935 7.71 1.097 2.624-1.08 6.166-.43 8.198 2.3 2.735-.767 6.317.295 8.187 3.523 3.96-.627 7.315 1.9 8.349 5.052 4.546-.285 8.117 3.158 8.61 7.042a8.727 8.727 0 0 1 7.658 9.145c3.49 1.631 5.638 4.836 5.638 8.71 0 4.336-2.409 8.023-7.327 9.207-1.097.256-1.806.302-2.241.906 1.672.494 2.636 2.41 2.136 4.047-.226.755-3.326 9.481-3.326 9.481-.738 2.201-2.149 3.298-4.396 2.683-2.125-.587-2.84-.296-4.343 2.014-1.149 1.765-2.014 3.205-2.908 4.581-2.642 4.094-5.005 8.094-6.341 10.132-1.37 1.887-2.386 2.531-3.75 3.292-7.438 4.151-22.69 7.13-36.933 7.13s-29.494-2.973-36.932-7.13c-1.364-.76-2.38-1.405-3.751-3.292-1.335-2.038-3.692-6.033-6.34-10.132-.894-1.382-1.753-2.816-2.909-4.58-1.503-2.31-2.223-2.602-4.348-2.015-2.242.615-3.652-.482-4.39-2.683 0 0-3.1-8.726-3.327-9.48-.493-1.644.459-3.554 2.137-4.048-.435-.604-1.144-.644-2.247-.906-4.912-1.184-7.327-4.87-7.327-9.208 0-3.873 2.148-7.078 5.638-8.709a8.737 8.737 0 0 1 7.658-9.145c.493-3.878 4.064-7.327 8.61-7.042 1.034-3.153 4.384-5.679 8.349-5.052 1.87-3.228 5.452-4.284 8.187-3.524 2.026-2.729 5.568-3.379 8.198-2.299 1.864-2.038 5.324-2.595 7.71-1.097.981-.87 3.722-2.056 6.439-.453v-8.076c0-1.179.47-2.102 1.817-2.102h1.051v-1.765c0-.732.349-1.33 1.405-1.33z"/><path fill="#a2aaad" fill-rule="evenodd" d="M541.273 427.717a6.551 6.551 0 0 0-6.224-8.61c-.255 0-.516.017-.772.04q.077-.463.076-.952c0-3.414-2.776-6.183-6.19-6.183-.58 0-1.143.08-1.672.232v-.1a5.71 5.71 0 0 0-5.713-5.712c-.853 0-1.66.186-2.392.523a5.498 5.498 0 0 0-8.175-3.838 5.23 5.23 0 0 0-8.082-2.166 4.7 4.7 0 0 0-4.145-2.473 4.7 4.7 0 0 0-3.391 1.44 4.236 4.236 0 0 0-7.536 1.253c-1.957-.395-2.538-1.225-2.538-2.537 0-.517.093-.575.593-.575h.394c.976 0 1.556-.732 1.556-1.41v-6.311c0-1.086-.435-1.945-1.672-1.945h-.964v-1.341c0-.68-.325-1.226-1.294-1.226h-6.265c-.97 0-1.295.546-1.295 1.226v1.34h-.964c-1.242 0-1.678.866-1.678 1.946v6.31c0 .68.587 1.411 1.562 1.411h.389c.5 0 .598.058.598.575 0 1.312-.58 2.136-2.537 2.537a4.25 4.25 0 0 0-4.07-3.054 4.22 4.22 0 0 0-3.466 1.8 4.7 4.7 0 0 0-3.391-1.44 4.72 4.72 0 0 0-4.145 2.474 5.2 5.2 0 0 0-3.223-1.115 5.23 5.23 0 0 0-4.854 3.28 5.5 5.5 0 0 0-2.757-.737 5.5 5.5 0 0 0-5.423 4.576 5.715 5.715 0 0 0-8.106 5.19v.099a6.185 6.185 0 0 0-7.861 5.951c0 .325.023.639.07.952a8 8 0 0 0-.767-.04 6.557 6.557 0 0 0-6.561 6.554c0 .72.117 1.411.337 2.055a7.085 7.085 0 0 0-6.445 7.054 7.09 7.09 0 0 0 5.83 6.98c1.864.33 3.582.47 4.285 2.328.191.505.435 1.108.708 1.881l-1.335.557c-1.922.801-2.462 2.433-1.858 3.983l1.98 5.51c.743 2.235 1.904 3.571 4.18 2.944 2.16-.593 2.909-.784 3.652.598 2.189 4.354 3.878 6.59 6.979 6.56-2.154 1.394-2.079 1.812-.238 4.605l3.698 5.533c1.254 1.94 1.835 2.462 3.182 3.292 7.205 4.17 22.225 7.228 36.665 7.228s29.466-3.059 36.671-7.228c1.34-.825 1.928-1.353 3.182-3.292l3.692-5.533c1.847-2.787 1.922-3.205-.238-4.605 3.1.03 4.79-2.206 6.985-6.56.737-1.382 1.492-1.19 3.646-.598 2.276.627 3.437-.709 4.186-2.944l1.98-5.51c.604-1.55.058-3.182-1.858-3.983l-1.335-.557c.273-.773.517-1.376.702-1.88.703-1.859 2.427-1.999 4.29-2.33a7.09 7.09 0 0 0-.615-14.033"/><path fill="#010101" d="M477.093 395.685v1.52c0 .54.442.977.976.977h3.861a.97.97 0 0 0 .97-.976v-1.521h1.527a.98.98 0 0 0 .975-.975v-3.861c0-.54-.441-.97-.975-.97H482.9v-1.528c0-.534-.297-.969-.97-.969h-3.861c-.714 0-.976.435-.976.97v1.527h-1.521a.973.973 0 0 0-.975.97v3.86c0 .54.435.975.975.975zM444.371 475.297c10.376-5.789 26.981-7.409 35.626-7.42 8.645.011 25.251 1.62 35.626 7.42 1.811 1.01 1.893.998 3.199-.773l2.91-4.354q1.392-2.172-.29-3.153c-3.88-2.264-9.552-4.488-15.202-5.98-8.157-2.154-16.953-3.246-26.237-3.246s-18.092 1.092-26.238 3.246c-5.649 1.492-11.322 3.722-15.2 5.98q-1.683.981-.29 3.153l2.91 4.354c1.3 1.771 1.38 1.79 3.198.772"/><path fill="#010101" d="M478.289 429.604a2.576 2.576 0 0 0-2.578 2.578v2.385h-1.718a2.57 2.57 0 0 0-2.572 2.578v3.46c0 1.342 1.01 2.561 2.316 2.561 3.298 0 3.554 1.573 3.554 3.321s-1.661 3.321-3.554 3.321a3.73 3.73 0 0 1-2.223-.726c-.157-.11-.279-.08-.401.058a3.7 3.7 0 0 1-2.828 1.295 3.67 3.67 0 0 1-2.264-.772c-.116-.08-.255-.07-.377.07a3.73 3.73 0 0 1-1.992 1.172c-1.846.419-3.814-.771-4.192-2.455-.389-1.707-.174-3.361 2.741-4.017 1.271-.285 1.991-1.707 1.701-3.008l-.761-3.38a2.57 2.57 0 0 0-3.077-1.945l-1.707.383-.528-2.334a2.57 2.57 0 0 0-3.072-1.945l-3.385.761a2.58 2.58 0 0 0-1.945 3.078l.523 2.328-1.678.378a2.576 2.576 0 0 0-1.945 3.076l.761 3.38c.296 1.306 1.55 2.276 2.833 1.99 3.205-.725 3.815.755 4.192 2.456.371 1.655-.9 3.606-2.741 4.018a3.62 3.62 0 0 1-3.245-.865c-.163-.139-.349-.122-.447.041-.447.83-1.196 1.492-2.166 1.765a3.55 3.55 0 0 1-2.427-.18c-.249-.116-.424-.024-.482.232-.273 1.196-1.178 2.148-2.293 2.595-1.603.633-3.304-.377-4.018-1.927-.83-1.8-1.109-3.02 1.835-4.268 1.132-.482 1.591-1.939 1.19-3.193l-1.242-3.21c-.436-1.341-1.76-2.038-2.967-1.562l-2.218.813-.651-1.899c-.464-1.533-1.567-2.085-3.251-1.41l-3.582 1.334c-1.034.406-1.562 1.463-1.04 2.741.384.928.668 1.62.871 2.125l-2.136.876c-1.33.523-1.864 1.788-1.347 3.112l1.44 3.623c.516 1.33 1.846 1.864 3.344 1.37 2.322-.772 2.874-.226 4.453 2.625 1.69 3.251 4.5 4.9 7.978 4.9s6.381-1.916 7.884-4.732a9.05 9.05 0 0 0 5.737.587 9.06 9.06 0 0 0 5.591-3.86 9.05 9.05 0 0 0 6.7 1.096 9.1 9.1 0 0 0 4.227-2.235 9.04 9.04 0 0 0 4.622 1.265 9.06 9.06 0 0 0 6.258-2.496 9.05 9.05 0 0 0 6.254 2.496 9.1 9.1 0 0 0 4.627-1.265 9.06 9.06 0 0 0 4.221 2.235 9.07 9.07 0 0 0 6.7-1.097 9.088 9.088 0 0 0 11.328 3.274c1.509 2.816 4.482 4.732 7.884 4.732s6.497-1.99 7.978-4.9c1.573-2.85 2.142-3.455 4.453-2.625 1.452.523 2.828-.04 3.344-1.37l1.435-3.623c.516-1.329-.024-2.595-1.347-3.112l-2.137-.876c.209-.5.493-1.19.871-2.125.522-1.284 0-2.335-1.039-2.74l-3.583-1.336c-1.678-.674-2.787-.122-3.245 1.411l-.651 1.898-2.223-.813c-1.202-.482-2.532.215-2.961 1.562l-1.243 3.211c-.406 1.254.052 2.711 1.184 3.193 2.95 1.248 2.665 2.462 1.841 4.268-.72 1.55-2.421 2.56-4.024 1.927-1.114-.447-2.014-1.399-2.293-2.595-.058-.256-.232-.348-.476-.232a3.56 3.56 0 0 1-2.433.18c-.964-.273-1.713-.935-2.166-1.765-.092-.163-.284-.18-.441-.04a3.63 3.63 0 0 1-3.251.864c-1.846-.412-3.112-2.363-2.741-4.018.389-1.707.987-3.18 4.198-2.456 1.278.285 2.532-.685 2.828-1.99l.76-3.38a2.57 2.57 0 0 0-1.945-3.077l-1.678-.378.523-2.328a2.576 2.576 0 0 0-1.945-3.076l-3.385-.761a2.575 2.575 0 0 0-3.071 1.945l-.523 2.334-1.707-.383a2.566 2.566 0 0 0-3.071 1.945l-.761 3.379c-.296 1.3.424 2.723 1.695 3.008 2.921.656 3.13 2.316 2.747 4.017-.384 1.69-2.358 2.88-4.198 2.456a3.73 3.73 0 0 1-1.992-1.172c-.116-.134-.255-.151-.371-.07a3.7 3.7 0 0 1-2.27.772 3.71 3.71 0 0 1-2.828-1.295c-.116-.14-.244-.163-.401-.059a3.8 3.8 0 0 1-2.223.726c-1.887 0-3.554-1.626-3.554-3.32s.262-3.322 3.554-3.322c1.306 0 2.322-1.219 2.322-2.56v-3.46a2.576 2.576 0 0 0-2.578-2.579h-1.718v-2.386a2.573 2.573 0 0 0-2.578-2.578h-3.414zM479.996 483.46c14.759 0 27.451-2.717 34.802-5.91-3.403-1.846-6.811-3.182-11.769-4.273-6.131.91-14.997 2.125-23.038 2.125s-16.908-1.208-23.039-2.125c-4.952 1.09-8.361 2.42-11.769 4.273 7.357 3.193 20.049 5.91 34.802 5.91M499.243 412.633a2.36 2.36 0 0 0-2.38-2.351 2.355 2.355 0 0 0-2.351 2.38 2.36 2.36 0 0 0 2.38 2.352c1.301 0 2.357-1.076 2.351-2.382M488.038 406.235a2.01 2.01 0 1 0-4.02 0 2.01 2.01 0 0 0 4.02 0M493.286 409.207a2.01 2.01 0 1 0-4.02 0 2.01 2.01 0 0 0 4.02 0M506.239 417.812c0-1.65-1.335-2.984-2.984-2.984s-2.984 1.335-2.984 2.984 1.335 2.984 2.984 2.984 2.984-1.335 2.984-2.984M513.293 425.186c0-1.97-1.597-3.565-3.571-3.565s-3.565 1.596-3.565 3.565a3.57 3.57 0 0 0 3.565 3.57 3.57 3.57 0 0 0 3.571-3.57"/><path fill="#010101" d="M520.546 434.104c0-2.23-1.806-4.041-4.041-4.041a4.041 4.041 0 1 0 0 8.082 4.036 4.036 0 0 0 4.041-4.041M507.755 404.284a2.873 2.873 0 1 0-5.743.17 2.873 2.873 0 0 0 5.743-.17M515.785 407.28a3.255 3.255 0 0 0-3.344-3.16 3.257 3.257 0 0 0 .186 6.509 3.25 3.25 0 0 0 3.158-3.344M523.827 411.669a3.55 3.55 0 0 0-7.095.209 3.549 3.549 0 1 0 7.095-.209M493.019 402.164a2.195 2.195 0 0 0-2.201-2.177 2.186 2.186 0 0 0-2.177 2.2c0 1.207.993 2.183 2.2 2.177 1.208 0 2.178-.992 2.178-2.2M500.132 402.565a2.523 2.523 0 0 0-2.531-2.502c-1.388 0-2.508 1.144-2.503 2.53a2.53 2.53 0 0 0 2.538 2.503c1.387 0 2.508-1.144 2.502-2.532M531.646 417.528a3.835 3.835 0 0 0-3.861-3.816 3.84 3.84 0 1 0 .046 7.676 3.83 3.83 0 0 0 3.815-3.86M538.898 424.866a4.134 4.134 0 1 0-8.268.052 4.127 4.127 0 0 0 4.157 4.105 4.13 4.13 0 0 0 4.111-4.157M544.978 433.854a4.426 4.426 0 0 0-4.459-4.401 4.43 4.43 0 1 0 4.459 4.401M500.306 434.272c.365-2.973 1.492-4.233 3.843-3.81.215.041.372-.18.308-.395-1.707-5.742-10.068-16.733-20.362-21.43-.662-.302-1.057-.516-1.161-.389-.116.134.191.447.697.89 9.713 8.534 11.693 21.83 11.914 26.022.017.284.383.377.54.14 0 0 1.126-2.05 4.221-1.035"/><path fill="#010101" d="M492.775 406.496c14.846 4.732 29.855 19.473 32.7 34.43.046.255.435.313.523.069.307-.847.435-1.382.789-2.003.54-.94 1.858-1.29 3.043-.882 1.776.598 4.348 1.596 5.66 2.13.256.104.523-.082.418-.349-7.054-18.37-27.224-31.794-43.04-34.012-.83-.116-1.312-.122-1.335.035-.023.187.238.268 1.242.582M459.681 434.272c3.095-1.016 4.221 1.034 4.221 1.034.163.238.534.145.54-.14.215-4.192 2.195-17.488 11.914-26.023.505-.447.819-.754.697-.888-.105-.128-.5.087-1.161.389-10.295 4.697-18.655 15.688-20.362 21.43-.064.209.093.436.307.395 2.352-.424 3.478.836 3.844 3.809M467.212 406.496c1.005-.308 1.272-.395 1.243-.581-.023-.163-.505-.157-1.336-.035-15.815 2.223-35.986 15.647-43.04 34.011-.104.262.163.447.418.35 1.312-.54 3.884-1.533 5.661-2.131 1.184-.401 2.502-.058 3.042.882.355.622.482 1.156.79 2.004.093.249.476.19.523-.07 2.845-14.957 17.853-29.698 32.699-34.43M484.548 423.415a4.558 4.558 0 1 0-9.116 0 4.558 4.558 0 0 0 9.116 0M482.128 409.329c0-1.196-.975-2.177-2.177-2.177a2.178 2.178 0 1 0 2.177 2.177M482.638 415.182a2.68 2.68 0 0 0-2.682-2.683 2.676 2.676 0 0 0-2.683 2.683 2.676 2.676 0 0 0 2.683 2.682 2.676 2.676 0 0 0 2.682-2.682M483.05 403.059a3.094 3.094 0 0 0-3.094-3.096c-1.713 0-3.095 1.382-3.095 3.095s1.382 3.095 3.095 3.095a3.09 3.09 0 0 0 3.094-3.095M494.894 445.32a2.88 2.88 0 0 0-2.885-2.886c-1.597 0-2.886 1.29-2.886 2.886s1.289 2.886 2.886 2.886a2.88 2.88 0 0 0 2.885-2.886M518.926 449.768c0-1.597-1.289-2.885-2.886-2.885s-2.886 1.288-2.886 2.885 1.289 2.886 2.886 2.886 2.886-1.29 2.886-2.886M465.098 445.32a2.88 2.88 0 0 0 2.885 2.886c1.597 0 2.886-1.289 2.886-2.886s-1.289-2.886-2.886-2.886a2.88 2.88 0 0 0-2.885 2.886M441.061 449.768a2.88 2.88 0 0 0 2.885 2.886c1.597 0 2.886-1.29 2.886-2.886s-1.289-2.885-2.886-2.885a2.88 2.88 0 0 0-2.885 2.885M455.024 407.239a2.873 2.873 0 1 0 .166-5.744 2.873 2.873 0 0 0-.166 5.743M447.361 410.63a3.25 3.25 0 0 0 3.344-3.16 3.24 3.24 0 0 0-3.158-3.344 3.252 3.252 0 1 0-.192 6.503"/><path fill="#010101" d="M439.608 415.32a3.548 3.548 0 1 0 .209-7.094 3.553 3.553 0 0 0-3.652 3.443 3.553 3.553 0 0 0 3.443 3.652M469.143 404.365a2.19 2.19 0 0 0 2.201-2.177 2.183 2.183 0 0 0-2.177-2.201 2.184 2.184 0 0 0-2.201 2.176 2.184 2.184 0 0 0 2.177 2.201M462.357 405.097a2.521 2.521 0 0 0 .029-5.04 2.516 2.516 0 1 0-.029 5.034M432.166 421.394a3.834 3.834 0 0 0 3.861-3.814 3.836 3.836 0 0 0-3.815-3.867 3.836 3.836 0 0 0-3.861 3.82 3.83 3.83 0 0 0 3.815 3.86M425.198 429.023a4.13 4.13 0 0 0 4.158-4.11 4.13 4.13 0 0 0-4.105-4.159 4.134 4.134 0 0 0-4.163 4.111c-.018 2.282 1.829 4.14 4.11 4.157M419.417 438.307a4.43 4.43 0 0 0 4.459-4.401 4.435 4.435 0 0 0-4.407-4.46 4.43 4.43 0 0 0-4.453 4.401 4.425 4.425 0 0 0 4.401 4.46M463.095 415.014a2.364 2.364 0 0 0 2.381-2.352 2.36 2.36 0 0 0-2.352-2.38 2.36 2.36 0 0 0-2.38 2.35 2.363 2.363 0 0 0 2.351 2.382M473.957 408.244a2.01 2.01 0 1 0-.001-4.02 2.01 2.01 0 0 0 .001 4.02M468.71 411.216a2.01 2.01 0 1 0-.001-4.02 2.01 2.01 0 0 0 .001 4.02M456.737 420.796c1.649 0 2.984-1.335 2.984-2.984s-1.335-2.984-2.984-2.984-2.984 1.335-2.984 2.984 1.335 2.984 2.984 2.984M450.257 428.75c1.968 0 3.571-1.597 3.571-3.57s-1.603-3.566-3.571-3.566-3.571 1.597-3.571 3.565 1.603 3.571 3.571 3.571M443.488 438.145c2.23 0 4.041-1.806 4.041-4.041a4.041 4.041 0 1 0-8.082 0 4.033 4.033 0 0 0 4.041 4.04"/><path fill="#fff" d="M482.174 392.782c0 1.202-.976 2.178-2.178 2.178s-2.183-.976-2.183-2.178.981-2.177 2.183-2.177 2.178.974 2.178 2.176M479.961 460.167a2.834 2.834 0 0 1 0 5.667 2.84 2.84 0 0 1-2.833-2.834 2.84 2.84 0 0 1 2.833-2.833M461.011 464.487a2.839 2.839 0 1 1 5.626-.743 2.83 2.83 0 0 1-2.438 3.18 2.834 2.834 0 0 1-3.188-2.438M446.06 468.917c-.505-1.393.209-2.897 1.585-3.356 1.382-.46 2.909.302 3.408 1.7.505 1.394-.209 2.897-1.585 3.356-1.382.453-2.909-.308-3.408-1.7M493.349 463.744a2.84 2.84 0 0 1 3.188-2.44 2.84 2.84 0 0 1 2.438 3.182 2.847 2.847 0 0 1-3.187 2.444 2.843 2.843 0 0 1-2.439-3.187M508.933 467.256c.505-1.393 2.032-2.154 3.408-1.701 1.382.458 2.09 1.962 1.585 3.355-.499 1.393-2.032 2.16-3.408 1.701-1.382-.458-2.085-1.962-1.585-3.356M479.949 436.194a2.725 2.725 0 1 1 0 5.452 2.73 2.73 0 0 1-2.729-2.724 2.733 2.733 0 0 1 2.729-2.729M504.887 438.958a2.725 2.725 0 1 1 0 5.451 2.73 2.73 0 0 1-2.729-2.723 2.733 2.733 0 0 1 2.729-2.728M529.539 446.58a2.73 2.73 0 0 1 2.728 2.73 2.725 2.725 0 0 1-2.728 2.722c-1.504 0-2.729-1.219-2.729-2.723s1.219-2.729 2.729-2.729M457.823 441.68a2.73 2.73 0 0 1-2.729 2.73c-1.51 0-2.723-1.226-2.723-2.73s1.219-2.729 2.723-2.729 2.729 1.225 2.729 2.73M433.176 449.31a2.73 2.73 0 0 1-2.729 2.729c-1.51 0-2.723-1.225-2.723-2.73s1.219-2.729 2.723-2.729 2.729 1.226 2.729 2.73"/><path fill="#010101" d="M400.505 144.899c-3.472 0-5.312.72-6.723 1.817-2.491 1.974-3.762 5.423-3.762 10.857s1.271 8.883 3.762 10.858c1.411 1.103 3.251 1.817 6.723 1.817s5.313-.72 6.718-1.817c2.491-1.975 3.762-5.423 3.762-10.858s-1.271-8.883-3.762-10.857c-1.411-1.103-3.251-1.817-6.718-1.817m0 4.196c1.15 0 1.847.43 2.282 1.086.592.912.807 2.166.807 7.391s-.209 6.486-.807 7.391c-.441.656-1.138 1.086-2.282 1.086-1.143 0-1.846-.43-2.287-1.086-.592-.91-.807-2.165-.807-7.39s.209-6.486.807-7.392c.441-.656 1.138-1.086 2.287-1.086m-13.005 9.07v10.37c0 .912-.337 1.289-1.283 1.289h-19.909v-3.833c2.369 0 2.839-.726 2.839-2.81v-16.193c0-2.52-.447-3.153-2.839-3.153v-3.832h13.923v3.833c-3.037 0-3.588 1.021-3.588 3.24v17.79c0 .556.185.782.801.782 3.843 0 5.231-1.364 6.775-7.478h3.275zm80.948 5.992-5.975-22.348c-.36-1.336-.865-1.812-2.357-1.812h-12.959v3.6c2.172.128 2.711 1.034 2.096 3.344l-4.36 16.49c-.488 1.823-1.098 2.421-2.752 2.508v3.878h11.687v-3.878c-2.862 0-3.547-.83-3.112-2.572l.215-.894c.116-.453.302-.662.871-.662h7.559c.575 0 .755.21.865.662l.239.952c.412 1.672-.244 2.514-2.689 2.514v3.878h13.012v-3.878c-1.417-.07-2.032-.546-2.352-1.783m-10.207-6.263h-5.295c-.656 0-.819-.215-.656-.871l2.711-10.974c.111-.435.302-.627.593-.627.29 0 .487.192.592.627l2.711 10.974c.163.662 0 .87-.662.87m71.548-8.163c-.621.748-.894 2.113-.894 4.94 0 .546.198.743.726.743h4.656c.529 0 .703-.197.726-.743.099-2.392-.215-4.192-.83-4.94-.418-.512-1.005-.854-2.148-.854s-1.812.342-2.236.853m3.246 16.471c2.45 0 4.082-1.305 5.167-4.156h3.09v4.162c0 1.923-.5 2.538-2.132 3.078-1.829.604-4.099.958-6.845.958-3.68 0-6.056-.766-7.728-2.346-2.078-1.962-3.007-5.126-3.007-10.201s1.027-8.105 3.13-10.271c1.52-1.568 3.721-2.538 7.675-2.538 3.448 0 5.794.93 7.251 2.497 1.731 1.858 2.33 4.57 2.33 8.906 0 2.48-.39 2.961-2.243 2.961H529.61c-.534 0-.726.203-.726.743 0 4.703 1.405 6.201 4.14 6.201m31.561-16.465c-.621.748-.894 2.113-.894 4.94 0 .546.198.743.726.743h4.656c.535 0 .703-.197.726-.743.099-2.392-.22-4.192-.83-4.94-.424-.512-1.01-.854-2.154-.854s-1.806.342-2.235.853m3.245 16.472c2.45 0 4.088-1.305 5.168-4.156h3.094v4.162c0 1.923-.499 2.538-2.136 3.078-1.824.604-4.1.958-6.84.958-3.687 0-6.061-.766-7.728-2.346-2.078-1.962-3.013-5.126-3.013-10.201s1.027-8.105 3.135-10.271c1.521-1.568 3.716-2.538 7.676-2.538 3.443 0 5.788.93 7.246 2.497 1.73 1.858 2.328 4.57 2.328 8.906 0 2.48-.389 2.961-2.241 2.961h-10.097c-.534 0-.726.203-.726.743 0 4.703 1.405 6.201 4.14 6.201m-15.229-2.443c0 1.537.685 2.234 2.223 2.234v3.832h-6.16c-2.189 0-3.135-1.022-3.135-3.153V146.09c0-1.533-.679-2.235-2.224-2.235v-3.833h9.29v23.73zM431.028 152.8h-2.683c-1.178-2.723-3.361-4.024-5.858-4.024-1.887 0-2.642.877-2.642 2.044 0 1.318.767 2.096 2.561 2.729l3.286 1.149c4.877 1.707 6.712 3.832 6.712 7.838 0 5.232-3.49 7.71-9.824 7.71-2.258 0-4.656-.301-6.265-.68-2.136-.51-2.502-1.061-2.502-2.576v-4.941h2.88c1.364 2.723 3.373 4.285 6.293 4.285 2.131 0 3.136-.982 3.136-2.41s-.918-2.224-2.926-2.92l-3.2-1.11c-4.435-1.538-6.247-3.721-6.247-7.75 0-4.512 2.833-7.241 9.197-7.241 1.956 0 3.855.244 5.579.639 2.125.494 2.503 1.115 2.503 2.89v4.373zm166.088 0h-2.677c-1.179-2.723-3.362-4.024-5.858-4.024-1.893 0-2.642.877-2.642 2.044 0 1.318.766 2.096 2.56 2.729l3.287 1.149c4.877 1.707 6.712 3.832 6.712 7.838 0 5.232-3.49 7.71-9.824 7.71-2.265 0-4.657-.301-6.271-.68-2.136-.51-2.496-1.061-2.496-2.576v-4.941h2.879c1.365 2.723 3.374 4.285 6.294 4.285 2.131 0 3.13-.982 3.13-2.41s-.912-2.224-2.921-2.92l-3.2-1.11c-4.441-1.538-6.246-3.721-6.246-7.75 0-4.512 2.839-7.241 9.202-7.241 1.951 0 3.85.244 5.574.639 2.125.494 2.502 1.115 2.502 2.89v4.373zm-100.851 13.185v3.832h-6.335c-2.189 0-3.135-1.023-3.135-3.154 0-4.202.122-8.893.122-13.643 0-2.171-.691-3.031-2.079-3.031-1.805 0-2.967 1.364-2.967 4.215v9.545c0 1.538.68 2.235 2.224 2.235v3.832H472.57v-3.832c1.545 0 2.224-.697 2.224-2.235v-12.355c0-1.533-.679-2.236-2.224-2.236v-3.831h5.109c2.218 0 3.066.709 3.554 2.694.093.389.348.424.575.076 1.347-2.097 3.216-3.2 6.224-3.2 4.221 0 6.119 2.27 6.119 7.002s-.122 7.646-.122 11.85c0 1.538.685 2.235 2.224 2.235m12.042-6.027c.911 0 1.44-.267 1.869-.714.767-.783 1.051-1.974 1.051-4.72s-.284-3.93-1.051-4.714c-.429-.448-.958-.715-1.869-.715-.912 0-1.44.267-1.87.715-.766.783-1.051 1.974-1.051 4.714s.285 3.937 1.051 4.72c.43.447.958.714 1.87.714m.133 16.102c3.507 0 4.506-.244 5.086-.726.43-.348.627-.82.627-1.36 0-1.044-.691-1.473-2.217-1.473-2.671 0-5.284.069-7.786.069-1.522 0-2.218.575-2.218 1.556 0 .517.203.958.638 1.278.598.435 1.394.65 5.179.65h.68zm7.943-26.598c1.364 1.336 2.084 3.217 2.084 5.66 0 5.324-3.512 9.034-10.369 9.034-1.446 0-1.649-.069-2.776-.069-1.027 0-1.451.442-1.451 1.01 0 .726.482 1.283 2.096 1.283 2.502 0 4.349-.122 7.025-.122 5.266 0 7.275 2.19 7.275 5.858 0 2.114-.708 3.763-2.073 4.93-1.695 1.451-3.895 2.142-9.992 2.142h-1.463c-5.179 0-6.932-.493-8.07-1.376-.9-.69-1.318-1.649-1.318-2.827 0-1.632.952-2.933 2.897-3.455.308-.087.261-.33 0-.494-1.417-.876-2.102-2.096-2.102-3.779 0-2.044 1.179-3.676 3.553-4.274.331-.08.337-.336.082-.528-2.387-1.77-3.507-4.238-3.507-7.93 0-6.15 3.431-9.627 10.265-9.627 2.462 0 4.012.43 7.234.43h4.843v3.587h-4.024c-.401 0-.505.256-.209.546"/><path fill="#fff" d="M658.99 255.034c0 .778.436 1.538 3.687 2.014 1.574.233 3.443.488 5.406.744a41 41 0 0 0 1.753 9.899l4.767-.105a39.3 39.3 0 0 1-2.102-12.047l-13.516-.505zM619.354 216.214c7.042.679 11.391 5.138 12.715 16.78l4.314-.436c-1.51-12.396-6.538-16.454-14.701-16.454-.795 0-1.568.034-2.328.103M652.841 310.168h-4.36l-8.204 24.408 4.453-.278zM685.576 304.426c2.915.395 7.984.894 13.261 1.335 3.083 3.727 5.127 7.245 6.236 10.781l4.779-.104c-1.133-4.285-3.571-8.53-7.56-13.04l-20.536-.912c0 .894.563 1.498 3.82 1.945M691.22 212.858c9.279-7.914 21.744-12.129 37.415-12.414q-1.36-.024-2.677-.023c-16.628 0-29.733 4.331-39.359 12.686zM726.538 216.069a29 29 0 0 0-2.143.087c5.853.446 9.702 2.786 11.844 8.07l4.163-.47c-2.455-5.574-6.938-7.688-13.864-7.688M640.852 270.367c0 .818.604 1.515 3.878 1.921 5.934.732 17.128 1.707 28.032 2.514 2.723 5.307 6.59 10.492 11.6 15.8l5.423-.157c-6.079-6.34-10.625-12.425-13.522-18.736zM665.819 293.144c0 .894.639 1.545 3.902 1.963 5.237.673 13.58 1.37 20.809 1.846l2.757 2.828 5.237-.366-4.935-5.051-27.776-1.214zM414.585 322.018l7.856-23.33-28.415-1.173c0 .941.616 1.626 3.879 2.015 4.668.546 11.954 1.254 19.258 1.875l-7.019 20.856 4.441-.25zM346.341 325.612l6.41-19.05-36.166-1.185c0 .941.964 1.846 4.088 2.131 6.206.563 16.709 1.265 26.789 1.83l-5.522 16.412 4.407-.139zM503.65 268.068c.958.204 2.021.424 3.136.65l-14.138 41.972-.116 8.03c-.047 2.85.789 2.902 1.736.086l17.499-51.958-11.821-.94c0 .888.494 1.468 3.704 2.153M505.142 241.47c2.137.384 6.288.958 10.335 1.435l-6.921 20.565 4.471-.35 7.257-21.551c.14-.406.267-.801.401-1.196l-19.392-.975c0 .865.615 1.492 3.849 2.072M567.388 229.15c2.665-3.868 5.411-7.2 8.314-10.103 12.007-11.99 27.213-18.202 50.165-18.557-.772-.017-1.556-.034-2.288-.034-24.13 0-39.858 6.242-52.237 18.592-2.967 2.96-5.765 6.375-8.488 10.352l4.528-.25zM517.509 236.605l4.407-.244c3.884-13.743 1.045-17.737-9.33-19.99l4.482-13.326h-4.36l-5.063 15.045c11.554 2.508 13.737 5.463 9.858 18.515M674.111 217.973c1.852.313 4.227.673 6.799 1.01-3.873 4.796-6.979 10.468-9.255 17.058-1.997 5.783-3.147 11.095-3.501 16.112l4.471-.54c.342-4.83 1.457-9.969 3.39-15.572 2.613-7.565 6.306-13.952 11.026-19.154l-16.774-1.005c0 1.011.604 1.545 3.844 2.09M546.366 275.087a389 389 0 0 1 5.022-13.777l-11.49-.912c0 .732.499 1.34 2.044 1.788 1.19.343 2.671.686 4.354 1.017a414 414 0 0 0-4.29 11.879 496 496 0 0 0-2.491 7.39l4.47-.342a530 530 0 0 1 2.38-7.048M557.105 247.665l-9.974-.79c0 .86.609 1.354 2.421 1.853.714.203 1.538.4 2.444.604a234 234 0 0 0-3.658 8.633l4.506-.348a224 224 0 0 1 4.261-9.952M564.839 233.057l-17.708-.894c0 .824.836 1.58 2.397 1.851 2.526.436 6.004.912 9.598 1.295-1.649 2.816-3.269 5.888-4.889 9.232l4.517-.349c2.009-4.122 4.03-7.809 6.085-11.136M220.448 324.544l5.55-16.513-16.198-.993c0 .842.4 1.655 3.646 2.183 2.113.343 4.662.726 7.426 1.092l-4.831 14.352 4.401-.122zM542.719 286.026l-12.843-1.016c0 .894.494 1.614 3.722 2.317 1.109.243 2.52.516 4.093.8-3.907 12.465-6.427 22.765-7.629 31.428l4.384-.255c1.288-9.099 4.017-19.99 8.267-33.275M719.508 240.019c4.371.504 11.507 1.137 18.846 1.601a164 164 0 0 1-.424 8.425h4.36c.302-4.028.453-7.628.448-10.827l-26.743-1.173c0 1.12.824 1.66 3.507 1.974M594.12 279.709l-5.057 15.044c11.2 1.805 13.824 3.472 10.619 15.1l4.354-.116c3.176-12.11.47-15.136-10.038-16.698l4.482-13.324h-4.36zM741.64 227.547l-13.65-.598c0 .841.563 1.44 3.809 1.962 1.44.232 3.553.546 5.922.871.279 1.69.464 3.553.569 5.614l4.354-.121c-.156-2.973-.487-5.534-1.004-7.729M533.975 323.23l-16.698-1.056c0 .866.581 1.562 3.809 2.166 1.945.36 4.987.836 8.326 1.295-.36 5.173-.163 9.69.586 13.702l4.331-.14c-.836-4.592-.958-9.846-.348-15.966M636.863 243.056a98 98 0 0 0-.139-6.713l-13.54-.614c0 .898.778 1.514 3.095 1.874 1.649.255 3.878.54 6.178.778a101 101 0 0 1 .029 4.796zM710.548 320.53l-34.592-1.311c0 .842.621 1.516 3.896 1.922 6.479.8 17.302 1.835 26.231 2.502-.069 2.956-.708 6.027-1.852 9.342l4.448-.243c1.48-4.332 2.171-8.332 1.869-12.216M601.68 317.448a163 163 0 0 0 1.225-3.785l-26.092-1.145c0 .888.708 1.411 2.758 1.672 4.755.621 11.716 1.336 18.225 1.847-.157.458-.302.923-.47 1.41l-2.898 8.611 4.442-.238 2.816-8.373zM682.871 350.264c.731.047 1.48.07 2.264.07 9.987 0 17.482-4.32 21.906-13.534l-18.144-1.091c0 .87.639 1.718 3.902 2.16 2.613.348 5.603.72 8.761 1.068-4.168 7.14-10.52 10.793-18.683 11.322M597.488 329.903l-18.503-1.11c0 .842.673 1.387 2.908 1.765 3.089.516 6.625 1.022 10.509 1.492l-2.293 6.822 4.471-.348 2.903-8.628zM636.138 256.13c.296-3.298.494-6.329.61-9.145l-26.609-1.16c0 .864.604 1.491 3.873 1.921 4.9.65 10.926 1.312 18.248 1.922a201 201 0 0 1-.482 6.462zM584.697 349.7c1.428-.063 2.816-.162 4.122-.348 1.509-.215 2.456-.98 3.025-2.659l1.509-4.482-11.513-.912c0 .732.714 1.33 2.27 1.73 1.08.28 2.642.587 4.332.831l-.953 2.833c-.528 1.557-1.126 2.48-2.787 3.014M461.805 239.102c.047-2.788-.813-2.777-1.707-.094l-2.769 8.21-.633 44.068 4.366-.452.743-51.727zM247.644 228.982l4.285-.256c1.347-7.873-.975-10.317-6.474-12.35l4.483-13.324h-4.361l-5.057 15.043c6.131 1.858 8.419 3.739 7.118 10.892M215.073 244.542c6.764.697 16.751 1.37 27.271 1.945l-7.687 22.853 4.436-.227 8.546-25.407-36.276-1.196c0 .975 1.062 1.759 3.704 2.038M441.103 226.95l4.546-.35c.615-6.176-1.916-8.394-8.175-10.23l4.482-13.324h-4.36l-5.057 15.044c6.166 1.376 8.941 3.152 8.564 8.865M210.242 292.749c3.815.447 9.893 1.062 15.99 1.637l-3.373 10.038 4.441-.249 4.14-12.32-24.949-1.156c-.023.958 1.109 1.736 3.745 2.044M309.014 233.19l-3.443 3.158 6.37-.214.226-.209c11.351-10.405 10.312-17.802 1.15-19.549l4.482-13.325h-4.36l-5.057 15.05c10.114 1.131 10.433 6.12.632 15.095M371.83 203.046l-5.057 15.044c6.422 1.945 8.628 3.907 6.909 11.93l4.291-.214c1.753-8.732-.528-11.304-6.265-13.43l4.477-13.324h-4.361zM236.468 233.545c2.549.442 5.829.924 9.679 1.423a166 166 0 0 1-1.551 4.83l4.384-.082c.854-2.607 1.533-4.888 2.055-6.915l-17.273-1.113c0 .975.68 1.52 2.7 1.863M539.798 352.465c-1.986-2.793-3.49-5.876-4.529-9.342l-24.322-1.155c0 .83.628 1.486 3.879 1.92 3.675.489 10.938 1.284 16.983 1.848a31.3 31.3 0 0 0 3.628 6.735c6.015 8.482 18.946 13.534 37.043 13.534.993 0 1.986-.012 2.973-.024-17.36-.255-29.79-5.248-35.655-13.505M218.771 329.525l.308-.923-26.633-1.231c0 .952.668 1.637 4.14 2.073 4.331.54 10.166 1.195 17.197 1.886-4.697 13.29-8.256 15.59-17.104 17.075l-5.063 15.05h4.36l4.483-13.325c9.852-2.363 13.29-5.678 18.306-20.6M460.174 352.552l.209-14.853-21.575-1.004c0 .93.627 1.521 3.878 2.014 3.71.563 8.367 1.103 13.302 1.51l-.174 12.332c-.157 8.204 2.142 10.892 9.057 10.892h4.361c-6.915 0-9.215-2.694-9.058-10.892M637.596 355.507l5.899-17.546-13.104-.696c0 1.056.546 1.7 3.768 2.316 1.283.243 2.711.481 4.192.702l-4.43 13.185c-1.603 4.726-.436 6.7 6.143 8.274-3.252-.778-3.81-2.282-2.468-6.242M413.034 326.616l.209-.615-17.244-1.057c0 .911.453 1.492 3.681 2.124 2.654.517 5.441.958 8.367 1.376-5.243 14.94-9.005 17.395-19.357 19.962l-5.063 15.043h4.36l4.482-13.319c10.631-2.688 14.98-6.938 20.565-23.509M277.115 339.633l-.162-4.151-23.195-1.145c0 .9.69 1.626 2.746 1.928 4.546.662 10.131 1.318 16.193 1.858l.058 1.51c.946 20.084 4.883 24.322 21.976 24.322.888 0 1.771-.012 2.647-.017-15.647-.296-19.351-4.918-20.263-24.31M326.717 350.125c9.853-2.363 13.29-5.678 18.307-20.588l-24.089-1.115c0 .928.772 1.625 2.525 1.926 4.436.744 10.317 1.475 16.216 2.004-4.517 12.408-8.122 14.603-16.738 16.054l-5.063 15.05h4.36l4.482-13.325zM461.011 294.56l-12.396-.656c0 .888.627 1.736 3.878 2.224 1.144.168 2.561.371 4.128.575l-.162 11.286 4.36-.232zM307.766 239.96l-20.896-.964c0 .923.528 1.516 2.398 1.812 2.821.448 6.439.9 10.102 1.232l-10.619 9.748 6.752-.587zM414.423 262.58c4.046.511 9.469 1.086 15.281 1.585l-3.983 11.833 4.459-.284 4.703-13.987-24.327-1.132c0 .911.54 1.567 3.861 1.985M425.542 244.24c2.786.527 6.34 1.131 10.288 1.752l-4.018 11.932 4.407-.139 4.935-14.643-19.404-.976c0 .935.558 1.481 3.797 2.08M442.488 239.119c1.144-3.484 1.992-6.398 2.538-8.843l-11.787-.934c0 .952.506 1.556 3.728 2.206 1.004.203 2.084.406 3.228.62-.505 2.05-1.231 4.443-2.142 7.195zM275.321 293.238c-.076-1.963-.912-2.224-2.294-.958l-2.032 1.857.802 20.775 4.348-.331-.824-21.35zM276.308 318.69l-18.033-.882c0 .958.702 1.678 3.582 2.13 2.386.378 5.876.842 10.19 1.29l.4 10.375 4.349-.18-.494-12.733zM277.678 254.592c0 .864.54 1.648 3.78 2.188.459.07.999.164 1.568.245l-13.128 12.048-2.717 8.076 23.932-21.93-13.441-.621zM365.954 267.307l-52.969-1.248c0 1.005 1.045 1.812 4.088 2.038 13.928 1.01 27.456 1.748 43.481 2.322l-2.845 8.46 4.395-.11 3.855-11.462zM360.044 234.758c3.675.58 7.919 1.126 11.925 1.567a138 138 0 0 1-1.196 3.67l-1.283 3.82 4.378-.076.818-2.426c.941-2.786 1.696-5.22 2.288-7.38l-19.973-1.15c0 .97.947 1.65 3.037 1.98M460.447 333.682l.313-21.89-18.736-1.125c0 .912.633 1.573 3.89 2.113 2.694.447 6.265.958 10.451 1.405l-.284 19.724 4.366-.221zM423.776 294.723l5.127-15.223-14.115-.958c0 .912.505 1.428 3.722 2.13 1.51.331 3.315.685 5.289 1.051l-4.412 13.104 4.395-.11zM372.549 247.706l-38.808-1.19c0 1.12 1.446 1.829 4.088 2.038 7.844.61 18.016 1.248 29.454 1.858l-4.337 12.907 4.378-.058 5.231-15.555zM232.81 287.803l4.894-14.562-19.793-1.138c0 .802.738 1.318 2.689 1.643 2.903.482 7.408 1.133 12.006 1.696l-4.209 12.512zM354.086 302.579l6.625-19.694-30.633-1.265c-.023.876.86 1.66 3.077 1.91 6.143.702 14.847 1.538 22.249 2.16l-5.707 16.97 4.383-.081z"/><path fill="#010101" d="m767.895 210.379-13.366 39.667h-12.245c.302-4.035.453-7.63.447-10.834l-26.742-1.167c0-1 .958-2.055 4.999-2.171l21.645-.604c-.157-2.974-.488-5.534-1.005-7.729l-13.65-.598c0-1.045.877-1.893 4.918-2.346l7.496-.847c-2.456-5.58-6.933-7.688-13.859-7.688-10.37 0-17.639 5.557-21.285 15.828-4.367 12.291-2.422 20.071 7.983 30.661l9.4 9.586c20.867 21.28 24.153 37.095 16.001 59.408-8.18 22.37-25.628 34.412-58.124 34.412-13.807 0-29.297-1.562-40.457-4.22-3.251-.773-3.802-2.283-2.461-6.242l5.899-17.546-13.105-.697c0-.97.645-2.009 3.635-2.293l10.7-.674 8.117-24.13h13.006c-2.752 30.918 3.251 40.167 19.282 40.167 9.98 0 17.482-4.32 21.9-13.533l-18.144-1.092c0-.958.976-1.951 4.999-2.171l14.788-.796c1.487-4.331 2.172-8.332 1.876-12.216l-34.593-1.312c0-.97.999-2.067 4.999-2.171l28.897-.616c-1.138-4.285-3.571-8.53-7.56-13.046l-20.53-.906c0-1.022.947-1.968 4.965-2.247l11.803-.824-4.935-5.051-27.776-1.214c0-.981.958-2.055 4.999-2.166l18.968-.534c-6.079-6.346-10.625-12.431-13.522-18.736l-35.411-1.341c0-1.097.999-2.073 4.999-2.172l28.763-.615a39.5 39.5 0 0 1-2.102-12.048l-13.516-.505c0-1.04.865-1.898 4.9-2.374l8.727-1.045c.342-4.831 1.457-9.97 3.396-15.572 2.613-7.571 6.3-13.952 11.026-19.154l-16.774-1.005c0-1.051.976-1.951 4.999-2.171l15.955-.86c9.603-8.192 22.632-12.436 39.098-12.436 11.374 0 25.1 1.393 34.976 3.698 3.518.819 4.047 1.969 2.6 6.265m-117.636 82.671 4.483-13.319H598.48l-4.476 13.32c10.509 1.567 13.22 4.592 10.038 16.698l-22.231.627c-4.041.116-4.999 1.15-4.999 2.171l26.092 1.138q-.547 1.784-1.225 3.786l-2.816 8.372-14.881.801c-4.017.215-4.993 1.208-4.993 2.172l18.504 1.11-2.903 8.626-7.751.598c-4.047.314-4.993 1.191-4.993 2.172l11.513.912-1.509 4.477c-.569 1.684-1.522 2.444-3.025 2.659-2.363.343-4.953.424-7.682.424-6.044 0-11.502-1.708-13.946-5.476-4.105-6.329-3.594-17.65 12.048-63.14 13.917-40.556 19.688-51.663 26.951-58.85 4.018-3.978 9.18-6.202 15.497-6.202 8.163 0 13.191 4.053 14.706 16.454l-8.279.831c-4.047.406-4.924 1.29-4.924 2.334l13.54.621c.122 2.044.169 4.273.14 6.706l-21.732.61c-4.042.116-4.999 1.19-4.999 2.171l26.614 1.161c-.116 2.81-.313 5.841-.609 9.145h13.023l15.502-46.054c1.55-4.61.981-5.603-2.845-6.323-11.2-2.067-24.095-3.298-33.873-3.298-24.13 0-39.864 6.242-52.237 18.591-2.903 2.898-5.649 6.236-8.314 10.103l-15.258.842c-4.03.22-4.999 1.18-4.999 2.171l17.708.894c-2.055 3.327-4.076 7.014-6.084 11.136l-6.625.517c-4.047.308-4.993 1.115-4.993 2.166l9.969.79a224 224 0 0 0-4.262 9.951l-7.943.615c-4.046.314-4.999 1.214-4.999 2.172l11.485.912a401 401 0 0 0-5.017 13.777 539 539 0 0 0-2.38 7.05l-9.11.701c-4.053.314-4.999 1.185-4.999 2.172l12.849 1.016c-4.25 13.29-6.991 24.176-8.268 33.274l-12.175.703c-4.024.22-4.993 1.196-4.993 2.171l16.692 1.057c-.61 6.12-.488 11.374.348 15.967l-18.382.592c-4.046.128-4.999 1.167-4.999 2.171l24.322 1.156c1.039 3.478 2.549 6.555 4.529 9.342 6.015 8.482 18.945 13.534 37.036 13.534 14.382 0 28.2-1.58 38.802-4.639 2.038-.587 2.857-1.435 3.675-3.856l16.542-49.177c3.56-10.567 5.934-13.203 14.411-15.293m-91.318-76.668 4.482-13.326h-46.384l-4.483 13.326c10.37 2.252 13.215 6.246 9.331 19.99l-15.624.865c-4.024.22-4.994 1.156-4.994 2.172l19.393.98a50 50 0 0 1-.4 1.197l-7.258 21.546-8.082.633c-4.053.307-5 1.172-5 2.171l11.827.934-17.505 51.96c-.946 2.822-1.782 2.763-1.736-.087l1.498-104.65c.11-8.22-1.986-11.024-9.77-11.024h-42.31l-4.482 13.325c6.26 1.834 8.79 4.046 8.175 10.224l-7.409.575c-4.047.313-4.999 1.115-4.999 2.17l11.792.935c-.54 2.445-1.399 5.36-2.543 8.843l-15.752.871c-4.029.22-4.999 1.132-4.999 2.165l19.41.982-4.935 14.642-20.664.645c-4.047.128-4.993 1.08-4.993 2.171l24.327 1.127-4.709 13.992-10.392.656c-4.03.257-4.999 1.139-4.999 2.173l14.114.958-5.127 15.223-24.75.627c-4 .105-5 1.109-5 2.172l28.415 1.173-7.856 23.328-13.777.767c-4.03.22-4.808 1.167-4.808 2.17l17.244 1.052-.209.616c-5.585 16.576-9.928 20.82-20.565 23.508l-4.476 13.325h46.384l4.482-13.325c-11.583-2.514-13.783-7.188-7.704-25.204l28.943-85.912c.9-2.688 1.753-2.694 1.707.093l-.743 51.726-7.455.772c-4.047.418-4.993 1.312-4.993 2.299l12.396.656-.192 13.197-13.789.743c-4.024.21-4.999 1.04-4.999 2.166l18.736 1.126-.314 21.89-16.64.846c-4.029.221-4.999 1.098-4.999 2.166l21.581 1.01-.209 14.852c-.157 8.204 2.137 10.892 9.057 10.892H496.8l41.612-123.57c5.585-16.576 9.934-20.82 20.565-23.509M377.275 325.182l29.675-88.205c5.022-14.922 8.454-18.237 18.312-20.6l4.477-13.325H376.19l-4.483 13.325c5.743 2.125 8.019 4.697 6.271 13.429l-15.972.813c-4.03.227-4.999 1.144-4.999 2.172l19.972 1.149c-.586 2.16-1.347 4.599-2.281 7.38l-.819 2.427-35.138.598c-4.018.075-4.999 1.178-4.999 2.17l38.807 1.19-5.231 15.556-49.334.633c-4.006.052-4.999 1.149-4.999 2.17l52.975 1.248-3.862 11.461-27.015.68c-4 .1-4.993 1.08-4.993 2.166l30.627 1.266-6.625 19.694-32.508.633c-4.018.076-4.999 1.115-4.999 2.172l36.166 1.19-6.404 19.044-20.414.638c-4.047.128-4.999 1.057-4.999 2.172l24.089 1.115c-5.017 14.91-8.448 18.23-18.307 20.588l-4.476 13.325h53.549l4.482-13.325c-7.727-2.863-9.185-6.52-2.99-24.943m-67.437 12.29-4.36-71.786c-.145-2.426.325-3.43 2.014-4.98l34.291-31.405c10.416-9.54 14.138-11.577 20.698-12.924l4.489-13.338h-49.178l-4.482 13.326c9.162 1.752 10.207 9.15-1.15 19.548l-.226.21-20.072.685c-4.046.128-4.999 1.202-4.999 2.172l20.896.963-12.262 11.24-12.866 1.116c-4.047.4-4.947 1.26-4.947 2.276l13.435.62-23.932 21.93 13.516-40.172c5.017-14.921 7.879-16.518 17.726-18.887l5.063-15.043h-53.555l-4.476 13.325c5.498 2.038 7.814 4.476 6.467 12.349l-13.168.784c-4.023.226-4.999 1.103-4.999 2.17l17.273 1.121c-.522 2.02-1.201 4.303-2.055 6.91l-32.613.633c-4.017.075-4.999 1.132-4.999 2.17l36.277 1.191-8.547 25.414-16.181.818c-4.03.22-4.999.999-4.999 2.172l19.792 1.144-4.894 14.555-21.32.732c-4.047.122-4.993 1.15-4.993 2.166l24.949 1.155-4.146 12.326-12.495.69c-4.029.222-4.999 1.162-4.999 2.173l16.205.993-5.556 16.506-22.998.662c-4 .099-4.999 1.144-4.999 2.166l26.632 1.23-.307.924c-5.017 14.92-8.448 18.23-18.307 20.6l-4.482 13.325h57.253l4.483-13.325c-11.189-2.271-13.052-6.027-6.689-24.943l6.201-18.423 15.798-14.474c1.382-1.266 2.218-1.005 2.293.958l.825 21.349-12.907.975c-4.023.284-4.964 1.23-4.964 2.24l18.028.889.493 12.733-18.045.749c-4.029.22-4.999 1.126-4.999 2.172l23.195 1.143.163 4.152c.946 20.077 4.883 24.32 21.976 24.32 6.177 0 12.117-.248 16.28-.661l4.418-13.261c-7.269-1.004-9.382-3.373-9.946-12.564M599.717 506.33v10.131h-2.538v-10.13h-2.932v-2.52h8.402v2.52zm13.731 10.137v-7.466l-2.131 4.656h-2.241l-2.131-4.656v7.466h-2.537V503.81h2.537l3.251 6.758 3.252-6.758h2.537v12.657z"/></svg>