<svg xmlns="http://www.w3.org/2000/svg" viewBox="0 0 960 640"><path fill="#fff" d="M644.15 411.16v40.14c0 14.134-2.494 18.426-15.393 24.829L480 549.925l-148.763-73.796c-12.893-6.403-15.387-10.689-15.387-24.829v-40.14H119.575l85.9-255.351H315.85V90.075h328.3v65.734h196.275L754.519 411.16z"/><path fill="#010101" d="m479.999 532.154 138.463-68.141c8.201-4.042 10.016-7.638 10.016-16.094v-52.441h114.789l75.35-223.992H628.478v-65.735H331.52v65.735H216.731l-75.35 223.992H331.52v52.441c0 8.456 1.809 12.052 10.016 16.094z"/><path fill="#a2aaad" d="m479.999 520.41 129.364-63.664c6.907-3.399 8.572-6.415 8.572-13.775v-58.026h117.868l68.263-202.916H617.94v-65.728H342.07v65.728H224.202l-68.263 202.916h186.125v58.026c0 7.36 1.665 10.382 8.572 13.775z"/><path fill="#fff" d="M484.361 384.424c1.049 0 1.403.597 1.403 1.322v1.763h1.05c1.345 0 1.815.928 1.815 2.105v8.079c2.714-1.606 5.463-.423 6.444.447 2.389-1.496 5.846-.928 7.713 1.108 2.622-1.085 6.171-.43 8.195 2.296 2.732-.765 6.316.296 8.19 3.521 3.955-.621 7.307 1.902 8.345 5.057 4.547-.29 8.114 3.161 8.613 7.035a8.733 8.733 0 0 1 7.656 9.141c3.485 1.629 5.637 4.837 5.637 8.711 0 4.344-2.413 8.027-7.325 9.21-1.102.261-1.81.301-2.245.905 1.677.498 2.634 2.412 2.141 4.054-.232.748-3.33 9.482-3.33 9.482-.736 2.198-2.145 3.295-4.396 2.68-2.122-.58-2.836-.29-4.344 2.012-1.154 1.769-2.018 3.202-2.905 4.582-2.651 4.1-5.011 8.096-6.345 10.132-1.363 1.885-2.39 2.529-3.747 3.289-7.441 4.152-22.694 7.128-36.933 7.128s-29.491-2.976-36.938-7.128c-1.363-.76-2.384-1.41-3.747-3.289-1.334-2.036-3.694-6.032-6.339-10.132-.893-1.38-1.757-2.813-2.911-4.582-1.503-2.302-2.216-2.592-4.344-2.012-2.251.615-3.66-.482-4.397-2.68 0 0-3.103-8.728-3.323-9.482-.499-1.642.464-3.556 2.134-4.054-.429-.604-1.136-.644-2.244-.905-4.913-1.183-7.325-4.866-7.325-9.21 0-3.874 2.152-7.076 5.637-8.711a8.74 8.74 0 0 1 7.656-9.141c.499-3.874 4.071-7.325 8.612-7.035 1.039-3.149 4.391-5.678 8.352-5.057 1.862-3.225 5.452-4.286 8.189-3.521 2.03-2.726 5.568-3.375 8.195-2.296 1.862-2.036 5.324-2.604 7.708-1.108.98-.87 3.729-2.053 6.444-.447v-8.079c0-1.177.469-2.105 1.815-2.105h1.05v-1.763c0-.731.354-1.322 1.403-1.322z"/><path fill="#a2aaad" fill-rule="evenodd" d="M541.28 427.713c.214-.65.336-1.34.336-2.059a6.556 6.556 0 0 0-7.325-6.508c.046-.313.07-.626.07-.956a6.18 6.18 0 0 0-7.86-5.951v-.099a5.71 5.71 0 0 0-5.712-5.712c-.858 0-1.664.185-2.39.516a5.495 5.495 0 0 0-5.422-4.576 5.54 5.54 0 0 0-2.755.736 5.24 5.24 0 0 0-4.854-3.282 5.2 5.2 0 0 0-3.231 1.113 4.706 4.706 0 0 0-7.534-1.032 4.23 4.23 0 0 0-3.468-1.798 4.25 4.25 0 0 0-4.071 3.056c-1.955-.4-2.535-1.229-2.535-2.54 0-.516.099-.568.603-.568h.383c.98 0 1.56-.737 1.56-1.41v-6.31c0-1.096-.435-1.948-1.676-1.948h-.968v-1.34c0-.679-.325-1.23-1.294-1.23h-6.27c-.974 0-1.298.551-1.298 1.23v1.34h-.963c-1.241 0-1.676.858-1.676 1.948v6.31c0 .679.58 1.41 1.554 1.41h.389c.504 0 .597.058.597.568 0 1.317-.58 2.14-2.534 2.54a4.25 4.25 0 0 0-4.072-3.056 4.21 4.21 0 0 0-3.462 1.798 4.71 4.71 0 0 0-7.54 1.032 5.2 5.2 0 0 0-3.225-1.113 5.25 5.25 0 0 0-4.86 3.282 5.47 5.47 0 0 0-2.755-.736c-2.72 0-4.976 1.978-5.422 4.576a5.66 5.66 0 0 0-2.39-.516 5.72 5.72 0 0 0-5.72 5.712v.099a6.18 6.18 0 0 0-7.783 6.907 6.555 6.555 0 0 0-6.994 8.567c-3.607.33-6.443 3.364-6.443 7.058a7.1 7.1 0 0 0 5.823 6.977c1.862.336 3.59.47 4.292 2.337.186.505.429 1.108.702 1.874l-1.334.556c-1.914.801-2.465 2.431-1.856 3.979l1.983 5.516c.743 2.238 1.903 3.566 4.176 2.94 2.158-.591 2.912-.783 3.648.603 2.193 4.35 3.88 6.595 6.983 6.56-2.157 1.398-2.076 1.809-.238 4.605l3.695 5.533c1.253 1.937 1.838 2.459 3.184 3.288 7.209 4.164 22.224 7.221 36.666 7.221s29.462-3.057 36.672-7.221c1.345-.829 1.925-1.357 3.184-3.288l3.688-5.533c1.85-2.79 1.92-3.207-.238-4.605 3.103.035 4.79-2.21 6.983-6.56.743-1.38 1.497-1.189 3.648-.603 2.28.626 3.44-.702 4.182-2.94l1.978-5.516c.603-1.543.064-3.178-1.856-3.979l-1.328-.556c.272-.766.51-1.369.7-1.874.703-1.861 2.426-2.001 4.293-2.337a7.094 7.094 0 0 0 5.823-6.977c0-3.694-2.83-6.728-6.443-7.058Z"/><path fill="#010101" d="M477.094 395.681v1.525c0 .54.435.975.974.975h3.863a.977.977 0 0 0 .974-.975v-1.525h1.525c.54 0 .975-.435.975-.975v-3.862a.97.97 0 0 0-.975-.969h-1.525v-1.531c0-.539-.302-.974-.974-.974h-3.863c-.713 0-.974.435-.974.974v1.531h-1.526a.97.97 0 0 0-.974.969v3.862c0 .54.435.975.974.975zM444.377 475.288c10.381-5.788 26.98-7.412 35.628-7.418 8.641 0 25.246 1.624 35.622 7.418 1.815 1.009 1.896 1.003 3.195-.777l2.912-4.35q1.391-2.169-.29-3.15c-3.886-2.261-9.558-4.483-15.201-5.979-8.155-2.158-16.953-3.248-26.238-3.248s-18.09 1.096-26.244 3.248c-5.65 1.496-11.316 3.718-15.201 5.979q-1.683.981-.29 3.15l2.905 4.35c1.305 1.774 1.386 1.786 3.196.777"/><path fill="#010101" d="M478.294 429.597a2.576 2.576 0 0 0-2.575 2.575v2.39h-1.717a2.576 2.576 0 0 0-2.575 2.575v3.462c0 1.34 1.015 2.564 2.326 2.564 3.288 0 3.549 1.572 3.549 3.323 0 1.752-1.664 3.318-3.549 3.318a3.77 3.77 0 0 1-2.227-.72c-.157-.11-.285-.081-.401.058a3.73 3.73 0 0 1-5.086.528c-.116-.087-.261-.069-.377.07a3.77 3.77 0 0 1-1.989 1.177c-1.845.412-3.817-.777-4.194-2.465-.382-1.705-.174-3.364 2.744-4.019 1.27-.284 1.989-1.705 1.699-3.004l-.76-3.381a2.57 2.57 0 0 0-3.074-1.943l-1.71.377-.522-2.332a2.57 2.57 0 0 0-3.074-1.943l-3.382.754a2.575 2.575 0 0 0-1.942 3.08l.521 2.331-1.676.377a2.566 2.566 0 0 0-1.948 3.074l.759 3.376c.29 1.31 1.549 2.279 2.831 1.989 3.207-.719 3.816.76 4.193 2.459.377 1.659-.899 3.607-2.743 4.019a3.61 3.61 0 0 1-3.242-.858c-.157-.145-.348-.128-.441.041-.453.823-1.201 1.49-2.164 1.763a3.5 3.5 0 0 1-2.43-.18c-.249-.11-.423-.023-.481.238-.278 1.189-1.177 2.146-2.297 2.592-1.6.638-3.306-.377-4.019-1.931-.823-1.798-1.108-3.016 1.839-4.263 1.131-.476 1.583-1.937 1.183-3.19l-1.241-3.219c-.43-1.339-1.758-2.035-2.964-1.554l-2.216.812-.649-1.897c-.464-1.531-1.566-2.082-3.242-1.409l-3.579 1.334c-1.038.412-1.566 1.462-1.044 2.743.383.934.667 1.63.87 2.129l-2.134.876c-1.328.516-1.867 1.786-1.351 3.108l1.438 3.619c.516 1.328 1.844 1.868 3.347 1.369 2.331-.771 2.876-.226 4.454 2.621 1.687 3.254 4.495 4.901 7.974 4.901s6.374-1.914 7.882-4.727a9.05 9.05 0 0 0 5.736.586 9.03 9.03 0 0 0 5.591-3.857 9.07 9.07 0 0 0 6.699 1.097 8.97 8.97 0 0 0 4.216-2.233 9.08 9.08 0 0 0 10.886-1.23 9.06 9.06 0 0 0 6.258 2.5 9 9 0 0 0 4.623-1.27 9 9 0 0 0 4.216 2.233 9.06 9.06 0 0 0 6.705-1.097 9.04 9.04 0 0 0 5.585 3.857 9 9 0 0 0 5.736-.586c1.508 2.813 4.483 4.727 7.887 4.727s6.496-1.989 7.975-4.901c1.578-2.847 2.146-3.456 4.448-2.621 1.45.522 2.831-.041 3.347-1.369l1.438-3.619c.516-1.322-.023-2.592-1.345-3.108l-2.135-.876c.203-.505.487-1.195.87-2.129.522-1.276 0-2.331-1.038-2.743l-3.578-1.334c-1.676-.679-2.784-.122-3.248 1.409l-.65 1.897-2.215-.812c-1.201-.481-2.529.215-2.964 1.554l-1.235 3.219c-.406 1.253.052 2.709 1.183 3.19 2.946 1.253 2.662 2.471 1.833 4.263-.714 1.554-2.419 2.569-4.02 1.931-1.119-.446-2.018-1.403-2.296-2.592-.058-.261-.232-.343-.476-.238a3.5 3.5 0 0 1-2.43.18c-.963-.273-1.711-.934-2.163-1.763-.087-.169-.279-.186-.435-.041a3.62 3.62 0 0 1-3.248.858c-1.844-.412-3.109-2.36-2.743-4.019.382-1.699.986-3.178 4.193-2.459 1.282.29 2.534-.684 2.836-1.989l.76-3.376a2.577 2.577 0 0 0-1.949-3.074l-1.676-.377.522-2.331a2.585 2.585 0 0 0-1.949-3.08l-3.381-.754a2.57 2.57 0 0 0-3.074 1.943l-.522 2.332-1.705-.377a2.57 2.57 0 0 0-3.08 1.943l-.76 3.381c-.29 1.299.43 2.72 1.7 3.004 2.923.655 3.126 2.314 2.743 4.019-.377 1.688-2.355 2.877-4.199 2.465a3.7 3.7 0 0 1-1.989-1.177c-.116-.139-.261-.157-.377-.07a3.7 3.7 0 0 1-2.262.766 3.74 3.74 0 0 1-2.83-1.294c-.116-.139-.244-.168-.395-.058a3.8 3.8 0 0 1-2.227.72c-1.891 0-3.555-1.624-3.555-3.318s.261-3.323 3.555-3.323c1.311 0 2.32-1.224 2.32-2.564v-3.462a2.57 2.57 0 0 0-2.569-2.575h-1.723v-2.39a2.573 2.573 0 0 0-2.575-2.575zM479.999 483.454c14.755 0 27.45-2.714 34.799-5.916-3.405-1.844-6.809-3.178-11.762-4.263-6.136.917-14.998 2.123-23.043 2.123s-16.9-1.206-23.042-2.123c-4.953 1.091-8.357 2.425-11.762 4.263 7.348 3.196 20.044 5.916 34.799 5.916M499.249 412.627a2.36 2.36 0 0 0-2.384-2.348 2.354 2.354 0 0 0-2.349 2.383c0 1.305 1.073 2.355 2.384 2.349a2.37 2.37 0 0 0 2.349-2.384M488.043 406.23a2.01 2.01 0 0 0-2.012-2.006 2.004 2.004 0 0 0-2.007 2.006c0 1.108.899 2.013 2.007 2.013s2.012-.905 2.012-2.013M493.292 409.2a2.009 2.009 0 1 0-4.019 0c0 1.108.899 2.007 2.006 2.007a2.013 2.013 0 0 0 2.013-2.007M506.243 417.801c0-1.647-1.34-2.987-2.987-2.987s-2.987 1.34-2.987 2.987 1.34 2.987 2.987 2.987 2.987-1.34 2.987-2.987M513.301 425.178a3.564 3.564 0 0 0-3.567-3.566c-1.971 0-3.566 1.594-3.566 3.566s1.595 3.567 3.566 3.567a3.564 3.564 0 0 0 3.567-3.567"/><path fill="#010101" d="M520.552 434.098c0-2.233-1.81-4.036-4.037-4.036s-4.042 1.809-4.042 4.036a4.04 4.04 0 0 0 8.079 0M507.762 404.276a2.88 2.88 0 0 0-2.958-2.79 2.877 2.877 0 0 0-2.79 2.958 2.88 2.88 0 0 0 2.958 2.79 2.88 2.88 0 0 0 2.79-2.958M515.796 407.275a3.247 3.247 0 0 0-3.352-3.155 3.25 3.25 0 0 0-3.155 3.346 3.253 3.253 0 0 0 3.346 3.161 3.26 3.26 0 0 0 3.16-3.352M523.828 411.665a3.549 3.549 0 1 0-7.092.204 3.549 3.549 0 0 0 7.092-.204M493.026 402.159a2.18 2.18 0 0 0-2.204-2.175c-1.207 0-2.181.998-2.175 2.204a2.19 2.19 0 0 0 2.204 2.175 2.194 2.194 0 0 0 2.175-2.204M500.135 402.559a2.513 2.513 0 0 0-2.528-2.5 2.515 2.515 0 1 0 .029 5.028 2.505 2.505 0 0 0 2.499-2.528M531.652 417.523a3.84 3.84 0 1 0-3.816 3.862 3.835 3.835 0 0 0 3.816-3.862M538.908 424.859a4.134 4.134 0 1 0-8.27.052 4.133 4.133 0 0 0 4.158 4.112 4.14 4.14 0 0 0 4.112-4.164M544.984 433.849a4.428 4.428 0 1 0-8.856.052 4.428 4.428 0 0 0 8.856-.052M500.315 434.26c.365-2.969 1.491-4.233 3.839-3.81.221.041.377-.18.314-.389-1.705-5.741-10.069-16.738-20.363-21.43-.661-.301-1.056-.516-1.166-.388-.11.133.197.446.696.887 9.715 8.537 11.698 21.83 11.913 26.024.017.284.382.377.545.139 0 0 1.125-2.053 4.216-1.033"/><path fill="#010101" d="M492.782 406.491c14.841 4.733 29.857 19.476 32.699 34.433.046.261.429.314.522.07.307-.841.435-1.38.789-2.001.539-.94 1.856-1.282 3.039-.887 1.774.603 4.35 1.6 5.666 2.134.255.11.516-.081.418-.342-7.053-18.368-27.224-31.794-43.046-34.016-.829-.116-1.317-.122-1.334.041-.029.18.238.267 1.241.574M459.688 434.26c3.097-1.02 4.217 1.033 4.217 1.033.156.238.527.145.545-.139.214-4.194 2.198-17.487 11.912-26.024.505-.441.812-.754.696-.887-.11-.128-.504.087-1.165.388-10.295 4.692-18.658 15.689-20.363 21.43-.064.209.092.43.313.389 2.349-.423 3.474.835 3.839 3.81M467.216 406.491c1.004-.307 1.271-.394 1.242-.574-.024-.162-.505-.156-1.334-.04-15.822 2.221-35.988 15.647-43.046 34.015-.104.261.157.453.418.342 1.316-.533 3.891-1.537 5.666-2.134 1.183-.394 2.5-.052 3.039.887.354.621.481 1.16.789 2.001.093.244.475.198.522-.069 2.842-14.958 17.857-29.701 32.699-34.433M484.557 423.409c0-2.517-2.035-4.558-4.558-4.558s-4.553 2.041-4.553 4.558a4.555 4.555 0 1 0 9.111 0M482.133 409.321a2.176 2.176 0 0 0-4.35 0 2.176 2.176 0 0 0 4.35 0M482.644 415.174c0-1.479-1.2-2.68-2.685-2.68s-2.68 1.201-2.68 2.68c0 1.478 1.201 2.685 2.68 2.685s2.685-1.201 2.685-2.685M483.055 403.052a3.096 3.096 0 1 0-6.194 0 3.096 3.096 0 1 0 6.194 0M494.898 445.315c0-1.595-1.293-2.889-2.888-2.889s-2.882 1.294-2.882 2.889 1.287 2.888 2.882 2.888 2.888-1.293 2.888-2.888M518.933 449.763c0-1.595-1.294-2.888-2.889-2.888s-2.882 1.293-2.882 2.888 1.293 2.888 2.882 2.888 2.889-1.293 2.889-2.888M465.099 445.315c0 1.595 1.294 2.888 2.889 2.888s2.882-1.293 2.882-2.888-1.293-2.889-2.882-2.889a2.893 2.893 0 0 0-2.889 2.889M441.065 449.763c0 1.595 1.293 2.888 2.888 2.888s2.883-1.293 2.883-2.888-1.293-2.888-2.883-2.888a2.89 2.89 0 0 0-2.888 2.888M455.025 407.234a2.876 2.876 0 0 0 .169-5.748 2.876 2.876 0 0 0-.169 5.748M447.365 410.627a3.254 3.254 0 1 0 .191-6.508 3.26 3.26 0 0 0-3.352 3.155 3.256 3.256 0 0 0 3.161 3.353"/><path fill="#010101" d="M439.616 415.313a3.54 3.54 0 0 0 3.648-3.445 3.537 3.537 0 0 0-3.445-3.648 3.546 3.546 0 0 0-3.648 3.445 3.546 3.546 0 0 0 3.445 3.648M469.147 404.363a2.2 2.2 0 0 0 2.204-2.175 2.2 2.2 0 0 0-2.175-2.204 2.2 2.2 0 0 0-2.204 2.175 2.19 2.19 0 0 0 2.175 2.204M462.362 405.088a2.51 2.51 0 0 0 2.529-2.5 2.514 2.514 0 1 0-5.028-.029 2.51 2.51 0 0 0 2.499 2.529M432.168 421.385a3.836 3.836 0 0 0 3.862-3.816 3.836 3.836 0 0 0-3.816-3.863 3.84 3.84 0 0 0-3.863 3.817 3.83 3.83 0 0 0 3.817 3.862M425.203 429.018a4.13 4.13 0 0 0 4.158-4.112 4.125 4.125 0 0 0-4.106-4.159 4.133 4.133 0 0 0-4.164 4.106 4.14 4.14 0 0 0 4.112 4.165M419.421 438.303a4.42 4.42 0 0 0 4.454-4.402 4.425 4.425 0 0 0-4.402-4.454 4.428 4.428 0 0 0-.052 8.856M463.104 415.005a2.366 2.366 0 1 0 .035-4.732 2.365 2.365 0 0 0-2.384 2.349 2.36 2.36 0 0 0 2.349 2.383M473.968 408.237a2.009 2.009 0 1 0 0-4.019 2.01 2.01 0 0 0-2.012 2.006c0 1.108.905 2.013 2.012 2.013M468.713 411.212a2.01 2.01 0 0 0 2.013-2.006 2.02 2.02 0 0 0-2.013-2.013 2.008 2.008 0 1 0 0 4.019M456.742 420.788a2.987 2.987 0 1 0 0-5.973 2.987 2.987 0 0 0 0 5.973M450.264 428.745c1.972 0 3.567-1.595 3.567-3.567s-1.595-3.566-3.567-3.566-3.567 1.594-3.567 3.566 1.595 3.567 3.567 3.567M443.49 438.135c2.233 0 4.037-1.81 4.037-4.037s-1.81-4.042-4.037-4.042a4.04 4.04 0 0 0 0 8.079"/><path fill="#fff" d="M482.18 392.775a2.18 2.18 0 0 1-2.18 2.181c-1.207 0-2.181-.975-2.181-2.181s.974-2.181 2.181-2.181c1.206 0 2.18.975 2.18 2.181M479.964 460.162a2.836 2.836 0 1 1 0 5.673 2.836 2.836 0 0 1 0-5.673M461.017 464.483a2.837 2.837 0 0 1 5.626-.748 2.837 2.837 0 0 1-5.626.748M446.065 468.908c-.505-1.398.203-2.9 1.583-3.358s2.906.302 3.41 1.699c.511 1.398-.203 2.9-1.583 3.358s-2.906-.301-3.41-1.699M493.356 463.735a2.826 2.826 0 0 1 3.19-2.436 2.83 2.83 0 0 1 2.436 3.184 2.827 2.827 0 0 1-3.19 2.436 2.833 2.833 0 0 1-2.436-3.184M508.94 467.249c.504-1.397 2.03-2.157 3.41-1.699 1.38.464 2.094 1.96 1.589 3.358s-2.03 2.158-3.416 1.699c-1.38-.458-2.088-1.96-1.583-3.358M479.959 436.186c1.503 0 2.726 1.224 2.726 2.726s-1.223 2.726-2.726 2.726-2.725-1.224-2.725-2.726 1.223-2.726 2.725-2.726M504.897 438.947a2.73 2.73 0 0 1 2.726 2.726 2.73 2.73 0 0 1-2.726 2.725 2.73 2.73 0 0 1-2.725-2.725 2.73 2.73 0 0 1 2.725-2.726M529.542 446.579c1.502 0 2.725 1.224 2.725 2.726s-1.223 2.726-2.725 2.726-2.726-1.224-2.726-2.726 1.223-2.726 2.726-2.726M457.825 441.673a2.73 2.73 0 0 1-2.725 2.725 2.73 2.73 0 0 1-2.726-2.725 2.73 2.73 0 0 1 2.726-2.726 2.73 2.73 0 0 1 2.725 2.726M433.184 449.305a2.73 2.73 0 0 1-2.726 2.726c-1.502 0-2.725-1.224-2.725-2.726s1.223-2.726 2.725-2.726a2.73 2.73 0 0 1 2.726 2.726"/><path fill="#010101" d="M400.508 144.888c-3.468 0-5.313.719-6.722 1.821-2.488 1.972-3.758 5.423-3.758 10.857s1.27 8.886 3.758 10.857c1.409 1.097 3.254 1.816 6.722 1.816s5.313-.719 6.722-1.816c2.482-1.971 3.758-5.422 3.758-10.857s-1.27-8.885-3.758-10.857c-1.409-1.102-3.26-1.821-6.722-1.821m0 4.199c1.148 0 1.844.429 2.285 1.09.592.911.806 2.164.806 7.389s-.214 6.484-.806 7.389c-.441.656-1.137 1.091-2.285 1.091s-1.85-.43-2.291-1.091c-.591-.91-.806-2.163-.806-7.389s.215-6.484.806-7.389c.441-.655 1.137-1.09 2.291-1.09m-13.003 9.071v10.37c0 .91-.336 1.282-1.276 1.282h-19.91v-3.834c2.372 0 2.841-.719 2.841-2.813v-16.187c0-2.523-.452-3.149-2.841-3.149v-3.834h13.925v3.834c-3.034 0-3.59 1.02-3.59 3.236v17.788c0 .557.185.789.8.789 3.845 0 5.237-1.363 6.774-7.476h3.277zm80.947 5.991-5.98-22.346c-.359-1.334-.864-1.81-2.354-1.81h-12.957v3.596c2.163.133 2.703 1.038 2.094 3.346l-4.362 16.489c-.481 1.827-1.096 2.424-2.749 2.511v3.88h11.687v-3.88c-2.859 0-3.55-.829-3.115-2.569l.221-.893c.116-.458.296-.661.87-.661h7.568c.575 0 .754.203.87.661l.244.951c.412 1.676-.244 2.517-2.691 2.517v3.88h13.015v-3.88c-1.421-.064-2.03-.551-2.349-1.78m-10.231-6.276h-5.289c-.656 0-.824-.214-.656-.87l2.709-10.967c.11-.435.301-.626.591-.626s.487.191.598.626l2.708 10.967c.162.662 0 .87-.655.87m71.539-8.16c-.62.742-.893 2.111-.893 4.941 0 .546.203.743.731.743h4.657c.534 0 .708-.203.731-.743.099-2.395-.22-4.199-.829-4.941-.424-.516-1.009-.853-2.152-.853s-1.81.337-2.239.853m3.237 16.466c2.447 0 4.083-1.305 5.167-4.153h3.091v4.158c0 1.926-.504 2.541-2.14 3.08-1.821.603-4.094.963-6.838.963-3.682 0-6.055-.766-7.731-2.343-2.076-1.961-3.01-5.133-3.01-10.202s1.027-8.102 3.138-10.266c1.519-1.571 3.712-2.54 7.673-2.54 3.451 0 5.788.928 7.25 2.494 1.728 1.862 2.331 4.576 2.331 8.908 0 2.477-.383 2.958-2.239 2.958H529.61c-.527 0-.73.203-.73.743 0 4.703 1.403 6.2 4.135 6.2m31.574-16.466c-.621.742-.894 2.111-.894 4.941 0 .546.203.743.731.743h4.657c.534 0 .708-.203.731-.743.099-2.395-.22-4.199-.829-4.941-.424-.516-1.009-.853-2.152-.853s-1.809.337-2.239.853m3.237 16.466c2.447 0 4.083-1.305 5.167-4.153h3.091v4.158c0 1.926-.504 2.541-2.14 3.08-1.821.603-4.094.963-6.838.963-3.682 0-6.054-.766-7.731-2.343-2.076-1.961-3.01-5.133-3.01-10.202s1.027-8.102 3.138-10.266c1.519-1.571 3.712-2.54 7.673-2.54 3.451 0 5.788.928 7.25 2.494 1.728 1.862 2.331 4.576 2.331 8.908 0 2.477-.383 2.958-2.239 2.958H564.42c-.527 0-.73.203-.73.743 0 4.703 1.409 6.2 4.135 6.2m-15.219-2.454c0 1.543.685 2.239 2.222 2.239v3.834h-6.16c-2.192 0-3.137-1.021-3.137-3.15v-20.577c0-1.537-.685-2.239-2.222-2.239v-3.834h9.297zm-121.574-10.944h-2.679c-1.178-2.72-3.364-4.025-5.858-4.025-1.891 0-2.645.876-2.645 2.042 0 1.316.76 2.099 2.564 2.731l3.282 1.143c4.878 1.705 6.711 3.839 6.711 7.841 0 5.237-3.492 7.708-9.825 7.708-2.256 0-4.663-.296-6.27-.679-2.14-.516-2.499-1.067-2.499-2.58v-4.936h2.876c1.363 2.72 3.37 4.28 6.293 4.28 2.123 0 3.132-.98 3.132-2.407 0-1.426-.916-2.221-2.923-2.923l-3.196-1.108c-4.442-1.542-6.246-3.729-6.246-7.748 0-4.512 2.836-7.25 9.198-7.25 1.955 0 3.857.25 5.58.65 2.122.487 2.499 1.108 2.499 2.882v4.373zm166.087 0h-2.679c-1.178-2.72-3.364-4.025-5.852-4.025-1.891 0-2.651.876-2.651 2.042 0 1.316.766 2.099 2.564 2.731l3.283 1.143c4.877 1.705 6.716 3.839 6.716 7.841 0 5.237-3.498 7.708-9.831 7.708-2.256 0-4.657-.296-6.269-.679-2.135-.516-2.494-1.067-2.494-2.58v-4.936h2.876c1.363 2.72 3.376 4.28 6.293 4.28 2.129 0 3.132-.98 3.132-2.407 0-1.426-.916-2.221-2.923-2.923l-3.196-1.108c-4.442-1.542-6.246-3.729-6.246-7.748 0-4.512 2.836-7.25 9.204-7.25 1.955 0 3.851.25 5.574.65 2.122.487 2.499 1.108 2.499 2.882zm-100.851 13.183v3.834h-6.328c-2.192 0-3.138-1.021-3.138-3.15 0-4.204.122-8.896.122-13.641 0-2.169-.69-3.033-2.076-3.033-1.804 0-2.964 1.363-2.964 4.216v9.541c0 1.543.685 2.239 2.222 2.239v3.833h-11.519v-3.833c1.537 0 2.222-.696 2.222-2.239v-12.348c0-1.542-.685-2.238-2.222-2.238v-3.834h5.104c2.221 0 3.068.708 3.555 2.691.093.389.348.424.569.076 1.351-2.094 3.224-3.196 6.229-3.196 4.222 0 6.124 2.273 6.124 7.006s-.122 7.644-.122 11.849c0 1.543.685 2.239 2.222 2.239m12.034-6.038c.916 0 1.444-.273 1.873-.713.76-.783 1.05-1.972 1.05-4.716s-.29-3.938-1.05-4.721c-.429-.44-.957-.713-1.873-.713s-1.444.273-1.873.713c-.76.783-1.05 1.978-1.05 4.721s.29 3.933 1.05 4.716c.429.44.957.713 1.873.713m.133 16.1c3.503 0 4.507-.243 5.093-.719.423-.348.62-.818.62-1.363 0-1.05-.69-1.473-2.21-1.473-2.673 0-5.289.069-7.789.069-1.519 0-2.215.575-2.215 1.555 0 .516.203.957.644 1.27.603.441 1.397.649 5.179.649h.684zm7.94-26.598c1.363 1.334 2.077 3.219 2.077 5.655 0 5.33-3.509 9.042-10.37 9.042-1.45 0-1.647-.07-2.778-.07-1.021 0-1.45.441-1.45 1.01 0 .736.481 1.281 2.093 1.281 2.5 0 4.35-.121 7.03-.121 5.266 0 7.272 2.186 7.272 5.857 0 2.111-.707 3.758-2.07 4.93-1.694 1.45-3.897 2.14-9.993 2.14h-1.462c-5.179 0-6.93-.493-8.067-1.369-.899-.69-1.316-1.647-1.316-2.83 0-1.63.956-2.929 2.905-3.456.308-.087.261-.331 0-.493-1.415-.87-2.105-2.094-2.105-3.776 0-2.047 1.177-3.683 3.55-4.269.33-.087.336-.336.081-.527-2.39-1.769-3.503-4.24-3.503-7.929 0-6.147 3.427-9.633 10.26-9.633 2.464 0 4.018.429 7.237.429h4.843v3.59h-4.03c-.4 0-.505.261-.21.551"/><path fill="#fff" d="M658.998 255.025c0 .777.435 1.537 3.683 2.019 1.578.232 3.445.487 5.411.736.18 3.416.777 6.699 1.763 9.894l4.762-.104a39.1 39.1 0 0 1-2.1-12.046l-13.519-.505zM619.361 216.202c7.047.678 11.391 5.138 12.72 16.784l4.308-.435c-1.508-12.4-6.536-16.454-14.702-16.454q-1.192-.001-2.332.111M652.848 310.164h-4.356l-8.212 24.405 4.454-.279zM685.588 304.416c2.912.4 7.987.893 13.259 1.334 3.085 3.729 5.127 7.244 6.234 10.781l4.779-.104c-1.136-4.286-3.567-8.531-7.557-13.049l-20.537-.905c0 .887.557 1.496 3.817 1.943M691.232 212.85c9.273-7.911 21.743-12.128 37.414-12.412a105 105 0 0 0-2.674-.029c-16.628 0-29.735 4.338-39.363 12.69l4.623-.244zM726.546 216.063c-.731 0-1.445.034-2.141.087 5.852.446 9.698 2.783 11.844 8.067l4.164-.47c-2.459-5.579-6.937-7.69-13.862-7.69M640.861 270.36c0 .818.603 1.514 3.874 1.92 5.939.736 17.133 1.711 28.036 2.523 2.72 5.301 6.589 10.486 11.6 15.792l5.422-.156c-6.084-6.345-10.625-12.435-13.525-18.733l-35.413-1.346zM665.829 293.141c0 .899.644 1.543 3.904 1.966 5.237.667 13.583 1.363 20.815 1.839l2.755 2.83 5.237-.371-4.93-5.052-27.775-1.212zM414.589 322.006l7.853-23.326-28.413-1.172c0 .94.609 1.63 3.874 2.013 4.669.551 11.954 1.258 19.261 1.879l-7.023 20.856 4.442-.244zM346.344 325.602l6.402-19.046-36.167-1.183c0 .939.969 1.844 4.089 2.128 6.206.563 16.709 1.265 26.789 1.827l-5.521 16.413 4.402-.139zM503.656 268.063c.963.203 2.018.423 3.138.65l-14.14 41.978-.11 8.033c-.047 2.848.788 2.906 1.739.087l17.498-51.96-11.825-.934c0 .882.493 1.462 3.706 2.152M505.147 241.46c2.134.377 6.287.962 10.335 1.438l-6.925 20.56 4.477-.342 7.256-21.552c.139-.406.266-.8.394-1.195l-19.394-.98c0 .864.615 1.496 3.851 2.076M567.396 229.141c2.668-3.863 5.417-7.203 8.323-10.103 12.006-11.988 27.207-18.2 50.156-18.554-.765-.017-1.548-.034-2.285-.034-24.133 0-39.861 6.24-52.238 18.594-2.964 2.963-5.771 6.374-8.485 10.352l4.529-.249zM517.517 236.6l4.402-.244c3.886-13.745 1.05-17.741-9.326-19.992l4.484-13.327h-4.356l-5.063 15.038c11.553 2.512 13.734 5.469 9.859 18.519M674.118 217.965c1.85.313 4.222.673 6.797 1.009-3.869 4.796-6.983 10.468-9.256 17.057-1.996 5.782-3.144 11.095-3.504 16.106l4.466-.534c.337-4.825 1.456-9.969 3.393-15.572 2.616-7.569 6.31-13.948 11.031-19.151l-16.767-1.003c0 1.003.603 1.543 3.84 2.088M546.372 275.081a374 374 0 0 1 5.022-13.775l-11.483-.91c0 .736.499 1.345 2.041 1.786 1.183.342 2.668.69 4.35 1.015a419 419 0 0 0-4.292 11.884 432 432 0 0 0-2.488 7.395l4.466-.348a483 483 0 0 1 2.384-7.047M557.112 247.66l-9.976-.789c0 .858.609 1.357 2.419 1.856.719.197 1.543.4 2.447.603a232 232 0 0 0-3.659 8.636l4.506-.348c1.427-3.55 2.842-6.873 4.263-9.953M564.849 233.044l-17.707-.893c0 .824.835 1.583 2.396 1.856 2.522.435 6.002.916 9.598 1.299-1.647 2.813-3.271 5.887-4.889 9.228l4.518-.348c2.013-4.13 4.03-7.813 6.09-11.136M220.449 324.535l5.557-16.512-16.199-.992c0 .841.406 1.648 3.648 2.181 2.111.342 4.663.731 7.424 1.09l-4.832 14.355 4.402-.128zM542.723 286.019l-12.841-1.015c0 .887.493 1.612 3.723 2.314 1.108.244 2.523.516 4.095.806-3.903 12.464-6.426 22.759-7.632 31.423l4.39-.255c1.282-9.088 4.019-19.98 8.27-33.273M719.511 240.015c4.367.511 11.507 1.137 18.849 1.601a165 165 0 0 1-.423 8.421h4.361c.296-4.03.453-7.626.447-10.828l-26.743-1.171c0 1.119.83 1.658 3.509 1.972M594.127 279.697l-5.057 15.045c11.194 1.803 13.821 3.468 10.619 15.102l4.35-.116c3.178-12.115.47-15.137-10.039-16.703l4.483-13.328zM741.642 227.54l-13.652-.603c0 .841.562 1.444 3.81 1.966 1.444.232 3.55.545 5.928.87.272 1.688.464 3.55.556 5.614l4.356-.121c-.156-2.97-.481-5.533-1.003-7.731M533.983 323.225l-16.697-1.062c0 .87.574 1.566 3.804 2.164 1.943.359 4.988.835 8.329 1.299-.365 5.167-.157 9.691.586 13.704l4.332-.139c-.841-4.593-.963-9.842-.354-15.966M636.872 243.043a98 98 0 0 0-.139-6.711l-13.543-.614c0 .899.783 1.513 3.097 1.873a138 138 0 0 0 6.183.783c.052 1.496.052 3.114.023 4.796l4.379-.121zM710.557 320.522l-34.59-1.317c0 .841.615 1.52 3.892 1.926 6.484.8 17.307 1.832 26.238 2.505-.069 2.952-.713 6.032-1.856 9.344l4.443-.244c1.49-4.332 2.169-8.334 1.873-12.214M601.684 317.442c.452-1.34.858-2.592 1.229-3.787l-26.093-1.137c0 .888.702 1.404 2.755 1.676 4.756.621 11.72 1.334 18.223 1.845-.157.464-.308.928-.47 1.409l-2.9 8.613 4.443-.244 2.818-8.369zM682.875 350.257c.737.047 1.485.07 2.262.07 9.981 0 17.481-4.315 21.9-13.531l-18.147-1.09c0 .87.643 1.716 3.903 2.157 2.615.348 5.602.714 8.763 1.067-4.17 7.146-10.521 10.8-18.681 11.322M597.496 329.894l-18.501-1.114c0 .847.673 1.398 2.911 1.769a245 245 0 0 0 10.515 1.497l-2.296 6.82 4.477-.348 2.9-8.624zM636.146 256.127c.29-3.294.493-6.327.609-9.14l-26.615-1.16c0 .864.604 1.49 3.875 1.92 4.9.649 10.92 1.31 18.246 1.919a219 219 0 0 1-.476 6.461zM584.702 349.694c1.433-.063 2.813-.162 4.124-.353 1.508-.215 2.459-.98 3.027-2.657l1.502-4.483-11.512-.916c0 .736.719 1.322 2.268 1.728 1.084.279 2.65.592 4.332.83l-.957 2.836c-.522 1.554-1.125 2.476-2.79 3.015M461.811 239.093c.047-2.789-.812-2.778-1.716-.092l-2.761 8.206-.632 44.067 4.361-.453.743-51.728zM247.65 228.973l4.286-.255c1.351-7.876-.975-10.318-6.467-12.348l4.477-13.328h-4.355l-5.058 15.039c6.137 1.856 8.416 3.735 7.122 10.892M215.078 244.539c6.763.696 16.756 1.369 27.276 1.943l-7.69 22.851 4.437-.22 8.549-25.42-36.278-1.184c0 .969 1.067 1.764 3.706 2.03M441.106 226.943l4.547-.354c.615-6.176-1.919-8.392-8.183-10.225l4.483-13.327h-4.361l-5.058 15.038c6.171 1.375 8.944 3.15 8.567 8.862M210.242 292.741c3.817.446 9.889 1.067 15.996 1.635l-3.375 10.04 4.442-.244 4.141-12.324-24.95-1.154c-.024.962 1.113 1.739 3.746 2.047M309.018 233.183l-3.451 3.161 6.368-.214.232-.215c11.356-10.405 10.306-17.794 1.143-19.545l4.483-13.328h-4.361l-5.058 15.045c10.115 1.136 10.434 6.124.638 15.102M371.833 203.037l-5.057 15.038c6.42 1.943 8.624 3.915 6.913 11.936l4.286-.214c1.751-8.735-.522-11.31-6.27-13.433l4.484-13.327zM236.468 233.537c2.551.435 5.828.922 9.674 1.415a150 150 0 0 1-1.543 4.837l4.384-.087c.853-2.61 1.537-4.889 2.059-6.907l-17.271-1.125c0 .98.684 1.525 2.702 1.867M539.8 352.455c-1.984-2.79-3.492-5.869-4.53-9.349l-24.324-1.154c0 .829.621 1.49 3.874 1.92 3.671.487 10.944 1.281 16.988 1.85a31 31 0 0 0 3.636 6.733c6.014 8.479 18.948 13.531 37.037 13.531.998 0 1.984-.012 2.97-.023-17.359-.25-29.794-5.243-35.651-13.502M218.779 329.517l.313-.922-26.633-1.229c0 .951.662 1.635 4.141 2.07a653 653 0 0 0 17.191 1.885c-4.692 13.293-8.253 15.59-17.098 17.08l-5.063 15.039h4.356l4.483-13.328c9.854-2.36 13.287-5.678 18.31-20.6M460.182 352.548l.214-14.847-21.58-1.009c0 .933.632 1.519 3.88 2.018 3.711.562 8.369 1.108 13.304 1.508l-.174 12.336c-.156 8.201 2.14 10.892 9.054 10.892h4.361c-6.919 0-9.216-2.691-9.059-10.892M637.602 355.5l5.904-17.544-13.107-.696c0 1.055.551 1.699 3.769 2.314 1.282.244 2.709.481 4.194.702l-4.437 13.188c-1.595 4.721-.429 6.699 6.142 8.271-3.254-.777-3.811-2.279-2.471-6.235M413.04 326.612l.203-.615-17.242-1.056c0 .917.458 1.497 3.682 2.123 2.657.516 5.441.963 8.369 1.375-5.243 14.934-8.995 17.399-19.353 19.968l-5.064 15.045h4.362l4.483-13.328c10.631-2.691 14.975-6.937 20.56-23.507M277.119 339.632l-.157-4.153-23.193-1.142c0 .904.69 1.629 2.744 1.925 4.547.667 10.126 1.317 16.187 1.862l.063 1.508c.94 20.078 4.878 24.324 21.97 24.324.893 0 1.775-.012 2.65-.023-15.647-.29-19.348-4.913-20.258-24.307M326.718 350.118c9.848-2.361 13.287-5.678 18.304-20.589l-24.086-1.12c0 .934.771 1.63 2.522 1.926 4.437.748 10.312 1.479 16.222 2.007-4.523 12.405-8.119 14.603-16.744 16.053l-5.057 15.045h4.356l4.483-13.328zM461.016 294.55l-12.394-.655c0 .893.627 1.734 3.874 2.227 1.143.174 2.57.371 4.13.568l-.162 11.293 4.361-.238zM307.771 239.952l-20.897-.969c0 .928.528 1.52 2.396 1.816 2.824.44 6.443.899 10.108 1.229l-10.625 9.744 6.757-.58zM414.427 262.571c4.043.51 9.465 1.084 15.288 1.583l-3.984 11.831 4.454-.284 4.71-13.989-24.33-1.131c0 .917.533 1.56 3.862 1.984M425.546 244.232c2.79.522 6.339 1.131 10.289 1.751l-4.014 11.936 4.402-.139 4.93-14.644-19.406-.981c0 .94.557 1.485 3.799 2.077M442.499 239.111c1.137-3.492 1.995-6.403 2.54-8.845l-11.791-.934c0 .952.511 1.555 3.73 2.204q1.506.305 3.23.627c-.51 2.047-1.23 4.442-2.146 7.197l4.443-.243zM275.326 293.228c-.075-1.96-.916-2.221-2.296-.957l-2.03 1.856.806 20.775 4.35-.331-.824-21.349zM276.311 318.683l-18.031-.887c0 .963.702 1.682 3.578 2.134 2.39.377 5.876.847 10.196 1.288l.401 10.381 4.355-.179-.493-12.737zM277.687 254.584c0 .865.54 1.647 3.782 2.187.464.075.997.156 1.571.243l-13.13 12.047-2.714 8.067 23.929-21.929-13.438-.62zM365.959 267.297l-52.97-1.252c0 1.003 1.044 1.809 4.083 2.035 13.931 1.009 27.462 1.746 43.481 2.326l-2.842 8.462 4.396-.11 3.857-11.461zM360.048 234.749c3.677.58 7.922 1.126 11.93 1.572-.36 1.143-.754 2.355-1.189 3.666l-1.288 3.822 4.385-.076.818-2.43a142 142 0 0 0 2.291-7.383l-19.975-1.148c0 .968.946 1.647 3.039 1.977M460.453 333.675l.313-21.894-18.733-1.125c0 .911.638 1.578 3.892 2.117 2.696.447 6.269.957 10.451 1.404l-.285 19.719zM423.782 294.713l5.127-15.224-14.122-.957c0 .91.51 1.432 3.723 2.128 1.508.331 3.312.69 5.29 1.05l-4.414 13.107 4.396-.11zM372.553 247.694l-38.812-1.189c0 1.12 1.45 1.827 4.089 2.03 7.841.609 18.014 1.247 29.451 1.862l-4.344 12.904 4.379-.058 5.231-15.555zM232.814 287.794l4.895-14.558-19.795-1.142c0 .806.737 1.322 2.686 1.647 2.899.481 7.412 1.131 12.011 1.694l-4.211 12.51 4.408-.151zM354.092 302.572l6.629-19.696-30.628-1.27c-.023.881.852 1.658 3.08 1.914 6.136.696 14.841 1.536 22.247 2.163l-5.712 16.976 4.39-.087z"/><path fill="#010101" d="m767.905 210.373-13.357 39.67h-12.255c.302-4.036.458-7.632.452-10.828l-26.742-1.171c0-.998.963-2.053 4.993-2.164l21.645-.603c-.151-2.969-.481-5.533-1.003-7.731l-13.653-.603c0-1.038.882-1.885 4.924-2.343l7.493-.847c-2.459-5.579-6.936-7.69-13.861-7.69-10.37 0-17.637 5.556-21.285 15.827-4.361 12.296-2.419 20.067 7.992 30.658l9.396 9.587c20.867 21.279 24.156 37.095 16.001 59.406-8.178 22.37-25.623 34.41-58.125 34.41-13.809 0-29.3-1.56-40.453-4.216-3.254-.783-3.805-2.285-2.47-6.235l5.903-17.55-13.107-.696c0-.974.644-2.012 3.636-2.297l10.701-.672 8.114-24.127h13.01c-2.75 30.912 3.252 40.169 19.277 40.169 9.981 0 17.486-4.321 21.906-13.537l-18.148-1.09c0-.963.974-1.949 5-2.164l14.79-.794c1.49-4.338 2.168-8.334 1.872-12.22l-34.59-1.311c0-.974.998-2.07 5-2.169l28.894-.615c-1.137-4.28-3.567-8.531-7.563-13.049l-20.537-.905c0-1.021.946-1.966 4.965-2.25l11.808-.824-4.93-5.057-27.774-1.212c0-.981.962-2.053 4.999-2.164l18.971-.533c-6.084-6.345-10.625-12.435-13.525-18.733l-35.413-1.346c0-1.09.991-2.07 4.999-2.163l28.761-.615a39.1 39.1 0 0 1-2.1-12.046l-13.519-.505c0-1.038.87-1.896 4.901-2.378l8.729-1.044c.336-4.831 1.45-9.975 3.393-15.578 2.609-7.568 6.304-13.948 11.025-19.145l-16.767-1.009c0-1.055.974-1.948 4.999-2.163l15.955-.858c9.61-8.195 22.63-12.441 39.096-12.441 11.379 0 25.102 1.392 34.973 3.7 3.514.824 4.048 1.966 2.604 6.264m-117.636 82.652 4.483-13.328h-56.263l-4.484 13.328c10.515 1.566 13.218 4.588 10.04 16.698l-22.237.626c-4.036.11-4.999 1.148-4.999 2.163l26.099 1.137a167 167 0 0 1-1.23 3.787l-2.818 8.369-14.882.801c-4.02.214-4.994 1.206-4.994 2.163l18.501 1.114-2.905 8.624-7.749.603c-4.054.313-4.999 1.195-4.999 2.169l11.512.911-1.508 4.489c-.562 1.676-1.514 2.435-3.027 2.656-2.355.336-4.947.423-7.679.423-6.043 0-11.495-1.705-13.948-5.475-4.101-6.321-3.591-17.648 12.046-63.141 13.913-40.558 19.69-51.67 26.957-58.856 4.013-3.973 9.175-6.194 15.491-6.194 8.16 0 13.188 4.054 14.708 16.448l-8.282.829c-4.042.412-4.924 1.288-4.924 2.337l13.542.621c.116 2.047.169 4.269.14 6.71l-21.732.603c-4.037.111-4.999 1.189-4.999 2.169l26.62 1.16a191 191 0 0 1-.614 9.141h13.026l15.503-46.056c1.542-4.605.98-5.602-2.848-6.316-11.194-2.07-24.092-3.3-33.871-3.3-24.132 0-39.867 6.241-52.238 18.594-2.906 2.9-5.649 6.235-8.322 10.103l-15.254.841c-4.031.226-4.999 1.183-4.999 2.169l17.706.893c-2.059 3.324-4.077 7.012-6.089 11.136l-6.624.516c-4.048.313-4.999 1.114-4.999 2.163l9.976.789a229 229 0 0 0-4.263 9.953l-7.946.614c-4.048.314-4.999 1.212-4.999 2.169l11.489.911a387 387 0 0 0-5.023 13.774 546 546 0 0 0-2.383 7.047l-9.112.702c-4.054.313-4.999 1.183-4.999 2.169l12.841 1.015c-4.252 13.287-6.983 24.179-8.271 33.279l-12.168.702c-4.031.22-4.999 1.194-4.999 2.163l16.697 1.061c-.609 6.119-.487 11.374.354 15.961l-18.391.598c-4.048.127-4.999 1.171-4.999 2.169l24.324 1.154c1.038 3.474 2.546 6.553 4.53 9.349 6.02 8.479 18.947 13.531 37.042 13.531 14.378 0 28.199-1.584 38.801-4.64 2.03-.58 2.853-1.438 3.671-3.851l16.541-49.182c3.555-10.567 5.933-13.194 14.412-15.288m-91.27-76.638 4.483-13.328h-46.386l-4.484 13.328c10.37 2.256 13.212 6.247 9.326 19.986l-15.624.87c-4.031.22-5 1.148-5 2.163l19.395.981c-.128.394-.255.782-.395 1.194l-7.255 21.546-8.085.627c-4.054.319-4.999 1.177-4.999 2.169l11.825.939-17.503 51.96c-.946 2.813-1.78 2.755-1.734-.093l1.496-104.65c.11-8.23-1.984-11.031-9.767-11.031h-42.309l-4.483 13.328c6.264 1.838 8.798 4.048 8.183 10.23l-7.412.575c-4.048.313-4.999 1.113-4.999 2.163l11.797.934c-.546 2.447-1.404 5.359-2.54 8.85l-15.753.87c-4.025.226-4.999 1.137-4.999 2.169l19.406.974-4.93 14.651-20.659.649c-4.048.122-4.999 1.073-4.999 2.163l24.33 1.131-4.71 13.989-10.387.656c-4.03.255-4.999 1.136-4.999 2.169l14.116.957-5.127 15.224-24.753.626c-4.002.099-4.999 1.102-4.999 2.164l28.413 1.177-7.853 23.327-13.78.765c-4.03.221-4.803 1.166-4.803 2.169l17.243 1.056-.203.615c-5.585 16.575-9.935 20.821-20.56 23.5l-4.483 13.322h46.392l4.483-13.322c-11.582-2.517-13.78-7.191-7.702-25.2l28.941-85.905c.9-2.691 1.757-2.703 1.711.087l-.737 51.728-7.458.777c-4.049.423-4.994 1.31-4.994 2.296l12.394.656-.19 13.194-13.793.737c-4.025.214-5 1.044-5 2.163l18.734 1.131-.314 21.888-16.639.847c-4.025.22-4.999 1.096-4.999 2.163l21.58 1.009-.208 14.848c-.157 8.201 2.14 10.892 9.06 10.892h27.56l41.618-123.57c5.58-16.575 9.93-20.821 20.56-23.5m-181.74 108.826 29.671-88.208c5.023-14.923 8.456-18.234 18.31-20.601l4.483-13.328h-53.549l-4.483 13.328c5.736 2.123 8.015 4.698 6.269 13.427l-15.966.812c-4.031.226-5 1.142-5 2.169l19.975 1.148c-.592 2.158-1.352 4.599-2.286 7.383l-.817 2.43-35.147.603c-4.019.076-4.993 1.178-4.993 2.164l38.806 1.194-5.232 15.555-49.338.633c-4.008.052-4.999 1.142-4.999 2.163l52.969 1.253-3.857 11.46-27.015.678c-4.002.105-4.994 1.085-4.994 2.17l30.628 1.264-6.629 19.696-32.507.632c-4.025.081-5 1.113-5 2.169l36.168 1.183-6.409 19.047-20.409.638c-4.049.127-5 1.061-5 2.169l24.087 1.113c-5.017 14.917-8.456 18.229-18.304 20.595l-4.484 13.322h53.549l4.484-13.322c-7.726-2.865-9.181-6.525-2.987-24.945m-67.428 12.302-4.356-71.79c-.15-2.43.325-3.427 2.013-4.976l34.294-31.405c10.422-9.547 14.139-11.582 20.693-12.922l4.489-13.34h-49.182l-4.483 13.328c9.164 1.752 10.208 9.141-1.142 19.545l-.232.215-20.067.69c-4.049.122-5 1.201-5 2.169l20.897.969-12.267 11.24-12.869 1.107c-4.037.406-4.948 1.265-4.948 2.28l13.438.62-23.929 21.935 13.513-40.169c5.017-14.923 7.876-16.524 17.73-18.884l5.063-15.045h-53.549l-4.483 13.328c5.498 2.03 7.818 4.478 6.467 12.348l-13.166.783c-4.031.22-4.999 1.096-4.999 2.169l17.271 1.119c-.522 2.019-1.206 4.304-2.059 6.908l-32.606.638c-4.025.075-4.999 1.131-4.999 2.163l36.272 1.189-8.549 25.414-16.187.824c-4.025.22-5 1.003-5 2.169l19.795 1.137-4.895 14.557-21.314.737c-4.048.122-5 1.154-5 2.163l24.951 1.154-4.147 12.325-12.498.69c-4.025.22-4.994 1.16-4.994 2.163l16.199.992-5.556 16.512-23.002.661c-4.002.099-4.994 1.137-4.994 2.163l26.627 1.23-.313.922c-5.017 14.923-8.451 18.234-18.304 20.601l-4.484 13.322h57.255l4.484-13.322c-11.188-2.262-13.056-6.026-6.687-24.939l6.194-18.426 15.804-14.476c1.38-1.265 2.215-1.004 2.297.963l.823 21.348-12.904.975c-4.025.284-4.971 1.229-4.971 2.244l18.032.888.493 12.736-18.043.742c-4.025.226-4.994 1.131-4.994 2.169l23.193 1.137.157 4.153c.945 20.084 4.883 24.324 21.975 24.324 6.177 0 12.122-.244 16.28-.655l4.414-13.259c-7.262-1.009-9.384-3.375-9.941-12.568"/><path fill="#fff" d="M602.344 506.34v10.149h-2.534V506.34h-2.941v-2.523h8.416v2.523zm13.751 10.149v-7.476l-2.134 4.663h-2.244l-2.135-4.663v7.476h-2.54v-12.666h2.54l3.254 6.762 3.259-6.762h2.535v12.666z"/></svg>