<svg xmlns="http://www.w3.org/2000/svg" viewBox="0 0 960 640"><path fill="#041e42" d="M824.867 371.99c-6.433 0-11.655 5.217-11.655 11.654 0 6.429 5.222 11.652 11.655 11.652s11.648-5.223 11.648-11.652c0-6.437-5.215-11.653-11.648-11.653m0 20.806a9.1 9.1 0 0 1-3.503-.695 9.135 9.135 0 0 1-5.648-8.457 9.14 9.14 0 0 1 9.151-9.146c5.057 0 9.15 4.089 9.15 9.146s-4.093 9.152-9.15 9.152m4.788-11.853a3.94 3.94 0 0 0-1.159-2.793 3.94 3.94 0 0 0-2.795-1.155h-5.614v13.3h2.496v-5.401h1.79l2.522 5.402h2.76l-2.633-5.633a3.95 3.95 0 0 0 2.633-3.72m-3.954 1.454h-3.118v-2.911h3.118a1.453 1.453 0 0 1 1.029 2.485 1.46 1.46 0 0 1-1.029.426"/><path fill="#fff" d="M266.546 394.422h53.371l-18.17 43.894h44.705l18.177-43.894h131.452l-3.815 9.223c-8.723 21.056-7.536 48.097 1.405 62.43l50.899 81.559 39.392-57.19h64.527l35.231-43.32h-81.697l-24.651 30.32-49.066-40.79c-1.096-1.033-2.366-6.357-.326-11.263l22.337-53.955s4.708 22.986 34.541 22.986h177.269c8.419 0 34.052 0 43.932-23.866 8.982-21.717-4.422-33.627-4.422-33.627h14.127l16.118-38.878h-86.668c-10.956 0-21.101 2.788-29.082 7.577l40.921-98.81H712.34l-44.925 108.496s-8.012-17.263-34.302-17.263h-52.4L665.88 92.366h-44.709l-85.174 205.685H426.644c-28.52 0-54.882 12.018-73.454 32.178 0 0-.215-32.178-38.387-32.178h-97.3c-38.897 0-78.989 23.218-91.267 52.859-8.671 20.929 3.536 43.512 31.253 43.512h37.908c15.774 0 32.535-10.497 39.762-15.608 0 0 8.044 15.608 31.389 15.608z"/><path fill="#c8102e" d="m607.153 457.907-17.691 21.76h53.891l17.695-21.76zM309.037 242.219l15.472-11.243 15.475 11.243-5.91-18.194 15.469-11.235H330.42l-5.911-18.2-5.907 18.2h-19.133l15.479 11.235zm100.25 0 15.469-11.243 15.481 11.243-5.913-18.194 15.478-11.235h-19.124l-5.922-18.2-5.904 18.2h-19.13l15.475 11.235zm121.632-29.43-5.907-18.198-5.91 18.199h-19.123l15.471 11.235-5.913 18.194 15.475-11.243 15.477 11.243-5.915-18.194 15.475-11.235zm-259.964 53.487h.058l-1.176 18.036h6.233l17.387-22.618h-5.071l-13.183 17.672h-.066l1.214-17.671h-6.392l-13.213 17.67h-.057l1.333-17.67h-5.455l-1.284 22.618h6.113zm35.885 12.969.505 5.068h6.012l-2.191-22.62h-6.385l-20.907 22.62h5.448l4.489-5.068zm-.911-13.538.632 9.833h-9.407zm13.245 11.52c-2.007 4.855.924 7.682 7.469 7.682 7.68 0 12.839-2.758 14.772-7.431 4.123-9.96-14.611-4.08-12.185-9.934.855-2.066 3.608-3.101 5.711-3.101 3.508 0 5.098 1.069 4.071 4.01h5.075c1.741-4.578-.68-7.355-7.294-7.355-5.259 0-11.022 2.095-13.178 7.325-3.771 9.083 14.373 4.625 12.273 9.685-.677 1.636-2.962 3.44-7.158 3.44-4.011 0-5.314-1.632-4.48-4.321zm29.718 7.086 4.022-9.714h12.311l-4.024 9.714h5.077l9.367-22.62h-5.067l-3.823 9.215h-12.309l3.809-9.214h-5.076l-9.374 22.619zm29.348 0 9.378-22.62h-5.077l-9.371 22.62zm11.539 0 7.323-17.67h.059l5.816 17.67h6.818l9.372-22.62h-4.569l-7.19 17.358h-.073l-5.619-17.357h-7.144l-9.364 22.619zm57.646-15.33c2.189-5.287-1.841-7.886-8.665-7.886-8.907 0-15.797 5.066-18.611 11.835-3.392 8.214.782 11.978 9.215 11.978 3.282 0 8.496-.636 12.291-2.008l4.384-10.563h-12.19l-1.457 3.505h7.232l-1.78 4.326c-2.835.78-4.66 1.034-6.636 1.034-6.951 0-7.517-4.104-5.77-8.3 2.435-5.885 7.853-8.297 12.615-8.297 2.509 0 5.256 1.217 4.105 4.378zm6.236 15.33h5.08l7.836-18.926h8.618l1.535-3.693h-22.309l-1.533 3.693h8.624zm29.562.596c8.339 0 14.831-3.977 18.119-11.92 3.29-7.922.08-11.892-8.259-11.892-8.332 0-14.835 3.97-18.12 11.893-3.29 7.94-.074 11.919 8.259 11.919zm-2.999-11.92c2.203-5.327 6.44-8.21 11.329-8.21 4.919 0 6.735 2.883 4.527 8.21-2.206 5.339-6.412 8.215-11.329 8.215-4.882 0-6.734-2.876-4.527-8.214m44.275 6.062h-.064l-5.615-17.357h-7.152l-9.368 22.619h4.571l7.323-17.67h.061l5.805 17.67h6.835l9.366-22.62h-4.575z"/><path fill="#041e42" d="M211.192 326.155h28.286l7.169-17.321h-29.145c-34.336 0-70.736 20.684-81.31 46.198-6.38 15.425 2.992 28.61 21.296 28.61h37.909c16.477 0 36.537-15.851 36.537-15.851l-17.718-7.47s-8.039 6.006-16.753 6.006h-36.331c-4.551 0-6.43-4.374-4.039-10.177 6.868-16.571 31.088-29.995 54.099-29.995m55.354 57.488h21.965c7.89 0 14.655-4.592 14.655-4.592l-1.897 4.592h21.367l17.492-42.24c7.451-17.986-3.887-32.57-25.324-32.57h-55.551l-7.171 17.322h60.152c12.842 0 8.927 9.438 8.927 9.438h-43.319c-17.213 0-29.909 7.93-33.967 17.725-6.928 16.734 3.216 30.325 22.671 30.325m-3.908-24.035c1.534-3.69 5.778-6.696 9.485-6.696h29.983c6.854 0 12.966-2.603 12.966-2.603l-3.514 8.477c-1.717 4.16-7.718 7.542-12.402 7.542h-32.593c-3.705 0-5.463-3.01-3.925-6.72m307.737-50.774-7.17 17.32h67.333c12.849 0 8.93 9.439 8.93 9.439h-43.317c-17.211 0-29.912 7.93-33.956 17.725-6.942 16.734 3.2 30.325 22.664 30.325h21.956c7.894 0 14.668-4.592 14.668-4.592l-1.91 4.592h21.374l17.49-42.24c7.451-17.986-3.883-32.57-25.324-32.57zm59.497 49.953c-1.725 4.159-7.717 7.54-12.397 7.54h-32.6c-3.702 0-5.463-3.008-3.93-6.72 1.534-3.688 5.782-6.695 9.484-6.695h29.99c6.845 0 12.962-2.603 12.962-2.603l-3.509 8.477m42.288 24.856 68.753-166.038H719.55l-68.764 166.038zm-162.343-74.81h-21.369l-7.174 17.322h21.362zm-30.987 74.81 19.903-48.05h-21.376l-19.9 48.05zm232.42-57.601c-6.589 15.93 1.976 28.855 19.162 28.855h43.375c3.158 0 4.66 2.559 3.345 5.717-1.308 3.158-4.924 5.713-8.076 5.713h-79.341l-7.169 17.316h79.58c14.826 0 28.248-3.39 33.961-17.205 6.6-15.942-1.973-28.858-19.154-28.858h-43.37c-3.163 0-4.669-2.558-3.354-5.713 1.311-3.164 4.93-5.712 8.086-5.712h70.271l7.172-17.321h-70.524c-14.82 0-29.479 6.374-33.964 17.208m-371.997 101.49 24.822-59.942c9.477-22.884 30.353-41.435 63.382-41.435h21.194l-13.426 32.416c-1.765 4.264-6.708 7.757-10.968 7.757h-49.383l-7.177 17.316h59.108c10.675 0 21.427-4.875 27.441-19.411l22.951-55.4h-50.551c-39.66 0-69.842 24.707-82.463 55.176l-26.3 63.523z"/><path fill="#041e42" d="M502.222 407.764c-7.06 17.08-6.793 40.749.597 52.602l42.199 67.614 27.775-40.326-51.377-42.71c-5.41-4.48-6.94-15.141-3.395-23.684l131.726-318.116h-21.374l-85.172 205.689h-25.332l-7.175 17.322h25.341z"/></svg>