<svg xmlns="http://www.w3.org/2000/svg" viewBox="0 0 960 640"><path fill="#010101" d="M581.029 557.736c-7.093 0-12.852 5.75-12.852 12.848 0 7.09 5.759 12.849 12.852 12.849s12.843-5.759 12.843-12.848c0-7.099-5.749-12.849-12.843-12.849m0 22.94a10.085 10.085 0 0 1-10.092-10.092 10.08 10.08 0 0 1 10.092-10.085c5.576 0 10.09 4.509 10.09 10.085a10.085 10.085 0 0 1-10.09 10.092m5.279-13.07a4.353 4.353 0 0 0-4.359-4.353h-6.191v14.666h2.752v-5.956h1.975l2.78 5.956h3.043l-2.902-6.21a4.359 4.359 0 0 0 2.902-4.103m-4.359 1.603h-3.439V566h3.439c.884 0 1.607.719 1.607 1.607a1.607 1.607 0 0 1-1.607 1.602Z"/><path fill="#00843d" d="M595.015 379.07c2.926-5.027 5.592-10.116 7.93-15.192l210.63-112.803h-221.63c-16.616-17.413-40.644-28.02-70.184-31.012l-17.56-174.148-104.63 173.258h-56.319l-19.069 31.903H146.425l120.004 96.678-74.503 124.693h54.672l-73.474 121.638L400.26 472.434a470 470 0 0 0 20.181-.581l137.874 111.094-14.792-146.891c20.607-14.298 37.493-33.005 51.491-56.986z"/><path fill="#010101" d="m594.059 355.604 173.693-93.026H586.814c-16.281-19.418-42.261-30.321-75.52-31.744L496.218 81.375l-90.154 149.289H349.77l-19.056 31.914H179.025l102.408 82.492-69.239 115.861h54.78l-62.339 103.231 192.731-103.231a456 456 0 0 0 26.852-.794l119.906 96.594-12.732-126.43c21.738-13.739 39.329-32.425 53.685-57.023 3.427-5.874 6.45-11.804 8.982-17.674"/><path fill="#a2aaad" d="M579.099 296.255s-1.745-5.693-4.284-10.684l-35.301 17.244c2.296 5.997 5.585 20.329-3.18 41.63-10 24.26-39.771 67.168-120.972 67.168h-108.95l-53.673 26.317h96.17l-12.32 3.332-68.948 63.061L391.6 437.93h5.172c12.478 0 24.053-.476 34.823-1.399l21.811-2.632a254 254 0 0 0 12.242-2.297c40.522-8.654 66.654-25.87 85.703-49.602 5.068-6.323 9.654-13.1 13.858-20.315 5.918-10.158 10.092-19.868 12.684-29.038 3.798-13.477 4.124-25.767 1.205-36.392zm-250.955 15.454-83.902-26.132-.006-.006 67.191 54.132zm128.091-58.041h34.241l-10.225-101.36zm130.573 54.205a61 61 0 0 1 2.253 4.93c.141.346.256.703.388 1.049a63 63 0 0 1 1.388 3.966c.145.497.278.989.43 1.485a80 80 0 0 1 .993 4.016c.091.448.2.884.292 1.338.362 1.823.653 3.683.896 5.615l.005-.005 53.696-29.04 28.936-15.656zm-78.414 125.812c-2.454.263-4.894.462-7.318.625-.176.011-.357.024-.533.031-2.35.163-4.694.272-6.996.355-.2.014-.394.019-.594.024q-3.5.12-6.862.145h-.297c-2.303.015-4.56.008-6.741-.024v.007l36.675 69.475z"/><path fill="#a2aaad" d="M485.987 278.351h-99.844l-.194-.098-79.536 133.359 53.823-26.288 30.71-50.146 9.402-15.348-6.955-5.597-13.895-11.199-.006-.006h83.304a163 163 0 0 1 4.941.072c1.328.036 2.63.09 3.896.163.406.025.788.055 1.205.086.939.06 1.866.121 2.775.205.52.049 1.023.115 1.537.163l2.199.255c.57.079 1.121.17 1.679.254.617.092 1.223.188 1.805.297a43 43 0 0 1 1.714.339q.789.163 1.533.334c.587.138 1.151.297 1.696.448.435.121.883.242 1.295.369.576.182 1.121.363 1.653.558.37.133.74.266 1.091.405.545.219 1.072.431 1.587.667l.916.43q1.146.587 2.245 1.259c.474.303.934.607 1.382.933.212.152.411.31.612.466.448.352.865.709 1.271 1.09.164.152.31.311.468.468.405.411.799.823 1.15 1.265.121.14.224.285.334.43.368.474.719.958 1.036 1.479.06.102.127.223.188.333.332.569.646 1.145.913 1.75.025.049.03.103.061.152.291.672.546 1.369.763 2.102l.006-.006 34.768-16.979c-9.528-22.022-36.596-24.464-53.526-24.464z"/><path fill="#fff" d="m431.595 436.539 84.133 67.785-36.676-69.475c-10.866-.153-20.032-.79-25.646-.95l-21.812 2.632m-131.856 14.672-32.097 53.121 68.947-63.062m23.647-55.938-53.823 26.289h108.949c81.201 0 110.974-42.908 120.973-67.167 8.765-21.302 5.476-35.634 3.18-41.631l-34.769 16.979c.2.679.383 1.356.527 2.09 3.078 16.166-10.139 39.275-32.515 52.362-17.68 10.34-38.952 11.078-57.33 11.078h-55.194"/><path fill="#fff" d="m385.948 278.253.195.098h99.845c16.93 0 43.999 2.44 53.526 24.465l35.301-17.245c2.539 4.992 4.283 10.684 4.283 10.684 3.101 3.792 5.633 7.639 7.711 11.618l89.276-22.302h-101.27c-10.855-19.934-35.5-31.903-70.989-31.903h-47.591l24.016-101.36v-.006l-61.219 101.366h-56.203l-19.068 31.903h-99.518v.006l83.902 26.13-16.717 27.996-58.688 98.227 53.673-26.317 79.536-133.36z"/></svg>