<svg xmlns="http://www.w3.org/2000/svg" viewBox="0 0 960 640"><path fill="#00843d" d="M595.004 379.045c2.925-5.054 5.585-10.107 7.926-15.214l210.645-112.823H591.919c-16.597-17.394-40.64-28.033-70.162-31.011L504.203 45.895 399.572 219.146H343.24l-19.043 31.916H146.425l120.004 96.705-74.471 124.685h54.683l-73.46 121.653 227.135-121.653c6.809 0 13.565-.266 20.161-.585l137.877 111.067-14.788-146.866c20.586-14.309 37.501-32.98 51.491-56.97m-63.619 51.225 12.713 126.44-119.898-96.599c-8.67.532-17.713.798-26.862.798L204.672 564.21l62.342-103.248h-54.789l69.204-115.855-102.397-82.503H330.74l19.043-31.915h56.278l90.163-149.314 15.054 149.473c33.245 1.436 59.257 12.341 75.534 31.756h180.91l-173.676 93.035c-2.553 5.852-5.532 11.809-8.989 17.661-14.363 24.575-31.916 43.299-53.672 57.023"/><path fill="#010101" d="M415.424 385.268c18.351 0 39.629-.745 57.289-11.064 22.394-13.086 35.586-36.172 32.501-52.396a24 24 0 0 0-.532-2.074c-.426-1.489-1.064-2.872-1.809-4.149 0 0-.053-.107-.106-.16a16.3 16.3 0 0 0-2.713-3.351l-.213-.213c-1.01-.957-2.234-1.861-3.51-2.659a1.7 1.7 0 0 1-.373-.266c-1.33-.798-2.766-1.436-4.362-2.075-.212-.053-.372-.159-.585-.213a42 42 0 0 0-5.159-1.542 17 17 0 0 0-.745-.16c-1.862-.425-3.83-.744-5.958-1.064a4.7 4.7 0 0 1-.85-.106 88 88 0 0 0-6.81-.585h-.85c-2.394-.107-4.895-.16-7.554-.213h-83.673l10.426 8.405 10.426 8.404-22.076 36.065-18.032 29.469h55.214z"/><path fill="#010101" d="m594.046 355.586 173.676-93.035h-180.91c-16.277-19.415-42.289-30.32-75.535-31.756L496.224 81.322l-90.163 149.313h-56.278l-19.043 31.916H179.032l102.397 82.503-69.204 115.855h54.789l-62.343 103.248 192.72-103.248c9.149 0 18.192-.266 26.862-.798l119.898 96.599-12.713-126.44c21.756-13.724 39.31-32.448 53.672-57.023 3.404-5.852 6.436-11.809 8.989-17.661m-17.607-18.458c-2.606 7.82-6.276 16.01-11.223 24.522-2.713 4.628-5.532 9.043-8.564 13.299-1.915 2.659-3.83 5.266-5.905 7.766-14.309 17.607-32.607 31.544-57.927 41.065-11.597 4.309-24.629 7.713-39.417 10.107 5.586.159 14.788.798 25.64.957h7.074c2.234 0 4.522-.053 6.809-.16h.585c2.341-.106 4.681-.212 7.022-.372h.425c2.447-.16 4.894-.372 7.394-.638l7.341 70.64-84.152-67.767c-10.798.904-22.341 1.383-34.842 1.383h-5.159l-123.941 66.385 32.076-53.14 49.15-13.245h-96.173l58.672-98.248-67.183-54.098h99.525l19.043-31.916h56.225l61.226-101.386 10.213 101.386h13.351c35.48 0 60.109 11.969 70.96 31.916h101.28l-82.662 44.682a61 61 0 0 0-.905-5.585l-.319-1.436a46 46 0 0 0-.957-3.883c-.16-.532-.319-1.064-.479-1.543-.425-1.277-.851-2.606-1.33-3.83-.159-.372-.266-.744-.425-1.17-.692-1.65-1.383-3.298-2.234-4.894-2.075-3.99-4.628-7.82-7.713-11.65 3.244 11.81 2.446 25.64-2.66 40.906"/><path fill="#fff" d="m385.954 278.243.213.107h99.844c16.915 0 43.99 2.447 53.512 24.469l35.32-17.235c-10.851-19.947-35.48-31.916-70.959-31.916h-47.608l24.043-101.386-61.226 101.386h-56.225l-19.043 31.916H244.3l83.886 26.118-16.703 27.98-58.672 98.248 53.672-26.331 79.577-133.356zM348.879 437.93l-49.151 13.245-32.076 53.14 68.939-63.087z"/><path fill="#fff" d="m586.812 307.872 89.259-22.341h-101.28c2.553 5 4.308 10.692 4.308 10.692 3.085 3.776 5.639 7.66 7.713 11.649M505.267 321.863c3.085 16.17-10.16 39.256-32.501 52.395-17.661 10.319-38.938 11.064-57.29 11.064h-55.214L306.43 411.6h108.94c81.226 0 110.961-42.927 120.962-67.184 8.776-21.33 5.479-35.639 3.191-41.65l-34.788 16.969c.213.691.372 1.383.532 2.074M431.594 436.493l84.152 67.768-36.703-69.47c-10.852-.16-20.054-.798-25.639-.957l-21.81 2.606"/><path fill="#a2aaad" d="m574.79 285.531-35.32 17.234c2.287 6.011 5.585 20.32-3.191 41.651-10.001 24.256-39.789 67.183-120.962 67.183h-108.94l-53.672 26.331h96.174l-12.341 3.298-68.939 63.034 123.941-66.386h5.159c12.501 0 24.044-.478 34.842-1.383l21.809-2.606c14.788-2.394 27.82-5.798 39.416-10.107 25.32-9.468 43.619-23.458 57.928-41.012 2.021-2.5 3.989-5.106 5.904-7.766 3.032-4.256 5.852-8.671 8.564-13.298 4.947-8.511 8.618-16.703 11.224-24.523 5.054-15.266 5.852-29.096 2.66-40.905 0 0-1.755-5.692-4.309-10.692M508.405 433.674c-2.447.266-4.947.479-7.394.639h-.425c-2.394.159-4.734.266-7.022.372h-.585c-2.34.053-4.574.106-6.809.16h-7.074l36.703 69.47-7.341-70.641zM456.223 253.615h34.256l-10.213-101.333zM244.247 285.531l67.183 54.151 16.703-28.033z"/><path fill="#a2aaad" d="M485.958 278.296h-99.844l-.213-.106-79.577 133.356 53.831-26.278 18.033-29.416 22.075-36.065-10.426-8.404-10.426-8.405h83.673c2.66 0 5.16.053 7.554.213h.851c2.394.106 4.681.319 6.809.585.266 0 .585.053.851.106 2.127.266 4.096.639 5.957 1.064.266 0 .479.107.745.16a42 42 0 0 1 5.16 1.542c.213.054.372.107.585.213a25.4 25.4 0 0 1 4.362 2.075c.159.053.266.159.425.266 1.33.798 2.5 1.702 3.511 2.659.107.054.16.16.213.213a16.3 16.3 0 0 1 2.713 3.351c0 .053 0 .107.053.16.745 1.277 1.383 2.66 1.809 4.149l34.788-16.969c-9.522-22.022-36.597-24.469-53.512-24.469M586.812 307.872a81 81 0 0 1 2.234 4.894c.16.372.266.744.426 1.17.479 1.277.957 2.553 1.33 3.83.159.532.319 1.064.478 1.543.373 1.276.692 2.606.958 3.883l.319 1.436c.372 1.808.638 3.67.904 5.585l82.663-44.682-89.259 22.288z"/><path fill="#fff" d="M593.196 557.721c0-6.756-5.479-12.288-12.235-12.288s-12.288 5.479-12.288 12.288 5.479 12.234 12.288 12.234 12.235-5.479 12.235-12.234m-21.863 0c0-5.32 4.309-9.628 9.628-9.628s9.628 4.308 9.628 9.628-4.309 9.628-9.628 9.628-9.628-4.309-9.628-9.628"/><path fill="#fff" d="m585.961 564.743-2.766-5.905c1.596-.585 2.766-2.127 2.766-3.936 0-2.287-1.862-4.202-4.149-4.202h-5.905v14.043h2.607v-5.692h1.862l2.659 5.692zm-4.149-8.298h-3.298v-3.086h3.298a1.544 1.544 0 0 1 0 3.086"/></svg>