<svg xmlns="http://www.w3.org/2000/svg" viewBox="0 0 960 640"><path fill="#041e42" d="M661.031 557.56c-7.414 0-13.434 6.012-13.434 13.432 0 7.41 6.02 13.43 13.434 13.43s13.426-6.02 13.426-13.43c0-7.42-6.011-13.431-13.426-13.431m0 23.98a10.55 10.55 0 0 1-9.748-6.51 10.5 10.5 0 0 1-.801-4.038 10.536 10.536 0 0 1 10.549-10.542c5.829 0 10.547 4.713 10.547 10.542s-4.718 10.549-10.547 10.549m5.519-13.662a4.562 4.562 0 0 0-2.814-4.205 4.6 4.6 0 0 0-1.743-.345h-6.472v15.33h2.877v-6.225h2.065l2.906 6.226h3.181l-3.034-6.492a4.57 4.57 0 0 0 3.035-4.29zm-4.557 1.677h-3.595V566.2h3.595c.925 0 1.68.752 1.68 1.679a1.68 1.68 0 0 1-1.68 1.676"/><path fill="#a2aaad" d="M766.505 320.002c0 158.239-128.216 286.506-286.462 286.506S193.495 478.242 193.495 320.002s128.275-286.51 286.51-286.51 286.5 128.264 286.5 286.51"/><path fill="#041e42" d="M480.005 52.72C332.388 52.72 212.74 172.398 212.74 320S332.427 587.28 480.044 587.28 747.266 467.599 747.266 320 627.621 52.72 480.005 52.72M600.978 371.44l-11.867-5.913-75.273 5.036v11.12l34.184 49.175v29.827l-47.151-23.247-3.879-9.79-16.991 37.609-16.465-37.617-3.892 9.798-47.143 23.247v-29.82l34.191-49.181v-11.121l-75.275-5.036-11.872 5.913v-68.903l-.145-19.38 16.383 39.413 74.674-35.632 4.026-45.741 25.553-118.85 26.009 118.85 4.026 45.74 74.666 35.634 15.945-39.916.295 19.882z"/><path fill="#fff" d="m505.864 124.654-25.846-65.138-27.41 65.142c-96.452 13.012-170.831 95.608-170.831 195.63 0 109.049 89.185 197.464 198.241 197.464s196.675-88.414 196.675-197.462c0-100.025-74.372-182.626-170.829-195.636m95.114 246.787-11.867-5.913-75.274 5.036v11.12l34.184 49.175v29.827l-47.15-23.247-3.879-9.791-16.991 37.61-16.465-37.617-3.892 9.798-47.143 23.247v-29.82l34.191-49.181v-11.121l-75.275-5.036-11.872 5.913v-68.903l-.145-19.38 16.383 39.413 74.674-35.632 4.026-45.741 25.553-118.85 26.009 118.85 4.026 45.74 74.666 35.634 15.945-39.916.295 19.882z"/><path fill="#782f40" d="m359.386 283.158 16.387 39.412 74.673-35.634 4.029-45.74 5.545-25.615-37.624-24.668 15.143 89.672-40.042-39.952-1.098 31.525-58.593-22.11 21.729 57.537v-5.05zm87.294 87.404-53.121-3.554 21.485 18.745-12.629 15.723 27.405 4.457 16.86-24.251zm33.344 94.516-16.501-37.438-.313.792 16.818 81.668 17.021-82.274-.07-.18zm33.802-83.395 16.868 24.269 27.737-4.465-12.637-15.735 21.513-18.768-53.482 3.577zm-3.765-94.745 74.667 35.632 15.943-39.915.295 19.879v5.972l22.09-58.466-58.614 22.118-1.106-31.525-40.039 39.958c1.026-6.226 15.143-89.68 15.143-89.68l-37.914 24.9 5.511 25.385zm123.183 22.522-32.277-.152v28.312zm-305.651 0 31.94 27.864v-28.016z"/><path fill="#a6192e" d="m446.619 370.563-48.702-3.256 20.584 17.965c-.326.91-11.165 14.316-11.165 14.316l24.11 3.924 15.173-21.828zm12.746-152.237-33.341-21.892.067.396 26.521 64.808 1.799-20.44zm-21.846 65.957c-.032-.025-.063-.042-.095-.068l-37.488-37.391-1.095 29.028-56.049-21.083 54.724 57.397 46.015-21.958zm30.365 153.299 12.17 61.474-.059-33.774zM334.629 312.077l24.845 21.68V311.96zm199.938-115.444-33.473 22.08 3.754 17.296zm83.899 58.076-55.972 21.177-16.366 28.294 11.193 5.343z"/><path fill="#53565a" d="m600.682 282.655-15.944 39.914-74.666-35.632-4.025-45.741-26.009-118.85-25.555 118.85-4.026 45.74-74.674 35.634-16.383-39.414.145 19.38v68.903l11.872-5.913 75.275 5.036v11.12l-34.191 49.182v29.82l47.143-23.247 3.891-9.798 16.466 37.617 16.991-37.61 3.879 9.79 47.15 23.248v-29.827l-34.183-49.174V370.56l75.273-5.035 11.867 5.913v-68.903l-.296-19.882M480.006 452.42l-16.295-37.014-5.539-12.842 3.28 16.349-5.867 14.778-37.926 18.707v-19.92l34.184-49.174v-17.556l-81.481-5.452-5.656 2.817v-53.75l8.402 20.195 75.003-35.788 4.896 23.979 2.304-27.415.025-.005 4.254-48.417 20.429-98.734z"/></svg>