<svg xmlns="http://www.w3.org/2000/svg" viewBox="0 0 960 640"><path fill="#0033a0" d="M681.141 515.609c-6.673 0-12.091 5.409-12.091 12.086 0 6.67 5.418 12.088 12.091 12.088s12.081-5.418 12.081-12.087c0-6.678-5.409-12.087-12.081-12.087m0 21.58a9.5 9.5 0 0 1-6.716-2.779 9.5 9.5 0 0 1-2.778-6.715 9.48 9.48 0 0 1 9.494-9.487c5.245 0 9.492 4.241 9.492 9.487s-4.247 9.493-9.492 9.493m4.966-12.295a4.106 4.106 0 0 0-2.533-3.784 4.1 4.1 0 0 0-1.568-.311h-5.824v13.796h2.588v-5.603h1.859l2.615 5.603h2.863l-2.731-5.841a4.11 4.11 0 0 0 2.731-3.86Zm-4.101 1.509h-3.236v-3.02h3.236c.832 0 1.512.676 1.512 1.51a1.51 1.51 0 0 1-1.512 1.51m8.73-378.614 37.339-66.286H603.181l-17.906 17.411-17.906-17.411H392.636l-17.908 17.411-17.905-17.411H231.925l37.349 66.286v321.958c0 6.48 0 57.034 61.092 57.034h96.638c34.693 0 51.602 31.717 51.602 31.717h2.788s16.914-31.717 51.608-31.717h96.635c61.091 0 61.099-50.554 61.099-57.034z"/><path fill="#c8102e" d="m446.824 241.617 215.843 156.32v-156.32z"/><path fill="#fff" d="M297.341 219.605h365.326v8.809H297.341zm0 250.142c0 25.674 17.646 28.97 33.025 28.97h96.638c21.991 0 39.787 11.54 52.994 22.142 13.21-10.601 31.007-22.141 53.003-22.141H568L297.341 302.696zm0-185.2 295.717 214.17h12.574l-308.291-223.28zm111.845-42.93 253.48 183.587v-9.108l-240.901-174.48zM513.72 415.614l21.383 15.488 6.229-8.593-12.64-9.155 10.078-13.923 12.64 9.158 6.222-8.603L545 390.842l10.085-13.918 12.631 9.148 6.226-8.6-21.388-15.488zM406.655 256.312l-19.78-14.317-38.839 53.623 8.745 6.344 17.39-24.016 4.885 3.536-8.211 30.663 8.755 6.335 8.304-31.034c5.48 2.26 11.99.566 15.624-4.438l6.061-8.375c4.244-5.863 2.933-14.066-2.933-18.322zm-7.005 13.626-3.693 5.088a4.52 4.52 0 0 1-4.721 1.753 4.5 4.5 0 0 1-1.607-.737l-9.228-6.693 9.002-12.424 9.234 6.686a4.536 4.536 0 0 1 1.013 6.327m180.026 193.44 8.303-31.035c5.476 2.268 11.988.58 15.62-4.435l6.067-8.373c4.247-5.86 2.934-14.066-2.927-18.317l-19.79-14.327-38.847 53.625 8.76 6.345 17.387-24.01 4.877 3.535-8.2 30.661zm9.8-61.55 9.234 6.687a4.536 4.536 0 0 1 1.016 6.329l-3.689 5.085a4.53 4.53 0 0 1-6.327 1.014l-9.239-6.691zm-121.12-100.823-38.844 53.628 8.755 6.34 23.318-32.198-9.259 42.377 8.751 6.338 38.838-53.632-8.747-6.333-23.318 32.188 9.257-42.379zm-82.861 21.747 8.754 6.342 11.046-8.878 14.556 10.545-4.983 13.262 8.751 6.339 24.149-64.263-8.743-6.342-53.529 42.994zm37.655-.766-10.555-7.639 19.232-15.446zm106.757 23.593-7.332-5.31c-5.874-4.248-14.069-2.94-18.32 2.92l-23.452 32.391c-4.252 5.863-2.941 14.063 2.932 18.315l7.329 5.31a13.13 13.13 0 0 0 6.112 2.396l-.154 1.92 4.66 3.385 20.771-28.678-17.039-12.347-5.297 7.32 8.289 6-6.591 9.094a4.52 4.52 0 0 1-4.716 1.754 4.5 4.5 0 0 1-1.606-.738l-3.741-2.712c-2.023-1.464-2.482-4.302-1.011-6.322l21.07-29.1a4.534 4.534 0 0 1 6.329-1.011l3.739 2.704a4.539 4.539 0 0 1 1.02 6.325l-5.142 7.099 8.748 6.34 6.328-8.74c4.246-5.864 2.94-14.062-2.926-18.315m109.432 79.255c-8.006-5.805-19.201-4.015-24.996 3.994-10.517 14.52 9.776 32.15 4.256 39.775a7.987 7.987 0 0 1-11.16 1.78c-3.57-2.577-4.37-7.572-1.783-11.151l2.526-3.489-8.748-6.337-2.42 3.333c-6.082 8.408-4.202 20.162 4.204 26.245 8.404 6.082 20.152 4.209 26.237-4.202 10.416-14.375-9.872-32.02-4.255-39.771a7.1 7.1 0 0 1 4.629-2.844 7.09 7.09 0 0 1 5.283 1.264c3.176 2.295 3.888 6.73 1.588 9.914l-2.101 2.89 8.748 6.34 1.982-2.747c5.803-8.004 4.02-19.2-3.99-24.994M380.371 197.977h-15.606v-17.188h15.606v-10.614h-15.606V152.99h15.606v-10.626h-26.41v66.225h26.41zm196.769-19.031h6.023l11.345 29.645h10.805l-11.485-30.008c5.771-1.385 10.049-6.562 10.049-12.756V155.49c0-7.245-5.866-13.125-13.109-13.125h-24.433v66.224h10.805zm0-25.954h11.402a4.53 4.53 0 0 1 4.538 4.523v6.283a4.54 4.54 0 0 1-4.538 4.54H577.14zm-265.553 15.84 17.363 39.759h10.809v-66.224h-10.81v39.764l-17.362-39.765h-10.799v66.224h10.799zm223.28 39.759h9.042c7.254 0 13.127-5.879 13.127-13.12v-39.98c0-7.245-5.874-13.126-13.127-13.126h-9.042c-7.248 0-13.126 5.882-13.126 13.125v39.981c0 7.241 5.878 13.12 13.126 13.12m-2.317-51.077a4.525 4.525 0 0 1 4.528-4.523h4.62a4.521 4.521 0 0 1 4.185 2.791c.228.55.346 1.138.346 1.733v35.933a4.53 4.53 0 0 1-4.531 4.528h-4.62a4.53 4.53 0 0 1-4.528-4.528zm95.459 23.66 4.842-7.779 15.565 35.195h10.805l-20.041-45.334 13.033-20.89h-10.809l-13.395 21.483v-21.483h-10.805v66.224h10.805zM490.765 208.59h10.807v-27.416l14.262-38.809h-10.805l-8.867 24.114-8.863-24.114h-10.805l14.271 38.81zm-76.41 0 5.663-34.712 5.663 34.712h12.924l10.81-66.224h-10.81l-6.454 39.615-6.47-39.615h-11.326l-6.465 39.616-6.455-39.616h-10.81l10.81 66.225z"/><path fill="#fff" d="m604.448 84.615-19.174 18.649-19.171-18.65H393.9l-19.172 18.65-19.172-18.65H237.261l35.133 62.352v322.782c0 16.214 5.645 53.917 57.972 53.917h96.637c31.032 0 48.267 23.85 52.995 31.395 4.737-7.545 21.972-31.395 53.003-31.395h96.636c52.329 0 57.981-37.703 57.981-53.917V146.965l35.126-62.351zm68.925 58.622v326.51c0 18.1-7.587 39.672-43.736 39.672h-96.636c-24.558 0-42.045 13.804-53.003 24.78-10.942-10.976-28.438-24.78-52.995-24.78h-96.636c-36.145 0-43.736-21.572-43.736-39.671v-326.51l-25.004-44.38h88.147l24.954 24.266 24.958-24.265h160.635l24.954 24.265 24.952-24.265h88.15z"/></svg>